M48
INCH,TZ
T1C0.0157
T2C0.0300
T3C0.0394
T4C0.1200
%
G90
G05
T1
X29000Y-49250
X29250Y-49750
X29250Y-51250
X29500Y-50750
X30500Y-42750
X30500Y-43250
X30500Y-47250
X30500Y-49750
X31250Y-42500
X31750Y-38000
X31750Y-53000
X32000Y-38250
X32000Y-47500
X32000Y-48000
X32000Y-52750
X32250Y-35250
X32250Y-37250
X32500Y-37500
X32500Y-44000
X32750Y-35000
X33000Y-40500
X33000Y-47250
X33250Y-35250
X33250Y-42500
X33250Y-47000
X33750Y-53750
X34000Y-53500
X34250Y-46000
X34250Y-53250
X34750Y-39750
X35000Y-40750
X35000Y-43250
X35000Y-45000
X36500Y-38750
X37500Y-38250
X37500Y-45500
X40000Y-38250
X40000Y-46000
X40750Y-38000
X40750Y-45750
X43250Y-38250
X43500Y-46000
X44500Y-38000
X44500Y-45750
X47000Y-38250
X47000Y-46000
X48000Y-45750
X48250Y-36250
X49250Y-36000
X49750Y-37250
X50500Y-38250
X50500Y-46000
X51250Y-38000
X51500Y-45750
X54000Y-38250
X54000Y-46000
X54750Y-38000
X54750Y-45750
X55500Y-53500
X57250Y-38500
X57250Y-46000
X58000Y-51250
X58250Y-38750
X58250Y-45250
X59750Y-40750
X59750Y-43250
X60750Y-36250
X61000Y-36750
X61750Y-38000
X62250Y-36500
X63250Y-39000
X64250Y-39250
X64500Y-36500
X64750Y-36250
X64750Y-49250
X65000Y-36000
X65250Y-35750
X65250Y-39000
X65250Y-40250
T2
X45876Y-37402
X46876Y-37402
X47876Y-37402
X48876Y-37402
T3
X66250Y-44500
X66250Y-45500
X66250Y-46500
X66250Y-37500
X66250Y-38500
X66250Y-39500
X66250Y-40500
X66250Y-41500
X66250Y-42500
X66250Y-43500
X28500Y-37500
X28500Y-38500
X28500Y-39500
X28500Y-40500
X28500Y-41500
X28500Y-42500
X28500Y-43500
X28500Y-44500
X28500Y-45500
X28500Y-46500
T4
X29000Y-54750
X65750Y-54750
X29000Y-32000
X65750Y-32000
T0
M30
