G04 #@! TF.GenerationSoftware,KiCad,Pcbnew,(5.1.8)-1*
G04 #@! TF.CreationDate,2021-01-16T01:22:51+01:00*
G04 #@! TF.ProjectId,8bitWave Module,38626974-5761-4766-9520-4d6f64756c65,rev?*
G04 #@! TF.SameCoordinates,Original*
G04 #@! TF.FileFunction,Copper,L1,Top*
G04 #@! TF.FilePolarity,Positive*
%FSLAX46Y46*%
G04 Gerber Fmt 4.6, Leading zero omitted, Abs format (unit mm)*
G04 Created by KiCad (PCBNEW (5.1.8)-1) date 2021-01-16 01:22:51*
%MOMM*%
%LPD*%
G01*
G04 APERTURE LIST*
G04 #@! TA.AperFunction,ComponentPad*
%ADD10C,1.600000*%
G04 #@! TD*
G04 #@! TA.AperFunction,ComponentPad*
%ADD11R,1.600000X1.600000*%
G04 #@! TD*
G04 #@! TA.AperFunction,ComponentPad*
%ADD12R,1.700000X1.700000*%
G04 #@! TD*
G04 #@! TA.AperFunction,ComponentPad*
%ADD13O,1.700000X1.700000*%
G04 #@! TD*
G04 #@! TA.AperFunction,ComponentPad*
%ADD14C,1.900000*%
G04 #@! TD*
G04 #@! TA.AperFunction,ComponentPad*
%ADD15O,2.500000X1.600000*%
G04 #@! TD*
G04 #@! TA.AperFunction,WasherPad*
%ADD16C,1.700000*%
G04 #@! TD*
G04 #@! TA.AperFunction,WasherPad*
%ADD17C,2.500000*%
G04 #@! TD*
G04 #@! TA.AperFunction,ComponentPad*
%ADD18C,1.524000*%
G04 #@! TD*
G04 #@! TA.AperFunction,ComponentPad*
%ADD19R,1.524000X1.524000*%
G04 #@! TD*
G04 #@! TA.AperFunction,ComponentPad*
%ADD20O,1.600000X1.600000*%
G04 #@! TD*
G04 #@! TA.AperFunction,ComponentPad*
%ADD21O,2.200000X2.200000*%
G04 #@! TD*
G04 #@! TA.AperFunction,ComponentPad*
%ADD22R,2.200000X2.200000*%
G04 #@! TD*
G04 #@! TA.AperFunction,ComponentPad*
%ADD23R,3.500000X3.500000*%
G04 #@! TD*
G04 #@! TA.AperFunction,ComponentPad*
%ADD24C,2.100000*%
G04 #@! TD*
G04 #@! TA.AperFunction,ComponentPad*
%ADD25C,1.750000*%
G04 #@! TD*
G04 #@! TA.AperFunction,ComponentPad*
%ADD26C,5.000000*%
G04 #@! TD*
G04 #@! TA.AperFunction,ComponentPad*
%ADD27R,2.400000X1.600000*%
G04 #@! TD*
G04 #@! TA.AperFunction,ComponentPad*
%ADD28O,2.400000X1.600000*%
G04 #@! TD*
G04 #@! TA.AperFunction,ComponentPad*
%ADD29R,1.200000X1.200000*%
G04 #@! TD*
G04 #@! TA.AperFunction,ComponentPad*
%ADD30C,1.200000*%
G04 #@! TD*
G04 #@! TA.AperFunction,ComponentPad*
%ADD31R,1.800000X1.800000*%
G04 #@! TD*
G04 #@! TA.AperFunction,ComponentPad*
%ADD32C,1.800000*%
G04 #@! TD*
G04 #@! TA.AperFunction,ComponentPad*
%ADD33R,3.500000X2.500000*%
G04 #@! TD*
G04 #@! TA.AperFunction,ComponentPad*
%ADD34O,1.750000X3.500000*%
G04 #@! TD*
G04 #@! TA.AperFunction,ComponentPad*
%ADD35C,1.440000*%
G04 #@! TD*
G04 #@! TA.AperFunction,WasherPad*
%ADD36C,1.524000*%
G04 #@! TD*
G04 #@! TA.AperFunction,ViaPad*
%ADD37C,0.600000*%
G04 #@! TD*
G04 #@! TA.AperFunction,Conductor*
%ADD38C,0.250000*%
G04 #@! TD*
G04 #@! TA.AperFunction,Conductor*
%ADD39C,0.381000*%
G04 #@! TD*
G04 APERTURE END LIST*
D10*
X109220000Y-128905000D03*
X109220000Y-126365000D03*
X109220000Y-123825000D03*
X109220000Y-121285000D03*
X109220000Y-118745000D03*
D11*
X109220000Y-116205000D03*
D12*
X112395000Y-80010000D03*
D13*
X109855000Y-80010000D03*
D14*
X93960000Y-85175000D03*
D15*
X92710000Y-87575000D03*
D14*
X91460000Y-85175000D03*
D16*
X92710000Y-82875000D03*
D17*
X132400000Y-132450000D03*
D18*
X124460000Y-107950000D03*
X121920000Y-107950000D03*
X119380000Y-107950000D03*
D19*
X116840000Y-107950000D03*
D13*
X97155000Y-108990000D03*
X97155000Y-106450000D03*
X97155000Y-103910000D03*
X97155000Y-99190000D03*
X97155000Y-96650000D03*
X97155000Y-91590000D03*
X97155000Y-89050000D03*
X97155000Y-86510000D03*
X97155000Y-83970000D03*
X72390000Y-100330000D03*
X72390000Y-97790000D03*
D12*
X72390000Y-95250000D03*
D11*
X161290000Y-117475000D03*
D20*
X146050000Y-84455000D03*
X161290000Y-114935000D03*
X146050000Y-86995000D03*
X161290000Y-112395000D03*
X146050000Y-89535000D03*
X161290000Y-109855000D03*
X146050000Y-92075000D03*
X161290000Y-107315000D03*
X146050000Y-94615000D03*
X161290000Y-104775000D03*
X146050000Y-97155000D03*
X161290000Y-102235000D03*
X146050000Y-99695000D03*
X161290000Y-99695000D03*
X146050000Y-102235000D03*
X161290000Y-97155000D03*
X146050000Y-104775000D03*
X161290000Y-94615000D03*
X146050000Y-107315000D03*
X161290000Y-92075000D03*
X146050000Y-109855000D03*
X161290000Y-89535000D03*
X146050000Y-112395000D03*
X161290000Y-86995000D03*
X146050000Y-114935000D03*
X161290000Y-84455000D03*
X146050000Y-117475000D03*
X161290000Y-81915000D03*
X146050000Y-81915000D03*
D11*
X111125000Y-85725000D03*
D10*
X111125000Y-83725000D03*
D21*
X137795000Y-131445000D03*
D22*
X147955000Y-131445000D03*
D13*
X151765000Y-126365000D03*
X151765000Y-128905000D03*
D12*
X151765000Y-131445000D03*
D13*
X139065000Y-101600000D03*
X139065000Y-104140000D03*
X136525000Y-101600000D03*
X136525000Y-104140000D03*
X133985000Y-101600000D03*
D12*
X133985000Y-104140000D03*
D23*
X159845000Y-124205000D03*
X162845000Y-128905000D03*
X156845000Y-128905000D03*
D12*
X168275000Y-95250000D03*
D13*
X168275000Y-97790000D03*
X168275000Y-100330000D03*
X168275000Y-102870000D03*
X168275000Y-105410000D03*
X168275000Y-107950000D03*
X168275000Y-110490000D03*
D24*
X132035000Y-137210000D03*
D25*
X133295000Y-139700000D03*
X137795000Y-139700000D03*
D24*
X139045000Y-137210000D03*
X142830000Y-137210000D03*
D25*
X144090000Y-139700000D03*
X148590000Y-139700000D03*
D24*
X149840000Y-137210000D03*
X101555000Y-137210000D03*
D25*
X102815000Y-139700000D03*
X107315000Y-139700000D03*
D24*
X108565000Y-137210000D03*
X86315000Y-137210000D03*
D25*
X87575000Y-139700000D03*
X92075000Y-139700000D03*
D24*
X93325000Y-137210000D03*
X116795000Y-137210000D03*
D25*
X118055000Y-139700000D03*
X122555000Y-139700000D03*
D24*
X123805000Y-137210000D03*
D26*
X73660000Y-139065000D03*
X167005000Y-139065000D03*
X167005000Y-81280000D03*
X73660000Y-81280000D03*
D10*
X133350000Y-80010000D03*
D20*
X133350000Y-90170000D03*
D10*
X137160000Y-80010000D03*
D20*
X137160000Y-90170000D03*
D10*
X140970000Y-80010000D03*
D20*
X140970000Y-90170000D03*
D10*
X129540000Y-80010000D03*
D20*
X129540000Y-90170000D03*
D10*
X125730000Y-112395000D03*
D20*
X115570000Y-112395000D03*
D27*
X106045000Y-89535000D03*
D28*
X113665000Y-97155000D03*
X106045000Y-92075000D03*
X113665000Y-94615000D03*
X106045000Y-94615000D03*
X113665000Y-92075000D03*
X106045000Y-97155000D03*
X113665000Y-89535000D03*
D10*
X129540000Y-97790000D03*
X129540000Y-92790000D03*
X133350000Y-92710000D03*
X133350000Y-97710000D03*
X137160000Y-92710000D03*
X137160000Y-97710000D03*
X140970000Y-92710000D03*
X140970000Y-97710000D03*
X111680000Y-100965000D03*
X106680000Y-100965000D03*
D29*
X118110000Y-94615000D03*
D30*
X118110000Y-96615000D03*
D29*
X102235000Y-90170000D03*
D30*
X100235000Y-90170000D03*
D10*
X111680000Y-104775000D03*
X106680000Y-104775000D03*
D11*
X102870000Y-107315000D03*
D10*
X100370000Y-107315000D03*
D31*
X80645000Y-137160000D03*
D32*
X80645000Y-139700000D03*
D10*
X115570000Y-124460000D03*
D20*
X125730000Y-124460000D03*
D33*
X82550000Y-82859000D03*
D34*
X87550000Y-87865000D03*
X77550000Y-87865000D03*
X85050000Y-87865000D03*
X80050000Y-87865000D03*
D31*
X160020000Y-137160000D03*
D32*
X160020000Y-139700000D03*
D10*
X115570000Y-119380000D03*
D20*
X125730000Y-119380000D03*
D12*
X168275000Y-113030000D03*
D13*
X168275000Y-115570000D03*
X168275000Y-118110000D03*
D10*
X137795000Y-108585000D03*
D20*
X137795000Y-118745000D03*
D10*
X141605000Y-108585000D03*
D20*
X141605000Y-118745000D03*
D13*
X128270000Y-101600000D03*
X128270000Y-104140000D03*
X125730000Y-101600000D03*
X125730000Y-104140000D03*
X123190000Y-101600000D03*
X123190000Y-104140000D03*
X120650000Y-101600000D03*
X120650000Y-104140000D03*
X118110000Y-101600000D03*
X118110000Y-104140000D03*
X115570000Y-101600000D03*
D12*
X115570000Y-104140000D03*
D35*
X123825000Y-88900000D03*
X121285000Y-88900000D03*
X118745000Y-88900000D03*
D36*
X127000000Y-81915000D03*
X115570000Y-81915000D03*
D13*
X104775000Y-80010000D03*
X102235000Y-80010000D03*
D12*
X99695000Y-80010000D03*
D10*
X146685000Y-124500000D03*
D11*
X146685000Y-127000000D03*
D37*
X152400000Y-92075000D03*
X154305000Y-107950000D03*
X153035000Y-92710000D03*
X154940000Y-107315000D03*
X153035000Y-95250000D03*
X153035000Y-107950000D03*
X152400000Y-97790000D03*
X152400000Y-107315000D03*
X153670000Y-97790000D03*
X153670000Y-107315000D03*
X149860000Y-90170000D03*
X149860000Y-87630000D03*
X140970000Y-105410000D03*
X138430000Y-106045000D03*
X109220000Y-89535000D03*
X160020000Y-80645000D03*
X151765000Y-88265000D03*
X151765000Y-107950000D03*
X113030000Y-123190000D03*
X151130000Y-107315000D03*
X151130000Y-87630000D03*
X93980000Y-122555000D03*
X96520000Y-123825000D03*
X112395000Y-120650000D03*
X150495000Y-88265000D03*
X150495000Y-107950000D03*
X93345000Y-119380000D03*
X96393000Y-121285000D03*
X143510000Y-111125000D03*
X101600000Y-101600000D03*
X101600000Y-104140000D03*
X106680000Y-108585000D03*
X164465000Y-102870000D03*
X163830000Y-101600000D03*
X156210000Y-100330000D03*
X142875000Y-107315000D03*
X142140812Y-104635040D03*
X128394449Y-113154449D03*
X127635000Y-117475000D03*
X114300000Y-135255000D03*
X114300000Y-133350000D03*
X128905000Y-112395000D03*
X127000000Y-118110000D03*
X114935000Y-135890000D03*
X114935000Y-132715000D03*
X132715000Y-116840000D03*
X132715000Y-111760000D03*
X142240000Y-100330000D03*
X116205000Y-97155000D03*
X113665000Y-102870000D03*
X94615000Y-93345000D03*
X97790000Y-93345000D03*
X153670000Y-118110000D03*
X131445000Y-107315000D03*
X131445000Y-117475000D03*
X137160000Y-129540000D03*
X131445000Y-103449490D03*
X131445000Y-127635000D03*
X131445000Y-111760000D03*
D38*
X151765000Y-91440000D02*
X152400000Y-92075000D01*
X147955000Y-91440000D02*
X146050000Y-89535000D01*
X151765000Y-91440000D02*
X147955000Y-91440000D01*
X151130000Y-120015000D02*
X151130000Y-114935000D01*
X146685000Y-121285000D02*
X149860000Y-121285000D01*
X135255000Y-137160000D02*
X135255000Y-122555000D01*
X135255000Y-122555000D02*
X135890000Y-121920000D01*
X137795000Y-139700000D02*
X135255000Y-137160000D01*
X154305000Y-111760000D02*
X154305000Y-107950000D01*
X135890000Y-121920000D02*
X146050000Y-121920000D01*
X151130000Y-114935000D02*
X154305000Y-111760000D01*
X149860000Y-121285000D02*
X151130000Y-120015000D01*
X146050000Y-121920000D02*
X146685000Y-121285000D01*
X146685000Y-92710000D02*
X146050000Y-92075000D01*
X153035000Y-92710000D02*
X146685000Y-92710000D01*
X154940000Y-112395000D02*
X154940000Y-107315000D01*
X151765000Y-115570000D02*
X154940000Y-112395000D01*
X151765000Y-120650000D02*
X151765000Y-115570000D01*
X150177500Y-122237500D02*
X151765000Y-120650000D01*
X145415000Y-135255000D02*
X136525000Y-135255000D01*
X146050000Y-139065000D02*
X146050000Y-135890000D01*
X146685000Y-139700000D02*
X146050000Y-139065000D01*
X146685000Y-122555000D02*
X147002500Y-122237500D01*
X146050000Y-135890000D02*
X145415000Y-135255000D01*
X135890000Y-134620000D02*
X135890000Y-123190000D01*
X148590000Y-139700000D02*
X146685000Y-139700000D01*
X136525000Y-135255000D02*
X135890000Y-134620000D01*
X136525000Y-122555000D02*
X146685000Y-122555000D01*
X135890000Y-123190000D02*
X136525000Y-122555000D01*
X147002500Y-122237500D02*
X150177500Y-122237500D01*
X153035000Y-95250000D02*
X152400000Y-94615000D01*
X152400000Y-94615000D02*
X146050000Y-94615000D01*
X110490000Y-139700000D02*
X107315000Y-139700000D01*
X111125000Y-139065000D02*
X110490000Y-139700000D01*
X111125000Y-135255000D02*
X111125000Y-139065000D01*
X111760000Y-134620000D02*
X111125000Y-135255000D01*
X128905000Y-134620000D02*
X111760000Y-134620000D01*
X129540000Y-133985000D02*
X128905000Y-134620000D01*
X129540000Y-129540000D02*
X129540000Y-133985000D01*
X130175000Y-128905000D02*
X129540000Y-129540000D01*
X149860000Y-113665000D02*
X149860000Y-118745000D01*
X133350000Y-121285000D02*
X133350000Y-128270000D01*
X153035000Y-110490000D02*
X149860000Y-113665000D01*
X153035000Y-107950000D02*
X153035000Y-110490000D01*
X133985000Y-120650000D02*
X133350000Y-121285000D01*
X132715000Y-128905000D02*
X130175000Y-128905000D01*
X148590000Y-120015000D02*
X145415000Y-120015000D01*
X133350000Y-128270000D02*
X132715000Y-128905000D01*
X149860000Y-118745000D02*
X148590000Y-120015000D01*
X145415000Y-120015000D02*
X144780000Y-120650000D01*
X144780000Y-120650000D02*
X133985000Y-120650000D01*
X151765000Y-97155000D02*
X152400000Y-97790000D01*
X151765000Y-97155000D02*
X146050000Y-97155000D01*
X97790000Y-139065000D02*
X97155000Y-139700000D01*
X98425000Y-133985000D02*
X97790000Y-134620000D01*
X128270000Y-133985000D02*
X98425000Y-133985000D01*
X128905000Y-133350000D02*
X128270000Y-133985000D01*
X129540000Y-128270000D02*
X128905000Y-128905000D01*
X97790000Y-134620000D02*
X97790000Y-139065000D01*
X147955000Y-119380000D02*
X144780000Y-119380000D01*
X149225000Y-118110000D02*
X147955000Y-119380000D01*
X133350000Y-120015000D02*
X132715000Y-120650000D01*
X144780000Y-119380000D02*
X144145000Y-120015000D01*
X149225000Y-113030000D02*
X149225000Y-118110000D01*
X128905000Y-128905000D02*
X128905000Y-133350000D01*
X144145000Y-120015000D02*
X133350000Y-120015000D01*
X152400000Y-109855000D02*
X149225000Y-113030000D01*
X152400000Y-107315000D02*
X152400000Y-109855000D01*
X97155000Y-139700000D02*
X92075000Y-139700000D01*
X132715000Y-120650000D02*
X132715000Y-127635000D01*
X132715000Y-127635000D02*
X132080000Y-128270000D01*
X132080000Y-128270000D02*
X129540000Y-128270000D01*
X154940000Y-94615000D02*
X154305000Y-94615000D01*
X153670000Y-95250000D02*
X153670000Y-97790000D01*
X154305000Y-94615000D02*
X153670000Y-95250000D01*
X154940000Y-94615000D02*
X161290000Y-94615000D01*
X121920000Y-139065000D02*
X122555000Y-139700000D01*
X121920000Y-135890000D02*
X121920000Y-139065000D01*
X150495000Y-119380000D02*
X149225000Y-120650000D01*
X150495000Y-114300000D02*
X150495000Y-119380000D01*
X153670000Y-107315000D02*
X153670000Y-111125000D01*
X149225000Y-120650000D02*
X146050000Y-120650000D01*
X153670000Y-111125000D02*
X150495000Y-114300000D01*
X146050000Y-120650000D02*
X145415000Y-121285000D01*
X145415000Y-121285000D02*
X134620000Y-121285000D01*
X122555000Y-135255000D02*
X121920000Y-135890000D01*
X134620000Y-121285000D02*
X133985000Y-121920000D01*
X133985000Y-121920000D02*
X133985000Y-129540000D01*
X133985000Y-129540000D02*
X133350000Y-130175000D01*
X133350000Y-130175000D02*
X130810000Y-130175000D01*
X130810000Y-130175000D02*
X130175000Y-130810000D01*
X130175000Y-130810000D02*
X130175000Y-134620000D01*
X130175000Y-134620000D02*
X129540000Y-135255000D01*
X129540000Y-135255000D02*
X122555000Y-135255000D01*
X168910000Y-113030000D02*
X169545000Y-112395000D01*
X168275000Y-113030000D02*
X168910000Y-113030000D01*
X169545000Y-112395000D02*
X169545000Y-91440000D01*
X169545000Y-91440000D02*
X168910000Y-90805000D01*
X168910000Y-90805000D02*
X151130000Y-90805000D01*
X150495000Y-90805000D02*
X149860000Y-90170000D01*
X151130000Y-90805000D02*
X150495000Y-90805000D01*
X149860000Y-87630000D02*
X149860000Y-85090000D01*
X149860000Y-85090000D02*
X149225000Y-84455000D01*
X149225000Y-84455000D02*
X146050000Y-84455000D01*
X163195000Y-99934998D02*
X161685002Y-98425000D01*
X165735000Y-105410000D02*
X163830000Y-103505000D01*
X163195000Y-102235000D02*
X163195000Y-99934998D01*
X168275000Y-105410000D02*
X165735000Y-105410000D01*
X163830000Y-103505000D02*
X163830000Y-102870000D01*
X163830000Y-102870000D02*
X163195000Y-102235000D01*
X140545736Y-105410000D02*
X140970000Y-105410000D01*
X124460000Y-106045000D02*
X125095000Y-105410000D01*
X125095000Y-105410000D02*
X140545736Y-105410000D01*
X124460000Y-107950000D02*
X124460000Y-106045000D01*
X143510000Y-102235000D02*
X146050000Y-99695000D01*
X141605000Y-102235000D02*
X143510000Y-102235000D01*
X140970000Y-102870000D02*
X141605000Y-102235000D01*
X140970000Y-105410000D02*
X140970000Y-102870000D01*
X155575000Y-99695000D02*
X156845000Y-98425000D01*
X146050000Y-99695000D02*
X155575000Y-99695000D01*
X161685002Y-98425000D02*
X156845000Y-98425000D01*
X161925000Y-100965000D02*
X147320000Y-100965000D01*
X147320000Y-100965000D02*
X146050000Y-102235000D01*
X162560000Y-101600000D02*
X161925000Y-100965000D01*
X162560000Y-102870000D02*
X162560000Y-101600000D01*
X163195000Y-103505000D02*
X162560000Y-102870000D01*
X165100000Y-107950000D02*
X164465000Y-107315000D01*
X164465000Y-105410000D02*
X163195000Y-104140000D01*
X168275000Y-107950000D02*
X165100000Y-107950000D01*
X164465000Y-107315000D02*
X164465000Y-105410000D01*
X163195000Y-104140000D02*
X163195000Y-103505000D01*
X125730000Y-106680000D02*
X126365000Y-106045000D01*
X145250001Y-103034999D02*
X146050000Y-102235000D01*
X125095000Y-109855000D02*
X125730000Y-109220000D01*
X125730000Y-109220000D02*
X125730000Y-106680000D01*
X126365000Y-106045000D02*
X141602178Y-106045000D01*
X143137200Y-105144978D02*
X145247179Y-103034999D01*
X141602178Y-106045000D02*
X142502200Y-105144978D01*
X123825000Y-109855000D02*
X125095000Y-109855000D01*
X121920000Y-107950000D02*
X123825000Y-109855000D01*
X142502200Y-105144978D02*
X143137200Y-105144978D01*
X145247179Y-103034999D02*
X145250001Y-103034999D01*
D39*
X163830000Y-118110000D02*
X168275000Y-118110000D01*
X163195000Y-117475000D02*
X163830000Y-118110000D01*
X139065000Y-113665000D02*
X142875000Y-109855000D01*
X142875000Y-109855000D02*
X146050000Y-109855000D01*
X111125000Y-118110000D02*
X110490000Y-118745000D01*
X110490000Y-118745000D02*
X109220000Y-118745000D01*
X163195000Y-120650000D02*
X163195000Y-117475000D01*
X162560000Y-121285000D02*
X163195000Y-120650000D01*
X156210000Y-121285000D02*
X162560000Y-121285000D01*
X155575000Y-121920000D02*
X156210000Y-121285000D01*
X153035000Y-131445000D02*
X153670000Y-130810000D01*
X151765000Y-131445000D02*
X153035000Y-131445000D01*
X155575000Y-124460000D02*
X155575000Y-121920000D01*
X153670000Y-130810000D02*
X153670000Y-126365000D01*
X153670000Y-126365000D02*
X155575000Y-124460000D01*
X128905000Y-113665000D02*
X128270000Y-114300000D01*
X128905000Y-113665000D02*
X139065000Y-113665000D01*
X128270000Y-114300000D02*
X111760000Y-114300000D01*
X111125000Y-118110000D02*
X111125000Y-114935000D01*
X111760000Y-114300000D02*
X111125000Y-114935000D01*
X97155000Y-99190000D02*
X95761000Y-100584000D01*
D38*
X95761000Y-100584000D02*
X95758000Y-100584000D01*
D39*
X95758000Y-113030000D02*
X95758000Y-100584000D01*
X111760000Y-114300000D02*
X97028000Y-114300000D01*
X97028000Y-114300000D02*
X95758000Y-113030000D01*
X163195000Y-111760000D02*
X163195000Y-117475000D01*
X163195000Y-109220000D02*
X163195000Y-111760000D01*
X146685000Y-109855000D02*
X150495000Y-106045000D01*
X146050000Y-109855000D02*
X146685000Y-109855000D01*
X150495000Y-106045000D02*
X155188056Y-106045000D01*
X162480501Y-108505501D02*
X163195000Y-109220000D01*
X155188056Y-106045000D02*
X157648557Y-108505501D01*
X157648557Y-108505501D02*
X162480501Y-108505501D01*
D38*
X138215001Y-102449999D02*
X139065000Y-101600000D01*
X137889999Y-102775001D02*
X138215001Y-102449999D01*
X135160001Y-102775001D02*
X137889999Y-102775001D01*
X133985000Y-101600000D02*
X135160001Y-102775001D01*
D39*
X160158630Y-89535000D02*
X161290000Y-89535000D01*
X149225000Y-88265000D02*
X150495000Y-89535000D01*
X144780000Y-88265000D02*
X149225000Y-88265000D01*
X150495000Y-89535000D02*
X160158630Y-89535000D01*
X142875000Y-101600000D02*
X144145000Y-100330000D01*
X144145000Y-100330000D02*
X144145000Y-88900000D01*
X139065000Y-101600000D02*
X142875000Y-101600000D01*
X144145000Y-88900000D02*
X144780000Y-88265000D01*
D38*
X107315000Y-87630000D02*
X109220000Y-89535000D01*
X102235000Y-80010000D02*
X102235000Y-86360000D01*
X102235000Y-86360000D02*
X102870000Y-86995000D01*
X106680000Y-86995000D02*
X107315000Y-87630000D01*
X102870000Y-86995000D02*
X106680000Y-86995000D01*
D39*
X129540000Y-90170000D02*
X129540000Y-92790000D01*
X129540000Y-88900000D02*
X129540000Y-90170000D01*
X130175000Y-88265000D02*
X129540000Y-88900000D01*
X136525000Y-100397919D02*
X135255000Y-99127919D01*
X135255000Y-99127919D02*
X135255000Y-88900000D01*
X136525000Y-101600000D02*
X136525000Y-100397919D01*
X135255000Y-88900000D02*
X134620000Y-88265000D01*
X134620000Y-88265000D02*
X130175000Y-88265000D01*
X137160000Y-90170000D02*
X137160000Y-92710000D01*
X133350000Y-85090000D02*
X133350000Y-80010000D01*
X137160000Y-88900000D02*
X133350000Y-85090000D01*
X137160000Y-90170000D02*
X137160000Y-88900000D01*
X140970000Y-90170000D02*
X140970000Y-92710000D01*
X137160000Y-80010000D02*
X137160000Y-86360000D01*
X139065000Y-88265000D02*
X137160000Y-86360000D01*
X139065000Y-88265000D02*
X140970000Y-90170000D01*
D38*
X158115000Y-78740000D02*
X96520000Y-78740000D01*
X95305000Y-87575000D02*
X92710000Y-87575000D01*
X95885000Y-86995000D02*
X95305000Y-87575000D01*
X160020000Y-80645000D02*
X158115000Y-78740000D01*
X96520000Y-78740000D02*
X95885000Y-79375000D01*
X95885000Y-79375000D02*
X95885000Y-86995000D01*
X153035000Y-86995000D02*
X152400000Y-86995000D01*
X151765000Y-87630000D02*
X151765000Y-88265000D01*
X152400000Y-86995000D02*
X151765000Y-87630000D01*
X161290000Y-86995000D02*
X153035000Y-86995000D01*
X113665000Y-128270000D02*
X113030000Y-128905000D01*
X130810000Y-116840000D02*
X114300000Y-116840000D01*
X113665000Y-117475000D02*
X113665000Y-128270000D01*
X114300000Y-116840000D02*
X113665000Y-117475000D01*
X131445000Y-116205000D02*
X130810000Y-116840000D01*
X151765000Y-107950000D02*
X151765000Y-109220000D01*
X148590000Y-112395000D02*
X148590000Y-115570000D01*
X113030000Y-128905000D02*
X109220000Y-128905000D01*
X151765000Y-109220000D02*
X148590000Y-112395000D01*
X148590000Y-115570000D02*
X147955000Y-116205000D01*
X147955000Y-116205000D02*
X131445000Y-116205000D01*
X152400000Y-84455000D02*
X151765000Y-84455000D01*
X151765000Y-84455000D02*
X151130000Y-85090000D01*
X161290000Y-84455000D02*
X152400000Y-84455000D01*
X151130000Y-107315000D02*
X151130000Y-108585000D01*
X143510000Y-113665000D02*
X141605000Y-115570000D01*
X151130000Y-108585000D02*
X147955000Y-111760000D01*
X147320000Y-113665000D02*
X143510000Y-113665000D01*
X147955000Y-111760000D02*
X147955000Y-113030000D01*
X147955000Y-113030000D02*
X147320000Y-113665000D01*
X151130000Y-85090000D02*
X151130000Y-87630000D01*
X130810000Y-115570000D02*
X130175000Y-116205000D01*
X141605000Y-115570000D02*
X130810000Y-115570000D01*
X130175000Y-116205000D02*
X113665000Y-116205000D01*
X113665000Y-116205000D02*
X113030000Y-116840000D01*
X113030000Y-116840000D02*
X113030000Y-123190000D01*
X72390000Y-97790000D02*
X93726000Y-97790000D01*
X93726000Y-97790000D02*
X94560021Y-98624021D01*
X96647000Y-123825000D02*
X109220000Y-123825000D01*
X94560021Y-98624021D02*
X94560021Y-111705021D01*
X94560021Y-111705021D02*
X94560021Y-111814979D01*
X94560021Y-111814979D02*
X93980000Y-112395000D01*
X93980000Y-112395000D02*
X93980000Y-120015000D01*
X93980000Y-120015000D02*
X93980000Y-122555000D01*
X151765000Y-81915000D02*
X150945002Y-81915000D01*
X150495000Y-82365002D02*
X150495000Y-88265000D01*
X150945002Y-81915000D02*
X150495000Y-82365002D01*
X161290000Y-81915000D02*
X151765000Y-81915000D01*
X147320000Y-111125000D02*
X150495000Y-107950000D01*
X140970000Y-114935000D02*
X144780000Y-111125000D01*
X144780000Y-111125000D02*
X147320000Y-111125000D01*
X130175000Y-114935000D02*
X129540000Y-115570000D01*
X130175000Y-114935000D02*
X140970000Y-114935000D01*
X129540000Y-115570000D02*
X113030000Y-115570000D01*
X113030000Y-115570000D02*
X112395000Y-116205000D01*
X112395000Y-120650000D02*
X112395000Y-116205000D01*
X94110010Y-100206010D02*
X93599000Y-99695000D01*
X93599000Y-99695000D02*
X73025000Y-99695000D01*
X73025000Y-99695000D02*
X72390000Y-100330000D01*
X94110010Y-111065689D02*
X94110010Y-100206010D01*
X109220000Y-121285000D02*
X96393000Y-121285000D01*
X94110010Y-111065689D02*
X94110010Y-111121990D01*
X94110010Y-111121990D02*
X93345000Y-111887000D01*
X93345000Y-111887000D02*
X93345000Y-119380000D01*
X111125000Y-126365000D02*
X109220000Y-126365000D01*
X111760000Y-125730000D02*
X111125000Y-126365000D01*
X111760000Y-115570000D02*
X111760000Y-125730000D01*
X140335000Y-114300000D02*
X129540000Y-114300000D01*
X143510000Y-111125000D02*
X140335000Y-114300000D01*
X128905000Y-114935000D02*
X112395000Y-114935000D01*
X129540000Y-114300000D02*
X128905000Y-114935000D01*
X112395000Y-114935000D02*
X111760000Y-115570000D01*
X95250000Y-126365000D02*
X109220000Y-126365000D01*
X94615000Y-125730000D02*
X95250000Y-126365000D01*
X94615000Y-113030000D02*
X94615000Y-125730000D01*
X95159009Y-112485991D02*
X94615000Y-113030000D01*
X73490000Y-95250000D02*
X75395000Y-97155000D01*
X75395000Y-97155000D02*
X93980000Y-97155000D01*
X93980000Y-97155000D02*
X95159009Y-98334009D01*
X72390000Y-95250000D02*
X73490000Y-95250000D01*
X95159009Y-98334009D02*
X95159009Y-112485991D01*
X100235000Y-80550000D02*
X99695000Y-80010000D01*
X100235000Y-90170000D02*
X100235000Y-80550000D01*
D39*
X115570000Y-104140000D02*
X114470000Y-104140000D01*
X114470000Y-104140000D02*
X114300000Y-104140000D01*
X112315501Y-106124499D02*
X105489499Y-106124499D01*
X114300000Y-104140000D02*
X112315501Y-106124499D01*
X105489499Y-106124499D02*
X104515501Y-105150501D01*
X100370000Y-106183630D02*
X101403129Y-105150501D01*
X100370000Y-107315000D02*
X100370000Y-106183630D01*
X78105000Y-95250000D02*
X77550000Y-94695000D01*
X77550000Y-94695000D02*
X77550000Y-87865000D01*
X78740000Y-95250000D02*
X78105000Y-95250000D01*
X100965000Y-95250000D02*
X78740000Y-95250000D01*
X101600000Y-101600000D02*
X101600000Y-95885000D01*
X101600000Y-95885000D02*
X100965000Y-95250000D01*
X102610501Y-105150501D02*
X101600000Y-104140000D01*
X101403129Y-105150501D02*
X102610501Y-105150501D01*
X102610501Y-105150501D02*
X104515501Y-105150501D01*
X133350000Y-92710000D02*
X133350000Y-94615000D01*
X129540000Y-95885000D02*
X129540000Y-97790000D01*
X130175000Y-95250000D02*
X129540000Y-95885000D01*
X132715000Y-95250000D02*
X130175000Y-95250000D01*
X133350000Y-94615000D02*
X132715000Y-95250000D01*
X133350000Y-90170000D02*
X133350000Y-92710000D01*
X107315000Y-112395000D02*
X115570000Y-112395000D01*
X106680000Y-111760000D02*
X107315000Y-112395000D01*
X106680000Y-111760000D02*
X106680000Y-108585000D01*
D38*
X102235000Y-90170000D02*
X102870000Y-89535000D01*
X102870000Y-89535000D02*
X106045000Y-89535000D01*
D39*
X118110000Y-104140000D02*
X120650000Y-104140000D01*
X120650000Y-104140000D02*
X123190000Y-104140000D01*
X118110000Y-104775000D02*
X118110000Y-104140000D01*
X113665000Y-106045000D02*
X112395000Y-107315000D01*
X116840000Y-106045000D02*
X113665000Y-106045000D01*
X116840000Y-106045000D02*
X118110000Y-104775000D01*
X102870000Y-107315000D02*
X112395000Y-107315000D01*
D38*
X110490000Y-92075000D02*
X113665000Y-92075000D01*
X109855000Y-91440000D02*
X110490000Y-92075000D01*
X109855000Y-88045000D02*
X109855000Y-88265000D01*
X111125000Y-86775000D02*
X109855000Y-88045000D01*
X111125000Y-85725000D02*
X111125000Y-86775000D01*
X109855000Y-88265000D02*
X109855000Y-91440000D01*
X164465000Y-102870000D02*
X168275000Y-102870000D01*
X168275000Y-100330000D02*
X167005000Y-101600000D01*
X167005000Y-101600000D02*
X163830000Y-101600000D01*
X156210000Y-100330000D02*
X156845000Y-99695000D01*
X156845000Y-99695000D02*
X161290000Y-99695000D01*
X145799997Y-100820001D02*
X142440811Y-104179187D01*
X146590001Y-100820001D02*
X145799997Y-100820001D01*
X142440811Y-104179187D02*
X142440811Y-104335041D01*
X156210000Y-100330000D02*
X147080002Y-100330000D01*
X147080002Y-100330000D02*
X146590001Y-100820001D01*
X142440811Y-104335041D02*
X142140812Y-104635040D01*
X125730000Y-124460000D02*
X127635000Y-122555000D01*
X127635000Y-122555000D02*
X127635000Y-117899264D01*
X127635000Y-117899264D02*
X127635000Y-117475000D01*
X128518898Y-113030000D02*
X128394449Y-113154449D01*
X138825002Y-113030000D02*
X128518898Y-113030000D01*
X142875000Y-107315000D02*
X142875000Y-108980002D01*
X142875000Y-108980002D02*
X138825002Y-113030000D01*
X80645000Y-139700000D02*
X80645000Y-140970000D01*
X80645000Y-140970000D02*
X81280000Y-141605000D01*
X113665000Y-141605000D02*
X114300000Y-140970000D01*
X81280000Y-141605000D02*
X113665000Y-141605000D01*
X114300000Y-140970000D02*
X114300000Y-135255000D01*
X114300000Y-125730000D02*
X115570000Y-124460000D01*
X114300000Y-133350000D02*
X114300000Y-125730000D01*
X161290000Y-92075000D02*
X165100000Y-92075000D01*
X166370000Y-97790000D02*
X168275000Y-97790000D01*
X165735000Y-97155000D02*
X166370000Y-97790000D01*
X165735000Y-92710000D02*
X165735000Y-97155000D01*
X165100000Y-92075000D02*
X165735000Y-92710000D01*
X161290000Y-104775000D02*
X156209962Y-104775000D01*
X147715002Y-104775000D02*
X146445002Y-106045000D01*
X156209962Y-104775000D02*
X147715002Y-104775000D01*
X146445002Y-106045000D02*
X142875000Y-106045000D01*
X142875000Y-106045000D02*
X141605000Y-107315000D01*
X141605000Y-107315000D02*
X134620000Y-107315000D01*
X134620000Y-107315000D02*
X133985000Y-107950000D01*
X133985000Y-107950000D02*
X133985000Y-111760000D01*
X133985000Y-111760000D02*
X133350000Y-112395000D01*
X133350000Y-112395000D02*
X128905000Y-112395000D01*
X127000000Y-118110000D02*
X127000000Y-118745000D01*
X127000000Y-118745000D02*
X126365000Y-119380000D01*
X126365000Y-119380000D02*
X125730000Y-119380000D01*
X114935000Y-132715000D02*
X114935000Y-128905000D01*
X114935000Y-128905000D02*
X116840000Y-127000000D01*
X116840000Y-120650000D02*
X115570000Y-119380000D01*
X116840000Y-127000000D02*
X116840000Y-120650000D01*
X114935000Y-140970000D02*
X114935000Y-135890000D01*
X115570000Y-141605000D02*
X114935000Y-140970000D01*
X154940000Y-141605000D02*
X115570000Y-141605000D01*
X160020000Y-139700000D02*
X156845000Y-139700000D01*
X156845000Y-139700000D02*
X154940000Y-141605000D01*
X112395000Y-82455000D02*
X111125000Y-83725000D01*
X112395000Y-80010000D02*
X112395000Y-82455000D01*
X137795000Y-118745000D02*
X141605000Y-118745000D01*
X119380000Y-109855000D02*
X119380000Y-107950000D01*
X120015000Y-110490000D02*
X119380000Y-109855000D01*
X125730000Y-110490000D02*
X120015000Y-110490000D01*
X126365000Y-109855000D02*
X125730000Y-110490000D01*
X127000000Y-106680000D02*
X126365000Y-107315000D01*
X126365000Y-107315000D02*
X126365000Y-109855000D01*
X133350000Y-106680000D02*
X127000000Y-106680000D01*
X132715000Y-118110000D02*
X133350000Y-118745000D01*
X137795000Y-118745000D02*
X133350000Y-118745000D01*
X132715000Y-118110000D02*
X132715000Y-116840000D01*
X168275000Y-115570000D02*
X163830000Y-111125000D01*
X163830000Y-111125000D02*
X163830000Y-106045000D01*
X142688600Y-105594989D02*
X141603589Y-106680000D01*
X141603589Y-106680000D02*
X133350000Y-106680000D01*
X162560000Y-104775000D02*
X162560000Y-104140000D01*
X143323601Y-105594989D02*
X142688600Y-105594989D01*
X162560000Y-104140000D02*
X161925000Y-103505000D01*
X145413590Y-103505000D02*
X143323601Y-105594989D01*
X161925000Y-103505000D02*
X145413590Y-103505000D01*
X163830000Y-106045000D02*
X162560000Y-104775000D01*
X132715000Y-111335736D02*
X132715000Y-111760000D01*
X132715000Y-107315000D02*
X132715000Y-111335736D01*
X133350000Y-106680000D02*
X132715000Y-107315000D01*
D39*
X137795000Y-132715000D02*
X138430000Y-133350000D01*
X137795000Y-131445000D02*
X137795000Y-132715000D01*
X138430000Y-133350000D02*
X155575000Y-133350000D01*
X155575000Y-133350000D02*
X156210000Y-133350000D01*
X156845000Y-132715000D02*
X156845000Y-128905000D01*
X156210000Y-133350000D02*
X156845000Y-132715000D01*
X142875000Y-99695000D02*
X142240000Y-100330000D01*
X142875000Y-81915000D02*
X142875000Y-99695000D01*
X140970000Y-80010000D02*
X142875000Y-81915000D01*
X115570000Y-101600000D02*
X118110000Y-101600000D01*
X112395000Y-102870000D02*
X98195000Y-102870000D01*
X115570000Y-101600000D02*
X113665000Y-101600000D01*
X113665000Y-101600000D02*
X112395000Y-102870000D01*
X98195000Y-102870000D02*
X97155000Y-103910000D01*
X133985000Y-104140000D02*
X136525000Y-104140000D01*
X121920000Y-90805000D02*
X116840000Y-90805000D01*
X116205000Y-91440000D02*
X116205000Y-96730736D01*
X116205000Y-96730736D02*
X116205000Y-97155000D01*
X123825000Y-88900000D02*
X121920000Y-90805000D01*
X116840000Y-90805000D02*
X116205000Y-91440000D01*
X116840000Y-97790000D02*
X116504999Y-97454999D01*
X127000000Y-99695000D02*
X127000000Y-98425000D01*
X130810000Y-104140000D02*
X130175000Y-103505000D01*
X133985000Y-104140000D02*
X130810000Y-104140000D01*
X127000000Y-98425000D02*
X126365000Y-97790000D01*
X127635000Y-100330000D02*
X127000000Y-99695000D01*
X130175000Y-103505000D02*
X130175000Y-100965000D01*
X116504999Y-97454999D02*
X116205000Y-97155000D01*
X130175000Y-100965000D02*
X129540000Y-100330000D01*
X126365000Y-97790000D02*
X116840000Y-97790000D01*
X129540000Y-100330000D02*
X127635000Y-100330000D01*
X103505000Y-92075000D02*
X103020000Y-91590000D01*
X125730000Y-99060000D02*
X125095000Y-98425000D01*
X103020000Y-91590000D02*
X97155000Y-91590000D01*
X103505000Y-97790000D02*
X103505000Y-92075000D01*
X125730000Y-101600000D02*
X125730000Y-99060000D01*
X125095000Y-98425000D02*
X104140000Y-98425000D01*
X104140000Y-98425000D02*
X103505000Y-97790000D01*
X122555000Y-99695000D02*
X123190000Y-100330000D01*
X102868589Y-99695000D02*
X122555000Y-99695000D01*
X102235000Y-95250000D02*
X102235000Y-99061411D01*
X101600000Y-94615000D02*
X102235000Y-95250000D01*
X102235000Y-99061411D02*
X102868589Y-99695000D01*
X97155000Y-89050000D02*
X95952919Y-89050000D01*
X123190000Y-100330000D02*
X123190000Y-101600000D01*
X95952919Y-89050000D02*
X95885000Y-89117919D01*
X96520000Y-94615000D02*
X101600000Y-94615000D01*
X95885000Y-89117919D02*
X95885000Y-93980000D01*
X95885000Y-93980000D02*
X96520000Y-94615000D01*
D38*
X111680000Y-104775000D02*
X113585000Y-102870000D01*
X119380000Y-102870000D02*
X114089264Y-102870000D01*
X120650000Y-101600000D02*
X119380000Y-102870000D01*
X114089264Y-102870000D02*
X113665000Y-102870000D01*
X113585000Y-102870000D02*
X113665000Y-102870000D01*
D39*
X125730000Y-104140000D02*
X128270000Y-104140000D01*
X124460000Y-99695000D02*
X123825000Y-99060000D01*
X83185000Y-93345000D02*
X82550000Y-92710000D01*
X82550000Y-92710000D02*
X82550000Y-82859000D01*
X83820000Y-93345000D02*
X83185000Y-93345000D01*
X83820000Y-93345000D02*
X94190736Y-93345000D01*
X94190736Y-93345000D02*
X94615000Y-93345000D01*
X124460000Y-102870000D02*
X124460000Y-99695000D01*
X125730000Y-104140000D02*
X124460000Y-102870000D01*
X102235000Y-93345000D02*
X97790000Y-93345000D01*
X102870000Y-93980000D02*
X102235000Y-93345000D01*
X102870000Y-98425000D02*
X102870000Y-93980000D01*
X103505000Y-99060000D02*
X102870000Y-98425000D01*
X123825000Y-99060000D02*
X103505000Y-99060000D01*
D38*
X107495000Y-94615000D02*
X106045000Y-94615000D01*
X108909990Y-93200010D02*
X107495000Y-94615000D01*
X115570000Y-92710000D02*
X114935000Y-93345000D01*
X121285000Y-88900000D02*
X121285000Y-87630000D01*
X121285000Y-87630000D02*
X120650000Y-86995000D01*
X120650000Y-86995000D02*
X116205000Y-86995000D01*
X114935000Y-93345000D02*
X108909990Y-93200010D01*
X116205000Y-86995000D02*
X115570000Y-87630000D01*
X115570000Y-87630000D02*
X115570000Y-92710000D01*
D39*
X153670000Y-118110000D02*
X153670000Y-122555000D01*
X153670000Y-122555000D02*
X151765000Y-124460000D01*
X151765000Y-124460000D02*
X151765000Y-126365000D01*
X147955000Y-130095000D02*
X147955000Y-131445000D01*
X147955000Y-129540000D02*
X147955000Y-130095000D01*
X149225000Y-129540000D02*
X149860000Y-128905000D01*
X147955000Y-129540000D02*
X149225000Y-129540000D01*
X151765000Y-128905000D02*
X149860000Y-128905000D01*
X123825000Y-94615000D02*
X118110000Y-94615000D01*
X127635000Y-95250000D02*
X127000000Y-94615000D01*
X131445000Y-100778329D02*
X130175000Y-99695000D01*
X131445000Y-103449490D02*
X131445000Y-100778329D01*
X127000000Y-94615000D02*
X123825000Y-94615000D01*
X128270000Y-99695000D02*
X127635000Y-99060000D01*
X130175000Y-99695000D02*
X128270000Y-99695000D01*
X127635000Y-99060000D02*
X127635000Y-95250000D01*
X131445000Y-117475000D02*
X131445000Y-127635000D01*
X131445000Y-107315000D02*
X131445000Y-111760000D01*
X137160000Y-129540000D02*
X145415000Y-129540000D01*
X145415000Y-129540000D02*
X147955000Y-129540000D01*
X146685000Y-128270000D02*
X145415000Y-129540000D01*
X146685000Y-127000000D02*
X146685000Y-128270000D01*
M02*
