G04 #@! TF.GenerationSoftware,KiCad,Pcbnew,(5.1.5)-3*
G04 #@! TF.CreationDate,2020-06-04T00:05:55+02:00*
G04 #@! TF.ProjectId,8bitWave Module,38626974-5761-4766-9520-4d6f64756c65,rev?*
G04 #@! TF.SameCoordinates,Original*
G04 #@! TF.FileFunction,Legend,Bot*
G04 #@! TF.FilePolarity,Positive*
%FSLAX46Y46*%
G04 Gerber Fmt 4.6, Leading zero omitted, Abs format (unit mm)*
G04 Created by KiCad (PCBNEW (5.1.5)-3) date 2020-06-04 00:05:55*
%MOMM*%
%LPD*%
G04 APERTURE LIST*
%ADD10C,0.100000*%
%ADD11C,0.150000*%
%ADD12C,0.200000*%
G04 APERTURE END LIST*
D10*
X139407380Y-82851904D02*
X139788333Y-82851904D01*
X139788333Y-82051904D01*
X139026428Y-82851904D02*
X139102619Y-82813809D01*
X139140714Y-82775714D01*
X139178809Y-82699523D01*
X139178809Y-82470952D01*
X139140714Y-82394761D01*
X139102619Y-82356666D01*
X139026428Y-82318571D01*
X138912142Y-82318571D01*
X138835952Y-82356666D01*
X138797857Y-82394761D01*
X138759761Y-82470952D01*
X138759761Y-82699523D01*
X138797857Y-82775714D01*
X138835952Y-82813809D01*
X138912142Y-82851904D01*
X139026428Y-82851904D01*
X138493095Y-82318571D02*
X138340714Y-82851904D01*
X138188333Y-82470952D01*
X138035952Y-82851904D01*
X137883571Y-82318571D01*
X137578809Y-82547142D02*
X136969285Y-82547142D01*
X136588333Y-82318571D02*
X136588333Y-83118571D01*
X136588333Y-82356666D02*
X136512142Y-82318571D01*
X136359761Y-82318571D01*
X136283571Y-82356666D01*
X136245476Y-82394761D01*
X136207380Y-82470952D01*
X136207380Y-82699523D01*
X136245476Y-82775714D01*
X136283571Y-82813809D01*
X136359761Y-82851904D01*
X136512142Y-82851904D01*
X136588333Y-82813809D01*
X135521666Y-82851904D02*
X135521666Y-82432857D01*
X135559761Y-82356666D01*
X135635952Y-82318571D01*
X135788333Y-82318571D01*
X135864523Y-82356666D01*
X135521666Y-82813809D02*
X135597857Y-82851904D01*
X135788333Y-82851904D01*
X135864523Y-82813809D01*
X135902619Y-82737619D01*
X135902619Y-82661428D01*
X135864523Y-82585238D01*
X135788333Y-82547142D01*
X135597857Y-82547142D01*
X135521666Y-82509047D01*
X135178809Y-82813809D02*
X135102619Y-82851904D01*
X134950238Y-82851904D01*
X134874047Y-82813809D01*
X134835952Y-82737619D01*
X134835952Y-82699523D01*
X134874047Y-82623333D01*
X134950238Y-82585238D01*
X135064523Y-82585238D01*
X135140714Y-82547142D01*
X135178809Y-82470952D01*
X135178809Y-82432857D01*
X135140714Y-82356666D01*
X135064523Y-82318571D01*
X134950238Y-82318571D01*
X134874047Y-82356666D01*
X134531190Y-82813809D02*
X134455000Y-82851904D01*
X134302619Y-82851904D01*
X134226428Y-82813809D01*
X134188333Y-82737619D01*
X134188333Y-82699523D01*
X134226428Y-82623333D01*
X134302619Y-82585238D01*
X134416904Y-82585238D01*
X134493095Y-82547142D01*
X134531190Y-82470952D01*
X134531190Y-82432857D01*
X134493095Y-82356666D01*
X134416904Y-82318571D01*
X134302619Y-82318571D01*
X134226428Y-82356666D01*
X133350238Y-82318571D02*
X133045476Y-82318571D01*
X133235952Y-82851904D02*
X133235952Y-82166190D01*
X133197857Y-82090000D01*
X133121666Y-82051904D01*
X133045476Y-82051904D01*
X132778809Y-82851904D02*
X132778809Y-82318571D01*
X132778809Y-82051904D02*
X132816904Y-82090000D01*
X132778809Y-82128095D01*
X132740714Y-82090000D01*
X132778809Y-82051904D01*
X132778809Y-82128095D01*
X132283571Y-82851904D02*
X132359761Y-82813809D01*
X132397857Y-82737619D01*
X132397857Y-82051904D01*
X132093095Y-82318571D02*
X131788333Y-82318571D01*
X131978809Y-82051904D02*
X131978809Y-82737619D01*
X131940714Y-82813809D01*
X131864523Y-82851904D01*
X131788333Y-82851904D01*
X131216904Y-82813809D02*
X131293095Y-82851904D01*
X131445476Y-82851904D01*
X131521666Y-82813809D01*
X131559761Y-82737619D01*
X131559761Y-82432857D01*
X131521666Y-82356666D01*
X131445476Y-82318571D01*
X131293095Y-82318571D01*
X131216904Y-82356666D01*
X131178809Y-82432857D01*
X131178809Y-82509047D01*
X131559761Y-82585238D01*
X130835952Y-82851904D02*
X130835952Y-82318571D01*
X130835952Y-82470952D02*
X130797857Y-82394761D01*
X130759761Y-82356666D01*
X130683571Y-82318571D01*
X130607380Y-82318571D01*
X139693095Y-84113809D02*
X139769285Y-84151904D01*
X139921666Y-84151904D01*
X139997857Y-84113809D01*
X140035952Y-84075714D01*
X140074047Y-83999523D01*
X140074047Y-83770952D01*
X140035952Y-83694761D01*
X139997857Y-83656666D01*
X139921666Y-83618571D01*
X139769285Y-83618571D01*
X139693095Y-83656666D01*
X139235952Y-84151904D02*
X139312142Y-84113809D01*
X139350238Y-84075714D01*
X139388333Y-83999523D01*
X139388333Y-83770952D01*
X139350238Y-83694761D01*
X139312142Y-83656666D01*
X139235952Y-83618571D01*
X139121666Y-83618571D01*
X139045476Y-83656666D01*
X139007380Y-83694761D01*
X138969285Y-83770952D01*
X138969285Y-83999523D01*
X139007380Y-84075714D01*
X139045476Y-84113809D01*
X139121666Y-84151904D01*
X139235952Y-84151904D01*
X138626428Y-84151904D02*
X138626428Y-83618571D01*
X138626428Y-83694761D02*
X138588333Y-83656666D01*
X138512142Y-83618571D01*
X138397857Y-83618571D01*
X138321666Y-83656666D01*
X138283571Y-83732857D01*
X138283571Y-84151904D01*
X138283571Y-83732857D02*
X138245476Y-83656666D01*
X138169285Y-83618571D01*
X138055000Y-83618571D01*
X137978809Y-83656666D01*
X137940714Y-83732857D01*
X137940714Y-84151904D01*
X137559761Y-83618571D02*
X137559761Y-84418571D01*
X137559761Y-83656666D02*
X137483571Y-83618571D01*
X137331190Y-83618571D01*
X137255000Y-83656666D01*
X137216904Y-83694761D01*
X137178809Y-83770952D01*
X137178809Y-83999523D01*
X137216904Y-84075714D01*
X137255000Y-84113809D01*
X137331190Y-84151904D01*
X137483571Y-84151904D01*
X137559761Y-84113809D01*
X136721666Y-84151904D02*
X136797857Y-84113809D01*
X136835952Y-84075714D01*
X136874047Y-83999523D01*
X136874047Y-83770952D01*
X136835952Y-83694761D01*
X136797857Y-83656666D01*
X136721666Y-83618571D01*
X136607380Y-83618571D01*
X136531190Y-83656666D01*
X136493095Y-83694761D01*
X136455000Y-83770952D01*
X136455000Y-83999523D01*
X136493095Y-84075714D01*
X136531190Y-84113809D01*
X136607380Y-84151904D01*
X136721666Y-84151904D01*
X136112142Y-83618571D02*
X136112142Y-84151904D01*
X136112142Y-83694761D02*
X136074047Y-83656666D01*
X135997857Y-83618571D01*
X135883571Y-83618571D01*
X135807380Y-83656666D01*
X135769285Y-83732857D01*
X135769285Y-84151904D01*
X135083571Y-84113809D02*
X135159761Y-84151904D01*
X135312142Y-84151904D01*
X135388333Y-84113809D01*
X135426428Y-84037619D01*
X135426428Y-83732857D01*
X135388333Y-83656666D01*
X135312142Y-83618571D01*
X135159761Y-83618571D01*
X135083571Y-83656666D01*
X135045476Y-83732857D01*
X135045476Y-83809047D01*
X135426428Y-83885238D01*
X134702619Y-83618571D02*
X134702619Y-84151904D01*
X134702619Y-83694761D02*
X134664523Y-83656666D01*
X134588333Y-83618571D01*
X134474047Y-83618571D01*
X134397857Y-83656666D01*
X134359761Y-83732857D01*
X134359761Y-84151904D01*
X134093095Y-83618571D02*
X133788333Y-83618571D01*
X133978809Y-83351904D02*
X133978809Y-84037619D01*
X133940714Y-84113809D01*
X133864523Y-84151904D01*
X133788333Y-84151904D01*
X133559761Y-84113809D02*
X133483571Y-84151904D01*
X133331190Y-84151904D01*
X133255000Y-84113809D01*
X133216904Y-84037619D01*
X133216904Y-83999523D01*
X133255000Y-83923333D01*
X133331190Y-83885238D01*
X133445476Y-83885238D01*
X133521666Y-83847142D01*
X133559761Y-83770952D01*
X133559761Y-83732857D01*
X133521666Y-83656666D01*
X133445476Y-83618571D01*
X133331190Y-83618571D01*
X133255000Y-83656666D01*
X132835952Y-84113809D02*
X132835952Y-84151904D01*
X132874047Y-84228095D01*
X132912142Y-84266190D01*
X131921666Y-84113809D02*
X131845476Y-84151904D01*
X131693095Y-84151904D01*
X131616904Y-84113809D01*
X131578809Y-84037619D01*
X131578809Y-83999523D01*
X131616904Y-83923333D01*
X131693095Y-83885238D01*
X131807380Y-83885238D01*
X131883571Y-83847142D01*
X131921666Y-83770952D01*
X131921666Y-83732857D01*
X131883571Y-83656666D01*
X131807380Y-83618571D01*
X131693095Y-83618571D01*
X131616904Y-83656666D01*
X130931190Y-84113809D02*
X131007380Y-84151904D01*
X131159761Y-84151904D01*
X131235952Y-84113809D01*
X131274047Y-84037619D01*
X131274047Y-83732857D01*
X131235952Y-83656666D01*
X131159761Y-83618571D01*
X131007380Y-83618571D01*
X130931190Y-83656666D01*
X130893095Y-83732857D01*
X130893095Y-83809047D01*
X131274047Y-83885238D01*
X130664523Y-83618571D02*
X130359761Y-83618571D01*
X130550238Y-83351904D02*
X130550238Y-84037619D01*
X130512142Y-84113809D01*
X130435952Y-84151904D01*
X130359761Y-84151904D01*
X140340714Y-85451904D02*
X140721666Y-85451904D01*
X140721666Y-84651904D01*
X140074047Y-85451904D02*
X140074047Y-84651904D01*
X139769285Y-84651904D01*
X139693095Y-84690000D01*
X139655000Y-84728095D01*
X139616904Y-84804285D01*
X139616904Y-84918571D01*
X139655000Y-84994761D01*
X139693095Y-85032857D01*
X139769285Y-85070952D01*
X140074047Y-85070952D01*
X139464523Y-85528095D02*
X138855000Y-85528095D01*
X138397857Y-85032857D02*
X138664523Y-85032857D01*
X138664523Y-85451904D02*
X138664523Y-84651904D01*
X138283571Y-84651904D01*
X137978809Y-85451904D02*
X137978809Y-84651904D01*
X137216904Y-85451904D02*
X137597857Y-85451904D01*
X137597857Y-84651904D01*
X137064523Y-84651904D02*
X136607380Y-84651904D01*
X136835952Y-85451904D02*
X136835952Y-84651904D01*
X136340714Y-85032857D02*
X136074047Y-85032857D01*
X135959761Y-85451904D02*
X136340714Y-85451904D01*
X136340714Y-84651904D01*
X135959761Y-84651904D01*
X135159761Y-85451904D02*
X135426428Y-85070952D01*
X135616904Y-85451904D02*
X135616904Y-84651904D01*
X135312142Y-84651904D01*
X135235952Y-84690000D01*
X135197857Y-84728095D01*
X135159761Y-84804285D01*
X135159761Y-84918571D01*
X135197857Y-84994761D01*
X135235952Y-85032857D01*
X135312142Y-85070952D01*
X135616904Y-85070952D01*
X133788333Y-85451904D02*
X134245476Y-85451904D01*
X134016904Y-85451904D02*
X134016904Y-84651904D01*
X134093095Y-84766190D01*
X134169285Y-84842380D01*
X134245476Y-84880476D01*
X133445476Y-85147142D02*
X132835952Y-85147142D01*
X132493095Y-84728095D02*
X132455000Y-84690000D01*
X132378809Y-84651904D01*
X132188333Y-84651904D01*
X132112142Y-84690000D01*
X132074047Y-84728095D01*
X132035952Y-84804285D01*
X132035952Y-84880476D01*
X132074047Y-84994761D01*
X132531190Y-85451904D01*
X132035952Y-85451904D01*
X131197857Y-84918571D02*
X130893095Y-84918571D01*
X131083571Y-85451904D02*
X131083571Y-84766190D01*
X131045476Y-84690000D01*
X130969285Y-84651904D01*
X130893095Y-84651904D01*
X130512142Y-85451904D02*
X130588333Y-85413809D01*
X130626428Y-85375714D01*
X130664523Y-85299523D01*
X130664523Y-85070952D01*
X130626428Y-84994761D01*
X130588333Y-84956666D01*
X130512142Y-84918571D01*
X130397857Y-84918571D01*
X130321666Y-84956666D01*
X130283571Y-84994761D01*
X130245476Y-85070952D01*
X130245476Y-85299523D01*
X130283571Y-85375714D01*
X130321666Y-85413809D01*
X130397857Y-85451904D01*
X130512142Y-85451904D01*
X129902619Y-85451904D02*
X129902619Y-84918571D01*
X129902619Y-85070952D02*
X129864523Y-84994761D01*
X129826428Y-84956666D01*
X129750238Y-84918571D01*
X129674047Y-84918571D01*
X140835952Y-86751904D02*
X140835952Y-85951904D01*
X140835952Y-86713809D02*
X140912142Y-86751904D01*
X141064523Y-86751904D01*
X141140714Y-86713809D01*
X141178809Y-86675714D01*
X141216904Y-86599523D01*
X141216904Y-86370952D01*
X141178809Y-86294761D01*
X141140714Y-86256666D01*
X141064523Y-86218571D01*
X140912142Y-86218571D01*
X140835952Y-86256666D01*
X140455000Y-86751904D02*
X140455000Y-86218571D01*
X140455000Y-85951904D02*
X140493095Y-85990000D01*
X140455000Y-86028095D01*
X140416904Y-85990000D01*
X140455000Y-85951904D01*
X140455000Y-86028095D01*
X140112142Y-86713809D02*
X140035952Y-86751904D01*
X139883571Y-86751904D01*
X139807380Y-86713809D01*
X139769285Y-86637619D01*
X139769285Y-86599523D01*
X139807380Y-86523333D01*
X139883571Y-86485238D01*
X139997857Y-86485238D01*
X140074047Y-86447142D01*
X140112142Y-86370952D01*
X140112142Y-86332857D01*
X140074047Y-86256666D01*
X139997857Y-86218571D01*
X139883571Y-86218571D01*
X139807380Y-86256666D01*
X139083571Y-86751904D02*
X139083571Y-86332857D01*
X139121666Y-86256666D01*
X139197857Y-86218571D01*
X139350238Y-86218571D01*
X139426428Y-86256666D01*
X139083571Y-86713809D02*
X139159761Y-86751904D01*
X139350238Y-86751904D01*
X139426428Y-86713809D01*
X139464523Y-86637619D01*
X139464523Y-86561428D01*
X139426428Y-86485238D01*
X139350238Y-86447142D01*
X139159761Y-86447142D01*
X139083571Y-86409047D01*
X138702619Y-86751904D02*
X138702619Y-85951904D01*
X138702619Y-86256666D02*
X138626428Y-86218571D01*
X138474047Y-86218571D01*
X138397857Y-86256666D01*
X138359761Y-86294761D01*
X138321666Y-86370952D01*
X138321666Y-86599523D01*
X138359761Y-86675714D01*
X138397857Y-86713809D01*
X138474047Y-86751904D01*
X138626428Y-86751904D01*
X138702619Y-86713809D01*
X137864523Y-86751904D02*
X137940714Y-86713809D01*
X137978809Y-86637619D01*
X137978809Y-85951904D01*
X137255000Y-86713809D02*
X137331190Y-86751904D01*
X137483571Y-86751904D01*
X137559761Y-86713809D01*
X137597857Y-86637619D01*
X137597857Y-86332857D01*
X137559761Y-86256666D01*
X137483571Y-86218571D01*
X137331190Y-86218571D01*
X137255000Y-86256666D01*
X137216904Y-86332857D01*
X137216904Y-86409047D01*
X137597857Y-86485238D01*
X136150238Y-86751904D02*
X136226428Y-86713809D01*
X136264523Y-86675714D01*
X136302619Y-86599523D01*
X136302619Y-86370952D01*
X136264523Y-86294761D01*
X136226428Y-86256666D01*
X136150238Y-86218571D01*
X136035952Y-86218571D01*
X135959761Y-86256666D01*
X135921666Y-86294761D01*
X135883571Y-86370952D01*
X135883571Y-86599523D01*
X135921666Y-86675714D01*
X135959761Y-86713809D01*
X136035952Y-86751904D01*
X136150238Y-86751904D01*
X135540714Y-86751904D02*
X135540714Y-86218571D01*
X135540714Y-86370952D02*
X135502619Y-86294761D01*
X135464523Y-86256666D01*
X135388333Y-86218571D01*
X135312142Y-86218571D01*
X134512142Y-86218571D02*
X134359761Y-86751904D01*
X134207380Y-86370952D01*
X134055000Y-86751904D01*
X133902619Y-86218571D01*
X133597857Y-86751904D02*
X133597857Y-85951904D01*
X133255000Y-86751904D02*
X133255000Y-86332857D01*
X133293095Y-86256666D01*
X133369285Y-86218571D01*
X133483571Y-86218571D01*
X133559761Y-86256666D01*
X133597857Y-86294761D01*
X132569285Y-86713809D02*
X132645476Y-86751904D01*
X132797857Y-86751904D01*
X132874047Y-86713809D01*
X132912142Y-86637619D01*
X132912142Y-86332857D01*
X132874047Y-86256666D01*
X132797857Y-86218571D01*
X132645476Y-86218571D01*
X132569285Y-86256666D01*
X132531190Y-86332857D01*
X132531190Y-86409047D01*
X132912142Y-86485238D01*
X132188333Y-86218571D02*
X132188333Y-86751904D01*
X132188333Y-86294761D02*
X132150238Y-86256666D01*
X132074047Y-86218571D01*
X131959761Y-86218571D01*
X131883571Y-86256666D01*
X131845476Y-86332857D01*
X131845476Y-86751904D01*
X130855000Y-86218571D02*
X130855000Y-86751904D01*
X130855000Y-86294761D02*
X130816904Y-86256666D01*
X130740714Y-86218571D01*
X130626428Y-86218571D01*
X130550238Y-86256666D01*
X130512142Y-86332857D01*
X130512142Y-86751904D01*
X130016904Y-86751904D02*
X130093095Y-86713809D01*
X130131190Y-86675714D01*
X130169285Y-86599523D01*
X130169285Y-86370952D01*
X130131190Y-86294761D01*
X130093095Y-86256666D01*
X130016904Y-86218571D01*
X129902619Y-86218571D01*
X129826428Y-86256666D01*
X129788333Y-86294761D01*
X129750238Y-86370952D01*
X129750238Y-86599523D01*
X129788333Y-86675714D01*
X129826428Y-86713809D01*
X129902619Y-86751904D01*
X130016904Y-86751904D01*
X129521666Y-86218571D02*
X129216904Y-86218571D01*
X129407380Y-85951904D02*
X129407380Y-86637619D01*
X129369285Y-86713809D01*
X129293095Y-86751904D01*
X129216904Y-86751904D01*
X137655000Y-88051904D02*
X137655000Y-87518571D01*
X137655000Y-87251904D02*
X137693095Y-87290000D01*
X137655000Y-87328095D01*
X137616904Y-87290000D01*
X137655000Y-87251904D01*
X137655000Y-87328095D01*
X137274047Y-87518571D02*
X137274047Y-88051904D01*
X137274047Y-87594761D02*
X137235952Y-87556666D01*
X137159761Y-87518571D01*
X137045476Y-87518571D01*
X136969285Y-87556666D01*
X136931190Y-87632857D01*
X136931190Y-88051904D01*
X136588333Y-88013809D02*
X136512142Y-88051904D01*
X136359761Y-88051904D01*
X136283571Y-88013809D01*
X136245476Y-87937619D01*
X136245476Y-87899523D01*
X136283571Y-87823333D01*
X136359761Y-87785238D01*
X136474047Y-87785238D01*
X136550238Y-87747142D01*
X136588333Y-87670952D01*
X136588333Y-87632857D01*
X136550238Y-87556666D01*
X136474047Y-87518571D01*
X136359761Y-87518571D01*
X136283571Y-87556666D01*
X136016904Y-87518571D02*
X135712142Y-87518571D01*
X135902619Y-87251904D02*
X135902619Y-87937619D01*
X135864523Y-88013809D01*
X135788333Y-88051904D01*
X135712142Y-88051904D01*
X135102619Y-88051904D02*
X135102619Y-87632857D01*
X135140714Y-87556666D01*
X135216904Y-87518571D01*
X135369285Y-87518571D01*
X135445476Y-87556666D01*
X135102619Y-88013809D02*
X135178809Y-88051904D01*
X135369285Y-88051904D01*
X135445476Y-88013809D01*
X135483571Y-87937619D01*
X135483571Y-87861428D01*
X135445476Y-87785238D01*
X135369285Y-87747142D01*
X135178809Y-87747142D01*
X135102619Y-87709047D01*
X134607380Y-88051904D02*
X134683571Y-88013809D01*
X134721666Y-87937619D01*
X134721666Y-87251904D01*
X134188333Y-88051904D02*
X134264523Y-88013809D01*
X134302619Y-87937619D01*
X134302619Y-87251904D01*
X133578809Y-88013809D02*
X133655000Y-88051904D01*
X133807380Y-88051904D01*
X133883571Y-88013809D01*
X133921666Y-87937619D01*
X133921666Y-87632857D01*
X133883571Y-87556666D01*
X133807380Y-87518571D01*
X133655000Y-87518571D01*
X133578809Y-87556666D01*
X133540714Y-87632857D01*
X133540714Y-87709047D01*
X133921666Y-87785238D01*
X132855000Y-88051904D02*
X132855000Y-87251904D01*
X132855000Y-88013809D02*
X132931190Y-88051904D01*
X133083571Y-88051904D01*
X133159761Y-88013809D01*
X133197857Y-87975714D01*
X133235952Y-87899523D01*
X133235952Y-87670952D01*
X133197857Y-87594761D01*
X133159761Y-87556666D01*
X133083571Y-87518571D01*
X132931190Y-87518571D01*
X132855000Y-87556666D01*
D11*
X142875000Y-99060000D02*
X127635000Y-99060000D01*
X142875000Y-78740000D02*
X142875000Y-99060000D01*
X127635000Y-78740000D02*
X142875000Y-78740000D01*
X127635000Y-99060000D02*
X127635000Y-78740000D01*
X135890000Y-107315000D02*
X143510000Y-107315000D01*
X143510000Y-120015000D02*
X135890000Y-120015000D01*
D10*
X154203095Y-134346904D02*
X154203095Y-133546904D01*
X153898333Y-133546904D01*
X153822142Y-133585000D01*
X153784047Y-133623095D01*
X153745952Y-133699285D01*
X153745952Y-133813571D01*
X153784047Y-133889761D01*
X153822142Y-133927857D01*
X153898333Y-133965952D01*
X154203095Y-133965952D01*
X153479285Y-133546904D02*
X153288809Y-134346904D01*
X153136428Y-133775476D01*
X152984047Y-134346904D01*
X152793571Y-133546904D01*
X152031666Y-134346904D02*
X152298333Y-133965952D01*
X152488809Y-134346904D02*
X152488809Y-133546904D01*
X152184047Y-133546904D01*
X152107857Y-133585000D01*
X152069761Y-133623095D01*
X152031666Y-133699285D01*
X152031666Y-133813571D01*
X152069761Y-133889761D01*
X152107857Y-133927857D01*
X152184047Y-133965952D01*
X152488809Y-133965952D01*
X151879285Y-134423095D02*
X151269761Y-134423095D01*
X151117380Y-134308809D02*
X151003095Y-134346904D01*
X150812619Y-134346904D01*
X150736428Y-134308809D01*
X150698333Y-134270714D01*
X150660238Y-134194523D01*
X150660238Y-134118333D01*
X150698333Y-134042142D01*
X150736428Y-134004047D01*
X150812619Y-133965952D01*
X150965000Y-133927857D01*
X151041190Y-133889761D01*
X151079285Y-133851666D01*
X151117380Y-133775476D01*
X151117380Y-133699285D01*
X151079285Y-133623095D01*
X151041190Y-133585000D01*
X150965000Y-133546904D01*
X150774523Y-133546904D01*
X150660238Y-133585000D01*
X150317380Y-133927857D02*
X150050714Y-133927857D01*
X149936428Y-134346904D02*
X150317380Y-134346904D01*
X150317380Y-133546904D01*
X149936428Y-133546904D01*
X149212619Y-134346904D02*
X149593571Y-134346904D01*
X149593571Y-133546904D01*
D11*
X77470000Y-90805000D02*
X78105000Y-90805000D01*
D10*
X159441428Y-114891666D02*
X159479523Y-114853571D01*
X159555714Y-114739285D01*
X159593809Y-114663095D01*
X159631904Y-114548809D01*
X159670000Y-114358333D01*
X159670000Y-114205952D01*
X159631904Y-114015476D01*
X159593809Y-113901190D01*
X159555714Y-113825000D01*
X159479523Y-113710714D01*
X159441428Y-113672619D01*
X159136666Y-114586904D02*
X159136666Y-113786904D01*
X158831904Y-113786904D01*
X158755714Y-113825000D01*
X158717619Y-113863095D01*
X158679523Y-113939285D01*
X158679523Y-114053571D01*
X158717619Y-114129761D01*
X158755714Y-114167857D01*
X158831904Y-114205952D01*
X159136666Y-114205952D01*
X158412857Y-113786904D02*
X158222380Y-114586904D01*
X158070000Y-114015476D01*
X157917619Y-114586904D01*
X157727142Y-113786904D01*
X156965238Y-114586904D02*
X157231904Y-114205952D01*
X157422380Y-114586904D02*
X157422380Y-113786904D01*
X157117619Y-113786904D01*
X157041428Y-113825000D01*
X157003333Y-113863095D01*
X156965238Y-113939285D01*
X156965238Y-114053571D01*
X157003333Y-114129761D01*
X157041428Y-114167857D01*
X157117619Y-114205952D01*
X157422380Y-114205952D01*
X156812857Y-114663095D02*
X156203333Y-114663095D01*
X156050952Y-114548809D02*
X155936666Y-114586904D01*
X155746190Y-114586904D01*
X155670000Y-114548809D01*
X155631904Y-114510714D01*
X155593809Y-114434523D01*
X155593809Y-114358333D01*
X155631904Y-114282142D01*
X155670000Y-114244047D01*
X155746190Y-114205952D01*
X155898571Y-114167857D01*
X155974761Y-114129761D01*
X156012857Y-114091666D01*
X156050952Y-114015476D01*
X156050952Y-113939285D01*
X156012857Y-113863095D01*
X155974761Y-113825000D01*
X155898571Y-113786904D01*
X155708095Y-113786904D01*
X155593809Y-113825000D01*
X155250952Y-114167857D02*
X154984285Y-114167857D01*
X154870000Y-114586904D02*
X155250952Y-114586904D01*
X155250952Y-113786904D01*
X154870000Y-113786904D01*
X154146190Y-114586904D02*
X154527142Y-114586904D01*
X154527142Y-113786904D01*
X153308095Y-114548809D02*
X153231904Y-114586904D01*
X153079523Y-114586904D01*
X153003333Y-114548809D01*
X152965238Y-114472619D01*
X152965238Y-114434523D01*
X153003333Y-114358333D01*
X153079523Y-114320238D01*
X153193809Y-114320238D01*
X153270000Y-114282142D01*
X153308095Y-114205952D01*
X153308095Y-114167857D01*
X153270000Y-114091666D01*
X153193809Y-114053571D01*
X153079523Y-114053571D01*
X153003333Y-114091666D01*
X152622380Y-114586904D02*
X152622380Y-113786904D01*
X152279523Y-114586904D02*
X152279523Y-114167857D01*
X152317619Y-114091666D01*
X152393809Y-114053571D01*
X152508095Y-114053571D01*
X152584285Y-114091666D01*
X152622380Y-114129761D01*
X151784285Y-114586904D02*
X151860476Y-114548809D01*
X151898571Y-114510714D01*
X151936666Y-114434523D01*
X151936666Y-114205952D01*
X151898571Y-114129761D01*
X151860476Y-114091666D01*
X151784285Y-114053571D01*
X151670000Y-114053571D01*
X151593809Y-114091666D01*
X151555714Y-114129761D01*
X151517619Y-114205952D01*
X151517619Y-114434523D01*
X151555714Y-114510714D01*
X151593809Y-114548809D01*
X151670000Y-114586904D01*
X151784285Y-114586904D01*
X150831904Y-114053571D02*
X150831904Y-114586904D01*
X151174761Y-114053571D02*
X151174761Y-114472619D01*
X151136666Y-114548809D01*
X151060476Y-114586904D01*
X150946190Y-114586904D01*
X150870000Y-114548809D01*
X150831904Y-114510714D01*
X150336666Y-114586904D02*
X150412857Y-114548809D01*
X150450952Y-114472619D01*
X150450952Y-113786904D01*
X149689047Y-114586904D02*
X149689047Y-113786904D01*
X149689047Y-114548809D02*
X149765238Y-114586904D01*
X149917619Y-114586904D01*
X149993809Y-114548809D01*
X150031904Y-114510714D01*
X150070000Y-114434523D01*
X150070000Y-114205952D01*
X150031904Y-114129761D01*
X149993809Y-114091666D01*
X149917619Y-114053571D01*
X149765238Y-114053571D01*
X149689047Y-114091666D01*
X148698571Y-114586904D02*
X148698571Y-113786904D01*
X148698571Y-114091666D02*
X148622380Y-114053571D01*
X148470000Y-114053571D01*
X148393809Y-114091666D01*
X148355714Y-114129761D01*
X148317619Y-114205952D01*
X148317619Y-114434523D01*
X148355714Y-114510714D01*
X148393809Y-114548809D01*
X148470000Y-114586904D01*
X148622380Y-114586904D01*
X148698571Y-114548809D01*
X147670000Y-114548809D02*
X147746190Y-114586904D01*
X147898571Y-114586904D01*
X147974761Y-114548809D01*
X148012857Y-114472619D01*
X148012857Y-114167857D01*
X147974761Y-114091666D01*
X147898571Y-114053571D01*
X147746190Y-114053571D01*
X147670000Y-114091666D01*
X147631904Y-114167857D01*
X147631904Y-114244047D01*
X148012857Y-114320238D01*
X158165238Y-115848809D02*
X158089047Y-115886904D01*
X157936666Y-115886904D01*
X157860476Y-115848809D01*
X157822380Y-115772619D01*
X157822380Y-115734523D01*
X157860476Y-115658333D01*
X157936666Y-115620238D01*
X158050952Y-115620238D01*
X158127142Y-115582142D01*
X158165238Y-115505952D01*
X158165238Y-115467857D01*
X158127142Y-115391666D01*
X158050952Y-115353571D01*
X157936666Y-115353571D01*
X157860476Y-115391666D01*
X157174761Y-115848809D02*
X157250952Y-115886904D01*
X157403333Y-115886904D01*
X157479523Y-115848809D01*
X157517619Y-115772619D01*
X157517619Y-115467857D01*
X157479523Y-115391666D01*
X157403333Y-115353571D01*
X157250952Y-115353571D01*
X157174761Y-115391666D01*
X157136666Y-115467857D01*
X157136666Y-115544047D01*
X157517619Y-115620238D01*
X156908095Y-115353571D02*
X156603333Y-115353571D01*
X156793809Y-115086904D02*
X156793809Y-115772619D01*
X156755714Y-115848809D01*
X156679523Y-115886904D01*
X156603333Y-115886904D01*
X155841428Y-115353571D02*
X155536666Y-115353571D01*
X155727142Y-115086904D02*
X155727142Y-115772619D01*
X155689047Y-115848809D01*
X155612857Y-115886904D01*
X155536666Y-115886904D01*
X155155714Y-115886904D02*
X155231904Y-115848809D01*
X155270000Y-115810714D01*
X155308095Y-115734523D01*
X155308095Y-115505952D01*
X155270000Y-115429761D01*
X155231904Y-115391666D01*
X155155714Y-115353571D01*
X155041428Y-115353571D01*
X154965238Y-115391666D01*
X154927142Y-115429761D01*
X154889047Y-115505952D01*
X154889047Y-115734523D01*
X154927142Y-115810714D01*
X154965238Y-115848809D01*
X155041428Y-115886904D01*
X155155714Y-115886904D01*
X153936666Y-115886904D02*
X153936666Y-115353571D01*
X153936666Y-115086904D02*
X153974761Y-115125000D01*
X153936666Y-115163095D01*
X153898571Y-115125000D01*
X153936666Y-115086904D01*
X153936666Y-115163095D01*
X153555714Y-115353571D02*
X153555714Y-115886904D01*
X153555714Y-115429761D02*
X153517619Y-115391666D01*
X153441428Y-115353571D01*
X153327142Y-115353571D01*
X153250952Y-115391666D01*
X153212857Y-115467857D01*
X153212857Y-115886904D01*
X152946190Y-115353571D02*
X152641428Y-115353571D01*
X152831904Y-115086904D02*
X152831904Y-115772619D01*
X152793809Y-115848809D01*
X152717619Y-115886904D01*
X152641428Y-115886904D01*
X152070000Y-115848809D02*
X152146190Y-115886904D01*
X152298571Y-115886904D01*
X152374761Y-115848809D01*
X152412857Y-115772619D01*
X152412857Y-115467857D01*
X152374761Y-115391666D01*
X152298571Y-115353571D01*
X152146190Y-115353571D01*
X152070000Y-115391666D01*
X152031904Y-115467857D01*
X152031904Y-115544047D01*
X152412857Y-115620238D01*
X151689047Y-115353571D02*
X151689047Y-115886904D01*
X151689047Y-115429761D02*
X151650952Y-115391666D01*
X151574761Y-115353571D01*
X151460476Y-115353571D01*
X151384285Y-115391666D01*
X151346190Y-115467857D01*
X151346190Y-115886904D01*
X150622380Y-115886904D02*
X150622380Y-115086904D01*
X150622380Y-115848809D02*
X150698571Y-115886904D01*
X150850952Y-115886904D01*
X150927142Y-115848809D01*
X150965238Y-115810714D01*
X151003333Y-115734523D01*
X151003333Y-115505952D01*
X150965238Y-115429761D01*
X150927142Y-115391666D01*
X150850952Y-115353571D01*
X150698571Y-115353571D01*
X150622380Y-115391666D01*
X149936666Y-115848809D02*
X150012857Y-115886904D01*
X150165238Y-115886904D01*
X150241428Y-115848809D01*
X150279523Y-115772619D01*
X150279523Y-115467857D01*
X150241428Y-115391666D01*
X150165238Y-115353571D01*
X150012857Y-115353571D01*
X149936666Y-115391666D01*
X149898571Y-115467857D01*
X149898571Y-115544047D01*
X150279523Y-115620238D01*
X149212857Y-115886904D02*
X149212857Y-115086904D01*
X149212857Y-115848809D02*
X149289047Y-115886904D01*
X149441428Y-115886904D01*
X149517619Y-115848809D01*
X149555714Y-115810714D01*
X149593809Y-115734523D01*
X149593809Y-115505952D01*
X149555714Y-115429761D01*
X149517619Y-115391666D01*
X149441428Y-115353571D01*
X149289047Y-115353571D01*
X149212857Y-115391666D01*
X157689047Y-116653571D02*
X157498571Y-117186904D01*
X157308095Y-116653571D01*
X156889047Y-117186904D02*
X156965238Y-117148809D01*
X157003333Y-117110714D01*
X157041428Y-117034523D01*
X157041428Y-116805952D01*
X157003333Y-116729761D01*
X156965238Y-116691666D01*
X156889047Y-116653571D01*
X156774761Y-116653571D01*
X156698571Y-116691666D01*
X156660476Y-116729761D01*
X156622380Y-116805952D01*
X156622380Y-117034523D01*
X156660476Y-117110714D01*
X156698571Y-117148809D01*
X156774761Y-117186904D01*
X156889047Y-117186904D01*
X156165238Y-117186904D02*
X156241428Y-117148809D01*
X156279523Y-117072619D01*
X156279523Y-116386904D01*
X155974761Y-116653571D02*
X155670000Y-116653571D01*
X155860476Y-116386904D02*
X155860476Y-117072619D01*
X155822380Y-117148809D01*
X155746190Y-117186904D01*
X155670000Y-117186904D01*
X155060476Y-117186904D02*
X155060476Y-116767857D01*
X155098571Y-116691666D01*
X155174761Y-116653571D01*
X155327142Y-116653571D01*
X155403333Y-116691666D01*
X155060476Y-117148809D02*
X155136666Y-117186904D01*
X155327142Y-117186904D01*
X155403333Y-117148809D01*
X155441428Y-117072619D01*
X155441428Y-116996428D01*
X155403333Y-116920238D01*
X155327142Y-116882142D01*
X155136666Y-116882142D01*
X155060476Y-116844047D01*
X154336666Y-116653571D02*
X154336666Y-117301190D01*
X154374761Y-117377380D01*
X154412857Y-117415476D01*
X154489047Y-117453571D01*
X154603333Y-117453571D01*
X154679523Y-117415476D01*
X154336666Y-117148809D02*
X154412857Y-117186904D01*
X154565238Y-117186904D01*
X154641428Y-117148809D01*
X154679523Y-117110714D01*
X154717619Y-117034523D01*
X154717619Y-116805952D01*
X154679523Y-116729761D01*
X154641428Y-116691666D01*
X154565238Y-116653571D01*
X154412857Y-116653571D01*
X154336666Y-116691666D01*
X153650952Y-117148809D02*
X153727142Y-117186904D01*
X153879523Y-117186904D01*
X153955714Y-117148809D01*
X153993809Y-117072619D01*
X153993809Y-116767857D01*
X153955714Y-116691666D01*
X153879523Y-116653571D01*
X153727142Y-116653571D01*
X153650952Y-116691666D01*
X153612857Y-116767857D01*
X153612857Y-116844047D01*
X153993809Y-116920238D01*
X153231904Y-117148809D02*
X153231904Y-117186904D01*
X153270000Y-117263095D01*
X153308095Y-117301190D01*
X152279523Y-117186904D02*
X152279523Y-116653571D01*
X152279523Y-116729761D02*
X152241428Y-116691666D01*
X152165238Y-116653571D01*
X152050952Y-116653571D01*
X151974761Y-116691666D01*
X151936666Y-116767857D01*
X151936666Y-117186904D01*
X151936666Y-116767857D02*
X151898571Y-116691666D01*
X151822380Y-116653571D01*
X151708095Y-116653571D01*
X151631904Y-116691666D01*
X151593809Y-116767857D01*
X151593809Y-117186904D01*
X150870000Y-117186904D02*
X150870000Y-116767857D01*
X150908095Y-116691666D01*
X150984285Y-116653571D01*
X151136666Y-116653571D01*
X151212857Y-116691666D01*
X150870000Y-117148809D02*
X150946190Y-117186904D01*
X151136666Y-117186904D01*
X151212857Y-117148809D01*
X151250952Y-117072619D01*
X151250952Y-116996428D01*
X151212857Y-116920238D01*
X151136666Y-116882142D01*
X150946190Y-116882142D01*
X150870000Y-116844047D01*
X150489047Y-117186904D02*
X150489047Y-116653571D01*
X150489047Y-116805952D02*
X150450952Y-116729761D01*
X150412857Y-116691666D01*
X150336666Y-116653571D01*
X150260476Y-116653571D01*
X149993809Y-117186904D02*
X149993809Y-116386904D01*
X149917619Y-116882142D02*
X149689047Y-117186904D01*
X149689047Y-116653571D02*
X149993809Y-116958333D01*
X157365238Y-118448809D02*
X157289047Y-118486904D01*
X157136666Y-118486904D01*
X157060476Y-118448809D01*
X157022380Y-118372619D01*
X157022380Y-118334523D01*
X157060476Y-118258333D01*
X157136666Y-118220238D01*
X157250952Y-118220238D01*
X157327142Y-118182142D01*
X157365238Y-118105952D01*
X157365238Y-118067857D01*
X157327142Y-117991666D01*
X157250952Y-117953571D01*
X157136666Y-117953571D01*
X157060476Y-117991666D01*
X156374761Y-118448809D02*
X156450952Y-118486904D01*
X156603333Y-118486904D01*
X156679523Y-118448809D01*
X156717619Y-118372619D01*
X156717619Y-118067857D01*
X156679523Y-117991666D01*
X156603333Y-117953571D01*
X156450952Y-117953571D01*
X156374761Y-117991666D01*
X156336666Y-118067857D01*
X156336666Y-118144047D01*
X156717619Y-118220238D01*
X155879523Y-118486904D02*
X155955714Y-118448809D01*
X155993809Y-118372619D01*
X155993809Y-117686904D01*
X155270000Y-118448809D02*
X155346190Y-118486904D01*
X155498571Y-118486904D01*
X155574761Y-118448809D01*
X155612857Y-118372619D01*
X155612857Y-118067857D01*
X155574761Y-117991666D01*
X155498571Y-117953571D01*
X155346190Y-117953571D01*
X155270000Y-117991666D01*
X155231904Y-118067857D01*
X155231904Y-118144047D01*
X155612857Y-118220238D01*
X154546190Y-118448809D02*
X154622380Y-118486904D01*
X154774761Y-118486904D01*
X154850952Y-118448809D01*
X154889047Y-118410714D01*
X154927142Y-118334523D01*
X154927142Y-118105952D01*
X154889047Y-118029761D01*
X154850952Y-117991666D01*
X154774761Y-117953571D01*
X154622380Y-117953571D01*
X154546190Y-117991666D01*
X154317619Y-117953571D02*
X154012857Y-117953571D01*
X154203333Y-117686904D02*
X154203333Y-118372619D01*
X154165238Y-118448809D01*
X154089047Y-118486904D01*
X154012857Y-118486904D01*
X153746190Y-118486904D02*
X153746190Y-117953571D01*
X153746190Y-117686904D02*
X153784285Y-117725000D01*
X153746190Y-117763095D01*
X153708095Y-117725000D01*
X153746190Y-117686904D01*
X153746190Y-117763095D01*
X153250952Y-118486904D02*
X153327142Y-118448809D01*
X153365238Y-118410714D01*
X153403333Y-118334523D01*
X153403333Y-118105952D01*
X153365238Y-118029761D01*
X153327142Y-117991666D01*
X153250952Y-117953571D01*
X153136666Y-117953571D01*
X153060476Y-117991666D01*
X153022380Y-118029761D01*
X152984285Y-118105952D01*
X152984285Y-118334523D01*
X153022380Y-118410714D01*
X153060476Y-118448809D01*
X153136666Y-118486904D01*
X153250952Y-118486904D01*
X152641428Y-117953571D02*
X152641428Y-118486904D01*
X152641428Y-118029761D02*
X152603333Y-117991666D01*
X152527142Y-117953571D01*
X152412857Y-117953571D01*
X152336666Y-117991666D01*
X152298571Y-118067857D01*
X152298571Y-118486904D01*
X151422380Y-117953571D02*
X151117619Y-117953571D01*
X151308095Y-118486904D02*
X151308095Y-117801190D01*
X151270000Y-117725000D01*
X151193809Y-117686904D01*
X151117619Y-117686904D01*
X150736666Y-118486904D02*
X150812857Y-118448809D01*
X150850952Y-118410714D01*
X150889047Y-118334523D01*
X150889047Y-118105952D01*
X150850952Y-118029761D01*
X150812857Y-117991666D01*
X150736666Y-117953571D01*
X150622380Y-117953571D01*
X150546190Y-117991666D01*
X150508095Y-118029761D01*
X150470000Y-118105952D01*
X150470000Y-118334523D01*
X150508095Y-118410714D01*
X150546190Y-118448809D01*
X150622380Y-118486904D01*
X150736666Y-118486904D01*
X150127142Y-118486904D02*
X150127142Y-117953571D01*
X150127142Y-118105952D02*
X150089047Y-118029761D01*
X150050952Y-117991666D01*
X149974761Y-117953571D01*
X149898571Y-117953571D01*
X159346190Y-119786904D02*
X159346190Y-119253571D01*
X159346190Y-119405952D02*
X159308095Y-119329761D01*
X159270000Y-119291666D01*
X159193809Y-119253571D01*
X159117619Y-119253571D01*
X158546190Y-119748809D02*
X158622380Y-119786904D01*
X158774761Y-119786904D01*
X158850952Y-119748809D01*
X158889047Y-119672619D01*
X158889047Y-119367857D01*
X158850952Y-119291666D01*
X158774761Y-119253571D01*
X158622380Y-119253571D01*
X158546190Y-119291666D01*
X158508095Y-119367857D01*
X158508095Y-119444047D01*
X158889047Y-119520238D01*
X158279523Y-119253571D02*
X157974761Y-119253571D01*
X158165238Y-119786904D02*
X158165238Y-119101190D01*
X158127142Y-119025000D01*
X158050952Y-118986904D01*
X157974761Y-118986904D01*
X157403333Y-119748809D02*
X157479523Y-119786904D01*
X157631904Y-119786904D01*
X157708095Y-119748809D01*
X157746190Y-119672619D01*
X157746190Y-119367857D01*
X157708095Y-119291666D01*
X157631904Y-119253571D01*
X157479523Y-119253571D01*
X157403333Y-119291666D01*
X157365238Y-119367857D01*
X157365238Y-119444047D01*
X157746190Y-119520238D01*
X157022380Y-119786904D02*
X157022380Y-119253571D01*
X157022380Y-119405952D02*
X156984285Y-119329761D01*
X156946190Y-119291666D01*
X156870000Y-119253571D01*
X156793809Y-119253571D01*
X156222380Y-119748809D02*
X156298571Y-119786904D01*
X156450952Y-119786904D01*
X156527142Y-119748809D01*
X156565238Y-119672619D01*
X156565238Y-119367857D01*
X156527142Y-119291666D01*
X156450952Y-119253571D01*
X156298571Y-119253571D01*
X156222380Y-119291666D01*
X156184285Y-119367857D01*
X156184285Y-119444047D01*
X156565238Y-119520238D01*
X155841428Y-119253571D02*
X155841428Y-119786904D01*
X155841428Y-119329761D02*
X155803333Y-119291666D01*
X155727142Y-119253571D01*
X155612857Y-119253571D01*
X155536666Y-119291666D01*
X155498571Y-119367857D01*
X155498571Y-119786904D01*
X154774761Y-119748809D02*
X154850952Y-119786904D01*
X155003333Y-119786904D01*
X155079523Y-119748809D01*
X155117619Y-119710714D01*
X155155714Y-119634523D01*
X155155714Y-119405952D01*
X155117619Y-119329761D01*
X155079523Y-119291666D01*
X155003333Y-119253571D01*
X154850952Y-119253571D01*
X154774761Y-119291666D01*
X154127142Y-119748809D02*
X154203333Y-119786904D01*
X154355714Y-119786904D01*
X154431904Y-119748809D01*
X154470000Y-119672619D01*
X154470000Y-119367857D01*
X154431904Y-119291666D01*
X154355714Y-119253571D01*
X154203333Y-119253571D01*
X154127142Y-119291666D01*
X154089047Y-119367857D01*
X154089047Y-119444047D01*
X154470000Y-119520238D01*
X153746190Y-119710714D02*
X153708095Y-119748809D01*
X153746190Y-119786904D01*
X153784285Y-119748809D01*
X153746190Y-119710714D01*
X153746190Y-119786904D01*
X152108095Y-119786904D02*
X151955714Y-119786904D01*
X151879523Y-119748809D01*
X151841428Y-119710714D01*
X151765238Y-119596428D01*
X151727142Y-119444047D01*
X151727142Y-119139285D01*
X151765238Y-119063095D01*
X151803333Y-119025000D01*
X151879523Y-118986904D01*
X152031904Y-118986904D01*
X152108095Y-119025000D01*
X152146190Y-119063095D01*
X152184285Y-119139285D01*
X152184285Y-119329761D01*
X152146190Y-119405952D01*
X152108095Y-119444047D01*
X152031904Y-119482142D01*
X151879523Y-119482142D01*
X151803333Y-119444047D01*
X151765238Y-119405952D01*
X151727142Y-119329761D01*
X151498571Y-118986904D02*
X151231904Y-119786904D01*
X150965238Y-118986904D01*
X149974761Y-119786904D02*
X150050952Y-119748809D01*
X150089047Y-119710714D01*
X150127142Y-119634523D01*
X150127142Y-119405952D01*
X150089047Y-119329761D01*
X150050952Y-119291666D01*
X149974761Y-119253571D01*
X149860476Y-119253571D01*
X149784285Y-119291666D01*
X149746190Y-119329761D01*
X149708095Y-119405952D01*
X149708095Y-119634523D01*
X149746190Y-119710714D01*
X149784285Y-119748809D01*
X149860476Y-119786904D01*
X149974761Y-119786904D01*
X149365238Y-119253571D02*
X149365238Y-119786904D01*
X149365238Y-119329761D02*
X149327142Y-119291666D01*
X149250952Y-119253571D01*
X149136666Y-119253571D01*
X149060476Y-119291666D01*
X149022380Y-119367857D01*
X149022380Y-119786904D01*
X148527142Y-119786904D02*
X148603333Y-119748809D01*
X148641428Y-119672619D01*
X148641428Y-118986904D01*
X148298571Y-119253571D02*
X148108095Y-119786904D01*
X147917619Y-119253571D02*
X148108095Y-119786904D01*
X148184285Y-119977380D01*
X148222380Y-120015476D01*
X148298571Y-120053571D01*
X159612857Y-120553571D02*
X159460476Y-121086904D01*
X159308095Y-120705952D01*
X159155714Y-121086904D01*
X159003333Y-120553571D01*
X158698571Y-121086904D02*
X158698571Y-120553571D01*
X158698571Y-120286904D02*
X158736666Y-120325000D01*
X158698571Y-120363095D01*
X158660476Y-120325000D01*
X158698571Y-120286904D01*
X158698571Y-120363095D01*
X158431904Y-120553571D02*
X158127142Y-120553571D01*
X158317619Y-120286904D02*
X158317619Y-120972619D01*
X158279523Y-121048809D01*
X158203333Y-121086904D01*
X158127142Y-121086904D01*
X157860476Y-121086904D02*
X157860476Y-120286904D01*
X157517619Y-121086904D02*
X157517619Y-120667857D01*
X157555714Y-120591666D01*
X157631904Y-120553571D01*
X157746190Y-120553571D01*
X157822380Y-120591666D01*
X157860476Y-120629761D01*
X156146190Y-121086904D02*
X156527142Y-121086904D01*
X156527142Y-120286904D01*
X155879523Y-121086904D02*
X155879523Y-120286904D01*
X155612857Y-120858333D01*
X155346190Y-120286904D01*
X155346190Y-121086904D01*
X155041428Y-120286904D02*
X154546190Y-120286904D01*
X154812857Y-120591666D01*
X154698571Y-120591666D01*
X154622380Y-120629761D01*
X154584285Y-120667857D01*
X154546190Y-120744047D01*
X154546190Y-120934523D01*
X154584285Y-121010714D01*
X154622380Y-121048809D01*
X154698571Y-121086904D01*
X154927142Y-121086904D01*
X155003333Y-121048809D01*
X155041428Y-121010714D01*
X154089047Y-120629761D02*
X154165238Y-120591666D01*
X154203333Y-120553571D01*
X154241428Y-120477380D01*
X154241428Y-120439285D01*
X154203333Y-120363095D01*
X154165238Y-120325000D01*
X154089047Y-120286904D01*
X153936666Y-120286904D01*
X153860476Y-120325000D01*
X153822380Y-120363095D01*
X153784285Y-120439285D01*
X153784285Y-120477380D01*
X153822380Y-120553571D01*
X153860476Y-120591666D01*
X153936666Y-120629761D01*
X154089047Y-120629761D01*
X154165238Y-120667857D01*
X154203333Y-120705952D01*
X154241428Y-120782142D01*
X154241428Y-120934523D01*
X154203333Y-121010714D01*
X154165238Y-121048809D01*
X154089047Y-121086904D01*
X153936666Y-121086904D01*
X153860476Y-121048809D01*
X153822380Y-121010714D01*
X153784285Y-120934523D01*
X153784285Y-120782142D01*
X153822380Y-120705952D01*
X153860476Y-120667857D01*
X153936666Y-120629761D01*
X153098571Y-120286904D02*
X153250952Y-120286904D01*
X153327142Y-120325000D01*
X153365238Y-120363095D01*
X153441428Y-120477380D01*
X153479523Y-120629761D01*
X153479523Y-120934523D01*
X153441428Y-121010714D01*
X153403333Y-121048809D01*
X153327142Y-121086904D01*
X153174761Y-121086904D01*
X153098571Y-121048809D01*
X153060476Y-121010714D01*
X153022380Y-120934523D01*
X153022380Y-120744047D01*
X153060476Y-120667857D01*
X153098571Y-120629761D01*
X153174761Y-120591666D01*
X153327142Y-120591666D01*
X153403333Y-120629761D01*
X153441428Y-120667857D01*
X153479523Y-120744047D01*
X151955714Y-121086904D02*
X152031904Y-121048809D01*
X152070000Y-121010714D01*
X152108095Y-120934523D01*
X152108095Y-120705952D01*
X152070000Y-120629761D01*
X152031904Y-120591666D01*
X151955714Y-120553571D01*
X151841428Y-120553571D01*
X151765238Y-120591666D01*
X151727142Y-120629761D01*
X151689047Y-120705952D01*
X151689047Y-120934523D01*
X151727142Y-121010714D01*
X151765238Y-121048809D01*
X151841428Y-121086904D01*
X151955714Y-121086904D01*
X151346190Y-120553571D02*
X151346190Y-121353571D01*
X151346190Y-120591666D02*
X151270000Y-120553571D01*
X151117619Y-120553571D01*
X151041428Y-120591666D01*
X151003333Y-120629761D01*
X150965238Y-120705952D01*
X150965238Y-120934523D01*
X151003333Y-121010714D01*
X151041428Y-121048809D01*
X151117619Y-121086904D01*
X151270000Y-121086904D01*
X151346190Y-121048809D01*
X150736666Y-120553571D02*
X150431904Y-120553571D01*
X150622380Y-120286904D02*
X150622380Y-120972619D01*
X150584285Y-121048809D01*
X150508095Y-121086904D01*
X150431904Y-121086904D01*
X150165238Y-121086904D02*
X150165238Y-120553571D01*
X150165238Y-120286904D02*
X150203333Y-120325000D01*
X150165238Y-120363095D01*
X150127142Y-120325000D01*
X150165238Y-120286904D01*
X150165238Y-120363095D01*
X149670000Y-121086904D02*
X149746190Y-121048809D01*
X149784285Y-121010714D01*
X149822380Y-120934523D01*
X149822380Y-120705952D01*
X149784285Y-120629761D01*
X149746190Y-120591666D01*
X149670000Y-120553571D01*
X149555714Y-120553571D01*
X149479523Y-120591666D01*
X149441428Y-120629761D01*
X149403333Y-120705952D01*
X149403333Y-120934523D01*
X149441428Y-121010714D01*
X149479523Y-121048809D01*
X149555714Y-121086904D01*
X149670000Y-121086904D01*
X149060476Y-120553571D02*
X149060476Y-121086904D01*
X149060476Y-120629761D02*
X149022380Y-120591666D01*
X148946190Y-120553571D01*
X148831904Y-120553571D01*
X148755714Y-120591666D01*
X148717619Y-120667857D01*
X148717619Y-121086904D01*
X148336666Y-121010714D02*
X148298571Y-121048809D01*
X148336666Y-121086904D01*
X148374761Y-121048809D01*
X148336666Y-121010714D01*
X148336666Y-121086904D01*
X148031904Y-121391666D02*
X147993809Y-121353571D01*
X147917619Y-121239285D01*
X147879523Y-121163095D01*
X147841428Y-121048809D01*
X147803333Y-120858333D01*
X147803333Y-120705952D01*
X147841428Y-120515476D01*
X147879523Y-120401190D01*
X147917619Y-120325000D01*
X147993809Y-120210714D01*
X148031904Y-120172619D01*
D11*
X149860000Y-124460000D02*
X149860000Y-128270000D01*
X153670000Y-124460000D02*
X149860000Y-124460000D01*
X153670000Y-133350000D02*
X153670000Y-124460000D01*
X149860000Y-133350000D02*
X153670000Y-133350000D01*
X149860000Y-132080000D02*
X149860000Y-133350000D01*
X149860000Y-131445000D02*
X151130000Y-131445000D01*
X149860000Y-128905000D02*
X149860000Y-131445000D01*
X151130000Y-128905000D02*
X149860000Y-128905000D01*
X125730000Y-78740000D02*
X125730000Y-78105000D01*
X123825000Y-78740000D02*
X125730000Y-78740000D01*
X123825000Y-78105000D02*
X123825000Y-78740000D01*
X126365000Y-91440000D02*
X116205000Y-91440000D01*
X126365000Y-83185000D02*
X126365000Y-91440000D01*
X126365000Y-78105000D02*
X126365000Y-80645000D01*
X116205000Y-80645000D02*
X116205000Y-78105000D01*
X116205000Y-91440000D02*
X116205000Y-83185000D01*
D10*
X125265952Y-80371904D02*
X125646904Y-80371904D01*
X125646904Y-79571904D01*
X124999285Y-80371904D02*
X124999285Y-79571904D01*
X124732619Y-80143333D01*
X124465952Y-79571904D01*
X124465952Y-80371904D01*
X124161190Y-79571904D02*
X123665952Y-79571904D01*
X123932619Y-79876666D01*
X123818333Y-79876666D01*
X123742142Y-79914761D01*
X123704047Y-79952857D01*
X123665952Y-80029047D01*
X123665952Y-80219523D01*
X123704047Y-80295714D01*
X123742142Y-80333809D01*
X123818333Y-80371904D01*
X124046904Y-80371904D01*
X124123095Y-80333809D01*
X124161190Y-80295714D01*
X123208809Y-79914761D02*
X123285000Y-79876666D01*
X123323095Y-79838571D01*
X123361190Y-79762380D01*
X123361190Y-79724285D01*
X123323095Y-79648095D01*
X123285000Y-79610000D01*
X123208809Y-79571904D01*
X123056428Y-79571904D01*
X122980238Y-79610000D01*
X122942142Y-79648095D01*
X122904047Y-79724285D01*
X122904047Y-79762380D01*
X122942142Y-79838571D01*
X122980238Y-79876666D01*
X123056428Y-79914761D01*
X123208809Y-79914761D01*
X123285000Y-79952857D01*
X123323095Y-79990952D01*
X123361190Y-80067142D01*
X123361190Y-80219523D01*
X123323095Y-80295714D01*
X123285000Y-80333809D01*
X123208809Y-80371904D01*
X123056428Y-80371904D01*
X122980238Y-80333809D01*
X122942142Y-80295714D01*
X122904047Y-80219523D01*
X122904047Y-80067142D01*
X122942142Y-79990952D01*
X122980238Y-79952857D01*
X123056428Y-79914761D01*
X122218333Y-79571904D02*
X122370714Y-79571904D01*
X122446904Y-79610000D01*
X122485000Y-79648095D01*
X122561190Y-79762380D01*
X122599285Y-79914761D01*
X122599285Y-80219523D01*
X122561190Y-80295714D01*
X122523095Y-80333809D01*
X122446904Y-80371904D01*
X122294523Y-80371904D01*
X122218333Y-80333809D01*
X122180238Y-80295714D01*
X122142142Y-80219523D01*
X122142142Y-80029047D01*
X122180238Y-79952857D01*
X122218333Y-79914761D01*
X122294523Y-79876666D01*
X122446904Y-79876666D01*
X122523095Y-79914761D01*
X122561190Y-79952857D01*
X122599285Y-80029047D01*
X121304047Y-79571904D02*
X121037380Y-80371904D01*
X120770714Y-79571904D01*
X120351666Y-79571904D02*
X120199285Y-79571904D01*
X120123095Y-79610000D01*
X120046904Y-79686190D01*
X120008809Y-79838571D01*
X120008809Y-80105238D01*
X120046904Y-80257619D01*
X120123095Y-80333809D01*
X120199285Y-80371904D01*
X120351666Y-80371904D01*
X120427857Y-80333809D01*
X120504047Y-80257619D01*
X120542142Y-80105238D01*
X120542142Y-79838571D01*
X120504047Y-79686190D01*
X120427857Y-79610000D01*
X120351666Y-79571904D01*
X119285000Y-80371904D02*
X119665952Y-80371904D01*
X119665952Y-79571904D01*
X119018333Y-79571904D02*
X119018333Y-80219523D01*
X118980238Y-80295714D01*
X118942142Y-80333809D01*
X118865952Y-80371904D01*
X118713571Y-80371904D01*
X118637380Y-80333809D01*
X118599285Y-80295714D01*
X118561190Y-80219523D01*
X118561190Y-79571904D01*
X118180238Y-80371904D02*
X118180238Y-79571904D01*
X117913571Y-80143333D01*
X117646904Y-79571904D01*
X117646904Y-80371904D01*
X117265952Y-79952857D02*
X116999285Y-79952857D01*
X116885000Y-80371904D02*
X117265952Y-80371904D01*
X117265952Y-79571904D01*
X116885000Y-79571904D01*
G36*
X169545000Y-127000000D02*
G01*
X165735000Y-127000000D01*
X165735000Y-123190000D01*
X169545000Y-123190000D01*
X169545000Y-127000000D01*
G37*
X169545000Y-127000000D02*
X165735000Y-127000000D01*
X165735000Y-123190000D01*
X169545000Y-123190000D01*
X169545000Y-127000000D01*
G36*
X169545000Y-133985000D02*
G01*
X165735000Y-133985000D01*
X165735000Y-130175000D01*
X169545000Y-130175000D01*
X169545000Y-133985000D01*
G37*
X169545000Y-133985000D02*
X165735000Y-133985000D01*
X165735000Y-130175000D01*
X169545000Y-130175000D01*
X169545000Y-133985000D01*
X169773333Y-129266904D02*
X169620952Y-129266904D01*
X169544761Y-129228809D01*
X169506666Y-129190714D01*
X169430476Y-129076428D01*
X169392380Y-128924047D01*
X169392380Y-128619285D01*
X169430476Y-128543095D01*
X169468571Y-128505000D01*
X169544761Y-128466904D01*
X169697142Y-128466904D01*
X169773333Y-128505000D01*
X169811428Y-128543095D01*
X169849523Y-128619285D01*
X169849523Y-128809761D01*
X169811428Y-128885952D01*
X169773333Y-128924047D01*
X169697142Y-128962142D01*
X169544761Y-128962142D01*
X169468571Y-128924047D01*
X169430476Y-128885952D01*
X169392380Y-128809761D01*
X169163809Y-128466904D02*
X168897142Y-129266904D01*
X168630476Y-128466904D01*
X167525714Y-129571666D02*
X167563809Y-129533571D01*
X167640000Y-129419285D01*
X167678095Y-129343095D01*
X167716190Y-129228809D01*
X167754285Y-129038333D01*
X167754285Y-128885952D01*
X167716190Y-128695476D01*
X167678095Y-128581190D01*
X167640000Y-128505000D01*
X167563809Y-128390714D01*
X167525714Y-128352619D01*
X167220952Y-129266904D02*
X167220952Y-128466904D01*
X167030476Y-128466904D01*
X166916190Y-128505000D01*
X166840000Y-128581190D01*
X166801904Y-128657380D01*
X166763809Y-128809761D01*
X166763809Y-128924047D01*
X166801904Y-129076428D01*
X166840000Y-129152619D01*
X166916190Y-129228809D01*
X167030476Y-129266904D01*
X167220952Y-129266904D01*
X165963809Y-129190714D02*
X166001904Y-129228809D01*
X166116190Y-129266904D01*
X166192380Y-129266904D01*
X166306666Y-129228809D01*
X166382857Y-129152619D01*
X166420952Y-129076428D01*
X166459047Y-128924047D01*
X166459047Y-128809761D01*
X166420952Y-128657380D01*
X166382857Y-128581190D01*
X166306666Y-128505000D01*
X166192380Y-128466904D01*
X166116190Y-128466904D01*
X166001904Y-128505000D01*
X165963809Y-128543095D01*
X165697142Y-129571666D02*
X165659047Y-129533571D01*
X165582857Y-129419285D01*
X165544761Y-129343095D01*
X165506666Y-129228809D01*
X165468571Y-129038333D01*
X165468571Y-128885952D01*
X165506666Y-128695476D01*
X165544761Y-128581190D01*
X165582857Y-128505000D01*
X165659047Y-128390714D01*
X165697142Y-128352619D01*
X169430476Y-121481904D02*
X169811428Y-121481904D01*
X169849523Y-121862857D01*
X169811428Y-121824761D01*
X169735238Y-121786666D01*
X169544761Y-121786666D01*
X169468571Y-121824761D01*
X169430476Y-121862857D01*
X169392380Y-121939047D01*
X169392380Y-122129523D01*
X169430476Y-122205714D01*
X169468571Y-122243809D01*
X169544761Y-122281904D01*
X169735238Y-122281904D01*
X169811428Y-122243809D01*
X169849523Y-122205714D01*
X169163809Y-121481904D02*
X168897142Y-122281904D01*
X168630476Y-121481904D01*
X167525714Y-122586666D02*
X167563809Y-122548571D01*
X167640000Y-122434285D01*
X167678095Y-122358095D01*
X167716190Y-122243809D01*
X167754285Y-122053333D01*
X167754285Y-121900952D01*
X167716190Y-121710476D01*
X167678095Y-121596190D01*
X167640000Y-121520000D01*
X167563809Y-121405714D01*
X167525714Y-121367619D01*
X167220952Y-122281904D02*
X167220952Y-121481904D01*
X167030476Y-121481904D01*
X166916190Y-121520000D01*
X166840000Y-121596190D01*
X166801904Y-121672380D01*
X166763809Y-121824761D01*
X166763809Y-121939047D01*
X166801904Y-122091428D01*
X166840000Y-122167619D01*
X166916190Y-122243809D01*
X167030476Y-122281904D01*
X167220952Y-122281904D01*
X165963809Y-122205714D02*
X166001904Y-122243809D01*
X166116190Y-122281904D01*
X166192380Y-122281904D01*
X166306666Y-122243809D01*
X166382857Y-122167619D01*
X166420952Y-122091428D01*
X166459047Y-121939047D01*
X166459047Y-121824761D01*
X166420952Y-121672380D01*
X166382857Y-121596190D01*
X166306666Y-121520000D01*
X166192380Y-121481904D01*
X166116190Y-121481904D01*
X166001904Y-121520000D01*
X165963809Y-121558095D01*
X165697142Y-122586666D02*
X165659047Y-122548571D01*
X165582857Y-122434285D01*
X165544761Y-122358095D01*
X165506666Y-122243809D01*
X165468571Y-122053333D01*
X165468571Y-121900952D01*
X165506666Y-121710476D01*
X165544761Y-121596190D01*
X165582857Y-121520000D01*
X165659047Y-121405714D01*
X165697142Y-121367619D01*
D11*
X74295000Y-93345000D02*
X70485000Y-93345000D01*
X74295000Y-102235000D02*
X74295000Y-93345000D01*
X76200000Y-90805000D02*
X77470000Y-90805000D01*
X76200000Y-78740000D02*
X76200000Y-90805000D01*
X77470000Y-78740000D02*
X76200000Y-78740000D01*
X77470000Y-78105000D02*
X77470000Y-78740000D01*
X87630000Y-78740000D02*
X87630000Y-78105000D01*
X88900000Y-78740000D02*
X87630000Y-78740000D01*
X88900000Y-82550000D02*
X88900000Y-78740000D01*
X95250000Y-78740000D02*
X95250000Y-82550000D01*
X94615000Y-78740000D02*
X95250000Y-78740000D01*
X94615000Y-78105000D02*
X94615000Y-78740000D01*
X90805000Y-78740000D02*
X90805000Y-78105000D01*
X90170000Y-78740000D02*
X90805000Y-78740000D01*
X90170000Y-82550000D02*
X90170000Y-78740000D01*
X114300000Y-81915000D02*
X114300000Y-78105000D01*
X107950000Y-81915000D02*
X114300000Y-81915000D01*
X107950000Y-78105000D02*
X107950000Y-81915000D01*
X106680000Y-81915000D02*
X106680000Y-78105000D01*
X102870000Y-81915000D02*
X106680000Y-81915000D01*
X99695000Y-81915000D02*
X102235000Y-81915000D01*
X99695000Y-80645000D02*
X99695000Y-81915000D01*
X97790000Y-81915000D02*
X99060000Y-81915000D01*
X97790000Y-78105000D02*
X97790000Y-81915000D01*
D10*
X93281428Y-80371904D02*
X93548095Y-79990952D01*
X93738571Y-80371904D02*
X93738571Y-79571904D01*
X93433809Y-79571904D01*
X93357619Y-79610000D01*
X93319523Y-79648095D01*
X93281428Y-79724285D01*
X93281428Y-79838571D01*
X93319523Y-79914761D01*
X93357619Y-79952857D01*
X93433809Y-79990952D01*
X93738571Y-79990952D01*
X92938571Y-79952857D02*
X92671904Y-79952857D01*
X92557619Y-80371904D02*
X92938571Y-80371904D01*
X92938571Y-79571904D01*
X92557619Y-79571904D01*
X92214761Y-80371904D02*
X92214761Y-79571904D01*
X91948095Y-80143333D01*
X91681428Y-79571904D01*
X91681428Y-80371904D01*
X84099285Y-79952857D02*
X83832619Y-79952857D01*
X83718333Y-80371904D02*
X84099285Y-80371904D01*
X84099285Y-79571904D01*
X83718333Y-79571904D01*
X83413571Y-80143333D02*
X83032619Y-80143333D01*
X83489761Y-80371904D02*
X83223095Y-79571904D01*
X82956428Y-80371904D01*
X82232619Y-80371904D02*
X82499285Y-79990952D01*
X82689761Y-80371904D02*
X82689761Y-79571904D01*
X82385000Y-79571904D01*
X82308809Y-79610000D01*
X82270714Y-79648095D01*
X82232619Y-79724285D01*
X82232619Y-79838571D01*
X82270714Y-79914761D01*
X82308809Y-79952857D01*
X82385000Y-79990952D01*
X82689761Y-79990952D01*
X94125238Y-93951666D02*
X94163333Y-93913571D01*
X94239523Y-93799285D01*
X94277619Y-93723095D01*
X94315714Y-93608809D01*
X94353809Y-93418333D01*
X94353809Y-93265952D01*
X94315714Y-93075476D01*
X94277619Y-92961190D01*
X94239523Y-92885000D01*
X94163333Y-92770714D01*
X94125238Y-92732619D01*
X93401428Y-92885000D02*
X93477619Y-92846904D01*
X93591904Y-92846904D01*
X93706190Y-92885000D01*
X93782380Y-92961190D01*
X93820476Y-93037380D01*
X93858571Y-93189761D01*
X93858571Y-93304047D01*
X93820476Y-93456428D01*
X93782380Y-93532619D01*
X93706190Y-93608809D01*
X93591904Y-93646904D01*
X93515714Y-93646904D01*
X93401428Y-93608809D01*
X93363333Y-93570714D01*
X93363333Y-93304047D01*
X93515714Y-93304047D01*
X92753809Y-93227857D02*
X93020476Y-93227857D01*
X93020476Y-93646904D02*
X93020476Y-92846904D01*
X92639523Y-92846904D01*
X91915714Y-93646904D02*
X92372857Y-93646904D01*
X92144285Y-93646904D02*
X92144285Y-92846904D01*
X92220476Y-92961190D01*
X92296666Y-93037380D01*
X92372857Y-93075476D01*
X91420476Y-92846904D02*
X91344285Y-92846904D01*
X91268095Y-92885000D01*
X91230000Y-92923095D01*
X91191904Y-92999285D01*
X91153809Y-93151666D01*
X91153809Y-93342142D01*
X91191904Y-93494523D01*
X91230000Y-93570714D01*
X91268095Y-93608809D01*
X91344285Y-93646904D01*
X91420476Y-93646904D01*
X91496666Y-93608809D01*
X91534761Y-93570714D01*
X91572857Y-93494523D01*
X91610952Y-93342142D01*
X91610952Y-93151666D01*
X91572857Y-92999285D01*
X91534761Y-92923095D01*
X91496666Y-92885000D01*
X91420476Y-92846904D01*
X90658571Y-92846904D02*
X90582380Y-92846904D01*
X90506190Y-92885000D01*
X90468095Y-92923095D01*
X90430000Y-92999285D01*
X90391904Y-93151666D01*
X90391904Y-93342142D01*
X90430000Y-93494523D01*
X90468095Y-93570714D01*
X90506190Y-93608809D01*
X90582380Y-93646904D01*
X90658571Y-93646904D01*
X90734761Y-93608809D01*
X90772857Y-93570714D01*
X90810952Y-93494523D01*
X90849047Y-93342142D01*
X90849047Y-93151666D01*
X90810952Y-92999285D01*
X90772857Y-92923095D01*
X90734761Y-92885000D01*
X90658571Y-92846904D01*
X90087142Y-92923095D02*
X90049047Y-92885000D01*
X89972857Y-92846904D01*
X89782380Y-92846904D01*
X89706190Y-92885000D01*
X89668095Y-92923095D01*
X89630000Y-92999285D01*
X89630000Y-93075476D01*
X89668095Y-93189761D01*
X90125238Y-93646904D01*
X89630000Y-93646904D01*
X88677619Y-93646904D02*
X88677619Y-93113571D01*
X88677619Y-93189761D02*
X88639523Y-93151666D01*
X88563333Y-93113571D01*
X88449047Y-93113571D01*
X88372857Y-93151666D01*
X88334761Y-93227857D01*
X88334761Y-93646904D01*
X88334761Y-93227857D02*
X88296666Y-93151666D01*
X88220476Y-93113571D01*
X88106190Y-93113571D01*
X88030000Y-93151666D01*
X87991904Y-93227857D01*
X87991904Y-93646904D01*
X87496666Y-93646904D02*
X87572857Y-93608809D01*
X87610952Y-93570714D01*
X87649047Y-93494523D01*
X87649047Y-93265952D01*
X87610952Y-93189761D01*
X87572857Y-93151666D01*
X87496666Y-93113571D01*
X87382380Y-93113571D01*
X87306190Y-93151666D01*
X87268095Y-93189761D01*
X87230000Y-93265952D01*
X87230000Y-93494523D01*
X87268095Y-93570714D01*
X87306190Y-93608809D01*
X87382380Y-93646904D01*
X87496666Y-93646904D01*
X86544285Y-93646904D02*
X86544285Y-92846904D01*
X86544285Y-93608809D02*
X86620476Y-93646904D01*
X86772857Y-93646904D01*
X86849047Y-93608809D01*
X86887142Y-93570714D01*
X86925238Y-93494523D01*
X86925238Y-93265952D01*
X86887142Y-93189761D01*
X86849047Y-93151666D01*
X86772857Y-93113571D01*
X86620476Y-93113571D01*
X86544285Y-93151666D01*
X85820476Y-93113571D02*
X85820476Y-93646904D01*
X86163333Y-93113571D02*
X86163333Y-93532619D01*
X86125238Y-93608809D01*
X86049047Y-93646904D01*
X85934761Y-93646904D01*
X85858571Y-93608809D01*
X85820476Y-93570714D01*
X85325238Y-93646904D02*
X85401428Y-93608809D01*
X85439523Y-93532619D01*
X85439523Y-92846904D01*
X84715714Y-93608809D02*
X84791904Y-93646904D01*
X84944285Y-93646904D01*
X85020476Y-93608809D01*
X85058571Y-93532619D01*
X85058571Y-93227857D01*
X85020476Y-93151666D01*
X84944285Y-93113571D01*
X84791904Y-93113571D01*
X84715714Y-93151666D01*
X84677619Y-93227857D01*
X84677619Y-93304047D01*
X85058571Y-93380238D01*
X83839523Y-93113571D02*
X83534761Y-93113571D01*
X83725238Y-92846904D02*
X83725238Y-93532619D01*
X83687142Y-93608809D01*
X83610952Y-93646904D01*
X83534761Y-93646904D01*
X83153809Y-93646904D02*
X83230000Y-93608809D01*
X83268095Y-93570714D01*
X83306190Y-93494523D01*
X83306190Y-93265952D01*
X83268095Y-93189761D01*
X83230000Y-93151666D01*
X83153809Y-93113571D01*
X83039523Y-93113571D01*
X82963333Y-93151666D01*
X82925238Y-93189761D01*
X82887142Y-93265952D01*
X82887142Y-93494523D01*
X82925238Y-93570714D01*
X82963333Y-93608809D01*
X83039523Y-93646904D01*
X83153809Y-93646904D01*
X81934761Y-93646904D02*
X81934761Y-92846904D01*
X81934761Y-93151666D02*
X81858571Y-93113571D01*
X81706190Y-93113571D01*
X81630000Y-93151666D01*
X81591904Y-93189761D01*
X81553809Y-93265952D01*
X81553809Y-93494523D01*
X81591904Y-93570714D01*
X81630000Y-93608809D01*
X81706190Y-93646904D01*
X81858571Y-93646904D01*
X81934761Y-93608809D01*
X80906190Y-93608809D02*
X80982380Y-93646904D01*
X81134761Y-93646904D01*
X81210952Y-93608809D01*
X81249047Y-93532619D01*
X81249047Y-93227857D01*
X81210952Y-93151666D01*
X81134761Y-93113571D01*
X80982380Y-93113571D01*
X80906190Y-93151666D01*
X80868095Y-93227857D01*
X80868095Y-93304047D01*
X81249047Y-93380238D01*
X94506190Y-94946904D02*
X94506190Y-94413571D01*
X94506190Y-94146904D02*
X94544285Y-94185000D01*
X94506190Y-94223095D01*
X94468095Y-94185000D01*
X94506190Y-94146904D01*
X94506190Y-94223095D01*
X94125238Y-94413571D02*
X94125238Y-94946904D01*
X94125238Y-94489761D02*
X94087142Y-94451666D01*
X94010952Y-94413571D01*
X93896666Y-94413571D01*
X93820476Y-94451666D01*
X93782380Y-94527857D01*
X93782380Y-94946904D01*
X93439523Y-94908809D02*
X93363333Y-94946904D01*
X93210952Y-94946904D01*
X93134761Y-94908809D01*
X93096666Y-94832619D01*
X93096666Y-94794523D01*
X93134761Y-94718333D01*
X93210952Y-94680238D01*
X93325238Y-94680238D01*
X93401428Y-94642142D01*
X93439523Y-94565952D01*
X93439523Y-94527857D01*
X93401428Y-94451666D01*
X93325238Y-94413571D01*
X93210952Y-94413571D01*
X93134761Y-94451666D01*
X92868095Y-94413571D02*
X92563333Y-94413571D01*
X92753809Y-94146904D02*
X92753809Y-94832619D01*
X92715714Y-94908809D01*
X92639523Y-94946904D01*
X92563333Y-94946904D01*
X91953809Y-94946904D02*
X91953809Y-94527857D01*
X91991904Y-94451666D01*
X92068095Y-94413571D01*
X92220476Y-94413571D01*
X92296666Y-94451666D01*
X91953809Y-94908809D02*
X92030000Y-94946904D01*
X92220476Y-94946904D01*
X92296666Y-94908809D01*
X92334761Y-94832619D01*
X92334761Y-94756428D01*
X92296666Y-94680238D01*
X92220476Y-94642142D01*
X92030000Y-94642142D01*
X91953809Y-94604047D01*
X91458571Y-94946904D02*
X91534761Y-94908809D01*
X91572857Y-94832619D01*
X91572857Y-94146904D01*
X91039523Y-94946904D02*
X91115714Y-94908809D01*
X91153809Y-94832619D01*
X91153809Y-94146904D01*
X90430000Y-94908809D02*
X90506190Y-94946904D01*
X90658571Y-94946904D01*
X90734761Y-94908809D01*
X90772857Y-94832619D01*
X90772857Y-94527857D01*
X90734761Y-94451666D01*
X90658571Y-94413571D01*
X90506190Y-94413571D01*
X90430000Y-94451666D01*
X90391904Y-94527857D01*
X90391904Y-94604047D01*
X90772857Y-94680238D01*
X89706190Y-94946904D02*
X89706190Y-94146904D01*
X89706190Y-94908809D02*
X89782380Y-94946904D01*
X89934761Y-94946904D01*
X90010952Y-94908809D01*
X90049047Y-94870714D01*
X90087142Y-94794523D01*
X90087142Y-94565952D01*
X90049047Y-94489761D01*
X90010952Y-94451666D01*
X89934761Y-94413571D01*
X89782380Y-94413571D01*
X89706190Y-94451666D01*
X88372857Y-94946904D02*
X88372857Y-94527857D01*
X88410952Y-94451666D01*
X88487142Y-94413571D01*
X88639523Y-94413571D01*
X88715714Y-94451666D01*
X88372857Y-94908809D02*
X88449047Y-94946904D01*
X88639523Y-94946904D01*
X88715714Y-94908809D01*
X88753809Y-94832619D01*
X88753809Y-94756428D01*
X88715714Y-94680238D01*
X88639523Y-94642142D01*
X88449047Y-94642142D01*
X88372857Y-94604047D01*
X88030000Y-94908809D02*
X87953809Y-94946904D01*
X87801428Y-94946904D01*
X87725238Y-94908809D01*
X87687142Y-94832619D01*
X87687142Y-94794523D01*
X87725238Y-94718333D01*
X87801428Y-94680238D01*
X87915714Y-94680238D01*
X87991904Y-94642142D01*
X88030000Y-94565952D01*
X88030000Y-94527857D01*
X87991904Y-94451666D01*
X87915714Y-94413571D01*
X87801428Y-94413571D01*
X87725238Y-94451666D01*
X86391904Y-94946904D02*
X86391904Y-94527857D01*
X86430000Y-94451666D01*
X86506190Y-94413571D01*
X86658571Y-94413571D01*
X86734761Y-94451666D01*
X86391904Y-94908809D02*
X86468095Y-94946904D01*
X86658571Y-94946904D01*
X86734761Y-94908809D01*
X86772857Y-94832619D01*
X86772857Y-94756428D01*
X86734761Y-94680238D01*
X86658571Y-94642142D01*
X86468095Y-94642142D01*
X86391904Y-94604047D01*
X85896666Y-94946904D02*
X85972857Y-94908809D01*
X86010952Y-94832619D01*
X86010952Y-94146904D01*
X85706190Y-94413571D02*
X85401428Y-94413571D01*
X85591904Y-94146904D02*
X85591904Y-94832619D01*
X85553809Y-94908809D01*
X85477619Y-94946904D01*
X85401428Y-94946904D01*
X84830000Y-94908809D02*
X84906190Y-94946904D01*
X85058571Y-94946904D01*
X85134761Y-94908809D01*
X85172857Y-94832619D01*
X85172857Y-94527857D01*
X85134761Y-94451666D01*
X85058571Y-94413571D01*
X84906190Y-94413571D01*
X84830000Y-94451666D01*
X84791904Y-94527857D01*
X84791904Y-94604047D01*
X85172857Y-94680238D01*
X84449047Y-94946904D02*
X84449047Y-94413571D01*
X84449047Y-94565952D02*
X84410952Y-94489761D01*
X84372857Y-94451666D01*
X84296666Y-94413571D01*
X84220476Y-94413571D01*
X83953809Y-94413571D02*
X83953809Y-94946904D01*
X83953809Y-94489761D02*
X83915714Y-94451666D01*
X83839523Y-94413571D01*
X83725238Y-94413571D01*
X83649047Y-94451666D01*
X83610952Y-94527857D01*
X83610952Y-94946904D01*
X82887142Y-94946904D02*
X82887142Y-94527857D01*
X82925238Y-94451666D01*
X83001428Y-94413571D01*
X83153809Y-94413571D01*
X83230000Y-94451666D01*
X82887142Y-94908809D02*
X82963333Y-94946904D01*
X83153809Y-94946904D01*
X83230000Y-94908809D01*
X83268095Y-94832619D01*
X83268095Y-94756428D01*
X83230000Y-94680238D01*
X83153809Y-94642142D01*
X82963333Y-94642142D01*
X82887142Y-94604047D01*
X82620476Y-94413571D02*
X82315714Y-94413571D01*
X82506190Y-94146904D02*
X82506190Y-94832619D01*
X82468095Y-94908809D01*
X82391904Y-94946904D01*
X82315714Y-94946904D01*
X82049047Y-94946904D02*
X82049047Y-94413571D01*
X82049047Y-94146904D02*
X82087142Y-94185000D01*
X82049047Y-94223095D01*
X82010952Y-94185000D01*
X82049047Y-94146904D01*
X82049047Y-94223095D01*
X81744285Y-94413571D02*
X81553809Y-94946904D01*
X81363333Y-94413571D01*
X80753809Y-94908809D02*
X80830000Y-94946904D01*
X80982380Y-94946904D01*
X81058571Y-94908809D01*
X81096666Y-94832619D01*
X81096666Y-94527857D01*
X81058571Y-94451666D01*
X80982380Y-94413571D01*
X80830000Y-94413571D01*
X80753809Y-94451666D01*
X80715714Y-94527857D01*
X80715714Y-94604047D01*
X81096666Y-94680238D01*
X92810952Y-96246904D02*
X92810952Y-95827857D01*
X92849047Y-95751666D01*
X92925238Y-95713571D01*
X93077619Y-95713571D01*
X93153809Y-95751666D01*
X92810952Y-96208809D02*
X92887142Y-96246904D01*
X93077619Y-96246904D01*
X93153809Y-96208809D01*
X93191904Y-96132619D01*
X93191904Y-96056428D01*
X93153809Y-95980238D01*
X93077619Y-95942142D01*
X92887142Y-95942142D01*
X92810952Y-95904047D01*
X92430000Y-96246904D02*
X92430000Y-95713571D01*
X92430000Y-95789761D02*
X92391904Y-95751666D01*
X92315714Y-95713571D01*
X92201428Y-95713571D01*
X92125238Y-95751666D01*
X92087142Y-95827857D01*
X92087142Y-96246904D01*
X92087142Y-95827857D02*
X92049047Y-95751666D01*
X91972857Y-95713571D01*
X91858571Y-95713571D01*
X91782380Y-95751666D01*
X91744285Y-95827857D01*
X91744285Y-96246904D01*
X91363333Y-95713571D02*
X91363333Y-96513571D01*
X91363333Y-95751666D02*
X91287142Y-95713571D01*
X91134761Y-95713571D01*
X91058571Y-95751666D01*
X91020476Y-95789761D01*
X90982380Y-95865952D01*
X90982380Y-96094523D01*
X91020476Y-96170714D01*
X91058571Y-96208809D01*
X91134761Y-96246904D01*
X91287142Y-96246904D01*
X91363333Y-96208809D01*
X90525238Y-96246904D02*
X90601428Y-96208809D01*
X90639523Y-96132619D01*
X90639523Y-95446904D01*
X90220476Y-96246904D02*
X90220476Y-95713571D01*
X90220476Y-95446904D02*
X90258571Y-95485000D01*
X90220476Y-95523095D01*
X90182380Y-95485000D01*
X90220476Y-95446904D01*
X90220476Y-95523095D01*
X89953809Y-95713571D02*
X89649047Y-95713571D01*
X89839523Y-96246904D02*
X89839523Y-95561190D01*
X89801428Y-95485000D01*
X89725238Y-95446904D01*
X89649047Y-95446904D01*
X89382380Y-96246904D02*
X89382380Y-95713571D01*
X89382380Y-95446904D02*
X89420476Y-95485000D01*
X89382380Y-95523095D01*
X89344285Y-95485000D01*
X89382380Y-95446904D01*
X89382380Y-95523095D01*
X88696666Y-96208809D02*
X88772857Y-96246904D01*
X88925238Y-96246904D01*
X89001428Y-96208809D01*
X89039523Y-96132619D01*
X89039523Y-95827857D01*
X89001428Y-95751666D01*
X88925238Y-95713571D01*
X88772857Y-95713571D01*
X88696666Y-95751666D01*
X88658571Y-95827857D01*
X88658571Y-95904047D01*
X89039523Y-95980238D01*
X88315714Y-96246904D02*
X88315714Y-95713571D01*
X88315714Y-95865952D02*
X88277619Y-95789761D01*
X88239523Y-95751666D01*
X88163333Y-95713571D01*
X88087142Y-95713571D01*
X87782380Y-96208809D02*
X87782380Y-96246904D01*
X87820476Y-96323095D01*
X87858571Y-96361190D01*
X86830000Y-96246904D02*
X86830000Y-95713571D01*
X86830000Y-95789761D02*
X86791904Y-95751666D01*
X86715714Y-95713571D01*
X86601428Y-95713571D01*
X86525238Y-95751666D01*
X86487142Y-95827857D01*
X86487142Y-96246904D01*
X86487142Y-95827857D02*
X86449047Y-95751666D01*
X86372857Y-95713571D01*
X86258571Y-95713571D01*
X86182380Y-95751666D01*
X86144285Y-95827857D01*
X86144285Y-96246904D01*
X85649047Y-96246904D02*
X85725238Y-96208809D01*
X85763333Y-96170714D01*
X85801428Y-96094523D01*
X85801428Y-95865952D01*
X85763333Y-95789761D01*
X85725238Y-95751666D01*
X85649047Y-95713571D01*
X85534761Y-95713571D01*
X85458571Y-95751666D01*
X85420476Y-95789761D01*
X85382380Y-95865952D01*
X85382380Y-96094523D01*
X85420476Y-96170714D01*
X85458571Y-96208809D01*
X85534761Y-96246904D01*
X85649047Y-96246904D01*
X84696666Y-95713571D02*
X84696666Y-96246904D01*
X85039523Y-95713571D02*
X85039523Y-96132619D01*
X85001428Y-96208809D01*
X84925238Y-96246904D01*
X84810952Y-96246904D01*
X84734761Y-96208809D01*
X84696666Y-96170714D01*
X84315714Y-95713571D02*
X84315714Y-96246904D01*
X84315714Y-95789761D02*
X84277619Y-95751666D01*
X84201428Y-95713571D01*
X84087142Y-95713571D01*
X84010952Y-95751666D01*
X83972857Y-95827857D01*
X83972857Y-96246904D01*
X83706190Y-95713571D02*
X83401428Y-95713571D01*
X83591904Y-95446904D02*
X83591904Y-96132619D01*
X83553809Y-96208809D01*
X83477619Y-96246904D01*
X83401428Y-96246904D01*
X82830000Y-96208809D02*
X82906190Y-96246904D01*
X83058571Y-96246904D01*
X83134761Y-96208809D01*
X83172857Y-96132619D01*
X83172857Y-95827857D01*
X83134761Y-95751666D01*
X83058571Y-95713571D01*
X82906190Y-95713571D01*
X82830000Y-95751666D01*
X82791904Y-95827857D01*
X82791904Y-95904047D01*
X83172857Y-95980238D01*
X82106190Y-96246904D02*
X82106190Y-95446904D01*
X82106190Y-96208809D02*
X82182380Y-96246904D01*
X82334761Y-96246904D01*
X82410952Y-96208809D01*
X82449047Y-96170714D01*
X82487142Y-96094523D01*
X82487142Y-95865952D01*
X82449047Y-95789761D01*
X82410952Y-95751666D01*
X82334761Y-95713571D01*
X82182380Y-95713571D01*
X82106190Y-95751666D01*
X93782380Y-97013571D02*
X93782380Y-97546904D01*
X94125238Y-97013571D02*
X94125238Y-97432619D01*
X94087142Y-97508809D01*
X94010952Y-97546904D01*
X93896666Y-97546904D01*
X93820476Y-97508809D01*
X93782380Y-97470714D01*
X93401428Y-97013571D02*
X93401428Y-97813571D01*
X93401428Y-97051666D02*
X93325238Y-97013571D01*
X93172857Y-97013571D01*
X93096666Y-97051666D01*
X93058571Y-97089761D01*
X93020476Y-97165952D01*
X93020476Y-97394523D01*
X93058571Y-97470714D01*
X93096666Y-97508809D01*
X93172857Y-97546904D01*
X93325238Y-97546904D01*
X93401428Y-97508809D01*
X92715714Y-97508809D02*
X92639523Y-97546904D01*
X92487142Y-97546904D01*
X92410952Y-97508809D01*
X92372857Y-97432619D01*
X92372857Y-97394523D01*
X92410952Y-97318333D01*
X92487142Y-97280238D01*
X92601428Y-97280238D01*
X92677619Y-97242142D01*
X92715714Y-97165952D01*
X92715714Y-97127857D01*
X92677619Y-97051666D01*
X92601428Y-97013571D01*
X92487142Y-97013571D01*
X92410952Y-97051666D01*
X92030000Y-97546904D02*
X92030000Y-97013571D01*
X92030000Y-96746904D02*
X92068095Y-96785000D01*
X92030000Y-96823095D01*
X91991904Y-96785000D01*
X92030000Y-96746904D01*
X92030000Y-96823095D01*
X91306190Y-97546904D02*
X91306190Y-96746904D01*
X91306190Y-97508809D02*
X91382380Y-97546904D01*
X91534761Y-97546904D01*
X91610952Y-97508809D01*
X91649047Y-97470714D01*
X91687142Y-97394523D01*
X91687142Y-97165952D01*
X91649047Y-97089761D01*
X91610952Y-97051666D01*
X91534761Y-97013571D01*
X91382380Y-97013571D01*
X91306190Y-97051666D01*
X90620476Y-97508809D02*
X90696666Y-97546904D01*
X90849047Y-97546904D01*
X90925238Y-97508809D01*
X90963333Y-97432619D01*
X90963333Y-97127857D01*
X90925238Y-97051666D01*
X90849047Y-97013571D01*
X90696666Y-97013571D01*
X90620476Y-97051666D01*
X90582380Y-97127857D01*
X90582380Y-97204047D01*
X90963333Y-97280238D01*
X89287142Y-97546904D02*
X89287142Y-96746904D01*
X89287142Y-97508809D02*
X89363333Y-97546904D01*
X89515714Y-97546904D01*
X89591904Y-97508809D01*
X89630000Y-97470714D01*
X89668095Y-97394523D01*
X89668095Y-97165952D01*
X89630000Y-97089761D01*
X89591904Y-97051666D01*
X89515714Y-97013571D01*
X89363333Y-97013571D01*
X89287142Y-97051666D01*
X88791904Y-97546904D02*
X88868095Y-97508809D01*
X88906190Y-97470714D01*
X88944285Y-97394523D01*
X88944285Y-97165952D01*
X88906190Y-97089761D01*
X88868095Y-97051666D01*
X88791904Y-97013571D01*
X88677619Y-97013571D01*
X88601428Y-97051666D01*
X88563333Y-97089761D01*
X88525238Y-97165952D01*
X88525238Y-97394523D01*
X88563333Y-97470714D01*
X88601428Y-97508809D01*
X88677619Y-97546904D01*
X88791904Y-97546904D01*
X88258571Y-97013571D02*
X88106190Y-97546904D01*
X87953809Y-97165952D01*
X87801428Y-97546904D01*
X87649047Y-97013571D01*
X87344285Y-97013571D02*
X87344285Y-97546904D01*
X87344285Y-97089761D02*
X87306190Y-97051666D01*
X87230000Y-97013571D01*
X87115714Y-97013571D01*
X87039523Y-97051666D01*
X87001428Y-97127857D01*
X87001428Y-97546904D01*
X86010952Y-97242142D02*
X85401428Y-97242142D01*
X84068095Y-97546904D02*
X84068095Y-97127857D01*
X84106190Y-97051666D01*
X84182380Y-97013571D01*
X84334761Y-97013571D01*
X84410952Y-97051666D01*
X84068095Y-97508809D02*
X84144285Y-97546904D01*
X84334761Y-97546904D01*
X84410952Y-97508809D01*
X84449047Y-97432619D01*
X84449047Y-97356428D01*
X84410952Y-97280238D01*
X84334761Y-97242142D01*
X84144285Y-97242142D01*
X84068095Y-97204047D01*
X83344285Y-97546904D02*
X83344285Y-96746904D01*
X83344285Y-97508809D02*
X83420476Y-97546904D01*
X83572857Y-97546904D01*
X83649047Y-97508809D01*
X83687142Y-97470714D01*
X83725238Y-97394523D01*
X83725238Y-97165952D01*
X83687142Y-97089761D01*
X83649047Y-97051666D01*
X83572857Y-97013571D01*
X83420476Y-97013571D01*
X83344285Y-97051666D01*
X82963333Y-97013571D02*
X82963333Y-97699285D01*
X83001428Y-97775476D01*
X83077619Y-97813571D01*
X83115714Y-97813571D01*
X82963333Y-96746904D02*
X83001428Y-96785000D01*
X82963333Y-96823095D01*
X82925238Y-96785000D01*
X82963333Y-96746904D01*
X82963333Y-96823095D01*
X82239523Y-97013571D02*
X82239523Y-97546904D01*
X82582380Y-97013571D02*
X82582380Y-97432619D01*
X82544285Y-97508809D01*
X82468095Y-97546904D01*
X82353809Y-97546904D01*
X82277619Y-97508809D01*
X82239523Y-97470714D01*
X81896666Y-97508809D02*
X81820476Y-97546904D01*
X81668095Y-97546904D01*
X81591904Y-97508809D01*
X81553809Y-97432619D01*
X81553809Y-97394523D01*
X81591904Y-97318333D01*
X81668095Y-97280238D01*
X81782380Y-97280238D01*
X81858571Y-97242142D01*
X81896666Y-97165952D01*
X81896666Y-97127857D01*
X81858571Y-97051666D01*
X81782380Y-97013571D01*
X81668095Y-97013571D01*
X81591904Y-97051666D01*
X81325238Y-97013571D02*
X81020476Y-97013571D01*
X81210952Y-96746904D02*
X81210952Y-97432619D01*
X81172857Y-97508809D01*
X81096666Y-97546904D01*
X81020476Y-97546904D01*
X94430000Y-98313571D02*
X94125238Y-98313571D01*
X94315714Y-98046904D02*
X94315714Y-98732619D01*
X94277619Y-98808809D01*
X94201428Y-98846904D01*
X94125238Y-98846904D01*
X93744285Y-98846904D02*
X93820476Y-98808809D01*
X93858571Y-98770714D01*
X93896666Y-98694523D01*
X93896666Y-98465952D01*
X93858571Y-98389761D01*
X93820476Y-98351666D01*
X93744285Y-98313571D01*
X93630000Y-98313571D01*
X93553809Y-98351666D01*
X93515714Y-98389761D01*
X93477619Y-98465952D01*
X93477619Y-98694523D01*
X93515714Y-98770714D01*
X93553809Y-98808809D01*
X93630000Y-98846904D01*
X93744285Y-98846904D01*
X92639523Y-98313571D02*
X92334761Y-98313571D01*
X92525238Y-98846904D02*
X92525238Y-98161190D01*
X92487142Y-98085000D01*
X92410952Y-98046904D01*
X92334761Y-98046904D01*
X92068095Y-98846904D02*
X92068095Y-98313571D01*
X92068095Y-98046904D02*
X92106190Y-98085000D01*
X92068095Y-98123095D01*
X92030000Y-98085000D01*
X92068095Y-98046904D01*
X92068095Y-98123095D01*
X91801428Y-98313571D02*
X91496666Y-98313571D01*
X91687142Y-98046904D02*
X91687142Y-98732619D01*
X91649047Y-98808809D01*
X91572857Y-98846904D01*
X91496666Y-98846904D01*
X90277619Y-98313571D02*
X90277619Y-98846904D01*
X90620476Y-98313571D02*
X90620476Y-98732619D01*
X90582380Y-98808809D01*
X90506190Y-98846904D01*
X90391904Y-98846904D01*
X90315714Y-98808809D01*
X90277619Y-98770714D01*
X89896666Y-98313571D02*
X89896666Y-98846904D01*
X89896666Y-98389761D02*
X89858571Y-98351666D01*
X89782380Y-98313571D01*
X89668095Y-98313571D01*
X89591904Y-98351666D01*
X89553809Y-98427857D01*
X89553809Y-98846904D01*
X88830000Y-98846904D02*
X88830000Y-98046904D01*
X88830000Y-98808809D02*
X88906190Y-98846904D01*
X89058571Y-98846904D01*
X89134761Y-98808809D01*
X89172857Y-98770714D01*
X89210952Y-98694523D01*
X89210952Y-98465952D01*
X89172857Y-98389761D01*
X89134761Y-98351666D01*
X89058571Y-98313571D01*
X88906190Y-98313571D01*
X88830000Y-98351666D01*
X88144285Y-98808809D02*
X88220476Y-98846904D01*
X88372857Y-98846904D01*
X88449047Y-98808809D01*
X88487142Y-98732619D01*
X88487142Y-98427857D01*
X88449047Y-98351666D01*
X88372857Y-98313571D01*
X88220476Y-98313571D01*
X88144285Y-98351666D01*
X88106190Y-98427857D01*
X88106190Y-98504047D01*
X88487142Y-98580238D01*
X87763333Y-98846904D02*
X87763333Y-98313571D01*
X87763333Y-98465952D02*
X87725238Y-98389761D01*
X87687142Y-98351666D01*
X87610952Y-98313571D01*
X87534761Y-98313571D01*
X86772857Y-98313571D02*
X86468095Y-98313571D01*
X86658571Y-98846904D02*
X86658571Y-98161190D01*
X86620476Y-98085000D01*
X86544285Y-98046904D01*
X86468095Y-98046904D01*
X85858571Y-98846904D02*
X85858571Y-98427857D01*
X85896666Y-98351666D01*
X85972857Y-98313571D01*
X86125238Y-98313571D01*
X86201428Y-98351666D01*
X85858571Y-98808809D02*
X85934761Y-98846904D01*
X86125238Y-98846904D01*
X86201428Y-98808809D01*
X86239523Y-98732619D01*
X86239523Y-98656428D01*
X86201428Y-98580238D01*
X86125238Y-98542142D01*
X85934761Y-98542142D01*
X85858571Y-98504047D01*
X85134761Y-98808809D02*
X85210952Y-98846904D01*
X85363333Y-98846904D01*
X85439523Y-98808809D01*
X85477619Y-98770714D01*
X85515714Y-98694523D01*
X85515714Y-98465952D01*
X85477619Y-98389761D01*
X85439523Y-98351666D01*
X85363333Y-98313571D01*
X85210952Y-98313571D01*
X85134761Y-98351666D01*
X84487142Y-98808809D02*
X84563333Y-98846904D01*
X84715714Y-98846904D01*
X84791904Y-98808809D01*
X84830000Y-98732619D01*
X84830000Y-98427857D01*
X84791904Y-98351666D01*
X84715714Y-98313571D01*
X84563333Y-98313571D01*
X84487142Y-98351666D01*
X84449047Y-98427857D01*
X84449047Y-98504047D01*
X84830000Y-98580238D01*
X84106190Y-98313571D02*
X84106190Y-99113571D01*
X84106190Y-98351666D02*
X84030000Y-98313571D01*
X83877619Y-98313571D01*
X83801428Y-98351666D01*
X83763333Y-98389761D01*
X83725238Y-98465952D01*
X83725238Y-98694523D01*
X83763333Y-98770714D01*
X83801428Y-98808809D01*
X83877619Y-98846904D01*
X84030000Y-98846904D01*
X84106190Y-98808809D01*
X83268095Y-98846904D02*
X83344285Y-98808809D01*
X83382380Y-98732619D01*
X83382380Y-98046904D01*
X82620476Y-98846904D02*
X82620476Y-98427857D01*
X82658571Y-98351666D01*
X82734761Y-98313571D01*
X82887142Y-98313571D01*
X82963333Y-98351666D01*
X82620476Y-98808809D02*
X82696666Y-98846904D01*
X82887142Y-98846904D01*
X82963333Y-98808809D01*
X83001428Y-98732619D01*
X83001428Y-98656428D01*
X82963333Y-98580238D01*
X82887142Y-98542142D01*
X82696666Y-98542142D01*
X82620476Y-98504047D01*
X82353809Y-98313571D02*
X82049047Y-98313571D01*
X82239523Y-98046904D02*
X82239523Y-98732619D01*
X82201428Y-98808809D01*
X82125238Y-98846904D01*
X82049047Y-98846904D01*
X81477619Y-98808809D02*
X81553809Y-98846904D01*
X81706190Y-98846904D01*
X81782380Y-98808809D01*
X81820476Y-98732619D01*
X81820476Y-98427857D01*
X81782380Y-98351666D01*
X81706190Y-98313571D01*
X81553809Y-98313571D01*
X81477619Y-98351666D01*
X81439523Y-98427857D01*
X81439523Y-98504047D01*
X81820476Y-98580238D01*
X81172857Y-99151666D02*
X81134761Y-99113571D01*
X81058571Y-98999285D01*
X81020476Y-98923095D01*
X80982380Y-98808809D01*
X80944285Y-98618333D01*
X80944285Y-98465952D01*
X80982380Y-98275476D01*
X81020476Y-98161190D01*
X81058571Y-98085000D01*
X81134761Y-97970714D01*
X81172857Y-97932619D01*
D11*
X78105000Y-102235000D02*
X78105000Y-82550000D01*
X98425000Y-110490000D02*
X78105000Y-110490000D01*
X98425000Y-82550000D02*
X98425000Y-110490000D01*
X78105000Y-82550000D02*
X98425000Y-82550000D01*
D10*
X138905952Y-107041904D02*
X139286904Y-107041904D01*
X139286904Y-106241904D01*
X138639285Y-107041904D02*
X138639285Y-106241904D01*
X138334523Y-106241904D01*
X138258333Y-106280000D01*
X138220238Y-106318095D01*
X138182142Y-106394285D01*
X138182142Y-106508571D01*
X138220238Y-106584761D01*
X138258333Y-106622857D01*
X138334523Y-106660952D01*
X138639285Y-106660952D01*
X138029761Y-107118095D02*
X137420238Y-107118095D01*
X136963095Y-106622857D02*
X137229761Y-106622857D01*
X137229761Y-107041904D02*
X137229761Y-106241904D01*
X136848809Y-106241904D01*
X136544047Y-107041904D02*
X136544047Y-106241904D01*
X135782142Y-107041904D02*
X136163095Y-107041904D01*
X136163095Y-106241904D01*
X135629761Y-106241904D02*
X135172619Y-106241904D01*
X135401190Y-107041904D02*
X135401190Y-106241904D01*
X134905952Y-106622857D02*
X134639285Y-106622857D01*
X134525000Y-107041904D02*
X134905952Y-107041904D01*
X134905952Y-106241904D01*
X134525000Y-106241904D01*
X133725000Y-107041904D02*
X133991666Y-106660952D01*
X134182142Y-107041904D02*
X134182142Y-106241904D01*
X133877380Y-106241904D01*
X133801190Y-106280000D01*
X133763095Y-106318095D01*
X133725000Y-106394285D01*
X133725000Y-106508571D01*
X133763095Y-106584761D01*
X133801190Y-106622857D01*
X133877380Y-106660952D01*
X134182142Y-106660952D01*
X124205714Y-99002857D02*
X123939047Y-99002857D01*
X123824761Y-99421904D02*
X124205714Y-99421904D01*
X124205714Y-98621904D01*
X123824761Y-98621904D01*
X123520000Y-99193333D02*
X123139047Y-99193333D01*
X123596190Y-99421904D02*
X123329523Y-98621904D01*
X123062857Y-99421904D01*
X122339047Y-99421904D02*
X122605714Y-99040952D01*
X122796190Y-99421904D02*
X122796190Y-98621904D01*
X122491428Y-98621904D01*
X122415238Y-98660000D01*
X122377142Y-98698095D01*
X122339047Y-98774285D01*
X122339047Y-98888571D01*
X122377142Y-98964761D01*
X122415238Y-99002857D01*
X122491428Y-99040952D01*
X122796190Y-99040952D01*
X122186666Y-99498095D02*
X121577142Y-99498095D01*
X121424761Y-99383809D02*
X121310476Y-99421904D01*
X121120000Y-99421904D01*
X121043809Y-99383809D01*
X121005714Y-99345714D01*
X120967619Y-99269523D01*
X120967619Y-99193333D01*
X121005714Y-99117142D01*
X121043809Y-99079047D01*
X121120000Y-99040952D01*
X121272380Y-99002857D01*
X121348571Y-98964761D01*
X121386666Y-98926666D01*
X121424761Y-98850476D01*
X121424761Y-98774285D01*
X121386666Y-98698095D01*
X121348571Y-98660000D01*
X121272380Y-98621904D01*
X121081904Y-98621904D01*
X120967619Y-98660000D01*
X120624761Y-99002857D02*
X120358095Y-99002857D01*
X120243809Y-99421904D02*
X120624761Y-99421904D01*
X120624761Y-98621904D01*
X120243809Y-98621904D01*
X119520000Y-99421904D02*
X119900952Y-99421904D01*
X119900952Y-98621904D01*
X121029523Y-114712857D02*
X120762857Y-114712857D01*
X120648571Y-115131904D02*
X121029523Y-115131904D01*
X121029523Y-114331904D01*
X120648571Y-114331904D01*
X120343809Y-114903333D02*
X119962857Y-114903333D01*
X120420000Y-115131904D02*
X120153333Y-114331904D01*
X119886666Y-115131904D01*
X119162857Y-115131904D02*
X119429523Y-114750952D01*
X119620000Y-115131904D02*
X119620000Y-114331904D01*
X119315238Y-114331904D01*
X119239047Y-114370000D01*
X119200952Y-114408095D01*
X119162857Y-114484285D01*
X119162857Y-114598571D01*
X119200952Y-114674761D01*
X119239047Y-114712857D01*
X119315238Y-114750952D01*
X119620000Y-114750952D01*
X119010476Y-115208095D02*
X118400952Y-115208095D01*
X118248571Y-115093809D02*
X118134285Y-115131904D01*
X117943809Y-115131904D01*
X117867619Y-115093809D01*
X117829523Y-115055714D01*
X117791428Y-114979523D01*
X117791428Y-114903333D01*
X117829523Y-114827142D01*
X117867619Y-114789047D01*
X117943809Y-114750952D01*
X118096190Y-114712857D01*
X118172380Y-114674761D01*
X118210476Y-114636666D01*
X118248571Y-114560476D01*
X118248571Y-114484285D01*
X118210476Y-114408095D01*
X118172380Y-114370000D01*
X118096190Y-114331904D01*
X117905714Y-114331904D01*
X117791428Y-114370000D01*
X117448571Y-114712857D02*
X117181904Y-114712857D01*
X117067619Y-115131904D02*
X117448571Y-115131904D01*
X117448571Y-114331904D01*
X117067619Y-114331904D01*
X116343809Y-115131904D02*
X116724761Y-115131904D01*
X116724761Y-114331904D01*
X115239047Y-115436666D02*
X115277142Y-115398571D01*
X115353333Y-115284285D01*
X115391428Y-115208095D01*
X115429523Y-115093809D01*
X115467619Y-114903333D01*
X115467619Y-114750952D01*
X115429523Y-114560476D01*
X115391428Y-114446190D01*
X115353333Y-114370000D01*
X115277142Y-114255714D01*
X115239047Y-114217619D01*
X114705714Y-114331904D02*
X114705714Y-114903333D01*
X114743809Y-115017619D01*
X114820000Y-115093809D01*
X114934285Y-115131904D01*
X115010476Y-115131904D01*
X114400952Y-114331904D02*
X113867619Y-114331904D01*
X114210476Y-115131904D01*
X113639047Y-115436666D02*
X113600952Y-115398571D01*
X113524761Y-115284285D01*
X113486666Y-115208095D01*
X113448571Y-115093809D01*
X113410476Y-114903333D01*
X113410476Y-114750952D01*
X113448571Y-114560476D01*
X113486666Y-114446190D01*
X113524761Y-114370000D01*
X113600952Y-114255714D01*
X113639047Y-114217619D01*
X113029523Y-115055714D02*
X112991428Y-115093809D01*
X113029523Y-115131904D01*
X113067619Y-115093809D01*
X113029523Y-115055714D01*
X113029523Y-115131904D01*
X113029523Y-114636666D02*
X112991428Y-114674761D01*
X113029523Y-114712857D01*
X113067619Y-114674761D01*
X113029523Y-114636666D01*
X113029523Y-114712857D01*
X120877142Y-115631904D02*
X120800952Y-115631904D01*
X120724761Y-115670000D01*
X120686666Y-115708095D01*
X120648571Y-115784285D01*
X120610476Y-115936666D01*
X120610476Y-116127142D01*
X120648571Y-116279523D01*
X120686666Y-116355714D01*
X120724761Y-116393809D01*
X120800952Y-116431904D01*
X120877142Y-116431904D01*
X120953333Y-116393809D01*
X120991428Y-116355714D01*
X121029523Y-116279523D01*
X121067619Y-116127142D01*
X121067619Y-115936666D01*
X121029523Y-115784285D01*
X120991428Y-115708095D01*
X120953333Y-115670000D01*
X120877142Y-115631904D01*
X119848571Y-116431904D02*
X120305714Y-116431904D01*
X120077142Y-116431904D02*
X120077142Y-115631904D01*
X120153333Y-115746190D01*
X120229523Y-115822380D01*
X120305714Y-115860476D01*
X119505714Y-116127142D02*
X118896190Y-116127142D01*
X118362857Y-115631904D02*
X118286666Y-115631904D01*
X118210476Y-115670000D01*
X118172380Y-115708095D01*
X118134285Y-115784285D01*
X118096190Y-115936666D01*
X118096190Y-116127142D01*
X118134285Y-116279523D01*
X118172380Y-116355714D01*
X118210476Y-116393809D01*
X118286666Y-116431904D01*
X118362857Y-116431904D01*
X118439047Y-116393809D01*
X118477142Y-116355714D01*
X118515238Y-116279523D01*
X118553333Y-116127142D01*
X118553333Y-115936666D01*
X118515238Y-115784285D01*
X118477142Y-115708095D01*
X118439047Y-115670000D01*
X118362857Y-115631904D01*
X117791428Y-115708095D02*
X117753333Y-115670000D01*
X117677142Y-115631904D01*
X117486666Y-115631904D01*
X117410476Y-115670000D01*
X117372380Y-115708095D01*
X117334285Y-115784285D01*
X117334285Y-115860476D01*
X117372380Y-115974761D01*
X117829523Y-116431904D01*
X117334285Y-116431904D01*
X116381904Y-116431904D02*
X116381904Y-115631904D01*
X116191428Y-115631904D01*
X116077142Y-115670000D01*
X116000952Y-115746190D01*
X115962857Y-115822380D01*
X115924761Y-115974761D01*
X115924761Y-116089047D01*
X115962857Y-116241428D01*
X116000952Y-116317619D01*
X116077142Y-116393809D01*
X116191428Y-116431904D01*
X116381904Y-116431904D01*
X115581904Y-116431904D02*
X115581904Y-115898571D01*
X115581904Y-115631904D02*
X115620000Y-115670000D01*
X115581904Y-115708095D01*
X115543809Y-115670000D01*
X115581904Y-115631904D01*
X115581904Y-115708095D01*
X115200952Y-116431904D02*
X115200952Y-115898571D01*
X115200952Y-116050952D02*
X115162857Y-115974761D01*
X115124761Y-115936666D01*
X115048571Y-115898571D01*
X114972380Y-115898571D01*
X114400952Y-116393809D02*
X114477142Y-116431904D01*
X114629523Y-116431904D01*
X114705714Y-116393809D01*
X114743809Y-116317619D01*
X114743809Y-116012857D01*
X114705714Y-115936666D01*
X114629523Y-115898571D01*
X114477142Y-115898571D01*
X114400952Y-115936666D01*
X114362857Y-116012857D01*
X114362857Y-116089047D01*
X114743809Y-116165238D01*
X113677142Y-116393809D02*
X113753333Y-116431904D01*
X113905714Y-116431904D01*
X113981904Y-116393809D01*
X114020000Y-116355714D01*
X114058095Y-116279523D01*
X114058095Y-116050952D01*
X114020000Y-115974761D01*
X113981904Y-115936666D01*
X113905714Y-115898571D01*
X113753333Y-115898571D01*
X113677142Y-115936666D01*
X113448571Y-115898571D02*
X113143809Y-115898571D01*
X113334285Y-115631904D02*
X113334285Y-116317619D01*
X113296190Y-116393809D01*
X113220000Y-116431904D01*
X113143809Y-116431904D01*
X112762857Y-115631904D02*
X112762857Y-115822380D01*
X112953333Y-115746190D02*
X112762857Y-115822380D01*
X112572380Y-115746190D01*
X112877142Y-115974761D02*
X112762857Y-115822380D01*
X112648571Y-115974761D01*
X120610476Y-117731904D02*
X121067619Y-117731904D01*
X120839047Y-117731904D02*
X120839047Y-116931904D01*
X120915238Y-117046190D01*
X120991428Y-117122380D01*
X121067619Y-117160476D01*
X119848571Y-117731904D02*
X120305714Y-117731904D01*
X120077142Y-117731904D02*
X120077142Y-116931904D01*
X120153333Y-117046190D01*
X120229523Y-117122380D01*
X120305714Y-117160476D01*
X119505714Y-117427142D02*
X118896190Y-117427142D01*
X118096190Y-117731904D02*
X118553333Y-117731904D01*
X118324761Y-117731904D02*
X118324761Y-116931904D01*
X118400952Y-117046190D01*
X118477142Y-117122380D01*
X118553333Y-117160476D01*
X117791428Y-117008095D02*
X117753333Y-116970000D01*
X117677142Y-116931904D01*
X117486666Y-116931904D01*
X117410476Y-116970000D01*
X117372380Y-117008095D01*
X117334285Y-117084285D01*
X117334285Y-117160476D01*
X117372380Y-117274761D01*
X117829523Y-117731904D01*
X117334285Y-117731904D01*
X120877142Y-119531904D02*
X120800952Y-119531904D01*
X120724761Y-119570000D01*
X120686666Y-119608095D01*
X120648571Y-119684285D01*
X120610476Y-119836666D01*
X120610476Y-120027142D01*
X120648571Y-120179523D01*
X120686666Y-120255714D01*
X120724761Y-120293809D01*
X120800952Y-120331904D01*
X120877142Y-120331904D01*
X120953333Y-120293809D01*
X120991428Y-120255714D01*
X121029523Y-120179523D01*
X121067619Y-120027142D01*
X121067619Y-119836666D01*
X121029523Y-119684285D01*
X120991428Y-119608095D01*
X120953333Y-119570000D01*
X120877142Y-119531904D01*
X120343809Y-119531904D02*
X119848571Y-119531904D01*
X120115238Y-119836666D01*
X120000952Y-119836666D01*
X119924761Y-119874761D01*
X119886666Y-119912857D01*
X119848571Y-119989047D01*
X119848571Y-120179523D01*
X119886666Y-120255714D01*
X119924761Y-120293809D01*
X120000952Y-120331904D01*
X120229523Y-120331904D01*
X120305714Y-120293809D01*
X120343809Y-120255714D01*
X119505714Y-120027142D02*
X118896190Y-120027142D01*
X118362857Y-119531904D02*
X118286666Y-119531904D01*
X118210476Y-119570000D01*
X118172380Y-119608095D01*
X118134285Y-119684285D01*
X118096190Y-119836666D01*
X118096190Y-120027142D01*
X118134285Y-120179523D01*
X118172380Y-120255714D01*
X118210476Y-120293809D01*
X118286666Y-120331904D01*
X118362857Y-120331904D01*
X118439047Y-120293809D01*
X118477142Y-120255714D01*
X118515238Y-120179523D01*
X118553333Y-120027142D01*
X118553333Y-119836666D01*
X118515238Y-119684285D01*
X118477142Y-119608095D01*
X118439047Y-119570000D01*
X118362857Y-119531904D01*
X117410476Y-119798571D02*
X117410476Y-120331904D01*
X117600952Y-119493809D02*
X117791428Y-120065238D01*
X117296190Y-120065238D01*
X116381904Y-120331904D02*
X116381904Y-119531904D01*
X116191428Y-119531904D01*
X116077142Y-119570000D01*
X116000952Y-119646190D01*
X115962857Y-119722380D01*
X115924761Y-119874761D01*
X115924761Y-119989047D01*
X115962857Y-120141428D01*
X116000952Y-120217619D01*
X116077142Y-120293809D01*
X116191428Y-120331904D01*
X116381904Y-120331904D01*
X115581904Y-120331904D02*
X115581904Y-119798571D01*
X115581904Y-119531904D02*
X115620000Y-119570000D01*
X115581904Y-119608095D01*
X115543809Y-119570000D01*
X115581904Y-119531904D01*
X115581904Y-119608095D01*
X115200952Y-120331904D02*
X115200952Y-119798571D01*
X115200952Y-119950952D02*
X115162857Y-119874761D01*
X115124761Y-119836666D01*
X115048571Y-119798571D01*
X114972380Y-119798571D01*
X114400952Y-120293809D02*
X114477142Y-120331904D01*
X114629523Y-120331904D01*
X114705714Y-120293809D01*
X114743809Y-120217619D01*
X114743809Y-119912857D01*
X114705714Y-119836666D01*
X114629523Y-119798571D01*
X114477142Y-119798571D01*
X114400952Y-119836666D01*
X114362857Y-119912857D01*
X114362857Y-119989047D01*
X114743809Y-120065238D01*
X113677142Y-120293809D02*
X113753333Y-120331904D01*
X113905714Y-120331904D01*
X113981904Y-120293809D01*
X114020000Y-120255714D01*
X114058095Y-120179523D01*
X114058095Y-119950952D01*
X114020000Y-119874761D01*
X113981904Y-119836666D01*
X113905714Y-119798571D01*
X113753333Y-119798571D01*
X113677142Y-119836666D01*
X113448571Y-119798571D02*
X113143809Y-119798571D01*
X113334285Y-119531904D02*
X113334285Y-120217619D01*
X113296190Y-120293809D01*
X113220000Y-120331904D01*
X113143809Y-120331904D01*
X112039047Y-120636666D02*
X112077142Y-120598571D01*
X112153333Y-120484285D01*
X112191428Y-120408095D01*
X112229523Y-120293809D01*
X112267619Y-120103333D01*
X112267619Y-119950952D01*
X112229523Y-119760476D01*
X112191428Y-119646190D01*
X112153333Y-119570000D01*
X112077142Y-119455714D01*
X112039047Y-119417619D01*
X111772380Y-120103333D02*
X111391428Y-120103333D01*
X111848571Y-120331904D02*
X111581904Y-119531904D01*
X111315238Y-120331904D01*
X110591428Y-120255714D02*
X110629523Y-120293809D01*
X110743809Y-120331904D01*
X110820000Y-120331904D01*
X110934285Y-120293809D01*
X111010476Y-120217619D01*
X111048571Y-120141428D01*
X111086666Y-119989047D01*
X111086666Y-119874761D01*
X111048571Y-119722380D01*
X111010476Y-119646190D01*
X110934285Y-119570000D01*
X110820000Y-119531904D01*
X110743809Y-119531904D01*
X110629523Y-119570000D01*
X110591428Y-119608095D01*
X110324761Y-120636666D02*
X110286666Y-120598571D01*
X110210476Y-120484285D01*
X110172380Y-120408095D01*
X110134285Y-120293809D01*
X110096190Y-120103333D01*
X110096190Y-119950952D01*
X110134285Y-119760476D01*
X110172380Y-119646190D01*
X110210476Y-119570000D01*
X110286666Y-119455714D01*
X110324761Y-119417619D01*
X120610476Y-121631904D02*
X121067619Y-121631904D01*
X120839047Y-121631904D02*
X120839047Y-120831904D01*
X120915238Y-120946190D01*
X120991428Y-121022380D01*
X121067619Y-121060476D01*
X119848571Y-121631904D02*
X120305714Y-121631904D01*
X120077142Y-121631904D02*
X120077142Y-120831904D01*
X120153333Y-120946190D01*
X120229523Y-121022380D01*
X120305714Y-121060476D01*
X119505714Y-121327142D02*
X118896190Y-121327142D01*
X118096190Y-121631904D02*
X118553333Y-121631904D01*
X118324761Y-121631904D02*
X118324761Y-120831904D01*
X118400952Y-120946190D01*
X118477142Y-121022380D01*
X118553333Y-121060476D01*
X117791428Y-120908095D02*
X117753333Y-120870000D01*
X117677142Y-120831904D01*
X117486666Y-120831904D01*
X117410476Y-120870000D01*
X117372380Y-120908095D01*
X117334285Y-120984285D01*
X117334285Y-121060476D01*
X117372380Y-121174761D01*
X117829523Y-121631904D01*
X117334285Y-121631904D01*
X120877142Y-123431904D02*
X120800952Y-123431904D01*
X120724761Y-123470000D01*
X120686666Y-123508095D01*
X120648571Y-123584285D01*
X120610476Y-123736666D01*
X120610476Y-123927142D01*
X120648571Y-124079523D01*
X120686666Y-124155714D01*
X120724761Y-124193809D01*
X120800952Y-124231904D01*
X120877142Y-124231904D01*
X120953333Y-124193809D01*
X120991428Y-124155714D01*
X121029523Y-124079523D01*
X121067619Y-123927142D01*
X121067619Y-123736666D01*
X121029523Y-123584285D01*
X120991428Y-123508095D01*
X120953333Y-123470000D01*
X120877142Y-123431904D01*
X119886666Y-123431904D02*
X120267619Y-123431904D01*
X120305714Y-123812857D01*
X120267619Y-123774761D01*
X120191428Y-123736666D01*
X120000952Y-123736666D01*
X119924761Y-123774761D01*
X119886666Y-123812857D01*
X119848571Y-123889047D01*
X119848571Y-124079523D01*
X119886666Y-124155714D01*
X119924761Y-124193809D01*
X120000952Y-124231904D01*
X120191428Y-124231904D01*
X120267619Y-124193809D01*
X120305714Y-124155714D01*
X119505714Y-123927142D02*
X118896190Y-123927142D01*
X118362857Y-123431904D02*
X118286666Y-123431904D01*
X118210476Y-123470000D01*
X118172380Y-123508095D01*
X118134285Y-123584285D01*
X118096190Y-123736666D01*
X118096190Y-123927142D01*
X118134285Y-124079523D01*
X118172380Y-124155714D01*
X118210476Y-124193809D01*
X118286666Y-124231904D01*
X118362857Y-124231904D01*
X118439047Y-124193809D01*
X118477142Y-124155714D01*
X118515238Y-124079523D01*
X118553333Y-123927142D01*
X118553333Y-123736666D01*
X118515238Y-123584285D01*
X118477142Y-123508095D01*
X118439047Y-123470000D01*
X118362857Y-123431904D01*
X117410476Y-123431904D02*
X117562857Y-123431904D01*
X117639047Y-123470000D01*
X117677142Y-123508095D01*
X117753333Y-123622380D01*
X117791428Y-123774761D01*
X117791428Y-124079523D01*
X117753333Y-124155714D01*
X117715238Y-124193809D01*
X117639047Y-124231904D01*
X117486666Y-124231904D01*
X117410476Y-124193809D01*
X117372380Y-124155714D01*
X117334285Y-124079523D01*
X117334285Y-123889047D01*
X117372380Y-123812857D01*
X117410476Y-123774761D01*
X117486666Y-123736666D01*
X117639047Y-123736666D01*
X117715238Y-123774761D01*
X117753333Y-123812857D01*
X117791428Y-123889047D01*
X116000952Y-124231904D02*
X116381904Y-124231904D01*
X116381904Y-123431904D01*
X115734285Y-124231904D02*
X115734285Y-123431904D01*
X115467619Y-124003333D01*
X115200952Y-123431904D01*
X115200952Y-124231904D01*
X114896190Y-123431904D02*
X114400952Y-123431904D01*
X114667619Y-123736666D01*
X114553333Y-123736666D01*
X114477142Y-123774761D01*
X114439047Y-123812857D01*
X114400952Y-123889047D01*
X114400952Y-124079523D01*
X114439047Y-124155714D01*
X114477142Y-124193809D01*
X114553333Y-124231904D01*
X114781904Y-124231904D01*
X114858095Y-124193809D01*
X114896190Y-124155714D01*
X113943809Y-123774761D02*
X114020000Y-123736666D01*
X114058095Y-123698571D01*
X114096190Y-123622380D01*
X114096190Y-123584285D01*
X114058095Y-123508095D01*
X114020000Y-123470000D01*
X113943809Y-123431904D01*
X113791428Y-123431904D01*
X113715238Y-123470000D01*
X113677142Y-123508095D01*
X113639047Y-123584285D01*
X113639047Y-123622380D01*
X113677142Y-123698571D01*
X113715238Y-123736666D01*
X113791428Y-123774761D01*
X113943809Y-123774761D01*
X114020000Y-123812857D01*
X114058095Y-123850952D01*
X114096190Y-123927142D01*
X114096190Y-124079523D01*
X114058095Y-124155714D01*
X114020000Y-124193809D01*
X113943809Y-124231904D01*
X113791428Y-124231904D01*
X113715238Y-124193809D01*
X113677142Y-124155714D01*
X113639047Y-124079523D01*
X113639047Y-123927142D01*
X113677142Y-123850952D01*
X113715238Y-123812857D01*
X113791428Y-123774761D01*
X112953333Y-123431904D02*
X113105714Y-123431904D01*
X113181904Y-123470000D01*
X113220000Y-123508095D01*
X113296190Y-123622380D01*
X113334285Y-123774761D01*
X113334285Y-124079523D01*
X113296190Y-124155714D01*
X113258095Y-124193809D01*
X113181904Y-124231904D01*
X113029523Y-124231904D01*
X112953333Y-124193809D01*
X112915238Y-124155714D01*
X112877142Y-124079523D01*
X112877142Y-123889047D01*
X112915238Y-123812857D01*
X112953333Y-123774761D01*
X113029523Y-123736666D01*
X113181904Y-123736666D01*
X113258095Y-123774761D01*
X113296190Y-123812857D01*
X113334285Y-123889047D01*
X120610476Y-125531904D02*
X121067619Y-125531904D01*
X120839047Y-125531904D02*
X120839047Y-124731904D01*
X120915238Y-124846190D01*
X120991428Y-124922380D01*
X121067619Y-124960476D01*
X119848571Y-125531904D02*
X120305714Y-125531904D01*
X120077142Y-125531904D02*
X120077142Y-124731904D01*
X120153333Y-124846190D01*
X120229523Y-124922380D01*
X120305714Y-124960476D01*
X119505714Y-125227142D02*
X118896190Y-125227142D01*
X118096190Y-125531904D02*
X118553333Y-125531904D01*
X118324761Y-125531904D02*
X118324761Y-124731904D01*
X118400952Y-124846190D01*
X118477142Y-124922380D01*
X118553333Y-124960476D01*
X117791428Y-124808095D02*
X117753333Y-124770000D01*
X117677142Y-124731904D01*
X117486666Y-124731904D01*
X117410476Y-124770000D01*
X117372380Y-124808095D01*
X117334285Y-124884285D01*
X117334285Y-124960476D01*
X117372380Y-125074761D01*
X117829523Y-125531904D01*
X117334285Y-125531904D01*
X120877142Y-127331904D02*
X120800952Y-127331904D01*
X120724761Y-127370000D01*
X120686666Y-127408095D01*
X120648571Y-127484285D01*
X120610476Y-127636666D01*
X120610476Y-127827142D01*
X120648571Y-127979523D01*
X120686666Y-128055714D01*
X120724761Y-128093809D01*
X120800952Y-128131904D01*
X120877142Y-128131904D01*
X120953333Y-128093809D01*
X120991428Y-128055714D01*
X121029523Y-127979523D01*
X121067619Y-127827142D01*
X121067619Y-127636666D01*
X121029523Y-127484285D01*
X120991428Y-127408095D01*
X120953333Y-127370000D01*
X120877142Y-127331904D01*
X120343809Y-127331904D02*
X119810476Y-127331904D01*
X120153333Y-128131904D01*
X119505714Y-127827142D02*
X118896190Y-127827142D01*
X118362857Y-127331904D02*
X118286666Y-127331904D01*
X118210476Y-127370000D01*
X118172380Y-127408095D01*
X118134285Y-127484285D01*
X118096190Y-127636666D01*
X118096190Y-127827142D01*
X118134285Y-127979523D01*
X118172380Y-128055714D01*
X118210476Y-128093809D01*
X118286666Y-128131904D01*
X118362857Y-128131904D01*
X118439047Y-128093809D01*
X118477142Y-128055714D01*
X118515238Y-127979523D01*
X118553333Y-127827142D01*
X118553333Y-127636666D01*
X118515238Y-127484285D01*
X118477142Y-127408095D01*
X118439047Y-127370000D01*
X118362857Y-127331904D01*
X117639047Y-127674761D02*
X117715238Y-127636666D01*
X117753333Y-127598571D01*
X117791428Y-127522380D01*
X117791428Y-127484285D01*
X117753333Y-127408095D01*
X117715238Y-127370000D01*
X117639047Y-127331904D01*
X117486666Y-127331904D01*
X117410476Y-127370000D01*
X117372380Y-127408095D01*
X117334285Y-127484285D01*
X117334285Y-127522380D01*
X117372380Y-127598571D01*
X117410476Y-127636666D01*
X117486666Y-127674761D01*
X117639047Y-127674761D01*
X117715238Y-127712857D01*
X117753333Y-127750952D01*
X117791428Y-127827142D01*
X117791428Y-127979523D01*
X117753333Y-128055714D01*
X117715238Y-128093809D01*
X117639047Y-128131904D01*
X117486666Y-128131904D01*
X117410476Y-128093809D01*
X117372380Y-128055714D01*
X117334285Y-127979523D01*
X117334285Y-127827142D01*
X117372380Y-127750952D01*
X117410476Y-127712857D01*
X117486666Y-127674761D01*
X115962857Y-127370000D02*
X116039047Y-127331904D01*
X116153333Y-127331904D01*
X116267619Y-127370000D01*
X116343809Y-127446190D01*
X116381904Y-127522380D01*
X116420000Y-127674761D01*
X116420000Y-127789047D01*
X116381904Y-127941428D01*
X116343809Y-128017619D01*
X116267619Y-128093809D01*
X116153333Y-128131904D01*
X116077142Y-128131904D01*
X115962857Y-128093809D01*
X115924761Y-128055714D01*
X115924761Y-127789047D01*
X116077142Y-127789047D01*
X115315238Y-127712857D02*
X115581904Y-127712857D01*
X115581904Y-128131904D02*
X115581904Y-127331904D01*
X115200952Y-127331904D01*
X114477142Y-128131904D02*
X114934285Y-128131904D01*
X114705714Y-128131904D02*
X114705714Y-127331904D01*
X114781904Y-127446190D01*
X114858095Y-127522380D01*
X114934285Y-127560476D01*
X113981904Y-127331904D02*
X113905714Y-127331904D01*
X113829523Y-127370000D01*
X113791428Y-127408095D01*
X113753333Y-127484285D01*
X113715238Y-127636666D01*
X113715238Y-127827142D01*
X113753333Y-127979523D01*
X113791428Y-128055714D01*
X113829523Y-128093809D01*
X113905714Y-128131904D01*
X113981904Y-128131904D01*
X114058095Y-128093809D01*
X114096190Y-128055714D01*
X114134285Y-127979523D01*
X114172380Y-127827142D01*
X114172380Y-127636666D01*
X114134285Y-127484285D01*
X114096190Y-127408095D01*
X114058095Y-127370000D01*
X113981904Y-127331904D01*
X113220000Y-127331904D02*
X113143809Y-127331904D01*
X113067619Y-127370000D01*
X113029523Y-127408095D01*
X112991428Y-127484285D01*
X112953333Y-127636666D01*
X112953333Y-127827142D01*
X112991428Y-127979523D01*
X113029523Y-128055714D01*
X113067619Y-128093809D01*
X113143809Y-128131904D01*
X113220000Y-128131904D01*
X113296190Y-128093809D01*
X113334285Y-128055714D01*
X113372380Y-127979523D01*
X113410476Y-127827142D01*
X113410476Y-127636666D01*
X113372380Y-127484285D01*
X113334285Y-127408095D01*
X113296190Y-127370000D01*
X113220000Y-127331904D01*
X112648571Y-127408095D02*
X112610476Y-127370000D01*
X112534285Y-127331904D01*
X112343809Y-127331904D01*
X112267619Y-127370000D01*
X112229523Y-127408095D01*
X112191428Y-127484285D01*
X112191428Y-127560476D01*
X112229523Y-127674761D01*
X112686666Y-128131904D01*
X112191428Y-128131904D01*
X120877142Y-128631904D02*
X120800952Y-128631904D01*
X120724761Y-128670000D01*
X120686666Y-128708095D01*
X120648571Y-128784285D01*
X120610476Y-128936666D01*
X120610476Y-129127142D01*
X120648571Y-129279523D01*
X120686666Y-129355714D01*
X120724761Y-129393809D01*
X120800952Y-129431904D01*
X120877142Y-129431904D01*
X120953333Y-129393809D01*
X120991428Y-129355714D01*
X121029523Y-129279523D01*
X121067619Y-129127142D01*
X121067619Y-128936666D01*
X121029523Y-128784285D01*
X120991428Y-128708095D01*
X120953333Y-128670000D01*
X120877142Y-128631904D01*
X120229523Y-129431904D02*
X120077142Y-129431904D01*
X120000952Y-129393809D01*
X119962857Y-129355714D01*
X119886666Y-129241428D01*
X119848571Y-129089047D01*
X119848571Y-128784285D01*
X119886666Y-128708095D01*
X119924761Y-128670000D01*
X120000952Y-128631904D01*
X120153333Y-128631904D01*
X120229523Y-128670000D01*
X120267619Y-128708095D01*
X120305714Y-128784285D01*
X120305714Y-128974761D01*
X120267619Y-129050952D01*
X120229523Y-129089047D01*
X120153333Y-129127142D01*
X120000952Y-129127142D01*
X119924761Y-129089047D01*
X119886666Y-129050952D01*
X119848571Y-128974761D01*
X119505714Y-129127142D02*
X118896190Y-129127142D01*
X118096190Y-129431904D02*
X118553333Y-129431904D01*
X118324761Y-129431904D02*
X118324761Y-128631904D01*
X118400952Y-128746190D01*
X118477142Y-128822380D01*
X118553333Y-128860476D01*
X117600952Y-128631904D02*
X117524761Y-128631904D01*
X117448571Y-128670000D01*
X117410476Y-128708095D01*
X117372380Y-128784285D01*
X117334285Y-128936666D01*
X117334285Y-129127142D01*
X117372380Y-129279523D01*
X117410476Y-129355714D01*
X117448571Y-129393809D01*
X117524761Y-129431904D01*
X117600952Y-129431904D01*
X117677142Y-129393809D01*
X117715238Y-129355714D01*
X117753333Y-129279523D01*
X117791428Y-129127142D01*
X117791428Y-128936666D01*
X117753333Y-128784285D01*
X117715238Y-128708095D01*
X117677142Y-128670000D01*
X117600952Y-128631904D01*
X133348571Y-115236904D02*
X133729523Y-115236904D01*
X133729523Y-114436904D01*
X133081904Y-115236904D02*
X133081904Y-114436904D01*
X132777142Y-114436904D01*
X132700952Y-114475000D01*
X132662857Y-114513095D01*
X132624761Y-114589285D01*
X132624761Y-114703571D01*
X132662857Y-114779761D01*
X132700952Y-114817857D01*
X132777142Y-114855952D01*
X133081904Y-114855952D01*
X132472380Y-115313095D02*
X131862857Y-115313095D01*
X131405714Y-114817857D02*
X131672380Y-114817857D01*
X131672380Y-115236904D02*
X131672380Y-114436904D01*
X131291428Y-114436904D01*
X130986666Y-115236904D02*
X130986666Y-114436904D01*
X130224761Y-115236904D02*
X130605714Y-115236904D01*
X130605714Y-114436904D01*
X130072380Y-114436904D02*
X129615238Y-114436904D01*
X129843809Y-115236904D02*
X129843809Y-114436904D01*
X129348571Y-114817857D02*
X129081904Y-114817857D01*
X128967619Y-115236904D02*
X129348571Y-115236904D01*
X129348571Y-114436904D01*
X128967619Y-114436904D01*
X128167619Y-115236904D02*
X128434285Y-114855952D01*
X128624761Y-115236904D02*
X128624761Y-114436904D01*
X128320000Y-114436904D01*
X128243809Y-114475000D01*
X128205714Y-114513095D01*
X128167619Y-114589285D01*
X128167619Y-114703571D01*
X128205714Y-114779761D01*
X128243809Y-114817857D01*
X128320000Y-114855952D01*
X128624761Y-114855952D01*
X126986666Y-115541666D02*
X127024761Y-115503571D01*
X127100952Y-115389285D01*
X127139047Y-115313095D01*
X127177142Y-115198809D01*
X127215238Y-115008333D01*
X127215238Y-114855952D01*
X127177142Y-114665476D01*
X127139047Y-114551190D01*
X127100952Y-114475000D01*
X127024761Y-114360714D01*
X126986666Y-114322619D01*
X126453333Y-114436904D02*
X126453333Y-115008333D01*
X126491428Y-115122619D01*
X126567619Y-115198809D01*
X126681904Y-115236904D01*
X126758095Y-115236904D01*
X125691428Y-114436904D02*
X126072380Y-114436904D01*
X126110476Y-114817857D01*
X126072380Y-114779761D01*
X125996190Y-114741666D01*
X125805714Y-114741666D01*
X125729523Y-114779761D01*
X125691428Y-114817857D01*
X125653333Y-114894047D01*
X125653333Y-115084523D01*
X125691428Y-115160714D01*
X125729523Y-115198809D01*
X125805714Y-115236904D01*
X125996190Y-115236904D01*
X126072380Y-115198809D01*
X126110476Y-115160714D01*
X125386666Y-115541666D02*
X125348571Y-115503571D01*
X125272380Y-115389285D01*
X125234285Y-115313095D01*
X125196190Y-115198809D01*
X125158095Y-115008333D01*
X125158095Y-114855952D01*
X125196190Y-114665476D01*
X125234285Y-114551190D01*
X125272380Y-114475000D01*
X125348571Y-114360714D01*
X125386666Y-114322619D01*
X124777142Y-115160714D02*
X124739047Y-115198809D01*
X124777142Y-115236904D01*
X124815238Y-115198809D01*
X124777142Y-115160714D01*
X124777142Y-115236904D01*
X124777142Y-114741666D02*
X124739047Y-114779761D01*
X124777142Y-114817857D01*
X124815238Y-114779761D01*
X124777142Y-114741666D01*
X124777142Y-114817857D01*
X133310476Y-116536904D02*
X133767619Y-116536904D01*
X133539047Y-116536904D02*
X133539047Y-115736904D01*
X133615238Y-115851190D01*
X133691428Y-115927380D01*
X133767619Y-115965476D01*
X132967619Y-116232142D02*
X132358095Y-116232142D01*
X132015238Y-115813095D02*
X131977142Y-115775000D01*
X131900952Y-115736904D01*
X131710476Y-115736904D01*
X131634285Y-115775000D01*
X131596190Y-115813095D01*
X131558095Y-115889285D01*
X131558095Y-115965476D01*
X131596190Y-116079761D01*
X132053333Y-116536904D01*
X131558095Y-116536904D01*
X130605714Y-116536904D02*
X130605714Y-115736904D01*
X130415238Y-115736904D01*
X130300952Y-115775000D01*
X130224761Y-115851190D01*
X130186666Y-115927380D01*
X130148571Y-116079761D01*
X130148571Y-116194047D01*
X130186666Y-116346428D01*
X130224761Y-116422619D01*
X130300952Y-116498809D01*
X130415238Y-116536904D01*
X130605714Y-116536904D01*
X129805714Y-116536904D02*
X129805714Y-116003571D01*
X129805714Y-115736904D02*
X129843809Y-115775000D01*
X129805714Y-115813095D01*
X129767619Y-115775000D01*
X129805714Y-115736904D01*
X129805714Y-115813095D01*
X129462857Y-116498809D02*
X129386666Y-116536904D01*
X129234285Y-116536904D01*
X129158095Y-116498809D01*
X129120000Y-116422619D01*
X129120000Y-116384523D01*
X129158095Y-116308333D01*
X129234285Y-116270238D01*
X129348571Y-116270238D01*
X129424761Y-116232142D01*
X129462857Y-116155952D01*
X129462857Y-116117857D01*
X129424761Y-116041666D01*
X129348571Y-116003571D01*
X129234285Y-116003571D01*
X129158095Y-116041666D01*
X128434285Y-116536904D02*
X128434285Y-116117857D01*
X128472380Y-116041666D01*
X128548571Y-116003571D01*
X128700952Y-116003571D01*
X128777142Y-116041666D01*
X128434285Y-116498809D02*
X128510476Y-116536904D01*
X128700952Y-116536904D01*
X128777142Y-116498809D01*
X128815238Y-116422619D01*
X128815238Y-116346428D01*
X128777142Y-116270238D01*
X128700952Y-116232142D01*
X128510476Y-116232142D01*
X128434285Y-116194047D01*
X128053333Y-116536904D02*
X128053333Y-115736904D01*
X128053333Y-116041666D02*
X127977142Y-116003571D01*
X127824761Y-116003571D01*
X127748571Y-116041666D01*
X127710476Y-116079761D01*
X127672380Y-116155952D01*
X127672380Y-116384523D01*
X127710476Y-116460714D01*
X127748571Y-116498809D01*
X127824761Y-116536904D01*
X127977142Y-116536904D01*
X128053333Y-116498809D01*
X127215238Y-116536904D02*
X127291428Y-116498809D01*
X127329523Y-116422619D01*
X127329523Y-115736904D01*
X126605714Y-116498809D02*
X126681904Y-116536904D01*
X126834285Y-116536904D01*
X126910476Y-116498809D01*
X126948571Y-116422619D01*
X126948571Y-116117857D01*
X126910476Y-116041666D01*
X126834285Y-116003571D01*
X126681904Y-116003571D01*
X126605714Y-116041666D01*
X126567619Y-116117857D01*
X126567619Y-116194047D01*
X126948571Y-116270238D01*
X125881904Y-116536904D02*
X125881904Y-115736904D01*
X125881904Y-116498809D02*
X125958095Y-116536904D01*
X126110476Y-116536904D01*
X126186666Y-116498809D01*
X126224761Y-116460714D01*
X126262857Y-116384523D01*
X126262857Y-116155952D01*
X126224761Y-116079761D01*
X126186666Y-116041666D01*
X126110476Y-116003571D01*
X125958095Y-116003571D01*
X125881904Y-116041666D01*
X125386666Y-115736904D02*
X125386666Y-115927380D01*
X125577142Y-115851190D02*
X125386666Y-115927380D01*
X125196190Y-115851190D01*
X125500952Y-116079761D02*
X125386666Y-115927380D01*
X125272380Y-116079761D01*
X133805714Y-118336904D02*
X133310476Y-118336904D01*
X133577142Y-118641666D01*
X133462857Y-118641666D01*
X133386666Y-118679761D01*
X133348571Y-118717857D01*
X133310476Y-118794047D01*
X133310476Y-118984523D01*
X133348571Y-119060714D01*
X133386666Y-119098809D01*
X133462857Y-119136904D01*
X133691428Y-119136904D01*
X133767619Y-119098809D01*
X133805714Y-119060714D01*
X132967619Y-118832142D02*
X132358095Y-118832142D01*
X131634285Y-118603571D02*
X131634285Y-119136904D01*
X131824761Y-118298809D02*
X132015238Y-118870238D01*
X131520000Y-118870238D01*
X130605714Y-118717857D02*
X130339047Y-118717857D01*
X130224761Y-119136904D02*
X130605714Y-119136904D01*
X130605714Y-118336904D01*
X130224761Y-118336904D01*
X129881904Y-118603571D02*
X129881904Y-119136904D01*
X129881904Y-118679761D02*
X129843809Y-118641666D01*
X129767619Y-118603571D01*
X129653333Y-118603571D01*
X129577142Y-118641666D01*
X129539047Y-118717857D01*
X129539047Y-119136904D01*
X128815238Y-119136904D02*
X128815238Y-118717857D01*
X128853333Y-118641666D01*
X128929523Y-118603571D01*
X129081904Y-118603571D01*
X129158095Y-118641666D01*
X128815238Y-119098809D02*
X128891428Y-119136904D01*
X129081904Y-119136904D01*
X129158095Y-119098809D01*
X129196190Y-119022619D01*
X129196190Y-118946428D01*
X129158095Y-118870238D01*
X129081904Y-118832142D01*
X128891428Y-118832142D01*
X128815238Y-118794047D01*
X128434285Y-119136904D02*
X128434285Y-118336904D01*
X128434285Y-118641666D02*
X128358095Y-118603571D01*
X128205714Y-118603571D01*
X128129523Y-118641666D01*
X128091428Y-118679761D01*
X128053333Y-118755952D01*
X128053333Y-118984523D01*
X128091428Y-119060714D01*
X128129523Y-119098809D01*
X128205714Y-119136904D01*
X128358095Y-119136904D01*
X128434285Y-119098809D01*
X127596190Y-119136904D02*
X127672380Y-119098809D01*
X127710476Y-119022619D01*
X127710476Y-118336904D01*
X126986666Y-119098809D02*
X127062857Y-119136904D01*
X127215238Y-119136904D01*
X127291428Y-119098809D01*
X127329523Y-119022619D01*
X127329523Y-118717857D01*
X127291428Y-118641666D01*
X127215238Y-118603571D01*
X127062857Y-118603571D01*
X126986666Y-118641666D01*
X126948571Y-118717857D01*
X126948571Y-118794047D01*
X127329523Y-118870238D01*
X126262857Y-119136904D02*
X126262857Y-118336904D01*
X126262857Y-119098809D02*
X126339047Y-119136904D01*
X126491428Y-119136904D01*
X126567619Y-119098809D01*
X126605714Y-119060714D01*
X126643809Y-118984523D01*
X126643809Y-118755952D01*
X126605714Y-118679761D01*
X126567619Y-118641666D01*
X126491428Y-118603571D01*
X126339047Y-118603571D01*
X126262857Y-118641666D01*
X133348571Y-119636904D02*
X133729523Y-119636904D01*
X133767619Y-120017857D01*
X133729523Y-119979761D01*
X133653333Y-119941666D01*
X133462857Y-119941666D01*
X133386666Y-119979761D01*
X133348571Y-120017857D01*
X133310476Y-120094047D01*
X133310476Y-120284523D01*
X133348571Y-120360714D01*
X133386666Y-120398809D01*
X133462857Y-120436904D01*
X133653333Y-120436904D01*
X133729523Y-120398809D01*
X133767619Y-120360714D01*
X132967619Y-120132142D02*
X132358095Y-120132142D01*
X131634285Y-119636904D02*
X131786666Y-119636904D01*
X131862857Y-119675000D01*
X131900952Y-119713095D01*
X131977142Y-119827380D01*
X132015238Y-119979761D01*
X132015238Y-120284523D01*
X131977142Y-120360714D01*
X131939047Y-120398809D01*
X131862857Y-120436904D01*
X131710476Y-120436904D01*
X131634285Y-120398809D01*
X131596190Y-120360714D01*
X131558095Y-120284523D01*
X131558095Y-120094047D01*
X131596190Y-120017857D01*
X131634285Y-119979761D01*
X131710476Y-119941666D01*
X131862857Y-119941666D01*
X131939047Y-119979761D01*
X131977142Y-120017857D01*
X132015238Y-120094047D01*
D11*
X132080000Y-106045000D02*
X132080000Y-104775000D01*
X140970000Y-106045000D02*
X132080000Y-106045000D01*
X140970000Y-99695000D02*
X140970000Y-106045000D01*
X132080000Y-99695000D02*
X140970000Y-99695000D01*
X132080000Y-100965000D02*
X132080000Y-99695000D01*
X132080000Y-104140000D02*
X133350000Y-104140000D01*
X132080000Y-101600000D02*
X132080000Y-104140000D01*
X133350000Y-101600000D02*
X132080000Y-101600000D01*
X130175000Y-106045000D02*
X130175000Y-104775000D01*
X113665000Y-106045000D02*
X130175000Y-106045000D01*
X113665000Y-104775000D02*
X113665000Y-106045000D01*
X113665000Y-104140000D02*
X114935000Y-104140000D01*
X113665000Y-101600000D02*
X113665000Y-104140000D01*
X114935000Y-101600000D02*
X113665000Y-101600000D01*
X113665000Y-99695000D02*
X113665000Y-100965000D01*
X130175000Y-99695000D02*
X113665000Y-99695000D01*
X130175000Y-100965000D02*
X130175000Y-99695000D01*
X130175000Y-104140000D02*
X128905000Y-104140000D01*
X130175000Y-101600000D02*
X130175000Y-104140000D01*
X128905000Y-101600000D02*
X130175000Y-101600000D01*
X113665000Y-99060000D02*
X113665000Y-97790000D01*
X106045000Y-99060000D02*
X113665000Y-99060000D01*
X106045000Y-97790000D02*
X106045000Y-99060000D01*
X113665000Y-87630000D02*
X113665000Y-88900000D01*
X106045000Y-87630000D02*
X113665000Y-87630000D01*
X106045000Y-88900000D02*
X106045000Y-87630000D01*
D12*
X146050000Y-118110000D02*
X146050000Y-121920000D01*
D11*
X135890000Y-120015000D02*
X135890000Y-107315000D01*
X143510000Y-107315000D02*
X143510000Y-120015000D01*
D10*
X157555714Y-99828333D02*
X157174761Y-99828333D01*
X157631904Y-100056904D02*
X157365238Y-99256904D01*
X157098571Y-100056904D01*
X156831904Y-100056904D02*
X156831904Y-99523571D01*
X156831904Y-99675952D02*
X156793809Y-99599761D01*
X156755714Y-99561666D01*
X156679523Y-99523571D01*
X156603333Y-99523571D01*
X155993809Y-100056904D02*
X155993809Y-99256904D01*
X155993809Y-100018809D02*
X156070000Y-100056904D01*
X156222380Y-100056904D01*
X156298571Y-100018809D01*
X156336666Y-99980714D01*
X156374761Y-99904523D01*
X156374761Y-99675952D01*
X156336666Y-99599761D01*
X156298571Y-99561666D01*
X156222380Y-99523571D01*
X156070000Y-99523571D01*
X155993809Y-99561666D01*
X155270000Y-99523571D02*
X155270000Y-100056904D01*
X155612857Y-99523571D02*
X155612857Y-99942619D01*
X155574761Y-100018809D01*
X155498571Y-100056904D01*
X155384285Y-100056904D01*
X155308095Y-100018809D01*
X155270000Y-99980714D01*
X154889047Y-100056904D02*
X154889047Y-99523571D01*
X154889047Y-99256904D02*
X154927142Y-99295000D01*
X154889047Y-99333095D01*
X154850952Y-99295000D01*
X154889047Y-99256904D01*
X154889047Y-99333095D01*
X154508095Y-99523571D02*
X154508095Y-100056904D01*
X154508095Y-99599761D02*
X154470000Y-99561666D01*
X154393809Y-99523571D01*
X154279523Y-99523571D01*
X154203333Y-99561666D01*
X154165238Y-99637857D01*
X154165238Y-100056904D01*
X153670000Y-100056904D02*
X153746190Y-100018809D01*
X153784285Y-99980714D01*
X153822380Y-99904523D01*
X153822380Y-99675952D01*
X153784285Y-99599761D01*
X153746190Y-99561666D01*
X153670000Y-99523571D01*
X153555714Y-99523571D01*
X153479523Y-99561666D01*
X153441428Y-99599761D01*
X153403333Y-99675952D01*
X153403333Y-99904523D01*
X153441428Y-99980714D01*
X153479523Y-100018809D01*
X153555714Y-100056904D01*
X153670000Y-100056904D01*
X152450952Y-100056904D02*
X152450952Y-99256904D01*
X151993809Y-100056904D01*
X151993809Y-99256904D01*
X151270000Y-100056904D02*
X151270000Y-99637857D01*
X151308095Y-99561666D01*
X151384285Y-99523571D01*
X151536666Y-99523571D01*
X151612857Y-99561666D01*
X151270000Y-100018809D02*
X151346190Y-100056904D01*
X151536666Y-100056904D01*
X151612857Y-100018809D01*
X151650952Y-99942619D01*
X151650952Y-99866428D01*
X151612857Y-99790238D01*
X151536666Y-99752142D01*
X151346190Y-99752142D01*
X151270000Y-99714047D01*
X150889047Y-99523571D02*
X150889047Y-100056904D01*
X150889047Y-99599761D02*
X150850952Y-99561666D01*
X150774761Y-99523571D01*
X150660476Y-99523571D01*
X150584285Y-99561666D01*
X150546190Y-99637857D01*
X150546190Y-100056904D01*
X150050952Y-100056904D02*
X150127142Y-100018809D01*
X150165238Y-99980714D01*
X150203333Y-99904523D01*
X150203333Y-99675952D01*
X150165238Y-99599761D01*
X150127142Y-99561666D01*
X150050952Y-99523571D01*
X149936666Y-99523571D01*
X149860476Y-99561666D01*
X149822380Y-99599761D01*
X149784285Y-99675952D01*
X149784285Y-99904523D01*
X149822380Y-99980714D01*
X149860476Y-100018809D01*
X149936666Y-100056904D01*
X150050952Y-100056904D01*
X111207380Y-93706904D02*
X111588333Y-93706904D01*
X111588333Y-92906904D01*
X110940714Y-93706904D02*
X110940714Y-92906904D01*
X110674047Y-93478333D01*
X110407380Y-92906904D01*
X110407380Y-93706904D01*
X110102619Y-92906904D02*
X109607380Y-92906904D01*
X109874047Y-93211666D01*
X109759761Y-93211666D01*
X109683571Y-93249761D01*
X109645476Y-93287857D01*
X109607380Y-93364047D01*
X109607380Y-93554523D01*
X109645476Y-93630714D01*
X109683571Y-93668809D01*
X109759761Y-93706904D01*
X109988333Y-93706904D01*
X110064523Y-93668809D01*
X110102619Y-93630714D01*
X109150238Y-93249761D02*
X109226428Y-93211666D01*
X109264523Y-93173571D01*
X109302619Y-93097380D01*
X109302619Y-93059285D01*
X109264523Y-92983095D01*
X109226428Y-92945000D01*
X109150238Y-92906904D01*
X108997857Y-92906904D01*
X108921666Y-92945000D01*
X108883571Y-92983095D01*
X108845476Y-93059285D01*
X108845476Y-93097380D01*
X108883571Y-93173571D01*
X108921666Y-93211666D01*
X108997857Y-93249761D01*
X109150238Y-93249761D01*
X109226428Y-93287857D01*
X109264523Y-93325952D01*
X109302619Y-93402142D01*
X109302619Y-93554523D01*
X109264523Y-93630714D01*
X109226428Y-93668809D01*
X109150238Y-93706904D01*
X108997857Y-93706904D01*
X108921666Y-93668809D01*
X108883571Y-93630714D01*
X108845476Y-93554523D01*
X108845476Y-93402142D01*
X108883571Y-93325952D01*
X108921666Y-93287857D01*
X108997857Y-93249761D01*
X108159761Y-92906904D02*
X108312142Y-92906904D01*
X108388333Y-92945000D01*
X108426428Y-92983095D01*
X108502619Y-93097380D01*
X108540714Y-93249761D01*
X108540714Y-93554523D01*
X108502619Y-93630714D01*
X108464523Y-93668809D01*
X108388333Y-93706904D01*
X108235952Y-93706904D01*
X108159761Y-93668809D01*
X108121666Y-93630714D01*
X108083571Y-93554523D01*
X108083571Y-93364047D01*
X108121666Y-93287857D01*
X108159761Y-93249761D01*
X108235952Y-93211666D01*
X108388333Y-93211666D01*
X108464523Y-93249761D01*
X108502619Y-93287857D01*
X108540714Y-93364047D01*
X165677857Y-99822380D02*
X165677857Y-100089047D01*
X166096904Y-100203333D02*
X166096904Y-99822380D01*
X165296904Y-99822380D01*
X165296904Y-100203333D01*
X165296904Y-100470000D02*
X166096904Y-101003333D01*
X165296904Y-101003333D02*
X166096904Y-100470000D01*
X165296904Y-101193809D02*
X165296904Y-101650952D01*
X166096904Y-101422380D02*
X165296904Y-101422380D01*
X165677857Y-101917619D02*
X165677857Y-102184285D01*
X166096904Y-102298571D02*
X166096904Y-101917619D01*
X165296904Y-101917619D01*
X165296904Y-102298571D01*
X166096904Y-102641428D02*
X165296904Y-102641428D01*
X166096904Y-103098571D01*
X165296904Y-103098571D01*
X166058809Y-103441428D02*
X166096904Y-103555714D01*
X166096904Y-103746190D01*
X166058809Y-103822380D01*
X166020714Y-103860476D01*
X165944523Y-103898571D01*
X165868333Y-103898571D01*
X165792142Y-103860476D01*
X165754047Y-103822380D01*
X165715952Y-103746190D01*
X165677857Y-103593809D01*
X165639761Y-103517619D01*
X165601666Y-103479523D01*
X165525476Y-103441428D01*
X165449285Y-103441428D01*
X165373095Y-103479523D01*
X165335000Y-103517619D01*
X165296904Y-103593809D01*
X165296904Y-103784285D01*
X165335000Y-103898571D01*
X166096904Y-104241428D02*
X165296904Y-104241428D01*
X165296904Y-104774761D02*
X165296904Y-104927142D01*
X165335000Y-105003333D01*
X165411190Y-105079523D01*
X165563571Y-105117619D01*
X165830238Y-105117619D01*
X165982619Y-105079523D01*
X166058809Y-105003333D01*
X166096904Y-104927142D01*
X166096904Y-104774761D01*
X166058809Y-104698571D01*
X165982619Y-104622380D01*
X165830238Y-104584285D01*
X165563571Y-104584285D01*
X165411190Y-104622380D01*
X165335000Y-104698571D01*
X165296904Y-104774761D01*
X166096904Y-105460476D02*
X165296904Y-105460476D01*
X166096904Y-105917619D01*
X165296904Y-105917619D01*
X112915476Y-82492857D02*
X112801190Y-82530952D01*
X112763095Y-82569047D01*
X112725000Y-82645238D01*
X112725000Y-82759523D01*
X112763095Y-82835714D01*
X112801190Y-82873809D01*
X112877380Y-82911904D01*
X113182142Y-82911904D01*
X113182142Y-82111904D01*
X112915476Y-82111904D01*
X112839285Y-82150000D01*
X112801190Y-82188095D01*
X112763095Y-82264285D01*
X112763095Y-82340476D01*
X112801190Y-82416666D01*
X112839285Y-82454761D01*
X112915476Y-82492857D01*
X113182142Y-82492857D01*
X112229761Y-82530952D02*
X112229761Y-82911904D01*
X112496428Y-82111904D02*
X112229761Y-82530952D01*
X111963095Y-82111904D01*
X111696428Y-82911904D02*
X111696428Y-82111904D01*
X111391666Y-82111904D01*
X111315476Y-82150000D01*
X111277380Y-82188095D01*
X111239285Y-82264285D01*
X111239285Y-82378571D01*
X111277380Y-82454761D01*
X111315476Y-82492857D01*
X111391666Y-82530952D01*
X111696428Y-82530952D01*
X110934523Y-82683333D02*
X110553571Y-82683333D01*
X111010714Y-82911904D02*
X110744047Y-82111904D01*
X110477380Y-82911904D01*
X110248809Y-82873809D02*
X110134523Y-82911904D01*
X109944047Y-82911904D01*
X109867857Y-82873809D01*
X109829761Y-82835714D01*
X109791666Y-82759523D01*
X109791666Y-82683333D01*
X109829761Y-82607142D01*
X109867857Y-82569047D01*
X109944047Y-82530952D01*
X110096428Y-82492857D01*
X110172619Y-82454761D01*
X110210714Y-82416666D01*
X110248809Y-82340476D01*
X110248809Y-82264285D01*
X110210714Y-82188095D01*
X110172619Y-82150000D01*
X110096428Y-82111904D01*
X109905952Y-82111904D01*
X109791666Y-82150000D01*
X109486904Y-82873809D02*
X109372619Y-82911904D01*
X109182142Y-82911904D01*
X109105952Y-82873809D01*
X109067857Y-82835714D01*
X109029761Y-82759523D01*
X109029761Y-82683333D01*
X109067857Y-82607142D01*
X109105952Y-82569047D01*
X109182142Y-82530952D01*
X109334523Y-82492857D01*
X109410714Y-82454761D01*
X109448809Y-82416666D01*
X109486904Y-82340476D01*
X109486904Y-82264285D01*
X109448809Y-82188095D01*
X109410714Y-82150000D01*
X109334523Y-82111904D01*
X109144047Y-82111904D01*
X109029761Y-82150000D01*
X102977857Y-82150000D02*
X103054047Y-82111904D01*
X103168333Y-82111904D01*
X103282619Y-82150000D01*
X103358809Y-82226190D01*
X103396904Y-82302380D01*
X103435000Y-82454761D01*
X103435000Y-82569047D01*
X103396904Y-82721428D01*
X103358809Y-82797619D01*
X103282619Y-82873809D01*
X103168333Y-82911904D01*
X103092142Y-82911904D01*
X102977857Y-82873809D01*
X102939761Y-82835714D01*
X102939761Y-82569047D01*
X103092142Y-82569047D01*
X102635000Y-82683333D02*
X102254047Y-82683333D01*
X102711190Y-82911904D02*
X102444523Y-82111904D01*
X102177857Y-82911904D01*
X101911190Y-82911904D02*
X101911190Y-82111904D01*
X101530238Y-82911904D02*
X101530238Y-82111904D01*
X101073095Y-82911904D01*
X101073095Y-82111904D01*
X95701761Y-125896714D02*
X95701761Y-126706238D01*
X95749380Y-126801476D01*
X95797000Y-126849095D01*
X95892238Y-126896714D01*
X96035095Y-126896714D01*
X96130333Y-126849095D01*
X95701761Y-126515761D02*
X95797000Y-126563380D01*
X95987476Y-126563380D01*
X96082714Y-126515761D01*
X96130333Y-126468142D01*
X96177952Y-126372904D01*
X96177952Y-126087190D01*
X96130333Y-125991952D01*
X96082714Y-125944333D01*
X95987476Y-125896714D01*
X95797000Y-125896714D01*
X95701761Y-125944333D01*
X95225571Y-126563380D02*
X95225571Y-125896714D01*
X95225571Y-125563380D02*
X95273190Y-125611000D01*
X95225571Y-125658619D01*
X95177952Y-125611000D01*
X95225571Y-125563380D01*
X95225571Y-125658619D01*
X94892238Y-125896714D02*
X94511285Y-125896714D01*
X94749380Y-125563380D02*
X94749380Y-126420523D01*
X94701761Y-126515761D01*
X94606523Y-126563380D01*
X94511285Y-126563380D01*
X94177952Y-126563380D02*
X94177952Y-125563380D01*
X93749380Y-126563380D02*
X93749380Y-126039571D01*
X93797000Y-125944333D01*
X93892238Y-125896714D01*
X94035095Y-125896714D01*
X94130333Y-125944333D01*
X94177952Y-125991952D01*
X92844619Y-125896714D02*
X92844619Y-126563380D01*
X93273190Y-125896714D02*
X93273190Y-126420523D01*
X93225571Y-126515761D01*
X93130333Y-126563380D01*
X92987476Y-126563380D01*
X92892238Y-126515761D01*
X92844619Y-126468142D01*
X92368428Y-126563380D02*
X92368428Y-125563380D01*
X92368428Y-125944333D02*
X92273190Y-125896714D01*
X92082714Y-125896714D01*
X91987476Y-125944333D01*
X91939857Y-125991952D01*
X91892238Y-126087190D01*
X91892238Y-126372904D01*
X91939857Y-126468142D01*
X91987476Y-126515761D01*
X92082714Y-126563380D01*
X92273190Y-126563380D01*
X92368428Y-126515761D01*
X91463666Y-126468142D02*
X91416047Y-126515761D01*
X91463666Y-126563380D01*
X91511285Y-126515761D01*
X91463666Y-126468142D01*
X91463666Y-126563380D01*
X90558904Y-126515761D02*
X90654142Y-126563380D01*
X90844619Y-126563380D01*
X90939857Y-126515761D01*
X90987476Y-126468142D01*
X91035095Y-126372904D01*
X91035095Y-126087190D01*
X90987476Y-125991952D01*
X90939857Y-125944333D01*
X90844619Y-125896714D01*
X90654142Y-125896714D01*
X90558904Y-125944333D01*
X89987476Y-126563380D02*
X90082714Y-126515761D01*
X90130333Y-126468142D01*
X90177952Y-126372904D01*
X90177952Y-126087190D01*
X90130333Y-125991952D01*
X90082714Y-125944333D01*
X89987476Y-125896714D01*
X89844619Y-125896714D01*
X89749380Y-125944333D01*
X89701761Y-125991952D01*
X89654142Y-126087190D01*
X89654142Y-126372904D01*
X89701761Y-126468142D01*
X89749380Y-126515761D01*
X89844619Y-126563380D01*
X89987476Y-126563380D01*
X89225571Y-126563380D02*
X89225571Y-125896714D01*
X89225571Y-125991952D02*
X89177952Y-125944333D01*
X89082714Y-125896714D01*
X88939857Y-125896714D01*
X88844619Y-125944333D01*
X88797000Y-126039571D01*
X88797000Y-126563380D01*
X88797000Y-126039571D02*
X88749380Y-125944333D01*
X88654142Y-125896714D01*
X88511285Y-125896714D01*
X88416047Y-125944333D01*
X88368428Y-126039571D01*
X88368428Y-126563380D01*
X87177952Y-125515761D02*
X88035095Y-126801476D01*
X86987476Y-125896714D02*
X86606523Y-125896714D01*
X86844619Y-125563380D02*
X86844619Y-126420523D01*
X86797000Y-126515761D01*
X86701761Y-126563380D01*
X86606523Y-126563380D01*
X85892238Y-126515761D02*
X85987476Y-126563380D01*
X86177952Y-126563380D01*
X86273190Y-126515761D01*
X86320809Y-126420523D01*
X86320809Y-126039571D01*
X86273190Y-125944333D01*
X86177952Y-125896714D01*
X85987476Y-125896714D01*
X85892238Y-125944333D01*
X85844619Y-126039571D01*
X85844619Y-126134809D01*
X86320809Y-126230047D01*
X85416047Y-126563380D02*
X85416047Y-125563380D01*
X85416047Y-125944333D02*
X85320809Y-125896714D01*
X85130333Y-125896714D01*
X85035095Y-125944333D01*
X84987476Y-125991952D01*
X84939857Y-126087190D01*
X84939857Y-126372904D01*
X84987476Y-126468142D01*
X85035095Y-126515761D01*
X85130333Y-126563380D01*
X85320809Y-126563380D01*
X85416047Y-126515761D01*
X84368428Y-126563380D02*
X84463666Y-126515761D01*
X84511285Y-126420523D01*
X84511285Y-125563380D01*
X164811904Y-113704523D02*
X164811904Y-113247380D01*
X164811904Y-113475952D02*
X164011904Y-113475952D01*
X164126190Y-113399761D01*
X164202380Y-113323571D01*
X164240476Y-113247380D01*
X164507142Y-114047380D02*
X164507142Y-114656904D01*
X164088095Y-114999761D02*
X164050000Y-115037857D01*
X164011904Y-115114047D01*
X164011904Y-115304523D01*
X164050000Y-115380714D01*
X164088095Y-115418809D01*
X164164285Y-115456904D01*
X164240476Y-115456904D01*
X164354761Y-115418809D01*
X164811904Y-114961666D01*
X164811904Y-115456904D01*
X164011904Y-116333095D02*
X164011904Y-116828333D01*
X164316666Y-116561666D01*
X164316666Y-116675952D01*
X164354761Y-116752142D01*
X164392857Y-116790238D01*
X164469047Y-116828333D01*
X164659523Y-116828333D01*
X164735714Y-116790238D01*
X164773809Y-116752142D01*
X164811904Y-116675952D01*
X164811904Y-116447380D01*
X164773809Y-116371190D01*
X164735714Y-116333095D01*
X164735714Y-117171190D02*
X164773809Y-117209285D01*
X164811904Y-117171190D01*
X164773809Y-117133095D01*
X164735714Y-117171190D01*
X164811904Y-117171190D01*
X164011904Y-117475952D02*
X164011904Y-117971190D01*
X164316666Y-117704523D01*
X164316666Y-117818809D01*
X164354761Y-117895000D01*
X164392857Y-117933095D01*
X164469047Y-117971190D01*
X164659523Y-117971190D01*
X164735714Y-117933095D01*
X164773809Y-117895000D01*
X164811904Y-117818809D01*
X164811904Y-117590238D01*
X164773809Y-117514047D01*
X164735714Y-117475952D01*
X164278571Y-118237857D02*
X164811904Y-118428333D01*
X164278571Y-118618809D01*
X165388095Y-113247380D02*
X165350000Y-113285476D01*
X165311904Y-113361666D01*
X165311904Y-113552142D01*
X165350000Y-113628333D01*
X165388095Y-113666428D01*
X165464285Y-113704523D01*
X165540476Y-113704523D01*
X165654761Y-113666428D01*
X166111904Y-113209285D01*
X166111904Y-113704523D01*
X165807142Y-114047380D02*
X165807142Y-114656904D01*
X165311904Y-114961666D02*
X165311904Y-115456904D01*
X165616666Y-115190238D01*
X165616666Y-115304523D01*
X165654761Y-115380714D01*
X165692857Y-115418809D01*
X165769047Y-115456904D01*
X165959523Y-115456904D01*
X166035714Y-115418809D01*
X166073809Y-115380714D01*
X166111904Y-115304523D01*
X166111904Y-115075952D01*
X166073809Y-114999761D01*
X166035714Y-114961666D01*
X165311904Y-116790238D02*
X165311904Y-116409285D01*
X165692857Y-116371190D01*
X165654761Y-116409285D01*
X165616666Y-116485476D01*
X165616666Y-116675952D01*
X165654761Y-116752142D01*
X165692857Y-116790238D01*
X165769047Y-116828333D01*
X165959523Y-116828333D01*
X166035714Y-116790238D01*
X166073809Y-116752142D01*
X166111904Y-116675952D01*
X166111904Y-116485476D01*
X166073809Y-116409285D01*
X166035714Y-116371190D01*
X165578571Y-117095000D02*
X166111904Y-117285476D01*
X165578571Y-117475952D01*
X140480952Y-111426904D02*
X140480952Y-110626904D01*
X140138095Y-110703095D02*
X140100000Y-110665000D01*
X140023809Y-110626904D01*
X139833333Y-110626904D01*
X139757142Y-110665000D01*
X139719047Y-110703095D01*
X139680952Y-110779285D01*
X139680952Y-110855476D01*
X139719047Y-110969761D01*
X140176190Y-111426904D01*
X139680952Y-111426904D01*
X138880952Y-111350714D02*
X138919047Y-111388809D01*
X139033333Y-111426904D01*
X139109523Y-111426904D01*
X139223809Y-111388809D01*
X139300000Y-111312619D01*
X139338095Y-111236428D01*
X139376190Y-111084047D01*
X139376190Y-110969761D01*
X139338095Y-110817380D01*
X139300000Y-110741190D01*
X139223809Y-110665000D01*
X139109523Y-110626904D01*
X139033333Y-110626904D01*
X138919047Y-110665000D01*
X138880952Y-110703095D01*
X142290476Y-112726904D02*
X142290476Y-111926904D01*
X141985714Y-111926904D01*
X141909523Y-111965000D01*
X141871428Y-112003095D01*
X141833333Y-112079285D01*
X141833333Y-112193571D01*
X141871428Y-112269761D01*
X141909523Y-112307857D01*
X141985714Y-112345952D01*
X142290476Y-112345952D01*
X141490476Y-111926904D02*
X141490476Y-112574523D01*
X141452380Y-112650714D01*
X141414285Y-112688809D01*
X141338095Y-112726904D01*
X141185714Y-112726904D01*
X141109523Y-112688809D01*
X141071428Y-112650714D01*
X141033333Y-112574523D01*
X141033333Y-111926904D01*
X140271428Y-112726904D02*
X140652380Y-112726904D01*
X140652380Y-111926904D01*
X139623809Y-112726904D02*
X140004761Y-112726904D01*
X140004761Y-111926904D01*
X139357142Y-112422142D02*
X138747619Y-112422142D01*
X138366666Y-111926904D02*
X138366666Y-112574523D01*
X138328571Y-112650714D01*
X138290476Y-112688809D01*
X138214285Y-112726904D01*
X138061904Y-112726904D01*
X137985714Y-112688809D01*
X137947619Y-112650714D01*
X137909523Y-112574523D01*
X137909523Y-111926904D01*
X137528571Y-112726904D02*
X137528571Y-111926904D01*
X137223809Y-111926904D01*
X137147619Y-111965000D01*
X137109523Y-112003095D01*
X137071428Y-112079285D01*
X137071428Y-112193571D01*
X137109523Y-112269761D01*
X137147619Y-112307857D01*
X137223809Y-112345952D01*
X137528571Y-112345952D01*
X142671428Y-115631666D02*
X142709523Y-115593571D01*
X142785714Y-115479285D01*
X142823809Y-115403095D01*
X142861904Y-115288809D01*
X142900000Y-115098333D01*
X142900000Y-114945952D01*
X142861904Y-114755476D01*
X142823809Y-114641190D01*
X142785714Y-114565000D01*
X142709523Y-114450714D01*
X142671428Y-114412619D01*
X142366666Y-115326904D02*
X142366666Y-114526904D01*
X141985714Y-115326904D02*
X141985714Y-114526904D01*
X141528571Y-115326904D01*
X141528571Y-114526904D01*
X141185714Y-115288809D02*
X141071428Y-115326904D01*
X140880952Y-115326904D01*
X140804761Y-115288809D01*
X140766666Y-115250714D01*
X140728571Y-115174523D01*
X140728571Y-115098333D01*
X140766666Y-115022142D01*
X140804761Y-114984047D01*
X140880952Y-114945952D01*
X141033333Y-114907857D01*
X141109523Y-114869761D01*
X141147619Y-114831666D01*
X141185714Y-114755476D01*
X141185714Y-114679285D01*
X141147619Y-114603095D01*
X141109523Y-114565000D01*
X141033333Y-114526904D01*
X140842857Y-114526904D01*
X140728571Y-114565000D01*
X140500000Y-114526904D02*
X140042857Y-114526904D01*
X140271428Y-115326904D02*
X140271428Y-114526904D01*
X139814285Y-115098333D02*
X139433333Y-115098333D01*
X139890476Y-115326904D02*
X139623809Y-114526904D01*
X139357142Y-115326904D01*
X138709523Y-115326904D02*
X139090476Y-115326904D01*
X139090476Y-114526904D01*
X138061904Y-115326904D02*
X138442857Y-115326904D01*
X138442857Y-114526904D01*
X137185714Y-115326904D02*
X137185714Y-114526904D01*
X136538095Y-114907857D02*
X136804761Y-114907857D01*
X136804761Y-115326904D02*
X136804761Y-114526904D01*
X136423809Y-114526904D01*
X142080952Y-116626904D02*
X142080952Y-115826904D01*
X141623809Y-116626904D01*
X141623809Y-115826904D01*
X141242857Y-116207857D02*
X140976190Y-116207857D01*
X140861904Y-116626904D02*
X141242857Y-116626904D01*
X141242857Y-115826904D01*
X140861904Y-115826904D01*
X140519047Y-116207857D02*
X140252380Y-116207857D01*
X140138095Y-116626904D02*
X140519047Y-116626904D01*
X140519047Y-115826904D01*
X140138095Y-115826904D01*
X139795238Y-116626904D02*
X139795238Y-115826904D01*
X139604761Y-115826904D01*
X139490476Y-115865000D01*
X139414285Y-115941190D01*
X139376190Y-116017380D01*
X139338095Y-116169761D01*
X139338095Y-116284047D01*
X139376190Y-116436428D01*
X139414285Y-116512619D01*
X139490476Y-116588809D01*
X139604761Y-116626904D01*
X139795238Y-116626904D01*
X138995238Y-116207857D02*
X138728571Y-116207857D01*
X138614285Y-116626904D02*
X138995238Y-116626904D01*
X138995238Y-115826904D01*
X138614285Y-115826904D01*
X138271428Y-116626904D02*
X138271428Y-115826904D01*
X138080952Y-115826904D01*
X137966666Y-115865000D01*
X137890476Y-115941190D01*
X137852380Y-116017380D01*
X137814285Y-116169761D01*
X137814285Y-116284047D01*
X137852380Y-116436428D01*
X137890476Y-116512619D01*
X137966666Y-116588809D01*
X138080952Y-116626904D01*
X138271428Y-116626904D01*
X137547619Y-116931666D02*
X137509523Y-116893571D01*
X137433333Y-116779285D01*
X137395238Y-116703095D01*
X137357142Y-116588809D01*
X137319047Y-116398333D01*
X137319047Y-116245952D01*
X137357142Y-116055476D01*
X137395238Y-115941190D01*
X137433333Y-115865000D01*
X137509523Y-115750714D01*
X137547619Y-115712619D01*
D12*
X161290000Y-121920000D02*
X161290000Y-118110000D01*
X146050000Y-121920000D02*
X161290000Y-121920000D01*
X161290000Y-78740000D02*
X161290000Y-81280000D01*
X146050000Y-78740000D02*
X161290000Y-78740000D01*
X146050000Y-81280000D02*
X146050000Y-78740000D01*
X166370000Y-93345000D02*
X170180000Y-93345000D01*
X166370000Y-111760000D02*
X166370000Y-93345000D01*
X166370000Y-120015000D02*
X170180000Y-120015000D01*
X166370000Y-116205000D02*
X166370000Y-120015000D01*
X166370000Y-115570000D02*
X167640000Y-115570000D01*
X166370000Y-113030000D02*
X166370000Y-115570000D01*
X166370000Y-113030000D02*
X167640000Y-113030000D01*
X166370000Y-111760000D02*
X166370000Y-112395000D01*
X170180000Y-111760000D02*
X166370000Y-111760000D01*
D11*
X86741000Y-122555000D02*
X82169000Y-122555000D01*
X95885000Y-125095000D02*
X92837000Y-120015000D01*
X82169000Y-122555000D02*
X80645000Y-120015000D01*
X95885000Y-125095000D02*
X90297000Y-125095000D01*
X80645000Y-120015000D02*
X92837000Y-120015000D01*
X90154973Y-122983761D02*
X89928782Y-124983761D01*
X89369258Y-123555190D01*
X89166877Y-124983761D01*
X88440687Y-122983761D01*
X87952592Y-124412333D02*
X87000211Y-124412333D01*
X88214497Y-124983761D02*
X87297830Y-122983761D01*
X86881163Y-124983761D01*
X86250211Y-122983761D02*
X85833544Y-124983761D01*
X84916877Y-122983761D01*
X84369258Y-123936142D02*
X83702592Y-123936142D01*
X83547830Y-124983761D02*
X84500211Y-124983761D01*
X84250211Y-122983761D01*
X83297830Y-122983761D01*
X92262497Y-121300904D02*
X92441068Y-121205666D01*
X92524401Y-121110428D01*
X92595830Y-120919952D01*
X92583925Y-120824714D01*
X92464877Y-120634238D01*
X92357735Y-120539000D01*
X92155354Y-120443761D01*
X91774401Y-120443761D01*
X91595830Y-120539000D01*
X91512497Y-120634238D01*
X91441068Y-120824714D01*
X91452973Y-120919952D01*
X91572020Y-121110428D01*
X91679163Y-121205666D01*
X91881544Y-121300904D01*
X92262497Y-121300904D01*
X92464877Y-121396142D01*
X92572020Y-121491380D01*
X92691068Y-121681857D01*
X92738687Y-122062809D01*
X92667258Y-122253285D01*
X92583925Y-122348523D01*
X92405354Y-122443761D01*
X92024401Y-122443761D01*
X91822020Y-122348523D01*
X91714877Y-122253285D01*
X91595830Y-122062809D01*
X91548211Y-121681857D01*
X91619639Y-121491380D01*
X91702973Y-121396142D01*
X91881544Y-121300904D01*
X89988687Y-121396142D02*
X89714877Y-121491380D01*
X89631544Y-121586619D01*
X89560116Y-121777095D01*
X89595830Y-122062809D01*
X89714877Y-122253285D01*
X89822020Y-122348523D01*
X90024401Y-122443761D01*
X90786306Y-122443761D01*
X90536306Y-120443761D01*
X89869639Y-120443761D01*
X89691068Y-120539000D01*
X89607735Y-120634238D01*
X89536306Y-120824714D01*
X89560116Y-121015190D01*
X89679163Y-121205666D01*
X89786306Y-121300904D01*
X89988687Y-121396142D01*
X90655354Y-121396142D01*
X88786306Y-122443761D02*
X88536306Y-120443761D01*
X87869639Y-120443761D02*
X86726782Y-120443761D01*
X87548211Y-122443761D02*
X87298211Y-120443761D01*
M02*
