G04 #@! TF.GenerationSoftware,KiCad,Pcbnew,(5.1.5)-3*
G04 #@! TF.CreationDate,2020-06-04T00:05:55+02:00*
G04 #@! TF.ProjectId,8bitWave Module,38626974-5761-4766-9520-4d6f64756c65,rev?*
G04 #@! TF.SameCoordinates,Original*
G04 #@! TF.FileFunction,Legend,Top*
G04 #@! TF.FilePolarity,Positive*
%FSLAX46Y46*%
G04 Gerber Fmt 4.6, Leading zero omitted, Abs format (unit mm)*
G04 Created by KiCad (PCBNEW (5.1.5)-3) date 2020-06-04 00:05:55*
%MOMM*%
%LPD*%
G04 APERTURE LIST*
%ADD10C,0.100000*%
%ADD11C,0.150000*%
%ADD12C,0.120000*%
%ADD13C,0.010000*%
%ADD14C,0.110000*%
G04 APERTURE END LIST*
D10*
X77145238Y-99099714D02*
X77145238Y-99909238D01*
X77097619Y-100004476D01*
X77050000Y-100052095D01*
X76954761Y-100099714D01*
X76811904Y-100099714D01*
X76716666Y-100052095D01*
X77145238Y-99718761D02*
X77050000Y-99766380D01*
X76859523Y-99766380D01*
X76764285Y-99718761D01*
X76716666Y-99671142D01*
X76669047Y-99575904D01*
X76669047Y-99290190D01*
X76716666Y-99194952D01*
X76764285Y-99147333D01*
X76859523Y-99099714D01*
X77050000Y-99099714D01*
X77145238Y-99147333D01*
X77621428Y-99766380D02*
X77621428Y-99099714D01*
X77621428Y-98766380D02*
X77573809Y-98814000D01*
X77621428Y-98861619D01*
X77669047Y-98814000D01*
X77621428Y-98766380D01*
X77621428Y-98861619D01*
X77954761Y-99099714D02*
X78335714Y-99099714D01*
X78097619Y-98766380D02*
X78097619Y-99623523D01*
X78145238Y-99718761D01*
X78240476Y-99766380D01*
X78335714Y-99766380D01*
X78669047Y-99766380D02*
X78669047Y-98766380D01*
X79097619Y-99766380D02*
X79097619Y-99242571D01*
X79050000Y-99147333D01*
X78954761Y-99099714D01*
X78811904Y-99099714D01*
X78716666Y-99147333D01*
X78669047Y-99194952D01*
X80002380Y-99099714D02*
X80002380Y-99766380D01*
X79573809Y-99099714D02*
X79573809Y-99623523D01*
X79621428Y-99718761D01*
X79716666Y-99766380D01*
X79859523Y-99766380D01*
X79954761Y-99718761D01*
X80002380Y-99671142D01*
X80478571Y-99766380D02*
X80478571Y-98766380D01*
X80478571Y-99147333D02*
X80573809Y-99099714D01*
X80764285Y-99099714D01*
X80859523Y-99147333D01*
X80907142Y-99194952D01*
X80954761Y-99290190D01*
X80954761Y-99575904D01*
X80907142Y-99671142D01*
X80859523Y-99718761D01*
X80764285Y-99766380D01*
X80573809Y-99766380D01*
X80478571Y-99718761D01*
X81383333Y-99671142D02*
X81430952Y-99718761D01*
X81383333Y-99766380D01*
X81335714Y-99718761D01*
X81383333Y-99671142D01*
X81383333Y-99766380D01*
X82288095Y-99718761D02*
X82192857Y-99766380D01*
X82002380Y-99766380D01*
X81907142Y-99718761D01*
X81859523Y-99671142D01*
X81811904Y-99575904D01*
X81811904Y-99290190D01*
X81859523Y-99194952D01*
X81907142Y-99147333D01*
X82002380Y-99099714D01*
X82192857Y-99099714D01*
X82288095Y-99147333D01*
X82859523Y-99766380D02*
X82764285Y-99718761D01*
X82716666Y-99671142D01*
X82669047Y-99575904D01*
X82669047Y-99290190D01*
X82716666Y-99194952D01*
X82764285Y-99147333D01*
X82859523Y-99099714D01*
X83002380Y-99099714D01*
X83097619Y-99147333D01*
X83145238Y-99194952D01*
X83192857Y-99290190D01*
X83192857Y-99575904D01*
X83145238Y-99671142D01*
X83097619Y-99718761D01*
X83002380Y-99766380D01*
X82859523Y-99766380D01*
X83621428Y-99766380D02*
X83621428Y-99099714D01*
X83621428Y-99194952D02*
X83669047Y-99147333D01*
X83764285Y-99099714D01*
X83907142Y-99099714D01*
X84002380Y-99147333D01*
X84050000Y-99242571D01*
X84050000Y-99766380D01*
X84050000Y-99242571D02*
X84097619Y-99147333D01*
X84192857Y-99099714D01*
X84335714Y-99099714D01*
X84430952Y-99147333D01*
X84478571Y-99242571D01*
X84478571Y-99766380D01*
X85669047Y-98718761D02*
X84811904Y-100004476D01*
X85859523Y-99099714D02*
X86240476Y-99099714D01*
X86002380Y-98766380D02*
X86002380Y-99623523D01*
X86050000Y-99718761D01*
X86145238Y-99766380D01*
X86240476Y-99766380D01*
X86954761Y-99718761D02*
X86859523Y-99766380D01*
X86669047Y-99766380D01*
X86573809Y-99718761D01*
X86526190Y-99623523D01*
X86526190Y-99242571D01*
X86573809Y-99147333D01*
X86669047Y-99099714D01*
X86859523Y-99099714D01*
X86954761Y-99147333D01*
X87002380Y-99242571D01*
X87002380Y-99337809D01*
X86526190Y-99433047D01*
X87430952Y-99766380D02*
X87430952Y-98766380D01*
X87430952Y-99147333D02*
X87526190Y-99099714D01*
X87716666Y-99099714D01*
X87811904Y-99147333D01*
X87859523Y-99194952D01*
X87907142Y-99290190D01*
X87907142Y-99575904D01*
X87859523Y-99671142D01*
X87811904Y-99718761D01*
X87716666Y-99766380D01*
X87526190Y-99766380D01*
X87430952Y-99718761D01*
X88478571Y-99766380D02*
X88383333Y-99718761D01*
X88335714Y-99623523D01*
X88335714Y-98766380D01*
X94824523Y-106280000D02*
X94748333Y-106241904D01*
X94634047Y-106241904D01*
X94519761Y-106280000D01*
X94443571Y-106356190D01*
X94405476Y-106432380D01*
X94367380Y-106584761D01*
X94367380Y-106699047D01*
X94405476Y-106851428D01*
X94443571Y-106927619D01*
X94519761Y-107003809D01*
X94634047Y-107041904D01*
X94710238Y-107041904D01*
X94824523Y-107003809D01*
X94862619Y-106965714D01*
X94862619Y-106699047D01*
X94710238Y-106699047D01*
X94862619Y-109581904D02*
X94595952Y-109200952D01*
X94405476Y-109581904D02*
X94405476Y-108781904D01*
X94710238Y-108781904D01*
X94786428Y-108820000D01*
X94824523Y-108858095D01*
X94862619Y-108934285D01*
X94862619Y-109048571D01*
X94824523Y-109124761D01*
X94786428Y-109162857D01*
X94710238Y-109200952D01*
X94405476Y-109200952D01*
X94862619Y-104501904D02*
X94481666Y-104501904D01*
X94481666Y-103701904D01*
D11*
X98425000Y-82550000D02*
X95885000Y-82550000D01*
X98425000Y-110490000D02*
X98425000Y-82550000D01*
X95885000Y-110490000D02*
X98425000Y-110490000D01*
X95885000Y-82550000D02*
X95885000Y-110490000D01*
D10*
X94005476Y-96120000D02*
X93929285Y-96081904D01*
X93815000Y-96081904D01*
X93700714Y-96120000D01*
X93624523Y-96196190D01*
X93586428Y-96272380D01*
X93548333Y-96424761D01*
X93548333Y-96539047D01*
X93586428Y-96691428D01*
X93624523Y-96767619D01*
X93700714Y-96843809D01*
X93815000Y-96881904D01*
X93891190Y-96881904D01*
X94005476Y-96843809D01*
X94043571Y-96805714D01*
X94043571Y-96539047D01*
X93891190Y-96539047D01*
X94386428Y-96881904D02*
X94386428Y-96081904D01*
X94843571Y-96881904D01*
X94843571Y-96081904D01*
X95224523Y-96881904D02*
X95224523Y-96081904D01*
X95415000Y-96081904D01*
X95529285Y-96120000D01*
X95605476Y-96196190D01*
X95643571Y-96272380D01*
X95681666Y-96424761D01*
X95681666Y-96539047D01*
X95643571Y-96691428D01*
X95605476Y-96767619D01*
X95529285Y-96843809D01*
X95415000Y-96881904D01*
X95224523Y-96881904D01*
X93548333Y-98621904D02*
X93815000Y-99421904D01*
X94081666Y-98621904D01*
X94805476Y-99345714D02*
X94767380Y-99383809D01*
X94653095Y-99421904D01*
X94576904Y-99421904D01*
X94462619Y-99383809D01*
X94386428Y-99307619D01*
X94348333Y-99231428D01*
X94310238Y-99079047D01*
X94310238Y-98964761D01*
X94348333Y-98812380D01*
X94386428Y-98736190D01*
X94462619Y-98660000D01*
X94576904Y-98621904D01*
X94653095Y-98621904D01*
X94767380Y-98660000D01*
X94805476Y-98698095D01*
X95605476Y-99345714D02*
X95567380Y-99383809D01*
X95453095Y-99421904D01*
X95376904Y-99421904D01*
X95262619Y-99383809D01*
X95186428Y-99307619D01*
X95148333Y-99231428D01*
X95110238Y-99079047D01*
X95110238Y-98964761D01*
X95148333Y-98812380D01*
X95186428Y-98736190D01*
X95262619Y-98660000D01*
X95376904Y-98621904D01*
X95453095Y-98621904D01*
X95567380Y-98660000D01*
X95605476Y-98698095D01*
X123488571Y-110178809D02*
X123602857Y-110216904D01*
X123793333Y-110216904D01*
X123869523Y-110178809D01*
X123907619Y-110140714D01*
X123945714Y-110064523D01*
X123945714Y-109988333D01*
X123907619Y-109912142D01*
X123869523Y-109874047D01*
X123793333Y-109835952D01*
X123640952Y-109797857D01*
X123564761Y-109759761D01*
X123526666Y-109721666D01*
X123488571Y-109645476D01*
X123488571Y-109569285D01*
X123526666Y-109493095D01*
X123564761Y-109455000D01*
X123640952Y-109416904D01*
X123831428Y-109416904D01*
X123945714Y-109455000D01*
X124288571Y-110216904D02*
X124288571Y-109416904D01*
X124479047Y-109416904D01*
X124593333Y-109455000D01*
X124669523Y-109531190D01*
X124707619Y-109607380D01*
X124745714Y-109759761D01*
X124745714Y-109874047D01*
X124707619Y-110026428D01*
X124669523Y-110102619D01*
X124593333Y-110178809D01*
X124479047Y-110216904D01*
X124288571Y-110216904D01*
X125050476Y-109988333D02*
X125431428Y-109988333D01*
X124974285Y-110216904D02*
X125240952Y-109416904D01*
X125507619Y-110216904D01*
X120967619Y-110178809D02*
X121081904Y-110216904D01*
X121272380Y-110216904D01*
X121348571Y-110178809D01*
X121386666Y-110140714D01*
X121424761Y-110064523D01*
X121424761Y-109988333D01*
X121386666Y-109912142D01*
X121348571Y-109874047D01*
X121272380Y-109835952D01*
X121120000Y-109797857D01*
X121043809Y-109759761D01*
X121005714Y-109721666D01*
X120967619Y-109645476D01*
X120967619Y-109569285D01*
X121005714Y-109493095D01*
X121043809Y-109455000D01*
X121120000Y-109416904D01*
X121310476Y-109416904D01*
X121424761Y-109455000D01*
X122224761Y-110140714D02*
X122186666Y-110178809D01*
X122072380Y-110216904D01*
X121996190Y-110216904D01*
X121881904Y-110178809D01*
X121805714Y-110102619D01*
X121767619Y-110026428D01*
X121729523Y-109874047D01*
X121729523Y-109759761D01*
X121767619Y-109607380D01*
X121805714Y-109531190D01*
X121881904Y-109455000D01*
X121996190Y-109416904D01*
X122072380Y-109416904D01*
X122186666Y-109455000D01*
X122224761Y-109493095D01*
X122948571Y-110216904D02*
X122567619Y-110216904D01*
X122567619Y-109416904D01*
X118313333Y-109416904D02*
X118580000Y-110216904D01*
X118846666Y-109416904D01*
X119570476Y-110140714D02*
X119532380Y-110178809D01*
X119418095Y-110216904D01*
X119341904Y-110216904D01*
X119227619Y-110178809D01*
X119151428Y-110102619D01*
X119113333Y-110026428D01*
X119075238Y-109874047D01*
X119075238Y-109759761D01*
X119113333Y-109607380D01*
X119151428Y-109531190D01*
X119227619Y-109455000D01*
X119341904Y-109416904D01*
X119418095Y-109416904D01*
X119532380Y-109455000D01*
X119570476Y-109493095D01*
X120370476Y-110140714D02*
X120332380Y-110178809D01*
X120218095Y-110216904D01*
X120141904Y-110216904D01*
X120027619Y-110178809D01*
X119951428Y-110102619D01*
X119913333Y-110026428D01*
X119875238Y-109874047D01*
X119875238Y-109759761D01*
X119913333Y-109607380D01*
X119951428Y-109531190D01*
X120027619Y-109455000D01*
X120141904Y-109416904D01*
X120218095Y-109416904D01*
X120332380Y-109455000D01*
X120370476Y-109493095D01*
X116230476Y-109455000D02*
X116154285Y-109416904D01*
X116040000Y-109416904D01*
X115925714Y-109455000D01*
X115849523Y-109531190D01*
X115811428Y-109607380D01*
X115773333Y-109759761D01*
X115773333Y-109874047D01*
X115811428Y-110026428D01*
X115849523Y-110102619D01*
X115925714Y-110178809D01*
X116040000Y-110216904D01*
X116116190Y-110216904D01*
X116230476Y-110178809D01*
X116268571Y-110140714D01*
X116268571Y-109874047D01*
X116116190Y-109874047D01*
X116611428Y-110216904D02*
X116611428Y-109416904D01*
X117068571Y-110216904D01*
X117068571Y-109416904D01*
X117449523Y-110216904D02*
X117449523Y-109416904D01*
X117640000Y-109416904D01*
X117754285Y-109455000D01*
X117830476Y-109531190D01*
X117868571Y-109607380D01*
X117906666Y-109759761D01*
X117906666Y-109874047D01*
X117868571Y-110026428D01*
X117830476Y-110102619D01*
X117754285Y-110178809D01*
X117640000Y-110216904D01*
X117449523Y-110216904D01*
D11*
X72420000Y-127000000D02*
X72420000Y-119380000D01*
X70420000Y-128605000D02*
X72420000Y-127000000D01*
X70420000Y-118005000D02*
X72420000Y-119380000D01*
X70420000Y-134205000D02*
X70420000Y-128605000D01*
X70420000Y-110905000D02*
X70420000Y-118005000D01*
X112620000Y-134205000D02*
X70420000Y-134205000D01*
X112620000Y-110905000D02*
X70420000Y-110905000D01*
X112620000Y-110905000D02*
X112620000Y-134205000D01*
D12*
X108525000Y-78680000D02*
X108525000Y-81340000D01*
X111125000Y-78680000D02*
X108525000Y-78680000D01*
X111125000Y-81340000D02*
X108525000Y-81340000D01*
X111125000Y-78680000D02*
X111125000Y-81340000D01*
X112395000Y-78680000D02*
X113725000Y-78680000D01*
X113725000Y-78680000D02*
X113725000Y-80010000D01*
D11*
X95210000Y-79375000D02*
X95210000Y-87375000D01*
X90210000Y-79375000D02*
X90210000Y-87375000D01*
X94210000Y-79375000D02*
X94210000Y-77975000D01*
X91210000Y-77975000D02*
X91210000Y-79375000D01*
X94710000Y-77975000D02*
X94210000Y-77975000D01*
X90710000Y-77975000D02*
X91210000Y-77975000D01*
X90710000Y-77975000D02*
X90710000Y-76575000D01*
X94710000Y-76575000D02*
X94710000Y-77975000D01*
X90710000Y-76575000D02*
X94710000Y-76575000D01*
X90210000Y-87375000D02*
X95210000Y-87375000D01*
X90210000Y-79375000D02*
X95210000Y-79375000D01*
X76835000Y-98425000D02*
X89027000Y-98425000D01*
X92075000Y-93345000D02*
X86487000Y-93345000D01*
X78359000Y-95885000D02*
X76835000Y-98425000D01*
X92075000Y-93345000D02*
X89027000Y-98425000D01*
X82931000Y-95885000D02*
X78359000Y-95885000D01*
D13*
G36*
X153915987Y-136195069D02*
G01*
X154017114Y-136249559D01*
X154033241Y-136263945D01*
X154066163Y-136306157D01*
X154123015Y-136391348D01*
X154200006Y-136513330D01*
X154293341Y-136665913D01*
X154399230Y-136842908D01*
X154513879Y-137038128D01*
X154616920Y-137216445D01*
X154739067Y-137429359D01*
X154857606Y-137635865D01*
X154968286Y-137828569D01*
X155066858Y-138000077D01*
X155149075Y-138142995D01*
X155210685Y-138249931D01*
X155241012Y-138302410D01*
X155317569Y-138448347D01*
X155356495Y-138562449D01*
X155358575Y-138654238D01*
X155324594Y-138733231D01*
X155280838Y-138784949D01*
X155198342Y-138867445D01*
X152545442Y-138867445D01*
X152458610Y-138794381D01*
X152421730Y-138761766D01*
X152393669Y-138729482D01*
X152376179Y-138693112D01*
X152371010Y-138648243D01*
X152379916Y-138590457D01*
X152404647Y-138515342D01*
X152446955Y-138418480D01*
X152508593Y-138295457D01*
X152591311Y-138141858D01*
X152696862Y-137953267D01*
X152826997Y-137725270D01*
X152983468Y-137453451D01*
X153006391Y-137413700D01*
X153139724Y-137183870D01*
X153266752Y-136967500D01*
X153384263Y-136769877D01*
X153489045Y-136596287D01*
X153577886Y-136452016D01*
X153647575Y-136342350D01*
X153694900Y-136272577D01*
X153713521Y-136249834D01*
X153812345Y-136195052D01*
X153915987Y-136195069D01*
G37*
X153915987Y-136195069D02*
X154017114Y-136249559D01*
X154033241Y-136263945D01*
X154066163Y-136306157D01*
X154123015Y-136391348D01*
X154200006Y-136513330D01*
X154293341Y-136665913D01*
X154399230Y-136842908D01*
X154513879Y-137038128D01*
X154616920Y-137216445D01*
X154739067Y-137429359D01*
X154857606Y-137635865D01*
X154968286Y-137828569D01*
X155066858Y-138000077D01*
X155149075Y-138142995D01*
X155210685Y-138249931D01*
X155241012Y-138302410D01*
X155317569Y-138448347D01*
X155356495Y-138562449D01*
X155358575Y-138654238D01*
X155324594Y-138733231D01*
X155280838Y-138784949D01*
X155198342Y-138867445D01*
X152545442Y-138867445D01*
X152458610Y-138794381D01*
X152421730Y-138761766D01*
X152393669Y-138729482D01*
X152376179Y-138693112D01*
X152371010Y-138648243D01*
X152379916Y-138590457D01*
X152404647Y-138515342D01*
X152446955Y-138418480D01*
X152508593Y-138295457D01*
X152591311Y-138141858D01*
X152696862Y-137953267D01*
X152826997Y-137725270D01*
X152983468Y-137453451D01*
X153006391Y-137413700D01*
X153139724Y-137183870D01*
X153266752Y-136967500D01*
X153384263Y-136769877D01*
X153489045Y-136596287D01*
X153577886Y-136452016D01*
X153647575Y-136342350D01*
X153694900Y-136272577D01*
X153713521Y-136249834D01*
X153812345Y-136195052D01*
X153915987Y-136195069D01*
G36*
X154184407Y-139319228D02*
G01*
X154449698Y-139320216D01*
X154668314Y-139322420D01*
X154845139Y-139326296D01*
X154985057Y-139332301D01*
X155092952Y-139340890D01*
X155173708Y-139352521D01*
X155232209Y-139367649D01*
X155273341Y-139386730D01*
X155301986Y-139410220D01*
X155323028Y-139438577D01*
X155332840Y-139455867D01*
X155349510Y-139491601D01*
X155359123Y-139528916D01*
X155359614Y-139572360D01*
X155348920Y-139626481D01*
X155324979Y-139695825D01*
X155285728Y-139784940D01*
X155229103Y-139898372D01*
X155153041Y-140040670D01*
X155055480Y-140216379D01*
X154934355Y-140430048D01*
X154787605Y-140686224D01*
X154726030Y-140793336D01*
X154593112Y-141023338D01*
X154467075Y-141239360D01*
X154351026Y-141436221D01*
X154248075Y-141608742D01*
X154161329Y-141751743D01*
X154093898Y-141860044D01*
X154048889Y-141928465D01*
X154031459Y-141950723D01*
X153956884Y-141985820D01*
X153857619Y-141998601D01*
X153761565Y-141987238D01*
X153721842Y-141971001D01*
X153687791Y-141935430D01*
X153635558Y-141862855D01*
X153573883Y-141765884D01*
X153541442Y-141710804D01*
X153495766Y-141631366D01*
X153426103Y-141510523D01*
X153336751Y-141355714D01*
X153232008Y-141174380D01*
X153116171Y-140973963D01*
X152993538Y-140761902D01*
X152889878Y-140582739D01*
X152747931Y-140336654D01*
X152632545Y-140133998D01*
X152541505Y-139969645D01*
X152472590Y-139838470D01*
X152423583Y-139735344D01*
X152392266Y-139655143D01*
X152376421Y-139592740D01*
X152373829Y-139543009D01*
X152382273Y-139500823D01*
X152399534Y-139461056D01*
X152402272Y-139455867D01*
X152421256Y-139424726D01*
X152445234Y-139398694D01*
X152479091Y-139377315D01*
X152527711Y-139360134D01*
X152595977Y-139346693D01*
X152688774Y-139336536D01*
X152810987Y-139329208D01*
X152967499Y-139324252D01*
X153163194Y-139321212D01*
X153402957Y-139319632D01*
X153691671Y-139319055D01*
X153867556Y-139319000D01*
X154184407Y-139319228D01*
G37*
X154184407Y-139319228D02*
X154449698Y-139320216D01*
X154668314Y-139322420D01*
X154845139Y-139326296D01*
X154985057Y-139332301D01*
X155092952Y-139340890D01*
X155173708Y-139352521D01*
X155232209Y-139367649D01*
X155273341Y-139386730D01*
X155301986Y-139410220D01*
X155323028Y-139438577D01*
X155332840Y-139455867D01*
X155349510Y-139491601D01*
X155359123Y-139528916D01*
X155359614Y-139572360D01*
X155348920Y-139626481D01*
X155324979Y-139695825D01*
X155285728Y-139784940D01*
X155229103Y-139898372D01*
X155153041Y-140040670D01*
X155055480Y-140216379D01*
X154934355Y-140430048D01*
X154787605Y-140686224D01*
X154726030Y-140793336D01*
X154593112Y-141023338D01*
X154467075Y-141239360D01*
X154351026Y-141436221D01*
X154248075Y-141608742D01*
X154161329Y-141751743D01*
X154093898Y-141860044D01*
X154048889Y-141928465D01*
X154031459Y-141950723D01*
X153956884Y-141985820D01*
X153857619Y-141998601D01*
X153761565Y-141987238D01*
X153721842Y-141971001D01*
X153687791Y-141935430D01*
X153635558Y-141862855D01*
X153573883Y-141765884D01*
X153541442Y-141710804D01*
X153495766Y-141631366D01*
X153426103Y-141510523D01*
X153336751Y-141355714D01*
X153232008Y-141174380D01*
X153116171Y-140973963D01*
X152993538Y-140761902D01*
X152889878Y-140582739D01*
X152747931Y-140336654D01*
X152632545Y-140133998D01*
X152541505Y-139969645D01*
X152472590Y-139838470D01*
X152423583Y-139735344D01*
X152392266Y-139655143D01*
X152376421Y-139592740D01*
X152373829Y-139543009D01*
X152382273Y-139500823D01*
X152399534Y-139461056D01*
X152402272Y-139455867D01*
X152421256Y-139424726D01*
X152445234Y-139398694D01*
X152479091Y-139377315D01*
X152527711Y-139360134D01*
X152595977Y-139346693D01*
X152688774Y-139336536D01*
X152810987Y-139329208D01*
X152967499Y-139324252D01*
X153163194Y-139321212D01*
X153402957Y-139319632D01*
X153691671Y-139319055D01*
X153867556Y-139319000D01*
X154184407Y-139319228D01*
D11*
X106950000Y-106650000D02*
X134350000Y-106650000D01*
X106950000Y-106650000D02*
X106950000Y-134250000D01*
X106950000Y-134250000D02*
X134350000Y-134250000D01*
X134350000Y-134250000D02*
X134350000Y-106650000D01*
D12*
X71060000Y-93920000D02*
X72390000Y-93920000D01*
X71060000Y-95250000D02*
X71060000Y-93920000D01*
X71060000Y-96520000D02*
X73720000Y-96520000D01*
X73720000Y-96520000D02*
X73720000Y-101660000D01*
X71060000Y-96520000D02*
X71060000Y-101660000D01*
X71060000Y-101660000D02*
X73720000Y-101660000D01*
X160020000Y-116205000D02*
X160020000Y-118745000D01*
X160020000Y-118745000D02*
X162690000Y-118745000D01*
X162690000Y-116205000D02*
X162690000Y-77975000D01*
X162690000Y-121415000D02*
X162690000Y-118745000D01*
X147320000Y-118745000D02*
X144650000Y-118745000D01*
X147320000Y-118745000D02*
X147320000Y-80645000D01*
X147320000Y-80645000D02*
X144650000Y-80645000D01*
X160020000Y-116205000D02*
X162690000Y-116205000D01*
X160020000Y-116205000D02*
X160020000Y-80645000D01*
X160020000Y-80645000D02*
X162690000Y-80645000D01*
X162690000Y-77975000D02*
X144650000Y-77975000D01*
X144650000Y-77975000D02*
X144650000Y-121415000D01*
X144650000Y-121415000D02*
X162690000Y-121415000D01*
X109945277Y-82419278D02*
G75*
G03X109945000Y-87030580I1179723J-2305722D01*
G01*
X112304723Y-82419278D02*
G75*
G02X112305000Y-87030580I-1179723J-2305722D01*
G01*
X112304723Y-82419278D02*
G75*
G03X109945000Y-82419420I-1179723J-2305722D01*
G01*
X108575000Y-84725000D02*
X113675000Y-84725000D01*
X108575000Y-84685000D02*
X110145000Y-84685000D01*
X112105000Y-84685000D02*
X113675000Y-84685000D01*
X108576000Y-84645000D02*
X110145000Y-84645000D01*
X112105000Y-84645000D02*
X113674000Y-84645000D01*
X108577000Y-84605000D02*
X110145000Y-84605000D01*
X112105000Y-84605000D02*
X113673000Y-84605000D01*
X108579000Y-84565000D02*
X110145000Y-84565000D01*
X112105000Y-84565000D02*
X113671000Y-84565000D01*
X108582000Y-84525000D02*
X110145000Y-84525000D01*
X112105000Y-84525000D02*
X113668000Y-84525000D01*
X108586000Y-84485000D02*
X110145000Y-84485000D01*
X112105000Y-84485000D02*
X113664000Y-84485000D01*
X108590000Y-84445000D02*
X110145000Y-84445000D01*
X112105000Y-84445000D02*
X113660000Y-84445000D01*
X108594000Y-84405000D02*
X110145000Y-84405000D01*
X112105000Y-84405000D02*
X113656000Y-84405000D01*
X108600000Y-84365000D02*
X110145000Y-84365000D01*
X112105000Y-84365000D02*
X113650000Y-84365000D01*
X108606000Y-84325000D02*
X110145000Y-84325000D01*
X112105000Y-84325000D02*
X113644000Y-84325000D01*
X108612000Y-84285000D02*
X110145000Y-84285000D01*
X112105000Y-84285000D02*
X113638000Y-84285000D01*
X108619000Y-84245000D02*
X110145000Y-84245000D01*
X112105000Y-84245000D02*
X113631000Y-84245000D01*
X108627000Y-84205000D02*
X110145000Y-84205000D01*
X112105000Y-84205000D02*
X113623000Y-84205000D01*
X108636000Y-84165000D02*
X110145000Y-84165000D01*
X112105000Y-84165000D02*
X113614000Y-84165000D01*
X108645000Y-84125000D02*
X110145000Y-84125000D01*
X112105000Y-84125000D02*
X113605000Y-84125000D01*
X108655000Y-84085000D02*
X110145000Y-84085000D01*
X112105000Y-84085000D02*
X113595000Y-84085000D01*
X108665000Y-84045000D02*
X110145000Y-84045000D01*
X112105000Y-84045000D02*
X113585000Y-84045000D01*
X108677000Y-84004000D02*
X110145000Y-84004000D01*
X112105000Y-84004000D02*
X113573000Y-84004000D01*
X108689000Y-83964000D02*
X110145000Y-83964000D01*
X112105000Y-83964000D02*
X113561000Y-83964000D01*
X108701000Y-83924000D02*
X110145000Y-83924000D01*
X112105000Y-83924000D02*
X113549000Y-83924000D01*
X108715000Y-83884000D02*
X110145000Y-83884000D01*
X112105000Y-83884000D02*
X113535000Y-83884000D01*
X108729000Y-83844000D02*
X110145000Y-83844000D01*
X112105000Y-83844000D02*
X113521000Y-83844000D01*
X108743000Y-83804000D02*
X110145000Y-83804000D01*
X112105000Y-83804000D02*
X113507000Y-83804000D01*
X108759000Y-83764000D02*
X110145000Y-83764000D01*
X112105000Y-83764000D02*
X113491000Y-83764000D01*
X108775000Y-83724000D02*
X110145000Y-83724000D01*
X112105000Y-83724000D02*
X113475000Y-83724000D01*
X108792000Y-83684000D02*
X110145000Y-83684000D01*
X112105000Y-83684000D02*
X113458000Y-83684000D01*
X108810000Y-83644000D02*
X110145000Y-83644000D01*
X112105000Y-83644000D02*
X113440000Y-83644000D01*
X108829000Y-83604000D02*
X110145000Y-83604000D01*
X112105000Y-83604000D02*
X113421000Y-83604000D01*
X108849000Y-83564000D02*
X110145000Y-83564000D01*
X112105000Y-83564000D02*
X113401000Y-83564000D01*
X108869000Y-83524000D02*
X110145000Y-83524000D01*
X112105000Y-83524000D02*
X113381000Y-83524000D01*
X108891000Y-83484000D02*
X110145000Y-83484000D01*
X112105000Y-83484000D02*
X113359000Y-83484000D01*
X108913000Y-83444000D02*
X110145000Y-83444000D01*
X112105000Y-83444000D02*
X113337000Y-83444000D01*
X108936000Y-83404000D02*
X110145000Y-83404000D01*
X112105000Y-83404000D02*
X113314000Y-83404000D01*
X108960000Y-83364000D02*
X110145000Y-83364000D01*
X112105000Y-83364000D02*
X113290000Y-83364000D01*
X108985000Y-83324000D02*
X110145000Y-83324000D01*
X112105000Y-83324000D02*
X113265000Y-83324000D01*
X109012000Y-83284000D02*
X110145000Y-83284000D01*
X112105000Y-83284000D02*
X113238000Y-83284000D01*
X109039000Y-83244000D02*
X110145000Y-83244000D01*
X112105000Y-83244000D02*
X113211000Y-83244000D01*
X109067000Y-83204000D02*
X110145000Y-83204000D01*
X112105000Y-83204000D02*
X113183000Y-83204000D01*
X109097000Y-83164000D02*
X110145000Y-83164000D01*
X112105000Y-83164000D02*
X113153000Y-83164000D01*
X109128000Y-83124000D02*
X110145000Y-83124000D01*
X112105000Y-83124000D02*
X113122000Y-83124000D01*
X109160000Y-83084000D02*
X110145000Y-83084000D01*
X112105000Y-83084000D02*
X113090000Y-83084000D01*
X109193000Y-83044000D02*
X110145000Y-83044000D01*
X112105000Y-83044000D02*
X113057000Y-83044000D01*
X109228000Y-83004000D02*
X110145000Y-83004000D01*
X112105000Y-83004000D02*
X113022000Y-83004000D01*
X109264000Y-82964000D02*
X110145000Y-82964000D01*
X112105000Y-82964000D02*
X112986000Y-82964000D01*
X109302000Y-82924000D02*
X110145000Y-82924000D01*
X112105000Y-82924000D02*
X112948000Y-82924000D01*
X109342000Y-82884000D02*
X110145000Y-82884000D01*
X112105000Y-82884000D02*
X112908000Y-82884000D01*
X109383000Y-82844000D02*
X110145000Y-82844000D01*
X112105000Y-82844000D02*
X112867000Y-82844000D01*
X109426000Y-82804000D02*
X110145000Y-82804000D01*
X112105000Y-82804000D02*
X112824000Y-82804000D01*
X109471000Y-82764000D02*
X110145000Y-82764000D01*
X112105000Y-82764000D02*
X112779000Y-82764000D01*
X109519000Y-82724000D02*
X112731000Y-82724000D01*
X109569000Y-82684000D02*
X112681000Y-82684000D01*
X109621000Y-82644000D02*
X112629000Y-82644000D01*
X109677000Y-82604000D02*
X112573000Y-82604000D01*
X109735000Y-82564000D02*
X112515000Y-82564000D01*
X109798000Y-82524000D02*
X112452000Y-82524000D01*
X109864000Y-82484000D02*
X112386000Y-82484000D01*
X109936000Y-82444000D02*
X112314000Y-82444000D01*
X110013000Y-82404000D02*
X112237000Y-82404000D01*
X110097000Y-82364000D02*
X112153000Y-82364000D01*
X110191000Y-82324000D02*
X112059000Y-82324000D01*
X110296000Y-82284000D02*
X111954000Y-82284000D01*
X110418000Y-82244000D02*
X111832000Y-82244000D01*
X110566000Y-82204000D02*
X111684000Y-82204000D01*
X110771000Y-82164000D02*
X111479000Y-82164000D01*
X111125000Y-87925000D02*
X111125000Y-86725000D01*
X110475000Y-87325000D02*
X111775000Y-87325000D01*
X144695000Y-132855000D02*
X144695000Y-130035000D01*
X139075000Y-131445000D02*
X140215000Y-131445000D01*
X146675000Y-131445000D02*
X145535000Y-131445000D01*
X140215000Y-132855000D02*
X145535000Y-132855000D01*
X140215000Y-130035000D02*
X140215000Y-132855000D01*
X145535000Y-130035000D02*
X140215000Y-130035000D01*
X145535000Y-132855000D02*
X145535000Y-130035000D01*
X153095000Y-132775000D02*
X151765000Y-132775000D01*
X153095000Y-131445000D02*
X153095000Y-132775000D01*
X153095000Y-130175000D02*
X150435000Y-130175000D01*
X150435000Y-130175000D02*
X150435000Y-125035000D01*
X153095000Y-130175000D02*
X153095000Y-125035000D01*
X153095000Y-125035000D02*
X150435000Y-125035000D01*
X132655000Y-105470000D02*
X132655000Y-104140000D01*
X133985000Y-105470000D02*
X132655000Y-105470000D01*
X132655000Y-102870000D02*
X132655000Y-100270000D01*
X135255000Y-102870000D02*
X132655000Y-102870000D01*
X135255000Y-105470000D02*
X135255000Y-102870000D01*
X132655000Y-100270000D02*
X140395000Y-100270000D01*
X135255000Y-105470000D02*
X140395000Y-105470000D01*
X140395000Y-105470000D02*
X140395000Y-100270000D01*
X155945000Y-133505000D02*
X155945000Y-130905000D01*
X170645000Y-133505000D02*
X155945000Y-133505000D01*
X155945000Y-124305000D02*
X157845000Y-124305000D01*
X155945000Y-127005000D02*
X155945000Y-124305000D01*
X170645000Y-124305000D02*
X170645000Y-133505000D01*
X161845000Y-124305000D02*
X170645000Y-124305000D01*
X166945000Y-111820000D02*
X169605000Y-111820000D01*
X166945000Y-96520000D02*
X166945000Y-111820000D01*
X169605000Y-96520000D02*
X169605000Y-111820000D01*
X166945000Y-96520000D02*
X169605000Y-96520000D01*
X166945000Y-95250000D02*
X166945000Y-93920000D01*
X166945000Y-93920000D02*
X168275000Y-93920000D01*
X138885000Y-138730000D02*
X138885000Y-138500000D01*
X139405000Y-142400000D02*
X131685000Y-142400000D01*
X131685000Y-142400000D02*
X131685000Y-138500000D01*
X139405000Y-135390000D02*
X138885000Y-135390000D01*
X139405000Y-142400000D02*
X139405000Y-138500000D01*
X132205000Y-138730000D02*
X132205000Y-138500000D01*
X138885000Y-135900000D02*
X138885000Y-135390000D01*
X139405000Y-135900000D02*
X139405000Y-135390000D01*
X132745000Y-138730000D02*
X132205000Y-138730000D01*
X132205000Y-135900000D02*
X132205000Y-135390000D01*
X132205000Y-135390000D02*
X131685000Y-135390000D01*
X131685000Y-135900000D02*
X131685000Y-135390000D01*
X138885000Y-138730000D02*
X138345000Y-138730000D01*
X137245000Y-138730000D02*
X133845000Y-138730000D01*
X149680000Y-138730000D02*
X149680000Y-138500000D01*
X150200000Y-142400000D02*
X142480000Y-142400000D01*
X142480000Y-142400000D02*
X142480000Y-138500000D01*
X150200000Y-135390000D02*
X149680000Y-135390000D01*
X150200000Y-142400000D02*
X150200000Y-138500000D01*
X143000000Y-138730000D02*
X143000000Y-138500000D01*
X149680000Y-135900000D02*
X149680000Y-135390000D01*
X150200000Y-135900000D02*
X150200000Y-135390000D01*
X143540000Y-138730000D02*
X143000000Y-138730000D01*
X143000000Y-135900000D02*
X143000000Y-135390000D01*
X143000000Y-135390000D02*
X142480000Y-135390000D01*
X142480000Y-135900000D02*
X142480000Y-135390000D01*
X149680000Y-138730000D02*
X149140000Y-138730000D01*
X148040000Y-138730000D02*
X144640000Y-138730000D01*
X108405000Y-138730000D02*
X108405000Y-138500000D01*
X108925000Y-142400000D02*
X101205000Y-142400000D01*
X101205000Y-142400000D02*
X101205000Y-138500000D01*
X108925000Y-135390000D02*
X108405000Y-135390000D01*
X108925000Y-142400000D02*
X108925000Y-138500000D01*
X101725000Y-138730000D02*
X101725000Y-138500000D01*
X108405000Y-135900000D02*
X108405000Y-135390000D01*
X108925000Y-135900000D02*
X108925000Y-135390000D01*
X102265000Y-138730000D02*
X101725000Y-138730000D01*
X101725000Y-135900000D02*
X101725000Y-135390000D01*
X101725000Y-135390000D02*
X101205000Y-135390000D01*
X101205000Y-135900000D02*
X101205000Y-135390000D01*
X108405000Y-138730000D02*
X107865000Y-138730000D01*
X106765000Y-138730000D02*
X103365000Y-138730000D01*
X93165000Y-138730000D02*
X93165000Y-138500000D01*
X93685000Y-142400000D02*
X85965000Y-142400000D01*
X85965000Y-142400000D02*
X85965000Y-138500000D01*
X93685000Y-135390000D02*
X93165000Y-135390000D01*
X93685000Y-142400000D02*
X93685000Y-138500000D01*
X86485000Y-138730000D02*
X86485000Y-138500000D01*
X93165000Y-135900000D02*
X93165000Y-135390000D01*
X93685000Y-135900000D02*
X93685000Y-135390000D01*
X87025000Y-138730000D02*
X86485000Y-138730000D01*
X86485000Y-135900000D02*
X86485000Y-135390000D01*
X86485000Y-135390000D02*
X85965000Y-135390000D01*
X85965000Y-135900000D02*
X85965000Y-135390000D01*
X93165000Y-138730000D02*
X92625000Y-138730000D01*
X91525000Y-138730000D02*
X88125000Y-138730000D01*
X123645000Y-138730000D02*
X123645000Y-138500000D01*
X124165000Y-142400000D02*
X116445000Y-142400000D01*
X116445000Y-142400000D02*
X116445000Y-138500000D01*
X124165000Y-135390000D02*
X123645000Y-135390000D01*
X124165000Y-142400000D02*
X124165000Y-138500000D01*
X116965000Y-138730000D02*
X116965000Y-138500000D01*
X123645000Y-135900000D02*
X123645000Y-135390000D01*
X124165000Y-135900000D02*
X124165000Y-135390000D01*
X117505000Y-138730000D02*
X116965000Y-138730000D01*
X116965000Y-135900000D02*
X116965000Y-135390000D01*
X116965000Y-135390000D02*
X116445000Y-135390000D01*
X116445000Y-135900000D02*
X116445000Y-135390000D01*
X123645000Y-138730000D02*
X123105000Y-138730000D01*
X122005000Y-138730000D02*
X118605000Y-138730000D01*
X75946000Y-139065000D02*
G75*
G03X75946000Y-139065000I-2286000J0D01*
G01*
X169291000Y-139065000D02*
G75*
G03X169291000Y-139065000I-2286000J0D01*
G01*
X169291000Y-81280000D02*
G75*
G03X169291000Y-81280000I-2286000J0D01*
G01*
X75946000Y-81280000D02*
G75*
G03X75946000Y-81280000I-2286000J0D01*
G01*
X134660000Y-81880000D02*
X132040000Y-81880000D01*
X132040000Y-81880000D02*
X132040000Y-88300000D01*
X132040000Y-88300000D02*
X134660000Y-88300000D01*
X134660000Y-88300000D02*
X134660000Y-81880000D01*
X133350000Y-80990000D02*
X133350000Y-81880000D01*
X133350000Y-89190000D02*
X133350000Y-88300000D01*
X138470000Y-81880000D02*
X135850000Y-81880000D01*
X135850000Y-81880000D02*
X135850000Y-88300000D01*
X135850000Y-88300000D02*
X138470000Y-88300000D01*
X138470000Y-88300000D02*
X138470000Y-81880000D01*
X137160000Y-80990000D02*
X137160000Y-81880000D01*
X137160000Y-89190000D02*
X137160000Y-88300000D01*
X142280000Y-81880000D02*
X139660000Y-81880000D01*
X139660000Y-81880000D02*
X139660000Y-88300000D01*
X139660000Y-88300000D02*
X142280000Y-88300000D01*
X142280000Y-88300000D02*
X142280000Y-81880000D01*
X140970000Y-80990000D02*
X140970000Y-81880000D01*
X140970000Y-89190000D02*
X140970000Y-88300000D01*
X130850000Y-81880000D02*
X128230000Y-81880000D01*
X128230000Y-81880000D02*
X128230000Y-88300000D01*
X128230000Y-88300000D02*
X130850000Y-88300000D01*
X130850000Y-88300000D02*
X130850000Y-81880000D01*
X129540000Y-80990000D02*
X129540000Y-81880000D01*
X129540000Y-89190000D02*
X129540000Y-88300000D01*
X123860000Y-113705000D02*
X123860000Y-111085000D01*
X123860000Y-111085000D02*
X117440000Y-111085000D01*
X117440000Y-111085000D02*
X117440000Y-113705000D01*
X117440000Y-113705000D02*
X123860000Y-113705000D01*
X124750000Y-112395000D02*
X123860000Y-112395000D01*
X116550000Y-112395000D02*
X117440000Y-112395000D01*
X110855000Y-88205000D02*
G75*
G02X108855000Y-88205000I-1000000J0D01*
G01*
X108855000Y-88205000D02*
X107605000Y-88205000D01*
X107605000Y-88205000D02*
X107605000Y-98485000D01*
X107605000Y-98485000D02*
X112105000Y-98485000D01*
X112105000Y-98485000D02*
X112105000Y-88205000D01*
X112105000Y-88205000D02*
X110855000Y-88205000D01*
X104605000Y-88145000D02*
X104605000Y-98545000D01*
X104605000Y-98545000D02*
X115105000Y-98545000D01*
X115105000Y-98545000D02*
X115105000Y-88145000D01*
X115105000Y-88145000D02*
X104605000Y-88145000D01*
X128230000Y-97700000D02*
X128230000Y-92880000D01*
X130850000Y-97700000D02*
X130850000Y-92880000D01*
X128230000Y-97700000D02*
X128544000Y-97700000D01*
X130536000Y-97700000D02*
X130850000Y-97700000D01*
X128230000Y-92880000D02*
X128544000Y-92880000D01*
X130536000Y-92880000D02*
X130850000Y-92880000D01*
X134660000Y-92800000D02*
X134660000Y-97620000D01*
X132040000Y-92800000D02*
X132040000Y-97620000D01*
X134660000Y-92800000D02*
X134346000Y-92800000D01*
X132354000Y-92800000D02*
X132040000Y-92800000D01*
X134660000Y-97620000D02*
X134346000Y-97620000D01*
X132354000Y-97620000D02*
X132040000Y-97620000D01*
X138470000Y-92800000D02*
X138470000Y-97620000D01*
X135850000Y-92800000D02*
X135850000Y-97620000D01*
X138470000Y-92800000D02*
X138156000Y-92800000D01*
X136164000Y-92800000D02*
X135850000Y-92800000D01*
X138470000Y-97620000D02*
X138156000Y-97620000D01*
X136164000Y-97620000D02*
X135850000Y-97620000D01*
X142280000Y-92800000D02*
X142280000Y-97620000D01*
X139660000Y-92800000D02*
X139660000Y-97620000D01*
X142280000Y-92800000D02*
X141966000Y-92800000D01*
X139974000Y-92800000D02*
X139660000Y-92800000D01*
X142280000Y-97620000D02*
X141966000Y-97620000D01*
X139974000Y-97620000D02*
X139660000Y-97620000D01*
X111590000Y-102275000D02*
X106770000Y-102275000D01*
X111590000Y-99655000D02*
X106770000Y-99655000D01*
X111590000Y-102275000D02*
X111590000Y-101961000D01*
X111590000Y-99969000D02*
X111590000Y-99655000D01*
X106770000Y-102275000D02*
X106770000Y-101961000D01*
X106770000Y-99969000D02*
X106770000Y-99655000D01*
X119089170Y-97461436D02*
G75*
G03X119090000Y-93769004I-979170J1846436D01*
G01*
X117130830Y-97461436D02*
G75*
G02X117130000Y-93769004I979170J1846436D01*
G01*
X117130830Y-97461436D02*
G75*
G03X119090000Y-97460996I979170J1846436D01*
G01*
X120160000Y-95615000D02*
X116060000Y-95615000D01*
X120160000Y-95655000D02*
X116060000Y-95655000D01*
X120159000Y-95695000D02*
X116061000Y-95695000D01*
X120157000Y-95735000D02*
X116063000Y-95735000D01*
X120154000Y-95775000D02*
X116066000Y-95775000D01*
X120151000Y-95815000D02*
X116069000Y-95815000D01*
X120147000Y-95855000D02*
X118890000Y-95855000D01*
X117330000Y-95855000D02*
X116073000Y-95855000D01*
X120142000Y-95895000D02*
X118890000Y-95895000D01*
X117330000Y-95895000D02*
X116078000Y-95895000D01*
X120136000Y-95935000D02*
X118890000Y-95935000D01*
X117330000Y-95935000D02*
X116084000Y-95935000D01*
X120129000Y-95975000D02*
X118890000Y-95975000D01*
X117330000Y-95975000D02*
X116091000Y-95975000D01*
X120122000Y-96015000D02*
X118890000Y-96015000D01*
X117330000Y-96015000D02*
X116098000Y-96015000D01*
X120114000Y-96055000D02*
X118890000Y-96055000D01*
X117330000Y-96055000D02*
X116106000Y-96055000D01*
X120105000Y-96095000D02*
X118890000Y-96095000D01*
X117330000Y-96095000D02*
X116115000Y-96095000D01*
X120095000Y-96135000D02*
X118890000Y-96135000D01*
X117330000Y-96135000D02*
X116125000Y-96135000D01*
X120084000Y-96175000D02*
X118890000Y-96175000D01*
X117330000Y-96175000D02*
X116136000Y-96175000D01*
X120073000Y-96215000D02*
X118890000Y-96215000D01*
X117330000Y-96215000D02*
X116147000Y-96215000D01*
X120060000Y-96255000D02*
X118890000Y-96255000D01*
X117330000Y-96255000D02*
X116160000Y-96255000D01*
X120047000Y-96295000D02*
X118890000Y-96295000D01*
X117330000Y-96295000D02*
X116173000Y-96295000D01*
X120033000Y-96336000D02*
X118890000Y-96336000D01*
X117330000Y-96336000D02*
X116187000Y-96336000D01*
X120017000Y-96376000D02*
X118890000Y-96376000D01*
X117330000Y-96376000D02*
X116203000Y-96376000D01*
X120001000Y-96416000D02*
X118890000Y-96416000D01*
X117330000Y-96416000D02*
X116219000Y-96416000D01*
X119984000Y-96456000D02*
X118890000Y-96456000D01*
X117330000Y-96456000D02*
X116236000Y-96456000D01*
X119966000Y-96496000D02*
X118890000Y-96496000D01*
X117330000Y-96496000D02*
X116254000Y-96496000D01*
X119947000Y-96536000D02*
X118890000Y-96536000D01*
X117330000Y-96536000D02*
X116273000Y-96536000D01*
X119927000Y-96576000D02*
X118890000Y-96576000D01*
X117330000Y-96576000D02*
X116293000Y-96576000D01*
X119906000Y-96616000D02*
X118890000Y-96616000D01*
X117330000Y-96616000D02*
X116314000Y-96616000D01*
X119883000Y-96656000D02*
X118890000Y-96656000D01*
X117330000Y-96656000D02*
X116337000Y-96656000D01*
X119860000Y-96696000D02*
X118890000Y-96696000D01*
X117330000Y-96696000D02*
X116360000Y-96696000D01*
X119835000Y-96736000D02*
X118890000Y-96736000D01*
X117330000Y-96736000D02*
X116385000Y-96736000D01*
X119809000Y-96776000D02*
X118890000Y-96776000D01*
X117330000Y-96776000D02*
X116411000Y-96776000D01*
X119782000Y-96816000D02*
X118890000Y-96816000D01*
X117330000Y-96816000D02*
X116438000Y-96816000D01*
X119753000Y-96856000D02*
X118890000Y-96856000D01*
X117330000Y-96856000D02*
X116467000Y-96856000D01*
X119723000Y-96896000D02*
X118890000Y-96896000D01*
X117330000Y-96896000D02*
X116497000Y-96896000D01*
X119691000Y-96936000D02*
X118890000Y-96936000D01*
X117330000Y-96936000D02*
X116529000Y-96936000D01*
X119657000Y-96976000D02*
X118890000Y-96976000D01*
X117330000Y-96976000D02*
X116563000Y-96976000D01*
X119622000Y-97016000D02*
X118890000Y-97016000D01*
X117330000Y-97016000D02*
X116598000Y-97016000D01*
X119585000Y-97056000D02*
X118890000Y-97056000D01*
X117330000Y-97056000D02*
X116635000Y-97056000D01*
X119546000Y-97096000D02*
X118890000Y-97096000D01*
X117330000Y-97096000D02*
X116674000Y-97096000D01*
X119505000Y-97136000D02*
X118890000Y-97136000D01*
X117330000Y-97136000D02*
X116715000Y-97136000D01*
X119461000Y-97176000D02*
X118890000Y-97176000D01*
X117330000Y-97176000D02*
X116759000Y-97176000D01*
X119415000Y-97216000D02*
X118890000Y-97216000D01*
X117330000Y-97216000D02*
X116805000Y-97216000D01*
X119366000Y-97256000D02*
X118890000Y-97256000D01*
X117330000Y-97256000D02*
X116854000Y-97256000D01*
X119314000Y-97296000D02*
X118890000Y-97296000D01*
X117330000Y-97296000D02*
X116906000Y-97296000D01*
X119258000Y-97336000D02*
X118890000Y-97336000D01*
X117330000Y-97336000D02*
X116962000Y-97336000D01*
X119198000Y-97376000D02*
X118890000Y-97376000D01*
X117330000Y-97376000D02*
X117022000Y-97376000D01*
X119133000Y-97416000D02*
X117087000Y-97416000D01*
X119062000Y-97456000D02*
X117158000Y-97456000D01*
X118984000Y-97496000D02*
X117236000Y-97496000D01*
X118896000Y-97536000D02*
X117324000Y-97536000D01*
X118796000Y-97576000D02*
X117424000Y-97576000D01*
X118677000Y-97616000D02*
X117543000Y-97616000D01*
X118525000Y-97656000D02*
X117695000Y-97656000D01*
X118275000Y-97696000D02*
X117945000Y-97696000D01*
X118110000Y-92915000D02*
X118110000Y-93815000D01*
X118560000Y-93365000D02*
X117660000Y-93365000D01*
X99388564Y-91149170D02*
G75*
G03X103080996Y-91150000I1846436J979170D01*
G01*
X99388564Y-89190830D02*
G75*
G02X103080996Y-89190000I1846436J-979170D01*
G01*
X99388564Y-89190830D02*
G75*
G03X99389004Y-91150000I1846436J-979170D01*
G01*
X101235000Y-92220000D02*
X101235000Y-88120000D01*
X101195000Y-92220000D02*
X101195000Y-88120000D01*
X101155000Y-92219000D02*
X101155000Y-88121000D01*
X101115000Y-92217000D02*
X101115000Y-88123000D01*
X101075000Y-92214000D02*
X101075000Y-88126000D01*
X101035000Y-92211000D02*
X101035000Y-88129000D01*
X100995000Y-92207000D02*
X100995000Y-90950000D01*
X100995000Y-89390000D02*
X100995000Y-88133000D01*
X100955000Y-92202000D02*
X100955000Y-90950000D01*
X100955000Y-89390000D02*
X100955000Y-88138000D01*
X100915000Y-92196000D02*
X100915000Y-90950000D01*
X100915000Y-89390000D02*
X100915000Y-88144000D01*
X100875000Y-92189000D02*
X100875000Y-90950000D01*
X100875000Y-89390000D02*
X100875000Y-88151000D01*
X100835000Y-92182000D02*
X100835000Y-90950000D01*
X100835000Y-89390000D02*
X100835000Y-88158000D01*
X100795000Y-92174000D02*
X100795000Y-90950000D01*
X100795000Y-89390000D02*
X100795000Y-88166000D01*
X100755000Y-92165000D02*
X100755000Y-90950000D01*
X100755000Y-89390000D02*
X100755000Y-88175000D01*
X100715000Y-92155000D02*
X100715000Y-90950000D01*
X100715000Y-89390000D02*
X100715000Y-88185000D01*
X100675000Y-92144000D02*
X100675000Y-90950000D01*
X100675000Y-89390000D02*
X100675000Y-88196000D01*
X100635000Y-92133000D02*
X100635000Y-90950000D01*
X100635000Y-89390000D02*
X100635000Y-88207000D01*
X100595000Y-92120000D02*
X100595000Y-90950000D01*
X100595000Y-89390000D02*
X100595000Y-88220000D01*
X100555000Y-92107000D02*
X100555000Y-90950000D01*
X100555000Y-89390000D02*
X100555000Y-88233000D01*
X100514000Y-92093000D02*
X100514000Y-90950000D01*
X100514000Y-89390000D02*
X100514000Y-88247000D01*
X100474000Y-92077000D02*
X100474000Y-90950000D01*
X100474000Y-89390000D02*
X100474000Y-88263000D01*
X100434000Y-92061000D02*
X100434000Y-90950000D01*
X100434000Y-89390000D02*
X100434000Y-88279000D01*
X100394000Y-92044000D02*
X100394000Y-90950000D01*
X100394000Y-89390000D02*
X100394000Y-88296000D01*
X100354000Y-92026000D02*
X100354000Y-90950000D01*
X100354000Y-89390000D02*
X100354000Y-88314000D01*
X100314000Y-92007000D02*
X100314000Y-90950000D01*
X100314000Y-89390000D02*
X100314000Y-88333000D01*
X100274000Y-91987000D02*
X100274000Y-90950000D01*
X100274000Y-89390000D02*
X100274000Y-88353000D01*
X100234000Y-91966000D02*
X100234000Y-90950000D01*
X100234000Y-89390000D02*
X100234000Y-88374000D01*
X100194000Y-91943000D02*
X100194000Y-90950000D01*
X100194000Y-89390000D02*
X100194000Y-88397000D01*
X100154000Y-91920000D02*
X100154000Y-90950000D01*
X100154000Y-89390000D02*
X100154000Y-88420000D01*
X100114000Y-91895000D02*
X100114000Y-90950000D01*
X100114000Y-89390000D02*
X100114000Y-88445000D01*
X100074000Y-91869000D02*
X100074000Y-90950000D01*
X100074000Y-89390000D02*
X100074000Y-88471000D01*
X100034000Y-91842000D02*
X100034000Y-90950000D01*
X100034000Y-89390000D02*
X100034000Y-88498000D01*
X99994000Y-91813000D02*
X99994000Y-90950000D01*
X99994000Y-89390000D02*
X99994000Y-88527000D01*
X99954000Y-91783000D02*
X99954000Y-90950000D01*
X99954000Y-89390000D02*
X99954000Y-88557000D01*
X99914000Y-91751000D02*
X99914000Y-90950000D01*
X99914000Y-89390000D02*
X99914000Y-88589000D01*
X99874000Y-91717000D02*
X99874000Y-90950000D01*
X99874000Y-89390000D02*
X99874000Y-88623000D01*
X99834000Y-91682000D02*
X99834000Y-90950000D01*
X99834000Y-89390000D02*
X99834000Y-88658000D01*
X99794000Y-91645000D02*
X99794000Y-90950000D01*
X99794000Y-89390000D02*
X99794000Y-88695000D01*
X99754000Y-91606000D02*
X99754000Y-90950000D01*
X99754000Y-89390000D02*
X99754000Y-88734000D01*
X99714000Y-91565000D02*
X99714000Y-90950000D01*
X99714000Y-89390000D02*
X99714000Y-88775000D01*
X99674000Y-91521000D02*
X99674000Y-90950000D01*
X99674000Y-89390000D02*
X99674000Y-88819000D01*
X99634000Y-91475000D02*
X99634000Y-90950000D01*
X99634000Y-89390000D02*
X99634000Y-88865000D01*
X99594000Y-91426000D02*
X99594000Y-90950000D01*
X99594000Y-89390000D02*
X99594000Y-88914000D01*
X99554000Y-91374000D02*
X99554000Y-90950000D01*
X99554000Y-89390000D02*
X99554000Y-88966000D01*
X99514000Y-91318000D02*
X99514000Y-90950000D01*
X99514000Y-89390000D02*
X99514000Y-89022000D01*
X99474000Y-91258000D02*
X99474000Y-90950000D01*
X99474000Y-89390000D02*
X99474000Y-89082000D01*
X99434000Y-91193000D02*
X99434000Y-89147000D01*
X99394000Y-91122000D02*
X99394000Y-89218000D01*
X99354000Y-91044000D02*
X99354000Y-89296000D01*
X99314000Y-90956000D02*
X99314000Y-89384000D01*
X99274000Y-90856000D02*
X99274000Y-89484000D01*
X99234000Y-90737000D02*
X99234000Y-89603000D01*
X99194000Y-90585000D02*
X99194000Y-89755000D01*
X99154000Y-90335000D02*
X99154000Y-90005000D01*
X103935000Y-90170000D02*
X103035000Y-90170000D01*
X103485000Y-90620000D02*
X103485000Y-89720000D01*
X111590000Y-106085000D02*
X106770000Y-106085000D01*
X111590000Y-103465000D02*
X106770000Y-103465000D01*
X111590000Y-106085000D02*
X111590000Y-105771000D01*
X111590000Y-103779000D02*
X111590000Y-103465000D01*
X106770000Y-106085000D02*
X106770000Y-105771000D01*
X106770000Y-103779000D02*
X106770000Y-103465000D01*
X99314278Y-108494723D02*
G75*
G03X103925580Y-108495000I2305722J1179723D01*
G01*
X99314278Y-106135277D02*
G75*
G02X103925580Y-106135000I2305722J-1179723D01*
G01*
X99314278Y-106135277D02*
G75*
G03X99314420Y-108495000I2305722J-1179723D01*
G01*
X101620000Y-109865000D02*
X101620000Y-104765000D01*
X101580000Y-109865000D02*
X101580000Y-104765000D01*
X101540000Y-109864000D02*
X101540000Y-104766000D01*
X101500000Y-109863000D02*
X101500000Y-104767000D01*
X101460000Y-109861000D02*
X101460000Y-104769000D01*
X101420000Y-109858000D02*
X101420000Y-104772000D01*
X101380000Y-109854000D02*
X101380000Y-104776000D01*
X101340000Y-109850000D02*
X101340000Y-108295000D01*
X101340000Y-106335000D02*
X101340000Y-104780000D01*
X101300000Y-109846000D02*
X101300000Y-108295000D01*
X101300000Y-106335000D02*
X101300000Y-104784000D01*
X101260000Y-109840000D02*
X101260000Y-108295000D01*
X101260000Y-106335000D02*
X101260000Y-104790000D01*
X101220000Y-109834000D02*
X101220000Y-108295000D01*
X101220000Y-106335000D02*
X101220000Y-104796000D01*
X101180000Y-109828000D02*
X101180000Y-108295000D01*
X101180000Y-106335000D02*
X101180000Y-104802000D01*
X101140000Y-109821000D02*
X101140000Y-108295000D01*
X101140000Y-106335000D02*
X101140000Y-104809000D01*
X101100000Y-109813000D02*
X101100000Y-108295000D01*
X101100000Y-106335000D02*
X101100000Y-104817000D01*
X101060000Y-109804000D02*
X101060000Y-108295000D01*
X101060000Y-106335000D02*
X101060000Y-104826000D01*
X101020000Y-109795000D02*
X101020000Y-108295000D01*
X101020000Y-106335000D02*
X101020000Y-104835000D01*
X100980000Y-109785000D02*
X100980000Y-108295000D01*
X100980000Y-106335000D02*
X100980000Y-104845000D01*
X100940000Y-109775000D02*
X100940000Y-108295000D01*
X100940000Y-106335000D02*
X100940000Y-104855000D01*
X100899000Y-109763000D02*
X100899000Y-108295000D01*
X100899000Y-106335000D02*
X100899000Y-104867000D01*
X100859000Y-109751000D02*
X100859000Y-108295000D01*
X100859000Y-106335000D02*
X100859000Y-104879000D01*
X100819000Y-109739000D02*
X100819000Y-108295000D01*
X100819000Y-106335000D02*
X100819000Y-104891000D01*
X100779000Y-109725000D02*
X100779000Y-108295000D01*
X100779000Y-106335000D02*
X100779000Y-104905000D01*
X100739000Y-109711000D02*
X100739000Y-108295000D01*
X100739000Y-106335000D02*
X100739000Y-104919000D01*
X100699000Y-109697000D02*
X100699000Y-108295000D01*
X100699000Y-106335000D02*
X100699000Y-104933000D01*
X100659000Y-109681000D02*
X100659000Y-108295000D01*
X100659000Y-106335000D02*
X100659000Y-104949000D01*
X100619000Y-109665000D02*
X100619000Y-108295000D01*
X100619000Y-106335000D02*
X100619000Y-104965000D01*
X100579000Y-109648000D02*
X100579000Y-108295000D01*
X100579000Y-106335000D02*
X100579000Y-104982000D01*
X100539000Y-109630000D02*
X100539000Y-108295000D01*
X100539000Y-106335000D02*
X100539000Y-105000000D01*
X100499000Y-109611000D02*
X100499000Y-108295000D01*
X100499000Y-106335000D02*
X100499000Y-105019000D01*
X100459000Y-109591000D02*
X100459000Y-108295000D01*
X100459000Y-106335000D02*
X100459000Y-105039000D01*
X100419000Y-109571000D02*
X100419000Y-108295000D01*
X100419000Y-106335000D02*
X100419000Y-105059000D01*
X100379000Y-109549000D02*
X100379000Y-108295000D01*
X100379000Y-106335000D02*
X100379000Y-105081000D01*
X100339000Y-109527000D02*
X100339000Y-108295000D01*
X100339000Y-106335000D02*
X100339000Y-105103000D01*
X100299000Y-109504000D02*
X100299000Y-108295000D01*
X100299000Y-106335000D02*
X100299000Y-105126000D01*
X100259000Y-109480000D02*
X100259000Y-108295000D01*
X100259000Y-106335000D02*
X100259000Y-105150000D01*
X100219000Y-109455000D02*
X100219000Y-108295000D01*
X100219000Y-106335000D02*
X100219000Y-105175000D01*
X100179000Y-109428000D02*
X100179000Y-108295000D01*
X100179000Y-106335000D02*
X100179000Y-105202000D01*
X100139000Y-109401000D02*
X100139000Y-108295000D01*
X100139000Y-106335000D02*
X100139000Y-105229000D01*
X100099000Y-109373000D02*
X100099000Y-108295000D01*
X100099000Y-106335000D02*
X100099000Y-105257000D01*
X100059000Y-109343000D02*
X100059000Y-108295000D01*
X100059000Y-106335000D02*
X100059000Y-105287000D01*
X100019000Y-109312000D02*
X100019000Y-108295000D01*
X100019000Y-106335000D02*
X100019000Y-105318000D01*
X99979000Y-109280000D02*
X99979000Y-108295000D01*
X99979000Y-106335000D02*
X99979000Y-105350000D01*
X99939000Y-109247000D02*
X99939000Y-108295000D01*
X99939000Y-106335000D02*
X99939000Y-105383000D01*
X99899000Y-109212000D02*
X99899000Y-108295000D01*
X99899000Y-106335000D02*
X99899000Y-105418000D01*
X99859000Y-109176000D02*
X99859000Y-108295000D01*
X99859000Y-106335000D02*
X99859000Y-105454000D01*
X99819000Y-109138000D02*
X99819000Y-108295000D01*
X99819000Y-106335000D02*
X99819000Y-105492000D01*
X99779000Y-109098000D02*
X99779000Y-108295000D01*
X99779000Y-106335000D02*
X99779000Y-105532000D01*
X99739000Y-109057000D02*
X99739000Y-108295000D01*
X99739000Y-106335000D02*
X99739000Y-105573000D01*
X99699000Y-109014000D02*
X99699000Y-108295000D01*
X99699000Y-106335000D02*
X99699000Y-105616000D01*
X99659000Y-108969000D02*
X99659000Y-108295000D01*
X99659000Y-106335000D02*
X99659000Y-105661000D01*
X99619000Y-108921000D02*
X99619000Y-108295000D01*
X99619000Y-106335000D02*
X99619000Y-105709000D01*
X99579000Y-108871000D02*
X99579000Y-108295000D01*
X99579000Y-106335000D02*
X99579000Y-105759000D01*
X99539000Y-108819000D02*
X99539000Y-108295000D01*
X99539000Y-106335000D02*
X99539000Y-105811000D01*
X99499000Y-108763000D02*
X99499000Y-108295000D01*
X99499000Y-106335000D02*
X99499000Y-105867000D01*
X99459000Y-108705000D02*
X99459000Y-108295000D01*
X99459000Y-106335000D02*
X99459000Y-105925000D01*
X99419000Y-108642000D02*
X99419000Y-108295000D01*
X99419000Y-106335000D02*
X99419000Y-105988000D01*
X99379000Y-108576000D02*
X99379000Y-106054000D01*
X99339000Y-108504000D02*
X99339000Y-106126000D01*
X99299000Y-108427000D02*
X99299000Y-106203000D01*
X99259000Y-108343000D02*
X99259000Y-106287000D01*
X99219000Y-108249000D02*
X99219000Y-106381000D01*
X99179000Y-108144000D02*
X99179000Y-106486000D01*
X99139000Y-108022000D02*
X99139000Y-106608000D01*
X99099000Y-107874000D02*
X99099000Y-106756000D01*
X99059000Y-107669000D02*
X99059000Y-106961000D01*
X105070000Y-107315000D02*
X103870000Y-107315000D01*
X104470000Y-107965000D02*
X104470000Y-106665000D01*
X80644538Y-141420000D02*
G75*
G03X82189830Y-135870000I462J2990000D01*
G01*
X80645462Y-141420000D02*
G75*
G02X79100170Y-135870000I-462J2990000D01*
G01*
X83145000Y-138430000D02*
G75*
G03X83145000Y-138430000I-2500000J0D01*
G01*
X82190000Y-135870000D02*
X79100000Y-135870000D01*
X139665000Y-126325000D02*
X139665000Y-128945000D01*
X139665000Y-128945000D02*
X146085000Y-128945000D01*
X146085000Y-128945000D02*
X146085000Y-126325000D01*
X146085000Y-126325000D02*
X139665000Y-126325000D01*
X138775000Y-127635000D02*
X139665000Y-127635000D01*
X146975000Y-127635000D02*
X146085000Y-127635000D01*
D11*
X80772000Y-82931000D02*
X78740000Y-82931000D01*
X78740000Y-82931000D02*
X78740000Y-79375000D01*
X78740000Y-79375000D02*
X86360000Y-79375000D01*
X86360000Y-79375000D02*
X86360000Y-82931000D01*
X86360000Y-82931000D02*
X84328000Y-82931000D01*
X77470000Y-78359000D02*
X76454000Y-78359000D01*
X88646000Y-78359000D02*
X87630000Y-78359000D01*
X80010000Y-76327000D02*
X80010000Y-77851000D01*
X85090000Y-77851000D02*
X85090000Y-76327000D01*
X80010000Y-77089000D02*
X85090000Y-77089000D01*
X77470000Y-78359000D02*
X77470000Y-78105000D01*
X77470000Y-78105000D02*
X77470000Y-77851000D01*
X77470000Y-77851000D02*
X87630000Y-77851000D01*
X87630000Y-77851000D02*
X87630000Y-78359000D01*
X80010000Y-76327000D02*
X85090000Y-76327000D01*
X76454000Y-90551000D02*
X76454000Y-78359000D01*
X88646000Y-78359000D02*
X88646000Y-90551000D01*
X88646000Y-90551000D02*
X76454000Y-90551000D01*
D12*
X160019538Y-141420000D02*
G75*
G03X161564830Y-135870000I462J2990000D01*
G01*
X160020462Y-141420000D02*
G75*
G02X158475170Y-135870000I-462J2990000D01*
G01*
X162520000Y-138430000D02*
G75*
G03X162520000Y-138430000I-2500000J0D01*
G01*
X161565000Y-135870000D02*
X158475000Y-135870000D01*
X139665000Y-122515000D02*
X139665000Y-125135000D01*
X139665000Y-125135000D02*
X146085000Y-125135000D01*
X146085000Y-125135000D02*
X146085000Y-122515000D01*
X146085000Y-122515000D02*
X139665000Y-122515000D01*
X138775000Y-123825000D02*
X139665000Y-123825000D01*
X146975000Y-123825000D02*
X146085000Y-123825000D01*
X166945000Y-119440000D02*
X169605000Y-119440000D01*
X166945000Y-114300000D02*
X166945000Y-119440000D01*
X169605000Y-114300000D02*
X169605000Y-119440000D01*
X166945000Y-114300000D02*
X169605000Y-114300000D01*
X166945000Y-113030000D02*
X166945000Y-111700000D01*
X166945000Y-111700000D02*
X168275000Y-111700000D01*
X139105000Y-110455000D02*
X136485000Y-110455000D01*
X136485000Y-110455000D02*
X136485000Y-116875000D01*
X136485000Y-116875000D02*
X139105000Y-116875000D01*
X139105000Y-116875000D02*
X139105000Y-110455000D01*
X137795000Y-109565000D02*
X137795000Y-110455000D01*
X137795000Y-117765000D02*
X137795000Y-116875000D01*
X142915000Y-110455000D02*
X140295000Y-110455000D01*
X140295000Y-110455000D02*
X140295000Y-116875000D01*
X140295000Y-116875000D02*
X142915000Y-116875000D01*
X142915000Y-116875000D02*
X142915000Y-110455000D01*
X141605000Y-109565000D02*
X141605000Y-110455000D01*
X141605000Y-117765000D02*
X141605000Y-116875000D01*
D13*
G36*
X96538908Y-137595653D02*
G01*
X96667678Y-137647817D01*
X96774590Y-137705790D01*
X96848716Y-137748672D01*
X96964528Y-137815514D01*
X97114779Y-137902140D01*
X97292224Y-138004375D01*
X97489614Y-138118044D01*
X97699705Y-138238971D01*
X97882157Y-138343946D01*
X98089420Y-138464216D01*
X98282816Y-138578434D01*
X98456437Y-138682960D01*
X98604377Y-138774154D01*
X98720728Y-138848376D01*
X98799583Y-138901987D01*
X98834657Y-138930852D01*
X98884411Y-139032950D01*
X98878984Y-139137631D01*
X98818849Y-139238050D01*
X98813056Y-139244268D01*
X98770981Y-139276908D01*
X98685861Y-139333512D01*
X98563827Y-139410335D01*
X98411008Y-139503631D01*
X98233534Y-139609653D01*
X98037534Y-139724656D01*
X97846445Y-139834985D01*
X97632735Y-139957491D01*
X97426226Y-140075994D01*
X97234090Y-140186366D01*
X97063501Y-140284484D01*
X96921634Y-140366220D01*
X96815663Y-140427449D01*
X96760337Y-140459605D01*
X96610930Y-140536847D01*
X96492405Y-140573122D01*
X96397288Y-140568877D01*
X96318106Y-140524555D01*
X96282620Y-140488057D01*
X96209556Y-140401225D01*
X96209556Y-137756998D01*
X96282620Y-137670166D01*
X96354188Y-137607393D01*
X96437014Y-137582367D01*
X96538908Y-137595653D01*
G37*
X96538908Y-137595653D02*
X96667678Y-137647817D01*
X96774590Y-137705790D01*
X96848716Y-137748672D01*
X96964528Y-137815514D01*
X97114779Y-137902140D01*
X97292224Y-138004375D01*
X97489614Y-138118044D01*
X97699705Y-138238971D01*
X97882157Y-138343946D01*
X98089420Y-138464216D01*
X98282816Y-138578434D01*
X98456437Y-138682960D01*
X98604377Y-138774154D01*
X98720728Y-138848376D01*
X98799583Y-138901987D01*
X98834657Y-138930852D01*
X98884411Y-139032950D01*
X98878984Y-139137631D01*
X98818849Y-139238050D01*
X98813056Y-139244268D01*
X98770981Y-139276908D01*
X98685861Y-139333512D01*
X98563827Y-139410335D01*
X98411008Y-139503631D01*
X98233534Y-139609653D01*
X98037534Y-139724656D01*
X97846445Y-139834985D01*
X97632735Y-139957491D01*
X97426226Y-140075994D01*
X97234090Y-140186366D01*
X97063501Y-140284484D01*
X96921634Y-140366220D01*
X96815663Y-140427449D01*
X96760337Y-140459605D01*
X96610930Y-140536847D01*
X96492405Y-140573122D01*
X96397288Y-140568877D01*
X96318106Y-140524555D01*
X96282620Y-140488057D01*
X96209556Y-140401225D01*
X96209556Y-137756998D01*
X96282620Y-137670166D01*
X96354188Y-137607393D01*
X96437014Y-137582367D01*
X96538908Y-137595653D01*
G36*
X113784162Y-137627047D02*
G01*
X113941687Y-137735139D01*
X114057341Y-137880905D01*
X114120182Y-138028135D01*
X114132565Y-138099607D01*
X114142771Y-138218511D01*
X114150807Y-138375879D01*
X114156677Y-138562741D01*
X114160387Y-138770126D01*
X114161943Y-138989066D01*
X114161350Y-139210590D01*
X114158613Y-139425730D01*
X114153738Y-139625515D01*
X114146731Y-139800977D01*
X114137597Y-139943145D01*
X114126341Y-140043050D01*
X114118935Y-140077787D01*
X114042715Y-140249619D01*
X113927007Y-140382723D01*
X113787248Y-140473194D01*
X113639807Y-140546667D01*
X112650515Y-140544439D01*
X112369608Y-140542939D01*
X112124470Y-140539858D01*
X111919102Y-140535314D01*
X111757502Y-140529426D01*
X111643670Y-140522312D01*
X111581605Y-140514091D01*
X111576556Y-140512615D01*
X111423728Y-140430563D01*
X111291881Y-140302254D01*
X111231463Y-140214100D01*
X111153223Y-140081000D01*
X111144794Y-139115449D01*
X111143200Y-138823625D01*
X111143806Y-138572267D01*
X111146547Y-138364638D01*
X111151359Y-138203999D01*
X111158178Y-138093612D01*
X111165877Y-138040299D01*
X111237375Y-137876534D01*
X111351970Y-137735661D01*
X111497411Y-137632303D01*
X111514738Y-137623865D01*
X111554550Y-137605792D01*
X111592475Y-137591230D01*
X111634837Y-137579798D01*
X111687959Y-137571116D01*
X111758164Y-137564802D01*
X111851775Y-137560474D01*
X111975114Y-137557752D01*
X112134504Y-137556254D01*
X112336269Y-137555599D01*
X112586731Y-137555406D01*
X112650515Y-137555387D01*
X113639807Y-137555112D01*
X113784162Y-137627047D01*
G37*
X113784162Y-137627047D02*
X113941687Y-137735139D01*
X114057341Y-137880905D01*
X114120182Y-138028135D01*
X114132565Y-138099607D01*
X114142771Y-138218511D01*
X114150807Y-138375879D01*
X114156677Y-138562741D01*
X114160387Y-138770126D01*
X114161943Y-138989066D01*
X114161350Y-139210590D01*
X114158613Y-139425730D01*
X114153738Y-139625515D01*
X114146731Y-139800977D01*
X114137597Y-139943145D01*
X114126341Y-140043050D01*
X114118935Y-140077787D01*
X114042715Y-140249619D01*
X113927007Y-140382723D01*
X113787248Y-140473194D01*
X113639807Y-140546667D01*
X112650515Y-140544439D01*
X112369608Y-140542939D01*
X112124470Y-140539858D01*
X111919102Y-140535314D01*
X111757502Y-140529426D01*
X111643670Y-140522312D01*
X111581605Y-140514091D01*
X111576556Y-140512615D01*
X111423728Y-140430563D01*
X111291881Y-140302254D01*
X111231463Y-140214100D01*
X111153223Y-140081000D01*
X111144794Y-139115449D01*
X111143200Y-138823625D01*
X111143806Y-138572267D01*
X111146547Y-138364638D01*
X111151359Y-138203999D01*
X111158178Y-138093612D01*
X111165877Y-138040299D01*
X111237375Y-137876534D01*
X111351970Y-137735661D01*
X111497411Y-137632303D01*
X111514738Y-137623865D01*
X111554550Y-137605792D01*
X111592475Y-137591230D01*
X111634837Y-137579798D01*
X111687959Y-137571116D01*
X111758164Y-137564802D01*
X111851775Y-137560474D01*
X111975114Y-137557752D01*
X112134504Y-137556254D01*
X112336269Y-137555599D01*
X112586731Y-137555406D01*
X112650515Y-137555387D01*
X113639807Y-137555112D01*
X113784162Y-137627047D01*
G36*
X128507520Y-140156215D02*
G01*
X128737922Y-140158236D01*
X128923092Y-140161932D01*
X129059818Y-140167249D01*
X129144890Y-140174134D01*
X129166625Y-140178032D01*
X129253508Y-140217104D01*
X129342720Y-140280424D01*
X129369261Y-140305327D01*
X129430907Y-140379905D01*
X129462536Y-140455954D01*
X129475674Y-140552817D01*
X129464480Y-140706427D01*
X129404852Y-140831704D01*
X129295184Y-140931830D01*
X129279203Y-140941931D01*
X129254616Y-140955588D01*
X129226275Y-140966831D01*
X129188787Y-140975893D01*
X129136758Y-140983010D01*
X129064793Y-140988414D01*
X128967498Y-140992341D01*
X128839481Y-140995024D01*
X128675347Y-140996699D01*
X128469702Y-140997598D01*
X128217153Y-140997957D01*
X127987778Y-140998012D01*
X127695511Y-140997909D01*
X127454295Y-140997446D01*
X127258735Y-140996389D01*
X127103438Y-140994502D01*
X126983009Y-140991551D01*
X126892056Y-140987303D01*
X126825184Y-140981524D01*
X126776998Y-140973978D01*
X126742107Y-140964432D01*
X126715114Y-140952651D01*
X126696354Y-140941931D01*
X126580195Y-140843340D01*
X126514490Y-140719502D01*
X126498705Y-140569375D01*
X126499385Y-140558811D01*
X126531576Y-140409619D01*
X126606819Y-140293585D01*
X126703667Y-140217438D01*
X126728521Y-140204425D01*
X126760165Y-140193693D01*
X126804106Y-140184971D01*
X126865850Y-140177989D01*
X126950905Y-140172475D01*
X127064776Y-140168158D01*
X127212972Y-140164768D01*
X127400998Y-140162034D01*
X127634361Y-140159684D01*
X127918568Y-140157449D01*
X127923857Y-140157410D01*
X128235094Y-140155922D01*
X128507520Y-140156215D01*
G37*
X128507520Y-140156215D02*
X128737922Y-140158236D01*
X128923092Y-140161932D01*
X129059818Y-140167249D01*
X129144890Y-140174134D01*
X129166625Y-140178032D01*
X129253508Y-140217104D01*
X129342720Y-140280424D01*
X129369261Y-140305327D01*
X129430907Y-140379905D01*
X129462536Y-140455954D01*
X129475674Y-140552817D01*
X129464480Y-140706427D01*
X129404852Y-140831704D01*
X129295184Y-140931830D01*
X129279203Y-140941931D01*
X129254616Y-140955588D01*
X129226275Y-140966831D01*
X129188787Y-140975893D01*
X129136758Y-140983010D01*
X129064793Y-140988414D01*
X128967498Y-140992341D01*
X128839481Y-140995024D01*
X128675347Y-140996699D01*
X128469702Y-140997598D01*
X128217153Y-140997957D01*
X127987778Y-140998012D01*
X127695511Y-140997909D01*
X127454295Y-140997446D01*
X127258735Y-140996389D01*
X127103438Y-140994502D01*
X126983009Y-140991551D01*
X126892056Y-140987303D01*
X126825184Y-140981524D01*
X126776998Y-140973978D01*
X126742107Y-140964432D01*
X126715114Y-140952651D01*
X126696354Y-140941931D01*
X126580195Y-140843340D01*
X126514490Y-140719502D01*
X126498705Y-140569375D01*
X126499385Y-140558811D01*
X126531576Y-140409619D01*
X126606819Y-140293585D01*
X126703667Y-140217438D01*
X126728521Y-140204425D01*
X126760165Y-140193693D01*
X126804106Y-140184971D01*
X126865850Y-140177989D01*
X126950905Y-140172475D01*
X127064776Y-140168158D01*
X127212972Y-140164768D01*
X127400998Y-140162034D01*
X127634361Y-140159684D01*
X127918568Y-140157449D01*
X127923857Y-140157410D01*
X128235094Y-140155922D01*
X128507520Y-140156215D01*
G36*
X128007987Y-137338069D02*
G01*
X128109114Y-137392559D01*
X128125241Y-137406945D01*
X128158163Y-137449157D01*
X128215015Y-137534348D01*
X128292006Y-137656330D01*
X128385341Y-137808913D01*
X128491230Y-137985908D01*
X128605879Y-138181128D01*
X128708920Y-138359445D01*
X128831067Y-138572359D01*
X128949606Y-138778865D01*
X129060286Y-138971569D01*
X129158858Y-139143077D01*
X129241075Y-139285995D01*
X129302685Y-139392931D01*
X129333012Y-139445410D01*
X129409569Y-139591347D01*
X129448495Y-139705449D01*
X129450575Y-139797238D01*
X129416594Y-139876231D01*
X129372838Y-139927949D01*
X129290342Y-140010445D01*
X126637442Y-140010445D01*
X126550610Y-139937381D01*
X126513730Y-139904766D01*
X126485669Y-139872482D01*
X126468179Y-139836112D01*
X126463010Y-139791243D01*
X126471916Y-139733457D01*
X126496647Y-139658342D01*
X126538955Y-139561480D01*
X126600593Y-139438457D01*
X126683311Y-139284858D01*
X126788862Y-139096267D01*
X126918997Y-138868270D01*
X127075468Y-138596451D01*
X127098391Y-138556700D01*
X127231724Y-138326870D01*
X127358752Y-138110500D01*
X127476263Y-137912877D01*
X127581045Y-137739287D01*
X127669886Y-137595016D01*
X127739575Y-137485350D01*
X127786900Y-137415577D01*
X127805521Y-137392834D01*
X127904345Y-137338052D01*
X128007987Y-137338069D01*
G37*
X128007987Y-137338069D02*
X128109114Y-137392559D01*
X128125241Y-137406945D01*
X128158163Y-137449157D01*
X128215015Y-137534348D01*
X128292006Y-137656330D01*
X128385341Y-137808913D01*
X128491230Y-137985908D01*
X128605879Y-138181128D01*
X128708920Y-138359445D01*
X128831067Y-138572359D01*
X128949606Y-138778865D01*
X129060286Y-138971569D01*
X129158858Y-139143077D01*
X129241075Y-139285995D01*
X129302685Y-139392931D01*
X129333012Y-139445410D01*
X129409569Y-139591347D01*
X129448495Y-139705449D01*
X129450575Y-139797238D01*
X129416594Y-139876231D01*
X129372838Y-139927949D01*
X129290342Y-140010445D01*
X126637442Y-140010445D01*
X126550610Y-139937381D01*
X126513730Y-139904766D01*
X126485669Y-139872482D01*
X126468179Y-139836112D01*
X126463010Y-139791243D01*
X126471916Y-139733457D01*
X126496647Y-139658342D01*
X126538955Y-139561480D01*
X126600593Y-139438457D01*
X126683311Y-139284858D01*
X126788862Y-139096267D01*
X126918997Y-138868270D01*
X127075468Y-138596451D01*
X127098391Y-138556700D01*
X127231724Y-138326870D01*
X127358752Y-138110500D01*
X127476263Y-137912877D01*
X127581045Y-137739287D01*
X127669886Y-137595016D01*
X127739575Y-137485350D01*
X127786900Y-137415577D01*
X127805521Y-137392834D01*
X127904345Y-137338052D01*
X128007987Y-137338069D01*
D12*
X114240000Y-105470000D02*
X114240000Y-104140000D01*
X115570000Y-105470000D02*
X114240000Y-105470000D01*
X114240000Y-102870000D02*
X114240000Y-100270000D01*
X116840000Y-102870000D02*
X114240000Y-102870000D01*
X116840000Y-105470000D02*
X116840000Y-102870000D01*
X114240000Y-100270000D02*
X129600000Y-100270000D01*
X116840000Y-105470000D02*
X129600000Y-105470000D01*
X129600000Y-105470000D02*
X129600000Y-100270000D01*
D11*
X123825000Y-78105000D02*
X123825000Y-77470000D01*
X123825000Y-77470000D02*
X125730000Y-77470000D01*
X125730000Y-77470000D02*
X125730000Y-78105000D01*
X126365000Y-78105000D02*
X116205000Y-78105000D01*
X116205000Y-78105000D02*
X116205000Y-91440000D01*
X116205000Y-91440000D02*
X126365000Y-91440000D01*
X126365000Y-91440000D02*
X126365000Y-78105000D01*
D12*
X124739691Y-88895704D02*
G75*
G02X124780000Y-91205000I40309J-1154296D01*
G01*
X124800121Y-91204052D02*
G75*
G02X123651000Y-89810000I-20121J1154052D01*
G01*
X125656000Y-89316000D02*
X124045000Y-90926000D01*
X125516000Y-89175000D02*
X123904000Y-90785000D01*
X98365000Y-81340000D02*
X98365000Y-80010000D01*
X99695000Y-81340000D02*
X98365000Y-81340000D01*
X100965000Y-81340000D02*
X100965000Y-78680000D01*
X100965000Y-78680000D02*
X106105000Y-78680000D01*
X100965000Y-81340000D02*
X106105000Y-81340000D01*
X106105000Y-81340000D02*
X106105000Y-78680000D01*
D11*
X74215714Y-112561666D02*
X74691904Y-112561666D01*
X74120476Y-112847380D02*
X74453809Y-111847380D01*
X74787142Y-112847380D01*
X75072857Y-111942619D02*
X75120476Y-111895000D01*
X75215714Y-111847380D01*
X75453809Y-111847380D01*
X75549047Y-111895000D01*
X75596666Y-111942619D01*
X75644285Y-112037857D01*
X75644285Y-112133095D01*
X75596666Y-112275952D01*
X75025238Y-112847380D01*
X75644285Y-112847380D01*
D10*
X74225952Y-114661904D02*
X74225952Y-113861904D01*
X74492619Y-114433333D01*
X74759285Y-113861904D01*
X74759285Y-114661904D01*
X75140238Y-114661904D02*
X75140238Y-114128571D01*
X75140238Y-113861904D02*
X75102142Y-113900000D01*
X75140238Y-113938095D01*
X75178333Y-113900000D01*
X75140238Y-113861904D01*
X75140238Y-113938095D01*
X75864047Y-114623809D02*
X75787857Y-114661904D01*
X75635476Y-114661904D01*
X75559285Y-114623809D01*
X75521190Y-114585714D01*
X75483095Y-114509523D01*
X75483095Y-114280952D01*
X75521190Y-114204761D01*
X75559285Y-114166666D01*
X75635476Y-114128571D01*
X75787857Y-114128571D01*
X75864047Y-114166666D01*
X76206904Y-114661904D02*
X76206904Y-114128571D01*
X76206904Y-114280952D02*
X76245000Y-114204761D01*
X76283095Y-114166666D01*
X76359285Y-114128571D01*
X76435476Y-114128571D01*
X76816428Y-114661904D02*
X76740238Y-114623809D01*
X76702142Y-114585714D01*
X76664047Y-114509523D01*
X76664047Y-114280952D01*
X76702142Y-114204761D01*
X76740238Y-114166666D01*
X76816428Y-114128571D01*
X76930714Y-114128571D01*
X77006904Y-114166666D01*
X77045000Y-114204761D01*
X77083095Y-114280952D01*
X77083095Y-114509523D01*
X77045000Y-114585714D01*
X77006904Y-114623809D01*
X76930714Y-114661904D01*
X76816428Y-114661904D01*
X77387857Y-114623809D02*
X77502142Y-114661904D01*
X77692619Y-114661904D01*
X77768809Y-114623809D01*
X77806904Y-114585714D01*
X77845000Y-114509523D01*
X77845000Y-114433333D01*
X77806904Y-114357142D01*
X77768809Y-114319047D01*
X77692619Y-114280952D01*
X77540238Y-114242857D01*
X77464047Y-114204761D01*
X77425952Y-114166666D01*
X77387857Y-114090476D01*
X77387857Y-114014285D01*
X77425952Y-113938095D01*
X77464047Y-113900000D01*
X77540238Y-113861904D01*
X77730714Y-113861904D01*
X77845000Y-113900000D01*
X78187857Y-114661904D02*
X78187857Y-113861904D01*
X78378333Y-113861904D01*
X78492619Y-113900000D01*
X78568809Y-113976190D01*
X78606904Y-114052380D01*
X78645000Y-114204761D01*
X78645000Y-114319047D01*
X78606904Y-114471428D01*
X78568809Y-114547619D01*
X78492619Y-114623809D01*
X78378333Y-114661904D01*
X78187857Y-114661904D01*
X80054523Y-114585714D02*
X80016428Y-114623809D01*
X79902142Y-114661904D01*
X79825952Y-114661904D01*
X79711666Y-114623809D01*
X79635476Y-114547619D01*
X79597380Y-114471428D01*
X79559285Y-114319047D01*
X79559285Y-114204761D01*
X79597380Y-114052380D01*
X79635476Y-113976190D01*
X79711666Y-113900000D01*
X79825952Y-113861904D01*
X79902142Y-113861904D01*
X80016428Y-113900000D01*
X80054523Y-113938095D01*
X80740238Y-114661904D02*
X80740238Y-114242857D01*
X80702142Y-114166666D01*
X80625952Y-114128571D01*
X80473571Y-114128571D01*
X80397380Y-114166666D01*
X80740238Y-114623809D02*
X80664047Y-114661904D01*
X80473571Y-114661904D01*
X80397380Y-114623809D01*
X80359285Y-114547619D01*
X80359285Y-114471428D01*
X80397380Y-114395238D01*
X80473571Y-114357142D01*
X80664047Y-114357142D01*
X80740238Y-114319047D01*
X81121190Y-114661904D02*
X81121190Y-114128571D01*
X81121190Y-114280952D02*
X81159285Y-114204761D01*
X81197380Y-114166666D01*
X81273571Y-114128571D01*
X81349761Y-114128571D01*
X81959285Y-114661904D02*
X81959285Y-113861904D01*
X81959285Y-114623809D02*
X81883095Y-114661904D01*
X81730714Y-114661904D01*
X81654523Y-114623809D01*
X81616428Y-114585714D01*
X81578333Y-114509523D01*
X81578333Y-114280952D01*
X81616428Y-114204761D01*
X81654523Y-114166666D01*
X81730714Y-114128571D01*
X81883095Y-114128571D01*
X81959285Y-114166666D01*
X82911666Y-114433333D02*
X83292619Y-114433333D01*
X82835476Y-114661904D02*
X83102142Y-113861904D01*
X83368809Y-114661904D01*
X83978333Y-114661904D02*
X83978333Y-113861904D01*
X83978333Y-114623809D02*
X83902142Y-114661904D01*
X83749761Y-114661904D01*
X83673571Y-114623809D01*
X83635476Y-114585714D01*
X83597380Y-114509523D01*
X83597380Y-114280952D01*
X83635476Y-114204761D01*
X83673571Y-114166666D01*
X83749761Y-114128571D01*
X83902142Y-114128571D01*
X83978333Y-114166666D01*
X84702142Y-114661904D02*
X84702142Y-114242857D01*
X84664047Y-114166666D01*
X84587857Y-114128571D01*
X84435476Y-114128571D01*
X84359285Y-114166666D01*
X84702142Y-114623809D02*
X84625952Y-114661904D01*
X84435476Y-114661904D01*
X84359285Y-114623809D01*
X84321190Y-114547619D01*
X84321190Y-114471428D01*
X84359285Y-114395238D01*
X84435476Y-114357142D01*
X84625952Y-114357142D01*
X84702142Y-114319047D01*
X85083095Y-114128571D02*
X85083095Y-114928571D01*
X85083095Y-114166666D02*
X85159285Y-114128571D01*
X85311666Y-114128571D01*
X85387857Y-114166666D01*
X85425952Y-114204761D01*
X85464047Y-114280952D01*
X85464047Y-114509523D01*
X85425952Y-114585714D01*
X85387857Y-114623809D01*
X85311666Y-114661904D01*
X85159285Y-114661904D01*
X85083095Y-114623809D01*
X85692619Y-114128571D02*
X85997380Y-114128571D01*
X85806904Y-113861904D02*
X85806904Y-114547619D01*
X85845000Y-114623809D01*
X85921190Y-114661904D01*
X85997380Y-114661904D01*
X86568809Y-114623809D02*
X86492619Y-114661904D01*
X86340238Y-114661904D01*
X86264047Y-114623809D01*
X86225952Y-114547619D01*
X86225952Y-114242857D01*
X86264047Y-114166666D01*
X86340238Y-114128571D01*
X86492619Y-114128571D01*
X86568809Y-114166666D01*
X86606904Y-114242857D01*
X86606904Y-114319047D01*
X86225952Y-114395238D01*
X86949761Y-114661904D02*
X86949761Y-114128571D01*
X86949761Y-114280952D02*
X86987857Y-114204761D01*
X87025952Y-114166666D01*
X87102142Y-114128571D01*
X87178333Y-114128571D01*
D14*
X105276666Y-129190714D02*
X105238571Y-129228809D01*
X105124285Y-129266904D01*
X105048095Y-129266904D01*
X104933809Y-129228809D01*
X104857619Y-129152619D01*
X104819523Y-129076428D01*
X104781428Y-128924047D01*
X104781428Y-128809761D01*
X104819523Y-128657380D01*
X104857619Y-128581190D01*
X104933809Y-128505000D01*
X105048095Y-128466904D01*
X105124285Y-128466904D01*
X105238571Y-128505000D01*
X105276666Y-128543095D01*
X105581428Y-129228809D02*
X105695714Y-129266904D01*
X105886190Y-129266904D01*
X105962380Y-129228809D01*
X106000476Y-129190714D01*
X106038571Y-129114523D01*
X106038571Y-129038333D01*
X106000476Y-128962142D01*
X105962380Y-128924047D01*
X105886190Y-128885952D01*
X105733809Y-128847857D01*
X105657619Y-128809761D01*
X105619523Y-128771666D01*
X105581428Y-128695476D01*
X105581428Y-128619285D01*
X105619523Y-128543095D01*
X105657619Y-128505000D01*
X105733809Y-128466904D01*
X105924285Y-128466904D01*
X106038571Y-128505000D01*
X104381428Y-126688809D02*
X104495714Y-126726904D01*
X104686190Y-126726904D01*
X104762380Y-126688809D01*
X104800476Y-126650714D01*
X104838571Y-126574523D01*
X104838571Y-126498333D01*
X104800476Y-126422142D01*
X104762380Y-126384047D01*
X104686190Y-126345952D01*
X104533809Y-126307857D01*
X104457619Y-126269761D01*
X104419523Y-126231666D01*
X104381428Y-126155476D01*
X104381428Y-126079285D01*
X104419523Y-126003095D01*
X104457619Y-125965000D01*
X104533809Y-125926904D01*
X104724285Y-125926904D01*
X104838571Y-125965000D01*
X105638571Y-126650714D02*
X105600476Y-126688809D01*
X105486190Y-126726904D01*
X105410000Y-126726904D01*
X105295714Y-126688809D01*
X105219523Y-126612619D01*
X105181428Y-126536428D01*
X105143333Y-126384047D01*
X105143333Y-126269761D01*
X105181428Y-126117380D01*
X105219523Y-126041190D01*
X105295714Y-125965000D01*
X105410000Y-125926904D01*
X105486190Y-125926904D01*
X105600476Y-125965000D01*
X105638571Y-126003095D01*
X105981428Y-126726904D02*
X105981428Y-125926904D01*
X106438571Y-126726904D02*
X106095714Y-126269761D01*
X106438571Y-125926904D02*
X105981428Y-126384047D01*
X104152857Y-124186904D02*
X104152857Y-123386904D01*
X104419523Y-123958333D01*
X104686190Y-123386904D01*
X104686190Y-124186904D01*
X105219523Y-123386904D02*
X105371904Y-123386904D01*
X105448095Y-123425000D01*
X105524285Y-123501190D01*
X105562380Y-123653571D01*
X105562380Y-123920238D01*
X105524285Y-124072619D01*
X105448095Y-124148809D01*
X105371904Y-124186904D01*
X105219523Y-124186904D01*
X105143333Y-124148809D01*
X105067142Y-124072619D01*
X105029047Y-123920238D01*
X105029047Y-123653571D01*
X105067142Y-123501190D01*
X105143333Y-123425000D01*
X105219523Y-123386904D01*
X105867142Y-124148809D02*
X105981428Y-124186904D01*
X106171904Y-124186904D01*
X106248095Y-124148809D01*
X106286190Y-124110714D01*
X106324285Y-124034523D01*
X106324285Y-123958333D01*
X106286190Y-123882142D01*
X106248095Y-123844047D01*
X106171904Y-123805952D01*
X106019523Y-123767857D01*
X105943333Y-123729761D01*
X105905238Y-123691666D01*
X105867142Y-123615476D01*
X105867142Y-123539285D01*
X105905238Y-123463095D01*
X105943333Y-123425000D01*
X106019523Y-123386904D01*
X106210000Y-123386904D01*
X106324285Y-123425000D01*
X106667142Y-124186904D02*
X106667142Y-123386904D01*
X104152857Y-121646904D02*
X104152857Y-120846904D01*
X104419523Y-121418333D01*
X104686190Y-120846904D01*
X104686190Y-121646904D01*
X105067142Y-121646904D02*
X105067142Y-120846904D01*
X105410000Y-121608809D02*
X105524285Y-121646904D01*
X105714761Y-121646904D01*
X105790952Y-121608809D01*
X105829047Y-121570714D01*
X105867142Y-121494523D01*
X105867142Y-121418333D01*
X105829047Y-121342142D01*
X105790952Y-121304047D01*
X105714761Y-121265952D01*
X105562380Y-121227857D01*
X105486190Y-121189761D01*
X105448095Y-121151666D01*
X105410000Y-121075476D01*
X105410000Y-120999285D01*
X105448095Y-120923095D01*
X105486190Y-120885000D01*
X105562380Y-120846904D01*
X105752857Y-120846904D01*
X105867142Y-120885000D01*
X106362380Y-120846904D02*
X106514761Y-120846904D01*
X106590952Y-120885000D01*
X106667142Y-120961190D01*
X106705238Y-121113571D01*
X106705238Y-121380238D01*
X106667142Y-121532619D01*
X106590952Y-121608809D01*
X106514761Y-121646904D01*
X106362380Y-121646904D01*
X106286190Y-121608809D01*
X106210000Y-121532619D01*
X106171904Y-121380238D01*
X106171904Y-121113571D01*
X106210000Y-120961190D01*
X106286190Y-120885000D01*
X106362380Y-120846904D01*
X104343333Y-118306904D02*
X104610000Y-119106904D01*
X104876666Y-118306904D01*
X105600476Y-119030714D02*
X105562380Y-119068809D01*
X105448095Y-119106904D01*
X105371904Y-119106904D01*
X105257619Y-119068809D01*
X105181428Y-118992619D01*
X105143333Y-118916428D01*
X105105238Y-118764047D01*
X105105238Y-118649761D01*
X105143333Y-118497380D01*
X105181428Y-118421190D01*
X105257619Y-118345000D01*
X105371904Y-118306904D01*
X105448095Y-118306904D01*
X105562380Y-118345000D01*
X105600476Y-118383095D01*
X106400476Y-119030714D02*
X106362380Y-119068809D01*
X106248095Y-119106904D01*
X106171904Y-119106904D01*
X106057619Y-119068809D01*
X105981428Y-118992619D01*
X105943333Y-118916428D01*
X105905238Y-118764047D01*
X105905238Y-118649761D01*
X105943333Y-118497380D01*
X105981428Y-118421190D01*
X106057619Y-118345000D01*
X106171904Y-118306904D01*
X106248095Y-118306904D01*
X106362380Y-118345000D01*
X106400476Y-118383095D01*
X104800476Y-115805000D02*
X104724285Y-115766904D01*
X104610000Y-115766904D01*
X104495714Y-115805000D01*
X104419523Y-115881190D01*
X104381428Y-115957380D01*
X104343333Y-116109761D01*
X104343333Y-116224047D01*
X104381428Y-116376428D01*
X104419523Y-116452619D01*
X104495714Y-116528809D01*
X104610000Y-116566904D01*
X104686190Y-116566904D01*
X104800476Y-116528809D01*
X104838571Y-116490714D01*
X104838571Y-116224047D01*
X104686190Y-116224047D01*
X105181428Y-116566904D02*
X105181428Y-115766904D01*
X105638571Y-116566904D01*
X105638571Y-115766904D01*
X106019523Y-116566904D02*
X106019523Y-115766904D01*
X106210000Y-115766904D01*
X106324285Y-115805000D01*
X106400476Y-115881190D01*
X106438571Y-115957380D01*
X106476666Y-116109761D01*
X106476666Y-116224047D01*
X106438571Y-116376428D01*
X106400476Y-116452619D01*
X106324285Y-116528809D01*
X106210000Y-116566904D01*
X106019523Y-116566904D01*
D10*
X107892857Y-82435476D02*
X107930952Y-82321190D01*
X107969047Y-82283095D01*
X108045238Y-82245000D01*
X108159523Y-82245000D01*
X108235714Y-82283095D01*
X108273809Y-82321190D01*
X108311904Y-82397380D01*
X108311904Y-82702142D01*
X107511904Y-82702142D01*
X107511904Y-82435476D01*
X107550000Y-82359285D01*
X107588095Y-82321190D01*
X107664285Y-82283095D01*
X107740476Y-82283095D01*
X107816666Y-82321190D01*
X107854761Y-82359285D01*
X107892857Y-82435476D01*
X107892857Y-82702142D01*
X107930952Y-81749761D02*
X108311904Y-81749761D01*
X107511904Y-82016428D02*
X107930952Y-81749761D01*
X107511904Y-81483095D01*
X108311904Y-81216428D02*
X107511904Y-81216428D01*
X107511904Y-80911666D01*
X107550000Y-80835476D01*
X107588095Y-80797380D01*
X107664285Y-80759285D01*
X107778571Y-80759285D01*
X107854761Y-80797380D01*
X107892857Y-80835476D01*
X107930952Y-80911666D01*
X107930952Y-81216428D01*
X108083333Y-80454523D02*
X108083333Y-80073571D01*
X108311904Y-80530714D02*
X107511904Y-80264047D01*
X108311904Y-79997380D01*
X108273809Y-79768809D02*
X108311904Y-79654523D01*
X108311904Y-79464047D01*
X108273809Y-79387857D01*
X108235714Y-79349761D01*
X108159523Y-79311666D01*
X108083333Y-79311666D01*
X108007142Y-79349761D01*
X107969047Y-79387857D01*
X107930952Y-79464047D01*
X107892857Y-79616428D01*
X107854761Y-79692619D01*
X107816666Y-79730714D01*
X107740476Y-79768809D01*
X107664285Y-79768809D01*
X107588095Y-79730714D01*
X107550000Y-79692619D01*
X107511904Y-79616428D01*
X107511904Y-79425952D01*
X107550000Y-79311666D01*
X108273809Y-79006904D02*
X108311904Y-78892619D01*
X108311904Y-78702142D01*
X108273809Y-78625952D01*
X108235714Y-78587857D01*
X108159523Y-78549761D01*
X108083333Y-78549761D01*
X108007142Y-78587857D01*
X107969047Y-78625952D01*
X107930952Y-78702142D01*
X107892857Y-78854523D01*
X107854761Y-78930714D01*
X107816666Y-78968809D01*
X107740476Y-79006904D01*
X107664285Y-79006904D01*
X107588095Y-78968809D01*
X107550000Y-78930714D01*
X107511904Y-78854523D01*
X107511904Y-78664047D01*
X107550000Y-78549761D01*
D11*
X92443333Y-79571904D02*
X92443333Y-80143333D01*
X92405238Y-80257619D01*
X92329047Y-80333809D01*
X92214761Y-80371904D01*
X92138571Y-80371904D01*
X93243333Y-80371904D02*
X92786190Y-80371904D01*
X93014761Y-80371904D02*
X93014761Y-79571904D01*
X92938571Y-79686190D01*
X92862380Y-79762380D01*
X92786190Y-79800476D01*
D10*
X92281428Y-81551428D02*
X92081428Y-81265714D01*
X91938571Y-81551428D02*
X91938571Y-80951428D01*
X92167142Y-80951428D01*
X92224285Y-80980000D01*
X92252857Y-81008571D01*
X92281428Y-81065714D01*
X92281428Y-81151428D01*
X92252857Y-81208571D01*
X92224285Y-81237142D01*
X92167142Y-81265714D01*
X91938571Y-81265714D01*
X92538571Y-81237142D02*
X92738571Y-81237142D01*
X92824285Y-81551428D02*
X92538571Y-81551428D01*
X92538571Y-80951428D01*
X92824285Y-80951428D01*
X93081428Y-81551428D02*
X93081428Y-80951428D01*
X93281428Y-81380000D01*
X93481428Y-80951428D01*
X93481428Y-81551428D01*
D11*
X83505502Y-96662904D02*
X83326931Y-96567666D01*
X83243598Y-96472428D01*
X83172169Y-96281952D01*
X83184074Y-96186714D01*
X83303122Y-95996238D01*
X83410264Y-95901000D01*
X83612645Y-95805761D01*
X83993598Y-95805761D01*
X84172169Y-95901000D01*
X84255502Y-95996238D01*
X84326931Y-96186714D01*
X84315026Y-96281952D01*
X84195979Y-96472428D01*
X84088836Y-96567666D01*
X83886455Y-96662904D01*
X83505502Y-96662904D01*
X83303122Y-96758142D01*
X83195979Y-96853380D01*
X83076931Y-97043857D01*
X83029312Y-97424809D01*
X83100741Y-97615285D01*
X83184074Y-97710523D01*
X83362645Y-97805761D01*
X83743598Y-97805761D01*
X83945979Y-97710523D01*
X84053122Y-97615285D01*
X84172169Y-97424809D01*
X84219788Y-97043857D01*
X84148360Y-96853380D01*
X84065026Y-96758142D01*
X83886455Y-96662904D01*
X85779312Y-96758142D02*
X86053122Y-96853380D01*
X86136455Y-96948619D01*
X86207883Y-97139095D01*
X86172169Y-97424809D01*
X86053122Y-97615285D01*
X85945979Y-97710523D01*
X85743598Y-97805761D01*
X84981693Y-97805761D01*
X85231693Y-95805761D01*
X85898360Y-95805761D01*
X86076931Y-95901000D01*
X86160264Y-95996238D01*
X86231693Y-96186714D01*
X86207883Y-96377190D01*
X86088836Y-96567666D01*
X85981693Y-96662904D01*
X85779312Y-96758142D01*
X85112645Y-96758142D01*
X86981693Y-97805761D02*
X87231693Y-95805761D01*
X87898360Y-95805761D02*
X89041217Y-95805761D01*
X88219788Y-97805761D02*
X88469788Y-95805761D01*
X79517026Y-93265761D02*
X79743217Y-95265761D01*
X80302741Y-93837190D01*
X80505122Y-95265761D01*
X81231312Y-93265761D01*
X81719407Y-94694333D02*
X82671788Y-94694333D01*
X81457502Y-95265761D02*
X82374169Y-93265761D01*
X82790836Y-95265761D01*
X83421788Y-93265761D02*
X83838455Y-95265761D01*
X84755122Y-93265761D01*
X85302741Y-94218142D02*
X85969407Y-94218142D01*
X86124169Y-95265761D02*
X85171788Y-95265761D01*
X85421788Y-93265761D01*
X86374169Y-93265761D01*
X119673809Y-120467380D02*
X119673809Y-119467380D01*
X120721428Y-120372142D02*
X120673809Y-120419761D01*
X120530952Y-120467380D01*
X120435714Y-120467380D01*
X120292857Y-120419761D01*
X120197619Y-120324523D01*
X120150000Y-120229285D01*
X120102380Y-120038809D01*
X120102380Y-119895952D01*
X120150000Y-119705476D01*
X120197619Y-119610238D01*
X120292857Y-119515000D01*
X120435714Y-119467380D01*
X120530952Y-119467380D01*
X120673809Y-119515000D01*
X120721428Y-119562619D01*
X121673809Y-120467380D02*
X121102380Y-120467380D01*
X121388095Y-120467380D02*
X121388095Y-119467380D01*
X121292857Y-119610238D01*
X121197619Y-119705476D01*
X121102380Y-119753095D01*
X115554761Y-122007380D02*
X115650000Y-122007380D01*
X115745238Y-122055000D01*
X115792857Y-122102619D01*
X115840476Y-122197857D01*
X115888095Y-122388333D01*
X115888095Y-122626428D01*
X115840476Y-122816904D01*
X115792857Y-122912142D01*
X115745238Y-122959761D01*
X115650000Y-123007380D01*
X115554761Y-123007380D01*
X115459523Y-122959761D01*
X115411904Y-122912142D01*
X115364285Y-122816904D01*
X115316666Y-122626428D01*
X115316666Y-122388333D01*
X115364285Y-122197857D01*
X115411904Y-122102619D01*
X115459523Y-122055000D01*
X115554761Y-122007380D01*
X116316666Y-122912142D02*
X116364285Y-122959761D01*
X116316666Y-123007380D01*
X116269047Y-122959761D01*
X116316666Y-122912142D01*
X116316666Y-123007380D01*
X116840476Y-123007380D02*
X117030952Y-123007380D01*
X117126190Y-122959761D01*
X117173809Y-122912142D01*
X117269047Y-122769285D01*
X117316666Y-122578809D01*
X117316666Y-122197857D01*
X117269047Y-122102619D01*
X117221428Y-122055000D01*
X117126190Y-122007380D01*
X116935714Y-122007380D01*
X116840476Y-122055000D01*
X116792857Y-122102619D01*
X116745238Y-122197857D01*
X116745238Y-122435952D01*
X116792857Y-122531190D01*
X116840476Y-122578809D01*
X116935714Y-122626428D01*
X117126190Y-122626428D01*
X117221428Y-122578809D01*
X117269047Y-122531190D01*
X117316666Y-122435952D01*
X118173809Y-122007380D02*
X117983333Y-122007380D01*
X117888095Y-122055000D01*
X117840476Y-122102619D01*
X117745238Y-122245476D01*
X117697619Y-122435952D01*
X117697619Y-122816904D01*
X117745238Y-122912142D01*
X117792857Y-122959761D01*
X117888095Y-123007380D01*
X118078571Y-123007380D01*
X118173809Y-122959761D01*
X118221428Y-122912142D01*
X118269047Y-122816904D01*
X118269047Y-122578809D01*
X118221428Y-122483571D01*
X118173809Y-122435952D01*
X118078571Y-122388333D01*
X117888095Y-122388333D01*
X117792857Y-122435952D01*
X117745238Y-122483571D01*
X117697619Y-122578809D01*
X118459523Y-123102619D02*
X119221428Y-123102619D01*
X119459523Y-123007380D02*
X119459523Y-122007380D01*
X119888095Y-122102619D02*
X119935714Y-122055000D01*
X120030952Y-122007380D01*
X120269047Y-122007380D01*
X120364285Y-122055000D01*
X120411904Y-122102619D01*
X120459523Y-122197857D01*
X120459523Y-122293095D01*
X120411904Y-122435952D01*
X119840476Y-123007380D01*
X120459523Y-123007380D01*
X121459523Y-122912142D02*
X121411904Y-122959761D01*
X121269047Y-123007380D01*
X121173809Y-123007380D01*
X121030952Y-122959761D01*
X120935714Y-122864523D01*
X120888095Y-122769285D01*
X120840476Y-122578809D01*
X120840476Y-122435952D01*
X120888095Y-122245476D01*
X120935714Y-122150238D01*
X121030952Y-122055000D01*
X121173809Y-122007380D01*
X121269047Y-122007380D01*
X121411904Y-122055000D01*
X121459523Y-122102619D01*
X121650000Y-123102619D02*
X122411904Y-123102619D01*
X122840476Y-122007380D02*
X123030952Y-122007380D01*
X123126190Y-122055000D01*
X123221428Y-122150238D01*
X123269047Y-122340714D01*
X123269047Y-122674047D01*
X123221428Y-122864523D01*
X123126190Y-122959761D01*
X123030952Y-123007380D01*
X122840476Y-123007380D01*
X122745238Y-122959761D01*
X122650000Y-122864523D01*
X122602380Y-122674047D01*
X122602380Y-122340714D01*
X122650000Y-122150238D01*
X122745238Y-122055000D01*
X122840476Y-122007380D01*
X124173809Y-123007380D02*
X123697619Y-123007380D01*
X123697619Y-122007380D01*
X124507142Y-122483571D02*
X124840476Y-122483571D01*
X124983333Y-123007380D02*
X124507142Y-123007380D01*
X124507142Y-122007380D01*
X124983333Y-122007380D01*
X125411904Y-123007380D02*
X125411904Y-122007380D01*
X125650000Y-122007380D01*
X125792857Y-122055000D01*
X125888095Y-122150238D01*
X125935714Y-122245476D01*
X125983333Y-122435952D01*
X125983333Y-122578809D01*
X125935714Y-122769285D01*
X125888095Y-122864523D01*
X125792857Y-122959761D01*
X125650000Y-123007380D01*
X125411904Y-123007380D01*
X92876666Y-92154285D02*
X92876666Y-91678095D01*
X93162380Y-92249523D02*
X92162380Y-91916190D01*
X93162380Y-91582857D01*
X92162380Y-91344761D02*
X92162380Y-90725714D01*
X92543333Y-91059047D01*
X92543333Y-90916190D01*
X92590952Y-90820952D01*
X92638571Y-90773333D01*
X92733809Y-90725714D01*
X92971904Y-90725714D01*
X93067142Y-90773333D01*
X93114761Y-90820952D01*
X93162380Y-90916190D01*
X93162380Y-91201904D01*
X93114761Y-91297142D01*
X93067142Y-91344761D01*
X94115000Y-93511428D02*
X94067380Y-93606666D01*
X94067380Y-93749523D01*
X94115000Y-93892380D01*
X94210238Y-93987619D01*
X94305476Y-94035238D01*
X94495952Y-94082857D01*
X94638809Y-94082857D01*
X94829285Y-94035238D01*
X94924523Y-93987619D01*
X95019761Y-93892380D01*
X95067380Y-93749523D01*
X95067380Y-93654285D01*
X95019761Y-93511428D01*
X94972142Y-93463809D01*
X94638809Y-93463809D01*
X94638809Y-93654285D01*
X94543571Y-92701904D02*
X94543571Y-93035238D01*
X95067380Y-93035238D02*
X94067380Y-93035238D01*
X94067380Y-92559047D01*
X95067380Y-91654285D02*
X95067380Y-92225714D01*
X95067380Y-91940000D02*
X94067380Y-91940000D01*
X94210238Y-92035238D01*
X94305476Y-92130476D01*
X94353095Y-92225714D01*
X94067380Y-91035238D02*
X94067380Y-90940000D01*
X94115000Y-90844761D01*
X94162619Y-90797142D01*
X94257857Y-90749523D01*
X94448333Y-90701904D01*
X94686428Y-90701904D01*
X94876904Y-90749523D01*
X94972142Y-90797142D01*
X95019761Y-90844761D01*
X95067380Y-90940000D01*
X95067380Y-91035238D01*
X95019761Y-91130476D01*
X94972142Y-91178095D01*
X94876904Y-91225714D01*
X94686428Y-91273333D01*
X94448333Y-91273333D01*
X94257857Y-91225714D01*
X94162619Y-91178095D01*
X94115000Y-91130476D01*
X94067380Y-91035238D01*
X94067380Y-90082857D02*
X94067380Y-89987619D01*
X94115000Y-89892380D01*
X94162619Y-89844761D01*
X94257857Y-89797142D01*
X94448333Y-89749523D01*
X94686428Y-89749523D01*
X94876904Y-89797142D01*
X94972142Y-89844761D01*
X95019761Y-89892380D01*
X95067380Y-89987619D01*
X95067380Y-90082857D01*
X95019761Y-90178095D01*
X94972142Y-90225714D01*
X94876904Y-90273333D01*
X94686428Y-90320952D01*
X94448333Y-90320952D01*
X94257857Y-90273333D01*
X94162619Y-90225714D01*
X94115000Y-90178095D01*
X94067380Y-90082857D01*
X94162619Y-89368571D02*
X94115000Y-89320952D01*
X94067380Y-89225714D01*
X94067380Y-88987619D01*
X94115000Y-88892380D01*
X94162619Y-88844761D01*
X94257857Y-88797142D01*
X94353095Y-88797142D01*
X94495952Y-88844761D01*
X95067380Y-89416190D01*
X95067380Y-88797142D01*
X72056666Y-92162380D02*
X72056666Y-92876666D01*
X72009047Y-93019523D01*
X71913809Y-93114761D01*
X71770952Y-93162380D01*
X71675714Y-93162380D01*
X72961428Y-92162380D02*
X72770952Y-92162380D01*
X72675714Y-92210000D01*
X72628095Y-92257619D01*
X72532857Y-92400476D01*
X72485238Y-92590952D01*
X72485238Y-92971904D01*
X72532857Y-93067142D01*
X72580476Y-93114761D01*
X72675714Y-93162380D01*
X72866190Y-93162380D01*
X72961428Y-93114761D01*
X73009047Y-93067142D01*
X73056666Y-92971904D01*
X73056666Y-92733809D01*
X73009047Y-92638571D01*
X72961428Y-92590952D01*
X72866190Y-92543333D01*
X72675714Y-92543333D01*
X72580476Y-92590952D01*
X72532857Y-92638571D01*
X72485238Y-92733809D01*
D10*
X75253809Y-98609047D02*
X75291904Y-98494761D01*
X75291904Y-98304285D01*
X75253809Y-98228095D01*
X75215714Y-98190000D01*
X75139523Y-98151904D01*
X75063333Y-98151904D01*
X74987142Y-98190000D01*
X74949047Y-98228095D01*
X74910952Y-98304285D01*
X74872857Y-98456666D01*
X74834761Y-98532857D01*
X74796666Y-98570952D01*
X74720476Y-98609047D01*
X74644285Y-98609047D01*
X74568095Y-98570952D01*
X74530000Y-98532857D01*
X74491904Y-98456666D01*
X74491904Y-98266190D01*
X74530000Y-98151904D01*
X75291904Y-97809047D02*
X74491904Y-97809047D01*
X74491904Y-97504285D01*
X74530000Y-97428095D01*
X74568095Y-97390000D01*
X74644285Y-97351904D01*
X74758571Y-97351904D01*
X74834761Y-97390000D01*
X74872857Y-97428095D01*
X74910952Y-97504285D01*
X74910952Y-97809047D01*
X75291904Y-97009047D02*
X74491904Y-97009047D01*
D11*
X152955714Y-87161666D02*
X153431904Y-87161666D01*
X152860476Y-87447380D02*
X153193809Y-86447380D01*
X153527142Y-87447380D01*
X154384285Y-87447380D02*
X153812857Y-87447380D01*
X154098571Y-87447380D02*
X154098571Y-86447380D01*
X154003333Y-86590238D01*
X153908095Y-86685476D01*
X153812857Y-86733095D01*
X148812857Y-89701666D02*
X149289047Y-89701666D01*
X148717619Y-89987380D02*
X149050952Y-88987380D01*
X149384285Y-89987380D01*
X149717619Y-89987380D02*
X149717619Y-89320714D01*
X149717619Y-89511190D02*
X149765238Y-89415952D01*
X149812857Y-89368333D01*
X149908095Y-89320714D01*
X150003333Y-89320714D01*
X150765238Y-89987380D02*
X150765238Y-88987380D01*
X150765238Y-89939761D02*
X150670000Y-89987380D01*
X150479523Y-89987380D01*
X150384285Y-89939761D01*
X150336666Y-89892142D01*
X150289047Y-89796904D01*
X150289047Y-89511190D01*
X150336666Y-89415952D01*
X150384285Y-89368333D01*
X150479523Y-89320714D01*
X150670000Y-89320714D01*
X150765238Y-89368333D01*
X151670000Y-89320714D02*
X151670000Y-89987380D01*
X151241428Y-89320714D02*
X151241428Y-89844523D01*
X151289047Y-89939761D01*
X151384285Y-89987380D01*
X151527142Y-89987380D01*
X151622380Y-89939761D01*
X151670000Y-89892142D01*
X152146190Y-89987380D02*
X152146190Y-89320714D01*
X152146190Y-88987380D02*
X152098571Y-89035000D01*
X152146190Y-89082619D01*
X152193809Y-89035000D01*
X152146190Y-88987380D01*
X152146190Y-89082619D01*
X152622380Y-89320714D02*
X152622380Y-89987380D01*
X152622380Y-89415952D02*
X152670000Y-89368333D01*
X152765238Y-89320714D01*
X152908095Y-89320714D01*
X153003333Y-89368333D01*
X153050952Y-89463571D01*
X153050952Y-89987380D01*
X153670000Y-89987380D02*
X153574761Y-89939761D01*
X153527142Y-89892142D01*
X153479523Y-89796904D01*
X153479523Y-89511190D01*
X153527142Y-89415952D01*
X153574761Y-89368333D01*
X153670000Y-89320714D01*
X153812857Y-89320714D01*
X153908095Y-89368333D01*
X153955714Y-89415952D01*
X154003333Y-89511190D01*
X154003333Y-89796904D01*
X153955714Y-89892142D01*
X153908095Y-89939761D01*
X153812857Y-89987380D01*
X153670000Y-89987380D01*
X155193809Y-89987380D02*
X155193809Y-88987380D01*
X155765238Y-89987380D01*
X155765238Y-88987380D01*
X156670000Y-89987380D02*
X156670000Y-89463571D01*
X156622380Y-89368333D01*
X156527142Y-89320714D01*
X156336666Y-89320714D01*
X156241428Y-89368333D01*
X156670000Y-89939761D02*
X156574761Y-89987380D01*
X156336666Y-89987380D01*
X156241428Y-89939761D01*
X156193809Y-89844523D01*
X156193809Y-89749285D01*
X156241428Y-89654047D01*
X156336666Y-89606428D01*
X156574761Y-89606428D01*
X156670000Y-89558809D01*
X157146190Y-89320714D02*
X157146190Y-89987380D01*
X157146190Y-89415952D02*
X157193809Y-89368333D01*
X157289047Y-89320714D01*
X157431904Y-89320714D01*
X157527142Y-89368333D01*
X157574761Y-89463571D01*
X157574761Y-89987380D01*
X158193809Y-89987380D02*
X158098571Y-89939761D01*
X158050952Y-89892142D01*
X158003333Y-89796904D01*
X158003333Y-89511190D01*
X158050952Y-89415952D01*
X158098571Y-89368333D01*
X158193809Y-89320714D01*
X158336666Y-89320714D01*
X158431904Y-89368333D01*
X158479523Y-89415952D01*
X158527142Y-89511190D01*
X158527142Y-89796904D01*
X158479523Y-89892142D01*
X158431904Y-89939761D01*
X158336666Y-89987380D01*
X158193809Y-89987380D01*
D10*
X107181666Y-86010714D02*
X107143571Y-86048809D01*
X107029285Y-86086904D01*
X106953095Y-86086904D01*
X106838809Y-86048809D01*
X106762619Y-85972619D01*
X106724523Y-85896428D01*
X106686428Y-85744047D01*
X106686428Y-85629761D01*
X106724523Y-85477380D01*
X106762619Y-85401190D01*
X106838809Y-85325000D01*
X106953095Y-85286904D01*
X107029285Y-85286904D01*
X107143571Y-85325000D01*
X107181666Y-85363095D01*
X107448333Y-85286904D02*
X107981666Y-85286904D01*
X107638809Y-86086904D01*
X106076904Y-87356904D02*
X105619761Y-87356904D01*
X105848333Y-87356904D02*
X105848333Y-86556904D01*
X105772142Y-86671190D01*
X105695952Y-86747380D01*
X105619761Y-86785476D01*
X106572142Y-86556904D02*
X106648333Y-86556904D01*
X106724523Y-86595000D01*
X106762619Y-86633095D01*
X106800714Y-86709285D01*
X106838809Y-86861666D01*
X106838809Y-87052142D01*
X106800714Y-87204523D01*
X106762619Y-87280714D01*
X106724523Y-87318809D01*
X106648333Y-87356904D01*
X106572142Y-87356904D01*
X106495952Y-87318809D01*
X106457857Y-87280714D01*
X106419761Y-87204523D01*
X106381666Y-87052142D01*
X106381666Y-86861666D01*
X106419761Y-86709285D01*
X106457857Y-86633095D01*
X106495952Y-86595000D01*
X106572142Y-86556904D01*
X107334047Y-86556904D02*
X107410238Y-86556904D01*
X107486428Y-86595000D01*
X107524523Y-86633095D01*
X107562619Y-86709285D01*
X107600714Y-86861666D01*
X107600714Y-87052142D01*
X107562619Y-87204523D01*
X107524523Y-87280714D01*
X107486428Y-87318809D01*
X107410238Y-87356904D01*
X107334047Y-87356904D01*
X107257857Y-87318809D01*
X107219761Y-87280714D01*
X107181666Y-87204523D01*
X107143571Y-87052142D01*
X107143571Y-86861666D01*
X107181666Y-86709285D01*
X107219761Y-86633095D01*
X107257857Y-86595000D01*
X107334047Y-86556904D01*
X108286428Y-86823571D02*
X108286428Y-87356904D01*
X107943571Y-86823571D02*
X107943571Y-87242619D01*
X107981666Y-87318809D01*
X108057857Y-87356904D01*
X108172142Y-87356904D01*
X108248333Y-87318809D01*
X108286428Y-87280714D01*
X108934047Y-86937857D02*
X108667380Y-86937857D01*
X108667380Y-87356904D02*
X108667380Y-86556904D01*
X109048333Y-86556904D01*
D11*
X142136904Y-131262380D02*
X142136904Y-130262380D01*
X142375000Y-130262380D01*
X142517857Y-130310000D01*
X142613095Y-130405238D01*
X142660714Y-130500476D01*
X142708333Y-130690952D01*
X142708333Y-130833809D01*
X142660714Y-131024285D01*
X142613095Y-131119523D01*
X142517857Y-131214761D01*
X142375000Y-131262380D01*
X142136904Y-131262380D01*
X143041666Y-130262380D02*
X143660714Y-130262380D01*
X143327380Y-130643333D01*
X143470238Y-130643333D01*
X143565476Y-130690952D01*
X143613095Y-130738571D01*
X143660714Y-130833809D01*
X143660714Y-131071904D01*
X143613095Y-131167142D01*
X143565476Y-131214761D01*
X143470238Y-131262380D01*
X143184523Y-131262380D01*
X143089285Y-131214761D01*
X143041666Y-131167142D01*
D10*
X141217857Y-132441904D02*
X140760714Y-132441904D01*
X140989285Y-132441904D02*
X140989285Y-131641904D01*
X140913095Y-131756190D01*
X140836904Y-131832380D01*
X140760714Y-131870476D01*
X141560714Y-131908571D02*
X141560714Y-132441904D01*
X141560714Y-131984761D02*
X141598809Y-131946666D01*
X141675000Y-131908571D01*
X141789285Y-131908571D01*
X141865476Y-131946666D01*
X141903571Y-132022857D01*
X141903571Y-132441904D01*
X142627380Y-131908571D02*
X142627380Y-132441904D01*
X142436904Y-131603809D02*
X142246428Y-132175238D01*
X142741666Y-132175238D01*
X143198809Y-131641904D02*
X143275000Y-131641904D01*
X143351190Y-131680000D01*
X143389285Y-131718095D01*
X143427380Y-131794285D01*
X143465476Y-131946666D01*
X143465476Y-132137142D01*
X143427380Y-132289523D01*
X143389285Y-132365714D01*
X143351190Y-132403809D01*
X143275000Y-132441904D01*
X143198809Y-132441904D01*
X143122619Y-132403809D01*
X143084523Y-132365714D01*
X143046428Y-132289523D01*
X143008333Y-132137142D01*
X143008333Y-131946666D01*
X143046428Y-131794285D01*
X143084523Y-131718095D01*
X143122619Y-131680000D01*
X143198809Y-131641904D01*
X143960714Y-131641904D02*
X144036904Y-131641904D01*
X144113095Y-131680000D01*
X144151190Y-131718095D01*
X144189285Y-131794285D01*
X144227380Y-131946666D01*
X144227380Y-132137142D01*
X144189285Y-132289523D01*
X144151190Y-132365714D01*
X144113095Y-132403809D01*
X144036904Y-132441904D01*
X143960714Y-132441904D01*
X143884523Y-132403809D01*
X143846428Y-132365714D01*
X143808333Y-132289523D01*
X143770238Y-132137142D01*
X143770238Y-131946666D01*
X143808333Y-131794285D01*
X143846428Y-131718095D01*
X143884523Y-131680000D01*
X143960714Y-131641904D01*
X144989285Y-132441904D02*
X144532142Y-132441904D01*
X144760714Y-132441904D02*
X144760714Y-131641904D01*
X144684523Y-131756190D01*
X144608333Y-131832380D01*
X144532142Y-131870476D01*
X151098333Y-123386904D02*
X151098333Y-123958333D01*
X151060238Y-124072619D01*
X150984047Y-124148809D01*
X150869761Y-124186904D01*
X150793571Y-124186904D01*
X151479285Y-124186904D02*
X151479285Y-123386904D01*
X151784047Y-123386904D01*
X151860238Y-123425000D01*
X151898333Y-123463095D01*
X151936428Y-123539285D01*
X151936428Y-123653571D01*
X151898333Y-123729761D01*
X151860238Y-123767857D01*
X151784047Y-123805952D01*
X151479285Y-123805952D01*
X152622142Y-123386904D02*
X152469761Y-123386904D01*
X152393571Y-123425000D01*
X152355476Y-123463095D01*
X152279285Y-123577380D01*
X152241190Y-123729761D01*
X152241190Y-124034523D01*
X152279285Y-124110714D01*
X152317380Y-124148809D01*
X152393571Y-124186904D01*
X152545952Y-124186904D01*
X152622142Y-124148809D01*
X152660238Y-124110714D01*
X152698333Y-124034523D01*
X152698333Y-123844047D01*
X152660238Y-123767857D01*
X152622142Y-123729761D01*
X152545952Y-123691666D01*
X152393571Y-123691666D01*
X152317380Y-123729761D01*
X152279285Y-123767857D01*
X152241190Y-123844047D01*
X149326904Y-134346904D02*
X149326904Y-133546904D01*
X149631666Y-133546904D01*
X149707857Y-133585000D01*
X149745952Y-133623095D01*
X149784047Y-133699285D01*
X149784047Y-133813571D01*
X149745952Y-133889761D01*
X149707857Y-133927857D01*
X149631666Y-133965952D01*
X149326904Y-133965952D01*
X150050714Y-133546904D02*
X150241190Y-134346904D01*
X150393571Y-133775476D01*
X150545952Y-134346904D01*
X150736428Y-133546904D01*
X151498333Y-134346904D02*
X151231666Y-133965952D01*
X151041190Y-134346904D02*
X151041190Y-133546904D01*
X151345952Y-133546904D01*
X151422142Y-133585000D01*
X151460238Y-133623095D01*
X151498333Y-133699285D01*
X151498333Y-133813571D01*
X151460238Y-133889761D01*
X151422142Y-133927857D01*
X151345952Y-133965952D01*
X151041190Y-133965952D01*
X151650714Y-134423095D02*
X152260238Y-134423095D01*
X152412619Y-134308809D02*
X152526904Y-134346904D01*
X152717380Y-134346904D01*
X152793571Y-134308809D01*
X152831666Y-134270714D01*
X152869761Y-134194523D01*
X152869761Y-134118333D01*
X152831666Y-134042142D01*
X152793571Y-134004047D01*
X152717380Y-133965952D01*
X152565000Y-133927857D01*
X152488809Y-133889761D01*
X152450714Y-133851666D01*
X152412619Y-133775476D01*
X152412619Y-133699285D01*
X152450714Y-133623095D01*
X152488809Y-133585000D01*
X152565000Y-133546904D01*
X152755476Y-133546904D01*
X152869761Y-133585000D01*
X153212619Y-133927857D02*
X153479285Y-133927857D01*
X153593571Y-134346904D02*
X153212619Y-134346904D01*
X153212619Y-133546904D01*
X153593571Y-133546904D01*
X154317380Y-134346904D02*
X153936428Y-134346904D01*
X153936428Y-133546904D01*
D11*
X131532380Y-103203333D02*
X132246666Y-103203333D01*
X132389523Y-103250952D01*
X132484761Y-103346190D01*
X132532380Y-103489047D01*
X132532380Y-103584285D01*
X131532380Y-102250952D02*
X131532380Y-102727142D01*
X132008571Y-102774761D01*
X131960952Y-102727142D01*
X131913333Y-102631904D01*
X131913333Y-102393809D01*
X131960952Y-102298571D01*
X132008571Y-102250952D01*
X132103809Y-102203333D01*
X132341904Y-102203333D01*
X132437142Y-102250952D01*
X132484761Y-102298571D01*
X132532380Y-102393809D01*
X132532380Y-102631904D01*
X132484761Y-102727142D01*
X132437142Y-102774761D01*
X133548809Y-100147380D02*
X133072619Y-100147380D01*
X133072619Y-99147380D01*
X133882142Y-100147380D02*
X133882142Y-99147380D01*
X134263095Y-99147380D01*
X134358333Y-99195000D01*
X134405952Y-99242619D01*
X134453571Y-99337857D01*
X134453571Y-99480714D01*
X134405952Y-99575952D01*
X134358333Y-99623571D01*
X134263095Y-99671190D01*
X133882142Y-99671190D01*
X134644047Y-100242619D02*
X135405952Y-100242619D01*
X135977380Y-99623571D02*
X135644047Y-99623571D01*
X135644047Y-100147380D02*
X135644047Y-99147380D01*
X136120238Y-99147380D01*
X136501190Y-100147380D02*
X136501190Y-99147380D01*
X137453571Y-100147380D02*
X136977380Y-100147380D01*
X136977380Y-99147380D01*
X137644047Y-99147380D02*
X138215476Y-99147380D01*
X137929761Y-100147380D02*
X137929761Y-99147380D01*
X138548809Y-99623571D02*
X138882142Y-99623571D01*
X139025000Y-100147380D02*
X138548809Y-100147380D01*
X138548809Y-99147380D01*
X139025000Y-99147380D01*
X140025000Y-100147380D02*
X139691666Y-99671190D01*
X139453571Y-100147380D02*
X139453571Y-99147380D01*
X139834523Y-99147380D01*
X139929761Y-99195000D01*
X139977380Y-99242619D01*
X140025000Y-99337857D01*
X140025000Y-99480714D01*
X139977380Y-99575952D01*
X139929761Y-99623571D01*
X139834523Y-99671190D01*
X139453571Y-99671190D01*
X158115238Y-132532380D02*
X158115238Y-131532380D01*
X158353333Y-131532380D01*
X158496190Y-131580000D01*
X158591428Y-131675238D01*
X158639047Y-131770476D01*
X158686666Y-131960952D01*
X158686666Y-132103809D01*
X158639047Y-132294285D01*
X158591428Y-132389523D01*
X158496190Y-132484761D01*
X158353333Y-132532380D01*
X158115238Y-132532380D01*
X159686666Y-132437142D02*
X159639047Y-132484761D01*
X159496190Y-132532380D01*
X159400952Y-132532380D01*
X159258095Y-132484761D01*
X159162857Y-132389523D01*
X159115238Y-132294285D01*
X159067619Y-132103809D01*
X159067619Y-131960952D01*
X159115238Y-131770476D01*
X159162857Y-131675238D01*
X159258095Y-131580000D01*
X159400952Y-131532380D01*
X159496190Y-131532380D01*
X159639047Y-131580000D01*
X159686666Y-131627619D01*
X160877142Y-132532380D02*
X160877142Y-131532380D01*
X161353333Y-132532380D02*
X161353333Y-131532380D01*
X161924761Y-132532380D01*
X161924761Y-131532380D01*
D10*
X165677857Y-105917619D02*
X165677857Y-105650952D01*
X166096904Y-105536666D02*
X166096904Y-105917619D01*
X165296904Y-105917619D01*
X165296904Y-105536666D01*
X165296904Y-105270000D02*
X166096904Y-104736666D01*
X165296904Y-104736666D02*
X166096904Y-105270000D01*
X165296904Y-104546190D02*
X165296904Y-104089047D01*
X166096904Y-104317619D02*
X165296904Y-104317619D01*
X165677857Y-103822380D02*
X165677857Y-103555714D01*
X166096904Y-103441428D02*
X166096904Y-103822380D01*
X165296904Y-103822380D01*
X165296904Y-103441428D01*
X166096904Y-103098571D02*
X165296904Y-103098571D01*
X166096904Y-102641428D01*
X165296904Y-102641428D01*
X166058809Y-102298571D02*
X166096904Y-102184285D01*
X166096904Y-101993809D01*
X166058809Y-101917619D01*
X166020714Y-101879523D01*
X165944523Y-101841428D01*
X165868333Y-101841428D01*
X165792142Y-101879523D01*
X165754047Y-101917619D01*
X165715952Y-101993809D01*
X165677857Y-102146190D01*
X165639761Y-102222380D01*
X165601666Y-102260476D01*
X165525476Y-102298571D01*
X165449285Y-102298571D01*
X165373095Y-102260476D01*
X165335000Y-102222380D01*
X165296904Y-102146190D01*
X165296904Y-101955714D01*
X165335000Y-101841428D01*
X166096904Y-101498571D02*
X165296904Y-101498571D01*
X165296904Y-100965238D02*
X165296904Y-100812857D01*
X165335000Y-100736666D01*
X165411190Y-100660476D01*
X165563571Y-100622380D01*
X165830238Y-100622380D01*
X165982619Y-100660476D01*
X166058809Y-100736666D01*
X166096904Y-100812857D01*
X166096904Y-100965238D01*
X166058809Y-101041428D01*
X165982619Y-101117619D01*
X165830238Y-101155714D01*
X165563571Y-101155714D01*
X165411190Y-101117619D01*
X165335000Y-101041428D01*
X165296904Y-100965238D01*
X166096904Y-100279523D02*
X165296904Y-100279523D01*
X166096904Y-99822380D01*
X165296904Y-99822380D01*
D11*
X134211666Y-138424761D02*
X134354523Y-138472380D01*
X134592619Y-138472380D01*
X134687857Y-138424761D01*
X134735476Y-138377142D01*
X134783095Y-138281904D01*
X134783095Y-138186666D01*
X134735476Y-138091428D01*
X134687857Y-138043809D01*
X134592619Y-137996190D01*
X134402142Y-137948571D01*
X134306904Y-137900952D01*
X134259285Y-137853333D01*
X134211666Y-137758095D01*
X134211666Y-137662857D01*
X134259285Y-137567619D01*
X134306904Y-137520000D01*
X134402142Y-137472380D01*
X134640238Y-137472380D01*
X134783095Y-137520000D01*
X135116428Y-137472380D02*
X135354523Y-138472380D01*
X135545000Y-137758095D01*
X135735476Y-138472380D01*
X135973571Y-137472380D01*
X136878333Y-138472380D02*
X136306904Y-138472380D01*
X136592619Y-138472380D02*
X136592619Y-137472380D01*
X136497380Y-137615238D01*
X136402142Y-137710476D01*
X136306904Y-137758095D01*
D10*
X134626428Y-134816904D02*
X134626428Y-135464523D01*
X134664523Y-135540714D01*
X134702619Y-135578809D01*
X134778809Y-135616904D01*
X134931190Y-135616904D01*
X135007380Y-135578809D01*
X135045476Y-135540714D01*
X135083571Y-135464523D01*
X135083571Y-134816904D01*
X135464523Y-135616904D02*
X135464523Y-134816904D01*
X135769285Y-134816904D01*
X135845476Y-134855000D01*
X135883571Y-134893095D01*
X135921666Y-134969285D01*
X135921666Y-135083571D01*
X135883571Y-135159761D01*
X135845476Y-135197857D01*
X135769285Y-135235952D01*
X135464523Y-135235952D01*
D11*
X145006666Y-138424761D02*
X145149523Y-138472380D01*
X145387619Y-138472380D01*
X145482857Y-138424761D01*
X145530476Y-138377142D01*
X145578095Y-138281904D01*
X145578095Y-138186666D01*
X145530476Y-138091428D01*
X145482857Y-138043809D01*
X145387619Y-137996190D01*
X145197142Y-137948571D01*
X145101904Y-137900952D01*
X145054285Y-137853333D01*
X145006666Y-137758095D01*
X145006666Y-137662857D01*
X145054285Y-137567619D01*
X145101904Y-137520000D01*
X145197142Y-137472380D01*
X145435238Y-137472380D01*
X145578095Y-137520000D01*
X145911428Y-137472380D02*
X146149523Y-138472380D01*
X146340000Y-137758095D01*
X146530476Y-138472380D01*
X146768571Y-137472380D01*
X147101904Y-137567619D02*
X147149523Y-137520000D01*
X147244761Y-137472380D01*
X147482857Y-137472380D01*
X147578095Y-137520000D01*
X147625714Y-137567619D01*
X147673333Y-137662857D01*
X147673333Y-137758095D01*
X147625714Y-137900952D01*
X147054285Y-138472380D01*
X147673333Y-138472380D01*
D10*
X144545238Y-135616904D02*
X144545238Y-134816904D01*
X144735714Y-134816904D01*
X144850000Y-134855000D01*
X144926190Y-134931190D01*
X144964285Y-135007380D01*
X145002380Y-135159761D01*
X145002380Y-135274047D01*
X144964285Y-135426428D01*
X144926190Y-135502619D01*
X144850000Y-135578809D01*
X144735714Y-135616904D01*
X144545238Y-135616904D01*
X145497619Y-134816904D02*
X145650000Y-134816904D01*
X145726190Y-134855000D01*
X145802380Y-134931190D01*
X145840476Y-135083571D01*
X145840476Y-135350238D01*
X145802380Y-135502619D01*
X145726190Y-135578809D01*
X145650000Y-135616904D01*
X145497619Y-135616904D01*
X145421428Y-135578809D01*
X145345238Y-135502619D01*
X145307142Y-135350238D01*
X145307142Y-135083571D01*
X145345238Y-134931190D01*
X145421428Y-134855000D01*
X145497619Y-134816904D01*
X146107142Y-134816904D02*
X146297619Y-135616904D01*
X146450000Y-135045476D01*
X146602380Y-135616904D01*
X146792857Y-134816904D01*
X147097619Y-135616904D02*
X147097619Y-134816904D01*
X147554761Y-135616904D01*
X147554761Y-134816904D01*
D11*
X103731666Y-138424761D02*
X103874523Y-138472380D01*
X104112619Y-138472380D01*
X104207857Y-138424761D01*
X104255476Y-138377142D01*
X104303095Y-138281904D01*
X104303095Y-138186666D01*
X104255476Y-138091428D01*
X104207857Y-138043809D01*
X104112619Y-137996190D01*
X103922142Y-137948571D01*
X103826904Y-137900952D01*
X103779285Y-137853333D01*
X103731666Y-137758095D01*
X103731666Y-137662857D01*
X103779285Y-137567619D01*
X103826904Y-137520000D01*
X103922142Y-137472380D01*
X104160238Y-137472380D01*
X104303095Y-137520000D01*
X104636428Y-137472380D02*
X104874523Y-138472380D01*
X105065000Y-137758095D01*
X105255476Y-138472380D01*
X105493571Y-137472380D01*
X105779285Y-137472380D02*
X106398333Y-137472380D01*
X106065000Y-137853333D01*
X106207857Y-137853333D01*
X106303095Y-137900952D01*
X106350714Y-137948571D01*
X106398333Y-138043809D01*
X106398333Y-138281904D01*
X106350714Y-138377142D01*
X106303095Y-138424761D01*
X106207857Y-138472380D01*
X105922142Y-138472380D01*
X105826904Y-138424761D01*
X105779285Y-138377142D01*
D10*
X103422619Y-135578809D02*
X103536904Y-135616904D01*
X103727380Y-135616904D01*
X103803571Y-135578809D01*
X103841666Y-135540714D01*
X103879761Y-135464523D01*
X103879761Y-135388333D01*
X103841666Y-135312142D01*
X103803571Y-135274047D01*
X103727380Y-135235952D01*
X103575000Y-135197857D01*
X103498809Y-135159761D01*
X103460714Y-135121666D01*
X103422619Y-135045476D01*
X103422619Y-134969285D01*
X103460714Y-134893095D01*
X103498809Y-134855000D01*
X103575000Y-134816904D01*
X103765476Y-134816904D01*
X103879761Y-134855000D01*
X104108333Y-134816904D02*
X104565476Y-134816904D01*
X104336904Y-135616904D02*
X104336904Y-134816904D01*
X104984523Y-134816904D02*
X105136904Y-134816904D01*
X105213095Y-134855000D01*
X105289285Y-134931190D01*
X105327380Y-135083571D01*
X105327380Y-135350238D01*
X105289285Y-135502619D01*
X105213095Y-135578809D01*
X105136904Y-135616904D01*
X104984523Y-135616904D01*
X104908333Y-135578809D01*
X104832142Y-135502619D01*
X104794047Y-135350238D01*
X104794047Y-135083571D01*
X104832142Y-134931190D01*
X104908333Y-134855000D01*
X104984523Y-134816904D01*
X105670238Y-135616904D02*
X105670238Y-134816904D01*
X105975000Y-134816904D01*
X106051190Y-134855000D01*
X106089285Y-134893095D01*
X106127380Y-134969285D01*
X106127380Y-135083571D01*
X106089285Y-135159761D01*
X106051190Y-135197857D01*
X105975000Y-135235952D01*
X105670238Y-135235952D01*
D11*
X88491666Y-138424761D02*
X88634523Y-138472380D01*
X88872619Y-138472380D01*
X88967857Y-138424761D01*
X89015476Y-138377142D01*
X89063095Y-138281904D01*
X89063095Y-138186666D01*
X89015476Y-138091428D01*
X88967857Y-138043809D01*
X88872619Y-137996190D01*
X88682142Y-137948571D01*
X88586904Y-137900952D01*
X88539285Y-137853333D01*
X88491666Y-137758095D01*
X88491666Y-137662857D01*
X88539285Y-137567619D01*
X88586904Y-137520000D01*
X88682142Y-137472380D01*
X88920238Y-137472380D01*
X89063095Y-137520000D01*
X89396428Y-137472380D02*
X89634523Y-138472380D01*
X89825000Y-137758095D01*
X90015476Y-138472380D01*
X90253571Y-137472380D01*
X91063095Y-137805714D02*
X91063095Y-138472380D01*
X90825000Y-137424761D02*
X90586904Y-138139047D01*
X91205952Y-138139047D01*
D10*
X88315952Y-135616904D02*
X88315952Y-134816904D01*
X88620714Y-134816904D01*
X88696904Y-134855000D01*
X88735000Y-134893095D01*
X88773095Y-134969285D01*
X88773095Y-135083571D01*
X88735000Y-135159761D01*
X88696904Y-135197857D01*
X88620714Y-135235952D01*
X88315952Y-135235952D01*
X89496904Y-135616904D02*
X89115952Y-135616904D01*
X89115952Y-134816904D01*
X89725476Y-135388333D02*
X90106428Y-135388333D01*
X89649285Y-135616904D02*
X89915952Y-134816904D01*
X90182619Y-135616904D01*
X90601666Y-135235952D02*
X90601666Y-135616904D01*
X90335000Y-134816904D02*
X90601666Y-135235952D01*
X90868333Y-134816904D01*
D11*
X118971666Y-138424761D02*
X119114523Y-138472380D01*
X119352619Y-138472380D01*
X119447857Y-138424761D01*
X119495476Y-138377142D01*
X119543095Y-138281904D01*
X119543095Y-138186666D01*
X119495476Y-138091428D01*
X119447857Y-138043809D01*
X119352619Y-137996190D01*
X119162142Y-137948571D01*
X119066904Y-137900952D01*
X119019285Y-137853333D01*
X118971666Y-137758095D01*
X118971666Y-137662857D01*
X119019285Y-137567619D01*
X119066904Y-137520000D01*
X119162142Y-137472380D01*
X119400238Y-137472380D01*
X119543095Y-137520000D01*
X119876428Y-137472380D02*
X120114523Y-138472380D01*
X120305000Y-137758095D01*
X120495476Y-138472380D01*
X120733571Y-137472380D01*
X121590714Y-137472380D02*
X121114523Y-137472380D01*
X121066904Y-137948571D01*
X121114523Y-137900952D01*
X121209761Y-137853333D01*
X121447857Y-137853333D01*
X121543095Y-137900952D01*
X121590714Y-137948571D01*
X121638333Y-138043809D01*
X121638333Y-138281904D01*
X121590714Y-138377142D01*
X121543095Y-138424761D01*
X121447857Y-138472380D01*
X121209761Y-138472380D01*
X121114523Y-138424761D01*
X121066904Y-138377142D01*
D10*
X119119761Y-135616904D02*
X118853095Y-135235952D01*
X118662619Y-135616904D02*
X118662619Y-134816904D01*
X118967380Y-134816904D01*
X119043571Y-134855000D01*
X119081666Y-134893095D01*
X119119761Y-134969285D01*
X119119761Y-135083571D01*
X119081666Y-135159761D01*
X119043571Y-135197857D01*
X118967380Y-135235952D01*
X118662619Y-135235952D01*
X119615000Y-134816904D02*
X119767380Y-134816904D01*
X119843571Y-134855000D01*
X119919761Y-134931190D01*
X119957857Y-135083571D01*
X119957857Y-135350238D01*
X119919761Y-135502619D01*
X119843571Y-135578809D01*
X119767380Y-135616904D01*
X119615000Y-135616904D01*
X119538809Y-135578809D01*
X119462619Y-135502619D01*
X119424523Y-135350238D01*
X119424523Y-135083571D01*
X119462619Y-134931190D01*
X119538809Y-134855000D01*
X119615000Y-134816904D01*
X120453095Y-134816904D02*
X120605476Y-134816904D01*
X120681666Y-134855000D01*
X120757857Y-134931190D01*
X120795952Y-135083571D01*
X120795952Y-135350238D01*
X120757857Y-135502619D01*
X120681666Y-135578809D01*
X120605476Y-135616904D01*
X120453095Y-135616904D01*
X120376904Y-135578809D01*
X120300714Y-135502619D01*
X120262619Y-135350238D01*
X120262619Y-135083571D01*
X120300714Y-134931190D01*
X120376904Y-134855000D01*
X120453095Y-134816904D01*
X121024523Y-134816904D02*
X121481666Y-134816904D01*
X121253095Y-135616904D02*
X121253095Y-134816904D01*
D11*
X133183333Y-83637380D02*
X132850000Y-83161190D01*
X132611904Y-83637380D02*
X132611904Y-82637380D01*
X132992857Y-82637380D01*
X133088095Y-82685000D01*
X133135714Y-82732619D01*
X133183333Y-82827857D01*
X133183333Y-82970714D01*
X133135714Y-83065952D01*
X133088095Y-83113571D01*
X132992857Y-83161190D01*
X132611904Y-83161190D01*
X134135714Y-83637380D02*
X133564285Y-83637380D01*
X133850000Y-83637380D02*
X133850000Y-82637380D01*
X133754761Y-82780238D01*
X133659523Y-82875476D01*
X133564285Y-82923095D01*
X133135714Y-87050476D02*
X133802380Y-87050476D01*
X132754761Y-87288571D02*
X133469047Y-87526666D01*
X133469047Y-86907619D01*
X133802380Y-86526666D02*
X132802380Y-86526666D01*
X133421428Y-86431428D02*
X133802380Y-86145714D01*
X133135714Y-86145714D02*
X133516666Y-86526666D01*
X132802380Y-85812380D02*
X132802380Y-85145714D01*
X133802380Y-85574285D01*
X136993333Y-83637380D02*
X136660000Y-83161190D01*
X136421904Y-83637380D02*
X136421904Y-82637380D01*
X136802857Y-82637380D01*
X136898095Y-82685000D01*
X136945714Y-82732619D01*
X136993333Y-82827857D01*
X136993333Y-82970714D01*
X136945714Y-83065952D01*
X136898095Y-83113571D01*
X136802857Y-83161190D01*
X136421904Y-83161190D01*
X137374285Y-82732619D02*
X137421904Y-82685000D01*
X137517142Y-82637380D01*
X137755238Y-82637380D01*
X137850476Y-82685000D01*
X137898095Y-82732619D01*
X137945714Y-82827857D01*
X137945714Y-82923095D01*
X137898095Y-83065952D01*
X137326666Y-83637380D01*
X137945714Y-83637380D01*
X136945714Y-87050476D02*
X137612380Y-87050476D01*
X136564761Y-87288571D02*
X137279047Y-87526666D01*
X137279047Y-86907619D01*
X137612380Y-86526666D02*
X136612380Y-86526666D01*
X137231428Y-86431428D02*
X137612380Y-86145714D01*
X136945714Y-86145714D02*
X137326666Y-86526666D01*
X136612380Y-85812380D02*
X136612380Y-85145714D01*
X137612380Y-85574285D01*
X140803333Y-83637380D02*
X140470000Y-83161190D01*
X140231904Y-83637380D02*
X140231904Y-82637380D01*
X140612857Y-82637380D01*
X140708095Y-82685000D01*
X140755714Y-82732619D01*
X140803333Y-82827857D01*
X140803333Y-82970714D01*
X140755714Y-83065952D01*
X140708095Y-83113571D01*
X140612857Y-83161190D01*
X140231904Y-83161190D01*
X141136666Y-82637380D02*
X141755714Y-82637380D01*
X141422380Y-83018333D01*
X141565238Y-83018333D01*
X141660476Y-83065952D01*
X141708095Y-83113571D01*
X141755714Y-83208809D01*
X141755714Y-83446904D01*
X141708095Y-83542142D01*
X141660476Y-83589761D01*
X141565238Y-83637380D01*
X141279523Y-83637380D01*
X141184285Y-83589761D01*
X141136666Y-83542142D01*
X140755714Y-87050476D02*
X141422380Y-87050476D01*
X140374761Y-87288571D02*
X141089047Y-87526666D01*
X141089047Y-86907619D01*
X141422380Y-86526666D02*
X140422380Y-86526666D01*
X141041428Y-86431428D02*
X141422380Y-86145714D01*
X140755714Y-86145714D02*
X141136666Y-86526666D01*
X140422380Y-85812380D02*
X140422380Y-85145714D01*
X141422380Y-85574285D01*
X129373333Y-83637380D02*
X129040000Y-83161190D01*
X128801904Y-83637380D02*
X128801904Y-82637380D01*
X129182857Y-82637380D01*
X129278095Y-82685000D01*
X129325714Y-82732619D01*
X129373333Y-82827857D01*
X129373333Y-82970714D01*
X129325714Y-83065952D01*
X129278095Y-83113571D01*
X129182857Y-83161190D01*
X128801904Y-83161190D01*
X130230476Y-82970714D02*
X130230476Y-83637380D01*
X129992380Y-82589761D02*
X129754285Y-83304047D01*
X130373333Y-83304047D01*
X129325714Y-87050476D02*
X129992380Y-87050476D01*
X128944761Y-87288571D02*
X129659047Y-87526666D01*
X129659047Y-86907619D01*
X129992380Y-86526666D02*
X128992380Y-86526666D01*
X129611428Y-86431428D02*
X129992380Y-86145714D01*
X129325714Y-86145714D02*
X129706666Y-86526666D01*
X128992380Y-85812380D02*
X128992380Y-85145714D01*
X129992380Y-85574285D01*
X118578333Y-112847380D02*
X118245000Y-112371190D01*
X118006904Y-112847380D02*
X118006904Y-111847380D01*
X118387857Y-111847380D01*
X118483095Y-111895000D01*
X118530714Y-111942619D01*
X118578333Y-112037857D01*
X118578333Y-112180714D01*
X118530714Y-112275952D01*
X118483095Y-112323571D01*
X118387857Y-112371190D01*
X118006904Y-112371190D01*
X119483095Y-111847380D02*
X119006904Y-111847380D01*
X118959285Y-112323571D01*
X119006904Y-112275952D01*
X119102142Y-112228333D01*
X119340238Y-112228333D01*
X119435476Y-112275952D01*
X119483095Y-112323571D01*
X119530714Y-112418809D01*
X119530714Y-112656904D01*
X119483095Y-112752142D01*
X119435476Y-112799761D01*
X119340238Y-112847380D01*
X119102142Y-112847380D01*
X119006904Y-112799761D01*
X118959285Y-112752142D01*
X121729523Y-112847380D02*
X121158095Y-112847380D01*
X121443809Y-112847380D02*
X121443809Y-111847380D01*
X121348571Y-111990238D01*
X121253333Y-112085476D01*
X121158095Y-112133095D01*
X122348571Y-111847380D02*
X122443809Y-111847380D01*
X122539047Y-111895000D01*
X122586666Y-111942619D01*
X122634285Y-112037857D01*
X122681904Y-112228333D01*
X122681904Y-112466428D01*
X122634285Y-112656904D01*
X122586666Y-112752142D01*
X122539047Y-112799761D01*
X122443809Y-112847380D01*
X122348571Y-112847380D01*
X122253333Y-112799761D01*
X122205714Y-112752142D01*
X122158095Y-112656904D01*
X122110476Y-112466428D01*
X122110476Y-112228333D01*
X122158095Y-112037857D01*
X122205714Y-111942619D01*
X122253333Y-111895000D01*
X122348571Y-111847380D01*
X109093095Y-90257380D02*
X109093095Y-91066904D01*
X109140714Y-91162142D01*
X109188333Y-91209761D01*
X109283571Y-91257380D01*
X109474047Y-91257380D01*
X109569285Y-91209761D01*
X109616904Y-91162142D01*
X109664523Y-91066904D01*
X109664523Y-90257380D01*
X110664523Y-91257380D02*
X110093095Y-91257380D01*
X110378809Y-91257380D02*
X110378809Y-90257380D01*
X110283571Y-90400238D01*
X110188333Y-90495476D01*
X110093095Y-90543095D01*
D10*
X108502619Y-93706904D02*
X108121666Y-93706904D01*
X108121666Y-92906904D01*
X108769285Y-93706904D02*
X108769285Y-92906904D01*
X109035952Y-93478333D01*
X109302619Y-92906904D01*
X109302619Y-93706904D01*
X109607380Y-92906904D02*
X110102619Y-92906904D01*
X109835952Y-93211666D01*
X109950238Y-93211666D01*
X110026428Y-93249761D01*
X110064523Y-93287857D01*
X110102619Y-93364047D01*
X110102619Y-93554523D01*
X110064523Y-93630714D01*
X110026428Y-93668809D01*
X109950238Y-93706904D01*
X109721666Y-93706904D01*
X109645476Y-93668809D01*
X109607380Y-93630714D01*
X110559761Y-93249761D02*
X110483571Y-93211666D01*
X110445476Y-93173571D01*
X110407380Y-93097380D01*
X110407380Y-93059285D01*
X110445476Y-92983095D01*
X110483571Y-92945000D01*
X110559761Y-92906904D01*
X110712142Y-92906904D01*
X110788333Y-92945000D01*
X110826428Y-92983095D01*
X110864523Y-93059285D01*
X110864523Y-93097380D01*
X110826428Y-93173571D01*
X110788333Y-93211666D01*
X110712142Y-93249761D01*
X110559761Y-93249761D01*
X110483571Y-93287857D01*
X110445476Y-93325952D01*
X110407380Y-93402142D01*
X110407380Y-93554523D01*
X110445476Y-93630714D01*
X110483571Y-93668809D01*
X110559761Y-93706904D01*
X110712142Y-93706904D01*
X110788333Y-93668809D01*
X110826428Y-93630714D01*
X110864523Y-93554523D01*
X110864523Y-93402142D01*
X110826428Y-93325952D01*
X110788333Y-93287857D01*
X110712142Y-93249761D01*
X111550238Y-92906904D02*
X111397857Y-92906904D01*
X111321666Y-92945000D01*
X111283571Y-92983095D01*
X111207380Y-93097380D01*
X111169285Y-93249761D01*
X111169285Y-93554523D01*
X111207380Y-93630714D01*
X111245476Y-93668809D01*
X111321666Y-93706904D01*
X111474047Y-93706904D01*
X111550238Y-93668809D01*
X111588333Y-93630714D01*
X111626428Y-93554523D01*
X111626428Y-93364047D01*
X111588333Y-93287857D01*
X111550238Y-93249761D01*
X111474047Y-93211666D01*
X111321666Y-93211666D01*
X111245476Y-93249761D01*
X111207380Y-93287857D01*
X111169285Y-93364047D01*
D11*
X129897142Y-95416666D02*
X129944761Y-95464285D01*
X129992380Y-95607142D01*
X129992380Y-95702380D01*
X129944761Y-95845238D01*
X129849523Y-95940476D01*
X129754285Y-95988095D01*
X129563809Y-96035714D01*
X129420952Y-96035714D01*
X129230476Y-95988095D01*
X129135238Y-95940476D01*
X129040000Y-95845238D01*
X128992380Y-95702380D01*
X128992380Y-95607142D01*
X129040000Y-95464285D01*
X129087619Y-95416666D01*
X129992380Y-94464285D02*
X129992380Y-95035714D01*
X129992380Y-94750000D02*
X128992380Y-94750000D01*
X129135238Y-94845238D01*
X129230476Y-94940476D01*
X129278095Y-95035714D01*
X133072142Y-95416666D02*
X133119761Y-95464285D01*
X133167380Y-95607142D01*
X133167380Y-95702380D01*
X133119761Y-95845238D01*
X133024523Y-95940476D01*
X132929285Y-95988095D01*
X132738809Y-96035714D01*
X132595952Y-96035714D01*
X132405476Y-95988095D01*
X132310238Y-95940476D01*
X132215000Y-95845238D01*
X132167380Y-95702380D01*
X132167380Y-95607142D01*
X132215000Y-95464285D01*
X132262619Y-95416666D01*
X132262619Y-95035714D02*
X132215000Y-94988095D01*
X132167380Y-94892857D01*
X132167380Y-94654761D01*
X132215000Y-94559523D01*
X132262619Y-94511904D01*
X132357857Y-94464285D01*
X132453095Y-94464285D01*
X132595952Y-94511904D01*
X133167380Y-95083333D01*
X133167380Y-94464285D01*
D10*
X133813571Y-96373809D02*
X134346904Y-96373809D01*
X133508809Y-96564285D02*
X134080238Y-96754761D01*
X134080238Y-96259523D01*
X134270714Y-95954761D02*
X134308809Y-95916666D01*
X134346904Y-95954761D01*
X134308809Y-95992857D01*
X134270714Y-95954761D01*
X134346904Y-95954761D01*
X133546904Y-95650000D02*
X133546904Y-95116666D01*
X134346904Y-95459523D01*
X133813571Y-94811904D02*
X134346904Y-94811904D01*
X133889761Y-94811904D02*
X133851666Y-94773809D01*
X133813571Y-94697619D01*
X133813571Y-94583333D01*
X133851666Y-94507142D01*
X133927857Y-94469047D01*
X134346904Y-94469047D01*
X133927857Y-93821428D02*
X133927857Y-94088095D01*
X134346904Y-94088095D02*
X133546904Y-94088095D01*
X133546904Y-93707142D01*
D11*
X136882142Y-95416666D02*
X136929761Y-95464285D01*
X136977380Y-95607142D01*
X136977380Y-95702380D01*
X136929761Y-95845238D01*
X136834523Y-95940476D01*
X136739285Y-95988095D01*
X136548809Y-96035714D01*
X136405952Y-96035714D01*
X136215476Y-95988095D01*
X136120238Y-95940476D01*
X136025000Y-95845238D01*
X135977380Y-95702380D01*
X135977380Y-95607142D01*
X136025000Y-95464285D01*
X136072619Y-95416666D01*
X135977380Y-95083333D02*
X135977380Y-94464285D01*
X136358333Y-94797619D01*
X136358333Y-94654761D01*
X136405952Y-94559523D01*
X136453571Y-94511904D01*
X136548809Y-94464285D01*
X136786904Y-94464285D01*
X136882142Y-94511904D01*
X136929761Y-94559523D01*
X136977380Y-94654761D01*
X136977380Y-94940476D01*
X136929761Y-95035714D01*
X136882142Y-95083333D01*
D10*
X137623571Y-96373809D02*
X138156904Y-96373809D01*
X137318809Y-96564285D02*
X137890238Y-96754761D01*
X137890238Y-96259523D01*
X138080714Y-95954761D02*
X138118809Y-95916666D01*
X138156904Y-95954761D01*
X138118809Y-95992857D01*
X138080714Y-95954761D01*
X138156904Y-95954761D01*
X137356904Y-95650000D02*
X137356904Y-95116666D01*
X138156904Y-95459523D01*
X137623571Y-94811904D02*
X138156904Y-94811904D01*
X137699761Y-94811904D02*
X137661666Y-94773809D01*
X137623571Y-94697619D01*
X137623571Y-94583333D01*
X137661666Y-94507142D01*
X137737857Y-94469047D01*
X138156904Y-94469047D01*
X137737857Y-93821428D02*
X137737857Y-94088095D01*
X138156904Y-94088095D02*
X137356904Y-94088095D01*
X137356904Y-93707142D01*
D11*
X140692142Y-95416666D02*
X140739761Y-95464285D01*
X140787380Y-95607142D01*
X140787380Y-95702380D01*
X140739761Y-95845238D01*
X140644523Y-95940476D01*
X140549285Y-95988095D01*
X140358809Y-96035714D01*
X140215952Y-96035714D01*
X140025476Y-95988095D01*
X139930238Y-95940476D01*
X139835000Y-95845238D01*
X139787380Y-95702380D01*
X139787380Y-95607142D01*
X139835000Y-95464285D01*
X139882619Y-95416666D01*
X140120714Y-94559523D02*
X140787380Y-94559523D01*
X139739761Y-94797619D02*
X140454047Y-95035714D01*
X140454047Y-94416666D01*
D10*
X141433571Y-96373809D02*
X141966904Y-96373809D01*
X141128809Y-96564285D02*
X141700238Y-96754761D01*
X141700238Y-96259523D01*
X141890714Y-95954761D02*
X141928809Y-95916666D01*
X141966904Y-95954761D01*
X141928809Y-95992857D01*
X141890714Y-95954761D01*
X141966904Y-95954761D01*
X141166904Y-95650000D02*
X141166904Y-95116666D01*
X141966904Y-95459523D01*
X141433571Y-94811904D02*
X141966904Y-94811904D01*
X141509761Y-94811904D02*
X141471666Y-94773809D01*
X141433571Y-94697619D01*
X141433571Y-94583333D01*
X141471666Y-94507142D01*
X141547857Y-94469047D01*
X141966904Y-94469047D01*
X141547857Y-93821428D02*
X141547857Y-94088095D01*
X141966904Y-94088095D02*
X141166904Y-94088095D01*
X141166904Y-93707142D01*
D11*
X108973333Y-101322142D02*
X108925714Y-101369761D01*
X108782857Y-101417380D01*
X108687619Y-101417380D01*
X108544761Y-101369761D01*
X108449523Y-101274523D01*
X108401904Y-101179285D01*
X108354285Y-100988809D01*
X108354285Y-100845952D01*
X108401904Y-100655476D01*
X108449523Y-100560238D01*
X108544761Y-100465000D01*
X108687619Y-100417380D01*
X108782857Y-100417380D01*
X108925714Y-100465000D01*
X108973333Y-100512619D01*
X109878095Y-100417380D02*
X109401904Y-100417380D01*
X109354285Y-100893571D01*
X109401904Y-100845952D01*
X109497142Y-100798333D01*
X109735238Y-100798333D01*
X109830476Y-100845952D01*
X109878095Y-100893571D01*
X109925714Y-100988809D01*
X109925714Y-101226904D01*
X109878095Y-101322142D01*
X109830476Y-101369761D01*
X109735238Y-101417380D01*
X109497142Y-101417380D01*
X109401904Y-101369761D01*
X109354285Y-101322142D01*
D10*
X122421666Y-94900714D02*
X122383571Y-94938809D01*
X122269285Y-94976904D01*
X122193095Y-94976904D01*
X122078809Y-94938809D01*
X122002619Y-94862619D01*
X121964523Y-94786428D01*
X121926428Y-94634047D01*
X121926428Y-94519761D01*
X121964523Y-94367380D01*
X122002619Y-94291190D01*
X122078809Y-94215000D01*
X122193095Y-94176904D01*
X122269285Y-94176904D01*
X122383571Y-94215000D01*
X122421666Y-94253095D01*
X123107380Y-94176904D02*
X122955000Y-94176904D01*
X122878809Y-94215000D01*
X122840714Y-94253095D01*
X122764523Y-94367380D01*
X122726428Y-94519761D01*
X122726428Y-94824523D01*
X122764523Y-94900714D01*
X122802619Y-94938809D01*
X122878809Y-94976904D01*
X123031190Y-94976904D01*
X123107380Y-94938809D01*
X123145476Y-94900714D01*
X123183571Y-94824523D01*
X123183571Y-94634047D01*
X123145476Y-94557857D01*
X123107380Y-94519761D01*
X123031190Y-94481666D01*
X122878809Y-94481666D01*
X122802619Y-94519761D01*
X122764523Y-94557857D01*
X122726428Y-94634047D01*
X121697857Y-96246904D02*
X121240714Y-96246904D01*
X121469285Y-96246904D02*
X121469285Y-95446904D01*
X121393095Y-95561190D01*
X121316904Y-95637380D01*
X121240714Y-95675476D01*
X122193095Y-95446904D02*
X122269285Y-95446904D01*
X122345476Y-95485000D01*
X122383571Y-95523095D01*
X122421666Y-95599285D01*
X122459761Y-95751666D01*
X122459761Y-95942142D01*
X122421666Y-96094523D01*
X122383571Y-96170714D01*
X122345476Y-96208809D01*
X122269285Y-96246904D01*
X122193095Y-96246904D01*
X122116904Y-96208809D01*
X122078809Y-96170714D01*
X122040714Y-96094523D01*
X122002619Y-95942142D01*
X122002619Y-95751666D01*
X122040714Y-95599285D01*
X122078809Y-95523095D01*
X122116904Y-95485000D01*
X122193095Y-95446904D01*
X123145476Y-95713571D02*
X123145476Y-96246904D01*
X122802619Y-95713571D02*
X122802619Y-96132619D01*
X122840714Y-96208809D01*
X122916904Y-96246904D01*
X123031190Y-96246904D01*
X123107380Y-96208809D01*
X123145476Y-96170714D01*
X123793095Y-95827857D02*
X123526428Y-95827857D01*
X123526428Y-96246904D02*
X123526428Y-95446904D01*
X123907380Y-95446904D01*
X101022166Y-86010714D02*
X100984071Y-86048809D01*
X100869785Y-86086904D01*
X100793595Y-86086904D01*
X100679309Y-86048809D01*
X100603119Y-85972619D01*
X100565023Y-85896428D01*
X100526928Y-85744047D01*
X100526928Y-85629761D01*
X100565023Y-85477380D01*
X100603119Y-85401190D01*
X100679309Y-85325000D01*
X100793595Y-85286904D01*
X100869785Y-85286904D01*
X100984071Y-85325000D01*
X101022166Y-85363095D01*
X101479309Y-85629761D02*
X101403119Y-85591666D01*
X101365023Y-85553571D01*
X101326928Y-85477380D01*
X101326928Y-85439285D01*
X101365023Y-85363095D01*
X101403119Y-85325000D01*
X101479309Y-85286904D01*
X101631690Y-85286904D01*
X101707880Y-85325000D01*
X101745976Y-85363095D01*
X101784071Y-85439285D01*
X101784071Y-85477380D01*
X101745976Y-85553571D01*
X101707880Y-85591666D01*
X101631690Y-85629761D01*
X101479309Y-85629761D01*
X101403119Y-85667857D01*
X101365023Y-85705952D01*
X101326928Y-85782142D01*
X101326928Y-85934523D01*
X101365023Y-86010714D01*
X101403119Y-86048809D01*
X101479309Y-86086904D01*
X101631690Y-86086904D01*
X101707880Y-86048809D01*
X101745976Y-86010714D01*
X101784071Y-85934523D01*
X101784071Y-85782142D01*
X101745976Y-85705952D01*
X101707880Y-85667857D01*
X101631690Y-85629761D01*
X100298357Y-87356904D02*
X99841214Y-87356904D01*
X100069785Y-87356904D02*
X100069785Y-86556904D01*
X99993595Y-86671190D01*
X99917404Y-86747380D01*
X99841214Y-86785476D01*
X100793595Y-86556904D02*
X100869785Y-86556904D01*
X100945976Y-86595000D01*
X100984071Y-86633095D01*
X101022166Y-86709285D01*
X101060261Y-86861666D01*
X101060261Y-87052142D01*
X101022166Y-87204523D01*
X100984071Y-87280714D01*
X100945976Y-87318809D01*
X100869785Y-87356904D01*
X100793595Y-87356904D01*
X100717404Y-87318809D01*
X100679309Y-87280714D01*
X100641214Y-87204523D01*
X100603119Y-87052142D01*
X100603119Y-86861666D01*
X100641214Y-86709285D01*
X100679309Y-86633095D01*
X100717404Y-86595000D01*
X100793595Y-86556904D01*
X101745976Y-86823571D02*
X101745976Y-87356904D01*
X101403119Y-86823571D02*
X101403119Y-87242619D01*
X101441214Y-87318809D01*
X101517404Y-87356904D01*
X101631690Y-87356904D01*
X101707880Y-87318809D01*
X101745976Y-87280714D01*
X102393595Y-86937857D02*
X102126928Y-86937857D01*
X102126928Y-87356904D02*
X102126928Y-86556904D01*
X102507880Y-86556904D01*
D11*
X108973333Y-105767142D02*
X108925714Y-105814761D01*
X108782857Y-105862380D01*
X108687619Y-105862380D01*
X108544761Y-105814761D01*
X108449523Y-105719523D01*
X108401904Y-105624285D01*
X108354285Y-105433809D01*
X108354285Y-105290952D01*
X108401904Y-105100476D01*
X108449523Y-105005238D01*
X108544761Y-104910000D01*
X108687619Y-104862380D01*
X108782857Y-104862380D01*
X108925714Y-104910000D01*
X108973333Y-104957619D01*
X109449523Y-105862380D02*
X109640000Y-105862380D01*
X109735238Y-105814761D01*
X109782857Y-105767142D01*
X109878095Y-105624285D01*
X109925714Y-105433809D01*
X109925714Y-105052857D01*
X109878095Y-104957619D01*
X109830476Y-104910000D01*
X109735238Y-104862380D01*
X109544761Y-104862380D01*
X109449523Y-104910000D01*
X109401904Y-104957619D01*
X109354285Y-105052857D01*
X109354285Y-105290952D01*
X109401904Y-105386190D01*
X109449523Y-105433809D01*
X109544761Y-105481428D01*
X109735238Y-105481428D01*
X109830476Y-105433809D01*
X109878095Y-105386190D01*
X109925714Y-105290952D01*
D10*
X108206666Y-103968571D02*
X108206666Y-104501904D01*
X108016190Y-103663809D02*
X107825714Y-104235238D01*
X108320952Y-104235238D01*
X108549523Y-103701904D02*
X109082857Y-103701904D01*
X108740000Y-104501904D01*
X109387619Y-103968571D02*
X109387619Y-104501904D01*
X109387619Y-104044761D02*
X109425714Y-104006666D01*
X109501904Y-103968571D01*
X109616190Y-103968571D01*
X109692380Y-104006666D01*
X109730476Y-104082857D01*
X109730476Y-104501904D01*
X110378095Y-104082857D02*
X110111428Y-104082857D01*
X110111428Y-104501904D02*
X110111428Y-103701904D01*
X110492380Y-103701904D01*
X101212714Y-102520714D02*
X101174619Y-102558809D01*
X101060333Y-102596904D01*
X100984142Y-102596904D01*
X100869857Y-102558809D01*
X100793666Y-102482619D01*
X100755571Y-102406428D01*
X100717476Y-102254047D01*
X100717476Y-102139761D01*
X100755571Y-101987380D01*
X100793666Y-101911190D01*
X100869857Y-101835000D01*
X100984142Y-101796904D01*
X101060333Y-101796904D01*
X101174619Y-101835000D01*
X101212714Y-101873095D01*
X101974619Y-102596904D02*
X101517476Y-102596904D01*
X101746047Y-102596904D02*
X101746047Y-101796904D01*
X101669857Y-101911190D01*
X101593666Y-101987380D01*
X101517476Y-102025476D01*
X102469857Y-101796904D02*
X102546047Y-101796904D01*
X102622238Y-101835000D01*
X102660333Y-101873095D01*
X102698428Y-101949285D01*
X102736523Y-102101666D01*
X102736523Y-102292142D01*
X102698428Y-102444523D01*
X102660333Y-102520714D01*
X102622238Y-102558809D01*
X102546047Y-102596904D01*
X102469857Y-102596904D01*
X102393666Y-102558809D01*
X102355571Y-102520714D01*
X102317476Y-102444523D01*
X102279380Y-102292142D01*
X102279380Y-102101666D01*
X102317476Y-101949285D01*
X102355571Y-101873095D01*
X102393666Y-101835000D01*
X102469857Y-101796904D01*
X99904761Y-103143095D02*
X99942857Y-103105000D01*
X100019047Y-103066904D01*
X100209523Y-103066904D01*
X100285714Y-103105000D01*
X100323809Y-103143095D01*
X100361904Y-103219285D01*
X100361904Y-103295476D01*
X100323809Y-103409761D01*
X99866666Y-103866904D01*
X100361904Y-103866904D01*
X100666666Y-103143095D02*
X100704761Y-103105000D01*
X100780952Y-103066904D01*
X100971428Y-103066904D01*
X101047619Y-103105000D01*
X101085714Y-103143095D01*
X101123809Y-103219285D01*
X101123809Y-103295476D01*
X101085714Y-103409761D01*
X100628571Y-103866904D01*
X101123809Y-103866904D01*
X101619047Y-103066904D02*
X101695238Y-103066904D01*
X101771428Y-103105000D01*
X101809523Y-103143095D01*
X101847619Y-103219285D01*
X101885714Y-103371666D01*
X101885714Y-103562142D01*
X101847619Y-103714523D01*
X101809523Y-103790714D01*
X101771428Y-103828809D01*
X101695238Y-103866904D01*
X101619047Y-103866904D01*
X101542857Y-103828809D01*
X101504761Y-103790714D01*
X101466666Y-103714523D01*
X101428571Y-103562142D01*
X101428571Y-103371666D01*
X101466666Y-103219285D01*
X101504761Y-103143095D01*
X101542857Y-103105000D01*
X101619047Y-103066904D01*
X102571428Y-103333571D02*
X102571428Y-103866904D01*
X102228571Y-103333571D02*
X102228571Y-103752619D01*
X102266666Y-103828809D01*
X102342857Y-103866904D01*
X102457142Y-103866904D01*
X102533333Y-103828809D01*
X102571428Y-103790714D01*
X103219047Y-103447857D02*
X102952380Y-103447857D01*
X102952380Y-103866904D02*
X102952380Y-103066904D01*
X103333333Y-103066904D01*
D11*
X81097380Y-139168095D02*
X80097380Y-139168095D01*
X80097380Y-138930000D01*
X80145000Y-138787142D01*
X80240238Y-138691904D01*
X80335476Y-138644285D01*
X80525952Y-138596666D01*
X80668809Y-138596666D01*
X80859285Y-138644285D01*
X80954523Y-138691904D01*
X81049761Y-138787142D01*
X81097380Y-138930000D01*
X81097380Y-139168095D01*
X81097380Y-137644285D02*
X81097380Y-138215714D01*
X81097380Y-137930000D02*
X80097380Y-137930000D01*
X80240238Y-138025238D01*
X80335476Y-138120476D01*
X80383095Y-138215714D01*
D10*
X78797380Y-135616904D02*
X78797380Y-134816904D01*
X79102142Y-134816904D01*
X79178333Y-134855000D01*
X79216428Y-134893095D01*
X79254523Y-134969285D01*
X79254523Y-135083571D01*
X79216428Y-135159761D01*
X79178333Y-135197857D01*
X79102142Y-135235952D01*
X78797380Y-135235952D01*
X79749761Y-134816904D02*
X79902142Y-134816904D01*
X79978333Y-134855000D01*
X80054523Y-134931190D01*
X80092619Y-135083571D01*
X80092619Y-135350238D01*
X80054523Y-135502619D01*
X79978333Y-135578809D01*
X79902142Y-135616904D01*
X79749761Y-135616904D01*
X79673571Y-135578809D01*
X79597380Y-135502619D01*
X79559285Y-135350238D01*
X79559285Y-135083571D01*
X79597380Y-134931190D01*
X79673571Y-134855000D01*
X79749761Y-134816904D01*
X80359285Y-134816904D02*
X80549761Y-135616904D01*
X80702142Y-135045476D01*
X80854523Y-135616904D01*
X81045000Y-134816904D01*
X81349761Y-135197857D02*
X81616428Y-135197857D01*
X81730714Y-135616904D02*
X81349761Y-135616904D01*
X81349761Y-134816904D01*
X81730714Y-134816904D01*
X82530714Y-135616904D02*
X82264047Y-135235952D01*
X82073571Y-135616904D02*
X82073571Y-134816904D01*
X82378333Y-134816904D01*
X82454523Y-134855000D01*
X82492619Y-134893095D01*
X82530714Y-134969285D01*
X82530714Y-135083571D01*
X82492619Y-135159761D01*
X82454523Y-135197857D01*
X82378333Y-135235952D01*
X82073571Y-135235952D01*
D11*
X144613333Y-128087380D02*
X144280000Y-127611190D01*
X144041904Y-128087380D02*
X144041904Y-127087380D01*
X144422857Y-127087380D01*
X144518095Y-127135000D01*
X144565714Y-127182619D01*
X144613333Y-127277857D01*
X144613333Y-127420714D01*
X144565714Y-127515952D01*
X144518095Y-127563571D01*
X144422857Y-127611190D01*
X144041904Y-127611190D01*
X145470476Y-127087380D02*
X145280000Y-127087380D01*
X145184761Y-127135000D01*
X145137142Y-127182619D01*
X145041904Y-127325476D01*
X144994285Y-127515952D01*
X144994285Y-127896904D01*
X145041904Y-127992142D01*
X145089523Y-128039761D01*
X145184761Y-128087380D01*
X145375238Y-128087380D01*
X145470476Y-128039761D01*
X145518095Y-127992142D01*
X145565714Y-127896904D01*
X145565714Y-127658809D01*
X145518095Y-127563571D01*
X145470476Y-127515952D01*
X145375238Y-127468333D01*
X145184761Y-127468333D01*
X145089523Y-127515952D01*
X145041904Y-127563571D01*
X144994285Y-127658809D01*
X140319285Y-127087380D02*
X140938333Y-127087380D01*
X140605000Y-127468333D01*
X140747857Y-127468333D01*
X140843095Y-127515952D01*
X140890714Y-127563571D01*
X140938333Y-127658809D01*
X140938333Y-127896904D01*
X140890714Y-127992142D01*
X140843095Y-128039761D01*
X140747857Y-128087380D01*
X140462142Y-128087380D01*
X140366904Y-128039761D01*
X140319285Y-127992142D01*
X141271666Y-127087380D02*
X141890714Y-127087380D01*
X141557380Y-127468333D01*
X141700238Y-127468333D01*
X141795476Y-127515952D01*
X141843095Y-127563571D01*
X141890714Y-127658809D01*
X141890714Y-127896904D01*
X141843095Y-127992142D01*
X141795476Y-128039761D01*
X141700238Y-128087380D01*
X141414523Y-128087380D01*
X141319285Y-128039761D01*
X141271666Y-127992142D01*
X142509761Y-127087380D02*
X142605000Y-127087380D01*
X142700238Y-127135000D01*
X142747857Y-127182619D01*
X142795476Y-127277857D01*
X142843095Y-127468333D01*
X142843095Y-127706428D01*
X142795476Y-127896904D01*
X142747857Y-127992142D01*
X142700238Y-128039761D01*
X142605000Y-128087380D01*
X142509761Y-128087380D01*
X142414523Y-128039761D01*
X142366904Y-127992142D01*
X142319285Y-127896904D01*
X142271666Y-127706428D01*
X142271666Y-127468333D01*
X142319285Y-127277857D01*
X142366904Y-127182619D01*
X142414523Y-127135000D01*
X142509761Y-127087380D01*
X82283333Y-78301904D02*
X82283333Y-78873333D01*
X82245238Y-78987619D01*
X82169047Y-79063809D01*
X82054761Y-79101904D01*
X81978571Y-79101904D01*
X82626190Y-78378095D02*
X82664285Y-78340000D01*
X82740476Y-78301904D01*
X82930952Y-78301904D01*
X83007142Y-78340000D01*
X83045238Y-78378095D01*
X83083333Y-78454285D01*
X83083333Y-78530476D01*
X83045238Y-78644761D01*
X82588095Y-79101904D01*
X83083333Y-79101904D01*
D10*
X81864285Y-80602142D02*
X82064285Y-80602142D01*
X82150000Y-80916428D02*
X81864285Y-80916428D01*
X81864285Y-80316428D01*
X82150000Y-80316428D01*
X82378571Y-80745000D02*
X82664285Y-80745000D01*
X82321428Y-80916428D02*
X82521428Y-80316428D01*
X82721428Y-80916428D01*
X83264285Y-80916428D02*
X83064285Y-80630714D01*
X82921428Y-80916428D02*
X82921428Y-80316428D01*
X83150000Y-80316428D01*
X83207142Y-80345000D01*
X83235714Y-80373571D01*
X83264285Y-80430714D01*
X83264285Y-80516428D01*
X83235714Y-80573571D01*
X83207142Y-80602142D01*
X83150000Y-80630714D01*
X82921428Y-80630714D01*
D11*
X160472380Y-139168095D02*
X159472380Y-139168095D01*
X159472380Y-138930000D01*
X159520000Y-138787142D01*
X159615238Y-138691904D01*
X159710476Y-138644285D01*
X159900952Y-138596666D01*
X160043809Y-138596666D01*
X160234285Y-138644285D01*
X160329523Y-138691904D01*
X160424761Y-138787142D01*
X160472380Y-138930000D01*
X160472380Y-139168095D01*
X159567619Y-138215714D02*
X159520000Y-138168095D01*
X159472380Y-138072857D01*
X159472380Y-137834761D01*
X159520000Y-137739523D01*
X159567619Y-137691904D01*
X159662857Y-137644285D01*
X159758095Y-137644285D01*
X159900952Y-137691904D01*
X160472380Y-138263333D01*
X160472380Y-137644285D01*
D10*
X158648571Y-134816904D02*
X158648571Y-135464523D01*
X158686666Y-135540714D01*
X158724761Y-135578809D01*
X158800952Y-135616904D01*
X158953333Y-135616904D01*
X159029523Y-135578809D01*
X159067619Y-135540714D01*
X159105714Y-135464523D01*
X159105714Y-134816904D01*
X159448571Y-135578809D02*
X159562857Y-135616904D01*
X159753333Y-135616904D01*
X159829523Y-135578809D01*
X159867619Y-135540714D01*
X159905714Y-135464523D01*
X159905714Y-135388333D01*
X159867619Y-135312142D01*
X159829523Y-135274047D01*
X159753333Y-135235952D01*
X159600952Y-135197857D01*
X159524761Y-135159761D01*
X159486666Y-135121666D01*
X159448571Y-135045476D01*
X159448571Y-134969285D01*
X159486666Y-134893095D01*
X159524761Y-134855000D01*
X159600952Y-134816904D01*
X159791428Y-134816904D01*
X159905714Y-134855000D01*
X160248571Y-135197857D02*
X160515238Y-135197857D01*
X160629523Y-135616904D02*
X160248571Y-135616904D01*
X160248571Y-134816904D01*
X160629523Y-134816904D01*
X161429523Y-135616904D02*
X161162857Y-135235952D01*
X160972380Y-135616904D02*
X160972380Y-134816904D01*
X161277142Y-134816904D01*
X161353333Y-134855000D01*
X161391428Y-134893095D01*
X161429523Y-134969285D01*
X161429523Y-135083571D01*
X161391428Y-135159761D01*
X161353333Y-135197857D01*
X161277142Y-135235952D01*
X160972380Y-135235952D01*
D11*
X144613333Y-124277380D02*
X144280000Y-123801190D01*
X144041904Y-124277380D02*
X144041904Y-123277380D01*
X144422857Y-123277380D01*
X144518095Y-123325000D01*
X144565714Y-123372619D01*
X144613333Y-123467857D01*
X144613333Y-123610714D01*
X144565714Y-123705952D01*
X144518095Y-123753571D01*
X144422857Y-123801190D01*
X144041904Y-123801190D01*
X144946666Y-123277380D02*
X145613333Y-123277380D01*
X145184761Y-124277380D01*
X140319285Y-123277380D02*
X140938333Y-123277380D01*
X140605000Y-123658333D01*
X140747857Y-123658333D01*
X140843095Y-123705952D01*
X140890714Y-123753571D01*
X140938333Y-123848809D01*
X140938333Y-124086904D01*
X140890714Y-124182142D01*
X140843095Y-124229761D01*
X140747857Y-124277380D01*
X140462142Y-124277380D01*
X140366904Y-124229761D01*
X140319285Y-124182142D01*
X141271666Y-123277380D02*
X141890714Y-123277380D01*
X141557380Y-123658333D01*
X141700238Y-123658333D01*
X141795476Y-123705952D01*
X141843095Y-123753571D01*
X141890714Y-123848809D01*
X141890714Y-124086904D01*
X141843095Y-124182142D01*
X141795476Y-124229761D01*
X141700238Y-124277380D01*
X141414523Y-124277380D01*
X141319285Y-124229761D01*
X141271666Y-124182142D01*
X142509761Y-123277380D02*
X142605000Y-123277380D01*
X142700238Y-123325000D01*
X142747857Y-123372619D01*
X142795476Y-123467857D01*
X142843095Y-123658333D01*
X142843095Y-123896428D01*
X142795476Y-124086904D01*
X142747857Y-124182142D01*
X142700238Y-124229761D01*
X142605000Y-124277380D01*
X142509761Y-124277380D01*
X142414523Y-124229761D01*
X142366904Y-124182142D01*
X142319285Y-124086904D01*
X142271666Y-123896428D01*
X142271666Y-123658333D01*
X142319285Y-123467857D01*
X142366904Y-123372619D01*
X142414523Y-123325000D01*
X142509761Y-123277380D01*
D10*
X167836904Y-116236666D02*
X168408333Y-116236666D01*
X168522619Y-116274761D01*
X168598809Y-116350952D01*
X168636904Y-116465238D01*
X168636904Y-116541428D01*
X168636904Y-115855714D02*
X167836904Y-115855714D01*
X167836904Y-115550952D01*
X167875000Y-115474761D01*
X167913095Y-115436666D01*
X167989285Y-115398571D01*
X168103571Y-115398571D01*
X168179761Y-115436666D01*
X168217857Y-115474761D01*
X168255952Y-115550952D01*
X168255952Y-115855714D01*
X167836904Y-114674761D02*
X167836904Y-115055714D01*
X168217857Y-115093809D01*
X168179761Y-115055714D01*
X168141666Y-114979523D01*
X168141666Y-114789047D01*
X168179761Y-114712857D01*
X168217857Y-114674761D01*
X168294047Y-114636666D01*
X168484523Y-114636666D01*
X168560714Y-114674761D01*
X168598809Y-114712857D01*
X168636904Y-114789047D01*
X168636904Y-114979523D01*
X168598809Y-115055714D01*
X168560714Y-115093809D01*
X166096904Y-117741428D02*
X165296904Y-117741428D01*
X165373095Y-117398571D02*
X165335000Y-117360476D01*
X165296904Y-117284285D01*
X165296904Y-117093809D01*
X165335000Y-117017619D01*
X165373095Y-116979523D01*
X165449285Y-116941428D01*
X165525476Y-116941428D01*
X165639761Y-116979523D01*
X166096904Y-117436666D01*
X166096904Y-116941428D01*
X166020714Y-116141428D02*
X166058809Y-116179523D01*
X166096904Y-116293809D01*
X166096904Y-116370000D01*
X166058809Y-116484285D01*
X165982619Y-116560476D01*
X165906428Y-116598571D01*
X165754047Y-116636666D01*
X165639761Y-116636666D01*
X165487380Y-116598571D01*
X165411190Y-116560476D01*
X165335000Y-116484285D01*
X165296904Y-116370000D01*
X165296904Y-116293809D01*
X165335000Y-116179523D01*
X165373095Y-116141428D01*
X166173095Y-115989047D02*
X166173095Y-115379523D01*
X165296904Y-115303333D02*
X166096904Y-115036666D01*
X165296904Y-114770000D01*
X165296904Y-114350952D02*
X165296904Y-114198571D01*
X165335000Y-114122380D01*
X165411190Y-114046190D01*
X165563571Y-114008095D01*
X165830238Y-114008095D01*
X165982619Y-114046190D01*
X166058809Y-114122380D01*
X166096904Y-114198571D01*
X166096904Y-114350952D01*
X166058809Y-114427142D01*
X165982619Y-114503333D01*
X165830238Y-114541428D01*
X165563571Y-114541428D01*
X165411190Y-114503333D01*
X165335000Y-114427142D01*
X165296904Y-114350952D01*
X166096904Y-113284285D02*
X166096904Y-113665238D01*
X165296904Y-113665238D01*
D11*
X137628333Y-112212380D02*
X137295000Y-111736190D01*
X137056904Y-112212380D02*
X137056904Y-111212380D01*
X137437857Y-111212380D01*
X137533095Y-111260000D01*
X137580714Y-111307619D01*
X137628333Y-111402857D01*
X137628333Y-111545714D01*
X137580714Y-111640952D01*
X137533095Y-111688571D01*
X137437857Y-111736190D01*
X137056904Y-111736190D01*
X138199761Y-111640952D02*
X138104523Y-111593333D01*
X138056904Y-111545714D01*
X138009285Y-111450476D01*
X138009285Y-111402857D01*
X138056904Y-111307619D01*
X138104523Y-111260000D01*
X138199761Y-111212380D01*
X138390238Y-111212380D01*
X138485476Y-111260000D01*
X138533095Y-111307619D01*
X138580714Y-111402857D01*
X138580714Y-111450476D01*
X138533095Y-111545714D01*
X138485476Y-111593333D01*
X138390238Y-111640952D01*
X138199761Y-111640952D01*
X138104523Y-111688571D01*
X138056904Y-111736190D01*
X138009285Y-111831428D01*
X138009285Y-112021904D01*
X138056904Y-112117142D01*
X138104523Y-112164761D01*
X138199761Y-112212380D01*
X138390238Y-112212380D01*
X138485476Y-112164761D01*
X138533095Y-112117142D01*
X138580714Y-112021904D01*
X138580714Y-111831428D01*
X138533095Y-111736190D01*
X138485476Y-111688571D01*
X138390238Y-111640952D01*
X137580714Y-115625476D02*
X138247380Y-115625476D01*
X137199761Y-115863571D02*
X137914047Y-116101666D01*
X137914047Y-115482619D01*
X138247380Y-115101666D02*
X137247380Y-115101666D01*
X137866428Y-115006428D02*
X138247380Y-114720714D01*
X137580714Y-114720714D02*
X137961666Y-115101666D01*
X137247380Y-114387380D02*
X137247380Y-113720714D01*
X138247380Y-114149285D01*
X141438333Y-112212380D02*
X141105000Y-111736190D01*
X140866904Y-112212380D02*
X140866904Y-111212380D01*
X141247857Y-111212380D01*
X141343095Y-111260000D01*
X141390714Y-111307619D01*
X141438333Y-111402857D01*
X141438333Y-111545714D01*
X141390714Y-111640952D01*
X141343095Y-111688571D01*
X141247857Y-111736190D01*
X140866904Y-111736190D01*
X141914523Y-112212380D02*
X142105000Y-112212380D01*
X142200238Y-112164761D01*
X142247857Y-112117142D01*
X142343095Y-111974285D01*
X142390714Y-111783809D01*
X142390714Y-111402857D01*
X142343095Y-111307619D01*
X142295476Y-111260000D01*
X142200238Y-111212380D01*
X142009761Y-111212380D01*
X141914523Y-111260000D01*
X141866904Y-111307619D01*
X141819285Y-111402857D01*
X141819285Y-111640952D01*
X141866904Y-111736190D01*
X141914523Y-111783809D01*
X142009761Y-111831428D01*
X142200238Y-111831428D01*
X142295476Y-111783809D01*
X142343095Y-111736190D01*
X142390714Y-111640952D01*
X141390714Y-115625476D02*
X142057380Y-115625476D01*
X141009761Y-115863571D02*
X141724047Y-116101666D01*
X141724047Y-115482619D01*
X142057380Y-115101666D02*
X141057380Y-115101666D01*
X141676428Y-115006428D02*
X142057380Y-114720714D01*
X141390714Y-114720714D02*
X141771666Y-115101666D01*
X141057380Y-114387380D02*
X141057380Y-113720714D01*
X142057380Y-114149285D01*
X113117380Y-103203333D02*
X113831666Y-103203333D01*
X113974523Y-103250952D01*
X114069761Y-103346190D01*
X114117380Y-103489047D01*
X114117380Y-103584285D01*
X113117380Y-102822380D02*
X113117380Y-102155714D01*
X114117380Y-102584285D01*
X119062857Y-99623571D02*
X119396190Y-99623571D01*
X119539047Y-100147380D02*
X119062857Y-100147380D01*
X119062857Y-99147380D01*
X119539047Y-99147380D01*
X119920000Y-99861666D02*
X120396190Y-99861666D01*
X119824761Y-100147380D02*
X120158095Y-99147380D01*
X120491428Y-100147380D01*
X121396190Y-100147380D02*
X121062857Y-99671190D01*
X120824761Y-100147380D02*
X120824761Y-99147380D01*
X121205714Y-99147380D01*
X121300952Y-99195000D01*
X121348571Y-99242619D01*
X121396190Y-99337857D01*
X121396190Y-99480714D01*
X121348571Y-99575952D01*
X121300952Y-99623571D01*
X121205714Y-99671190D01*
X120824761Y-99671190D01*
X121586666Y-100242619D02*
X122348571Y-100242619D01*
X122539047Y-100099761D02*
X122681904Y-100147380D01*
X122920000Y-100147380D01*
X123015238Y-100099761D01*
X123062857Y-100052142D01*
X123110476Y-99956904D01*
X123110476Y-99861666D01*
X123062857Y-99766428D01*
X123015238Y-99718809D01*
X122920000Y-99671190D01*
X122729523Y-99623571D01*
X122634285Y-99575952D01*
X122586666Y-99528333D01*
X122539047Y-99433095D01*
X122539047Y-99337857D01*
X122586666Y-99242619D01*
X122634285Y-99195000D01*
X122729523Y-99147380D01*
X122967619Y-99147380D01*
X123110476Y-99195000D01*
X123539047Y-99623571D02*
X123872380Y-99623571D01*
X124015238Y-100147380D02*
X123539047Y-100147380D01*
X123539047Y-99147380D01*
X124015238Y-99147380D01*
X124920000Y-100147380D02*
X124443809Y-100147380D01*
X124443809Y-99147380D01*
X120689761Y-83637380D02*
X120356428Y-83161190D01*
X120118333Y-83637380D02*
X120118333Y-82637380D01*
X120499285Y-82637380D01*
X120594523Y-82685000D01*
X120642142Y-82732619D01*
X120689761Y-82827857D01*
X120689761Y-82970714D01*
X120642142Y-83065952D01*
X120594523Y-83113571D01*
X120499285Y-83161190D01*
X120118333Y-83161190D01*
X120975476Y-82637380D02*
X121308809Y-83637380D01*
X121642142Y-82637380D01*
X121927857Y-82732619D02*
X121975476Y-82685000D01*
X122070714Y-82637380D01*
X122308809Y-82637380D01*
X122404047Y-82685000D01*
X122451666Y-82732619D01*
X122499285Y-82827857D01*
X122499285Y-82923095D01*
X122451666Y-83065952D01*
X121880238Y-83637380D01*
X122499285Y-83637380D01*
X120689761Y-85542380D02*
X120118333Y-85542380D01*
X120404047Y-85542380D02*
X120404047Y-84542380D01*
X120308809Y-84685238D01*
X120213571Y-84780476D01*
X120118333Y-84828095D01*
X121308809Y-84542380D02*
X121404047Y-84542380D01*
X121499285Y-84590000D01*
X121546904Y-84637619D01*
X121594523Y-84732857D01*
X121642142Y-84923333D01*
X121642142Y-85161428D01*
X121594523Y-85351904D01*
X121546904Y-85447142D01*
X121499285Y-85494761D01*
X121404047Y-85542380D01*
X121308809Y-85542380D01*
X121213571Y-85494761D01*
X121165952Y-85447142D01*
X121118333Y-85351904D01*
X121070714Y-85161428D01*
X121070714Y-84923333D01*
X121118333Y-84732857D01*
X121165952Y-84637619D01*
X121213571Y-84590000D01*
X121308809Y-84542380D01*
X122070714Y-85542380D02*
X122070714Y-84542380D01*
X122165952Y-85161428D02*
X122451666Y-85542380D01*
X122451666Y-84875714D02*
X122070714Y-85256666D01*
D10*
X97390000Y-80752857D02*
X97351904Y-80829047D01*
X97351904Y-80943333D01*
X97390000Y-81057619D01*
X97466190Y-81133809D01*
X97542380Y-81171904D01*
X97694761Y-81210000D01*
X97809047Y-81210000D01*
X97961428Y-81171904D01*
X98037619Y-81133809D01*
X98113809Y-81057619D01*
X98151904Y-80943333D01*
X98151904Y-80867142D01*
X98113809Y-80752857D01*
X98075714Y-80714761D01*
X97809047Y-80714761D01*
X97809047Y-80867142D01*
X97923333Y-80410000D02*
X97923333Y-80029047D01*
X98151904Y-80486190D02*
X97351904Y-80219523D01*
X98151904Y-79952857D01*
X98151904Y-79686190D02*
X97351904Y-79686190D01*
X98151904Y-79305238D02*
X97351904Y-79305238D01*
X98151904Y-78848095D01*
X97351904Y-78848095D01*
M02*
