G04 #@! TF.FileFunction,Soldermask,Top*
%FSLAX46Y46*%
G04 Gerber Fmt 4.6, Leading zero omitted, Abs format (unit mm)*
G04 Created by KiCad (PCBNEW 4.0.7) date 02/09/20 20:54:59*
%MOMM*%
%LPD*%
G01*
G04 APERTURE LIST*
%ADD10C,0.100000*%
%ADD11R,2.100000X2.100000*%
%ADD12O,2.100000X2.100000*%
%ADD13R,2.000000X2.000000*%
%ADD14O,2.000000X2.000000*%
%ADD15C,2.500000*%
%ADD16C,2.150000*%
%ADD17C,5.400000*%
%ADD18C,2.000000*%
%ADD19C,2.900000*%
%ADD20R,2.800000X2.000000*%
%ADD21O,2.800000X2.000000*%
%ADD22R,1.600000X1.600000*%
%ADD23C,1.600000*%
%ADD24C,2.300000*%
%ADD25O,2.900000X2.000000*%
%ADD26C,2.100000*%
%ADD27R,2.200000X2.200000*%
%ADD28C,2.200000*%
%ADD29R,3.900000X2.900000*%
%ADD30O,2.150000X3.900000*%
%ADD31R,1.924000X1.924000*%
%ADD32C,1.924000*%
G04 APERTURE END LIST*
D10*
D11*
X168275000Y-95250000D03*
D12*
X168275000Y-97790000D03*
X168275000Y-100330000D03*
X168275000Y-102870000D03*
X168275000Y-105410000D03*
X168275000Y-107950000D03*
X168275000Y-110490000D03*
D13*
X161290000Y-117475000D03*
D14*
X146050000Y-84455000D03*
X161290000Y-114935000D03*
X146050000Y-86995000D03*
X161290000Y-112395000D03*
X146050000Y-89535000D03*
X161290000Y-109855000D03*
X146050000Y-92075000D03*
X161290000Y-107315000D03*
X146050000Y-94615000D03*
X161290000Y-104775000D03*
X146050000Y-97155000D03*
X161290000Y-102235000D03*
X146050000Y-99695000D03*
X161290000Y-99695000D03*
X146050000Y-102235000D03*
X161290000Y-97155000D03*
X146050000Y-104775000D03*
X161290000Y-94615000D03*
X146050000Y-107315000D03*
X161290000Y-92075000D03*
X146050000Y-109855000D03*
X161290000Y-89535000D03*
X146050000Y-112395000D03*
X161290000Y-86995000D03*
X146050000Y-114935000D03*
X161290000Y-84455000D03*
X146050000Y-117475000D03*
X161290000Y-81915000D03*
X146050000Y-81915000D03*
D15*
X132035000Y-137210000D03*
D16*
X133295000Y-139700000D03*
X137795000Y-139700000D03*
D15*
X139045000Y-137210000D03*
X142830000Y-137210000D03*
D16*
X144090000Y-139700000D03*
X148590000Y-139700000D03*
D15*
X149840000Y-137210000D03*
X101555000Y-137210000D03*
D16*
X102815000Y-139700000D03*
X107315000Y-139700000D03*
D15*
X108565000Y-137210000D03*
X86315000Y-137210000D03*
D16*
X87575000Y-139700000D03*
X92075000Y-139700000D03*
D15*
X93325000Y-137210000D03*
X116795000Y-137210000D03*
D16*
X118055000Y-139700000D03*
X122555000Y-139700000D03*
D15*
X123805000Y-137210000D03*
D17*
X73660000Y-139065000D03*
X167005000Y-139065000D03*
X167005000Y-81280000D03*
X73660000Y-81280000D03*
D11*
X105410000Y-80010000D03*
D12*
X107950000Y-80010000D03*
D11*
X112395000Y-80010000D03*
D12*
X114935000Y-80010000D03*
D11*
X72390000Y-86360000D03*
D12*
X72390000Y-88900000D03*
X72390000Y-91440000D03*
D18*
X132715000Y-79375000D03*
D14*
X132715000Y-89535000D03*
D18*
X136525000Y-79375000D03*
D14*
X136525000Y-89535000D03*
D18*
X140335000Y-79375000D03*
D14*
X140335000Y-89535000D03*
D18*
X128905000Y-79375000D03*
D14*
X128905000Y-89535000D03*
D18*
X78105000Y-92710000D03*
D14*
X88265000Y-92710000D03*
D19*
X122515000Y-81955000D03*
X125015000Y-86995000D03*
X120015000Y-86995000D03*
D20*
X100330000Y-86360000D03*
D21*
X107950000Y-93980000D03*
X100330000Y-88900000D03*
X107950000Y-91440000D03*
X100330000Y-91440000D03*
X107950000Y-88900000D03*
X100330000Y-93980000D03*
X107950000Y-86360000D03*
D18*
X128905000Y-97155000D03*
X128905000Y-92155000D03*
X132715000Y-92075000D03*
X132715000Y-97075000D03*
X136525000Y-92075000D03*
X136525000Y-97075000D03*
X140335000Y-92075000D03*
X140335000Y-97075000D03*
X118745000Y-95885000D03*
X123745000Y-95885000D03*
D22*
X113665000Y-97155000D03*
D23*
X113665000Y-95155000D03*
D13*
X112776000Y-90424000D03*
D18*
X114776000Y-90424000D03*
D22*
X99695000Y-81915000D03*
D23*
X99695000Y-79915000D03*
D18*
X80645000Y-96520000D03*
X85645000Y-96520000D03*
D13*
X95250000Y-92710000D03*
D18*
X92750000Y-92710000D03*
D24*
X94595000Y-84540000D03*
D25*
X93345000Y-86940000D03*
D24*
X92095000Y-84540000D03*
D26*
X93345000Y-82240000D03*
D27*
X80645000Y-137160000D03*
D28*
X80645000Y-139700000D03*
D18*
X165100000Y-126365000D03*
D14*
X154940000Y-126365000D03*
D29*
X83185000Y-82859000D03*
D30*
X88185000Y-87865000D03*
X78185000Y-87865000D03*
X85685000Y-87865000D03*
X80685000Y-87865000D03*
D27*
X160020000Y-137160000D03*
D28*
X160020000Y-139700000D03*
D18*
X165100000Y-130175000D03*
D14*
X154940000Y-130175000D03*
D18*
X109220000Y-128905000D03*
X109220000Y-126365000D03*
X109220000Y-123825000D03*
X109220000Y-121285000D03*
X109220000Y-118745000D03*
D13*
X109220000Y-116205000D03*
D31*
X116840000Y-107950000D03*
D32*
X119380000Y-107950000D03*
X121920000Y-107950000D03*
X124460000Y-107950000D03*
D11*
X114935000Y-85090000D03*
D12*
X112395000Y-85090000D03*
D11*
X168275000Y-113030000D03*
D12*
X168275000Y-115570000D03*
X168275000Y-118110000D03*
D18*
X142240000Y-130175000D03*
D14*
X152400000Y-130175000D03*
D18*
X142240000Y-126365000D03*
D14*
X152400000Y-126365000D03*
D31*
X102235000Y-108585000D03*
D32*
X102235000Y-106045000D03*
X102235000Y-103505000D03*
X102235000Y-100965000D03*
M02*
