M48
; DRILL file {KiCad (5.1.5)-3} date 04/06/2020 00:05:58
; FORMAT={2:4/ absolute / inch / suppress leading zeros}
; #@! TF.CreationDate,2020-06-04T00:05:58+02:00
; #@! TF.GenerationSoftware,Kicad,Pcbnew,(5.1.5)-3
FMAT,2
INCH,TZ
T1C0.0157
T2C0.0236
T3C0.0300
T4C0.0315
T5C0.0354
T6C0.0390
T7C0.0394
T8C0.0433
T9C0.0472
T10C0.0512
T11C0.0610
T12C0.1200
T13C0.0300
T14C0.0630
T15C0.0945
%
G90
G05
T1
X36750Y-47000
X37000Y-48250
X37250Y-36750
X37950Y-47750
X38000Y-48750
X38500Y-36750
X40000Y-40000
X40000Y-41000
X42000Y-42750
X43000Y-35250
X44250Y-47500
X44500Y-48500
X44750Y-40500
X45750Y-38250
X51750Y-40728
X51750Y-42250
X51750Y-44250
X51750Y-46250
X51750Y-50250
X52250Y-44250
X52250Y-46000
X53000Y-50500
X54000Y-51000
X54500Y-41750
X55500Y-41500
X56000Y-39500
X56500Y-43750
X59000Y-34500
X59000Y-35500
X59250Y-34750
X59250Y-42500
X59500Y-34500
X59500Y-42250
X59750Y-34750
X59750Y-42500
X60000Y-36250
X60000Y-38500
X60000Y-42250
X60250Y-36500
X60250Y-37500
X60250Y-42500
X60500Y-38500
X60500Y-42250
X60500Y-46500
X60750Y-42500
X61000Y-42250
X61250Y-41500
X61250Y-42500
X61500Y-39500
X61500Y-42750
X63000Y-31750
X64500Y-40000
X64750Y-40500
T2
X46500Y-37250
X46500Y-38037
X39463Y-35500
X40250Y-35500
T3
X46000Y-42500
X47000Y-42500
X48000Y-42500
X49000Y-42500
T4
X42000Y-39750
X43969Y-39750
X55750Y-42750
X55750Y-46750
X54000Y-31500
X54000Y-35500
X55500Y-36500
X55500Y-38469
X43000Y-45750
X43000Y-46750
X43000Y-47750
X43000Y-48750
X43000Y-49750
X43000Y-50750
X46750Y-35000
X47750Y-35000
X48750Y-35000
X39516Y-42250
X40500Y-42250
X45500Y-44250
X49500Y-44250
X54250Y-50250
X58250Y-50250
X54250Y-42750
X54250Y-46750
X41750Y-35250
X41750Y-36250
X41750Y-37250
X41750Y-38250
X44750Y-35250
X44750Y-36250
X44750Y-37250
X44750Y-38250
X42000Y-41250
X43969Y-41250
X51000Y-31500
X51000Y-35500
X57500Y-32250
X57500Y-33250
X57500Y-34250
X57500Y-35250
X57500Y-36250
X57500Y-37250
X57500Y-38250
X57500Y-39250
X57500Y-40250
X57500Y-41250
X57500Y-42250
X57500Y-43250
X57500Y-44250
X57500Y-45250
X57500Y-46250
X63500Y-32250
X63500Y-33250
X63500Y-34250
X63500Y-35250
X63500Y-36250
X63500Y-37250
X63500Y-38250
X63500Y-39250
X63500Y-40250
X63500Y-41250
X63500Y-42250
X63500Y-43250
X63500Y-44250
X63500Y-45250
X63500Y-46250
X54000Y-36500
X54000Y-38469
X52500Y-36500
X52500Y-38469
X55500Y-31500
X55500Y-35500
X51000Y-36531
X51000Y-38500
X54250Y-48750
X58250Y-48750
X52500Y-31500
X52500Y-35500
X43750Y-32963
X43750Y-33750
T5
X31750Y-54000
X31750Y-55000
X63000Y-54000
X63000Y-55000
T6
X56728Y-55000
X58500Y-55000
X40478Y-55000
X42250Y-55000
X34478Y-55000
X36250Y-55000
X52478Y-55000
X54250Y-55000
X46478Y-55000
X48250Y-55000
T7
X43250Y-31500
X44250Y-31500
X28500Y-37500
X28500Y-38500
X28500Y-39500
X66250Y-37500
X66250Y-38500
X66250Y-39500
X66250Y-40500
X66250Y-41500
X66250Y-42500
X66250Y-43500
X38250Y-33059
X38250Y-34059
X38250Y-35059
X38250Y-36059
X38250Y-38051
X38250Y-39051
X38250Y-40909
X38250Y-41909
X38250Y-42909
X59750Y-49750
X59750Y-50750
X59750Y-51750
X39250Y-31500
X40250Y-31500
X41250Y-31500
X66250Y-44500
X66250Y-45500
X66250Y-46500
X45500Y-40000
X45500Y-41000
X46500Y-40000
X46500Y-41000
X47500Y-40000
X47500Y-41000
X48500Y-40000
X48500Y-41000
X49500Y-40000
X49500Y-41000
X50500Y-40000
X50500Y-41000
X52750Y-40000
X52750Y-41000
X53750Y-40000
X53750Y-41000
X54750Y-40000
X54750Y-41000
T8
X54250Y-51750
X58250Y-51750
T9
X30531Y-34593
X31516Y-34593
X32500Y-32622
X33484Y-34593
X34469Y-34593
X36500Y-34478
T10
X56232Y-54020
X58992Y-54020
X39982Y-54020
X42742Y-54020
X33982Y-54020
X36742Y-54020
X51982Y-54020
X54742Y-54020
X45982Y-54020
X48742Y-54020
T11
X36008Y-33533
X36992Y-33533
T12
X65750Y-54750
X65750Y-32000
X29000Y-32000
X29000Y-54750
T13
X45500Y-32250
X50000Y-32250
T14
X36500Y-32628
T15
X52126Y-52146
T7
G00X61750Y-51144
M15
G01X61750Y-50356
M16
G05
G00X63325Y-48900
M15
G01X62537Y-48900
M16
G05
G00X64112Y-51144
M15
G01X64112Y-50356
M16
G05
T0
M30
