G04 #@! TF.GenerationSoftware,KiCad,Pcbnew,(5.1.5)-3*
G04 #@! TF.CreationDate,2020-03-11T19:07:17+01:00*
G04 #@! TF.ProjectId,8bitWave Module,38626974-5761-4766-9520-4d6f64756c65,rev?*
G04 #@! TF.SameCoordinates,Original*
G04 #@! TF.FileFunction,OtherDrawing,Comment*
%FSLAX46Y46*%
G04 Gerber Fmt 4.6, Leading zero omitted, Abs format (unit mm)*
G04 Created by KiCad (PCBNEW (5.1.5)-3) date 2020-03-11 19:07:17*
%MOMM*%
%LPD*%
G04 APERTURE LIST*
%ADD10C,0.150000*%
%ADD11C,0.120000*%
%ADD12C,0.100000*%
G04 APERTURE END LIST*
D10*
X107150000Y-110650000D02*
X107150000Y-130450000D01*
X134150000Y-110650000D02*
X107150000Y-110650000D01*
X134150000Y-130450000D02*
X134150000Y-110650000D01*
X107150000Y-130450000D02*
X134150000Y-130450000D01*
X113250000Y-134250000D02*
X113250000Y-130450000D01*
X128050000Y-130450000D02*
X128050000Y-134250000D01*
D11*
X92655000Y-110490000D02*
X92655000Y-100990000D01*
X92655000Y-100990000D02*
X78155000Y-100990000D01*
X78155000Y-100990000D02*
X78155000Y-102440000D01*
X78155000Y-109040000D02*
X78155000Y-110490000D01*
X78155000Y-110490000D02*
X92655000Y-110490000D01*
X78155000Y-102440000D02*
X63155000Y-102440000D01*
X78155000Y-109040000D02*
X63155000Y-109040000D01*
X63155000Y-109040000D02*
X63155000Y-102440000D01*
X92655000Y-97990000D02*
G75*
G03X92655000Y-97990000I-3000000J0D01*
G01*
D10*
X74295000Y-116840000D02*
X74295000Y-126365000D01*
X74295000Y-126365000D02*
X73025000Y-127635000D01*
X73025000Y-127635000D02*
X73025000Y-129540000D01*
X73025000Y-129540000D02*
X87630000Y-129540000D01*
X87630000Y-129540000D02*
X87630000Y-116840000D01*
X87630000Y-116840000D02*
X74295000Y-116840000D01*
D12*
X93548333Y-98801904D02*
X93815000Y-99601904D01*
X94081666Y-98801904D01*
X94805476Y-99525714D02*
X94767380Y-99563809D01*
X94653095Y-99601904D01*
X94576904Y-99601904D01*
X94462619Y-99563809D01*
X94386428Y-99487619D01*
X94348333Y-99411428D01*
X94310238Y-99259047D01*
X94310238Y-99144761D01*
X94348333Y-98992380D01*
X94386428Y-98916190D01*
X94462619Y-98840000D01*
X94576904Y-98801904D01*
X94653095Y-98801904D01*
X94767380Y-98840000D01*
X94805476Y-98878095D01*
X95605476Y-99525714D02*
X95567380Y-99563809D01*
X95453095Y-99601904D01*
X95376904Y-99601904D01*
X95262619Y-99563809D01*
X95186428Y-99487619D01*
X95148333Y-99411428D01*
X95110238Y-99259047D01*
X95110238Y-99144761D01*
X95148333Y-98992380D01*
X95186428Y-98916190D01*
X95262619Y-98840000D01*
X95376904Y-98801904D01*
X95453095Y-98801904D01*
X95567380Y-98840000D01*
X95605476Y-98878095D01*
X94005476Y-96120000D02*
X93929285Y-96081904D01*
X93815000Y-96081904D01*
X93700714Y-96120000D01*
X93624523Y-96196190D01*
X93586428Y-96272380D01*
X93548333Y-96424761D01*
X93548333Y-96539047D01*
X93586428Y-96691428D01*
X93624523Y-96767619D01*
X93700714Y-96843809D01*
X93815000Y-96881904D01*
X93891190Y-96881904D01*
X94005476Y-96843809D01*
X94043571Y-96805714D01*
X94043571Y-96539047D01*
X93891190Y-96539047D01*
X94386428Y-96881904D02*
X94386428Y-96081904D01*
X94843571Y-96881904D01*
X94843571Y-96081904D01*
X95224523Y-96881904D02*
X95224523Y-96081904D01*
X95415000Y-96081904D01*
X95529285Y-96120000D01*
X95605476Y-96196190D01*
X95643571Y-96272380D01*
X95681666Y-96424761D01*
X95681666Y-96539047D01*
X95643571Y-96691428D01*
X95605476Y-96767619D01*
X95529285Y-96843809D01*
X95415000Y-96881904D01*
X95224523Y-96881904D01*
X94862619Y-109761904D02*
X94595952Y-109380952D01*
X94405476Y-109761904D02*
X94405476Y-108961904D01*
X94710238Y-108961904D01*
X94786428Y-109000000D01*
X94824523Y-109038095D01*
X94862619Y-109114285D01*
X94862619Y-109228571D01*
X94824523Y-109304761D01*
X94786428Y-109342857D01*
X94710238Y-109380952D01*
X94405476Y-109380952D01*
X94824523Y-106460000D02*
X94748333Y-106421904D01*
X94634047Y-106421904D01*
X94519761Y-106460000D01*
X94443571Y-106536190D01*
X94405476Y-106612380D01*
X94367380Y-106764761D01*
X94367380Y-106879047D01*
X94405476Y-107031428D01*
X94443571Y-107107619D01*
X94519761Y-107183809D01*
X94634047Y-107221904D01*
X94710238Y-107221904D01*
X94824523Y-107183809D01*
X94862619Y-107145714D01*
X94862619Y-106879047D01*
X94710238Y-106879047D01*
X94862619Y-104681904D02*
X94481666Y-104681904D01*
X94481666Y-103881904D01*
X94945238Y-88957142D02*
X95554761Y-88957142D01*
X95250000Y-89261904D02*
X95250000Y-88652380D01*
X94945238Y-91497142D02*
X95554761Y-91497142D01*
X94945238Y-86417142D02*
X95554761Y-86417142D01*
X95250000Y-86721904D02*
X95250000Y-86112380D01*
X94945238Y-83877142D02*
X95554761Y-83877142D01*
M02*
