G04 #@! TF.FileFunction,Copper,L1,Top,Signal*
%FSLAX46Y46*%
G04 Gerber Fmt 4.6, Leading zero omitted, Abs format (unit mm)*
G04 Created by KiCad (PCBNEW 4.0.7) date 02/08/20 16:40:40*
%MOMM*%
%LPD*%
G01*
G04 APERTURE LIST*
%ADD10C,0.100000*%
%ADD11R,1.700000X1.700000*%
%ADD12O,1.700000X1.700000*%
%ADD13R,1.600000X1.600000*%
%ADD14O,1.600000X1.600000*%
%ADD15C,2.100000*%
%ADD16C,1.750000*%
%ADD17C,5.000000*%
%ADD18C,1.600000*%
%ADD19C,2.500000*%
%ADD20R,2.400000X1.600000*%
%ADD21O,2.400000X1.600000*%
%ADD22R,1.524000X1.524000*%
%ADD23C,1.524000*%
%ADD24R,1.200000X1.200000*%
%ADD25C,1.200000*%
%ADD26C,1.900000*%
%ADD27O,2.500000X1.600000*%
%ADD28C,1.700000*%
%ADD29R,1.800000X1.800000*%
%ADD30C,1.800000*%
%ADD31R,3.500000X2.500000*%
%ADD32O,1.750000X3.500000*%
%ADD33C,0.600000*%
%ADD34C,0.250000*%
G04 APERTURE END LIST*
D10*
D11*
X168275000Y-89535000D03*
D12*
X168275000Y-92075000D03*
X168275000Y-94615000D03*
X168275000Y-97155000D03*
X168275000Y-99695000D03*
X168275000Y-102235000D03*
X168275000Y-104775000D03*
D13*
X161290000Y-117475000D03*
D14*
X146050000Y-84455000D03*
X161290000Y-114935000D03*
X146050000Y-86995000D03*
X161290000Y-112395000D03*
X146050000Y-89535000D03*
X161290000Y-109855000D03*
X146050000Y-92075000D03*
X161290000Y-107315000D03*
X146050000Y-94615000D03*
X161290000Y-104775000D03*
X146050000Y-97155000D03*
X161290000Y-102235000D03*
X146050000Y-99695000D03*
X161290000Y-99695000D03*
X146050000Y-102235000D03*
X161290000Y-97155000D03*
X146050000Y-104775000D03*
X161290000Y-94615000D03*
X146050000Y-107315000D03*
X161290000Y-92075000D03*
X146050000Y-109855000D03*
X161290000Y-89535000D03*
X146050000Y-112395000D03*
X161290000Y-86995000D03*
X146050000Y-114935000D03*
X161290000Y-84455000D03*
X146050000Y-117475000D03*
X161290000Y-81915000D03*
X146050000Y-81915000D03*
D15*
X132035000Y-137210000D03*
D16*
X133295000Y-139700000D03*
X137795000Y-139700000D03*
D15*
X139045000Y-137210000D03*
X142830000Y-137210000D03*
D16*
X144090000Y-139700000D03*
X148590000Y-139700000D03*
D15*
X149840000Y-137210000D03*
X101555000Y-137210000D03*
D16*
X102815000Y-139700000D03*
X107315000Y-139700000D03*
D15*
X108565000Y-137210000D03*
X86315000Y-137210000D03*
D16*
X87575000Y-139700000D03*
X92075000Y-139700000D03*
D15*
X93325000Y-137210000D03*
X116795000Y-137210000D03*
D16*
X118055000Y-139700000D03*
X122555000Y-139700000D03*
D15*
X123805000Y-137210000D03*
D17*
X73660000Y-139065000D03*
X167005000Y-139065000D03*
X167005000Y-81280000D03*
X73660000Y-81280000D03*
D11*
X105410000Y-80010000D03*
D12*
X107950000Y-80010000D03*
D11*
X112395000Y-80010000D03*
D12*
X114935000Y-80010000D03*
D11*
X72390000Y-86360000D03*
D12*
X72390000Y-88900000D03*
X72390000Y-91440000D03*
D18*
X132715000Y-79375000D03*
D14*
X132715000Y-89535000D03*
D18*
X136525000Y-79375000D03*
D14*
X136525000Y-89535000D03*
D18*
X140335000Y-79375000D03*
D14*
X140335000Y-89535000D03*
D18*
X128905000Y-79375000D03*
D14*
X128905000Y-89535000D03*
D18*
X78105000Y-92710000D03*
D14*
X88265000Y-92710000D03*
D19*
X122515000Y-81955000D03*
X125015000Y-86995000D03*
X120015000Y-86995000D03*
D20*
X100330000Y-86360000D03*
D21*
X107950000Y-93980000D03*
X100330000Y-88900000D03*
X107950000Y-91440000D03*
X100330000Y-91440000D03*
X107950000Y-88900000D03*
X100330000Y-93980000D03*
X107950000Y-86360000D03*
D22*
X102235000Y-108585000D03*
D23*
X102235000Y-106045000D03*
X102235000Y-103505000D03*
X102235000Y-100965000D03*
D18*
X128905000Y-97155000D03*
X128905000Y-92155000D03*
X132715000Y-92075000D03*
X132715000Y-97075000D03*
X136525000Y-92075000D03*
X136525000Y-97075000D03*
X140335000Y-92075000D03*
X140335000Y-97075000D03*
X118745000Y-95885000D03*
X123745000Y-95885000D03*
D24*
X113665000Y-97155000D03*
D25*
X113665000Y-95155000D03*
D13*
X112776000Y-90424000D03*
D18*
X114776000Y-90424000D03*
D24*
X99695000Y-81915000D03*
D25*
X99695000Y-79915000D03*
D18*
X80645000Y-96520000D03*
X85645000Y-96520000D03*
D13*
X95250000Y-92710000D03*
D18*
X92750000Y-92710000D03*
D26*
X94595000Y-84540000D03*
D27*
X93345000Y-86940000D03*
D26*
X92095000Y-84540000D03*
D28*
X93345000Y-82240000D03*
D29*
X80645000Y-137160000D03*
D30*
X80645000Y-139700000D03*
D18*
X165100000Y-126365000D03*
D14*
X154940000Y-126365000D03*
D31*
X83185000Y-82859000D03*
D32*
X88185000Y-87865000D03*
X78185000Y-87865000D03*
X85685000Y-87865000D03*
X80685000Y-87865000D03*
D29*
X160020000Y-137160000D03*
D30*
X160020000Y-139700000D03*
D18*
X165100000Y-130175000D03*
D14*
X154940000Y-130175000D03*
D18*
X109220000Y-128905000D03*
X109220000Y-126365000D03*
X109220000Y-123825000D03*
X109220000Y-121285000D03*
X109220000Y-118745000D03*
D13*
X109220000Y-116205000D03*
D22*
X116840000Y-107950000D03*
D23*
X119380000Y-107950000D03*
X121920000Y-107950000D03*
X124460000Y-107950000D03*
D11*
X114935000Y-85090000D03*
D12*
X112395000Y-85090000D03*
D11*
X168275000Y-107315000D03*
D12*
X168275000Y-109855000D03*
X168275000Y-112395000D03*
D18*
X142240000Y-130175000D03*
D14*
X152400000Y-130175000D03*
D18*
X142240000Y-126365000D03*
D14*
X152400000Y-126365000D03*
D33*
X154305000Y-107315000D03*
X152400000Y-92075000D03*
X153035000Y-92710000D03*
X154940000Y-106680000D03*
X153035000Y-95250000D03*
X153035000Y-107315000D03*
X152400000Y-106680000D03*
X152400000Y-97790000D03*
X153670000Y-106680000D03*
X153670000Y-97790000D03*
X155575000Y-107315000D03*
X155575000Y-98425000D03*
X156210000Y-106680000D03*
X156210000Y-100965000D03*
X122555000Y-105410000D03*
X125095000Y-104775000D03*
X111125000Y-106680000D03*
X111125000Y-104140000D03*
X131445000Y-80645000D03*
X160020000Y-80645000D03*
X142240000Y-78740000D03*
X132080000Y-81280000D03*
X116840000Y-79375000D03*
X96520000Y-79375000D03*
X151765000Y-107315000D03*
X151765000Y-88265000D03*
X113030000Y-123190000D03*
X151130000Y-106680000D03*
X151130000Y-88900000D03*
X112395000Y-120650000D03*
X150495000Y-107315000D03*
X150495000Y-88265000D03*
X111760000Y-103505000D03*
X111760000Y-110490000D03*
X163195000Y-97790000D03*
X162560000Y-95885000D03*
X159385000Y-106680000D03*
X160020000Y-108585000D03*
X160655000Y-125095000D03*
X158115000Y-125095000D03*
X121285000Y-106045000D03*
X125730000Y-105410000D03*
D34*
X151765000Y-91440000D02*
X152400000Y-92075000D01*
X154305000Y-120015000D02*
X153670000Y-120650000D01*
X154305000Y-107315000D02*
X154305000Y-120015000D01*
X144145000Y-120650000D02*
X135890000Y-120650000D01*
X144145000Y-120650000D02*
X153670000Y-120650000D01*
X135890000Y-120650000D02*
X135255000Y-121285000D01*
X135255000Y-121285000D02*
X135255000Y-139065000D01*
X135255000Y-139065000D02*
X135890000Y-139700000D01*
X135890000Y-139700000D02*
X137795000Y-139700000D01*
X146050000Y-89535000D02*
X147320000Y-89535000D01*
X147320000Y-89535000D02*
X149225000Y-91440000D01*
X146050000Y-89535000D02*
X146685000Y-89535000D01*
X149225000Y-91440000D02*
X151765000Y-91440000D01*
X148590000Y-139700000D02*
X147320000Y-139700000D01*
X146685000Y-135890000D02*
X146050000Y-135255000D01*
X146685000Y-139065000D02*
X146685000Y-135890000D01*
X147320000Y-139700000D02*
X146685000Y-139065000D01*
X154305000Y-121285000D02*
X154940000Y-120650000D01*
X154940000Y-106680000D02*
X154940000Y-120650000D01*
X136525000Y-135255000D02*
X146050000Y-135255000D01*
X135890000Y-134620000D02*
X136525000Y-135255000D01*
X135890000Y-121920000D02*
X135890000Y-134620000D01*
X136525000Y-121285000D02*
X135890000Y-121920000D01*
X154305000Y-121285000D02*
X136525000Y-121285000D01*
X147320000Y-92075000D02*
X147955000Y-92710000D01*
X146050000Y-92075000D02*
X147320000Y-92075000D01*
X147955000Y-92710000D02*
X153035000Y-92710000D01*
X152400000Y-119380000D02*
X153035000Y-118745000D01*
X153035000Y-95250000D02*
X152400000Y-94615000D01*
X153035000Y-118745000D02*
X153035000Y-107315000D01*
X116205000Y-121285000D02*
X116205000Y-120015000D01*
X112395000Y-139700000D02*
X113030000Y-139065000D01*
X113030000Y-139065000D02*
X113030000Y-132715000D01*
X113030000Y-132715000D02*
X113665000Y-132080000D01*
X113665000Y-132080000D02*
X115570000Y-132080000D01*
X115570000Y-132080000D02*
X116205000Y-131445000D01*
X116205000Y-131445000D02*
X116205000Y-121285000D01*
X107315000Y-139700000D02*
X112395000Y-139700000D01*
X152400000Y-94615000D02*
X146050000Y-94615000D01*
X116840000Y-119380000D02*
X152400000Y-119380000D01*
X116205000Y-120015000D02*
X116840000Y-119380000D01*
X151765000Y-97155000D02*
X152400000Y-97790000D01*
X152400000Y-118110000D02*
X151765000Y-118745000D01*
X152400000Y-106680000D02*
X152400000Y-118110000D01*
X115570000Y-120650000D02*
X115570000Y-119380000D01*
X116205000Y-118745000D02*
X117475000Y-118745000D01*
X115570000Y-119380000D02*
X116205000Y-118745000D01*
X98425000Y-131445000D02*
X114935000Y-131445000D01*
X97155000Y-139700000D02*
X97790000Y-139065000D01*
X97790000Y-139065000D02*
X97790000Y-132080000D01*
X97790000Y-132080000D02*
X98425000Y-131445000D01*
X92075000Y-139700000D02*
X97155000Y-139700000D01*
X117475000Y-118745000D02*
X151765000Y-118745000D01*
X115570000Y-130810000D02*
X115570000Y-120650000D01*
X114935000Y-131445000D02*
X115570000Y-130810000D01*
X151765000Y-97155000D02*
X146050000Y-97155000D01*
X154940000Y-94615000D02*
X154305000Y-94615000D01*
X153670000Y-119380000D02*
X153035000Y-120015000D01*
X153670000Y-106680000D02*
X153670000Y-119380000D01*
X153670000Y-95250000D02*
X153670000Y-97790000D01*
X154305000Y-94615000D02*
X153670000Y-95250000D01*
X128905000Y-138430000D02*
X128905000Y-139065000D01*
X122555000Y-139700000D02*
X127635000Y-139700000D01*
X128905000Y-120650000D02*
X129540000Y-120015000D01*
X128905000Y-138430000D02*
X128905000Y-120650000D01*
X129540000Y-120015000D02*
X153035000Y-120015000D01*
X128905000Y-139065000D02*
X128270000Y-139700000D01*
X128270000Y-139700000D02*
X127635000Y-139700000D01*
X154940000Y-94615000D02*
X161290000Y-94615000D01*
X168275000Y-107315000D02*
X168910000Y-107315000D01*
X168910000Y-107315000D02*
X169545000Y-106680000D01*
X147320000Y-85725000D02*
X147320000Y-85090000D01*
X147320000Y-85090000D02*
X146685000Y-84455000D01*
X146685000Y-84455000D02*
X146050000Y-84455000D01*
X150495000Y-90805000D02*
X149860000Y-90805000D01*
X147320000Y-88265000D02*
X147320000Y-85725000D01*
X149860000Y-90805000D02*
X147320000Y-88265000D01*
X169545000Y-91440000D02*
X169545000Y-106680000D01*
X168910000Y-90805000D02*
X169545000Y-91440000D01*
X150495000Y-90805000D02*
X168910000Y-90805000D01*
X155575000Y-107315000D02*
X155575000Y-121285000D01*
X143510000Y-126365000D02*
X142240000Y-126365000D01*
X144145000Y-125730000D02*
X143510000Y-126365000D01*
X144145000Y-122555000D02*
X144145000Y-125730000D01*
X144780000Y-121920000D02*
X144145000Y-122555000D01*
X154940000Y-121920000D02*
X144780000Y-121920000D01*
X155575000Y-121285000D02*
X154940000Y-121920000D01*
X162560000Y-98425000D02*
X167005000Y-98425000D01*
X162560000Y-98425000D02*
X160020000Y-98425000D01*
X146050000Y-99695000D02*
X147320000Y-98425000D01*
X160020000Y-98425000D02*
X155575000Y-98425000D01*
X155575000Y-98425000D02*
X147320000Y-98425000D01*
X167005000Y-98425000D02*
X168275000Y-99695000D01*
X146050000Y-99695000D02*
X144780000Y-99695000D01*
X124460000Y-102870000D02*
X124460000Y-105410000D01*
X125095000Y-102235000D02*
X124460000Y-102870000D01*
X143510000Y-102235000D02*
X125095000Y-102235000D01*
X144145000Y-101600000D02*
X143510000Y-102235000D01*
X144145000Y-100330000D02*
X144145000Y-101600000D01*
X144780000Y-99695000D02*
X144145000Y-100330000D01*
X124460000Y-105410000D02*
X123825000Y-104775000D01*
X102235000Y-100965000D02*
X104140000Y-100965000D01*
X123825000Y-104775000D02*
X105410000Y-104775000D01*
X105410000Y-104775000D02*
X104775000Y-104140000D01*
X104775000Y-104140000D02*
X104775000Y-101600000D01*
X104775000Y-101600000D02*
X104140000Y-100965000D01*
X124460000Y-105410000D02*
X124460000Y-107950000D01*
X142240000Y-130175000D02*
X144145000Y-130175000D01*
X156210000Y-121920000D02*
X156210000Y-106680000D01*
X155575000Y-122555000D02*
X156210000Y-121920000D01*
X145415000Y-122555000D02*
X155575000Y-122555000D01*
X144780000Y-123190000D02*
X145415000Y-122555000D01*
X144780000Y-129540000D02*
X144780000Y-123190000D01*
X144145000Y-130175000D02*
X144780000Y-129540000D01*
X162560000Y-100965000D02*
X167005000Y-100965000D01*
X160020000Y-100965000D02*
X162560000Y-100965000D01*
X146050000Y-102235000D02*
X147320000Y-100965000D01*
X160020000Y-100965000D02*
X156210000Y-100965000D01*
X156210000Y-100965000D02*
X147320000Y-100965000D01*
X167005000Y-100965000D02*
X168275000Y-102235000D01*
X122555000Y-105410000D02*
X121285000Y-105410000D01*
X146050000Y-102235000D02*
X144780000Y-102235000D01*
X122555000Y-105410000D02*
X121920000Y-106045000D01*
X125095000Y-103505000D02*
X125095000Y-104775000D01*
X125730000Y-102870000D02*
X125095000Y-103505000D01*
X144145000Y-102870000D02*
X125730000Y-102870000D01*
X144780000Y-102235000D02*
X144145000Y-102870000D01*
X104775000Y-105410000D02*
X104140000Y-105410000D01*
X104775000Y-105410000D02*
X121285000Y-105410000D01*
X103505000Y-104140000D02*
X102870000Y-103505000D01*
X103505000Y-104775000D02*
X103505000Y-104140000D01*
X104140000Y-105410000D02*
X103505000Y-104775000D01*
X121920000Y-107950000D02*
X121920000Y-106045000D01*
X102870000Y-103505000D02*
X102235000Y-103505000D01*
X168275000Y-112395000D02*
X163830000Y-112395000D01*
X163830000Y-112395000D02*
X163195000Y-111760000D01*
X109220000Y-118745000D02*
X110490000Y-118745000D01*
X110490000Y-118745000D02*
X111125000Y-118110000D01*
X158750000Y-106045000D02*
X148590000Y-106045000D01*
X163195000Y-111760000D02*
X163195000Y-106680000D01*
X163195000Y-106680000D02*
X162560000Y-106045000D01*
X162560000Y-106045000D02*
X158750000Y-106045000D01*
X147955000Y-109220000D02*
X147320000Y-109855000D01*
X147955000Y-106680000D02*
X147955000Y-109220000D01*
X148590000Y-106045000D02*
X147955000Y-106680000D01*
X146050000Y-109855000D02*
X147320000Y-109855000D01*
X107950000Y-91440000D02*
X108585000Y-91440000D01*
X108585000Y-91440000D02*
X109855000Y-92710000D01*
X109855000Y-92710000D02*
X110490000Y-92710000D01*
X111125000Y-93345000D02*
X111125000Y-93980000D01*
X110490000Y-92710000D02*
X111125000Y-93345000D01*
X113665000Y-97155000D02*
X117475000Y-97155000D01*
X117475000Y-97155000D02*
X118745000Y-95885000D01*
X113665000Y-97155000D02*
X111760000Y-97155000D01*
X111760000Y-97155000D02*
X111125000Y-97790000D01*
X111125000Y-93980000D02*
X111125000Y-94615000D01*
X111125000Y-95250000D02*
X111125000Y-97790000D01*
X111125000Y-94615000D02*
X111125000Y-95250000D01*
X111125000Y-109220000D02*
X111125000Y-106680000D01*
X111125000Y-97790000D02*
X111125000Y-104140000D01*
X146050000Y-109855000D02*
X111760000Y-109855000D01*
X111760000Y-109855000D02*
X111125000Y-109220000D01*
X111125000Y-109220000D02*
X111125000Y-118110000D01*
X150495000Y-89535000D02*
X149860000Y-89535000D01*
X148590000Y-80010000D02*
X147955000Y-79375000D01*
X148590000Y-88265000D02*
X148590000Y-80010000D01*
X149860000Y-89535000D02*
X148590000Y-88265000D01*
X72390000Y-86360000D02*
X72390000Y-85090000D01*
X72390000Y-85090000D02*
X73025000Y-84455000D01*
X113030000Y-78740000D02*
X77470000Y-78740000D01*
X76200000Y-84455000D02*
X73025000Y-84455000D01*
X76835000Y-83820000D02*
X76200000Y-84455000D01*
X76835000Y-79375000D02*
X76835000Y-83820000D01*
X77470000Y-78740000D02*
X76835000Y-79375000D01*
X140335000Y-79375000D02*
X147955000Y-79375000D01*
X161290000Y-89535000D02*
X150495000Y-89535000D01*
X112395000Y-80010000D02*
X112395000Y-79375000D01*
X112395000Y-79375000D02*
X113030000Y-78740000D01*
X113030000Y-78740000D02*
X126365000Y-78740000D01*
X126365000Y-78740000D02*
X127000000Y-79375000D01*
X127000000Y-79375000D02*
X127000000Y-80010000D01*
X127000000Y-80010000D02*
X127635000Y-80645000D01*
X127635000Y-80645000D02*
X131445000Y-80645000D01*
X107950000Y-80010000D02*
X107950000Y-86360000D01*
X122515000Y-81955000D02*
X122515000Y-83145000D01*
X122515000Y-83145000D02*
X123190000Y-83820000D01*
X128905000Y-84455000D02*
X128905000Y-89535000D01*
X128270000Y-83820000D02*
X128905000Y-84455000D01*
X123190000Y-83820000D02*
X128270000Y-83820000D01*
X114935000Y-80010000D02*
X121920000Y-80010000D01*
X122515000Y-80605000D02*
X122515000Y-81955000D01*
X121920000Y-80010000D02*
X122515000Y-80605000D01*
X128905000Y-89535000D02*
X128905000Y-92155000D01*
X135890000Y-87630000D02*
X135255000Y-86995000D01*
X133350000Y-86995000D02*
X132715000Y-86360000D01*
X135255000Y-86995000D02*
X133350000Y-86995000D01*
X132715000Y-79375000D02*
X132715000Y-86360000D01*
X136525000Y-88265000D02*
X136525000Y-89535000D01*
X135890000Y-87630000D02*
X136525000Y-88265000D01*
X136525000Y-89535000D02*
X136525000Y-92075000D01*
X137795000Y-87630000D02*
X136525000Y-86360000D01*
X136525000Y-79375000D02*
X136525000Y-86360000D01*
X140335000Y-88265000D02*
X140335000Y-89535000D01*
X139700000Y-87630000D02*
X140335000Y-88265000D01*
X137795000Y-87630000D02*
X139700000Y-87630000D01*
X140335000Y-89535000D02*
X140335000Y-92075000D01*
X109855000Y-90805000D02*
X111125000Y-92075000D01*
X109855000Y-90805000D02*
X109220000Y-90170000D01*
X111760000Y-92075000D02*
X111125000Y-92075000D01*
X120015000Y-91440000D02*
X120015000Y-86995000D01*
X119380000Y-92075000D02*
X120015000Y-91440000D01*
X111760000Y-92075000D02*
X119380000Y-92075000D01*
X100330000Y-91440000D02*
X101600000Y-90170000D01*
X101600000Y-90170000D02*
X109220000Y-90170000D01*
X160020000Y-80645000D02*
X160020000Y-79375000D01*
X160020000Y-79375000D02*
X159385000Y-78740000D01*
X159385000Y-78740000D02*
X142240000Y-78740000D01*
X93345000Y-86940000D02*
X95940000Y-86940000D01*
X127000000Y-81280000D02*
X132080000Y-81280000D01*
X126365000Y-80645000D02*
X127000000Y-81280000D01*
X126365000Y-80010000D02*
X126365000Y-80645000D01*
X125730000Y-79375000D02*
X126365000Y-80010000D01*
X116840000Y-79375000D02*
X125730000Y-79375000D01*
X96520000Y-86360000D02*
X96520000Y-79375000D01*
X95940000Y-86940000D02*
X96520000Y-86360000D01*
X109220000Y-128905000D02*
X113030000Y-128905000D01*
X113030000Y-128905000D02*
X113665000Y-128270000D01*
X153035000Y-86995000D02*
X152400000Y-86995000D01*
X151765000Y-115570000D02*
X151130000Y-116205000D01*
X151765000Y-107315000D02*
X151765000Y-115570000D01*
X151765000Y-87630000D02*
X151765000Y-88265000D01*
X152400000Y-86995000D02*
X151765000Y-87630000D01*
X161290000Y-86995000D02*
X153035000Y-86995000D01*
X113665000Y-116840000D02*
X113665000Y-128270000D01*
X114300000Y-116205000D02*
X113665000Y-116840000D01*
X151130000Y-116205000D02*
X114300000Y-116205000D01*
X152400000Y-84455000D02*
X151765000Y-84455000D01*
X151130000Y-113030000D02*
X150495000Y-113665000D01*
X151130000Y-106680000D02*
X151130000Y-113030000D01*
X151130000Y-85090000D02*
X151130000Y-88900000D01*
X151765000Y-84455000D02*
X151130000Y-85090000D01*
X161290000Y-84455000D02*
X152400000Y-84455000D01*
X113030000Y-114300000D02*
X113030000Y-123190000D01*
X113665000Y-113665000D02*
X113030000Y-114300000D01*
X150495000Y-113665000D02*
X113665000Y-113665000D01*
X151765000Y-81915000D02*
X150945002Y-81915000D01*
X150495000Y-110490000D02*
X149860000Y-111125000D01*
X150495000Y-107315000D02*
X150495000Y-110490000D01*
X150495000Y-82365002D02*
X150495000Y-88265000D01*
X150945002Y-81915000D02*
X150495000Y-82365002D01*
X161290000Y-81915000D02*
X151765000Y-81915000D01*
X112395000Y-111760000D02*
X112395000Y-120650000D01*
X113030000Y-111125000D02*
X112395000Y-111760000D01*
X149860000Y-111125000D02*
X113030000Y-111125000D01*
X109220000Y-126365000D02*
X111125000Y-126365000D01*
X111125000Y-126365000D02*
X111760000Y-125730000D01*
X142875000Y-98425000D02*
X142875000Y-100330000D01*
X142240000Y-100965000D02*
X140335000Y-100965000D01*
X142875000Y-100330000D02*
X142240000Y-100965000D01*
X143510000Y-81915000D02*
X142875000Y-82550000D01*
X142875000Y-82550000D02*
X142875000Y-98425000D01*
X140335000Y-100965000D02*
X112395000Y-100965000D01*
X112395000Y-100965000D02*
X111760000Y-101600000D01*
X111760000Y-101600000D02*
X111760000Y-103505000D01*
X146050000Y-81915000D02*
X143510000Y-81915000D01*
X111760000Y-110490000D02*
X111760000Y-125730000D01*
X72390000Y-88900000D02*
X77150000Y-88900000D01*
X77150000Y-88900000D02*
X78185000Y-87865000D01*
X99695000Y-79915000D02*
X105315000Y-79915000D01*
X105315000Y-79915000D02*
X105410000Y-80010000D01*
X80645000Y-96520000D02*
X82550000Y-96520000D01*
X92750000Y-91480000D02*
X92750000Y-92710000D01*
X92075000Y-90805000D02*
X92750000Y-91480000D01*
X83820000Y-90805000D02*
X92075000Y-90805000D01*
X83185000Y-91440000D02*
X83820000Y-90805000D01*
X83185000Y-95885000D02*
X83185000Y-91440000D01*
X82550000Y-96520000D02*
X83185000Y-95885000D01*
X80645000Y-96520000D02*
X78105000Y-96520000D01*
X75565000Y-91440000D02*
X76200000Y-92075000D01*
X76200000Y-92075000D02*
X76200000Y-95885000D01*
X76200000Y-95885000D02*
X76835000Y-96520000D01*
X76835000Y-96520000D02*
X78105000Y-96520000D01*
X75565000Y-91440000D02*
X72390000Y-91440000D01*
X132715000Y-92075000D02*
X132715000Y-93980000D01*
X128905000Y-95250000D02*
X128905000Y-97155000D01*
X129540000Y-94615000D02*
X128905000Y-95250000D01*
X132080000Y-94615000D02*
X129540000Y-94615000D01*
X132715000Y-93980000D02*
X132080000Y-94615000D01*
X132715000Y-89535000D02*
X132715000Y-92075000D01*
X88265000Y-92710000D02*
X88265000Y-95885000D01*
X87630000Y-96520000D02*
X85645000Y-96520000D01*
X88265000Y-95885000D02*
X87630000Y-96520000D01*
X100330000Y-86360000D02*
X100330000Y-82550000D01*
X100330000Y-82550000D02*
X99695000Y-81915000D01*
X95250000Y-93980000D02*
X95250000Y-94615000D01*
X95885000Y-95250000D02*
X96520000Y-95250000D01*
X95250000Y-94615000D02*
X95885000Y-95250000D01*
X107950000Y-93980000D02*
X106680000Y-95250000D01*
X95250000Y-93980000D02*
X95250000Y-92710000D01*
X106680000Y-95250000D02*
X96520000Y-95250000D01*
X112776000Y-90424000D02*
X112776000Y-89281000D01*
X112395000Y-88900000D02*
X107950000Y-88900000D01*
X112776000Y-89281000D02*
X112395000Y-88900000D01*
X163830000Y-97155000D02*
X168275000Y-97155000D01*
X163195000Y-97790000D02*
X163830000Y-97155000D01*
X168275000Y-94615000D02*
X163195000Y-94615000D01*
X162560000Y-95250000D02*
X162560000Y-95885000D01*
X163195000Y-94615000D02*
X162560000Y-95250000D01*
X158115000Y-126365000D02*
X158750000Y-126365000D01*
X159385000Y-125730000D02*
X159385000Y-106680000D01*
X158750000Y-126365000D02*
X159385000Y-125730000D01*
X158115000Y-126365000D02*
X154940000Y-126365000D01*
X156210000Y-131445000D02*
X156210000Y-140970000D01*
X157480000Y-130810000D02*
X156845000Y-130810000D01*
X160470002Y-130175000D02*
X160470002Y-127184998D01*
X160470002Y-127184998D02*
X161290000Y-126365000D01*
X161290000Y-126365000D02*
X165100000Y-126365000D01*
X160470002Y-130359998D02*
X160020000Y-130810000D01*
X160020000Y-130810000D02*
X157480000Y-130810000D01*
X160470002Y-130175000D02*
X160470002Y-130359998D01*
X156845000Y-130810000D02*
X156210000Y-131445000D01*
X156210000Y-140970000D02*
X155575000Y-141605000D01*
X80645000Y-139700000D02*
X80645000Y-140970000D01*
X80645000Y-140970000D02*
X81280000Y-141605000D01*
X81280000Y-141605000D02*
X155575000Y-141605000D01*
X168275000Y-92075000D02*
X164465000Y-92075000D01*
X164465000Y-92075000D02*
X161290000Y-92075000D01*
X160020000Y-123825000D02*
X160020000Y-129540000D01*
X159385000Y-130175000D02*
X158750000Y-130175000D01*
X160020000Y-129540000D02*
X159385000Y-130175000D01*
X160020000Y-108585000D02*
X160020000Y-123825000D01*
X158750000Y-130175000D02*
X154940000Y-130175000D01*
X165100000Y-130175000D02*
X162560000Y-130175000D01*
X162560000Y-130175000D02*
X161925000Y-130810000D01*
X161925000Y-130810000D02*
X161925000Y-139065000D01*
X161925000Y-139065000D02*
X161290000Y-139700000D01*
X161290000Y-139700000D02*
X160020000Y-139700000D01*
X114776000Y-90424000D02*
X114776000Y-85249000D01*
X114776000Y-85249000D02*
X114935000Y-85090000D01*
X169545000Y-113030000D02*
X169545000Y-110490000D01*
X169545000Y-113030000D02*
X169545000Y-124460000D01*
X169545000Y-124460000D02*
X168910000Y-125095000D01*
X168910000Y-125095000D02*
X160655000Y-125095000D01*
X158115000Y-125095000D02*
X153035000Y-125095000D01*
X152400000Y-125730000D02*
X153035000Y-125095000D01*
X169545000Y-110490000D02*
X168910000Y-109855000D01*
X168910000Y-109855000D02*
X168275000Y-109855000D01*
X168275000Y-109855000D02*
X164465000Y-109855000D01*
X164465000Y-109855000D02*
X163830000Y-109220000D01*
X126365000Y-103505000D02*
X143510000Y-103505000D01*
X162560000Y-103505000D02*
X143510000Y-103505000D01*
X163830000Y-109220000D02*
X163830000Y-104140000D01*
X163830000Y-104140000D02*
X163195000Y-103505000D01*
X163195000Y-103505000D02*
X162560000Y-103505000D01*
X125730000Y-105410000D02*
X125730000Y-104140000D01*
X125730000Y-104140000D02*
X126365000Y-103505000D01*
X121285000Y-106045000D02*
X119380000Y-106045000D01*
X152400000Y-125730000D02*
X152400000Y-126365000D01*
X152400000Y-126365000D02*
X152400000Y-130175000D01*
X119380000Y-106045000D02*
X118745000Y-106045000D01*
X102235000Y-106045000D02*
X118745000Y-106045000D01*
X119380000Y-106045000D02*
X119380000Y-106680000D01*
X119380000Y-106680000D02*
X119380000Y-107950000D01*
M02*
