M48
;DRILL file {KiCad 4.0.7} date 02/08/20 16:41:20
;FORMAT={2:4/ absolute / inch / suppress leading zeros}
FMAT,2
INCH,TZ
T1C0.016
T2C0.024
T3C0.030
T4C0.031
T5C0.035
T6C0.039
T7C0.039
T8C0.047
T9C0.051
T10C0.061
T11C0.120
T12C0.063
%
G90
G05
M72
T1
X38000Y-31250
X43750Y-41000
X43750Y-42000
X44000Y-40750
X44000Y-43500
X44250Y-47500
X44500Y-48500
X46000Y-31250
X47750Y-41750
X48250Y-41500
X49250Y-41250
X49500Y-41500
X51750Y-31750
X52000Y-32000
X56000Y-31000
X59250Y-34750
X59250Y-42250
X59500Y-35000
X59500Y-42000
X59750Y-34750
X59750Y-42250
X60000Y-36250
X60000Y-38500
X60000Y-42000
X60250Y-36500
X60250Y-37500
X60250Y-42250
X60500Y-38500
X60500Y-42000
X60750Y-42250
X61000Y-42000
X61250Y-38750
X61250Y-42250
X61500Y-39750
X61500Y-42000
X62250Y-49250
X62750Y-42000
X63000Y-31750
X63000Y-42750
X63250Y-49250
X64000Y-37750
X64250Y-38500
T2
X39250Y-31463
X39250Y-32250
X44750Y-37463
X44750Y-38250
T3
X40250Y-39750
X40250Y-40750
X40250Y-41750
X40250Y-42750
X46000Y-42500
X47000Y-42500
X48000Y-42500
X49000Y-42500
T4
X30750Y-36500
X31750Y-38000
X33719Y-38000
X34750Y-36500
X36516Y-36500
X37500Y-36500
X39500Y-34000
X39500Y-35000
X39500Y-36000
X39500Y-37000
X42500Y-34000
X42500Y-35000
X42500Y-36000
X42500Y-37000
X43000Y-45750
X43000Y-46750
X43000Y-47750
X43000Y-48750
X43000Y-49750
X43000Y-50750
X44400Y-35600
X45187Y-35600
X46750Y-37750
X48719Y-37750
X50750Y-31250
X50750Y-35250
X50750Y-36281
X50750Y-38250
X52250Y-31250
X52250Y-35250
X52250Y-36250
X52250Y-38219
X53750Y-31250
X53750Y-35250
X53750Y-36250
X53750Y-38219
X55250Y-31250
X55250Y-35250
X55250Y-36250
X55250Y-38219
X56000Y-49750
X56000Y-51250
X57500Y-32250
X57500Y-33250
X57500Y-34250
X57500Y-35250
X57500Y-36250
X57500Y-37250
X57500Y-38250
X57500Y-39250
X57500Y-40250
X57500Y-41250
X57500Y-42250
X57500Y-43250
X57500Y-44250
X57500Y-45250
X57500Y-46250
X60000Y-49750
X60000Y-51250
X61000Y-49750
X61000Y-51250
X63500Y-32250
X63500Y-33250
X63500Y-34250
X63500Y-35250
X63500Y-36250
X63500Y-37250
X63500Y-38250
X63500Y-39250
X63500Y-40250
X63500Y-41250
X63500Y-42250
X63500Y-43250
X63500Y-44250
X63500Y-45250
X63500Y-46250
X65000Y-49750
X65000Y-51250
T5
X31750Y-54000
X31750Y-55000
X63000Y-54000
X63000Y-55000
T6
X34478Y-55000
X36250Y-55000
X40478Y-55000
X42250Y-55000
X46478Y-55000
X48250Y-55000
X52478Y-55000
X54250Y-55000
X56728Y-55000
X58500Y-55000
T7
X28500Y-34000
X28500Y-35000
X28500Y-36000
X41500Y-31500
X42500Y-31500
X44250Y-31500
X44250Y-33500
X45250Y-31500
X45250Y-33500
X66250Y-35250
X66250Y-36250
X66250Y-37250
X66250Y-38250
X66250Y-39250
X66250Y-40250
X66250Y-41250
X66250Y-42250
X66250Y-43250
X66250Y-44250
T8
X30781Y-34593
X31766Y-34593
X32750Y-32622
X33734Y-34593
X34719Y-34593
X36750Y-34228
X47250Y-34250
X48234Y-32266
X49219Y-34250
T9
X33982Y-54020
X36742Y-54020
X39982Y-54020
X42742Y-54020
X45982Y-54020
X48742Y-54020
X51982Y-54020
X54742Y-54020
X56232Y-54020
X58992Y-54020
T10
X36258Y-33283
X37242Y-33283
T11
X29000Y-32000
X29000Y-54750
X65750Y-32000
X65750Y-54750
T12
X36750Y-32378
T0
M30
