G04 #@! TF.GenerationSoftware,KiCad,Pcbnew,(5.1.8)-1*
G04 #@! TF.CreationDate,2021-01-16T01:08:56+01:00*
G04 #@! TF.ProjectId,8bitWave Backplate,38626974-5761-4766-9520-4261636b706c,rev?*
G04 #@! TF.SameCoordinates,Original*
G04 #@! TF.FileFunction,Copper,L2,Bot*
G04 #@! TF.FilePolarity,Positive*
%FSLAX46Y46*%
G04 Gerber Fmt 4.6, Leading zero omitted, Abs format (unit mm)*
G04 Created by KiCad (PCBNEW (5.1.8)-1) date 2021-01-16 01:08:56*
%MOMM*%
%LPD*%
G01*
G04 APERTURE LIST*
G04 #@! TA.AperFunction,ComponentPad*
%ADD10C,5.000000*%
G04 #@! TD*
G04 #@! TA.AperFunction,Conductor*
%ADD11C,0.254000*%
G04 #@! TD*
G04 #@! TA.AperFunction,Conductor*
%ADD12C,0.100000*%
G04 #@! TD*
G04 APERTURE END LIST*
D10*
X73660000Y-139065000D03*
X167005000Y-139065000D03*
X167005000Y-81280000D03*
X73660000Y-81280000D03*
D11*
X71636457Y-79076852D02*
X73660000Y-81100395D01*
X75683543Y-79076852D01*
X75510527Y-78815000D01*
X165154473Y-78815000D01*
X164981457Y-79076852D01*
X167005000Y-81100395D01*
X169028543Y-79076852D01*
X168855527Y-78815000D01*
X168875280Y-78815000D01*
X169018109Y-78829005D01*
X169122101Y-78860402D01*
X169218014Y-78911399D01*
X169302194Y-78980055D01*
X169371440Y-79063758D01*
X169423105Y-79159311D01*
X169455227Y-79263078D01*
X169470001Y-79403650D01*
X169470001Y-79429474D01*
X169208148Y-79256457D01*
X167184605Y-81280000D01*
X169208148Y-83303543D01*
X169470001Y-83130526D01*
X169470000Y-137214473D01*
X169208148Y-137041457D01*
X167184605Y-139065000D01*
X169208148Y-141088543D01*
X169470000Y-140915527D01*
X169470000Y-140935280D01*
X169455995Y-141078109D01*
X169424599Y-141182099D01*
X169373601Y-141278013D01*
X169304941Y-141362199D01*
X169221243Y-141431439D01*
X169125689Y-141483105D01*
X169021922Y-141515227D01*
X168881359Y-141530000D01*
X168855527Y-141530000D01*
X169028543Y-141268148D01*
X167005000Y-139244605D01*
X164981457Y-141268148D01*
X165154473Y-141530000D01*
X154292515Y-141530000D01*
X153800181Y-139068328D01*
X163854832Y-139068328D01*
X163916010Y-139682831D01*
X164095897Y-140273592D01*
X164383882Y-140812373D01*
X164801852Y-141088543D01*
X166825395Y-139065000D01*
X164801852Y-137041457D01*
X164383882Y-137317627D01*
X164093351Y-137862557D01*
X163914713Y-138453696D01*
X163854832Y-139068328D01*
X153800181Y-139068328D01*
X153358886Y-136861852D01*
X164981457Y-136861852D01*
X167005000Y-138885395D01*
X169028543Y-136861852D01*
X168752373Y-136443882D01*
X168207443Y-136153351D01*
X167616304Y-135974713D01*
X167001672Y-135914832D01*
X166387169Y-135976010D01*
X165796408Y-136155897D01*
X165257627Y-136443882D01*
X164981457Y-136861852D01*
X153358886Y-136861852D01*
X151254534Y-126340093D01*
X151247333Y-126316399D01*
X151235597Y-126294443D01*
X151219803Y-126275197D01*
X151200557Y-126259403D01*
X151178601Y-126247667D01*
X151154776Y-126240440D01*
X151130000Y-126238000D01*
X88900000Y-126238000D01*
X88870547Y-126241462D01*
X88847012Y-126249582D01*
X88825513Y-126262137D01*
X88806877Y-126278645D01*
X88791819Y-126298472D01*
X88780919Y-126320855D01*
X88774595Y-126344935D01*
X86344985Y-141530000D01*
X75510527Y-141530000D01*
X75683543Y-141268148D01*
X73660000Y-139244605D01*
X71636457Y-141268148D01*
X71809473Y-141530000D01*
X71789720Y-141530000D01*
X71646891Y-141515995D01*
X71542901Y-141484599D01*
X71446987Y-141433601D01*
X71362801Y-141364941D01*
X71293561Y-141281243D01*
X71241895Y-141185689D01*
X71209773Y-141081922D01*
X71195000Y-140941359D01*
X71195000Y-140915527D01*
X71456852Y-141088543D01*
X73480395Y-139065000D01*
X73839605Y-139065000D01*
X75863148Y-141088543D01*
X76281118Y-140812373D01*
X76571649Y-140267443D01*
X76750287Y-139676304D01*
X76810168Y-139061672D01*
X76748990Y-138447169D01*
X76569103Y-137856408D01*
X76281118Y-137317627D01*
X75863148Y-137041457D01*
X73839605Y-139065000D01*
X73480395Y-139065000D01*
X71456852Y-137041457D01*
X71195000Y-137214473D01*
X71195000Y-136861852D01*
X71636457Y-136861852D01*
X73660000Y-138885395D01*
X75683543Y-136861852D01*
X75407373Y-136443882D01*
X74862443Y-136153351D01*
X74271304Y-135974713D01*
X73656672Y-135914832D01*
X73042169Y-135976010D01*
X72451408Y-136155897D01*
X71912627Y-136443882D01*
X71636457Y-136861852D01*
X71195000Y-136861852D01*
X71195000Y-106147776D01*
X92002013Y-106147776D01*
X92002013Y-107212224D01*
X92177215Y-108262154D01*
X92522841Y-109268927D01*
X93029462Y-110205081D01*
X93683259Y-111045080D01*
X94466399Y-111766011D01*
X95357519Y-112348208D01*
X96332312Y-112775792D01*
X97364188Y-113037099D01*
X98425000Y-113125000D01*
X99485812Y-113037099D01*
X100517688Y-112775792D01*
X101492481Y-112348208D01*
X102383601Y-111766011D01*
X103166741Y-111045080D01*
X103820538Y-110205081D01*
X104327159Y-109268927D01*
X104672785Y-108262154D01*
X104847987Y-107212224D01*
X104847987Y-106147776D01*
X135817013Y-106147776D01*
X135817013Y-107212224D01*
X135992215Y-108262154D01*
X136337841Y-109268927D01*
X136844462Y-110205081D01*
X137498259Y-111045080D01*
X138281399Y-111766011D01*
X139172519Y-112348208D01*
X140147312Y-112775792D01*
X141179188Y-113037099D01*
X142240000Y-113125000D01*
X143300812Y-113037099D01*
X144332688Y-112775792D01*
X145307481Y-112348208D01*
X146198601Y-111766011D01*
X146981741Y-111045080D01*
X147635538Y-110205081D01*
X148142159Y-109268927D01*
X148487785Y-108262154D01*
X148662987Y-107212224D01*
X148662987Y-106147776D01*
X148487785Y-105097846D01*
X148142159Y-104091073D01*
X147635538Y-103154919D01*
X146981741Y-102314920D01*
X146198601Y-101593989D01*
X145307481Y-101011792D01*
X144332688Y-100584208D01*
X143300812Y-100322901D01*
X142240000Y-100235000D01*
X141179188Y-100322901D01*
X140147312Y-100584208D01*
X139172519Y-101011792D01*
X138281399Y-101593989D01*
X137498259Y-102314920D01*
X136844462Y-103154919D01*
X136337841Y-104091073D01*
X135992215Y-105097846D01*
X135817013Y-106147776D01*
X104847987Y-106147776D01*
X104672785Y-105097846D01*
X104327159Y-104091073D01*
X103820538Y-103154919D01*
X103166741Y-102314920D01*
X102383601Y-101593989D01*
X101492481Y-101011792D01*
X100517688Y-100584208D01*
X99485812Y-100322901D01*
X98425000Y-100235000D01*
X97364188Y-100322901D01*
X96332312Y-100584208D01*
X95357519Y-101011792D01*
X94466399Y-101593989D01*
X93683259Y-102314920D01*
X93029462Y-103154919D01*
X92522841Y-104091073D01*
X92177215Y-105097846D01*
X92002013Y-106147776D01*
X71195000Y-106147776D01*
X71195000Y-83483148D01*
X71636457Y-83483148D01*
X71912627Y-83901118D01*
X72457557Y-84191649D01*
X73048696Y-84370287D01*
X73663328Y-84430168D01*
X74277831Y-84368990D01*
X74868592Y-84189103D01*
X75407373Y-83901118D01*
X75683543Y-83483148D01*
X164981457Y-83483148D01*
X165257627Y-83901118D01*
X165802557Y-84191649D01*
X166393696Y-84370287D01*
X167008328Y-84430168D01*
X167622831Y-84368990D01*
X168213592Y-84189103D01*
X168752373Y-83901118D01*
X169028543Y-83483148D01*
X167005000Y-81459605D01*
X164981457Y-83483148D01*
X75683543Y-83483148D01*
X73660000Y-81459605D01*
X71636457Y-83483148D01*
X71195000Y-83483148D01*
X71195000Y-83130527D01*
X71456852Y-83303543D01*
X73480395Y-81280000D01*
X73839605Y-81280000D01*
X75863148Y-83303543D01*
X76281118Y-83027373D01*
X76571649Y-82482443D01*
X76750287Y-81891304D01*
X76809519Y-81283328D01*
X163854832Y-81283328D01*
X163916010Y-81897831D01*
X164095897Y-82488592D01*
X164383882Y-83027373D01*
X164801852Y-83303543D01*
X166825395Y-81280000D01*
X164801852Y-79256457D01*
X164383882Y-79532627D01*
X164093351Y-80077557D01*
X163914713Y-80668696D01*
X163854832Y-81283328D01*
X76809519Y-81283328D01*
X76810168Y-81276672D01*
X76748990Y-80662169D01*
X76569103Y-80071408D01*
X76281118Y-79532627D01*
X75863148Y-79256457D01*
X73839605Y-81280000D01*
X73480395Y-81280000D01*
X71456852Y-79256457D01*
X71195000Y-79429473D01*
X71195000Y-79409720D01*
X71209005Y-79266891D01*
X71240402Y-79162899D01*
X71291399Y-79066986D01*
X71360055Y-78982806D01*
X71443758Y-78913560D01*
X71539311Y-78861895D01*
X71643078Y-78829773D01*
X71783641Y-78815000D01*
X71809473Y-78815000D01*
X71636457Y-79076852D01*
G04 #@! TA.AperFunction,Conductor*
D12*
G36*
X71636457Y-79076852D02*
G01*
X73660000Y-81100395D01*
X75683543Y-79076852D01*
X75510527Y-78815000D01*
X165154473Y-78815000D01*
X164981457Y-79076852D01*
X167005000Y-81100395D01*
X169028543Y-79076852D01*
X168855527Y-78815000D01*
X168875280Y-78815000D01*
X169018109Y-78829005D01*
X169122101Y-78860402D01*
X169218014Y-78911399D01*
X169302194Y-78980055D01*
X169371440Y-79063758D01*
X169423105Y-79159311D01*
X169455227Y-79263078D01*
X169470001Y-79403650D01*
X169470001Y-79429474D01*
X169208148Y-79256457D01*
X167184605Y-81280000D01*
X169208148Y-83303543D01*
X169470001Y-83130526D01*
X169470000Y-137214473D01*
X169208148Y-137041457D01*
X167184605Y-139065000D01*
X169208148Y-141088543D01*
X169470000Y-140915527D01*
X169470000Y-140935280D01*
X169455995Y-141078109D01*
X169424599Y-141182099D01*
X169373601Y-141278013D01*
X169304941Y-141362199D01*
X169221243Y-141431439D01*
X169125689Y-141483105D01*
X169021922Y-141515227D01*
X168881359Y-141530000D01*
X168855527Y-141530000D01*
X169028543Y-141268148D01*
X167005000Y-139244605D01*
X164981457Y-141268148D01*
X165154473Y-141530000D01*
X154292515Y-141530000D01*
X153800181Y-139068328D01*
X163854832Y-139068328D01*
X163916010Y-139682831D01*
X164095897Y-140273592D01*
X164383882Y-140812373D01*
X164801852Y-141088543D01*
X166825395Y-139065000D01*
X164801852Y-137041457D01*
X164383882Y-137317627D01*
X164093351Y-137862557D01*
X163914713Y-138453696D01*
X163854832Y-139068328D01*
X153800181Y-139068328D01*
X153358886Y-136861852D01*
X164981457Y-136861852D01*
X167005000Y-138885395D01*
X169028543Y-136861852D01*
X168752373Y-136443882D01*
X168207443Y-136153351D01*
X167616304Y-135974713D01*
X167001672Y-135914832D01*
X166387169Y-135976010D01*
X165796408Y-136155897D01*
X165257627Y-136443882D01*
X164981457Y-136861852D01*
X153358886Y-136861852D01*
X151254534Y-126340093D01*
X151247333Y-126316399D01*
X151235597Y-126294443D01*
X151219803Y-126275197D01*
X151200557Y-126259403D01*
X151178601Y-126247667D01*
X151154776Y-126240440D01*
X151130000Y-126238000D01*
X88900000Y-126238000D01*
X88870547Y-126241462D01*
X88847012Y-126249582D01*
X88825513Y-126262137D01*
X88806877Y-126278645D01*
X88791819Y-126298472D01*
X88780919Y-126320855D01*
X88774595Y-126344935D01*
X86344985Y-141530000D01*
X75510527Y-141530000D01*
X75683543Y-141268148D01*
X73660000Y-139244605D01*
X71636457Y-141268148D01*
X71809473Y-141530000D01*
X71789720Y-141530000D01*
X71646891Y-141515995D01*
X71542901Y-141484599D01*
X71446987Y-141433601D01*
X71362801Y-141364941D01*
X71293561Y-141281243D01*
X71241895Y-141185689D01*
X71209773Y-141081922D01*
X71195000Y-140941359D01*
X71195000Y-140915527D01*
X71456852Y-141088543D01*
X73480395Y-139065000D01*
X73839605Y-139065000D01*
X75863148Y-141088543D01*
X76281118Y-140812373D01*
X76571649Y-140267443D01*
X76750287Y-139676304D01*
X76810168Y-139061672D01*
X76748990Y-138447169D01*
X76569103Y-137856408D01*
X76281118Y-137317627D01*
X75863148Y-137041457D01*
X73839605Y-139065000D01*
X73480395Y-139065000D01*
X71456852Y-137041457D01*
X71195000Y-137214473D01*
X71195000Y-136861852D01*
X71636457Y-136861852D01*
X73660000Y-138885395D01*
X75683543Y-136861852D01*
X75407373Y-136443882D01*
X74862443Y-136153351D01*
X74271304Y-135974713D01*
X73656672Y-135914832D01*
X73042169Y-135976010D01*
X72451408Y-136155897D01*
X71912627Y-136443882D01*
X71636457Y-136861852D01*
X71195000Y-136861852D01*
X71195000Y-106147776D01*
X92002013Y-106147776D01*
X92002013Y-107212224D01*
X92177215Y-108262154D01*
X92522841Y-109268927D01*
X93029462Y-110205081D01*
X93683259Y-111045080D01*
X94466399Y-111766011D01*
X95357519Y-112348208D01*
X96332312Y-112775792D01*
X97364188Y-113037099D01*
X98425000Y-113125000D01*
X99485812Y-113037099D01*
X100517688Y-112775792D01*
X101492481Y-112348208D01*
X102383601Y-111766011D01*
X103166741Y-111045080D01*
X103820538Y-110205081D01*
X104327159Y-109268927D01*
X104672785Y-108262154D01*
X104847987Y-107212224D01*
X104847987Y-106147776D01*
X135817013Y-106147776D01*
X135817013Y-107212224D01*
X135992215Y-108262154D01*
X136337841Y-109268927D01*
X136844462Y-110205081D01*
X137498259Y-111045080D01*
X138281399Y-111766011D01*
X139172519Y-112348208D01*
X140147312Y-112775792D01*
X141179188Y-113037099D01*
X142240000Y-113125000D01*
X143300812Y-113037099D01*
X144332688Y-112775792D01*
X145307481Y-112348208D01*
X146198601Y-111766011D01*
X146981741Y-111045080D01*
X147635538Y-110205081D01*
X148142159Y-109268927D01*
X148487785Y-108262154D01*
X148662987Y-107212224D01*
X148662987Y-106147776D01*
X148487785Y-105097846D01*
X148142159Y-104091073D01*
X147635538Y-103154919D01*
X146981741Y-102314920D01*
X146198601Y-101593989D01*
X145307481Y-101011792D01*
X144332688Y-100584208D01*
X143300812Y-100322901D01*
X142240000Y-100235000D01*
X141179188Y-100322901D01*
X140147312Y-100584208D01*
X139172519Y-101011792D01*
X138281399Y-101593989D01*
X137498259Y-102314920D01*
X136844462Y-103154919D01*
X136337841Y-104091073D01*
X135992215Y-105097846D01*
X135817013Y-106147776D01*
X104847987Y-106147776D01*
X104672785Y-105097846D01*
X104327159Y-104091073D01*
X103820538Y-103154919D01*
X103166741Y-102314920D01*
X102383601Y-101593989D01*
X101492481Y-101011792D01*
X100517688Y-100584208D01*
X99485812Y-100322901D01*
X98425000Y-100235000D01*
X97364188Y-100322901D01*
X96332312Y-100584208D01*
X95357519Y-101011792D01*
X94466399Y-101593989D01*
X93683259Y-102314920D01*
X93029462Y-103154919D01*
X92522841Y-104091073D01*
X92177215Y-105097846D01*
X92002013Y-106147776D01*
X71195000Y-106147776D01*
X71195000Y-83483148D01*
X71636457Y-83483148D01*
X71912627Y-83901118D01*
X72457557Y-84191649D01*
X73048696Y-84370287D01*
X73663328Y-84430168D01*
X74277831Y-84368990D01*
X74868592Y-84189103D01*
X75407373Y-83901118D01*
X75683543Y-83483148D01*
X164981457Y-83483148D01*
X165257627Y-83901118D01*
X165802557Y-84191649D01*
X166393696Y-84370287D01*
X167008328Y-84430168D01*
X167622831Y-84368990D01*
X168213592Y-84189103D01*
X168752373Y-83901118D01*
X169028543Y-83483148D01*
X167005000Y-81459605D01*
X164981457Y-83483148D01*
X75683543Y-83483148D01*
X73660000Y-81459605D01*
X71636457Y-83483148D01*
X71195000Y-83483148D01*
X71195000Y-83130527D01*
X71456852Y-83303543D01*
X73480395Y-81280000D01*
X73839605Y-81280000D01*
X75863148Y-83303543D01*
X76281118Y-83027373D01*
X76571649Y-82482443D01*
X76750287Y-81891304D01*
X76809519Y-81283328D01*
X163854832Y-81283328D01*
X163916010Y-81897831D01*
X164095897Y-82488592D01*
X164383882Y-83027373D01*
X164801852Y-83303543D01*
X166825395Y-81280000D01*
X164801852Y-79256457D01*
X164383882Y-79532627D01*
X164093351Y-80077557D01*
X163914713Y-80668696D01*
X163854832Y-81283328D01*
X76809519Y-81283328D01*
X76810168Y-81276672D01*
X76748990Y-80662169D01*
X76569103Y-80071408D01*
X76281118Y-79532627D01*
X75863148Y-79256457D01*
X73839605Y-81280000D01*
X73480395Y-81280000D01*
X71456852Y-79256457D01*
X71195000Y-79429473D01*
X71195000Y-79409720D01*
X71209005Y-79266891D01*
X71240402Y-79162899D01*
X71291399Y-79066986D01*
X71360055Y-78982806D01*
X71443758Y-78913560D01*
X71539311Y-78861895D01*
X71643078Y-78829773D01*
X71783641Y-78815000D01*
X71809473Y-78815000D01*
X71636457Y-79076852D01*
G37*
G04 #@! TD.AperFunction*
M02*
