G04 #@! TF.GenerationSoftware,KiCad,Pcbnew,(5.1.5)-3*
G04 #@! TF.CreationDate,2020-03-10T22:08:36+01:00*
G04 #@! TF.ProjectId,8bitWave Backplate,38626974-5761-4766-9520-4261636b706c,rev?*
G04 #@! TF.SameCoordinates,Original*
G04 #@! TF.FileFunction,Profile,NP*
%FSLAX46Y46*%
G04 Gerber Fmt 4.6, Leading zero omitted, Abs format (unit mm)*
G04 Created by KiCad (PCBNEW (5.1.5)-3) date 2020-03-10 22:08:36*
%MOMM*%
%LPD*%
G04 APERTURE LIST*
%ADD10C,0.150000*%
G04 APERTURE END LIST*
D10*
X135890000Y-137160000D02*
X135890000Y-138430000D01*
X133350000Y-135890000D02*
X134620000Y-135890000D01*
X132080000Y-138430000D02*
X132080000Y-137160000D01*
X134620000Y-139700000D02*
X133350000Y-139700000D01*
X106045000Y-135890000D02*
X107315000Y-135890000D01*
X107315000Y-139700000D02*
X106045000Y-139700000D01*
X108585000Y-137160000D02*
X108585000Y-138430000D01*
X104775000Y-138430000D02*
X104775000Y-137160000D01*
X133350000Y-139700000D02*
G75*
G02X132080000Y-138430000I0J1270000D01*
G01*
X132080000Y-137160000D02*
G75*
G02X133350000Y-135890000I1270000J0D01*
G01*
X135890000Y-138430000D02*
G75*
G02X134620000Y-139700000I-1270000J0D01*
G01*
X134620000Y-135890000D02*
G75*
G02X135890000Y-137160000I0J-1270000D01*
G01*
X108585000Y-138430000D02*
G75*
G02X107315000Y-139700000I-1270000J0D01*
G01*
X106045000Y-139700000D02*
G75*
G02X104775000Y-138430000I0J1270000D01*
G01*
X104775000Y-137160000D02*
G75*
G02X106045000Y-135890000I1270000J0D01*
G01*
X107315000Y-135890000D02*
G75*
G02X108585000Y-137160000I0J-1270000D01*
G01*
X147230000Y-139065000D02*
G75*
G03X147230000Y-139065000I-2450000J0D01*
G01*
X98335000Y-139065000D02*
G75*
G03X98335000Y-139065000I-2450000J0D01*
G01*
X122465000Y-132320000D02*
G75*
G03X122465000Y-132320000I-2450000J0D01*
G01*
X147955000Y-106680000D02*
G75*
G03X147955000Y-106680000I-5715000J0D01*
G01*
X104140000Y-106680000D02*
G75*
G03X104140000Y-106680000I-5715000J0D01*
G01*
X70485000Y-79375000D02*
X70485000Y-140970000D01*
X168910000Y-78105000D02*
X71755000Y-78105000D01*
X71755000Y-78105000D02*
G75*
G03X70485000Y-79375000I0J-1270000D01*
G01*
X170180000Y-79375000D02*
G75*
G03X168910000Y-78105000I-1270000J0D01*
G01*
X170180000Y-140970000D02*
X170180000Y-79375000D01*
X168910000Y-142240000D02*
G75*
G03X170180000Y-140970000I0J1270000D01*
G01*
X71755000Y-142240000D02*
X168910000Y-142240000D01*
X70485000Y-140970000D02*
G75*
G03X71755000Y-142240000I1270000J0D01*
G01*
M02*
