M48
INCH,TZ
T1C0.0157
T2C0.0300
T3C0.0394
T4C0.1200
%
G90
G05
T1
X62201Y-38049
X63000Y-36250
X63000Y-37000
X63000Y-38000
X64750Y-41000
X64750Y-41750
T2
X45876Y-37402
X46876Y-37402
X47876Y-37402
X48876Y-37402
T3
X66250Y-37500
X66250Y-38500
X66250Y-39500
X66250Y-40500
X66250Y-41500
X66250Y-42500
X66250Y-43500
X28500Y-37500
X28500Y-38500
X28500Y-39500
X28500Y-40500
X28500Y-41500
X28500Y-42500
X28500Y-43500
X28500Y-44500
X28500Y-45500
X28500Y-46500
X66250Y-44500
X66250Y-45500
X66250Y-46500
T4
X65750Y-32000
X65750Y-54750
X29000Y-54750
X29000Y-32000
T0
M30
