G04 #@! TF.GenerationSoftware,KiCad,Pcbnew,(5.1.8)-1*
G04 #@! TF.CreationDate,2021-01-16T01:02:15+01:00*
G04 #@! TF.ProjectId,8bitWave Faceplate A2,38626974-5761-4766-9520-46616365706c,rev?*
G04 #@! TF.SameCoordinates,Original*
G04 #@! TF.FileFunction,Copper,L2,Bot*
G04 #@! TF.FilePolarity,Positive*
%FSLAX46Y46*%
G04 Gerber Fmt 4.6, Leading zero omitted, Abs format (unit mm)*
G04 Created by KiCad (PCBNEW (5.1.8)-1) date 2021-01-16 01:02:15*
%MOMM*%
%LPD*%
G01*
G04 APERTURE LIST*
G04 #@! TA.AperFunction,ComponentPad*
%ADD10O,1.700000X1.700000*%
G04 #@! TD*
G04 #@! TA.AperFunction,ComponentPad*
%ADD11R,1.700000X1.700000*%
G04 #@! TD*
G04 #@! TA.AperFunction,WasherPad*
%ADD12C,2.500000*%
G04 #@! TD*
G04 #@! TA.AperFunction,ComponentPad*
%ADD13R,1.524000X1.524000*%
G04 #@! TD*
G04 #@! TA.AperFunction,ComponentPad*
%ADD14C,1.524000*%
G04 #@! TD*
G04 #@! TA.AperFunction,ComponentPad*
%ADD15C,5.000000*%
G04 #@! TD*
G04 #@! TA.AperFunction,SMDPad,CuDef*
%ADD16O,1.000000X1.000000*%
G04 #@! TD*
G04 #@! TA.AperFunction,SMDPad,CuDef*
%ADD17R,1.000000X1.000000*%
G04 #@! TD*
G04 #@! TA.AperFunction,ViaPad*
%ADD18C,0.600000*%
G04 #@! TD*
G04 #@! TA.AperFunction,Conductor*
%ADD19C,0.250000*%
G04 #@! TD*
G04 #@! TA.AperFunction,Conductor*
%ADD20C,0.254000*%
G04 #@! TD*
G04 #@! TA.AperFunction,Conductor*
%ADD21C,0.100000*%
G04 #@! TD*
G04 APERTURE END LIST*
D10*
X72390000Y-118110000D03*
X72390000Y-115570000D03*
X72390000Y-113030000D03*
X72390000Y-110490000D03*
X72390000Y-107950000D03*
X72390000Y-105410000D03*
X72390000Y-102870000D03*
X72390000Y-100330000D03*
X72390000Y-97790000D03*
D11*
X72390000Y-95250000D03*
D12*
X132085000Y-119500000D03*
X108585000Y-119500000D03*
D13*
X116525000Y-95000000D03*
D14*
X119065000Y-95000000D03*
X121605000Y-95000000D03*
X124145000Y-95000000D03*
D11*
X168275000Y-95250000D03*
D10*
X168275000Y-97790000D03*
X168275000Y-100330000D03*
X168275000Y-102870000D03*
X168275000Y-105410000D03*
X168275000Y-107950000D03*
X168275000Y-110490000D03*
D15*
X73660000Y-139065000D03*
X167005000Y-139065000D03*
X167005000Y-81280000D03*
X73660000Y-81280000D03*
D11*
X168275000Y-113030000D03*
D10*
X168275000Y-115570000D03*
X168275000Y-118110000D03*
D16*
X160020000Y-95250000D03*
X158750000Y-95250000D03*
D17*
X157480000Y-95250000D03*
X157480000Y-97790000D03*
D16*
X158750000Y-97790000D03*
X160020000Y-97790000D03*
D18*
X157990558Y-96644442D03*
X160020000Y-96520000D03*
X160020000Y-93980000D03*
X160020000Y-92075000D03*
X164465000Y-106045000D03*
X164465000Y-104140000D03*
D19*
X157480000Y-97155000D02*
X157990558Y-96644442D01*
X157480000Y-97790000D02*
X157480000Y-97155000D01*
X160020000Y-96520000D02*
X160020000Y-95250000D01*
X160020000Y-95250000D02*
X160020000Y-93980000D01*
X160020000Y-92075000D02*
X160655000Y-91440000D01*
X160655000Y-91440000D02*
X167640000Y-91440000D01*
X167640000Y-91440000D02*
X168275000Y-92075000D01*
X168275000Y-92075000D02*
X168275000Y-95250000D01*
X124145000Y-94295000D02*
X124145000Y-95000000D01*
X125095000Y-93345000D02*
X124145000Y-94295000D01*
X163195000Y-93345000D02*
X125095000Y-93345000D01*
X163830000Y-93980000D02*
X163195000Y-93345000D01*
X163830000Y-104775000D02*
X163830000Y-93980000D01*
X164465000Y-105410000D02*
X163830000Y-104775000D01*
X168275000Y-105410000D02*
X164465000Y-105410000D01*
X168275000Y-107950000D02*
X165100000Y-107950000D01*
X164465000Y-107315000D02*
X164465000Y-106045000D01*
X165100000Y-107950000D02*
X164465000Y-107315000D01*
X121605000Y-93660000D02*
X121605000Y-95000000D01*
X122555000Y-92710000D02*
X121605000Y-93660000D01*
X163830000Y-92710000D02*
X122555000Y-92710000D01*
X164465000Y-93345000D02*
X163830000Y-92710000D01*
X164465000Y-104140000D02*
X164465000Y-93345000D01*
X168275000Y-113030000D02*
X169545000Y-113030000D01*
X169545000Y-114935000D02*
X168910000Y-115570000D01*
X169545000Y-113030000D02*
X169545000Y-114935000D01*
X168910000Y-115570000D02*
X168275000Y-115570000D01*
X157480000Y-95250000D02*
X159520001Y-97290001D01*
X159520001Y-97290001D02*
X160020000Y-97790000D01*
X163830000Y-109220000D02*
X168910000Y-109220000D01*
X168910000Y-109220000D02*
X169545000Y-109855000D01*
X163195000Y-108585000D02*
X163830000Y-109220000D01*
X169545000Y-109855000D02*
X169545000Y-113030000D01*
X163195000Y-98425000D02*
X163195000Y-108585000D01*
X162560000Y-97790000D02*
X163195000Y-98425000D01*
X160020000Y-97790000D02*
X162560000Y-97790000D01*
X116840000Y-98425000D02*
X116525000Y-98110000D01*
X156210000Y-98425000D02*
X116840000Y-98425000D01*
X156845000Y-99060000D02*
X156210000Y-98425000D01*
X158115000Y-99060000D02*
X156845000Y-99060000D01*
X158750000Y-98425000D02*
X158115000Y-99060000D01*
X116525000Y-98110000D02*
X116525000Y-95000000D01*
X158750000Y-97790000D02*
X158750000Y-98425000D01*
X158750000Y-94615000D02*
X158750000Y-95250000D01*
X156210000Y-94457499D02*
X156687499Y-93980000D01*
X158115000Y-93980000D02*
X158750000Y-94615000D01*
X156687499Y-93980000D02*
X158115000Y-93980000D01*
X156210000Y-97155000D02*
X156210000Y-94457499D01*
X155890000Y-97475000D02*
X156210000Y-97155000D01*
X119700000Y-97475000D02*
X155890000Y-97475000D01*
X119065000Y-96840000D02*
X119700000Y-97475000D01*
X119065000Y-95000000D02*
X119065000Y-96840000D01*
D20*
X165006554Y-78844886D02*
X164569886Y-79281554D01*
X164226799Y-79795021D01*
X163990476Y-80365554D01*
X163870000Y-80971229D01*
X163870000Y-81588771D01*
X163990476Y-82194446D01*
X164226799Y-82764979D01*
X164569886Y-83278446D01*
X165006554Y-83715114D01*
X165520021Y-84058201D01*
X166090554Y-84294524D01*
X166696229Y-84415000D01*
X167313771Y-84415000D01*
X167919446Y-84294524D01*
X168489979Y-84058201D01*
X169003446Y-83715114D01*
X169440114Y-83278446D01*
X169470001Y-83233717D01*
X169470001Y-93864389D01*
X169369180Y-93810498D01*
X169249482Y-93774188D01*
X169125000Y-93761928D01*
X168560750Y-93765000D01*
X168402000Y-93923750D01*
X168402000Y-95123000D01*
X168422000Y-95123000D01*
X168422000Y-95377000D01*
X168402000Y-95377000D01*
X168402000Y-95397000D01*
X168148000Y-95397000D01*
X168148000Y-95377000D01*
X166948750Y-95377000D01*
X166790000Y-95535750D01*
X166786928Y-96100000D01*
X166799188Y-96224482D01*
X166835498Y-96344180D01*
X166894463Y-96454494D01*
X166973815Y-96551185D01*
X167070506Y-96630537D01*
X167180820Y-96689502D01*
X167253380Y-96711513D01*
X167121525Y-96843368D01*
X166959010Y-97086589D01*
X166847068Y-97356842D01*
X166790000Y-97643740D01*
X166790000Y-97936260D01*
X166847068Y-98223158D01*
X166959010Y-98493411D01*
X167121525Y-98736632D01*
X167328368Y-98943475D01*
X167502760Y-99060000D01*
X167328368Y-99176525D01*
X167121525Y-99383368D01*
X166959010Y-99626589D01*
X166847068Y-99896842D01*
X166790000Y-100183740D01*
X166790000Y-100476260D01*
X166847068Y-100763158D01*
X166959010Y-101033411D01*
X167121525Y-101276632D01*
X167328368Y-101483475D01*
X167502760Y-101600000D01*
X167328368Y-101716525D01*
X167121525Y-101923368D01*
X166959010Y-102166589D01*
X166847068Y-102436842D01*
X166790000Y-102723740D01*
X166790000Y-103016260D01*
X166847068Y-103303158D01*
X166959010Y-103573411D01*
X167121525Y-103816632D01*
X167328368Y-104023475D01*
X167502760Y-104140000D01*
X167328368Y-104256525D01*
X167121525Y-104463368D01*
X166996822Y-104650000D01*
X165248744Y-104650000D01*
X165293586Y-104582889D01*
X165364068Y-104412729D01*
X165400000Y-104232089D01*
X165400000Y-104047911D01*
X165364068Y-103867271D01*
X165293586Y-103697111D01*
X165225000Y-103594465D01*
X165225000Y-94400000D01*
X166786928Y-94400000D01*
X166790000Y-94964250D01*
X166948750Y-95123000D01*
X168148000Y-95123000D01*
X168148000Y-93923750D01*
X167989250Y-93765000D01*
X167425000Y-93761928D01*
X167300518Y-93774188D01*
X167180820Y-93810498D01*
X167070506Y-93869463D01*
X166973815Y-93948815D01*
X166894463Y-94045506D01*
X166835498Y-94155820D01*
X166799188Y-94275518D01*
X166786928Y-94400000D01*
X165225000Y-94400000D01*
X165225000Y-93382333D01*
X165228677Y-93345000D01*
X165214003Y-93196014D01*
X165170546Y-93052753D01*
X165099974Y-92920724D01*
X165028799Y-92833997D01*
X165005001Y-92804999D01*
X164976002Y-92781200D01*
X164393803Y-92199002D01*
X164370001Y-92169999D01*
X164254276Y-92075026D01*
X164122247Y-92004454D01*
X163978986Y-91960997D01*
X163867333Y-91950000D01*
X163867322Y-91950000D01*
X163830000Y-91946324D01*
X163792678Y-91950000D01*
X122592323Y-91950000D01*
X122555000Y-91946324D01*
X122517677Y-91950000D01*
X122517667Y-91950000D01*
X122406014Y-91960997D01*
X122262753Y-92004454D01*
X122130723Y-92075026D01*
X122047083Y-92143668D01*
X122014999Y-92169999D01*
X121991201Y-92198997D01*
X121094002Y-93096196D01*
X121064999Y-93119999D01*
X121009871Y-93187174D01*
X120970026Y-93235724D01*
X120899455Y-93367753D01*
X120899454Y-93367754D01*
X120855997Y-93511015D01*
X120845000Y-93622668D01*
X120845000Y-93622678D01*
X120841324Y-93660000D01*
X120845000Y-93697323D01*
X120845000Y-93827659D01*
X120714465Y-93914880D01*
X120519880Y-94109465D01*
X120366995Y-94338273D01*
X120335000Y-94415515D01*
X120303005Y-94338273D01*
X120150120Y-94109465D01*
X119955535Y-93914880D01*
X119726727Y-93761995D01*
X119472490Y-93656686D01*
X119202592Y-93603000D01*
X118927408Y-93603000D01*
X118657510Y-93656686D01*
X118403273Y-93761995D01*
X118174465Y-93914880D01*
X117979880Y-94109465D01*
X117921080Y-94197465D01*
X117912812Y-94113518D01*
X117876502Y-93993820D01*
X117817537Y-93883506D01*
X117738185Y-93786815D01*
X117641494Y-93707463D01*
X117531180Y-93648498D01*
X117411482Y-93612188D01*
X117287000Y-93599928D01*
X115763000Y-93599928D01*
X115638518Y-93612188D01*
X115518820Y-93648498D01*
X115408506Y-93707463D01*
X115311815Y-93786815D01*
X115232463Y-93883506D01*
X115173498Y-93993820D01*
X115137188Y-94113518D01*
X115124928Y-94238000D01*
X115124928Y-95762000D01*
X115137188Y-95886482D01*
X115173498Y-96006180D01*
X115232463Y-96116494D01*
X115311815Y-96213185D01*
X115408506Y-96292537D01*
X115518820Y-96351502D01*
X115638518Y-96387812D01*
X115763000Y-96400072D01*
X115765001Y-96400072D01*
X115765000Y-98072677D01*
X115761324Y-98110000D01*
X115765000Y-98147322D01*
X115765000Y-98147332D01*
X115775997Y-98258985D01*
X115802564Y-98346565D01*
X115803606Y-98350000D01*
X107349877Y-98350000D01*
X107315000Y-98346565D01*
X107280123Y-98350000D01*
X107175816Y-98360273D01*
X107041980Y-98400872D01*
X106918637Y-98466800D01*
X106810525Y-98555525D01*
X106721800Y-98663637D01*
X106655872Y-98786980D01*
X106615273Y-98920816D01*
X106601565Y-99060000D01*
X106605001Y-99094887D01*
X106605000Y-114265123D01*
X106601565Y-114300000D01*
X106615273Y-114439184D01*
X106655872Y-114573020D01*
X106721800Y-114696363D01*
X106810525Y-114804475D01*
X106918637Y-114893200D01*
X107041980Y-114959128D01*
X107175816Y-114999727D01*
X107315000Y-115013435D01*
X107349877Y-115010000D01*
X133315123Y-115010000D01*
X133350000Y-115013435D01*
X133384877Y-115010000D01*
X133489184Y-114999727D01*
X133623020Y-114959128D01*
X133746363Y-114893200D01*
X133854475Y-114804475D01*
X133943200Y-114696363D01*
X134009128Y-114573020D01*
X134049727Y-114439184D01*
X134063435Y-114300000D01*
X134060000Y-114265123D01*
X134060000Y-106147776D01*
X135817013Y-106147776D01*
X135817013Y-107212224D01*
X135992215Y-108262154D01*
X136337841Y-109268927D01*
X136844462Y-110205081D01*
X137498259Y-111045080D01*
X138281399Y-111766011D01*
X139172519Y-112348208D01*
X140147312Y-112775792D01*
X141179188Y-113037099D01*
X142240000Y-113125000D01*
X143300812Y-113037099D01*
X144332688Y-112775792D01*
X145307481Y-112348208D01*
X146198601Y-111766011D01*
X146981741Y-111045080D01*
X147635538Y-110205081D01*
X148142159Y-109268927D01*
X148487785Y-108262154D01*
X148662987Y-107212224D01*
X148662987Y-106147776D01*
X148487785Y-105097846D01*
X148142159Y-104091073D01*
X147635538Y-103154919D01*
X146981741Y-102314920D01*
X146198601Y-101593989D01*
X145307481Y-101011792D01*
X144332688Y-100584208D01*
X143300812Y-100322901D01*
X142240000Y-100235000D01*
X141179188Y-100322901D01*
X140147312Y-100584208D01*
X139172519Y-101011792D01*
X138281399Y-101593989D01*
X137498259Y-102314920D01*
X136844462Y-103154919D01*
X136337841Y-104091073D01*
X135992215Y-105097846D01*
X135817013Y-106147776D01*
X134060000Y-106147776D01*
X134060000Y-99185000D01*
X155895199Y-99185000D01*
X156281200Y-99571002D01*
X156304999Y-99600001D01*
X156333997Y-99623799D01*
X156420724Y-99694974D01*
X156552753Y-99765546D01*
X156696014Y-99809003D01*
X156845000Y-99823677D01*
X156882333Y-99820000D01*
X158077678Y-99820000D01*
X158115000Y-99823676D01*
X158152322Y-99820000D01*
X158152333Y-99820000D01*
X158263986Y-99809003D01*
X158407247Y-99765546D01*
X158539276Y-99694974D01*
X158655001Y-99600001D01*
X158678803Y-99570998D01*
X159261003Y-98988799D01*
X159290001Y-98965001D01*
X159384974Y-98849276D01*
X159431659Y-98761936D01*
X159482376Y-98795824D01*
X159688933Y-98881383D01*
X159908212Y-98925000D01*
X160131788Y-98925000D01*
X160351067Y-98881383D01*
X160557624Y-98795824D01*
X160743520Y-98671612D01*
X160865132Y-98550000D01*
X162245199Y-98550000D01*
X162435000Y-98739802D01*
X162435001Y-108547668D01*
X162431324Y-108585000D01*
X162435001Y-108622333D01*
X162442553Y-108699003D01*
X162445998Y-108733985D01*
X162489454Y-108877246D01*
X162560026Y-109009276D01*
X162627361Y-109091323D01*
X162655000Y-109125001D01*
X162683998Y-109148799D01*
X163266200Y-109731002D01*
X163289999Y-109760001D01*
X163405724Y-109854974D01*
X163537753Y-109925546D01*
X163681014Y-109969003D01*
X163830000Y-109983677D01*
X163867333Y-109980000D01*
X166880986Y-109980000D01*
X166878175Y-109985901D01*
X166833524Y-110133110D01*
X166954845Y-110363000D01*
X168148000Y-110363000D01*
X168148000Y-110343000D01*
X168402000Y-110343000D01*
X168402000Y-110363000D01*
X168422000Y-110363000D01*
X168422000Y-110617000D01*
X168402000Y-110617000D01*
X168402000Y-110637000D01*
X168148000Y-110637000D01*
X168148000Y-110617000D01*
X166954845Y-110617000D01*
X166833524Y-110846890D01*
X166878175Y-110994099D01*
X167003359Y-111256920D01*
X167177412Y-111490269D01*
X167261466Y-111566034D01*
X167180820Y-111590498D01*
X167070506Y-111649463D01*
X166973815Y-111728815D01*
X166894463Y-111825506D01*
X166835498Y-111935820D01*
X166799188Y-112055518D01*
X166786928Y-112180000D01*
X166786928Y-113880000D01*
X166799188Y-114004482D01*
X166835498Y-114124180D01*
X166894463Y-114234494D01*
X166973815Y-114331185D01*
X167070506Y-114410537D01*
X167180820Y-114469502D01*
X167253380Y-114491513D01*
X167121525Y-114623368D01*
X166959010Y-114866589D01*
X166847068Y-115136842D01*
X166790000Y-115423740D01*
X166790000Y-115716260D01*
X166847068Y-116003158D01*
X166959010Y-116273411D01*
X167121525Y-116516632D01*
X167328368Y-116723475D01*
X167502760Y-116840000D01*
X167328368Y-116956525D01*
X167121525Y-117163368D01*
X166959010Y-117406589D01*
X166847068Y-117676842D01*
X166790000Y-117963740D01*
X166790000Y-118256260D01*
X166847068Y-118543158D01*
X166959010Y-118813411D01*
X167121525Y-119056632D01*
X167328368Y-119263475D01*
X167571589Y-119425990D01*
X167841842Y-119537932D01*
X168128740Y-119595000D01*
X168421260Y-119595000D01*
X168708158Y-119537932D01*
X168978411Y-119425990D01*
X169221632Y-119263475D01*
X169428475Y-119056632D01*
X169470000Y-118994485D01*
X169470000Y-137111282D01*
X169440114Y-137066554D01*
X169003446Y-136629886D01*
X168489979Y-136286799D01*
X167919446Y-136050476D01*
X167313771Y-135930000D01*
X166696229Y-135930000D01*
X166090554Y-136050476D01*
X165520021Y-136286799D01*
X165006554Y-136629886D01*
X164569886Y-137066554D01*
X164226799Y-137580021D01*
X163990476Y-138150554D01*
X163870000Y-138756229D01*
X163870000Y-139373771D01*
X163990476Y-139979446D01*
X164226799Y-140549979D01*
X164569886Y-141063446D01*
X165006554Y-141500114D01*
X165051282Y-141530000D01*
X154292515Y-141530000D01*
X151254534Y-126340093D01*
X151247333Y-126316399D01*
X151235597Y-126294443D01*
X151219803Y-126275197D01*
X151200557Y-126259403D01*
X151178601Y-126247667D01*
X151154776Y-126240440D01*
X151130000Y-126238000D01*
X88900000Y-126238000D01*
X88870547Y-126241462D01*
X88847012Y-126249582D01*
X88825513Y-126262137D01*
X88806877Y-126278645D01*
X88791819Y-126298472D01*
X88780919Y-126320855D01*
X88774595Y-126344935D01*
X86344985Y-141530000D01*
X75613718Y-141530000D01*
X75658446Y-141500114D01*
X76095114Y-141063446D01*
X76438201Y-140549979D01*
X76674524Y-139979446D01*
X76795000Y-139373771D01*
X76795000Y-138756229D01*
X76674524Y-138150554D01*
X76438201Y-137580021D01*
X76095114Y-137066554D01*
X75658446Y-136629886D01*
X75144979Y-136286799D01*
X74574446Y-136050476D01*
X73968771Y-135930000D01*
X73351229Y-135930000D01*
X72745554Y-136050476D01*
X72175021Y-136286799D01*
X71661554Y-136629886D01*
X71224886Y-137066554D01*
X71195000Y-137111282D01*
X71195000Y-118994485D01*
X71236525Y-119056632D01*
X71443368Y-119263475D01*
X71686589Y-119425990D01*
X71956842Y-119537932D01*
X72243740Y-119595000D01*
X72536260Y-119595000D01*
X72823158Y-119537932D01*
X73093411Y-119425990D01*
X73260501Y-119314344D01*
X106700000Y-119314344D01*
X106700000Y-119685656D01*
X106772439Y-120049834D01*
X106914534Y-120392882D01*
X107120825Y-120701618D01*
X107383382Y-120964175D01*
X107692118Y-121170466D01*
X108035166Y-121312561D01*
X108399344Y-121385000D01*
X108770656Y-121385000D01*
X109134834Y-121312561D01*
X109477882Y-121170466D01*
X109786618Y-120964175D01*
X110049175Y-120701618D01*
X110255466Y-120392882D01*
X110397561Y-120049834D01*
X110470000Y-119685656D01*
X110470000Y-119314344D01*
X130200000Y-119314344D01*
X130200000Y-119685656D01*
X130272439Y-120049834D01*
X130414534Y-120392882D01*
X130620825Y-120701618D01*
X130883382Y-120964175D01*
X131192118Y-121170466D01*
X131535166Y-121312561D01*
X131899344Y-121385000D01*
X132270656Y-121385000D01*
X132634834Y-121312561D01*
X132977882Y-121170466D01*
X133286618Y-120964175D01*
X133549175Y-120701618D01*
X133755466Y-120392882D01*
X133897561Y-120049834D01*
X133970000Y-119685656D01*
X133970000Y-119314344D01*
X133897561Y-118950166D01*
X133755466Y-118607118D01*
X133549175Y-118298382D01*
X133286618Y-118035825D01*
X132977882Y-117829534D01*
X132634834Y-117687439D01*
X132270656Y-117615000D01*
X131899344Y-117615000D01*
X131535166Y-117687439D01*
X131192118Y-117829534D01*
X130883382Y-118035825D01*
X130620825Y-118298382D01*
X130414534Y-118607118D01*
X130272439Y-118950166D01*
X130200000Y-119314344D01*
X110470000Y-119314344D01*
X110397561Y-118950166D01*
X110255466Y-118607118D01*
X110049175Y-118298382D01*
X109786618Y-118035825D01*
X109477882Y-117829534D01*
X109134834Y-117687439D01*
X108770656Y-117615000D01*
X108399344Y-117615000D01*
X108035166Y-117687439D01*
X107692118Y-117829534D01*
X107383382Y-118035825D01*
X107120825Y-118298382D01*
X106914534Y-118607118D01*
X106772439Y-118950166D01*
X106700000Y-119314344D01*
X73260501Y-119314344D01*
X73336632Y-119263475D01*
X73543475Y-119056632D01*
X73705990Y-118813411D01*
X73817932Y-118543158D01*
X73875000Y-118256260D01*
X73875000Y-117963740D01*
X73817932Y-117676842D01*
X73705990Y-117406589D01*
X73543475Y-117163368D01*
X73336632Y-116956525D01*
X73162240Y-116840000D01*
X73336632Y-116723475D01*
X73543475Y-116516632D01*
X73705990Y-116273411D01*
X73817932Y-116003158D01*
X73875000Y-115716260D01*
X73875000Y-115423740D01*
X73817932Y-115136842D01*
X73705990Y-114866589D01*
X73543475Y-114623368D01*
X73336632Y-114416525D01*
X73162240Y-114300000D01*
X73336632Y-114183475D01*
X73543475Y-113976632D01*
X73705990Y-113733411D01*
X73817932Y-113463158D01*
X73875000Y-113176260D01*
X73875000Y-112883740D01*
X73817932Y-112596842D01*
X73705990Y-112326589D01*
X73543475Y-112083368D01*
X73336632Y-111876525D01*
X73162240Y-111760000D01*
X73336632Y-111643475D01*
X73543475Y-111436632D01*
X73705990Y-111193411D01*
X73817932Y-110923158D01*
X73875000Y-110636260D01*
X73875000Y-110343740D01*
X73817932Y-110056842D01*
X73705990Y-109786589D01*
X73543475Y-109543368D01*
X73336632Y-109336525D01*
X73162240Y-109220000D01*
X73336632Y-109103475D01*
X73543475Y-108896632D01*
X73705990Y-108653411D01*
X73817932Y-108383158D01*
X73875000Y-108096260D01*
X73875000Y-107803740D01*
X73817932Y-107516842D01*
X73705990Y-107246589D01*
X73543475Y-107003368D01*
X73336632Y-106796525D01*
X73162240Y-106680000D01*
X73336632Y-106563475D01*
X73543475Y-106356632D01*
X73683028Y-106147776D01*
X92002013Y-106147776D01*
X92002013Y-107212224D01*
X92177215Y-108262154D01*
X92522841Y-109268927D01*
X93029462Y-110205081D01*
X93683259Y-111045080D01*
X94466399Y-111766011D01*
X95357519Y-112348208D01*
X96332312Y-112775792D01*
X97364188Y-113037099D01*
X98425000Y-113125000D01*
X99485812Y-113037099D01*
X100517688Y-112775792D01*
X101492481Y-112348208D01*
X102383601Y-111766011D01*
X103166741Y-111045080D01*
X103820538Y-110205081D01*
X104327159Y-109268927D01*
X104672785Y-108262154D01*
X104847987Y-107212224D01*
X104847987Y-106147776D01*
X104672785Y-105097846D01*
X104327159Y-104091073D01*
X103820538Y-103154919D01*
X103166741Y-102314920D01*
X102383601Y-101593989D01*
X101492481Y-101011792D01*
X100517688Y-100584208D01*
X99485812Y-100322901D01*
X98425000Y-100235000D01*
X97364188Y-100322901D01*
X96332312Y-100584208D01*
X95357519Y-101011792D01*
X94466399Y-101593989D01*
X93683259Y-102314920D01*
X93029462Y-103154919D01*
X92522841Y-104091073D01*
X92177215Y-105097846D01*
X92002013Y-106147776D01*
X73683028Y-106147776D01*
X73705990Y-106113411D01*
X73817932Y-105843158D01*
X73875000Y-105556260D01*
X73875000Y-105263740D01*
X73817932Y-104976842D01*
X73705990Y-104706589D01*
X73543475Y-104463368D01*
X73336632Y-104256525D01*
X73162240Y-104140000D01*
X73336632Y-104023475D01*
X73543475Y-103816632D01*
X73705990Y-103573411D01*
X73817932Y-103303158D01*
X73875000Y-103016260D01*
X73875000Y-102723740D01*
X73817932Y-102436842D01*
X73705990Y-102166589D01*
X73543475Y-101923368D01*
X73336632Y-101716525D01*
X73162240Y-101600000D01*
X73336632Y-101483475D01*
X73543475Y-101276632D01*
X73705990Y-101033411D01*
X73817932Y-100763158D01*
X73875000Y-100476260D01*
X73875000Y-100183740D01*
X73817932Y-99896842D01*
X73705990Y-99626589D01*
X73543475Y-99383368D01*
X73336632Y-99176525D01*
X73162240Y-99060000D01*
X73336632Y-98943475D01*
X73543475Y-98736632D01*
X73705990Y-98493411D01*
X73817932Y-98223158D01*
X73875000Y-97936260D01*
X73875000Y-97643740D01*
X73817932Y-97356842D01*
X73705990Y-97086589D01*
X73543475Y-96843368D01*
X73411620Y-96711513D01*
X73484180Y-96689502D01*
X73594494Y-96630537D01*
X73691185Y-96551185D01*
X73770537Y-96454494D01*
X73829502Y-96344180D01*
X73865812Y-96224482D01*
X73878072Y-96100000D01*
X73878072Y-94400000D01*
X73865812Y-94275518D01*
X73829502Y-94155820D01*
X73770537Y-94045506D01*
X73691185Y-93948815D01*
X73594494Y-93869463D01*
X73484180Y-93810498D01*
X73364482Y-93774188D01*
X73240000Y-93761928D01*
X71540000Y-93761928D01*
X71415518Y-93774188D01*
X71295820Y-93810498D01*
X71195000Y-93864388D01*
X71195000Y-83233718D01*
X71224886Y-83278446D01*
X71661554Y-83715114D01*
X72175021Y-84058201D01*
X72745554Y-84294524D01*
X73351229Y-84415000D01*
X73968771Y-84415000D01*
X74574446Y-84294524D01*
X75144979Y-84058201D01*
X75658446Y-83715114D01*
X76095114Y-83278446D01*
X76438201Y-82764979D01*
X76674524Y-82194446D01*
X76795000Y-81588771D01*
X76795000Y-80971229D01*
X76674524Y-80365554D01*
X76438201Y-79795021D01*
X76095114Y-79281554D01*
X75658446Y-78844886D01*
X75613718Y-78815000D01*
X165051282Y-78815000D01*
X165006554Y-78844886D01*
G04 #@! TA.AperFunction,Conductor*
D21*
G36*
X165006554Y-78844886D02*
G01*
X164569886Y-79281554D01*
X164226799Y-79795021D01*
X163990476Y-80365554D01*
X163870000Y-80971229D01*
X163870000Y-81588771D01*
X163990476Y-82194446D01*
X164226799Y-82764979D01*
X164569886Y-83278446D01*
X165006554Y-83715114D01*
X165520021Y-84058201D01*
X166090554Y-84294524D01*
X166696229Y-84415000D01*
X167313771Y-84415000D01*
X167919446Y-84294524D01*
X168489979Y-84058201D01*
X169003446Y-83715114D01*
X169440114Y-83278446D01*
X169470001Y-83233717D01*
X169470001Y-93864389D01*
X169369180Y-93810498D01*
X169249482Y-93774188D01*
X169125000Y-93761928D01*
X168560750Y-93765000D01*
X168402000Y-93923750D01*
X168402000Y-95123000D01*
X168422000Y-95123000D01*
X168422000Y-95377000D01*
X168402000Y-95377000D01*
X168402000Y-95397000D01*
X168148000Y-95397000D01*
X168148000Y-95377000D01*
X166948750Y-95377000D01*
X166790000Y-95535750D01*
X166786928Y-96100000D01*
X166799188Y-96224482D01*
X166835498Y-96344180D01*
X166894463Y-96454494D01*
X166973815Y-96551185D01*
X167070506Y-96630537D01*
X167180820Y-96689502D01*
X167253380Y-96711513D01*
X167121525Y-96843368D01*
X166959010Y-97086589D01*
X166847068Y-97356842D01*
X166790000Y-97643740D01*
X166790000Y-97936260D01*
X166847068Y-98223158D01*
X166959010Y-98493411D01*
X167121525Y-98736632D01*
X167328368Y-98943475D01*
X167502760Y-99060000D01*
X167328368Y-99176525D01*
X167121525Y-99383368D01*
X166959010Y-99626589D01*
X166847068Y-99896842D01*
X166790000Y-100183740D01*
X166790000Y-100476260D01*
X166847068Y-100763158D01*
X166959010Y-101033411D01*
X167121525Y-101276632D01*
X167328368Y-101483475D01*
X167502760Y-101600000D01*
X167328368Y-101716525D01*
X167121525Y-101923368D01*
X166959010Y-102166589D01*
X166847068Y-102436842D01*
X166790000Y-102723740D01*
X166790000Y-103016260D01*
X166847068Y-103303158D01*
X166959010Y-103573411D01*
X167121525Y-103816632D01*
X167328368Y-104023475D01*
X167502760Y-104140000D01*
X167328368Y-104256525D01*
X167121525Y-104463368D01*
X166996822Y-104650000D01*
X165248744Y-104650000D01*
X165293586Y-104582889D01*
X165364068Y-104412729D01*
X165400000Y-104232089D01*
X165400000Y-104047911D01*
X165364068Y-103867271D01*
X165293586Y-103697111D01*
X165225000Y-103594465D01*
X165225000Y-94400000D01*
X166786928Y-94400000D01*
X166790000Y-94964250D01*
X166948750Y-95123000D01*
X168148000Y-95123000D01*
X168148000Y-93923750D01*
X167989250Y-93765000D01*
X167425000Y-93761928D01*
X167300518Y-93774188D01*
X167180820Y-93810498D01*
X167070506Y-93869463D01*
X166973815Y-93948815D01*
X166894463Y-94045506D01*
X166835498Y-94155820D01*
X166799188Y-94275518D01*
X166786928Y-94400000D01*
X165225000Y-94400000D01*
X165225000Y-93382333D01*
X165228677Y-93345000D01*
X165214003Y-93196014D01*
X165170546Y-93052753D01*
X165099974Y-92920724D01*
X165028799Y-92833997D01*
X165005001Y-92804999D01*
X164976002Y-92781200D01*
X164393803Y-92199002D01*
X164370001Y-92169999D01*
X164254276Y-92075026D01*
X164122247Y-92004454D01*
X163978986Y-91960997D01*
X163867333Y-91950000D01*
X163867322Y-91950000D01*
X163830000Y-91946324D01*
X163792678Y-91950000D01*
X122592323Y-91950000D01*
X122555000Y-91946324D01*
X122517677Y-91950000D01*
X122517667Y-91950000D01*
X122406014Y-91960997D01*
X122262753Y-92004454D01*
X122130723Y-92075026D01*
X122047083Y-92143668D01*
X122014999Y-92169999D01*
X121991201Y-92198997D01*
X121094002Y-93096196D01*
X121064999Y-93119999D01*
X121009871Y-93187174D01*
X120970026Y-93235724D01*
X120899455Y-93367753D01*
X120899454Y-93367754D01*
X120855997Y-93511015D01*
X120845000Y-93622668D01*
X120845000Y-93622678D01*
X120841324Y-93660000D01*
X120845000Y-93697323D01*
X120845000Y-93827659D01*
X120714465Y-93914880D01*
X120519880Y-94109465D01*
X120366995Y-94338273D01*
X120335000Y-94415515D01*
X120303005Y-94338273D01*
X120150120Y-94109465D01*
X119955535Y-93914880D01*
X119726727Y-93761995D01*
X119472490Y-93656686D01*
X119202592Y-93603000D01*
X118927408Y-93603000D01*
X118657510Y-93656686D01*
X118403273Y-93761995D01*
X118174465Y-93914880D01*
X117979880Y-94109465D01*
X117921080Y-94197465D01*
X117912812Y-94113518D01*
X117876502Y-93993820D01*
X117817537Y-93883506D01*
X117738185Y-93786815D01*
X117641494Y-93707463D01*
X117531180Y-93648498D01*
X117411482Y-93612188D01*
X117287000Y-93599928D01*
X115763000Y-93599928D01*
X115638518Y-93612188D01*
X115518820Y-93648498D01*
X115408506Y-93707463D01*
X115311815Y-93786815D01*
X115232463Y-93883506D01*
X115173498Y-93993820D01*
X115137188Y-94113518D01*
X115124928Y-94238000D01*
X115124928Y-95762000D01*
X115137188Y-95886482D01*
X115173498Y-96006180D01*
X115232463Y-96116494D01*
X115311815Y-96213185D01*
X115408506Y-96292537D01*
X115518820Y-96351502D01*
X115638518Y-96387812D01*
X115763000Y-96400072D01*
X115765001Y-96400072D01*
X115765000Y-98072677D01*
X115761324Y-98110000D01*
X115765000Y-98147322D01*
X115765000Y-98147332D01*
X115775997Y-98258985D01*
X115802564Y-98346565D01*
X115803606Y-98350000D01*
X107349877Y-98350000D01*
X107315000Y-98346565D01*
X107280123Y-98350000D01*
X107175816Y-98360273D01*
X107041980Y-98400872D01*
X106918637Y-98466800D01*
X106810525Y-98555525D01*
X106721800Y-98663637D01*
X106655872Y-98786980D01*
X106615273Y-98920816D01*
X106601565Y-99060000D01*
X106605001Y-99094887D01*
X106605000Y-114265123D01*
X106601565Y-114300000D01*
X106615273Y-114439184D01*
X106655872Y-114573020D01*
X106721800Y-114696363D01*
X106810525Y-114804475D01*
X106918637Y-114893200D01*
X107041980Y-114959128D01*
X107175816Y-114999727D01*
X107315000Y-115013435D01*
X107349877Y-115010000D01*
X133315123Y-115010000D01*
X133350000Y-115013435D01*
X133384877Y-115010000D01*
X133489184Y-114999727D01*
X133623020Y-114959128D01*
X133746363Y-114893200D01*
X133854475Y-114804475D01*
X133943200Y-114696363D01*
X134009128Y-114573020D01*
X134049727Y-114439184D01*
X134063435Y-114300000D01*
X134060000Y-114265123D01*
X134060000Y-106147776D01*
X135817013Y-106147776D01*
X135817013Y-107212224D01*
X135992215Y-108262154D01*
X136337841Y-109268927D01*
X136844462Y-110205081D01*
X137498259Y-111045080D01*
X138281399Y-111766011D01*
X139172519Y-112348208D01*
X140147312Y-112775792D01*
X141179188Y-113037099D01*
X142240000Y-113125000D01*
X143300812Y-113037099D01*
X144332688Y-112775792D01*
X145307481Y-112348208D01*
X146198601Y-111766011D01*
X146981741Y-111045080D01*
X147635538Y-110205081D01*
X148142159Y-109268927D01*
X148487785Y-108262154D01*
X148662987Y-107212224D01*
X148662987Y-106147776D01*
X148487785Y-105097846D01*
X148142159Y-104091073D01*
X147635538Y-103154919D01*
X146981741Y-102314920D01*
X146198601Y-101593989D01*
X145307481Y-101011792D01*
X144332688Y-100584208D01*
X143300812Y-100322901D01*
X142240000Y-100235000D01*
X141179188Y-100322901D01*
X140147312Y-100584208D01*
X139172519Y-101011792D01*
X138281399Y-101593989D01*
X137498259Y-102314920D01*
X136844462Y-103154919D01*
X136337841Y-104091073D01*
X135992215Y-105097846D01*
X135817013Y-106147776D01*
X134060000Y-106147776D01*
X134060000Y-99185000D01*
X155895199Y-99185000D01*
X156281200Y-99571002D01*
X156304999Y-99600001D01*
X156333997Y-99623799D01*
X156420724Y-99694974D01*
X156552753Y-99765546D01*
X156696014Y-99809003D01*
X156845000Y-99823677D01*
X156882333Y-99820000D01*
X158077678Y-99820000D01*
X158115000Y-99823676D01*
X158152322Y-99820000D01*
X158152333Y-99820000D01*
X158263986Y-99809003D01*
X158407247Y-99765546D01*
X158539276Y-99694974D01*
X158655001Y-99600001D01*
X158678803Y-99570998D01*
X159261003Y-98988799D01*
X159290001Y-98965001D01*
X159384974Y-98849276D01*
X159431659Y-98761936D01*
X159482376Y-98795824D01*
X159688933Y-98881383D01*
X159908212Y-98925000D01*
X160131788Y-98925000D01*
X160351067Y-98881383D01*
X160557624Y-98795824D01*
X160743520Y-98671612D01*
X160865132Y-98550000D01*
X162245199Y-98550000D01*
X162435000Y-98739802D01*
X162435001Y-108547668D01*
X162431324Y-108585000D01*
X162435001Y-108622333D01*
X162442553Y-108699003D01*
X162445998Y-108733985D01*
X162489454Y-108877246D01*
X162560026Y-109009276D01*
X162627361Y-109091323D01*
X162655000Y-109125001D01*
X162683998Y-109148799D01*
X163266200Y-109731002D01*
X163289999Y-109760001D01*
X163405724Y-109854974D01*
X163537753Y-109925546D01*
X163681014Y-109969003D01*
X163830000Y-109983677D01*
X163867333Y-109980000D01*
X166880986Y-109980000D01*
X166878175Y-109985901D01*
X166833524Y-110133110D01*
X166954845Y-110363000D01*
X168148000Y-110363000D01*
X168148000Y-110343000D01*
X168402000Y-110343000D01*
X168402000Y-110363000D01*
X168422000Y-110363000D01*
X168422000Y-110617000D01*
X168402000Y-110617000D01*
X168402000Y-110637000D01*
X168148000Y-110637000D01*
X168148000Y-110617000D01*
X166954845Y-110617000D01*
X166833524Y-110846890D01*
X166878175Y-110994099D01*
X167003359Y-111256920D01*
X167177412Y-111490269D01*
X167261466Y-111566034D01*
X167180820Y-111590498D01*
X167070506Y-111649463D01*
X166973815Y-111728815D01*
X166894463Y-111825506D01*
X166835498Y-111935820D01*
X166799188Y-112055518D01*
X166786928Y-112180000D01*
X166786928Y-113880000D01*
X166799188Y-114004482D01*
X166835498Y-114124180D01*
X166894463Y-114234494D01*
X166973815Y-114331185D01*
X167070506Y-114410537D01*
X167180820Y-114469502D01*
X167253380Y-114491513D01*
X167121525Y-114623368D01*
X166959010Y-114866589D01*
X166847068Y-115136842D01*
X166790000Y-115423740D01*
X166790000Y-115716260D01*
X166847068Y-116003158D01*
X166959010Y-116273411D01*
X167121525Y-116516632D01*
X167328368Y-116723475D01*
X167502760Y-116840000D01*
X167328368Y-116956525D01*
X167121525Y-117163368D01*
X166959010Y-117406589D01*
X166847068Y-117676842D01*
X166790000Y-117963740D01*
X166790000Y-118256260D01*
X166847068Y-118543158D01*
X166959010Y-118813411D01*
X167121525Y-119056632D01*
X167328368Y-119263475D01*
X167571589Y-119425990D01*
X167841842Y-119537932D01*
X168128740Y-119595000D01*
X168421260Y-119595000D01*
X168708158Y-119537932D01*
X168978411Y-119425990D01*
X169221632Y-119263475D01*
X169428475Y-119056632D01*
X169470000Y-118994485D01*
X169470000Y-137111282D01*
X169440114Y-137066554D01*
X169003446Y-136629886D01*
X168489979Y-136286799D01*
X167919446Y-136050476D01*
X167313771Y-135930000D01*
X166696229Y-135930000D01*
X166090554Y-136050476D01*
X165520021Y-136286799D01*
X165006554Y-136629886D01*
X164569886Y-137066554D01*
X164226799Y-137580021D01*
X163990476Y-138150554D01*
X163870000Y-138756229D01*
X163870000Y-139373771D01*
X163990476Y-139979446D01*
X164226799Y-140549979D01*
X164569886Y-141063446D01*
X165006554Y-141500114D01*
X165051282Y-141530000D01*
X154292515Y-141530000D01*
X151254534Y-126340093D01*
X151247333Y-126316399D01*
X151235597Y-126294443D01*
X151219803Y-126275197D01*
X151200557Y-126259403D01*
X151178601Y-126247667D01*
X151154776Y-126240440D01*
X151130000Y-126238000D01*
X88900000Y-126238000D01*
X88870547Y-126241462D01*
X88847012Y-126249582D01*
X88825513Y-126262137D01*
X88806877Y-126278645D01*
X88791819Y-126298472D01*
X88780919Y-126320855D01*
X88774595Y-126344935D01*
X86344985Y-141530000D01*
X75613718Y-141530000D01*
X75658446Y-141500114D01*
X76095114Y-141063446D01*
X76438201Y-140549979D01*
X76674524Y-139979446D01*
X76795000Y-139373771D01*
X76795000Y-138756229D01*
X76674524Y-138150554D01*
X76438201Y-137580021D01*
X76095114Y-137066554D01*
X75658446Y-136629886D01*
X75144979Y-136286799D01*
X74574446Y-136050476D01*
X73968771Y-135930000D01*
X73351229Y-135930000D01*
X72745554Y-136050476D01*
X72175021Y-136286799D01*
X71661554Y-136629886D01*
X71224886Y-137066554D01*
X71195000Y-137111282D01*
X71195000Y-118994485D01*
X71236525Y-119056632D01*
X71443368Y-119263475D01*
X71686589Y-119425990D01*
X71956842Y-119537932D01*
X72243740Y-119595000D01*
X72536260Y-119595000D01*
X72823158Y-119537932D01*
X73093411Y-119425990D01*
X73260501Y-119314344D01*
X106700000Y-119314344D01*
X106700000Y-119685656D01*
X106772439Y-120049834D01*
X106914534Y-120392882D01*
X107120825Y-120701618D01*
X107383382Y-120964175D01*
X107692118Y-121170466D01*
X108035166Y-121312561D01*
X108399344Y-121385000D01*
X108770656Y-121385000D01*
X109134834Y-121312561D01*
X109477882Y-121170466D01*
X109786618Y-120964175D01*
X110049175Y-120701618D01*
X110255466Y-120392882D01*
X110397561Y-120049834D01*
X110470000Y-119685656D01*
X110470000Y-119314344D01*
X130200000Y-119314344D01*
X130200000Y-119685656D01*
X130272439Y-120049834D01*
X130414534Y-120392882D01*
X130620825Y-120701618D01*
X130883382Y-120964175D01*
X131192118Y-121170466D01*
X131535166Y-121312561D01*
X131899344Y-121385000D01*
X132270656Y-121385000D01*
X132634834Y-121312561D01*
X132977882Y-121170466D01*
X133286618Y-120964175D01*
X133549175Y-120701618D01*
X133755466Y-120392882D01*
X133897561Y-120049834D01*
X133970000Y-119685656D01*
X133970000Y-119314344D01*
X133897561Y-118950166D01*
X133755466Y-118607118D01*
X133549175Y-118298382D01*
X133286618Y-118035825D01*
X132977882Y-117829534D01*
X132634834Y-117687439D01*
X132270656Y-117615000D01*
X131899344Y-117615000D01*
X131535166Y-117687439D01*
X131192118Y-117829534D01*
X130883382Y-118035825D01*
X130620825Y-118298382D01*
X130414534Y-118607118D01*
X130272439Y-118950166D01*
X130200000Y-119314344D01*
X110470000Y-119314344D01*
X110397561Y-118950166D01*
X110255466Y-118607118D01*
X110049175Y-118298382D01*
X109786618Y-118035825D01*
X109477882Y-117829534D01*
X109134834Y-117687439D01*
X108770656Y-117615000D01*
X108399344Y-117615000D01*
X108035166Y-117687439D01*
X107692118Y-117829534D01*
X107383382Y-118035825D01*
X107120825Y-118298382D01*
X106914534Y-118607118D01*
X106772439Y-118950166D01*
X106700000Y-119314344D01*
X73260501Y-119314344D01*
X73336632Y-119263475D01*
X73543475Y-119056632D01*
X73705990Y-118813411D01*
X73817932Y-118543158D01*
X73875000Y-118256260D01*
X73875000Y-117963740D01*
X73817932Y-117676842D01*
X73705990Y-117406589D01*
X73543475Y-117163368D01*
X73336632Y-116956525D01*
X73162240Y-116840000D01*
X73336632Y-116723475D01*
X73543475Y-116516632D01*
X73705990Y-116273411D01*
X73817932Y-116003158D01*
X73875000Y-115716260D01*
X73875000Y-115423740D01*
X73817932Y-115136842D01*
X73705990Y-114866589D01*
X73543475Y-114623368D01*
X73336632Y-114416525D01*
X73162240Y-114300000D01*
X73336632Y-114183475D01*
X73543475Y-113976632D01*
X73705990Y-113733411D01*
X73817932Y-113463158D01*
X73875000Y-113176260D01*
X73875000Y-112883740D01*
X73817932Y-112596842D01*
X73705990Y-112326589D01*
X73543475Y-112083368D01*
X73336632Y-111876525D01*
X73162240Y-111760000D01*
X73336632Y-111643475D01*
X73543475Y-111436632D01*
X73705990Y-111193411D01*
X73817932Y-110923158D01*
X73875000Y-110636260D01*
X73875000Y-110343740D01*
X73817932Y-110056842D01*
X73705990Y-109786589D01*
X73543475Y-109543368D01*
X73336632Y-109336525D01*
X73162240Y-109220000D01*
X73336632Y-109103475D01*
X73543475Y-108896632D01*
X73705990Y-108653411D01*
X73817932Y-108383158D01*
X73875000Y-108096260D01*
X73875000Y-107803740D01*
X73817932Y-107516842D01*
X73705990Y-107246589D01*
X73543475Y-107003368D01*
X73336632Y-106796525D01*
X73162240Y-106680000D01*
X73336632Y-106563475D01*
X73543475Y-106356632D01*
X73683028Y-106147776D01*
X92002013Y-106147776D01*
X92002013Y-107212224D01*
X92177215Y-108262154D01*
X92522841Y-109268927D01*
X93029462Y-110205081D01*
X93683259Y-111045080D01*
X94466399Y-111766011D01*
X95357519Y-112348208D01*
X96332312Y-112775792D01*
X97364188Y-113037099D01*
X98425000Y-113125000D01*
X99485812Y-113037099D01*
X100517688Y-112775792D01*
X101492481Y-112348208D01*
X102383601Y-111766011D01*
X103166741Y-111045080D01*
X103820538Y-110205081D01*
X104327159Y-109268927D01*
X104672785Y-108262154D01*
X104847987Y-107212224D01*
X104847987Y-106147776D01*
X104672785Y-105097846D01*
X104327159Y-104091073D01*
X103820538Y-103154919D01*
X103166741Y-102314920D01*
X102383601Y-101593989D01*
X101492481Y-101011792D01*
X100517688Y-100584208D01*
X99485812Y-100322901D01*
X98425000Y-100235000D01*
X97364188Y-100322901D01*
X96332312Y-100584208D01*
X95357519Y-101011792D01*
X94466399Y-101593989D01*
X93683259Y-102314920D01*
X93029462Y-103154919D01*
X92522841Y-104091073D01*
X92177215Y-105097846D01*
X92002013Y-106147776D01*
X73683028Y-106147776D01*
X73705990Y-106113411D01*
X73817932Y-105843158D01*
X73875000Y-105556260D01*
X73875000Y-105263740D01*
X73817932Y-104976842D01*
X73705990Y-104706589D01*
X73543475Y-104463368D01*
X73336632Y-104256525D01*
X73162240Y-104140000D01*
X73336632Y-104023475D01*
X73543475Y-103816632D01*
X73705990Y-103573411D01*
X73817932Y-103303158D01*
X73875000Y-103016260D01*
X73875000Y-102723740D01*
X73817932Y-102436842D01*
X73705990Y-102166589D01*
X73543475Y-101923368D01*
X73336632Y-101716525D01*
X73162240Y-101600000D01*
X73336632Y-101483475D01*
X73543475Y-101276632D01*
X73705990Y-101033411D01*
X73817932Y-100763158D01*
X73875000Y-100476260D01*
X73875000Y-100183740D01*
X73817932Y-99896842D01*
X73705990Y-99626589D01*
X73543475Y-99383368D01*
X73336632Y-99176525D01*
X73162240Y-99060000D01*
X73336632Y-98943475D01*
X73543475Y-98736632D01*
X73705990Y-98493411D01*
X73817932Y-98223158D01*
X73875000Y-97936260D01*
X73875000Y-97643740D01*
X73817932Y-97356842D01*
X73705990Y-97086589D01*
X73543475Y-96843368D01*
X73411620Y-96711513D01*
X73484180Y-96689502D01*
X73594494Y-96630537D01*
X73691185Y-96551185D01*
X73770537Y-96454494D01*
X73829502Y-96344180D01*
X73865812Y-96224482D01*
X73878072Y-96100000D01*
X73878072Y-94400000D01*
X73865812Y-94275518D01*
X73829502Y-94155820D01*
X73770537Y-94045506D01*
X73691185Y-93948815D01*
X73594494Y-93869463D01*
X73484180Y-93810498D01*
X73364482Y-93774188D01*
X73240000Y-93761928D01*
X71540000Y-93761928D01*
X71415518Y-93774188D01*
X71295820Y-93810498D01*
X71195000Y-93864388D01*
X71195000Y-83233718D01*
X71224886Y-83278446D01*
X71661554Y-83715114D01*
X72175021Y-84058201D01*
X72745554Y-84294524D01*
X73351229Y-84415000D01*
X73968771Y-84415000D01*
X74574446Y-84294524D01*
X75144979Y-84058201D01*
X75658446Y-83715114D01*
X76095114Y-83278446D01*
X76438201Y-82764979D01*
X76674524Y-82194446D01*
X76795000Y-81588771D01*
X76795000Y-80971229D01*
X76674524Y-80365554D01*
X76438201Y-79795021D01*
X76095114Y-79281554D01*
X75658446Y-78844886D01*
X75613718Y-78815000D01*
X165051282Y-78815000D01*
X165006554Y-78844886D01*
G37*
G04 #@! TD.AperFunction*
D20*
X156980000Y-96388072D02*
X157543271Y-96388072D01*
X157809570Y-96654372D01*
X157765750Y-96655000D01*
X157607000Y-96813750D01*
X157607000Y-97663000D01*
X157618026Y-97663000D01*
X157615000Y-97678212D01*
X157615000Y-97901788D01*
X157618026Y-97917000D01*
X157607000Y-97917000D01*
X157607000Y-97937000D01*
X157353000Y-97937000D01*
X157353000Y-97917000D01*
X157333000Y-97917000D01*
X157333000Y-97663000D01*
X157353000Y-97663000D01*
X157353000Y-96813750D01*
X157194250Y-96655000D01*
X156980000Y-96651928D01*
X156970000Y-96652913D01*
X156970000Y-96387087D01*
X156980000Y-96388072D01*
G04 #@! TA.AperFunction,Conductor*
D21*
G36*
X156980000Y-96388072D02*
G01*
X157543271Y-96388072D01*
X157809570Y-96654372D01*
X157765750Y-96655000D01*
X157607000Y-96813750D01*
X157607000Y-97663000D01*
X157618026Y-97663000D01*
X157615000Y-97678212D01*
X157615000Y-97901788D01*
X157618026Y-97917000D01*
X157607000Y-97917000D01*
X157607000Y-97937000D01*
X157353000Y-97937000D01*
X157353000Y-97917000D01*
X157333000Y-97917000D01*
X157333000Y-97663000D01*
X157353000Y-97663000D01*
X157353000Y-96813750D01*
X157194250Y-96655000D01*
X156980000Y-96651928D01*
X156970000Y-96652913D01*
X156970000Y-96387087D01*
X156980000Y-96388072D01*
G37*
G04 #@! TD.AperFunction*
D20*
X163070001Y-94294803D02*
X163070001Y-97225378D01*
X162984276Y-97155026D01*
X162852247Y-97084454D01*
X162708986Y-97040997D01*
X162597333Y-97030000D01*
X162597322Y-97030000D01*
X162560000Y-97026324D01*
X162522678Y-97030000D01*
X160865132Y-97030000D01*
X160743520Y-96908388D01*
X160557624Y-96784176D01*
X160351067Y-96698617D01*
X160131788Y-96655000D01*
X159959802Y-96655000D01*
X159607562Y-96302761D01*
X159663136Y-96327446D01*
X159718126Y-96344119D01*
X159893000Y-96217954D01*
X159893000Y-95377000D01*
X160147000Y-95377000D01*
X160147000Y-96217954D01*
X160321874Y-96344119D01*
X160376864Y-96327446D01*
X160580206Y-96237123D01*
X160762020Y-96108865D01*
X160915318Y-95947601D01*
X161034210Y-95759529D01*
X161114126Y-95551876D01*
X160989129Y-95377000D01*
X160147000Y-95377000D01*
X159893000Y-95377000D01*
X159881974Y-95377000D01*
X159885000Y-95361788D01*
X159885000Y-95138212D01*
X159881974Y-95123000D01*
X159893000Y-95123000D01*
X159893000Y-94282046D01*
X160147000Y-94282046D01*
X160147000Y-95123000D01*
X160989129Y-95123000D01*
X161114126Y-94948124D01*
X161034210Y-94740471D01*
X160915318Y-94552399D01*
X160762020Y-94391135D01*
X160580206Y-94262877D01*
X160376864Y-94172554D01*
X160321874Y-94155881D01*
X160147000Y-94282046D01*
X159893000Y-94282046D01*
X159718126Y-94155881D01*
X159663136Y-94172554D01*
X159459794Y-94262877D01*
X159433468Y-94281448D01*
X159384974Y-94190724D01*
X159370062Y-94172554D01*
X159314622Y-94105000D01*
X162880199Y-94105000D01*
X163070001Y-94294803D01*
G04 #@! TA.AperFunction,Conductor*
D21*
G36*
X163070001Y-94294803D02*
G01*
X163070001Y-97225378D01*
X162984276Y-97155026D01*
X162852247Y-97084454D01*
X162708986Y-97040997D01*
X162597333Y-97030000D01*
X162597322Y-97030000D01*
X162560000Y-97026324D01*
X162522678Y-97030000D01*
X160865132Y-97030000D01*
X160743520Y-96908388D01*
X160557624Y-96784176D01*
X160351067Y-96698617D01*
X160131788Y-96655000D01*
X159959802Y-96655000D01*
X159607562Y-96302761D01*
X159663136Y-96327446D01*
X159718126Y-96344119D01*
X159893000Y-96217954D01*
X159893000Y-95377000D01*
X160147000Y-95377000D01*
X160147000Y-96217954D01*
X160321874Y-96344119D01*
X160376864Y-96327446D01*
X160580206Y-96237123D01*
X160762020Y-96108865D01*
X160915318Y-95947601D01*
X161034210Y-95759529D01*
X161114126Y-95551876D01*
X160989129Y-95377000D01*
X160147000Y-95377000D01*
X159893000Y-95377000D01*
X159881974Y-95377000D01*
X159885000Y-95361788D01*
X159885000Y-95138212D01*
X159881974Y-95123000D01*
X159893000Y-95123000D01*
X159893000Y-94282046D01*
X160147000Y-94282046D01*
X160147000Y-95123000D01*
X160989129Y-95123000D01*
X161114126Y-94948124D01*
X161034210Y-94740471D01*
X160915318Y-94552399D01*
X160762020Y-94391135D01*
X160580206Y-94262877D01*
X160376864Y-94172554D01*
X160321874Y-94155881D01*
X160147000Y-94282046D01*
X159893000Y-94282046D01*
X159718126Y-94155881D01*
X159663136Y-94172554D01*
X159459794Y-94262877D01*
X159433468Y-94281448D01*
X159384974Y-94190724D01*
X159370062Y-94172554D01*
X159314622Y-94105000D01*
X162880199Y-94105000D01*
X163070001Y-94294803D01*
G37*
G04 #@! TD.AperFunction*
M02*
