G04 #@! TF.FileFunction,Paste,Top*
%FSLAX46Y46*%
G04 Gerber Fmt 4.6, Leading zero omitted, Abs format (unit mm)*
G04 Created by KiCad (PCBNEW 4.0.7) date 02/09/20 20:32:47*
%MOMM*%
%LPD*%
G01*
G04 APERTURE LIST*
%ADD10C,0.100000*%
%ADD11R,1.500000X1.300000*%
G04 APERTURE END LIST*
D10*
D11*
X140890000Y-116205000D03*
X143590000Y-116205000D03*
X132635000Y-116205000D03*
X135335000Y-116205000D03*
X123745000Y-116205000D03*
X126445000Y-116205000D03*
X114855000Y-116205000D03*
X117555000Y-116205000D03*
X105330000Y-116205000D03*
X108030000Y-116205000D03*
X97075000Y-116205000D03*
X99775000Y-116205000D03*
D10*
G36*
X88957217Y-111204119D02*
X89953075Y-110368495D01*
X90917257Y-111517561D01*
X89921399Y-112353185D01*
X88957217Y-111204119D01*
X88957217Y-111204119D01*
G37*
G36*
X90692743Y-113272439D02*
X91688601Y-112436815D01*
X92652783Y-113585881D01*
X91656925Y-114421505D01*
X90692743Y-113272439D01*
X90692743Y-113272439D01*
G37*
G36*
X91656925Y-98938495D02*
X92652783Y-99774119D01*
X91688601Y-100923185D01*
X90692743Y-100087561D01*
X91656925Y-98938495D01*
X91656925Y-98938495D01*
G37*
G36*
X89921399Y-101006815D02*
X90917257Y-101842439D01*
X89953075Y-102991505D01*
X88957217Y-102155881D01*
X89921399Y-101006815D01*
X89921399Y-101006815D01*
G37*
D11*
X99775000Y-97155000D03*
X97075000Y-97155000D03*
X108030000Y-97155000D03*
X105330000Y-97155000D03*
X117555000Y-97155000D03*
X114855000Y-97155000D03*
X126445000Y-97155000D03*
X123745000Y-97155000D03*
X135335000Y-97155000D03*
X132635000Y-97155000D03*
X143590000Y-97155000D03*
X140890000Y-97155000D03*
D10*
G36*
X151707783Y-102155881D02*
X150711925Y-102991505D01*
X149747743Y-101842439D01*
X150743601Y-101006815D01*
X151707783Y-102155881D01*
X151707783Y-102155881D01*
G37*
G36*
X149972257Y-100087561D02*
X148976399Y-100923185D01*
X148012217Y-99774119D01*
X149008075Y-98938495D01*
X149972257Y-100087561D01*
X149972257Y-100087561D01*
G37*
G36*
X148669119Y-114242783D02*
X147833495Y-113246925D01*
X148982561Y-112282743D01*
X149818185Y-113278601D01*
X148669119Y-114242783D01*
X148669119Y-114242783D01*
G37*
G36*
X150737439Y-112507257D02*
X149901815Y-111511399D01*
X151050881Y-110547217D01*
X151886505Y-111543075D01*
X150737439Y-112507257D01*
X150737439Y-112507257D01*
G37*
M02*
