M48
;DRILL file {KiCad 4.0.7} date 02/09/20 20:32:49
;FORMAT={2:4/ absolute / inch / suppress leading zeros}
FMAT,2
INCH,TZ
T1C0.016
T2C0.030
T3C0.039
T4C0.120
T5C0.094
%
G90
G05
M72
T1
X28500Y-49250
X28500Y-51000
X28750Y-49750
X28750Y-50750
X29750Y-42750
X29750Y-43250
X29750Y-47500
X30000Y-42500
X30000Y-47250
X30500Y-44750
X30500Y-47250
X31000Y-39750
X31000Y-53000
X31250Y-40000
X31250Y-47500
X31250Y-48000
X31250Y-52750
X31750Y-35000
X32250Y-40500
X32500Y-41250
X32500Y-42500
X32750Y-40750
X33000Y-53750
X33250Y-53500
X33500Y-53250
X35000Y-40750
X35000Y-43250
X35000Y-45000
X36500Y-38750
X37500Y-38250
X37500Y-45500
X40000Y-38250
X40000Y-46000
X40750Y-38000
X40750Y-45750
X43250Y-38250
X43500Y-46000
X44500Y-38000
X44500Y-45750
X47000Y-38250
X47000Y-46000
X48000Y-45750
X48250Y-36250
X49250Y-36000
X49500Y-37500
X50500Y-38250
X50500Y-46000
X51250Y-38000
X51500Y-45750
X54000Y-38250
X54000Y-46000
X54750Y-38000
X54750Y-45750
X57250Y-38500
X57250Y-46000
X58250Y-38750
X58250Y-45250
X59750Y-40750
X59750Y-43250
X59750Y-53500
X60000Y-53750
X64250Y-36750
X64500Y-36500
X64750Y-36250
X64750Y-49250
X65000Y-36000
X65250Y-35750
X65250Y-39000
X65250Y-40250
T2
X45876Y-37000
X46876Y-37000
X47876Y-37000
X48876Y-37000
T3
X66250Y-37500
X66250Y-38500
X66250Y-39500
X66250Y-40500
X66250Y-41500
X66250Y-42500
X66250Y-43500
X66250Y-44500
X66250Y-45500
X66250Y-46500
T4
X29000Y-32000
X29000Y-54750
X65750Y-32000
X65750Y-54750
T5
X42750Y-37276
X42750Y-46646
X52002Y-37276
X52002Y-46646
T0
M30
