G04 #@! TF.GenerationSoftware,KiCad,Pcbnew,(5.1.5)-3*
G04 #@! TF.CreationDate,2020-06-03T22:57:54+02:00*
G04 #@! TF.ProjectId,8bitWave Faceplate,38626974-5761-4766-9520-46616365706c,rev?*
G04 #@! TF.SameCoordinates,Original*
G04 #@! TF.FileFunction,Soldermask,Top*
G04 #@! TF.FilePolarity,Negative*
%FSLAX46Y46*%
G04 Gerber Fmt 4.6, Leading zero omitted, Abs format (unit mm)*
G04 Created by KiCad (PCBNEW (5.1.5)-3) date 2020-06-03 22:57:54*
%MOMM*%
%LPD*%
G04 APERTURE LIST*
%ADD10O,2.100000X2.100000*%
%ADD11R,2.100000X2.100000*%
%ADD12C,2.900000*%
%ADD13R,1.924000X1.924000*%
%ADD14C,1.924000*%
%ADD15C,5.400000*%
%ADD16R,1.900000X1.700000*%
%ADD17C,0.100000*%
G04 APERTURE END LIST*
D10*
X72390000Y-118110000D03*
X72390000Y-115570000D03*
X72390000Y-113030000D03*
X72390000Y-110490000D03*
X72390000Y-107950000D03*
X72390000Y-105410000D03*
X72390000Y-102870000D03*
X72390000Y-100330000D03*
X72390000Y-97790000D03*
D11*
X72390000Y-95250000D03*
D12*
X132085000Y-119500000D03*
X108585000Y-119500000D03*
D13*
X116525000Y-95000000D03*
D14*
X119065000Y-95000000D03*
X121605000Y-95000000D03*
X124145000Y-95000000D03*
D11*
X168275000Y-95250000D03*
D10*
X168275000Y-97790000D03*
X168275000Y-100330000D03*
X168275000Y-102870000D03*
X168275000Y-105410000D03*
X168275000Y-107950000D03*
X168275000Y-110490000D03*
D15*
X73660000Y-139065000D03*
X167005000Y-139065000D03*
X167005000Y-81280000D03*
X73660000Y-81280000D03*
D11*
X168275000Y-113030000D03*
D10*
X168275000Y-115570000D03*
X168275000Y-118110000D03*
D16*
X140890000Y-116205000D03*
X143590000Y-116205000D03*
X132635000Y-116205000D03*
X135335000Y-116205000D03*
X123745000Y-116205000D03*
X126445000Y-116205000D03*
X114855000Y-116205000D03*
X117555000Y-116205000D03*
X105330000Y-116205000D03*
X108030000Y-116205000D03*
X97075000Y-116205000D03*
X99775000Y-116205000D03*
D17*
G36*
X88675451Y-111179467D02*
G01*
X89977727Y-110086728D01*
X91199023Y-111542213D01*
X89896747Y-112634952D01*
X88675451Y-111179467D01*
G37*
G36*
X90410977Y-113247787D02*
G01*
X91713253Y-112155048D01*
X92934549Y-113610533D01*
X91632273Y-114703272D01*
X90410977Y-113247787D01*
G37*
G36*
X91632273Y-98656728D02*
G01*
X92934549Y-99749467D01*
X91713253Y-101204952D01*
X90410977Y-100112213D01*
X91632273Y-98656728D01*
G37*
G36*
X89896747Y-100725048D02*
G01*
X91199023Y-101817787D01*
X89977727Y-103273272D01*
X88675451Y-102180533D01*
X89896747Y-100725048D01*
G37*
D16*
X99775000Y-97155000D03*
X97075000Y-97155000D03*
X108030000Y-97155000D03*
X105330000Y-97155000D03*
X117555000Y-97155000D03*
X114855000Y-97155000D03*
X126445000Y-97155000D03*
X123745000Y-97155000D03*
X135335000Y-97155000D03*
X132635000Y-97155000D03*
X143590000Y-97155000D03*
X140890000Y-97155000D03*
D17*
G36*
X151989549Y-102180533D02*
G01*
X150687273Y-103273272D01*
X149465977Y-101817787D01*
X150768253Y-100725048D01*
X151989549Y-102180533D01*
G37*
G36*
X150254023Y-100112213D02*
G01*
X148951747Y-101204952D01*
X147730451Y-99749467D01*
X149032727Y-98656728D01*
X150254023Y-100112213D01*
G37*
G36*
X148644467Y-114524549D02*
G01*
X147551728Y-113222273D01*
X149007213Y-112000977D01*
X150099952Y-113303253D01*
X148644467Y-114524549D01*
G37*
G36*
X150712787Y-112789023D02*
G01*
X149620048Y-111486747D01*
X151075533Y-110265451D01*
X152168272Y-111567727D01*
X150712787Y-112789023D01*
G37*
M02*
