G04 #@! TF.FileFunction,Legend,Top*
%FSLAX46Y46*%
G04 Gerber Fmt 4.6, Leading zero omitted, Abs format (unit mm)*
G04 Created by KiCad (PCBNEW 4.0.7) date 02/09/20 01:32:40*
%MOMM*%
%LPD*%
G01*
G04 APERTURE LIST*
%ADD10C,0.100000*%
%ADD11C,2.000000*%
%ADD12C,0.400000*%
%ADD13C,0.600000*%
%ADD14C,0.200000*%
%ADD15C,0.500000*%
%ADD16C,0.150000*%
%ADD17C,0.300000*%
%ADD18C,0.120000*%
%ADD19C,0.010000*%
G04 APERTURE END LIST*
D10*
D11*
X98425000Y-116205000D02*
X142240000Y-116205000D01*
X88900000Y-106680000D02*
G75*
G03X98425000Y-116205000I9525000J0D01*
G01*
X98425000Y-97155000D02*
G75*
G03X88900000Y-106680000I0J-9525000D01*
G01*
D10*
X99695000Y-93980000D02*
X140970000Y-93980000D01*
X140970000Y-93980000D02*
X140970000Y-91440000D01*
X99695000Y-91440000D02*
X99695000Y-93980000D01*
D12*
X76200000Y-124460000D02*
X164465000Y-124460000D01*
D13*
X142240000Y-99060000D02*
X98425000Y-99060000D01*
X98425000Y-114300000D02*
X142240000Y-114300000D01*
D14*
X142240000Y-114935000D02*
X98425000Y-114935000D01*
X98425000Y-98425000D02*
X142240000Y-98425000D01*
D13*
X90805000Y-106680000D02*
G75*
G03X98425000Y-114300000I7620000J0D01*
G01*
D14*
X150495000Y-106680000D02*
G75*
G03X142240000Y-98425000I-8255000J0D01*
G01*
X142240000Y-114935000D02*
G75*
G03X150495000Y-106680000I0J8255000D01*
G01*
X90170000Y-106680000D02*
G75*
G03X98425000Y-114935000I8255000J0D01*
G01*
X98425000Y-98425000D02*
G75*
G03X90170000Y-106680000I0J-8255000D01*
G01*
D15*
X154960239Y-108108571D02*
X154841191Y-108299048D01*
X154484048Y-108489524D01*
X154245953Y-108489524D01*
X153888810Y-108299048D01*
X153650715Y-107918095D01*
X153531667Y-107537143D01*
X153412619Y-106775238D01*
X153412619Y-106203810D01*
X153531667Y-105441905D01*
X153650715Y-105060952D01*
X153888810Y-104680000D01*
X154245953Y-104489524D01*
X154484048Y-104489524D01*
X154841191Y-104680000D01*
X154960239Y-104870476D01*
X156031667Y-106965714D02*
X157936429Y-106965714D01*
X160436429Y-108489524D02*
X159007857Y-108489524D01*
X159722143Y-108489524D02*
X159722143Y-104489524D01*
X159484048Y-105060952D01*
X159245953Y-105441905D01*
X159007857Y-105632381D01*
X161388809Y-104870476D02*
X161507857Y-104680000D01*
X161745952Y-104489524D01*
X162341190Y-104489524D01*
X162579286Y-104680000D01*
X162698333Y-104870476D01*
X162817381Y-105251429D01*
X162817381Y-105632381D01*
X162698333Y-106203810D01*
X161269762Y-108489524D01*
X162817381Y-108489524D01*
D16*
X80232619Y-108759524D02*
X80518334Y-108854762D01*
X80994524Y-108854762D01*
X81185000Y-108759524D01*
X81280238Y-108664286D01*
X81375477Y-108473810D01*
X81375477Y-108283333D01*
X81280238Y-108092857D01*
X81185000Y-107997619D01*
X80994524Y-107902381D01*
X80613572Y-107807143D01*
X80423096Y-107711905D01*
X80327857Y-107616667D01*
X80232619Y-107426190D01*
X80232619Y-107235714D01*
X80327857Y-107045238D01*
X80423096Y-106950000D01*
X80613572Y-106854762D01*
X81089762Y-106854762D01*
X81375477Y-106950000D01*
X82232619Y-108854762D02*
X82232619Y-106854762D01*
X83185000Y-108854762D02*
X83185000Y-106854762D01*
X83661191Y-106854762D01*
X83946905Y-106950000D01*
X84137381Y-107140476D01*
X84232620Y-107330952D01*
X84327858Y-107711905D01*
X84327858Y-107997619D01*
X84232620Y-108378571D01*
X84137381Y-108569048D01*
X83946905Y-108759524D01*
X83661191Y-108854762D01*
X83185000Y-108854762D01*
X85185000Y-107807143D02*
X85851667Y-107807143D01*
X86137381Y-108854762D02*
X85185000Y-108854762D01*
X85185000Y-106854762D01*
X86137381Y-106854762D01*
D17*
X82470715Y-105275000D02*
X83899286Y-105275000D01*
X82185000Y-106132143D02*
X83185000Y-103132143D01*
X84185000Y-106132143D01*
D10*
X99695000Y-91440000D02*
X99695000Y-86360000D01*
X140970000Y-86360000D02*
X140970000Y-91440000D01*
X140970000Y-86360000D02*
X99695000Y-86360000D01*
X99695000Y-88900000D02*
X140970000Y-88900000D01*
X99695000Y-91440000D02*
X140970000Y-91440000D01*
X114927738Y-89955714D02*
X114927738Y-90765238D01*
X114880119Y-90860476D01*
X114832500Y-90908095D01*
X114737261Y-90955714D01*
X114594404Y-90955714D01*
X114499166Y-90908095D01*
X114927738Y-90574762D02*
X114832500Y-90622381D01*
X114642023Y-90622381D01*
X114546785Y-90574762D01*
X114499166Y-90527143D01*
X114451547Y-90431905D01*
X114451547Y-90146190D01*
X114499166Y-90050952D01*
X114546785Y-90003333D01*
X114642023Y-89955714D01*
X114832500Y-89955714D01*
X114927738Y-90003333D01*
X115403928Y-90622381D02*
X115403928Y-89955714D01*
X115403928Y-89622381D02*
X115356309Y-89670000D01*
X115403928Y-89717619D01*
X115451547Y-89670000D01*
X115403928Y-89622381D01*
X115403928Y-89717619D01*
X115737261Y-89955714D02*
X116118213Y-89955714D01*
X115880118Y-89622381D02*
X115880118Y-90479524D01*
X115927737Y-90574762D01*
X116022975Y-90622381D01*
X116118213Y-90622381D01*
X116451547Y-90622381D02*
X116451547Y-89622381D01*
X116880119Y-90622381D02*
X116880119Y-90098571D01*
X116832500Y-90003333D01*
X116737262Y-89955714D01*
X116594404Y-89955714D01*
X116499166Y-90003333D01*
X116451547Y-90050952D01*
X117784881Y-89955714D02*
X117784881Y-90622381D01*
X117356309Y-89955714D02*
X117356309Y-90479524D01*
X117403928Y-90574762D01*
X117499166Y-90622381D01*
X117642024Y-90622381D01*
X117737262Y-90574762D01*
X117784881Y-90527143D01*
X118261071Y-90622381D02*
X118261071Y-89622381D01*
X118261071Y-90003333D02*
X118356309Y-89955714D01*
X118546786Y-89955714D01*
X118642024Y-90003333D01*
X118689643Y-90050952D01*
X118737262Y-90146190D01*
X118737262Y-90431905D01*
X118689643Y-90527143D01*
X118642024Y-90574762D01*
X118546786Y-90622381D01*
X118356309Y-90622381D01*
X118261071Y-90574762D01*
X119165833Y-90527143D02*
X119213452Y-90574762D01*
X119165833Y-90622381D01*
X119118214Y-90574762D01*
X119165833Y-90527143D01*
X119165833Y-90622381D01*
X120070595Y-90574762D02*
X119975357Y-90622381D01*
X119784880Y-90622381D01*
X119689642Y-90574762D01*
X119642023Y-90527143D01*
X119594404Y-90431905D01*
X119594404Y-90146190D01*
X119642023Y-90050952D01*
X119689642Y-90003333D01*
X119784880Y-89955714D01*
X119975357Y-89955714D01*
X120070595Y-90003333D01*
X120642023Y-90622381D02*
X120546785Y-90574762D01*
X120499166Y-90527143D01*
X120451547Y-90431905D01*
X120451547Y-90146190D01*
X120499166Y-90050952D01*
X120546785Y-90003333D01*
X120642023Y-89955714D01*
X120784881Y-89955714D01*
X120880119Y-90003333D01*
X120927738Y-90050952D01*
X120975357Y-90146190D01*
X120975357Y-90431905D01*
X120927738Y-90527143D01*
X120880119Y-90574762D01*
X120784881Y-90622381D01*
X120642023Y-90622381D01*
X121403928Y-90622381D02*
X121403928Y-89955714D01*
X121403928Y-90050952D02*
X121451547Y-90003333D01*
X121546785Y-89955714D01*
X121689643Y-89955714D01*
X121784881Y-90003333D01*
X121832500Y-90098571D01*
X121832500Y-90622381D01*
X121832500Y-90098571D02*
X121880119Y-90003333D01*
X121975357Y-89955714D01*
X122118214Y-89955714D01*
X122213452Y-90003333D01*
X122261071Y-90098571D01*
X122261071Y-90622381D01*
X123451547Y-89574762D02*
X122594404Y-90860476D01*
X123642023Y-89955714D02*
X124022975Y-89955714D01*
X123784880Y-89622381D02*
X123784880Y-90479524D01*
X123832499Y-90574762D01*
X123927737Y-90622381D01*
X124022975Y-90622381D01*
X124737262Y-90574762D02*
X124642024Y-90622381D01*
X124451547Y-90622381D01*
X124356309Y-90574762D01*
X124308690Y-90479524D01*
X124308690Y-90098571D01*
X124356309Y-90003333D01*
X124451547Y-89955714D01*
X124642024Y-89955714D01*
X124737262Y-90003333D01*
X124784881Y-90098571D01*
X124784881Y-90193810D01*
X124308690Y-90289048D01*
X125213452Y-90622381D02*
X125213452Y-89622381D01*
X125213452Y-90003333D02*
X125308690Y-89955714D01*
X125499167Y-89955714D01*
X125594405Y-90003333D01*
X125642024Y-90050952D01*
X125689643Y-90146190D01*
X125689643Y-90431905D01*
X125642024Y-90527143D01*
X125594405Y-90574762D01*
X125499167Y-90622381D01*
X125308690Y-90622381D01*
X125213452Y-90574762D01*
X126261071Y-90622381D02*
X126165833Y-90574762D01*
X126118214Y-90479524D01*
X126118214Y-89622381D01*
X116856309Y-87510952D02*
X116761071Y-87463333D01*
X116713452Y-87415714D01*
X116665833Y-87320476D01*
X116665833Y-87272857D01*
X116713452Y-87177619D01*
X116761071Y-87130000D01*
X116856309Y-87082381D01*
X117046786Y-87082381D01*
X117142024Y-87130000D01*
X117189643Y-87177619D01*
X117237262Y-87272857D01*
X117237262Y-87320476D01*
X117189643Y-87415714D01*
X117142024Y-87463333D01*
X117046786Y-87510952D01*
X116856309Y-87510952D01*
X116761071Y-87558571D01*
X116713452Y-87606190D01*
X116665833Y-87701429D01*
X116665833Y-87891905D01*
X116713452Y-87987143D01*
X116761071Y-88034762D01*
X116856309Y-88082381D01*
X117046786Y-88082381D01*
X117142024Y-88034762D01*
X117189643Y-87987143D01*
X117237262Y-87891905D01*
X117237262Y-87701429D01*
X117189643Y-87606190D01*
X117142024Y-87558571D01*
X117046786Y-87510952D01*
X117999167Y-87558571D02*
X118142024Y-87606190D01*
X118189643Y-87653810D01*
X118237262Y-87749048D01*
X118237262Y-87891905D01*
X118189643Y-87987143D01*
X118142024Y-88034762D01*
X118046786Y-88082381D01*
X117665833Y-88082381D01*
X117665833Y-87082381D01*
X117999167Y-87082381D01*
X118094405Y-87130000D01*
X118142024Y-87177619D01*
X118189643Y-87272857D01*
X118189643Y-87368095D01*
X118142024Y-87463333D01*
X118094405Y-87510952D01*
X117999167Y-87558571D01*
X117665833Y-87558571D01*
X118665833Y-88082381D02*
X118665833Y-87082381D01*
X118999166Y-87082381D02*
X119570595Y-87082381D01*
X119284880Y-88082381D02*
X119284880Y-87082381D01*
X120570595Y-87082381D02*
X120808690Y-88082381D01*
X120999167Y-87368095D01*
X121189643Y-88082381D01*
X121427738Y-87082381D01*
X121761071Y-87796667D02*
X122237262Y-87796667D01*
X121665833Y-88082381D02*
X121999166Y-87082381D01*
X122332500Y-88082381D01*
X122522976Y-87082381D02*
X122856309Y-88082381D01*
X123189643Y-87082381D01*
X123522976Y-87558571D02*
X123856310Y-87558571D01*
X123999167Y-88082381D02*
X123522976Y-88082381D01*
X123522976Y-87082381D01*
X123999167Y-87082381D01*
D14*
X153670000Y-142240000D02*
X150495000Y-127000000D01*
X86995000Y-142240000D02*
X89530000Y-127000000D01*
X150495000Y-127000000D02*
X89535000Y-127000000D01*
D13*
X149860000Y-106680000D02*
G75*
G03X142240000Y-99060000I-7620000J0D01*
G01*
X142240000Y-114300000D02*
G75*
G03X149860000Y-106680000I0J7620000D01*
G01*
X98425000Y-99060000D02*
G75*
G03X90805000Y-106680000I0J-7620000D01*
G01*
D12*
X160655000Y-83820000D02*
X80010000Y-83820000D01*
X165100000Y-123825000D02*
X165100000Y-88265000D01*
X164465000Y-124460000D02*
G75*
G03X165100000Y-123825000I0J635000D01*
G01*
X75565000Y-123825000D02*
X75565000Y-88265000D01*
X75565000Y-123825000D02*
G75*
G03X76200000Y-124460000I635000J0D01*
G01*
X160655000Y-83820000D02*
X165100000Y-88265000D01*
X80010000Y-83820000D02*
X75565000Y-88265000D01*
D13*
X88900000Y-126365000D02*
X151130000Y-126365000D01*
X88900000Y-126365000D02*
X86360000Y-142240000D01*
X151130000Y-126365000D02*
X154305000Y-142240000D01*
D14*
X67310000Y-106680000D02*
X175895000Y-106680000D01*
D18*
X75946000Y-139065000D02*
G75*
G03X75946000Y-139065000I-2286000J0D01*
G01*
X169291000Y-139065000D02*
G75*
G03X169291000Y-139065000I-2286000J0D01*
G01*
X169291000Y-81280000D02*
G75*
G03X169291000Y-81280000I-2286000J0D01*
G01*
X75946000Y-81280000D02*
G75*
G03X75946000Y-81280000I-2286000J0D01*
G01*
D19*
G36*
X88918908Y-136706653D02*
X89047678Y-136758817D01*
X89154590Y-136816790D01*
X89228716Y-136859672D01*
X89344528Y-136926514D01*
X89494779Y-137013140D01*
X89672224Y-137115375D01*
X89869614Y-137229044D01*
X90079705Y-137349971D01*
X90262157Y-137454946D01*
X90469420Y-137575216D01*
X90662816Y-137689434D01*
X90836437Y-137793960D01*
X90984377Y-137885154D01*
X91100728Y-137959376D01*
X91179583Y-138012987D01*
X91214657Y-138041852D01*
X91264411Y-138143950D01*
X91258984Y-138248631D01*
X91198849Y-138349050D01*
X91193056Y-138355268D01*
X91150981Y-138387908D01*
X91065861Y-138444512D01*
X90943827Y-138521335D01*
X90791008Y-138614631D01*
X90613534Y-138720653D01*
X90417534Y-138835656D01*
X90226445Y-138945985D01*
X90012735Y-139068491D01*
X89806226Y-139186994D01*
X89614090Y-139297366D01*
X89443501Y-139395484D01*
X89301634Y-139477220D01*
X89195663Y-139538449D01*
X89140337Y-139570605D01*
X88990930Y-139647847D01*
X88872405Y-139684122D01*
X88777288Y-139679877D01*
X88698106Y-139635555D01*
X88662620Y-139599057D01*
X88589556Y-139512225D01*
X88589556Y-136867998D01*
X88662620Y-136781166D01*
X88734188Y-136718393D01*
X88817014Y-136693367D01*
X88918908Y-136706653D01*
X88918908Y-136706653D01*
G37*
X88918908Y-136706653D02*
X89047678Y-136758817D01*
X89154590Y-136816790D01*
X89228716Y-136859672D01*
X89344528Y-136926514D01*
X89494779Y-137013140D01*
X89672224Y-137115375D01*
X89869614Y-137229044D01*
X90079705Y-137349971D01*
X90262157Y-137454946D01*
X90469420Y-137575216D01*
X90662816Y-137689434D01*
X90836437Y-137793960D01*
X90984377Y-137885154D01*
X91100728Y-137959376D01*
X91179583Y-138012987D01*
X91214657Y-138041852D01*
X91264411Y-138143950D01*
X91258984Y-138248631D01*
X91198849Y-138349050D01*
X91193056Y-138355268D01*
X91150981Y-138387908D01*
X91065861Y-138444512D01*
X90943827Y-138521335D01*
X90791008Y-138614631D01*
X90613534Y-138720653D01*
X90417534Y-138835656D01*
X90226445Y-138945985D01*
X90012735Y-139068491D01*
X89806226Y-139186994D01*
X89614090Y-139297366D01*
X89443501Y-139395484D01*
X89301634Y-139477220D01*
X89195663Y-139538449D01*
X89140337Y-139570605D01*
X88990930Y-139647847D01*
X88872405Y-139684122D01*
X88777288Y-139679877D01*
X88698106Y-139635555D01*
X88662620Y-139599057D01*
X88589556Y-139512225D01*
X88589556Y-136867998D01*
X88662620Y-136781166D01*
X88734188Y-136718393D01*
X88817014Y-136693367D01*
X88918908Y-136706653D01*
G36*
X106164162Y-136738047D02*
X106321687Y-136846139D01*
X106437341Y-136991905D01*
X106500182Y-137139135D01*
X106512565Y-137210607D01*
X106522771Y-137329511D01*
X106530807Y-137486879D01*
X106536677Y-137673741D01*
X106540387Y-137881126D01*
X106541943Y-138100066D01*
X106541350Y-138321590D01*
X106538613Y-138536730D01*
X106533738Y-138736515D01*
X106526731Y-138911977D01*
X106517597Y-139054145D01*
X106506341Y-139154050D01*
X106498935Y-139188787D01*
X106422715Y-139360619D01*
X106307007Y-139493723D01*
X106167248Y-139584194D01*
X106019807Y-139657667D01*
X105030515Y-139655439D01*
X104749608Y-139653939D01*
X104504470Y-139650858D01*
X104299102Y-139646314D01*
X104137502Y-139640426D01*
X104023670Y-139633312D01*
X103961605Y-139625091D01*
X103956556Y-139623615D01*
X103803728Y-139541563D01*
X103671881Y-139413254D01*
X103611463Y-139325100D01*
X103533223Y-139192000D01*
X103524794Y-138226449D01*
X103523200Y-137934625D01*
X103523806Y-137683267D01*
X103526547Y-137475638D01*
X103531359Y-137314999D01*
X103538178Y-137204612D01*
X103545877Y-137151299D01*
X103617375Y-136987534D01*
X103731970Y-136846661D01*
X103877411Y-136743303D01*
X103894738Y-136734865D01*
X103934550Y-136716792D01*
X103972475Y-136702230D01*
X104014837Y-136690798D01*
X104067959Y-136682116D01*
X104138164Y-136675802D01*
X104231775Y-136671474D01*
X104355114Y-136668752D01*
X104514504Y-136667254D01*
X104716269Y-136666599D01*
X104966731Y-136666406D01*
X105030515Y-136666387D01*
X106019807Y-136666112D01*
X106164162Y-136738047D01*
X106164162Y-136738047D01*
G37*
X106164162Y-136738047D02*
X106321687Y-136846139D01*
X106437341Y-136991905D01*
X106500182Y-137139135D01*
X106512565Y-137210607D01*
X106522771Y-137329511D01*
X106530807Y-137486879D01*
X106536677Y-137673741D01*
X106540387Y-137881126D01*
X106541943Y-138100066D01*
X106541350Y-138321590D01*
X106538613Y-138536730D01*
X106533738Y-138736515D01*
X106526731Y-138911977D01*
X106517597Y-139054145D01*
X106506341Y-139154050D01*
X106498935Y-139188787D01*
X106422715Y-139360619D01*
X106307007Y-139493723D01*
X106167248Y-139584194D01*
X106019807Y-139657667D01*
X105030515Y-139655439D01*
X104749608Y-139653939D01*
X104504470Y-139650858D01*
X104299102Y-139646314D01*
X104137502Y-139640426D01*
X104023670Y-139633312D01*
X103961605Y-139625091D01*
X103956556Y-139623615D01*
X103803728Y-139541563D01*
X103671881Y-139413254D01*
X103611463Y-139325100D01*
X103533223Y-139192000D01*
X103524794Y-138226449D01*
X103523200Y-137934625D01*
X103523806Y-137683267D01*
X103526547Y-137475638D01*
X103531359Y-137314999D01*
X103538178Y-137204612D01*
X103545877Y-137151299D01*
X103617375Y-136987534D01*
X103731970Y-136846661D01*
X103877411Y-136743303D01*
X103894738Y-136734865D01*
X103934550Y-136716792D01*
X103972475Y-136702230D01*
X104014837Y-136690798D01*
X104067959Y-136682116D01*
X104138164Y-136675802D01*
X104231775Y-136671474D01*
X104355114Y-136668752D01*
X104514504Y-136667254D01*
X104716269Y-136666599D01*
X104966731Y-136666406D01*
X105030515Y-136666387D01*
X106019807Y-136666112D01*
X106164162Y-136738047D01*
G36*
X120887520Y-139013215D02*
X121117922Y-139015236D01*
X121303092Y-139018932D01*
X121439818Y-139024249D01*
X121524890Y-139031134D01*
X121546625Y-139035032D01*
X121633508Y-139074104D01*
X121722720Y-139137424D01*
X121749261Y-139162327D01*
X121810907Y-139236905D01*
X121842536Y-139312954D01*
X121855674Y-139409817D01*
X121844480Y-139563427D01*
X121784852Y-139688704D01*
X121675184Y-139788830D01*
X121659203Y-139798931D01*
X121634616Y-139812588D01*
X121606275Y-139823831D01*
X121568787Y-139832893D01*
X121516758Y-139840010D01*
X121444793Y-139845414D01*
X121347498Y-139849341D01*
X121219481Y-139852024D01*
X121055347Y-139853699D01*
X120849702Y-139854598D01*
X120597153Y-139854957D01*
X120367778Y-139855012D01*
X120075511Y-139854909D01*
X119834295Y-139854446D01*
X119638735Y-139853389D01*
X119483438Y-139851502D01*
X119363009Y-139848551D01*
X119272056Y-139844303D01*
X119205184Y-139838524D01*
X119156998Y-139830978D01*
X119122107Y-139821432D01*
X119095114Y-139809651D01*
X119076354Y-139798931D01*
X118960195Y-139700340D01*
X118894490Y-139576502D01*
X118878705Y-139426375D01*
X118879385Y-139415811D01*
X118911576Y-139266619D01*
X118986819Y-139150585D01*
X119083667Y-139074438D01*
X119108521Y-139061425D01*
X119140165Y-139050693D01*
X119184106Y-139041971D01*
X119245850Y-139034989D01*
X119330905Y-139029475D01*
X119444776Y-139025158D01*
X119592972Y-139021768D01*
X119780998Y-139019034D01*
X120014361Y-139016684D01*
X120298568Y-139014449D01*
X120303857Y-139014410D01*
X120615094Y-139012922D01*
X120887520Y-139013215D01*
X120887520Y-139013215D01*
G37*
X120887520Y-139013215D02*
X121117922Y-139015236D01*
X121303092Y-139018932D01*
X121439818Y-139024249D01*
X121524890Y-139031134D01*
X121546625Y-139035032D01*
X121633508Y-139074104D01*
X121722720Y-139137424D01*
X121749261Y-139162327D01*
X121810907Y-139236905D01*
X121842536Y-139312954D01*
X121855674Y-139409817D01*
X121844480Y-139563427D01*
X121784852Y-139688704D01*
X121675184Y-139788830D01*
X121659203Y-139798931D01*
X121634616Y-139812588D01*
X121606275Y-139823831D01*
X121568787Y-139832893D01*
X121516758Y-139840010D01*
X121444793Y-139845414D01*
X121347498Y-139849341D01*
X121219481Y-139852024D01*
X121055347Y-139853699D01*
X120849702Y-139854598D01*
X120597153Y-139854957D01*
X120367778Y-139855012D01*
X120075511Y-139854909D01*
X119834295Y-139854446D01*
X119638735Y-139853389D01*
X119483438Y-139851502D01*
X119363009Y-139848551D01*
X119272056Y-139844303D01*
X119205184Y-139838524D01*
X119156998Y-139830978D01*
X119122107Y-139821432D01*
X119095114Y-139809651D01*
X119076354Y-139798931D01*
X118960195Y-139700340D01*
X118894490Y-139576502D01*
X118878705Y-139426375D01*
X118879385Y-139415811D01*
X118911576Y-139266619D01*
X118986819Y-139150585D01*
X119083667Y-139074438D01*
X119108521Y-139061425D01*
X119140165Y-139050693D01*
X119184106Y-139041971D01*
X119245850Y-139034989D01*
X119330905Y-139029475D01*
X119444776Y-139025158D01*
X119592972Y-139021768D01*
X119780998Y-139019034D01*
X120014361Y-139016684D01*
X120298568Y-139014449D01*
X120303857Y-139014410D01*
X120615094Y-139012922D01*
X120887520Y-139013215D01*
G36*
X120387987Y-136195069D02*
X120489114Y-136249559D01*
X120505241Y-136263945D01*
X120538163Y-136306157D01*
X120595015Y-136391348D01*
X120672006Y-136513330D01*
X120765341Y-136665913D01*
X120871230Y-136842908D01*
X120985879Y-137038128D01*
X121088920Y-137216445D01*
X121211067Y-137429359D01*
X121329606Y-137635865D01*
X121440286Y-137828569D01*
X121538858Y-138000077D01*
X121621075Y-138142995D01*
X121682685Y-138249931D01*
X121713012Y-138302410D01*
X121789569Y-138448347D01*
X121828495Y-138562449D01*
X121830575Y-138654238D01*
X121796594Y-138733231D01*
X121752838Y-138784949D01*
X121670342Y-138867445D01*
X119017442Y-138867445D01*
X118930610Y-138794381D01*
X118893730Y-138761766D01*
X118865669Y-138729482D01*
X118848179Y-138693112D01*
X118843010Y-138648243D01*
X118851916Y-138590457D01*
X118876647Y-138515342D01*
X118918955Y-138418480D01*
X118980593Y-138295457D01*
X119063311Y-138141858D01*
X119168862Y-137953267D01*
X119298997Y-137725270D01*
X119455468Y-137453451D01*
X119478391Y-137413700D01*
X119611724Y-137183870D01*
X119738752Y-136967500D01*
X119856263Y-136769877D01*
X119961045Y-136596287D01*
X120049886Y-136452016D01*
X120119575Y-136342350D01*
X120166900Y-136272577D01*
X120185521Y-136249834D01*
X120284345Y-136195052D01*
X120387987Y-136195069D01*
X120387987Y-136195069D01*
G37*
X120387987Y-136195069D02*
X120489114Y-136249559D01*
X120505241Y-136263945D01*
X120538163Y-136306157D01*
X120595015Y-136391348D01*
X120672006Y-136513330D01*
X120765341Y-136665913D01*
X120871230Y-136842908D01*
X120985879Y-137038128D01*
X121088920Y-137216445D01*
X121211067Y-137429359D01*
X121329606Y-137635865D01*
X121440286Y-137828569D01*
X121538858Y-138000077D01*
X121621075Y-138142995D01*
X121682685Y-138249931D01*
X121713012Y-138302410D01*
X121789569Y-138448347D01*
X121828495Y-138562449D01*
X121830575Y-138654238D01*
X121796594Y-138733231D01*
X121752838Y-138784949D01*
X121670342Y-138867445D01*
X119017442Y-138867445D01*
X118930610Y-138794381D01*
X118893730Y-138761766D01*
X118865669Y-138729482D01*
X118848179Y-138693112D01*
X118843010Y-138648243D01*
X118851916Y-138590457D01*
X118876647Y-138515342D01*
X118918955Y-138418480D01*
X118980593Y-138295457D01*
X119063311Y-138141858D01*
X119168862Y-137953267D01*
X119298997Y-137725270D01*
X119455468Y-137453451D01*
X119478391Y-137413700D01*
X119611724Y-137183870D01*
X119738752Y-136967500D01*
X119856263Y-136769877D01*
X119961045Y-136596287D01*
X120049886Y-136452016D01*
X120119575Y-136342350D01*
X120166900Y-136272577D01*
X120185521Y-136249834D01*
X120284345Y-136195052D01*
X120387987Y-136195069D01*
G36*
X146691407Y-136652228D02*
X146956698Y-136653216D01*
X147175314Y-136655420D01*
X147352139Y-136659296D01*
X147492057Y-136665301D01*
X147599952Y-136673890D01*
X147680708Y-136685521D01*
X147739209Y-136700649D01*
X147780341Y-136719730D01*
X147808986Y-136743220D01*
X147830028Y-136771577D01*
X147839840Y-136788867D01*
X147856510Y-136824601D01*
X147866123Y-136861916D01*
X147866614Y-136905360D01*
X147855920Y-136959481D01*
X147831979Y-137028825D01*
X147792728Y-137117940D01*
X147736103Y-137231372D01*
X147660041Y-137373670D01*
X147562480Y-137549379D01*
X147441355Y-137763048D01*
X147294605Y-138019224D01*
X147233030Y-138126336D01*
X147100112Y-138356338D01*
X146974075Y-138572360D01*
X146858026Y-138769221D01*
X146755075Y-138941742D01*
X146668329Y-139084743D01*
X146600898Y-139193044D01*
X146555889Y-139261465D01*
X146538459Y-139283723D01*
X146463884Y-139318820D01*
X146364619Y-139331601D01*
X146268565Y-139320238D01*
X146228842Y-139304001D01*
X146194791Y-139268430D01*
X146142558Y-139195855D01*
X146080883Y-139098884D01*
X146048442Y-139043804D01*
X146002766Y-138964366D01*
X145933103Y-138843523D01*
X145843751Y-138688714D01*
X145739008Y-138507380D01*
X145623171Y-138306963D01*
X145500538Y-138094902D01*
X145396878Y-137915739D01*
X145254931Y-137669654D01*
X145139545Y-137466998D01*
X145048505Y-137302645D01*
X144979590Y-137171470D01*
X144930583Y-137068344D01*
X144899266Y-136988143D01*
X144883421Y-136925740D01*
X144880829Y-136876009D01*
X144889273Y-136833823D01*
X144906534Y-136794056D01*
X144909272Y-136788867D01*
X144928256Y-136757726D01*
X144952234Y-136731694D01*
X144986091Y-136710315D01*
X145034711Y-136693134D01*
X145102977Y-136679693D01*
X145195774Y-136669536D01*
X145317987Y-136662208D01*
X145474499Y-136657252D01*
X145670194Y-136654212D01*
X145909957Y-136652632D01*
X146198671Y-136652055D01*
X146374556Y-136652000D01*
X146691407Y-136652228D01*
X146691407Y-136652228D01*
G37*
X146691407Y-136652228D02*
X146956698Y-136653216D01*
X147175314Y-136655420D01*
X147352139Y-136659296D01*
X147492057Y-136665301D01*
X147599952Y-136673890D01*
X147680708Y-136685521D01*
X147739209Y-136700649D01*
X147780341Y-136719730D01*
X147808986Y-136743220D01*
X147830028Y-136771577D01*
X147839840Y-136788867D01*
X147856510Y-136824601D01*
X147866123Y-136861916D01*
X147866614Y-136905360D01*
X147855920Y-136959481D01*
X147831979Y-137028825D01*
X147792728Y-137117940D01*
X147736103Y-137231372D01*
X147660041Y-137373670D01*
X147562480Y-137549379D01*
X147441355Y-137763048D01*
X147294605Y-138019224D01*
X147233030Y-138126336D01*
X147100112Y-138356338D01*
X146974075Y-138572360D01*
X146858026Y-138769221D01*
X146755075Y-138941742D01*
X146668329Y-139084743D01*
X146600898Y-139193044D01*
X146555889Y-139261465D01*
X146538459Y-139283723D01*
X146463884Y-139318820D01*
X146364619Y-139331601D01*
X146268565Y-139320238D01*
X146228842Y-139304001D01*
X146194791Y-139268430D01*
X146142558Y-139195855D01*
X146080883Y-139098884D01*
X146048442Y-139043804D01*
X146002766Y-138964366D01*
X145933103Y-138843523D01*
X145843751Y-138688714D01*
X145739008Y-138507380D01*
X145623171Y-138306963D01*
X145500538Y-138094902D01*
X145396878Y-137915739D01*
X145254931Y-137669654D01*
X145139545Y-137466998D01*
X145048505Y-137302645D01*
X144979590Y-137171470D01*
X144930583Y-137068344D01*
X144899266Y-136988143D01*
X144883421Y-136925740D01*
X144880829Y-136876009D01*
X144889273Y-136833823D01*
X144906534Y-136794056D01*
X144909272Y-136788867D01*
X144928256Y-136757726D01*
X144952234Y-136731694D01*
X144986091Y-136710315D01*
X145034711Y-136693134D01*
X145102977Y-136679693D01*
X145195774Y-136669536D01*
X145317987Y-136662208D01*
X145474499Y-136657252D01*
X145670194Y-136654212D01*
X145909957Y-136652632D01*
X146198671Y-136652055D01*
X146374556Y-136652000D01*
X146691407Y-136652228D01*
D18*
X126865000Y-149010000D02*
X125865000Y-149010000D01*
X125865000Y-150710000D02*
X126865000Y-150710000D01*
X123690000Y-155995000D02*
X122690000Y-155995000D01*
X122690000Y-157695000D02*
X123690000Y-157695000D01*
X141208000Y-116574000D02*
X138008000Y-116574000D01*
X138008000Y-115074000D02*
X141208000Y-115074000D01*
X138008000Y-115074000D02*
X138008000Y-116574000D01*
X114392000Y-152264000D02*
X113192000Y-152264000D01*
X113192000Y-150504000D02*
X114392000Y-150504000D01*
X114900000Y-155312000D02*
X113700000Y-155312000D01*
X113700000Y-153552000D02*
X114900000Y-153552000D01*
X132572000Y-116574000D02*
X129372000Y-116574000D01*
X129372000Y-115074000D02*
X132572000Y-115074000D01*
X129372000Y-115074000D02*
X129372000Y-116574000D01*
X124952000Y-116574000D02*
X121752000Y-116574000D01*
X121752000Y-115074000D02*
X124952000Y-115074000D01*
X121752000Y-115074000D02*
X121752000Y-116574000D01*
X117332000Y-116574000D02*
X114132000Y-116574000D01*
X114132000Y-115074000D02*
X117332000Y-115074000D01*
X114132000Y-115074000D02*
X114132000Y-116574000D01*
X109712000Y-116574000D02*
X106512000Y-116574000D01*
X106512000Y-115074000D02*
X109712000Y-115074000D01*
X106512000Y-115074000D02*
X106512000Y-116574000D01*
X92886777Y-119982437D02*
X90624035Y-117719695D01*
X91684695Y-116659035D02*
X93947437Y-118921777D01*
X91684695Y-116659035D02*
X90624035Y-117719695D01*
X88150000Y-107680000D02*
X88150000Y-104480000D01*
X89650000Y-104480000D02*
X89650000Y-107680000D01*
X89650000Y-104480000D02*
X88150000Y-104480000D01*
X90710563Y-100760777D02*
X92973305Y-98498035D01*
X94033965Y-99558695D02*
X91771223Y-101821437D01*
X94033965Y-99558695D02*
X92973305Y-98498035D01*
X120932500Y-153195001D02*
X119732500Y-153195001D01*
X119732500Y-151435001D02*
X120932500Y-151435001D01*
X120932500Y-153195001D02*
X119732500Y-153195001D01*
X119732500Y-151435001D02*
X120932500Y-151435001D01*
X120932500Y-153195001D02*
X119732500Y-153195001D01*
X119732500Y-151435001D02*
X120932500Y-151435001D01*
X120932500Y-153195001D02*
X119732500Y-153195001D01*
X119732500Y-151435001D02*
X120932500Y-151435001D01*
X120932500Y-153195001D02*
X119732500Y-153195001D01*
X119732500Y-151435001D02*
X120932500Y-151435001D01*
X120932500Y-153195001D02*
X119732500Y-153195001D01*
X119732500Y-151435001D02*
X120932500Y-151435001D01*
D16*
X143510000Y-120904000D02*
X148082000Y-120904000D01*
X134366000Y-123444000D02*
X137414000Y-118364000D01*
X148082000Y-120904000D02*
X149606000Y-118364000D01*
X134366000Y-123444000D02*
X139954000Y-123444000D01*
X149606000Y-118364000D02*
X137414000Y-118364000D01*
X126198334Y-148467143D02*
X126150715Y-148514762D01*
X126007858Y-148562381D01*
X125912620Y-148562381D01*
X125769762Y-148514762D01*
X125674524Y-148419524D01*
X125626905Y-148324286D01*
X125579286Y-148133810D01*
X125579286Y-147990952D01*
X125626905Y-147800476D01*
X125674524Y-147705238D01*
X125769762Y-147610000D01*
X125912620Y-147562381D01*
X126007858Y-147562381D01*
X126150715Y-147610000D01*
X126198334Y-147657619D01*
X127150715Y-148562381D02*
X126579286Y-148562381D01*
X126865000Y-148562381D02*
X126865000Y-147562381D01*
X126769762Y-147705238D01*
X126674524Y-147800476D01*
X126579286Y-147848095D01*
X123023334Y-155452143D02*
X122975715Y-155499762D01*
X122832858Y-155547381D01*
X122737620Y-155547381D01*
X122594762Y-155499762D01*
X122499524Y-155404524D01*
X122451905Y-155309286D01*
X122404286Y-155118810D01*
X122404286Y-154975952D01*
X122451905Y-154785476D01*
X122499524Y-154690238D01*
X122594762Y-154595000D01*
X122737620Y-154547381D01*
X122832858Y-154547381D01*
X122975715Y-154595000D01*
X123023334Y-154642619D01*
X123404286Y-154642619D02*
X123451905Y-154595000D01*
X123547143Y-154547381D01*
X123785239Y-154547381D01*
X123880477Y-154595000D01*
X123928096Y-154642619D01*
X123975715Y-154737857D01*
X123975715Y-154833095D01*
X123928096Y-154975952D01*
X123356667Y-155547381D01*
X123975715Y-155547381D01*
X139469905Y-114576381D02*
X139469905Y-113576381D01*
X139708000Y-113576381D01*
X139850858Y-113624000D01*
X139946096Y-113719238D01*
X139993715Y-113814476D01*
X140041334Y-114004952D01*
X140041334Y-114147810D01*
X139993715Y-114338286D01*
X139946096Y-114433524D01*
X139850858Y-114528762D01*
X139708000Y-114576381D01*
X139469905Y-114576381D01*
X140993715Y-114576381D02*
X140422286Y-114576381D01*
X140708000Y-114576381D02*
X140708000Y-113576381D01*
X140612762Y-113719238D01*
X140517524Y-113814476D01*
X140422286Y-113862095D01*
X113625334Y-150136381D02*
X113292000Y-149660190D01*
X113053905Y-150136381D02*
X113053905Y-149136381D01*
X113434858Y-149136381D01*
X113530096Y-149184000D01*
X113577715Y-149231619D01*
X113625334Y-149326857D01*
X113625334Y-149469714D01*
X113577715Y-149564952D01*
X113530096Y-149612571D01*
X113434858Y-149660190D01*
X113053905Y-149660190D01*
X114577715Y-150136381D02*
X114006286Y-150136381D01*
X114292000Y-150136381D02*
X114292000Y-149136381D01*
X114196762Y-149279238D01*
X114101524Y-149374476D01*
X114006286Y-149422095D01*
X114133334Y-153184381D02*
X113800000Y-152708190D01*
X113561905Y-153184381D02*
X113561905Y-152184381D01*
X113942858Y-152184381D01*
X114038096Y-152232000D01*
X114085715Y-152279619D01*
X114133334Y-152374857D01*
X114133334Y-152517714D01*
X114085715Y-152612952D01*
X114038096Y-152660571D01*
X113942858Y-152708190D01*
X113561905Y-152708190D01*
X114514286Y-152279619D02*
X114561905Y-152232000D01*
X114657143Y-152184381D01*
X114895239Y-152184381D01*
X114990477Y-152232000D01*
X115038096Y-152279619D01*
X115085715Y-152374857D01*
X115085715Y-152470095D01*
X115038096Y-152612952D01*
X114466667Y-153184381D01*
X115085715Y-153184381D01*
X130833905Y-114576381D02*
X130833905Y-113576381D01*
X131072000Y-113576381D01*
X131214858Y-113624000D01*
X131310096Y-113719238D01*
X131357715Y-113814476D01*
X131405334Y-114004952D01*
X131405334Y-114147810D01*
X131357715Y-114338286D01*
X131310096Y-114433524D01*
X131214858Y-114528762D01*
X131072000Y-114576381D01*
X130833905Y-114576381D01*
X131786286Y-113671619D02*
X131833905Y-113624000D01*
X131929143Y-113576381D01*
X132167239Y-113576381D01*
X132262477Y-113624000D01*
X132310096Y-113671619D01*
X132357715Y-113766857D01*
X132357715Y-113862095D01*
X132310096Y-114004952D01*
X131738667Y-114576381D01*
X132357715Y-114576381D01*
X123213905Y-114576381D02*
X123213905Y-113576381D01*
X123452000Y-113576381D01*
X123594858Y-113624000D01*
X123690096Y-113719238D01*
X123737715Y-113814476D01*
X123785334Y-114004952D01*
X123785334Y-114147810D01*
X123737715Y-114338286D01*
X123690096Y-114433524D01*
X123594858Y-114528762D01*
X123452000Y-114576381D01*
X123213905Y-114576381D01*
X124118667Y-113576381D02*
X124737715Y-113576381D01*
X124404381Y-113957333D01*
X124547239Y-113957333D01*
X124642477Y-114004952D01*
X124690096Y-114052571D01*
X124737715Y-114147810D01*
X124737715Y-114385905D01*
X124690096Y-114481143D01*
X124642477Y-114528762D01*
X124547239Y-114576381D01*
X124261524Y-114576381D01*
X124166286Y-114528762D01*
X124118667Y-114481143D01*
X115593905Y-114576381D02*
X115593905Y-113576381D01*
X115832000Y-113576381D01*
X115974858Y-113624000D01*
X116070096Y-113719238D01*
X116117715Y-113814476D01*
X116165334Y-114004952D01*
X116165334Y-114147810D01*
X116117715Y-114338286D01*
X116070096Y-114433524D01*
X115974858Y-114528762D01*
X115832000Y-114576381D01*
X115593905Y-114576381D01*
X117022477Y-113909714D02*
X117022477Y-114576381D01*
X116784381Y-113528762D02*
X116546286Y-114243048D01*
X117165334Y-114243048D01*
X107973905Y-114576381D02*
X107973905Y-113576381D01*
X108212000Y-113576381D01*
X108354858Y-113624000D01*
X108450096Y-113719238D01*
X108497715Y-113814476D01*
X108545334Y-114004952D01*
X108545334Y-114147810D01*
X108497715Y-114338286D01*
X108450096Y-114433524D01*
X108354858Y-114528762D01*
X108212000Y-114576381D01*
X107973905Y-114576381D01*
X109450096Y-113576381D02*
X108973905Y-113576381D01*
X108926286Y-114052571D01*
X108973905Y-114004952D01*
X109069143Y-113957333D01*
X109307239Y-113957333D01*
X109402477Y-114004952D01*
X109450096Y-114052571D01*
X109497715Y-114147810D01*
X109497715Y-114385905D01*
X109450096Y-114481143D01*
X109402477Y-114528762D01*
X109307239Y-114576381D01*
X109069143Y-114576381D01*
X108973905Y-114528762D01*
X108926286Y-114481143D01*
X93070288Y-117340888D02*
X93777395Y-116633781D01*
X93945754Y-116802140D01*
X94013098Y-116936827D01*
X94013098Y-117071514D01*
X93979426Y-117172529D01*
X93878411Y-117340888D01*
X93777395Y-117441904D01*
X93609037Y-117542919D01*
X93508021Y-117576590D01*
X93373335Y-117576590D01*
X93238647Y-117509246D01*
X93070288Y-117340888D01*
X94787548Y-117643934D02*
X94652860Y-117509246D01*
X94551845Y-117475575D01*
X94484502Y-117475575D01*
X94316143Y-117509246D01*
X94147785Y-117610261D01*
X93878410Y-117879636D01*
X93844739Y-117980651D01*
X93844739Y-118047994D01*
X93878410Y-118149010D01*
X94013098Y-118283697D01*
X94114113Y-118317369D01*
X94181456Y-118317369D01*
X94282472Y-118283697D01*
X94450830Y-118115339D01*
X94484503Y-118014323D01*
X94484503Y-117946979D01*
X94450831Y-117845964D01*
X94316143Y-117711277D01*
X94215128Y-117677605D01*
X94147785Y-117677605D01*
X94046769Y-117711277D01*
X91052381Y-107418095D02*
X90052381Y-107418095D01*
X90052381Y-107180000D01*
X90100000Y-107037142D01*
X90195238Y-106941904D01*
X90290476Y-106894285D01*
X90480952Y-106846666D01*
X90623810Y-106846666D01*
X90814286Y-106894285D01*
X90909524Y-106941904D01*
X91004762Y-107037142D01*
X91052381Y-107180000D01*
X91052381Y-107418095D01*
X90052381Y-106513333D02*
X90052381Y-105846666D01*
X91052381Y-106275238D01*
X92948052Y-102627876D02*
X92240945Y-101920769D01*
X92409304Y-101752410D01*
X92543991Y-101685066D01*
X92678678Y-101685066D01*
X92779693Y-101718738D01*
X92948052Y-101819753D01*
X93049068Y-101920769D01*
X93150083Y-102089127D01*
X93183754Y-102190143D01*
X93183754Y-102324829D01*
X93116410Y-102459517D01*
X92948052Y-102627876D01*
X93352112Y-101415692D02*
X93251097Y-101449364D01*
X93183754Y-101449364D01*
X93082739Y-101415692D01*
X93049067Y-101382021D01*
X93015395Y-101281006D01*
X93015395Y-101213662D01*
X93049067Y-101112647D01*
X93183754Y-100977959D01*
X93284770Y-100944288D01*
X93352113Y-100944288D01*
X93453128Y-100977959D01*
X93486800Y-101011631D01*
X93520472Y-101112646D01*
X93520472Y-101179990D01*
X93486800Y-101281005D01*
X93352112Y-101415692D01*
X93318441Y-101516708D01*
X93318441Y-101584051D01*
X93352113Y-101685067D01*
X93486800Y-101819754D01*
X93587815Y-101853425D01*
X93655158Y-101853425D01*
X93756174Y-101819754D01*
X93890861Y-101685066D01*
X93924533Y-101584051D01*
X93924533Y-101516708D01*
X93890861Y-101415692D01*
X93756174Y-101281006D01*
X93655158Y-101247333D01*
X93587815Y-101247333D01*
X93486800Y-101281005D01*
X120165834Y-151067382D02*
X119832500Y-150591191D01*
X119594405Y-151067382D02*
X119594405Y-150067382D01*
X119975358Y-150067382D01*
X120070596Y-150115001D01*
X120118215Y-150162620D01*
X120165834Y-150257858D01*
X120165834Y-150400715D01*
X120118215Y-150495953D01*
X120070596Y-150543572D01*
X119975358Y-150591191D01*
X119594405Y-150591191D01*
X120499167Y-150067382D02*
X121118215Y-150067382D01*
X120784881Y-150448334D01*
X120927739Y-150448334D01*
X121022977Y-150495953D01*
X121070596Y-150543572D01*
X121118215Y-150638811D01*
X121118215Y-150876906D01*
X121070596Y-150972144D01*
X121022977Y-151019763D01*
X120927739Y-151067382D01*
X120642024Y-151067382D01*
X120546786Y-151019763D01*
X120499167Y-150972144D01*
X120165834Y-151067382D02*
X119832500Y-150591191D01*
X119594405Y-151067382D02*
X119594405Y-150067382D01*
X119975358Y-150067382D01*
X120070596Y-150115001D01*
X120118215Y-150162620D01*
X120165834Y-150257858D01*
X120165834Y-150400715D01*
X120118215Y-150495953D01*
X120070596Y-150543572D01*
X119975358Y-150591191D01*
X119594405Y-150591191D01*
X121022977Y-150400715D02*
X121022977Y-151067382D01*
X120784881Y-150019763D02*
X120546786Y-150734049D01*
X121165834Y-150734049D01*
X120165834Y-151067382D02*
X119832500Y-150591191D01*
X119594405Y-151067382D02*
X119594405Y-150067382D01*
X119975358Y-150067382D01*
X120070596Y-150115001D01*
X120118215Y-150162620D01*
X120165834Y-150257858D01*
X120165834Y-150400715D01*
X120118215Y-150495953D01*
X120070596Y-150543572D01*
X119975358Y-150591191D01*
X119594405Y-150591191D01*
X121070596Y-150067382D02*
X120594405Y-150067382D01*
X120546786Y-150543572D01*
X120594405Y-150495953D01*
X120689643Y-150448334D01*
X120927739Y-150448334D01*
X121022977Y-150495953D01*
X121070596Y-150543572D01*
X121118215Y-150638811D01*
X121118215Y-150876906D01*
X121070596Y-150972144D01*
X121022977Y-151019763D01*
X120927739Y-151067382D01*
X120689643Y-151067382D01*
X120594405Y-151019763D01*
X120546786Y-150972144D01*
X120165834Y-151067382D02*
X119832500Y-150591191D01*
X119594405Y-151067382D02*
X119594405Y-150067382D01*
X119975358Y-150067382D01*
X120070596Y-150115001D01*
X120118215Y-150162620D01*
X120165834Y-150257858D01*
X120165834Y-150400715D01*
X120118215Y-150495953D01*
X120070596Y-150543572D01*
X119975358Y-150591191D01*
X119594405Y-150591191D01*
X121022977Y-150067382D02*
X120832500Y-150067382D01*
X120737262Y-150115001D01*
X120689643Y-150162620D01*
X120594405Y-150305477D01*
X120546786Y-150495953D01*
X120546786Y-150876906D01*
X120594405Y-150972144D01*
X120642024Y-151019763D01*
X120737262Y-151067382D01*
X120927739Y-151067382D01*
X121022977Y-151019763D01*
X121070596Y-150972144D01*
X121118215Y-150876906D01*
X121118215Y-150638811D01*
X121070596Y-150543572D01*
X121022977Y-150495953D01*
X120927739Y-150448334D01*
X120737262Y-150448334D01*
X120642024Y-150495953D01*
X120594405Y-150543572D01*
X120546786Y-150638811D01*
X120165834Y-151067382D02*
X119832500Y-150591191D01*
X119594405Y-151067382D02*
X119594405Y-150067382D01*
X119975358Y-150067382D01*
X120070596Y-150115001D01*
X120118215Y-150162620D01*
X120165834Y-150257858D01*
X120165834Y-150400715D01*
X120118215Y-150495953D01*
X120070596Y-150543572D01*
X119975358Y-150591191D01*
X119594405Y-150591191D01*
X120499167Y-150067382D02*
X121165834Y-150067382D01*
X120737262Y-151067382D01*
X120165834Y-151067382D02*
X119832500Y-150591191D01*
X119594405Y-151067382D02*
X119594405Y-150067382D01*
X119975358Y-150067382D01*
X120070596Y-150115001D01*
X120118215Y-150162620D01*
X120165834Y-150257858D01*
X120165834Y-150400715D01*
X120118215Y-150495953D01*
X120070596Y-150543572D01*
X119975358Y-150591191D01*
X119594405Y-150591191D01*
X120737262Y-150495953D02*
X120642024Y-150448334D01*
X120594405Y-150400715D01*
X120546786Y-150305477D01*
X120546786Y-150257858D01*
X120594405Y-150162620D01*
X120642024Y-150115001D01*
X120737262Y-150067382D01*
X120927739Y-150067382D01*
X121022977Y-150115001D01*
X121070596Y-150162620D01*
X121118215Y-150257858D01*
X121118215Y-150305477D01*
X121070596Y-150400715D01*
X121022977Y-150448334D01*
X120927739Y-150495953D01*
X120737262Y-150495953D01*
X120642024Y-150543572D01*
X120594405Y-150591191D01*
X120546786Y-150686430D01*
X120546786Y-150876906D01*
X120594405Y-150972144D01*
X120642024Y-151019763D01*
X120737262Y-151067382D01*
X120927739Y-151067382D01*
X121022977Y-151019763D01*
X121070596Y-150972144D01*
X121118215Y-150876906D01*
X121118215Y-150686430D01*
X121070596Y-150591191D01*
X121022977Y-150543572D01*
X120927739Y-150495953D01*
X140170714Y-121332762D02*
X140396905Y-123332762D01*
X140956428Y-121904190D01*
X141158810Y-123332762D01*
X141885000Y-121332762D01*
X142373094Y-122761333D02*
X143325475Y-122761333D01*
X142111190Y-123332762D02*
X143027857Y-121332762D01*
X143444524Y-123332762D01*
X144075476Y-121332762D02*
X144492143Y-123332762D01*
X145408810Y-121332762D01*
X145956428Y-122285143D02*
X146623095Y-122285143D01*
X146777857Y-123332762D02*
X145825476Y-123332762D01*
X146075476Y-121332762D01*
X147027857Y-121332762D01*
X138063191Y-119649905D02*
X137884620Y-119554667D01*
X137801285Y-119459429D01*
X137729857Y-119268952D01*
X137741762Y-119173714D01*
X137860809Y-118983238D01*
X137967953Y-118888000D01*
X138170334Y-118792762D01*
X138551286Y-118792762D01*
X138729857Y-118888000D01*
X138813190Y-118983238D01*
X138884620Y-119173714D01*
X138872715Y-119268952D01*
X138753666Y-119459429D01*
X138646524Y-119554667D01*
X138444143Y-119649905D01*
X138063191Y-119649905D01*
X137860810Y-119745143D01*
X137753666Y-119840381D01*
X137634619Y-120030857D01*
X137587000Y-120411810D01*
X137658428Y-120602286D01*
X137741763Y-120697524D01*
X137920334Y-120792762D01*
X138301286Y-120792762D01*
X138503667Y-120697524D01*
X138610809Y-120602286D01*
X138729858Y-120411810D01*
X138777477Y-120030857D01*
X138706047Y-119840381D01*
X138622714Y-119745143D01*
X138444143Y-119649905D01*
X140337000Y-119745143D02*
X140610809Y-119840381D01*
X140694144Y-119935619D01*
X140765572Y-120126095D01*
X140729858Y-120411810D01*
X140610810Y-120602286D01*
X140503667Y-120697524D01*
X140301286Y-120792762D01*
X139539381Y-120792762D01*
X139789381Y-118792762D01*
X140456048Y-118792762D01*
X140634619Y-118888000D01*
X140717952Y-118983238D01*
X140789382Y-119173714D01*
X140765572Y-119364190D01*
X140646524Y-119554667D01*
X140539381Y-119649905D01*
X140337000Y-119745143D01*
X139670333Y-119745143D01*
X141539381Y-120792762D02*
X141789381Y-118792762D01*
X142456048Y-118792762D02*
X143598905Y-118792762D01*
X142777477Y-120792762D02*
X143027477Y-118792762D01*
M02*
