G04 #@! TF.GenerationSoftware,KiCad,Pcbnew,(5.1.5)-3*
G04 #@! TF.CreationDate,2020-06-03T22:57:54+02:00*
G04 #@! TF.ProjectId,8bitWave Faceplate,38626974-5761-4766-9520-46616365706c,rev?*
G04 #@! TF.SameCoordinates,Original*
G04 #@! TF.FileFunction,Soldermask,Bot*
G04 #@! TF.FilePolarity,Negative*
%FSLAX46Y46*%
G04 Gerber Fmt 4.6, Leading zero omitted, Abs format (unit mm)*
G04 Created by KiCad (PCBNEW (5.1.5)-3) date 2020-06-03 22:57:54*
%MOMM*%
%LPD*%
G04 APERTURE LIST*
%ADD10O,2.100000X2.100000*%
%ADD11R,2.100000X2.100000*%
%ADD12R,1.543000X0.908000*%
%ADD13C,2.900000*%
%ADD14R,1.924000X1.924000*%
%ADD15C,1.924000*%
%ADD16C,5.400000*%
%ADD17R,1.900000X1.650000*%
%ADD18R,2.000000X3.900000*%
%ADD19R,1.900000X1.700000*%
%ADD20R,1.700000X1.900000*%
%ADD21O,1.400000X1.400000*%
%ADD22R,1.400000X1.400000*%
G04 APERTURE END LIST*
D10*
X72390000Y-118110000D03*
X72390000Y-115570000D03*
X72390000Y-113030000D03*
X72390000Y-110490000D03*
X72390000Y-107950000D03*
X72390000Y-105410000D03*
X72390000Y-102870000D03*
X72390000Y-100330000D03*
X72390000Y-97790000D03*
D11*
X72390000Y-95250000D03*
D12*
X76200000Y-120650000D03*
X76200000Y-123190000D03*
X76200000Y-124460000D03*
X76200000Y-125730000D03*
X76200000Y-127000000D03*
X76200000Y-128270000D03*
X76200000Y-129540000D03*
X82550000Y-129540000D03*
X82550000Y-128270000D03*
X82550000Y-127000000D03*
X82550000Y-125730000D03*
X82550000Y-124460000D03*
X82550000Y-123190000D03*
X82550000Y-121920000D03*
X82550000Y-120650000D03*
X76200000Y-121920000D03*
D13*
X132085000Y-119500000D03*
X108585000Y-119500000D03*
D14*
X116525000Y-95000000D03*
D15*
X119065000Y-95000000D03*
X121605000Y-95000000D03*
X124145000Y-95000000D03*
D11*
X168275000Y-95250000D03*
D10*
X168275000Y-97790000D03*
X168275000Y-100330000D03*
X168275000Y-102870000D03*
X168275000Y-105410000D03*
X168275000Y-107950000D03*
X168275000Y-110490000D03*
D16*
X73660000Y-139065000D03*
X167005000Y-139065000D03*
X167005000Y-81280000D03*
X73660000Y-81280000D03*
D11*
X168275000Y-113030000D03*
D10*
X168275000Y-115570000D03*
X168275000Y-118110000D03*
D17*
X78105000Y-118110000D03*
X80605000Y-118110000D03*
X80625000Y-112395000D03*
X78125000Y-112395000D03*
D18*
X145415000Y-131605000D03*
X145415000Y-126205000D03*
D19*
X140890000Y-118745000D03*
X143590000Y-118745000D03*
X132635000Y-123190000D03*
X135335000Y-123190000D03*
X123745000Y-123190000D03*
X126445000Y-123190000D03*
X114855000Y-123190000D03*
X117555000Y-123190000D03*
X105330000Y-123190000D03*
X108030000Y-123190000D03*
X97075000Y-118745000D03*
X99775000Y-118745000D03*
D20*
X86995000Y-111045000D03*
X86995000Y-113745000D03*
X86995000Y-99615000D03*
X86995000Y-102315000D03*
D19*
X99775000Y-94615000D03*
X97075000Y-94615000D03*
X108030000Y-90170000D03*
X105330000Y-90170000D03*
X117555000Y-90170000D03*
X114855000Y-90170000D03*
X123745000Y-90170000D03*
X126445000Y-90170000D03*
X135335000Y-90170000D03*
X132635000Y-90170000D03*
X143590000Y-94615000D03*
X140890000Y-94615000D03*
D20*
X153670000Y-102315000D03*
X153670000Y-99615000D03*
X153670000Y-113745000D03*
X153670000Y-111045000D03*
D12*
X82550000Y-109855000D03*
X82550000Y-107315000D03*
X82550000Y-106045000D03*
X82550000Y-104775000D03*
X82550000Y-103505000D03*
X82550000Y-102235000D03*
X82550000Y-100965000D03*
X76200000Y-100965000D03*
X76200000Y-102235000D03*
X76200000Y-103505000D03*
X76200000Y-104775000D03*
X76200000Y-106045000D03*
X76200000Y-107315000D03*
X76200000Y-108585000D03*
X76200000Y-109855000D03*
X82550000Y-108585000D03*
D21*
X160020000Y-95250000D03*
X158750000Y-95250000D03*
D22*
X157480000Y-95250000D03*
X157480000Y-97790000D03*
D21*
X158750000Y-97790000D03*
X160020000Y-97790000D03*
M02*
