G04 #@! TF.FileFunction,Legend,Bot*
%FSLAX46Y46*%
G04 Gerber Fmt 4.6, Leading zero omitted, Abs format (unit mm)*
G04 Created by KiCad (PCBNEW 4.0.7) date 02/09/20 01:32:40*
%MOMM*%
%LPD*%
G01*
G04 APERTURE LIST*
%ADD10C,0.100000*%
%ADD11C,0.200000*%
%ADD12C,0.120000*%
%ADD13C,0.150000*%
G04 APERTURE END LIST*
D10*
D11*
X166370000Y-93345000D02*
X170180000Y-93345000D01*
X166370000Y-120015000D02*
X166370000Y-93345000D01*
X167005000Y-111760000D02*
X169545000Y-111760000D01*
X170180000Y-120015000D02*
X166370000Y-120015000D01*
D12*
X169605000Y-111820000D02*
X166945000Y-111820000D01*
X169605000Y-96520000D02*
X169605000Y-111820000D01*
X166945000Y-96520000D02*
X166945000Y-111820000D01*
X169605000Y-96520000D02*
X166945000Y-96520000D01*
X169605000Y-95250000D02*
X169605000Y-93920000D01*
X169605000Y-93920000D02*
X168275000Y-93920000D01*
X169605000Y-119440000D02*
X166945000Y-119440000D01*
X169605000Y-114300000D02*
X169605000Y-119440000D01*
X166945000Y-114300000D02*
X166945000Y-119440000D01*
X169605000Y-114300000D02*
X166945000Y-114300000D01*
X169605000Y-113030000D02*
X169605000Y-111700000D01*
X169605000Y-111700000D02*
X168275000Y-111700000D01*
X169670000Y-130935000D02*
X167490000Y-130935000D01*
X163070000Y-130935000D02*
X165250000Y-130935000D01*
X168910000Y-124335000D02*
X167490000Y-124335000D01*
X163830000Y-124335000D02*
X165250000Y-124335000D01*
X169670000Y-130935000D02*
X169670000Y-125095000D01*
X169670000Y-125095000D02*
X168910000Y-124335000D01*
X163830000Y-124335000D02*
X163070000Y-125095000D01*
X163070000Y-125095000D02*
X163070000Y-130935000D01*
D13*
X115697000Y-131572000D02*
X116459000Y-131572000D01*
X116459000Y-131572000D02*
X116459000Y-130048000D01*
X116459000Y-130048000D02*
X115697000Y-130048000D01*
X126873000Y-133096000D02*
X126873000Y-128524000D01*
X126873000Y-128524000D02*
X115697000Y-128524000D01*
X115697000Y-128524000D02*
X115697000Y-133096000D01*
X115697000Y-133096000D02*
X126873000Y-133096000D01*
X134085000Y-120280000D02*
X134085000Y-92680000D01*
X106585000Y-120280000D02*
X134085000Y-120280000D01*
X106585000Y-92680000D02*
X106585000Y-120280000D01*
X106585000Y-92680000D02*
X134085000Y-92680000D01*
D10*
X165677857Y-99822381D02*
X165677857Y-100089048D01*
X166096905Y-100203334D02*
X166096905Y-99822381D01*
X165296905Y-99822381D01*
X165296905Y-100203334D01*
X165296905Y-100470001D02*
X166096905Y-101003334D01*
X165296905Y-101003334D02*
X166096905Y-100470001D01*
X165296905Y-101193810D02*
X165296905Y-101650953D01*
X166096905Y-101422382D02*
X165296905Y-101422382D01*
X165677857Y-101917620D02*
X165677857Y-102184287D01*
X166096905Y-102298573D02*
X166096905Y-101917620D01*
X165296905Y-101917620D01*
X165296905Y-102298573D01*
X166096905Y-102641430D02*
X165296905Y-102641430D01*
X166096905Y-103098573D01*
X165296905Y-103098573D01*
X166058810Y-103441430D02*
X166096905Y-103555716D01*
X166096905Y-103746192D01*
X166058810Y-103822382D01*
X166020714Y-103860478D01*
X165944524Y-103898573D01*
X165868333Y-103898573D01*
X165792143Y-103860478D01*
X165754048Y-103822382D01*
X165715952Y-103746192D01*
X165677857Y-103593811D01*
X165639762Y-103517620D01*
X165601667Y-103479525D01*
X165525476Y-103441430D01*
X165449286Y-103441430D01*
X165373095Y-103479525D01*
X165335000Y-103517620D01*
X165296905Y-103593811D01*
X165296905Y-103784287D01*
X165335000Y-103898573D01*
X166096905Y-104241430D02*
X165296905Y-104241430D01*
X165296905Y-104774763D02*
X165296905Y-104927144D01*
X165335000Y-105003335D01*
X165411190Y-105079525D01*
X165563571Y-105117620D01*
X165830238Y-105117620D01*
X165982619Y-105079525D01*
X166058810Y-105003335D01*
X166096905Y-104927144D01*
X166096905Y-104774763D01*
X166058810Y-104698573D01*
X165982619Y-104622382D01*
X165830238Y-104584287D01*
X165563571Y-104584287D01*
X165411190Y-104622382D01*
X165335000Y-104698573D01*
X165296905Y-104774763D01*
X166096905Y-105460477D02*
X165296905Y-105460477D01*
X166096905Y-105917620D01*
X165296905Y-105917620D01*
D13*
X168608333Y-110152381D02*
X168608333Y-110866667D01*
X168655953Y-111009524D01*
X168751191Y-111104762D01*
X168894048Y-111152381D01*
X168989286Y-111152381D01*
X167608333Y-111152381D02*
X168179762Y-111152381D01*
X167894048Y-111152381D02*
X167894048Y-110152381D01*
X167989286Y-110295238D01*
X168084524Y-110390476D01*
X168179762Y-110438095D01*
D10*
X166096905Y-113398572D02*
X165296905Y-113398572D01*
X165373095Y-113741429D02*
X165335000Y-113779524D01*
X165296905Y-113855715D01*
X165296905Y-114046191D01*
X165335000Y-114122381D01*
X165373095Y-114160477D01*
X165449286Y-114198572D01*
X165525476Y-114198572D01*
X165639762Y-114160477D01*
X166096905Y-113703334D01*
X166096905Y-114198572D01*
X166020714Y-114998572D02*
X166058810Y-114960477D01*
X166096905Y-114846191D01*
X166096905Y-114770001D01*
X166058810Y-114655715D01*
X165982619Y-114579524D01*
X165906429Y-114541429D01*
X165754048Y-114503334D01*
X165639762Y-114503334D01*
X165487381Y-114541429D01*
X165411190Y-114579524D01*
X165335000Y-114655715D01*
X165296905Y-114770001D01*
X165296905Y-114846191D01*
X165335000Y-114960477D01*
X165373095Y-114998572D01*
X166173095Y-115150953D02*
X166173095Y-115760477D01*
X165296905Y-115836667D02*
X166096905Y-116103334D01*
X165296905Y-116370001D01*
X165296905Y-116789048D02*
X165296905Y-116941429D01*
X165335000Y-117017620D01*
X165411190Y-117093810D01*
X165563571Y-117131905D01*
X165830238Y-117131905D01*
X165982619Y-117093810D01*
X166058810Y-117017620D01*
X166096905Y-116941429D01*
X166096905Y-116789048D01*
X166058810Y-116712858D01*
X165982619Y-116636667D01*
X165830238Y-116598572D01*
X165563571Y-116598572D01*
X165411190Y-116636667D01*
X165335000Y-116712858D01*
X165296905Y-116789048D01*
X166096905Y-117855715D02*
X166096905Y-117474762D01*
X165296905Y-117474762D01*
D13*
X166536666Y-127357143D02*
X166584285Y-127404762D01*
X166727142Y-127452381D01*
X166822380Y-127452381D01*
X166965238Y-127404762D01*
X167060476Y-127309524D01*
X167108095Y-127214286D01*
X167155714Y-127023810D01*
X167155714Y-126880952D01*
X167108095Y-126690476D01*
X167060476Y-126595238D01*
X166965238Y-126500000D01*
X166822380Y-126452381D01*
X166727142Y-126452381D01*
X166584285Y-126500000D01*
X166536666Y-126547619D01*
X166203333Y-126452381D02*
X165584285Y-126452381D01*
X165917619Y-126833333D01*
X165774761Y-126833333D01*
X165679523Y-126880952D01*
X165631904Y-126928571D01*
X165584285Y-127023810D01*
X165584285Y-127261905D01*
X165631904Y-127357143D01*
X165679523Y-127404762D01*
X165774761Y-127452381D01*
X166060476Y-127452381D01*
X166155714Y-127404762D01*
X166203333Y-127357143D01*
X169451429Y-122974048D02*
X169451429Y-123735953D01*
X169832381Y-123355001D02*
X169070476Y-123355001D01*
X122173905Y-131532381D02*
X122173905Y-132341905D01*
X122126286Y-132437143D01*
X122078667Y-132484762D01*
X121983429Y-132532381D01*
X121792952Y-132532381D01*
X121697714Y-132484762D01*
X121650095Y-132437143D01*
X121602476Y-132341905D01*
X121602476Y-131532381D01*
X120602476Y-132532381D02*
X121173905Y-132532381D01*
X120888191Y-132532381D02*
X120888191Y-131532381D01*
X120983429Y-131675238D01*
X121078667Y-131770476D01*
X121173905Y-131818095D01*
X128931190Y-95067381D02*
X128931190Y-94067381D01*
X127883571Y-94972143D02*
X127931190Y-95019762D01*
X128074047Y-95067381D01*
X128169285Y-95067381D01*
X128312143Y-95019762D01*
X128407381Y-94924524D01*
X128455000Y-94829286D01*
X128502619Y-94638810D01*
X128502619Y-94495952D01*
X128455000Y-94305476D01*
X128407381Y-94210238D01*
X128312143Y-94115000D01*
X128169285Y-94067381D01*
X128074047Y-94067381D01*
X127931190Y-94115000D01*
X127883571Y-94162619D01*
X126931190Y-95067381D02*
X127502619Y-95067381D01*
X127216905Y-95067381D02*
X127216905Y-94067381D01*
X127312143Y-94210238D01*
X127407381Y-94305476D01*
X127502619Y-94353095D01*
X125430238Y-95337381D02*
X125334999Y-95337381D01*
X125239761Y-95385000D01*
X125192142Y-95432619D01*
X125144523Y-95527857D01*
X125096904Y-95718333D01*
X125096904Y-95956429D01*
X125144523Y-96146905D01*
X125192142Y-96242143D01*
X125239761Y-96289762D01*
X125334999Y-96337381D01*
X125430238Y-96337381D01*
X125525476Y-96289762D01*
X125573095Y-96242143D01*
X125620714Y-96146905D01*
X125668333Y-95956429D01*
X125668333Y-95718333D01*
X125620714Y-95527857D01*
X125573095Y-95432619D01*
X125525476Y-95385000D01*
X125430238Y-95337381D01*
X124668333Y-96242143D02*
X124620714Y-96289762D01*
X124668333Y-96337381D01*
X124715952Y-96289762D01*
X124668333Y-96242143D01*
X124668333Y-96337381D01*
X124144524Y-96337381D02*
X123954048Y-96337381D01*
X123858809Y-96289762D01*
X123811190Y-96242143D01*
X123715952Y-96099286D01*
X123668333Y-95908810D01*
X123668333Y-95527857D01*
X123715952Y-95432619D01*
X123763571Y-95385000D01*
X123858809Y-95337381D01*
X124049286Y-95337381D01*
X124144524Y-95385000D01*
X124192143Y-95432619D01*
X124239762Y-95527857D01*
X124239762Y-95765952D01*
X124192143Y-95861190D01*
X124144524Y-95908810D01*
X124049286Y-95956429D01*
X123858809Y-95956429D01*
X123763571Y-95908810D01*
X123715952Y-95861190D01*
X123668333Y-95765952D01*
X122811190Y-95337381D02*
X123001667Y-95337381D01*
X123096905Y-95385000D01*
X123144524Y-95432619D01*
X123239762Y-95575476D01*
X123287381Y-95765952D01*
X123287381Y-96146905D01*
X123239762Y-96242143D01*
X123192143Y-96289762D01*
X123096905Y-96337381D01*
X122906428Y-96337381D01*
X122811190Y-96289762D01*
X122763571Y-96242143D01*
X122715952Y-96146905D01*
X122715952Y-95908810D01*
X122763571Y-95813571D01*
X122811190Y-95765952D01*
X122906428Y-95718333D01*
X123096905Y-95718333D01*
X123192143Y-95765952D01*
X123239762Y-95813571D01*
X123287381Y-95908810D01*
X122525476Y-96432619D02*
X121763571Y-96432619D01*
X121525476Y-96337381D02*
X121525476Y-95337381D01*
X121096905Y-95432619D02*
X121049286Y-95385000D01*
X120954048Y-95337381D01*
X120715952Y-95337381D01*
X120620714Y-95385000D01*
X120573095Y-95432619D01*
X120525476Y-95527857D01*
X120525476Y-95623095D01*
X120573095Y-95765952D01*
X121144524Y-96337381D01*
X120525476Y-96337381D01*
X119525476Y-96242143D02*
X119573095Y-96289762D01*
X119715952Y-96337381D01*
X119811190Y-96337381D01*
X119954048Y-96289762D01*
X120049286Y-96194524D01*
X120096905Y-96099286D01*
X120144524Y-95908810D01*
X120144524Y-95765952D01*
X120096905Y-95575476D01*
X120049286Y-95480238D01*
X119954048Y-95385000D01*
X119811190Y-95337381D01*
X119715952Y-95337381D01*
X119573095Y-95385000D01*
X119525476Y-95432619D01*
X119335000Y-96432619D02*
X118573095Y-96432619D01*
X118144524Y-95337381D02*
X117954047Y-95337381D01*
X117858809Y-95385000D01*
X117763571Y-95480238D01*
X117715952Y-95670714D01*
X117715952Y-96004048D01*
X117763571Y-96194524D01*
X117858809Y-96289762D01*
X117954047Y-96337381D01*
X118144524Y-96337381D01*
X118239762Y-96289762D01*
X118335000Y-96194524D01*
X118382619Y-96004048D01*
X118382619Y-95670714D01*
X118335000Y-95480238D01*
X118239762Y-95385000D01*
X118144524Y-95337381D01*
X116811190Y-96337381D02*
X117287381Y-96337381D01*
X117287381Y-95337381D01*
X116477857Y-95813571D02*
X116144523Y-95813571D01*
X116001666Y-96337381D02*
X116477857Y-96337381D01*
X116477857Y-95337381D01*
X116001666Y-95337381D01*
X115573095Y-96337381D02*
X115573095Y-95337381D01*
X115335000Y-95337381D01*
X115192142Y-95385000D01*
X115096904Y-95480238D01*
X115049285Y-95575476D01*
X115001666Y-95765952D01*
X115001666Y-95908810D01*
X115049285Y-96099286D01*
X115096904Y-96194524D01*
X115192142Y-96289762D01*
X115335000Y-96337381D01*
X115573095Y-96337381D01*
M02*
