G04 #@! TF.GenerationSoftware,KiCad,Pcbnew,(5.1.5)-3*
G04 #@! TF.CreationDate,2020-03-03T18:46:58+01:00*
G04 #@! TF.ProjectId,8bitWave Faceplate,38626974-5761-4766-9520-46616365706c,rev?*
G04 #@! TF.SameCoordinates,Original*
G04 #@! TF.FileFunction,Legend,Top*
G04 #@! TF.FilePolarity,Positive*
%FSLAX46Y46*%
G04 Gerber Fmt 4.6, Leading zero omitted, Abs format (unit mm)*
G04 Created by KiCad (PCBNEW (5.1.5)-3) date 2020-03-03 18:46:58*
%MOMM*%
%LPD*%
G04 APERTURE LIST*
%ADD10C,0.300000*%
%ADD11C,2.300000*%
%ADD12C,0.400000*%
%ADD13C,0.600000*%
%ADD14C,0.500000*%
%ADD15C,0.150000*%
%ADD16C,0.200000*%
%ADD17C,0.100000*%
%ADD18C,0.120000*%
%ADD19C,0.010000*%
G04 APERTURE END LIST*
D10*
X81200714Y-105275000D02*
X82629285Y-105275000D01*
X80915000Y-106132142D02*
X81915000Y-103132142D01*
X82915000Y-106132142D01*
D11*
X88900000Y-106680000D02*
G75*
G03X98425000Y-116205000I9525000J0D01*
G01*
X98425000Y-97155000D02*
G75*
G03X88900000Y-106680000I0J-9525000D01*
G01*
X142240000Y-116205000D02*
G75*
G03X151765000Y-106680000I0J9525000D01*
G01*
X151765000Y-106680000D02*
G75*
G03X142240000Y-97155000I-9525000J0D01*
G01*
X98425000Y-97155000D02*
X142240000Y-97155000D01*
X98425000Y-116205000D02*
X142240000Y-116205000D01*
D12*
X76200000Y-124460000D02*
X164465000Y-124460000D01*
D13*
X142240000Y-99060000D02*
X98425000Y-99060000D01*
X98425000Y-114300000D02*
X142240000Y-114300000D01*
X90805000Y-106680000D02*
G75*
G03X98425000Y-114300000I7620000J0D01*
G01*
D14*
X155595238Y-108108571D02*
X155476190Y-108299047D01*
X155119047Y-108489523D01*
X154880952Y-108489523D01*
X154523809Y-108299047D01*
X154285714Y-107918095D01*
X154166666Y-107537142D01*
X154047619Y-106775238D01*
X154047619Y-106203809D01*
X154166666Y-105441904D01*
X154285714Y-105060952D01*
X154523809Y-104680000D01*
X154880952Y-104489523D01*
X155119047Y-104489523D01*
X155476190Y-104680000D01*
X155595238Y-104870476D01*
X156666666Y-106965714D02*
X158571428Y-106965714D01*
X161071428Y-108489523D02*
X159642857Y-108489523D01*
X160357142Y-108489523D02*
X160357142Y-104489523D01*
X160119047Y-105060952D01*
X159880952Y-105441904D01*
X159642857Y-105632380D01*
X162023809Y-104870476D02*
X162142857Y-104680000D01*
X162380952Y-104489523D01*
X162976190Y-104489523D01*
X163214285Y-104680000D01*
X163333333Y-104870476D01*
X163452380Y-105251428D01*
X163452380Y-105632380D01*
X163333333Y-106203809D01*
X161904761Y-108489523D01*
X163452380Y-108489523D01*
D15*
X78962619Y-109394523D02*
X79248333Y-109489761D01*
X79724523Y-109489761D01*
X79915000Y-109394523D01*
X80010238Y-109299285D01*
X80105476Y-109108809D01*
X80105476Y-108918333D01*
X80010238Y-108727857D01*
X79915000Y-108632619D01*
X79724523Y-108537380D01*
X79343571Y-108442142D01*
X79153095Y-108346904D01*
X79057857Y-108251666D01*
X78962619Y-108061190D01*
X78962619Y-107870714D01*
X79057857Y-107680238D01*
X79153095Y-107585000D01*
X79343571Y-107489761D01*
X79819761Y-107489761D01*
X80105476Y-107585000D01*
X80962619Y-109489761D02*
X80962619Y-107489761D01*
X81915000Y-109489761D02*
X81915000Y-107489761D01*
X82391190Y-107489761D01*
X82676904Y-107585000D01*
X82867380Y-107775476D01*
X82962619Y-107965952D01*
X83057857Y-108346904D01*
X83057857Y-108632619D01*
X82962619Y-109013571D01*
X82867380Y-109204047D01*
X82676904Y-109394523D01*
X82391190Y-109489761D01*
X81915000Y-109489761D01*
X83915000Y-108442142D02*
X84581666Y-108442142D01*
X84867380Y-109489761D02*
X83915000Y-109489761D01*
X83915000Y-107489761D01*
X84867380Y-107489761D01*
D16*
X99695000Y-88900000D02*
X140970000Y-88900000D01*
X99695000Y-91440000D02*
X140970000Y-91440000D01*
D17*
X114927738Y-89955714D02*
X114927738Y-90765238D01*
X114880119Y-90860476D01*
X114832500Y-90908095D01*
X114737261Y-90955714D01*
X114594404Y-90955714D01*
X114499166Y-90908095D01*
X114927738Y-90574761D02*
X114832500Y-90622380D01*
X114642023Y-90622380D01*
X114546785Y-90574761D01*
X114499166Y-90527142D01*
X114451547Y-90431904D01*
X114451547Y-90146190D01*
X114499166Y-90050952D01*
X114546785Y-90003333D01*
X114642023Y-89955714D01*
X114832500Y-89955714D01*
X114927738Y-90003333D01*
X115403928Y-90622380D02*
X115403928Y-89955714D01*
X115403928Y-89622380D02*
X115356309Y-89670000D01*
X115403928Y-89717619D01*
X115451547Y-89670000D01*
X115403928Y-89622380D01*
X115403928Y-89717619D01*
X115737261Y-89955714D02*
X116118214Y-89955714D01*
X115880119Y-89622380D02*
X115880119Y-90479523D01*
X115927738Y-90574761D01*
X116022976Y-90622380D01*
X116118214Y-90622380D01*
X116451547Y-90622380D02*
X116451547Y-89622380D01*
X116880119Y-90622380D02*
X116880119Y-90098571D01*
X116832500Y-90003333D01*
X116737261Y-89955714D01*
X116594404Y-89955714D01*
X116499166Y-90003333D01*
X116451547Y-90050952D01*
X117784880Y-89955714D02*
X117784880Y-90622380D01*
X117356309Y-89955714D02*
X117356309Y-90479523D01*
X117403928Y-90574761D01*
X117499166Y-90622380D01*
X117642023Y-90622380D01*
X117737261Y-90574761D01*
X117784880Y-90527142D01*
X118261071Y-90622380D02*
X118261071Y-89622380D01*
X118261071Y-90003333D02*
X118356309Y-89955714D01*
X118546785Y-89955714D01*
X118642023Y-90003333D01*
X118689642Y-90050952D01*
X118737261Y-90146190D01*
X118737261Y-90431904D01*
X118689642Y-90527142D01*
X118642023Y-90574761D01*
X118546785Y-90622380D01*
X118356309Y-90622380D01*
X118261071Y-90574761D01*
X119165833Y-90527142D02*
X119213452Y-90574761D01*
X119165833Y-90622380D01*
X119118214Y-90574761D01*
X119165833Y-90527142D01*
X119165833Y-90622380D01*
X120070595Y-90574761D02*
X119975357Y-90622380D01*
X119784880Y-90622380D01*
X119689642Y-90574761D01*
X119642023Y-90527142D01*
X119594404Y-90431904D01*
X119594404Y-90146190D01*
X119642023Y-90050952D01*
X119689642Y-90003333D01*
X119784880Y-89955714D01*
X119975357Y-89955714D01*
X120070595Y-90003333D01*
X120642023Y-90622380D02*
X120546785Y-90574761D01*
X120499166Y-90527142D01*
X120451547Y-90431904D01*
X120451547Y-90146190D01*
X120499166Y-90050952D01*
X120546785Y-90003333D01*
X120642023Y-89955714D01*
X120784880Y-89955714D01*
X120880119Y-90003333D01*
X120927738Y-90050952D01*
X120975357Y-90146190D01*
X120975357Y-90431904D01*
X120927738Y-90527142D01*
X120880119Y-90574761D01*
X120784880Y-90622380D01*
X120642023Y-90622380D01*
X121403928Y-90622380D02*
X121403928Y-89955714D01*
X121403928Y-90050952D02*
X121451547Y-90003333D01*
X121546785Y-89955714D01*
X121689642Y-89955714D01*
X121784880Y-90003333D01*
X121832500Y-90098571D01*
X121832500Y-90622380D01*
X121832500Y-90098571D02*
X121880119Y-90003333D01*
X121975357Y-89955714D01*
X122118214Y-89955714D01*
X122213452Y-90003333D01*
X122261071Y-90098571D01*
X122261071Y-90622380D01*
X123451547Y-89574761D02*
X122594404Y-90860476D01*
X123642023Y-89955714D02*
X124022976Y-89955714D01*
X123784880Y-89622380D02*
X123784880Y-90479523D01*
X123832500Y-90574761D01*
X123927738Y-90622380D01*
X124022976Y-90622380D01*
X124737261Y-90574761D02*
X124642023Y-90622380D01*
X124451547Y-90622380D01*
X124356309Y-90574761D01*
X124308690Y-90479523D01*
X124308690Y-90098571D01*
X124356309Y-90003333D01*
X124451547Y-89955714D01*
X124642023Y-89955714D01*
X124737261Y-90003333D01*
X124784880Y-90098571D01*
X124784880Y-90193809D01*
X124308690Y-90289047D01*
X125213452Y-90622380D02*
X125213452Y-89622380D01*
X125213452Y-90003333D02*
X125308690Y-89955714D01*
X125499166Y-89955714D01*
X125594404Y-90003333D01*
X125642023Y-90050952D01*
X125689642Y-90146190D01*
X125689642Y-90431904D01*
X125642023Y-90527142D01*
X125594404Y-90574761D01*
X125499166Y-90622380D01*
X125308690Y-90622380D01*
X125213452Y-90574761D01*
X126261071Y-90622380D02*
X126165833Y-90574761D01*
X126118214Y-90479523D01*
X126118214Y-89622380D01*
X116856309Y-87510952D02*
X116761071Y-87463333D01*
X116713452Y-87415714D01*
X116665833Y-87320476D01*
X116665833Y-87272857D01*
X116713452Y-87177619D01*
X116761071Y-87130000D01*
X116856309Y-87082380D01*
X117046785Y-87082380D01*
X117142023Y-87130000D01*
X117189642Y-87177619D01*
X117237261Y-87272857D01*
X117237261Y-87320476D01*
X117189642Y-87415714D01*
X117142023Y-87463333D01*
X117046785Y-87510952D01*
X116856309Y-87510952D01*
X116761071Y-87558571D01*
X116713452Y-87606190D01*
X116665833Y-87701428D01*
X116665833Y-87891904D01*
X116713452Y-87987142D01*
X116761071Y-88034761D01*
X116856309Y-88082380D01*
X117046785Y-88082380D01*
X117142023Y-88034761D01*
X117189642Y-87987142D01*
X117237261Y-87891904D01*
X117237261Y-87701428D01*
X117189642Y-87606190D01*
X117142023Y-87558571D01*
X117046785Y-87510952D01*
X117999166Y-87558571D02*
X118142023Y-87606190D01*
X118189642Y-87653809D01*
X118237261Y-87749047D01*
X118237261Y-87891904D01*
X118189642Y-87987142D01*
X118142023Y-88034761D01*
X118046785Y-88082380D01*
X117665833Y-88082380D01*
X117665833Y-87082380D01*
X117999166Y-87082380D01*
X118094404Y-87130000D01*
X118142023Y-87177619D01*
X118189642Y-87272857D01*
X118189642Y-87368095D01*
X118142023Y-87463333D01*
X118094404Y-87510952D01*
X117999166Y-87558571D01*
X117665833Y-87558571D01*
X118665833Y-88082380D02*
X118665833Y-87082380D01*
X118999166Y-87082380D02*
X119570595Y-87082380D01*
X119284880Y-88082380D02*
X119284880Y-87082380D01*
X120570595Y-87082380D02*
X120808690Y-88082380D01*
X120999166Y-87368095D01*
X121189642Y-88082380D01*
X121427738Y-87082380D01*
X121761071Y-87796666D02*
X122237261Y-87796666D01*
X121665833Y-88082380D02*
X121999166Y-87082380D01*
X122332500Y-88082380D01*
X122522976Y-87082380D02*
X122856309Y-88082380D01*
X123189642Y-87082380D01*
X123522976Y-87558571D02*
X123856309Y-87558571D01*
X123999166Y-88082380D02*
X123522976Y-88082380D01*
X123522976Y-87082380D01*
X123999166Y-87082380D01*
D16*
X153670000Y-142240000D02*
X150495000Y-127000000D01*
X86995000Y-142240000D02*
X89530000Y-127000000D01*
X150495000Y-127000000D02*
X89535000Y-127000000D01*
D13*
X149860000Y-106680000D02*
G75*
G03X142240000Y-99060000I-7620000J0D01*
G01*
X142240000Y-114300000D02*
G75*
G03X149860000Y-106680000I0J7620000D01*
G01*
X98425000Y-99060000D02*
G75*
G03X90805000Y-106680000I0J-7620000D01*
G01*
D12*
X160655000Y-83820000D02*
X80010000Y-83820000D01*
X165100000Y-123825000D02*
X165100000Y-88265000D01*
X164465000Y-124460000D02*
G75*
G03X165100000Y-123825000I0J635000D01*
G01*
X75565000Y-123825000D02*
X75565000Y-88265000D01*
X75565000Y-123825000D02*
G75*
G03X76200000Y-124460000I635000J0D01*
G01*
X160655000Y-83820000D02*
X165100000Y-88265000D01*
X80010000Y-83820000D02*
X75565000Y-88265000D01*
D13*
X88900000Y-126365000D02*
X151130000Y-126365000D01*
X88900000Y-126365000D02*
X86360000Y-142240000D01*
X151130000Y-126365000D02*
X154305000Y-142240000D01*
D18*
X71060000Y-93920000D02*
X72390000Y-93920000D01*
X71060000Y-95250000D02*
X71060000Y-93920000D01*
X71060000Y-96520000D02*
X73720000Y-96520000D01*
X73720000Y-96520000D02*
X73720000Y-119440000D01*
X71060000Y-96520000D02*
X71060000Y-119440000D01*
X71060000Y-119440000D02*
X73720000Y-119440000D01*
X75946000Y-139065000D02*
G75*
G03X75946000Y-139065000I-2286000J0D01*
G01*
X169291000Y-139065000D02*
G75*
G03X169291000Y-139065000I-2286000J0D01*
G01*
X169291000Y-81280000D02*
G75*
G03X169291000Y-81280000I-2286000J0D01*
G01*
X75946000Y-81280000D02*
G75*
G03X75946000Y-81280000I-2286000J0D01*
G01*
D19*
G36*
X88918908Y-136706653D02*
G01*
X89047678Y-136758817D01*
X89154590Y-136816790D01*
X89228716Y-136859672D01*
X89344528Y-136926514D01*
X89494779Y-137013140D01*
X89672224Y-137115375D01*
X89869614Y-137229044D01*
X90079705Y-137349971D01*
X90262157Y-137454946D01*
X90469420Y-137575216D01*
X90662816Y-137689434D01*
X90836437Y-137793960D01*
X90984377Y-137885154D01*
X91100728Y-137959376D01*
X91179583Y-138012987D01*
X91214657Y-138041852D01*
X91264411Y-138143950D01*
X91258984Y-138248631D01*
X91198849Y-138349050D01*
X91193056Y-138355268D01*
X91150981Y-138387908D01*
X91065861Y-138444512D01*
X90943827Y-138521335D01*
X90791008Y-138614631D01*
X90613534Y-138720653D01*
X90417534Y-138835656D01*
X90226445Y-138945985D01*
X90012735Y-139068491D01*
X89806226Y-139186994D01*
X89614090Y-139297366D01*
X89443501Y-139395484D01*
X89301634Y-139477220D01*
X89195663Y-139538449D01*
X89140337Y-139570605D01*
X88990930Y-139647847D01*
X88872405Y-139684122D01*
X88777288Y-139679877D01*
X88698106Y-139635555D01*
X88662620Y-139599057D01*
X88589556Y-139512225D01*
X88589556Y-136867998D01*
X88662620Y-136781166D01*
X88734188Y-136718393D01*
X88817014Y-136693367D01*
X88918908Y-136706653D01*
G37*
X88918908Y-136706653D02*
X89047678Y-136758817D01*
X89154590Y-136816790D01*
X89228716Y-136859672D01*
X89344528Y-136926514D01*
X89494779Y-137013140D01*
X89672224Y-137115375D01*
X89869614Y-137229044D01*
X90079705Y-137349971D01*
X90262157Y-137454946D01*
X90469420Y-137575216D01*
X90662816Y-137689434D01*
X90836437Y-137793960D01*
X90984377Y-137885154D01*
X91100728Y-137959376D01*
X91179583Y-138012987D01*
X91214657Y-138041852D01*
X91264411Y-138143950D01*
X91258984Y-138248631D01*
X91198849Y-138349050D01*
X91193056Y-138355268D01*
X91150981Y-138387908D01*
X91065861Y-138444512D01*
X90943827Y-138521335D01*
X90791008Y-138614631D01*
X90613534Y-138720653D01*
X90417534Y-138835656D01*
X90226445Y-138945985D01*
X90012735Y-139068491D01*
X89806226Y-139186994D01*
X89614090Y-139297366D01*
X89443501Y-139395484D01*
X89301634Y-139477220D01*
X89195663Y-139538449D01*
X89140337Y-139570605D01*
X88990930Y-139647847D01*
X88872405Y-139684122D01*
X88777288Y-139679877D01*
X88698106Y-139635555D01*
X88662620Y-139599057D01*
X88589556Y-139512225D01*
X88589556Y-136867998D01*
X88662620Y-136781166D01*
X88734188Y-136718393D01*
X88817014Y-136693367D01*
X88918908Y-136706653D01*
G36*
X106164162Y-136738047D02*
G01*
X106321687Y-136846139D01*
X106437341Y-136991905D01*
X106500182Y-137139135D01*
X106512565Y-137210607D01*
X106522771Y-137329511D01*
X106530807Y-137486879D01*
X106536677Y-137673741D01*
X106540387Y-137881126D01*
X106541943Y-138100066D01*
X106541350Y-138321590D01*
X106538613Y-138536730D01*
X106533738Y-138736515D01*
X106526731Y-138911977D01*
X106517597Y-139054145D01*
X106506341Y-139154050D01*
X106498935Y-139188787D01*
X106422715Y-139360619D01*
X106307007Y-139493723D01*
X106167248Y-139584194D01*
X106019807Y-139657667D01*
X105030515Y-139655439D01*
X104749608Y-139653939D01*
X104504470Y-139650858D01*
X104299102Y-139646314D01*
X104137502Y-139640426D01*
X104023670Y-139633312D01*
X103961605Y-139625091D01*
X103956556Y-139623615D01*
X103803728Y-139541563D01*
X103671881Y-139413254D01*
X103611463Y-139325100D01*
X103533223Y-139192000D01*
X103524794Y-138226449D01*
X103523200Y-137934625D01*
X103523806Y-137683267D01*
X103526547Y-137475638D01*
X103531359Y-137314999D01*
X103538178Y-137204612D01*
X103545877Y-137151299D01*
X103617375Y-136987534D01*
X103731970Y-136846661D01*
X103877411Y-136743303D01*
X103894738Y-136734865D01*
X103934550Y-136716792D01*
X103972475Y-136702230D01*
X104014837Y-136690798D01*
X104067959Y-136682116D01*
X104138164Y-136675802D01*
X104231775Y-136671474D01*
X104355114Y-136668752D01*
X104514504Y-136667254D01*
X104716269Y-136666599D01*
X104966731Y-136666406D01*
X105030515Y-136666387D01*
X106019807Y-136666112D01*
X106164162Y-136738047D01*
G37*
X106164162Y-136738047D02*
X106321687Y-136846139D01*
X106437341Y-136991905D01*
X106500182Y-137139135D01*
X106512565Y-137210607D01*
X106522771Y-137329511D01*
X106530807Y-137486879D01*
X106536677Y-137673741D01*
X106540387Y-137881126D01*
X106541943Y-138100066D01*
X106541350Y-138321590D01*
X106538613Y-138536730D01*
X106533738Y-138736515D01*
X106526731Y-138911977D01*
X106517597Y-139054145D01*
X106506341Y-139154050D01*
X106498935Y-139188787D01*
X106422715Y-139360619D01*
X106307007Y-139493723D01*
X106167248Y-139584194D01*
X106019807Y-139657667D01*
X105030515Y-139655439D01*
X104749608Y-139653939D01*
X104504470Y-139650858D01*
X104299102Y-139646314D01*
X104137502Y-139640426D01*
X104023670Y-139633312D01*
X103961605Y-139625091D01*
X103956556Y-139623615D01*
X103803728Y-139541563D01*
X103671881Y-139413254D01*
X103611463Y-139325100D01*
X103533223Y-139192000D01*
X103524794Y-138226449D01*
X103523200Y-137934625D01*
X103523806Y-137683267D01*
X103526547Y-137475638D01*
X103531359Y-137314999D01*
X103538178Y-137204612D01*
X103545877Y-137151299D01*
X103617375Y-136987534D01*
X103731970Y-136846661D01*
X103877411Y-136743303D01*
X103894738Y-136734865D01*
X103934550Y-136716792D01*
X103972475Y-136702230D01*
X104014837Y-136690798D01*
X104067959Y-136682116D01*
X104138164Y-136675802D01*
X104231775Y-136671474D01*
X104355114Y-136668752D01*
X104514504Y-136667254D01*
X104716269Y-136666599D01*
X104966731Y-136666406D01*
X105030515Y-136666387D01*
X106019807Y-136666112D01*
X106164162Y-136738047D01*
G36*
X120887520Y-139013215D02*
G01*
X121117922Y-139015236D01*
X121303092Y-139018932D01*
X121439818Y-139024249D01*
X121524890Y-139031134D01*
X121546625Y-139035032D01*
X121633508Y-139074104D01*
X121722720Y-139137424D01*
X121749261Y-139162327D01*
X121810907Y-139236905D01*
X121842536Y-139312954D01*
X121855674Y-139409817D01*
X121844480Y-139563427D01*
X121784852Y-139688704D01*
X121675184Y-139788830D01*
X121659203Y-139798931D01*
X121634616Y-139812588D01*
X121606275Y-139823831D01*
X121568787Y-139832893D01*
X121516758Y-139840010D01*
X121444793Y-139845414D01*
X121347498Y-139849341D01*
X121219481Y-139852024D01*
X121055347Y-139853699D01*
X120849702Y-139854598D01*
X120597153Y-139854957D01*
X120367778Y-139855012D01*
X120075511Y-139854909D01*
X119834295Y-139854446D01*
X119638735Y-139853389D01*
X119483438Y-139851502D01*
X119363009Y-139848551D01*
X119272056Y-139844303D01*
X119205184Y-139838524D01*
X119156998Y-139830978D01*
X119122107Y-139821432D01*
X119095114Y-139809651D01*
X119076354Y-139798931D01*
X118960195Y-139700340D01*
X118894490Y-139576502D01*
X118878705Y-139426375D01*
X118879385Y-139415811D01*
X118911576Y-139266619D01*
X118986819Y-139150585D01*
X119083667Y-139074438D01*
X119108521Y-139061425D01*
X119140165Y-139050693D01*
X119184106Y-139041971D01*
X119245850Y-139034989D01*
X119330905Y-139029475D01*
X119444776Y-139025158D01*
X119592972Y-139021768D01*
X119780998Y-139019034D01*
X120014361Y-139016684D01*
X120298568Y-139014449D01*
X120303857Y-139014410D01*
X120615094Y-139012922D01*
X120887520Y-139013215D01*
G37*
X120887520Y-139013215D02*
X121117922Y-139015236D01*
X121303092Y-139018932D01*
X121439818Y-139024249D01*
X121524890Y-139031134D01*
X121546625Y-139035032D01*
X121633508Y-139074104D01*
X121722720Y-139137424D01*
X121749261Y-139162327D01*
X121810907Y-139236905D01*
X121842536Y-139312954D01*
X121855674Y-139409817D01*
X121844480Y-139563427D01*
X121784852Y-139688704D01*
X121675184Y-139788830D01*
X121659203Y-139798931D01*
X121634616Y-139812588D01*
X121606275Y-139823831D01*
X121568787Y-139832893D01*
X121516758Y-139840010D01*
X121444793Y-139845414D01*
X121347498Y-139849341D01*
X121219481Y-139852024D01*
X121055347Y-139853699D01*
X120849702Y-139854598D01*
X120597153Y-139854957D01*
X120367778Y-139855012D01*
X120075511Y-139854909D01*
X119834295Y-139854446D01*
X119638735Y-139853389D01*
X119483438Y-139851502D01*
X119363009Y-139848551D01*
X119272056Y-139844303D01*
X119205184Y-139838524D01*
X119156998Y-139830978D01*
X119122107Y-139821432D01*
X119095114Y-139809651D01*
X119076354Y-139798931D01*
X118960195Y-139700340D01*
X118894490Y-139576502D01*
X118878705Y-139426375D01*
X118879385Y-139415811D01*
X118911576Y-139266619D01*
X118986819Y-139150585D01*
X119083667Y-139074438D01*
X119108521Y-139061425D01*
X119140165Y-139050693D01*
X119184106Y-139041971D01*
X119245850Y-139034989D01*
X119330905Y-139029475D01*
X119444776Y-139025158D01*
X119592972Y-139021768D01*
X119780998Y-139019034D01*
X120014361Y-139016684D01*
X120298568Y-139014449D01*
X120303857Y-139014410D01*
X120615094Y-139012922D01*
X120887520Y-139013215D01*
G36*
X120387987Y-136195069D02*
G01*
X120489114Y-136249559D01*
X120505241Y-136263945D01*
X120538163Y-136306157D01*
X120595015Y-136391348D01*
X120672006Y-136513330D01*
X120765341Y-136665913D01*
X120871230Y-136842908D01*
X120985879Y-137038128D01*
X121088920Y-137216445D01*
X121211067Y-137429359D01*
X121329606Y-137635865D01*
X121440286Y-137828569D01*
X121538858Y-138000077D01*
X121621075Y-138142995D01*
X121682685Y-138249931D01*
X121713012Y-138302410D01*
X121789569Y-138448347D01*
X121828495Y-138562449D01*
X121830575Y-138654238D01*
X121796594Y-138733231D01*
X121752838Y-138784949D01*
X121670342Y-138867445D01*
X119017442Y-138867445D01*
X118930610Y-138794381D01*
X118893730Y-138761766D01*
X118865669Y-138729482D01*
X118848179Y-138693112D01*
X118843010Y-138648243D01*
X118851916Y-138590457D01*
X118876647Y-138515342D01*
X118918955Y-138418480D01*
X118980593Y-138295457D01*
X119063311Y-138141858D01*
X119168862Y-137953267D01*
X119298997Y-137725270D01*
X119455468Y-137453451D01*
X119478391Y-137413700D01*
X119611724Y-137183870D01*
X119738752Y-136967500D01*
X119856263Y-136769877D01*
X119961045Y-136596287D01*
X120049886Y-136452016D01*
X120119575Y-136342350D01*
X120166900Y-136272577D01*
X120185521Y-136249834D01*
X120284345Y-136195052D01*
X120387987Y-136195069D01*
G37*
X120387987Y-136195069D02*
X120489114Y-136249559D01*
X120505241Y-136263945D01*
X120538163Y-136306157D01*
X120595015Y-136391348D01*
X120672006Y-136513330D01*
X120765341Y-136665913D01*
X120871230Y-136842908D01*
X120985879Y-137038128D01*
X121088920Y-137216445D01*
X121211067Y-137429359D01*
X121329606Y-137635865D01*
X121440286Y-137828569D01*
X121538858Y-138000077D01*
X121621075Y-138142995D01*
X121682685Y-138249931D01*
X121713012Y-138302410D01*
X121789569Y-138448347D01*
X121828495Y-138562449D01*
X121830575Y-138654238D01*
X121796594Y-138733231D01*
X121752838Y-138784949D01*
X121670342Y-138867445D01*
X119017442Y-138867445D01*
X118930610Y-138794381D01*
X118893730Y-138761766D01*
X118865669Y-138729482D01*
X118848179Y-138693112D01*
X118843010Y-138648243D01*
X118851916Y-138590457D01*
X118876647Y-138515342D01*
X118918955Y-138418480D01*
X118980593Y-138295457D01*
X119063311Y-138141858D01*
X119168862Y-137953267D01*
X119298997Y-137725270D01*
X119455468Y-137453451D01*
X119478391Y-137413700D01*
X119611724Y-137183870D01*
X119738752Y-136967500D01*
X119856263Y-136769877D01*
X119961045Y-136596287D01*
X120049886Y-136452016D01*
X120119575Y-136342350D01*
X120166900Y-136272577D01*
X120185521Y-136249834D01*
X120284345Y-136195052D01*
X120387987Y-136195069D01*
G36*
X146691407Y-136652228D02*
G01*
X146956698Y-136653216D01*
X147175314Y-136655420D01*
X147352139Y-136659296D01*
X147492057Y-136665301D01*
X147599952Y-136673890D01*
X147680708Y-136685521D01*
X147739209Y-136700649D01*
X147780341Y-136719730D01*
X147808986Y-136743220D01*
X147830028Y-136771577D01*
X147839840Y-136788867D01*
X147856510Y-136824601D01*
X147866123Y-136861916D01*
X147866614Y-136905360D01*
X147855920Y-136959481D01*
X147831979Y-137028825D01*
X147792728Y-137117940D01*
X147736103Y-137231372D01*
X147660041Y-137373670D01*
X147562480Y-137549379D01*
X147441355Y-137763048D01*
X147294605Y-138019224D01*
X147233030Y-138126336D01*
X147100112Y-138356338D01*
X146974075Y-138572360D01*
X146858026Y-138769221D01*
X146755075Y-138941742D01*
X146668329Y-139084743D01*
X146600898Y-139193044D01*
X146555889Y-139261465D01*
X146538459Y-139283723D01*
X146463884Y-139318820D01*
X146364619Y-139331601D01*
X146268565Y-139320238D01*
X146228842Y-139304001D01*
X146194791Y-139268430D01*
X146142558Y-139195855D01*
X146080883Y-139098884D01*
X146048442Y-139043804D01*
X146002766Y-138964366D01*
X145933103Y-138843523D01*
X145843751Y-138688714D01*
X145739008Y-138507380D01*
X145623171Y-138306963D01*
X145500538Y-138094902D01*
X145396878Y-137915739D01*
X145254931Y-137669654D01*
X145139545Y-137466998D01*
X145048505Y-137302645D01*
X144979590Y-137171470D01*
X144930583Y-137068344D01*
X144899266Y-136988143D01*
X144883421Y-136925740D01*
X144880829Y-136876009D01*
X144889273Y-136833823D01*
X144906534Y-136794056D01*
X144909272Y-136788867D01*
X144928256Y-136757726D01*
X144952234Y-136731694D01*
X144986091Y-136710315D01*
X145034711Y-136693134D01*
X145102977Y-136679693D01*
X145195774Y-136669536D01*
X145317987Y-136662208D01*
X145474499Y-136657252D01*
X145670194Y-136654212D01*
X145909957Y-136652632D01*
X146198671Y-136652055D01*
X146374556Y-136652000D01*
X146691407Y-136652228D01*
G37*
X146691407Y-136652228D02*
X146956698Y-136653216D01*
X147175314Y-136655420D01*
X147352139Y-136659296D01*
X147492057Y-136665301D01*
X147599952Y-136673890D01*
X147680708Y-136685521D01*
X147739209Y-136700649D01*
X147780341Y-136719730D01*
X147808986Y-136743220D01*
X147830028Y-136771577D01*
X147839840Y-136788867D01*
X147856510Y-136824601D01*
X147866123Y-136861916D01*
X147866614Y-136905360D01*
X147855920Y-136959481D01*
X147831979Y-137028825D01*
X147792728Y-137117940D01*
X147736103Y-137231372D01*
X147660041Y-137373670D01*
X147562480Y-137549379D01*
X147441355Y-137763048D01*
X147294605Y-138019224D01*
X147233030Y-138126336D01*
X147100112Y-138356338D01*
X146974075Y-138572360D01*
X146858026Y-138769221D01*
X146755075Y-138941742D01*
X146668329Y-139084743D01*
X146600898Y-139193044D01*
X146555889Y-139261465D01*
X146538459Y-139283723D01*
X146463884Y-139318820D01*
X146364619Y-139331601D01*
X146268565Y-139320238D01*
X146228842Y-139304001D01*
X146194791Y-139268430D01*
X146142558Y-139195855D01*
X146080883Y-139098884D01*
X146048442Y-139043804D01*
X146002766Y-138964366D01*
X145933103Y-138843523D01*
X145843751Y-138688714D01*
X145739008Y-138507380D01*
X145623171Y-138306963D01*
X145500538Y-138094902D01*
X145396878Y-137915739D01*
X145254931Y-137669654D01*
X145139545Y-137466998D01*
X145048505Y-137302645D01*
X144979590Y-137171470D01*
X144930583Y-137068344D01*
X144899266Y-136988143D01*
X144883421Y-136925740D01*
X144880829Y-136876009D01*
X144889273Y-136833823D01*
X144906534Y-136794056D01*
X144909272Y-136788867D01*
X144928256Y-136757726D01*
X144952234Y-136731694D01*
X144986091Y-136710315D01*
X145034711Y-136693134D01*
X145102977Y-136679693D01*
X145195774Y-136669536D01*
X145317987Y-136662208D01*
X145474499Y-136657252D01*
X145670194Y-136654212D01*
X145909957Y-136652632D01*
X146198671Y-136652055D01*
X146374556Y-136652000D01*
X146691407Y-136652228D01*
D18*
X143240000Y-116955000D02*
X140040000Y-116955000D01*
X140040000Y-115455000D02*
X143240000Y-115455000D01*
X140040000Y-115455000D02*
X140040000Y-116955000D01*
X134985000Y-116955000D02*
X131785000Y-116955000D01*
X131785000Y-115455000D02*
X134985000Y-115455000D01*
X131785000Y-115455000D02*
X131785000Y-116955000D01*
X126095000Y-116955000D02*
X122895000Y-116955000D01*
X122895000Y-115455000D02*
X126095000Y-115455000D01*
X122895000Y-115455000D02*
X122895000Y-116955000D01*
X117205000Y-116955000D02*
X114005000Y-116955000D01*
X114005000Y-115455000D02*
X117205000Y-115455000D01*
X114005000Y-115455000D02*
X114005000Y-116955000D01*
X107680000Y-116955000D02*
X104480000Y-116955000D01*
X104480000Y-115455000D02*
X107680000Y-115455000D01*
X104480000Y-115455000D02*
X104480000Y-116955000D01*
X99425000Y-116955000D02*
X96225000Y-116955000D01*
X96225000Y-115455000D02*
X99425000Y-115455000D01*
X96225000Y-115455000D02*
X96225000Y-116955000D01*
X90873254Y-113643135D02*
X88816334Y-111191793D01*
X89965401Y-110227612D02*
X92022321Y-112678954D01*
X89965401Y-110227612D02*
X88816334Y-111191793D01*
X89587679Y-101248954D02*
X91644599Y-98797612D01*
X92793666Y-99761793D02*
X90736746Y-102213135D01*
X92793666Y-99761793D02*
X91644599Y-98797612D01*
D15*
X143510000Y-120904000D02*
X148082000Y-120904000D01*
X134366000Y-123444000D02*
X137414000Y-118364000D01*
X148082000Y-120904000D02*
X149606000Y-118364000D01*
X134366000Y-123444000D02*
X139954000Y-123444000D01*
X149606000Y-118364000D02*
X137414000Y-118364000D01*
D19*
G36*
X135373987Y-136703069D02*
G01*
X135475114Y-136757559D01*
X135491241Y-136771945D01*
X135524163Y-136814157D01*
X135581015Y-136899348D01*
X135658006Y-137021330D01*
X135751341Y-137173913D01*
X135857230Y-137350908D01*
X135971879Y-137546128D01*
X136074920Y-137724445D01*
X136197067Y-137937359D01*
X136315606Y-138143865D01*
X136426286Y-138336569D01*
X136524858Y-138508077D01*
X136607075Y-138650995D01*
X136668685Y-138757931D01*
X136699012Y-138810410D01*
X136775569Y-138956347D01*
X136814495Y-139070449D01*
X136816575Y-139162238D01*
X136782594Y-139241231D01*
X136738838Y-139292949D01*
X136656342Y-139375445D01*
X134003442Y-139375445D01*
X133916610Y-139302381D01*
X133879730Y-139269766D01*
X133851669Y-139237482D01*
X133834179Y-139201112D01*
X133829010Y-139156243D01*
X133837916Y-139098457D01*
X133862647Y-139023342D01*
X133904955Y-138926480D01*
X133966593Y-138803457D01*
X134049311Y-138649858D01*
X134154862Y-138461267D01*
X134284997Y-138233270D01*
X134441468Y-137961451D01*
X134464391Y-137921700D01*
X134597724Y-137691870D01*
X134724752Y-137475500D01*
X134842263Y-137277877D01*
X134947045Y-137104287D01*
X135035886Y-136960016D01*
X135105575Y-136850350D01*
X135152900Y-136780577D01*
X135171521Y-136757834D01*
X135270345Y-136703052D01*
X135373987Y-136703069D01*
G37*
X135373987Y-136703069D02*
X135475114Y-136757559D01*
X135491241Y-136771945D01*
X135524163Y-136814157D01*
X135581015Y-136899348D01*
X135658006Y-137021330D01*
X135751341Y-137173913D01*
X135857230Y-137350908D01*
X135971879Y-137546128D01*
X136074920Y-137724445D01*
X136197067Y-137937359D01*
X136315606Y-138143865D01*
X136426286Y-138336569D01*
X136524858Y-138508077D01*
X136607075Y-138650995D01*
X136668685Y-138757931D01*
X136699012Y-138810410D01*
X136775569Y-138956347D01*
X136814495Y-139070449D01*
X136816575Y-139162238D01*
X136782594Y-139241231D01*
X136738838Y-139292949D01*
X136656342Y-139375445D01*
X134003442Y-139375445D01*
X133916610Y-139302381D01*
X133879730Y-139269766D01*
X133851669Y-139237482D01*
X133834179Y-139201112D01*
X133829010Y-139156243D01*
X133837916Y-139098457D01*
X133862647Y-139023342D01*
X133904955Y-138926480D01*
X133966593Y-138803457D01*
X134049311Y-138649858D01*
X134154862Y-138461267D01*
X134284997Y-138233270D01*
X134441468Y-137961451D01*
X134464391Y-137921700D01*
X134597724Y-137691870D01*
X134724752Y-137475500D01*
X134842263Y-137277877D01*
X134947045Y-137104287D01*
X135035886Y-136960016D01*
X135105575Y-136850350D01*
X135152900Y-136780577D01*
X135171521Y-136757834D01*
X135270345Y-136703052D01*
X135373987Y-136703069D01*
D18*
X97425000Y-96405000D02*
X100625000Y-96405000D01*
X100625000Y-97905000D02*
X97425000Y-97905000D01*
X100625000Y-97905000D02*
X100625000Y-96405000D01*
X105680000Y-96405000D02*
X108880000Y-96405000D01*
X108880000Y-97905000D02*
X105680000Y-97905000D01*
X108880000Y-97905000D02*
X108880000Y-96405000D01*
X115205000Y-96405000D02*
X118405000Y-96405000D01*
X118405000Y-97905000D02*
X115205000Y-97905000D01*
X118405000Y-97905000D02*
X118405000Y-96405000D01*
X124095000Y-96405000D02*
X127295000Y-96405000D01*
X127295000Y-97905000D02*
X124095000Y-97905000D01*
X127295000Y-97905000D02*
X127295000Y-96405000D01*
X132985000Y-96405000D02*
X136185000Y-96405000D01*
X136185000Y-97905000D02*
X132985000Y-97905000D01*
X136185000Y-97905000D02*
X136185000Y-96405000D01*
X141240000Y-96405000D02*
X144440000Y-96405000D01*
X144440000Y-97905000D02*
X141240000Y-97905000D01*
X144440000Y-97905000D02*
X144440000Y-96405000D01*
X149791746Y-99716865D02*
X151848666Y-102168207D01*
X150699599Y-103132388D02*
X148642679Y-100681046D01*
X150699599Y-103132388D02*
X151848666Y-102168207D01*
X151108135Y-112326746D02*
X148656793Y-114383666D01*
X147692612Y-113234599D02*
X150143954Y-111177679D01*
X147692612Y-113234599D02*
X148656793Y-114383666D01*
D15*
X72056666Y-92372380D02*
X72056666Y-93086666D01*
X72009047Y-93229523D01*
X71913809Y-93324761D01*
X71770952Y-93372380D01*
X71675714Y-93372380D01*
X72485238Y-92467619D02*
X72532857Y-92420000D01*
X72628095Y-92372380D01*
X72866190Y-92372380D01*
X72961428Y-92420000D01*
X73009047Y-92467619D01*
X73056666Y-92562857D01*
X73056666Y-92658095D01*
X73009047Y-92800952D01*
X72437619Y-93372380D01*
X73056666Y-93372380D01*
X140096026Y-121332761D02*
X140322217Y-123332761D01*
X140881741Y-121904190D01*
X141084122Y-123332761D01*
X141810312Y-121332761D01*
X142298407Y-122761333D02*
X143250788Y-122761333D01*
X142036502Y-123332761D02*
X142953169Y-121332761D01*
X143369836Y-123332761D01*
X144000788Y-121332761D02*
X144417455Y-123332761D01*
X145334122Y-121332761D01*
X145881741Y-122285142D02*
X146548407Y-122285142D01*
X146703169Y-123332761D02*
X145750788Y-123332761D01*
X146000788Y-121332761D01*
X146953169Y-121332761D01*
X137988502Y-119649904D02*
X137809931Y-119554666D01*
X137726598Y-119459428D01*
X137655169Y-119268952D01*
X137667074Y-119173714D01*
X137786122Y-118983238D01*
X137893264Y-118888000D01*
X138095645Y-118792761D01*
X138476598Y-118792761D01*
X138655169Y-118888000D01*
X138738502Y-118983238D01*
X138809931Y-119173714D01*
X138798026Y-119268952D01*
X138678979Y-119459428D01*
X138571836Y-119554666D01*
X138369455Y-119649904D01*
X137988502Y-119649904D01*
X137786122Y-119745142D01*
X137678979Y-119840380D01*
X137559931Y-120030857D01*
X137512312Y-120411809D01*
X137583741Y-120602285D01*
X137667074Y-120697523D01*
X137845645Y-120792761D01*
X138226598Y-120792761D01*
X138428979Y-120697523D01*
X138536122Y-120602285D01*
X138655169Y-120411809D01*
X138702788Y-120030857D01*
X138631360Y-119840380D01*
X138548026Y-119745142D01*
X138369455Y-119649904D01*
X140262312Y-119745142D02*
X140536122Y-119840380D01*
X140619455Y-119935619D01*
X140690883Y-120126095D01*
X140655169Y-120411809D01*
X140536122Y-120602285D01*
X140428979Y-120697523D01*
X140226598Y-120792761D01*
X139464693Y-120792761D01*
X139714693Y-118792761D01*
X140381360Y-118792761D01*
X140559931Y-118888000D01*
X140643264Y-118983238D01*
X140714693Y-119173714D01*
X140690883Y-119364190D01*
X140571836Y-119554666D01*
X140464693Y-119649904D01*
X140262312Y-119745142D01*
X139595645Y-119745142D01*
X141464693Y-120792761D02*
X141714693Y-118792761D01*
X142381360Y-118792761D02*
X143524217Y-118792761D01*
X142702788Y-120792761D02*
X142952788Y-118792761D01*
M02*
