G04 #@! TF.FileFunction,Soldermask,Bot*
%FSLAX46Y46*%
G04 Gerber Fmt 4.6, Leading zero omitted, Abs format (unit mm)*
G04 Created by KiCad (PCBNEW 4.0.7) date 02/09/20 20:32:47*
%MOMM*%
%LPD*%
G01*
G04 APERTURE LIST*
%ADD10C,0.100000*%
%ADD11C,2.900000*%
%ADD12R,1.924000X1.924000*%
%ADD13C,1.924000*%
%ADD14R,1.543000X0.908000*%
%ADD15R,2.100000X2.100000*%
%ADD16O,2.100000X2.100000*%
%ADD17C,5.400000*%
%ADD18R,1.900000X1.650000*%
%ADD19R,2.000000X3.900000*%
%ADD20R,1.900000X1.700000*%
%ADD21R,1.700000X1.900000*%
G04 APERTURE END LIST*
D10*
D11*
X132085000Y-118480000D03*
X108585000Y-118480000D03*
X132085000Y-94680000D03*
D12*
X116525000Y-93980000D03*
D13*
X119065000Y-93980000D03*
X121605000Y-93980000D03*
X124145000Y-93980000D03*
D11*
X108585000Y-94680000D03*
D14*
X74295000Y-120650000D03*
X74295000Y-123190000D03*
X74295000Y-124460000D03*
X74295000Y-125730000D03*
X74295000Y-127000000D03*
X74295000Y-128270000D03*
X74295000Y-129540000D03*
X80645000Y-129540000D03*
X80645000Y-128270000D03*
X80645000Y-127000000D03*
X80645000Y-125730000D03*
X80645000Y-124460000D03*
X80645000Y-123190000D03*
X80645000Y-121920000D03*
X80645000Y-120650000D03*
X74295000Y-121920000D03*
D15*
X168275000Y-95250000D03*
D16*
X168275000Y-97790000D03*
X168275000Y-100330000D03*
X168275000Y-102870000D03*
X168275000Y-105410000D03*
X168275000Y-107950000D03*
X168275000Y-110490000D03*
D17*
X73660000Y-139065000D03*
X167005000Y-139065000D03*
X167005000Y-81280000D03*
X73660000Y-81280000D03*
D15*
X168275000Y-113030000D03*
D16*
X168275000Y-115570000D03*
X168275000Y-118110000D03*
D18*
X76220000Y-118110000D03*
X78720000Y-118110000D03*
X78720000Y-112395000D03*
X76220000Y-112395000D03*
D19*
X166370000Y-124935000D03*
X166370000Y-130335000D03*
D20*
X140890000Y-118745000D03*
X143590000Y-118745000D03*
X132635000Y-123190000D03*
X135335000Y-123190000D03*
X123745000Y-123190000D03*
X126445000Y-123190000D03*
X114855000Y-123190000D03*
X117555000Y-123190000D03*
X105330000Y-123190000D03*
X108030000Y-123190000D03*
X97075000Y-118745000D03*
X99775000Y-118745000D03*
D21*
X86995000Y-111045000D03*
X86995000Y-113745000D03*
X86995000Y-99615000D03*
X86995000Y-102315000D03*
D20*
X99775000Y-94615000D03*
X97075000Y-94615000D03*
X108030000Y-90170000D03*
X105330000Y-90170000D03*
X117555000Y-90170000D03*
X114855000Y-90170000D03*
X123745000Y-90170000D03*
X126445000Y-90170000D03*
X135335000Y-90170000D03*
X132635000Y-90170000D03*
X143590000Y-94615000D03*
X140890000Y-94615000D03*
D21*
X153670000Y-102315000D03*
X153670000Y-99615000D03*
X153670000Y-113745000D03*
X153670000Y-111045000D03*
D14*
X80645000Y-109855000D03*
X80645000Y-107315000D03*
X80645000Y-106045000D03*
X80645000Y-104775000D03*
X80645000Y-103505000D03*
X80645000Y-102235000D03*
X80645000Y-100965000D03*
X74295000Y-100965000D03*
X74295000Y-102235000D03*
X74295000Y-103505000D03*
X74295000Y-104775000D03*
X74295000Y-106045000D03*
X74295000Y-107315000D03*
X74295000Y-108585000D03*
X74295000Y-109855000D03*
X80645000Y-108585000D03*
M02*
