G04 #@! TF.FileFunction,Copper,L2,Bot,Signal*
%FSLAX46Y46*%
G04 Gerber Fmt 4.6, Leading zero omitted, Abs format (unit mm)*
G04 Created by KiCad (PCBNEW 4.0.7) date 02/09/20 20:32:47*
%MOMM*%
%LPD*%
G01*
G04 APERTURE LIST*
%ADD10C,0.100000*%
%ADD11C,2.500000*%
%ADD12R,1.524000X1.524000*%
%ADD13C,1.524000*%
%ADD14R,1.143000X0.508000*%
%ADD15R,1.700000X1.700000*%
%ADD16O,1.700000X1.700000*%
%ADD17C,5.000000*%
%ADD18R,1.500000X1.250000*%
%ADD19R,1.600000X3.500000*%
%ADD20R,1.500000X1.300000*%
%ADD21R,1.300000X1.500000*%
%ADD22C,0.600000*%
%ADD23C,0.250000*%
%ADD24C,0.254000*%
G04 APERTURE END LIST*
D10*
D11*
X132085000Y-118480000D03*
X108585000Y-118480000D03*
X132085000Y-94680000D03*
D12*
X116525000Y-93980000D03*
D13*
X119065000Y-93980000D03*
X121605000Y-93980000D03*
X124145000Y-93980000D03*
D11*
X108585000Y-94680000D03*
D14*
X74295000Y-120650000D03*
X74295000Y-123190000D03*
X74295000Y-124460000D03*
X74295000Y-125730000D03*
X74295000Y-127000000D03*
X74295000Y-128270000D03*
X74295000Y-129540000D03*
X80645000Y-129540000D03*
X80645000Y-128270000D03*
X80645000Y-127000000D03*
X80645000Y-125730000D03*
X80645000Y-124460000D03*
X80645000Y-123190000D03*
X80645000Y-121920000D03*
X80645000Y-120650000D03*
X74295000Y-121920000D03*
D15*
X168275000Y-95250000D03*
D16*
X168275000Y-97790000D03*
X168275000Y-100330000D03*
X168275000Y-102870000D03*
X168275000Y-105410000D03*
X168275000Y-107950000D03*
X168275000Y-110490000D03*
D17*
X73660000Y-139065000D03*
X167005000Y-139065000D03*
X167005000Y-81280000D03*
X73660000Y-81280000D03*
D15*
X168275000Y-113030000D03*
D16*
X168275000Y-115570000D03*
X168275000Y-118110000D03*
D18*
X76220000Y-118110000D03*
X78720000Y-118110000D03*
X78720000Y-112395000D03*
X76220000Y-112395000D03*
D19*
X166370000Y-124935000D03*
X166370000Y-130335000D03*
D20*
X140890000Y-118745000D03*
X143590000Y-118745000D03*
X132635000Y-123190000D03*
X135335000Y-123190000D03*
X123745000Y-123190000D03*
X126445000Y-123190000D03*
X114855000Y-123190000D03*
X117555000Y-123190000D03*
X105330000Y-123190000D03*
X108030000Y-123190000D03*
X97075000Y-118745000D03*
X99775000Y-118745000D03*
D21*
X86995000Y-111045000D03*
X86995000Y-113745000D03*
X86995000Y-99615000D03*
X86995000Y-102315000D03*
D20*
X99775000Y-94615000D03*
X97075000Y-94615000D03*
X108030000Y-90170000D03*
X105330000Y-90170000D03*
X117555000Y-90170000D03*
X114855000Y-90170000D03*
X123745000Y-90170000D03*
X126445000Y-90170000D03*
X135335000Y-90170000D03*
X132635000Y-90170000D03*
X143590000Y-94615000D03*
X140890000Y-94615000D03*
D21*
X153670000Y-102315000D03*
X153670000Y-99615000D03*
X153670000Y-113745000D03*
X153670000Y-111045000D03*
D14*
X80645000Y-109855000D03*
X80645000Y-107315000D03*
X80645000Y-106045000D03*
X80645000Y-104775000D03*
X80645000Y-103505000D03*
X80645000Y-102235000D03*
X80645000Y-100965000D03*
X74295000Y-100965000D03*
X74295000Y-102235000D03*
X74295000Y-103505000D03*
X74295000Y-104775000D03*
X74295000Y-106045000D03*
X74295000Y-107315000D03*
X74295000Y-108585000D03*
X74295000Y-109855000D03*
X80645000Y-108585000D03*
D22*
X130810000Y-116205000D03*
X92710000Y-98425000D03*
X101600000Y-97155000D03*
X88900000Y-109855000D03*
X95250000Y-115570000D03*
X109855000Y-97155000D03*
X103505000Y-116205000D03*
X113030000Y-116205000D03*
X121920000Y-116205000D03*
X119380000Y-97155000D03*
X128270000Y-97155000D03*
X137160000Y-97155000D03*
X147955000Y-114935000D03*
X145415000Y-97790000D03*
X151765000Y-103505000D03*
X139065000Y-116205000D03*
X164465000Y-92075000D03*
X125095000Y-91440000D03*
X163830000Y-92710000D03*
X122555000Y-92075000D03*
X163195000Y-93345000D03*
X81915000Y-102870000D03*
X77470000Y-113665000D03*
X75565000Y-120650000D03*
X152400000Y-136525000D03*
X73025000Y-128905000D03*
X83820000Y-136525000D03*
X164465000Y-125095000D03*
X145415000Y-116840000D03*
X137160000Y-116840000D03*
X77470000Y-120015000D03*
X84455000Y-135890000D03*
X151765000Y-135890000D03*
X165100000Y-91440000D03*
X83185000Y-103505000D03*
X73025000Y-126365000D03*
X165735000Y-99060000D03*
X165735000Y-90805000D03*
X165735000Y-102235000D03*
X82550000Y-104775000D03*
X72390000Y-125095000D03*
X76200000Y-120015000D03*
X85090000Y-135255000D03*
X78740000Y-134620000D03*
X79375000Y-120650000D03*
X128270000Y-116840000D03*
X119380000Y-116840000D03*
X110490000Y-116840000D03*
X101600000Y-116840000D03*
X88900000Y-114300000D03*
X88900000Y-103505000D03*
X79375000Y-133985000D03*
X79375000Y-121920000D03*
X82550000Y-107950000D03*
X72390000Y-129540000D03*
X95250000Y-97155000D03*
X103505000Y-96520000D03*
X113030000Y-96520000D03*
X125730000Y-95250000D03*
X130175000Y-96520000D03*
X139065000Y-96520000D03*
X147955000Y-98425000D03*
X151765000Y-109855000D03*
X76200000Y-107950000D03*
X80645000Y-88900000D03*
X79375000Y-101600000D03*
X75565000Y-109855000D03*
X78740000Y-100965000D03*
X75565000Y-108585000D03*
D23*
X165735000Y-105410000D02*
X165100000Y-105410000D01*
X164465000Y-104775000D02*
X164465000Y-92075000D01*
X165100000Y-105410000D02*
X164465000Y-104775000D01*
X124145000Y-93980000D02*
X124145000Y-92390000D01*
X124145000Y-92390000D02*
X125095000Y-91440000D01*
X165735000Y-105410000D02*
X168275000Y-105410000D01*
X165735000Y-107950000D02*
X164465000Y-107950000D01*
X163830000Y-107315000D02*
X164465000Y-107950000D01*
X163830000Y-107315000D02*
X163830000Y-92710000D01*
X121605000Y-93980000D02*
X121605000Y-93025000D01*
X121605000Y-93025000D02*
X122555000Y-92075000D01*
X165735000Y-107950000D02*
X168275000Y-107950000D01*
X168275000Y-113030000D02*
X169545000Y-113030000D01*
X163195000Y-108585000D02*
X163830000Y-109220000D01*
X169545000Y-114935000D02*
X168910000Y-115570000D01*
X169545000Y-109855000D02*
X169545000Y-113030000D01*
X169545000Y-113030000D02*
X169545000Y-114935000D01*
X168910000Y-109220000D02*
X169545000Y-109855000D01*
X163830000Y-109220000D02*
X168910000Y-109220000D01*
X168910000Y-115570000D02*
X168275000Y-115570000D01*
X163195000Y-108585000D02*
X163195000Y-93345000D01*
X81280000Y-102235000D02*
X80645000Y-102235000D01*
X81915000Y-102870000D02*
X81280000Y-102235000D01*
X77470000Y-113665000D02*
X77470000Y-113645000D01*
X77470000Y-113645000D02*
X78720000Y-112395000D01*
X78740000Y-112415000D02*
X78720000Y-112395000D01*
X75565000Y-120650000D02*
X74295000Y-120650000D01*
X166370000Y-124935000D02*
X164625000Y-124935000D01*
X142875000Y-136525000D02*
X97155000Y-136525000D01*
X73660000Y-128270000D02*
X73025000Y-128905000D01*
X73660000Y-128270000D02*
X74295000Y-128270000D01*
X83820000Y-136525000D02*
X97155000Y-136525000D01*
X142875000Y-136525000D02*
X152400000Y-136525000D01*
X164625000Y-124935000D02*
X164465000Y-125095000D01*
X74295000Y-120650000D02*
X74295000Y-118745000D01*
X74295000Y-118745000D02*
X74930000Y-118110000D01*
X74930000Y-118110000D02*
X76220000Y-118110000D01*
X80645000Y-109855000D02*
X80645000Y-111760000D01*
X80645000Y-111760000D02*
X80010000Y-112395000D01*
X80010000Y-112395000D02*
X78720000Y-112395000D01*
X168275000Y-118110000D02*
X168275000Y-124460000D01*
X167800000Y-124935000D02*
X166370000Y-124935000D01*
X168275000Y-124460000D02*
X167800000Y-124935000D01*
X144780000Y-118745000D02*
X143590000Y-118745000D01*
X145415000Y-118110000D02*
X144780000Y-118745000D01*
X145415000Y-116840000D02*
X145415000Y-118110000D01*
X136525000Y-123190000D02*
X135335000Y-123190000D01*
X137160000Y-122555000D02*
X136525000Y-123190000D01*
X137160000Y-116840000D02*
X137160000Y-122555000D01*
X141605000Y-135890000D02*
X151765000Y-135890000D01*
X76200000Y-123190000D02*
X76835000Y-122555000D01*
X76835000Y-122555000D02*
X76835000Y-120650000D01*
X76835000Y-120650000D02*
X77470000Y-120015000D01*
X74295000Y-123190000D02*
X76200000Y-123190000D01*
X84455000Y-135890000D02*
X92075000Y-135890000D01*
X141605000Y-135890000D02*
X92075000Y-135890000D01*
X165100000Y-99695000D02*
X165100000Y-91440000D01*
X165735000Y-100330000D02*
X168275000Y-100330000D01*
X165100000Y-99695000D02*
X165735000Y-100330000D01*
X83185000Y-103505000D02*
X82550000Y-103505000D01*
X80645000Y-103505000D02*
X82550000Y-103505000D01*
X73660000Y-127000000D02*
X74295000Y-127000000D01*
X73025000Y-126365000D02*
X73660000Y-127000000D01*
X165735000Y-99060000D02*
X165735000Y-90805000D01*
X166370000Y-102870000D02*
X168275000Y-102870000D01*
X165735000Y-102235000D02*
X166370000Y-102870000D01*
X81915000Y-104775000D02*
X82550000Y-104775000D01*
X72390000Y-125095000D02*
X73025000Y-125730000D01*
X73025000Y-125730000D02*
X74295000Y-125730000D01*
X80645000Y-104775000D02*
X81915000Y-104775000D01*
X75565000Y-121920000D02*
X76200000Y-121285000D01*
X74295000Y-121920000D02*
X75565000Y-121920000D01*
X76200000Y-121285000D02*
X76200000Y-120015000D01*
X130810000Y-135255000D02*
X85090000Y-135255000D01*
X140890000Y-134700000D02*
X140335000Y-135255000D01*
X140335000Y-135255000D02*
X130810000Y-135255000D01*
X140890000Y-130810000D02*
X140890000Y-134700000D01*
X140890000Y-118745000D02*
X140890000Y-130810000D01*
X140890000Y-130810000D02*
X140890000Y-130890000D01*
X80645000Y-120650000D02*
X79375000Y-120650000D01*
X132635000Y-134065000D02*
X132635000Y-130255000D01*
X132080000Y-134620000D02*
X132635000Y-134065000D01*
X78740000Y-134620000D02*
X132080000Y-134620000D01*
X132635000Y-130255000D02*
X132635000Y-123190000D01*
X127635000Y-123190000D02*
X126445000Y-123190000D01*
X128270000Y-122555000D02*
X127635000Y-123190000D01*
X128270000Y-116840000D02*
X128270000Y-122555000D01*
X118745000Y-123190000D02*
X117555000Y-123190000D01*
X119380000Y-122555000D02*
X118745000Y-123190000D01*
X119380000Y-116840000D02*
X119380000Y-122555000D01*
X109855000Y-123190000D02*
X108030000Y-123190000D01*
X110490000Y-122555000D02*
X109855000Y-123190000D01*
X110490000Y-116840000D02*
X110490000Y-122555000D01*
X100965000Y-118745000D02*
X99775000Y-118745000D01*
X101600000Y-118110000D02*
X100965000Y-118745000D01*
X101600000Y-116840000D02*
X101600000Y-118110000D01*
X86995000Y-113745000D02*
X88345000Y-113745000D01*
X88345000Y-113745000D02*
X88900000Y-114300000D01*
X88900000Y-103505000D02*
X87630000Y-103505000D01*
X87630000Y-103505000D02*
X86995000Y-102870000D01*
X86995000Y-102870000D02*
X86995000Y-102315000D01*
X123745000Y-129540000D02*
X123745000Y-133430000D01*
X123190000Y-133985000D02*
X79375000Y-133985000D01*
X123745000Y-133430000D02*
X123190000Y-133985000D01*
X123745000Y-129540000D02*
X123745000Y-123190000D01*
X79375000Y-121920000D02*
X80645000Y-121920000D01*
X114855000Y-128905000D02*
X114855000Y-132795000D01*
X77470000Y-123190000D02*
X80645000Y-123190000D01*
X76835000Y-123825000D02*
X77470000Y-123190000D01*
X76835000Y-132899998D02*
X76835000Y-123825000D01*
X77285002Y-133350000D02*
X76835000Y-132899998D01*
X114300000Y-133350000D02*
X77285002Y-133350000D01*
X114855000Y-132795000D02*
X114300000Y-133350000D01*
X114855000Y-128985000D02*
X114855000Y-128905000D01*
X114855000Y-128905000D02*
X114855000Y-123190000D01*
X105330000Y-128270000D02*
X105330000Y-132160000D01*
X104775000Y-132715000D02*
X78105000Y-132715000D01*
X105330000Y-132160000D02*
X104775000Y-132715000D01*
X105330000Y-128270000D02*
X105330000Y-128350000D01*
X77470000Y-125095000D02*
X78105000Y-124460000D01*
X77470000Y-132080000D02*
X77470000Y-125095000D01*
X78105000Y-132715000D02*
X77470000Y-132080000D01*
X78105000Y-124460000D02*
X80645000Y-124460000D01*
X105330000Y-123190000D02*
X105330000Y-128270000D01*
X97075000Y-127635000D02*
X97075000Y-131525000D01*
X96520000Y-132080000D02*
X90805000Y-132080000D01*
X97075000Y-131525000D02*
X96520000Y-132080000D01*
X97075000Y-127000000D02*
X97075000Y-127635000D01*
X97075000Y-127000000D02*
X97075000Y-118745000D01*
X78740000Y-125730000D02*
X78105000Y-126365000D01*
X78740000Y-125730000D02*
X80645000Y-125730000D01*
X78740000Y-132080000D02*
X90805000Y-132080000D01*
X78105000Y-131445000D02*
X78740000Y-132080000D01*
X78105000Y-126365000D02*
X78105000Y-131445000D01*
X80645000Y-127000000D02*
X79375000Y-127000000D01*
X85725000Y-130810000D02*
X85725000Y-127000000D01*
X85090000Y-131445000D02*
X85725000Y-130810000D01*
X79375000Y-131445000D02*
X85090000Y-131445000D01*
X78740000Y-130810000D02*
X79375000Y-131445000D01*
X78740000Y-127635000D02*
X78740000Y-130810000D01*
X79375000Y-127000000D02*
X78740000Y-127635000D01*
X85725000Y-111760000D02*
X86360000Y-111125000D01*
X85725000Y-116205000D02*
X85725000Y-111760000D01*
X85725000Y-127000000D02*
X85725000Y-116205000D01*
X86360000Y-111125000D02*
X86915000Y-111125000D01*
X86915000Y-111125000D02*
X86995000Y-111045000D01*
X85090000Y-111125000D02*
X85725000Y-110490000D01*
X85725000Y-100330000D02*
X86440000Y-99615000D01*
X85725000Y-110490000D02*
X85725000Y-100330000D01*
X86440000Y-99615000D02*
X86995000Y-99615000D01*
X85090000Y-126365000D02*
X85090000Y-130175000D01*
X85090000Y-126365000D02*
X85090000Y-111125000D01*
X80010000Y-128270000D02*
X80645000Y-128270000D01*
X79375000Y-128905000D02*
X80010000Y-128270000D01*
X79375000Y-130175000D02*
X79375000Y-128905000D01*
X80010000Y-130810000D02*
X79375000Y-130175000D01*
X84455000Y-130810000D02*
X80010000Y-130810000D01*
X85090000Y-130175000D02*
X84455000Y-130810000D01*
X81915000Y-107315000D02*
X80645000Y-107315000D01*
X82550000Y-107950000D02*
X81915000Y-107315000D01*
X73025000Y-129540000D02*
X72390000Y-129540000D01*
X73025000Y-129540000D02*
X74295000Y-129540000D01*
X95250000Y-94615000D02*
X97075000Y-94615000D01*
X94615000Y-95250000D02*
X95250000Y-94615000D01*
X94615000Y-96520000D02*
X94615000Y-95250000D01*
X95250000Y-97155000D02*
X94615000Y-96520000D01*
X104140000Y-90170000D02*
X105330000Y-90170000D01*
X103505000Y-90805000D02*
X104140000Y-90170000D01*
X103505000Y-96520000D02*
X103505000Y-90805000D01*
X113665000Y-90170000D02*
X114855000Y-90170000D01*
X113030000Y-90805000D02*
X113665000Y-90170000D01*
X113030000Y-96520000D02*
X113030000Y-90805000D01*
X126365000Y-90250000D02*
X126365000Y-92710000D01*
X126365000Y-94615000D02*
X126365000Y-92710000D01*
X125730000Y-95250000D02*
X126365000Y-94615000D01*
X126365000Y-90250000D02*
X126445000Y-90170000D01*
X130810000Y-90170000D02*
X132635000Y-90170000D01*
X130175000Y-90805000D02*
X130810000Y-90170000D01*
X130175000Y-96520000D02*
X130175000Y-90805000D01*
X139700000Y-94615000D02*
X140890000Y-94615000D01*
X139065000Y-95250000D02*
X139700000Y-94615000D01*
X139065000Y-96520000D02*
X139065000Y-95250000D01*
X147955000Y-98425000D02*
X148590000Y-97790000D01*
X148590000Y-97790000D02*
X153035000Y-97790000D01*
X153035000Y-97790000D02*
X153670000Y-98425000D01*
X153670000Y-98425000D02*
X153670000Y-99615000D01*
X151765000Y-109855000D02*
X153035000Y-109855000D01*
X153035000Y-109855000D02*
X153670000Y-110490000D01*
X153670000Y-110490000D02*
X153670000Y-111045000D01*
X78105000Y-108585000D02*
X76835000Y-108585000D01*
X76835000Y-108585000D02*
X76200000Y-107950000D01*
X99775000Y-89615000D02*
X99060000Y-88900000D01*
X99060000Y-88900000D02*
X80645000Y-88900000D01*
X99775000Y-94615000D02*
X99775000Y-89615000D01*
X78105000Y-108585000D02*
X80645000Y-108585000D01*
X108030000Y-90170000D02*
X108030000Y-88980000D01*
X79375000Y-101600000D02*
X79375000Y-98425000D01*
X75565000Y-109855000D02*
X74295000Y-109855000D01*
X79375000Y-88900000D02*
X79375000Y-98425000D01*
X80010000Y-88265000D02*
X79375000Y-88900000D01*
X107315000Y-88265000D02*
X80010000Y-88265000D01*
X108030000Y-88980000D02*
X107315000Y-88265000D01*
X74295000Y-108585000D02*
X75565000Y-108585000D01*
X117555000Y-88345000D02*
X117555000Y-90170000D01*
X116840000Y-87630000D02*
X117555000Y-88345000D01*
X79375000Y-87630000D02*
X116840000Y-87630000D01*
X78740000Y-88265000D02*
X79375000Y-87630000D01*
X78740000Y-100965000D02*
X78740000Y-88265000D01*
X74295000Y-107315000D02*
X77470000Y-107315000D01*
X123745000Y-87550000D02*
X123745000Y-90170000D01*
X123190000Y-86995000D02*
X123745000Y-87550000D01*
X78740000Y-86995000D02*
X123190000Y-86995000D01*
X78105000Y-87630000D02*
X78740000Y-86995000D01*
X78105000Y-106680000D02*
X78105000Y-87630000D01*
X77470000Y-107315000D02*
X78105000Y-106680000D01*
X135335000Y-90170000D02*
X135335000Y-87075000D01*
X76835000Y-106045000D02*
X74295000Y-106045000D01*
X77470000Y-105410000D02*
X76835000Y-106045000D01*
X77470000Y-86995000D02*
X77470000Y-105410000D01*
X78105000Y-86360000D02*
X77470000Y-86995000D01*
X134620000Y-86360000D02*
X78105000Y-86360000D01*
X135335000Y-87075000D02*
X134620000Y-86360000D01*
X74295000Y-104775000D02*
X76200000Y-104775000D01*
X143590000Y-86440000D02*
X143590000Y-94615000D01*
X142875000Y-85725000D02*
X143590000Y-86440000D01*
X77470000Y-85725000D02*
X142875000Y-85725000D01*
X76835000Y-86360000D02*
X77470000Y-85725000D01*
X76835000Y-104140000D02*
X76835000Y-86360000D01*
X76200000Y-104775000D02*
X76835000Y-104140000D01*
X153670000Y-102315000D02*
X154860000Y-102315000D01*
X75565000Y-103505000D02*
X74295000Y-103505000D01*
X76200000Y-102870000D02*
X75565000Y-103505000D01*
X76200000Y-85725000D02*
X76200000Y-102870000D01*
X76835000Y-85090000D02*
X76200000Y-85725000D01*
X154940000Y-85090000D02*
X76835000Y-85090000D01*
X155575000Y-85725000D02*
X154940000Y-85090000D01*
X155575000Y-101600000D02*
X155575000Y-85725000D01*
X154860000Y-102315000D02*
X155575000Y-101600000D01*
X74295000Y-102235000D02*
X74930000Y-102235000D01*
X155495000Y-113745000D02*
X153670000Y-113745000D01*
X156210000Y-113030000D02*
X155495000Y-113745000D01*
X156210000Y-85090000D02*
X156210000Y-113030000D01*
X155575000Y-84455000D02*
X156210000Y-85090000D01*
X76200000Y-84455000D02*
X155575000Y-84455000D01*
X75565000Y-85090000D02*
X76200000Y-84455000D01*
X75565000Y-101600000D02*
X75565000Y-85090000D01*
X74930000Y-102235000D02*
X75565000Y-101600000D01*
D24*
G36*
X164348826Y-79501847D02*
X163870546Y-80653674D01*
X163869457Y-81900854D01*
X164345727Y-83053515D01*
X165226847Y-83936174D01*
X166378674Y-84414454D01*
X167625854Y-84415543D01*
X168778515Y-83939273D01*
X169470000Y-83248994D01*
X169470000Y-93855585D01*
X169251309Y-93765000D01*
X168560750Y-93765000D01*
X168402000Y-93923750D01*
X168402000Y-95123000D01*
X168422000Y-95123000D01*
X168422000Y-95377000D01*
X168402000Y-95377000D01*
X168402000Y-95397000D01*
X168148000Y-95397000D01*
X168148000Y-95377000D01*
X166948750Y-95377000D01*
X166790000Y-95535750D01*
X166790000Y-96226310D01*
X166886673Y-96459699D01*
X167065302Y-96638327D01*
X167239777Y-96710597D01*
X167195853Y-96739946D01*
X166873946Y-97221715D01*
X166760907Y-97790000D01*
X166873946Y-98358285D01*
X167195853Y-98840054D01*
X167525026Y-99060000D01*
X167195853Y-99279946D01*
X167002046Y-99570000D01*
X166535633Y-99570000D01*
X166669838Y-99246799D01*
X166670162Y-98874833D01*
X166528117Y-98531057D01*
X166495000Y-98497882D01*
X166495000Y-94273690D01*
X166790000Y-94273690D01*
X166790000Y-94964250D01*
X166948750Y-95123000D01*
X168148000Y-95123000D01*
X168148000Y-93923750D01*
X167989250Y-93765000D01*
X167298691Y-93765000D01*
X167065302Y-93861673D01*
X166886673Y-94040301D01*
X166790000Y-94273690D01*
X166495000Y-94273690D01*
X166495000Y-91367463D01*
X166527192Y-91335327D01*
X166669838Y-90991799D01*
X166670162Y-90619833D01*
X166528117Y-90276057D01*
X166265327Y-90012808D01*
X165921799Y-89870162D01*
X165549833Y-89869838D01*
X165206057Y-90011883D01*
X164942808Y-90274673D01*
X164833235Y-90538554D01*
X164571057Y-90646883D01*
X164307808Y-90909673D01*
X164198235Y-91173554D01*
X163936057Y-91281883D01*
X163672808Y-91544673D01*
X163563235Y-91808554D01*
X163301057Y-91916883D01*
X163037808Y-92179673D01*
X162928235Y-92443554D01*
X162666057Y-92551883D01*
X162402808Y-92814673D01*
X162260162Y-93158201D01*
X162259838Y-93530167D01*
X162401883Y-93873943D01*
X162435000Y-93907118D01*
X162435000Y-108585000D01*
X162492852Y-108875839D01*
X162657599Y-109122401D01*
X163292599Y-109757401D01*
X163539161Y-109922148D01*
X163830000Y-109980000D01*
X166896940Y-109980000D01*
X166833524Y-110133110D01*
X166954845Y-110363000D01*
X168148000Y-110363000D01*
X168148000Y-110343000D01*
X168402000Y-110343000D01*
X168402000Y-110363000D01*
X168422000Y-110363000D01*
X168422000Y-110617000D01*
X168402000Y-110617000D01*
X168402000Y-110637000D01*
X168148000Y-110637000D01*
X168148000Y-110617000D01*
X166954845Y-110617000D01*
X166833524Y-110846890D01*
X167003355Y-111256924D01*
X167279501Y-111559937D01*
X167189683Y-111576838D01*
X166973559Y-111715910D01*
X166828569Y-111928110D01*
X166777560Y-112180000D01*
X166777560Y-113880000D01*
X166821838Y-114115317D01*
X166960910Y-114331441D01*
X167173110Y-114476431D01*
X167240541Y-114490086D01*
X167195853Y-114519946D01*
X166873946Y-115001715D01*
X166760907Y-115570000D01*
X166873946Y-116138285D01*
X167195853Y-116620054D01*
X167525026Y-116840000D01*
X167195853Y-117059946D01*
X166873946Y-117541715D01*
X166760907Y-118110000D01*
X166873946Y-118678285D01*
X167195853Y-119160054D01*
X167515000Y-119373301D01*
X167515000Y-122652188D01*
X167421890Y-122588569D01*
X167170000Y-122537560D01*
X165570000Y-122537560D01*
X165334683Y-122581838D01*
X165118559Y-122720910D01*
X164973569Y-122933110D01*
X164922560Y-123185000D01*
X164922560Y-124175000D01*
X164687533Y-124175000D01*
X164651799Y-124160162D01*
X164279833Y-124159838D01*
X163936057Y-124301883D01*
X163672808Y-124564673D01*
X163530162Y-124908201D01*
X163529838Y-125280167D01*
X163671883Y-125623943D01*
X163934673Y-125887192D01*
X164278201Y-126029838D01*
X164650167Y-126030162D01*
X164922560Y-125917612D01*
X164922560Y-126685000D01*
X164966838Y-126920317D01*
X165105910Y-127136441D01*
X165318110Y-127281431D01*
X165570000Y-127332440D01*
X167170000Y-127332440D01*
X167405317Y-127288162D01*
X167621441Y-127149090D01*
X167766431Y-126936890D01*
X167817440Y-126685000D01*
X167817440Y-125691531D01*
X168090839Y-125637148D01*
X168337401Y-125472401D01*
X168812401Y-124997401D01*
X168977148Y-124750840D01*
X168998368Y-124644161D01*
X169035000Y-124460000D01*
X169035000Y-119373301D01*
X169354147Y-119160054D01*
X169470000Y-118986667D01*
X169470000Y-137096873D01*
X168783153Y-136408826D01*
X167631326Y-135930546D01*
X166384146Y-135929457D01*
X165231485Y-136405727D01*
X164348826Y-137286847D01*
X163870546Y-138438674D01*
X163869457Y-139685854D01*
X164345727Y-140838515D01*
X165036006Y-141530000D01*
X154292515Y-141530000D01*
X153330814Y-136721491D01*
X153334838Y-136711799D01*
X153335162Y-136339833D01*
X153193117Y-135996057D01*
X153183875Y-135986799D01*
X152110666Y-130620750D01*
X164935000Y-130620750D01*
X164935000Y-132211309D01*
X165031673Y-132444698D01*
X165210301Y-132623327D01*
X165443690Y-132720000D01*
X166084250Y-132720000D01*
X166243000Y-132561250D01*
X166243000Y-130462000D01*
X166497000Y-130462000D01*
X166497000Y-132561250D01*
X166655750Y-132720000D01*
X167296310Y-132720000D01*
X167529699Y-132623327D01*
X167708327Y-132444698D01*
X167805000Y-132211309D01*
X167805000Y-130620750D01*
X167646250Y-130462000D01*
X166497000Y-130462000D01*
X166243000Y-130462000D01*
X165093750Y-130462000D01*
X164935000Y-130620750D01*
X152110666Y-130620750D01*
X151678254Y-128458691D01*
X164935000Y-128458691D01*
X164935000Y-130049250D01*
X165093750Y-130208000D01*
X166243000Y-130208000D01*
X166243000Y-128108750D01*
X166497000Y-128108750D01*
X166497000Y-130208000D01*
X167646250Y-130208000D01*
X167805000Y-130049250D01*
X167805000Y-128458691D01*
X167708327Y-128225302D01*
X167529699Y-128046673D01*
X167296310Y-127950000D01*
X166655750Y-127950000D01*
X166497000Y-128108750D01*
X166243000Y-128108750D01*
X166084250Y-127950000D01*
X165443690Y-127950000D01*
X165210301Y-128046673D01*
X165031673Y-128225302D01*
X164935000Y-128458691D01*
X151678254Y-128458691D01*
X151254534Y-126340093D01*
X151221035Y-126276447D01*
X151179410Y-126248006D01*
X151130000Y-126238000D01*
X141650000Y-126238000D01*
X141650000Y-120040558D01*
X141875317Y-119998162D01*
X142091441Y-119859090D01*
X142236431Y-119646890D01*
X142239081Y-119633803D01*
X142375910Y-119846441D01*
X142588110Y-119991431D01*
X142840000Y-120042440D01*
X144340000Y-120042440D01*
X144575317Y-119998162D01*
X144791441Y-119859090D01*
X144936431Y-119646890D01*
X144972936Y-119466622D01*
X145070839Y-119447148D01*
X145317401Y-119282401D01*
X145952401Y-118647401D01*
X146117148Y-118400839D01*
X146175000Y-118110000D01*
X146175000Y-117402463D01*
X146207192Y-117370327D01*
X146349838Y-117026799D01*
X146350162Y-116654833D01*
X146208117Y-116311057D01*
X145945327Y-116047808D01*
X145601799Y-115905162D01*
X145229833Y-115904838D01*
X144886057Y-116046883D01*
X144622808Y-116309673D01*
X144480162Y-116653201D01*
X144479838Y-117025167D01*
X144621883Y-117368943D01*
X144655000Y-117402118D01*
X144655000Y-117541690D01*
X144591890Y-117498569D01*
X144340000Y-117447560D01*
X142840000Y-117447560D01*
X142604683Y-117491838D01*
X142388559Y-117630910D01*
X142243569Y-117843110D01*
X142240919Y-117856197D01*
X142104090Y-117643559D01*
X141891890Y-117498569D01*
X141640000Y-117447560D01*
X140140000Y-117447560D01*
X139904683Y-117491838D01*
X139688559Y-117630910D01*
X139543569Y-117843110D01*
X139492560Y-118095000D01*
X139492560Y-119395000D01*
X139536838Y-119630317D01*
X139675910Y-119846441D01*
X139888110Y-119991431D01*
X140130000Y-120040415D01*
X140130000Y-126238000D01*
X133395000Y-126238000D01*
X133395000Y-124485558D01*
X133620317Y-124443162D01*
X133836441Y-124304090D01*
X133981431Y-124091890D01*
X133984081Y-124078803D01*
X134120910Y-124291441D01*
X134333110Y-124436431D01*
X134585000Y-124487440D01*
X136085000Y-124487440D01*
X136320317Y-124443162D01*
X136536441Y-124304090D01*
X136681431Y-124091890D01*
X136717936Y-123911622D01*
X136815839Y-123892148D01*
X137062401Y-123727401D01*
X137697401Y-123092401D01*
X137862148Y-122845839D01*
X137920000Y-122555000D01*
X137920000Y-117402463D01*
X137952192Y-117370327D01*
X138094838Y-117026799D01*
X138095162Y-116654833D01*
X137953117Y-116311057D01*
X137690327Y-116047808D01*
X137346799Y-115905162D01*
X136974833Y-115904838D01*
X136631057Y-116046883D01*
X136367808Y-116309673D01*
X136225162Y-116653201D01*
X136224838Y-117025167D01*
X136366883Y-117368943D01*
X136400000Y-117402118D01*
X136400000Y-121986690D01*
X136336890Y-121943569D01*
X136085000Y-121892560D01*
X134585000Y-121892560D01*
X134349683Y-121936838D01*
X134133559Y-122075910D01*
X133988569Y-122288110D01*
X133985919Y-122301197D01*
X133849090Y-122088559D01*
X133636890Y-121943569D01*
X133385000Y-121892560D01*
X131885000Y-121892560D01*
X131649683Y-121936838D01*
X131433559Y-122075910D01*
X131288569Y-122288110D01*
X131237560Y-122540000D01*
X131237560Y-123840000D01*
X131281838Y-124075317D01*
X131420910Y-124291441D01*
X131633110Y-124436431D01*
X131875000Y-124485415D01*
X131875000Y-126238000D01*
X124505000Y-126238000D01*
X124505000Y-124485558D01*
X124730317Y-124443162D01*
X124946441Y-124304090D01*
X125091431Y-124091890D01*
X125094081Y-124078803D01*
X125230910Y-124291441D01*
X125443110Y-124436431D01*
X125695000Y-124487440D01*
X127195000Y-124487440D01*
X127430317Y-124443162D01*
X127646441Y-124304090D01*
X127791431Y-124091890D01*
X127827936Y-123911622D01*
X127925839Y-123892148D01*
X128172401Y-123727401D01*
X128807401Y-123092401D01*
X128972148Y-122845839D01*
X129030000Y-122555000D01*
X129030000Y-118853305D01*
X130199674Y-118853305D01*
X130486043Y-119546372D01*
X131015839Y-120077093D01*
X131708405Y-120364672D01*
X132458305Y-120365326D01*
X133151372Y-120078957D01*
X133682093Y-119549161D01*
X133969672Y-118856595D01*
X133970326Y-118106695D01*
X133683957Y-117413628D01*
X133154161Y-116882907D01*
X132461595Y-116595328D01*
X131711695Y-116594674D01*
X131018628Y-116881043D01*
X130487907Y-117410839D01*
X130200328Y-118103405D01*
X130199674Y-118853305D01*
X129030000Y-118853305D01*
X129030000Y-117402463D01*
X129062192Y-117370327D01*
X129204838Y-117026799D01*
X129205162Y-116654833D01*
X129063117Y-116311057D01*
X128800327Y-116047808D01*
X128456799Y-115905162D01*
X128084833Y-115904838D01*
X127741057Y-116046883D01*
X127477808Y-116309673D01*
X127335162Y-116653201D01*
X127334838Y-117025167D01*
X127476883Y-117368943D01*
X127510000Y-117402118D01*
X127510000Y-121986690D01*
X127446890Y-121943569D01*
X127195000Y-121892560D01*
X125695000Y-121892560D01*
X125459683Y-121936838D01*
X125243559Y-122075910D01*
X125098569Y-122288110D01*
X125095919Y-122301197D01*
X124959090Y-122088559D01*
X124746890Y-121943569D01*
X124495000Y-121892560D01*
X122995000Y-121892560D01*
X122759683Y-121936838D01*
X122543559Y-122075910D01*
X122398569Y-122288110D01*
X122347560Y-122540000D01*
X122347560Y-123840000D01*
X122391838Y-124075317D01*
X122530910Y-124291441D01*
X122743110Y-124436431D01*
X122985000Y-124485415D01*
X122985000Y-126238000D01*
X115615000Y-126238000D01*
X115615000Y-124485558D01*
X115840317Y-124443162D01*
X116056441Y-124304090D01*
X116201431Y-124091890D01*
X116204081Y-124078803D01*
X116340910Y-124291441D01*
X116553110Y-124436431D01*
X116805000Y-124487440D01*
X118305000Y-124487440D01*
X118540317Y-124443162D01*
X118756441Y-124304090D01*
X118901431Y-124091890D01*
X118937936Y-123911622D01*
X119035839Y-123892148D01*
X119282401Y-123727401D01*
X119917401Y-123092401D01*
X120082148Y-122845839D01*
X120140000Y-122555000D01*
X120140000Y-117402463D01*
X120172192Y-117370327D01*
X120314838Y-117026799D01*
X120315162Y-116654833D01*
X120173117Y-116311057D01*
X119910327Y-116047808D01*
X119566799Y-115905162D01*
X119194833Y-115904838D01*
X118851057Y-116046883D01*
X118587808Y-116309673D01*
X118445162Y-116653201D01*
X118444838Y-117025167D01*
X118586883Y-117368943D01*
X118620000Y-117402118D01*
X118620000Y-121986690D01*
X118556890Y-121943569D01*
X118305000Y-121892560D01*
X116805000Y-121892560D01*
X116569683Y-121936838D01*
X116353559Y-122075910D01*
X116208569Y-122288110D01*
X116205919Y-122301197D01*
X116069090Y-122088559D01*
X115856890Y-121943569D01*
X115605000Y-121892560D01*
X114105000Y-121892560D01*
X113869683Y-121936838D01*
X113653559Y-122075910D01*
X113508569Y-122288110D01*
X113457560Y-122540000D01*
X113457560Y-123840000D01*
X113501838Y-124075317D01*
X113640910Y-124291441D01*
X113853110Y-124436431D01*
X114095000Y-124485415D01*
X114095000Y-126238000D01*
X106090000Y-126238000D01*
X106090000Y-124485558D01*
X106315317Y-124443162D01*
X106531441Y-124304090D01*
X106676431Y-124091890D01*
X106679081Y-124078803D01*
X106815910Y-124291441D01*
X107028110Y-124436431D01*
X107280000Y-124487440D01*
X108780000Y-124487440D01*
X109015317Y-124443162D01*
X109231441Y-124304090D01*
X109376431Y-124091890D01*
X109405164Y-123950000D01*
X109855000Y-123950000D01*
X110145839Y-123892148D01*
X110392401Y-123727401D01*
X111027401Y-123092401D01*
X111192148Y-122845839D01*
X111250000Y-122555000D01*
X111250000Y-117402463D01*
X111282192Y-117370327D01*
X111424838Y-117026799D01*
X111425162Y-116654833D01*
X111283117Y-116311057D01*
X111020327Y-116047808D01*
X110676799Y-115905162D01*
X110304833Y-115904838D01*
X109961057Y-116046883D01*
X109697808Y-116309673D01*
X109555162Y-116653201D01*
X109554998Y-116841731D01*
X108961595Y-116595328D01*
X108211695Y-116594674D01*
X107518628Y-116881043D01*
X106987907Y-117410839D01*
X106700328Y-118103405D01*
X106699674Y-118853305D01*
X106986043Y-119546372D01*
X107515839Y-120077093D01*
X108208405Y-120364672D01*
X108958305Y-120365326D01*
X109651372Y-120078957D01*
X109730000Y-120000466D01*
X109730000Y-122240198D01*
X109540198Y-122430000D01*
X109406742Y-122430000D01*
X109383162Y-122304683D01*
X109244090Y-122088559D01*
X109031890Y-121943569D01*
X108780000Y-121892560D01*
X107280000Y-121892560D01*
X107044683Y-121936838D01*
X106828559Y-122075910D01*
X106683569Y-122288110D01*
X106680919Y-122301197D01*
X106544090Y-122088559D01*
X106331890Y-121943569D01*
X106080000Y-121892560D01*
X104580000Y-121892560D01*
X104344683Y-121936838D01*
X104128559Y-122075910D01*
X103983569Y-122288110D01*
X103932560Y-122540000D01*
X103932560Y-123840000D01*
X103976838Y-124075317D01*
X104115910Y-124291441D01*
X104328110Y-124436431D01*
X104570000Y-124485415D01*
X104570000Y-126238000D01*
X97835000Y-126238000D01*
X97835000Y-120040558D01*
X98060317Y-119998162D01*
X98276441Y-119859090D01*
X98421431Y-119646890D01*
X98424081Y-119633803D01*
X98560910Y-119846441D01*
X98773110Y-119991431D01*
X99025000Y-120042440D01*
X100525000Y-120042440D01*
X100760317Y-119998162D01*
X100976441Y-119859090D01*
X101121431Y-119646890D01*
X101157936Y-119466622D01*
X101255839Y-119447148D01*
X101502401Y-119282401D01*
X102137401Y-118647401D01*
X102302148Y-118400839D01*
X102360000Y-118110000D01*
X102360000Y-117402463D01*
X102392192Y-117370327D01*
X102534838Y-117026799D01*
X102535162Y-116654833D01*
X102393117Y-116311057D01*
X102130327Y-116047808D01*
X101786799Y-115905162D01*
X101414833Y-115904838D01*
X101071057Y-116046883D01*
X100807808Y-116309673D01*
X100665162Y-116653201D01*
X100664838Y-117025167D01*
X100806883Y-117368943D01*
X100840000Y-117402118D01*
X100840000Y-117541690D01*
X100776890Y-117498569D01*
X100525000Y-117447560D01*
X99025000Y-117447560D01*
X98789683Y-117491838D01*
X98573559Y-117630910D01*
X98428569Y-117843110D01*
X98425919Y-117856197D01*
X98289090Y-117643559D01*
X98076890Y-117498569D01*
X97825000Y-117447560D01*
X96325000Y-117447560D01*
X96089683Y-117491838D01*
X95873559Y-117630910D01*
X95728569Y-117843110D01*
X95677560Y-118095000D01*
X95677560Y-119395000D01*
X95721838Y-119630317D01*
X95860910Y-119846441D01*
X96073110Y-119991431D01*
X96315000Y-120040415D01*
X96315000Y-126238000D01*
X88900000Y-126238000D01*
X88873113Y-126240879D01*
X88826941Y-126261118D01*
X88792282Y-126297726D01*
X88774595Y-126344935D01*
X87978585Y-131320000D01*
X86280710Y-131320000D01*
X86427148Y-131100839D01*
X86485000Y-130810000D01*
X86485000Y-115142440D01*
X87645000Y-115142440D01*
X87880317Y-115098162D01*
X88096441Y-114959090D01*
X88153476Y-114875617D01*
X88369673Y-115092192D01*
X88713201Y-115234838D01*
X89085167Y-115235162D01*
X89428943Y-115093117D01*
X89692192Y-114830327D01*
X89834838Y-114486799D01*
X89835162Y-114114833D01*
X89693117Y-113771057D01*
X89430327Y-113507808D01*
X89086799Y-113365162D01*
X89039923Y-113365121D01*
X88882401Y-113207599D01*
X88635839Y-113042852D01*
X88345000Y-112985000D01*
X88290558Y-112985000D01*
X88248162Y-112759683D01*
X88109090Y-112543559D01*
X87896890Y-112398569D01*
X87883803Y-112395919D01*
X88096441Y-112259090D01*
X88241431Y-112046890D01*
X88292440Y-111795000D01*
X88292440Y-110295000D01*
X88248162Y-110059683D01*
X88109090Y-109843559D01*
X87896890Y-109698569D01*
X87645000Y-109647560D01*
X86485000Y-109647560D01*
X86485000Y-106680000D01*
X92000000Y-106680000D01*
X92489074Y-109138741D01*
X93881839Y-111223161D01*
X95966259Y-112615926D01*
X98425000Y-113105000D01*
X100883741Y-112615926D01*
X102968161Y-111223161D01*
X104360926Y-109138741D01*
X104850000Y-106680000D01*
X104360926Y-104221259D01*
X102968161Y-102136839D01*
X100883741Y-100744074D01*
X98425000Y-100255000D01*
X95966259Y-100744074D01*
X93881839Y-102136839D01*
X92489074Y-104221259D01*
X92000000Y-106680000D01*
X86485000Y-106680000D01*
X86485000Y-103712440D01*
X86762638Y-103712440D01*
X87092599Y-104042401D01*
X87339161Y-104207148D01*
X87630000Y-104265000D01*
X88337537Y-104265000D01*
X88369673Y-104297192D01*
X88713201Y-104439838D01*
X89085167Y-104440162D01*
X89428943Y-104298117D01*
X89692192Y-104035327D01*
X89834838Y-103691799D01*
X89835162Y-103319833D01*
X89693117Y-102976057D01*
X89430327Y-102712808D01*
X89086799Y-102570162D01*
X88714833Y-102569838D01*
X88371057Y-102711883D01*
X88337882Y-102745000D01*
X88292440Y-102745000D01*
X88292440Y-101565000D01*
X88248162Y-101329683D01*
X88109090Y-101113559D01*
X87896890Y-100968569D01*
X87883803Y-100965919D01*
X88096441Y-100829090D01*
X88241431Y-100616890D01*
X88292440Y-100365000D01*
X88292440Y-99060000D01*
X106605000Y-99060000D01*
X106605000Y-114300000D01*
X106659046Y-114571705D01*
X106812954Y-114802046D01*
X107043295Y-114955954D01*
X107315000Y-115010000D01*
X133350000Y-115010000D01*
X133621705Y-114955954D01*
X133852046Y-114802046D01*
X134005954Y-114571705D01*
X134060000Y-114300000D01*
X134060000Y-106680000D01*
X135815000Y-106680000D01*
X136304074Y-109138741D01*
X137696839Y-111223161D01*
X139781259Y-112615926D01*
X142240000Y-113105000D01*
X144698741Y-112615926D01*
X146783161Y-111223161D01*
X148175926Y-109138741D01*
X148665000Y-106680000D01*
X148175926Y-104221259D01*
X146783161Y-102136839D01*
X144698741Y-100744074D01*
X142240000Y-100255000D01*
X139781259Y-100744074D01*
X137696839Y-102136839D01*
X136304074Y-104221259D01*
X135815000Y-106680000D01*
X134060000Y-106680000D01*
X134060000Y-99060000D01*
X134005954Y-98788295D01*
X133852046Y-98557954D01*
X133621705Y-98404046D01*
X133350000Y-98350000D01*
X107315000Y-98350000D01*
X107043295Y-98404046D01*
X106812954Y-98557954D01*
X106659046Y-98788295D01*
X106605000Y-99060000D01*
X88292440Y-99060000D01*
X88292440Y-98865000D01*
X88248162Y-98629683D01*
X88109090Y-98413559D01*
X87896890Y-98268569D01*
X87645000Y-98217560D01*
X86345000Y-98217560D01*
X86109683Y-98261838D01*
X85893559Y-98400910D01*
X85748569Y-98613110D01*
X85697560Y-98865000D01*
X85697560Y-99282638D01*
X85187599Y-99792599D01*
X85022852Y-100039161D01*
X84965000Y-100330000D01*
X84965000Y-110175198D01*
X84552599Y-110587599D01*
X84387852Y-110834161D01*
X84330000Y-111125000D01*
X84330000Y-129860198D01*
X84140198Y-130050000D01*
X81797780Y-130050000D01*
X81851500Y-129920309D01*
X81851500Y-129825750D01*
X81692750Y-129667000D01*
X80772000Y-129667000D01*
X80772000Y-129687000D01*
X80518000Y-129687000D01*
X80518000Y-129667000D01*
X80498000Y-129667000D01*
X80498000Y-129413000D01*
X80518000Y-129413000D01*
X80518000Y-129393000D01*
X80772000Y-129393000D01*
X80772000Y-129413000D01*
X81692750Y-129413000D01*
X81851500Y-129254250D01*
X81851500Y-129159691D01*
X81754827Y-128926302D01*
X81728291Y-128899765D01*
X81812931Y-128775890D01*
X81863940Y-128524000D01*
X81863940Y-128016000D01*
X81819662Y-127780683D01*
X81725334Y-127634093D01*
X81812931Y-127505890D01*
X81863940Y-127254000D01*
X81863940Y-126746000D01*
X81819662Y-126510683D01*
X81725334Y-126364093D01*
X81812931Y-126235890D01*
X81863940Y-125984000D01*
X81863940Y-125476000D01*
X81819662Y-125240683D01*
X81725334Y-125094093D01*
X81812931Y-124965890D01*
X81863940Y-124714000D01*
X81863940Y-124206000D01*
X81819662Y-123970683D01*
X81725334Y-123824093D01*
X81812931Y-123695890D01*
X81863940Y-123444000D01*
X81863940Y-122936000D01*
X81819662Y-122700683D01*
X81725334Y-122554093D01*
X81812931Y-122425890D01*
X81863940Y-122174000D01*
X81863940Y-121666000D01*
X81819662Y-121430683D01*
X81725334Y-121284093D01*
X81812931Y-121155890D01*
X81863940Y-120904000D01*
X81863940Y-120396000D01*
X81819662Y-120160683D01*
X81680590Y-119944559D01*
X81468390Y-119799569D01*
X81216500Y-119748560D01*
X80073500Y-119748560D01*
X79838183Y-119792838D01*
X79803151Y-119815381D01*
X79561799Y-119715162D01*
X79189833Y-119714838D01*
X78846057Y-119856883D01*
X78582808Y-120119673D01*
X78440162Y-120463201D01*
X78439838Y-120835167D01*
X78581883Y-121178943D01*
X78687710Y-121284954D01*
X78582808Y-121389673D01*
X78440162Y-121733201D01*
X78439838Y-122105167D01*
X78574056Y-122430000D01*
X77595000Y-122430000D01*
X77595000Y-120964802D01*
X77609680Y-120950122D01*
X77655167Y-120950162D01*
X77998943Y-120808117D01*
X78262192Y-120545327D01*
X78404838Y-120201799D01*
X78405162Y-119829833D01*
X78263117Y-119486057D01*
X78147262Y-119370000D01*
X78434250Y-119370000D01*
X78593000Y-119211250D01*
X78593000Y-118237000D01*
X78847000Y-118237000D01*
X78847000Y-119211250D01*
X79005750Y-119370000D01*
X79596309Y-119370000D01*
X79829698Y-119273327D01*
X80008327Y-119094699D01*
X80105000Y-118861310D01*
X80105000Y-118395750D01*
X79946250Y-118237000D01*
X78847000Y-118237000D01*
X78593000Y-118237000D01*
X78573000Y-118237000D01*
X78573000Y-117983000D01*
X78593000Y-117983000D01*
X78593000Y-117008750D01*
X78847000Y-117008750D01*
X78847000Y-117983000D01*
X79946250Y-117983000D01*
X80105000Y-117824250D01*
X80105000Y-117358690D01*
X80008327Y-117125301D01*
X79829698Y-116946673D01*
X79596309Y-116850000D01*
X79005750Y-116850000D01*
X78847000Y-117008750D01*
X78593000Y-117008750D01*
X78434250Y-116850000D01*
X77843691Y-116850000D01*
X77610302Y-116946673D01*
X77469064Y-117087910D01*
X77434090Y-117033559D01*
X77221890Y-116888569D01*
X76970000Y-116837560D01*
X75470000Y-116837560D01*
X75234683Y-116881838D01*
X75018559Y-117020910D01*
X74873569Y-117233110D01*
X74846536Y-117366602D01*
X74639161Y-117407852D01*
X74392599Y-117572599D01*
X73757599Y-118207599D01*
X73592852Y-118454161D01*
X73535000Y-118745000D01*
X73535000Y-119784029D01*
X73488183Y-119792838D01*
X73272059Y-119931910D01*
X73127069Y-120144110D01*
X73076060Y-120396000D01*
X73076060Y-120904000D01*
X73120338Y-121139317D01*
X73214666Y-121285907D01*
X73127069Y-121414110D01*
X73076060Y-121666000D01*
X73076060Y-122174000D01*
X73120338Y-122409317D01*
X73214666Y-122555907D01*
X73127069Y-122684110D01*
X73076060Y-122936000D01*
X73076060Y-123444000D01*
X73120338Y-123679317D01*
X73211104Y-123820371D01*
X73185173Y-123846302D01*
X73088500Y-124079691D01*
X73088500Y-124174250D01*
X73247250Y-124333000D01*
X74168000Y-124333000D01*
X74168000Y-124313000D01*
X74422000Y-124313000D01*
X74422000Y-124333000D01*
X75342750Y-124333000D01*
X75501500Y-124174250D01*
X75501500Y-124079691D01*
X75447780Y-123950000D01*
X76075000Y-123950000D01*
X76075000Y-132899998D01*
X76132852Y-133190837D01*
X76297599Y-133437399D01*
X76747601Y-133887401D01*
X76994163Y-134052148D01*
X77285002Y-134110000D01*
X77939367Y-134110000D01*
X77805162Y-134433201D01*
X77804838Y-134805167D01*
X77946883Y-135148943D01*
X78209673Y-135412192D01*
X78553201Y-135554838D01*
X78925167Y-135555162D01*
X79268943Y-135413117D01*
X79302118Y-135380000D01*
X83654367Y-135380000D01*
X83553235Y-135623554D01*
X83291057Y-135731883D01*
X83027808Y-135994673D01*
X82885162Y-136338201D01*
X82884838Y-136710167D01*
X83026883Y-137053943D01*
X83289673Y-137317192D01*
X83633201Y-137459838D01*
X84005167Y-137460162D01*
X84348943Y-137318117D01*
X84382118Y-137285000D01*
X87024185Y-137285000D01*
X86344985Y-141530000D01*
X75628127Y-141530000D01*
X76316174Y-140843153D01*
X76794454Y-139691326D01*
X76795543Y-138444146D01*
X76319273Y-137291485D01*
X75438153Y-136408826D01*
X74286326Y-135930546D01*
X73039146Y-135929457D01*
X71886485Y-136405727D01*
X71195000Y-137096006D01*
X71195000Y-125280167D01*
X71454838Y-125280167D01*
X71596883Y-125623943D01*
X71859673Y-125887192D01*
X72159332Y-126011622D01*
X72090162Y-126178201D01*
X72089838Y-126550167D01*
X72231883Y-126893943D01*
X72494673Y-127157192D01*
X72838201Y-127299838D01*
X72885077Y-127299879D01*
X73122599Y-127537401D01*
X73172912Y-127571019D01*
X73214666Y-127635907D01*
X73170442Y-127700631D01*
X73122599Y-127732599D01*
X72885320Y-127969878D01*
X72839833Y-127969838D01*
X72496057Y-128111883D01*
X72232808Y-128374673D01*
X72123235Y-128638554D01*
X71861057Y-128746883D01*
X71597808Y-129009673D01*
X71455162Y-129353201D01*
X71454838Y-129725167D01*
X71596883Y-130068943D01*
X71859673Y-130332192D01*
X72203201Y-130474838D01*
X72575167Y-130475162D01*
X72918943Y-130333117D01*
X72952118Y-130300000D01*
X73339260Y-130300000D01*
X73471610Y-130390431D01*
X73723500Y-130441440D01*
X74866500Y-130441440D01*
X75101817Y-130397162D01*
X75317941Y-130258090D01*
X75462931Y-130045890D01*
X75513940Y-129794000D01*
X75513940Y-129286000D01*
X75469662Y-129050683D01*
X75375334Y-128904093D01*
X75462931Y-128775890D01*
X75513940Y-128524000D01*
X75513940Y-128016000D01*
X75469662Y-127780683D01*
X75375334Y-127634093D01*
X75462931Y-127505890D01*
X75513940Y-127254000D01*
X75513940Y-126746000D01*
X75469662Y-126510683D01*
X75375334Y-126364093D01*
X75462931Y-126235890D01*
X75513940Y-125984000D01*
X75513940Y-125476000D01*
X75469662Y-125240683D01*
X75378896Y-125099629D01*
X75404827Y-125073698D01*
X75501500Y-124840309D01*
X75501500Y-124745750D01*
X75342750Y-124587000D01*
X74422000Y-124587000D01*
X74422000Y-124607000D01*
X74168000Y-124607000D01*
X74168000Y-124587000D01*
X73247250Y-124587000D01*
X73207992Y-124626258D01*
X73183117Y-124566057D01*
X72920327Y-124302808D01*
X72576799Y-124160162D01*
X72204833Y-124159838D01*
X71861057Y-124301883D01*
X71597808Y-124564673D01*
X71455162Y-124908201D01*
X71454838Y-125280167D01*
X71195000Y-125280167D01*
X71195000Y-112680750D01*
X74835000Y-112680750D01*
X74835000Y-113146310D01*
X74931673Y-113379699D01*
X75110302Y-113558327D01*
X75343691Y-113655000D01*
X75934250Y-113655000D01*
X76093000Y-113496250D01*
X76093000Y-112522000D01*
X74993750Y-112522000D01*
X74835000Y-112680750D01*
X71195000Y-112680750D01*
X71195000Y-111643690D01*
X74835000Y-111643690D01*
X74835000Y-112109250D01*
X74993750Y-112268000D01*
X76093000Y-112268000D01*
X76093000Y-111293750D01*
X75934250Y-111135000D01*
X75343691Y-111135000D01*
X75110302Y-111231673D01*
X74931673Y-111410301D01*
X74835000Y-111643690D01*
X71195000Y-111643690D01*
X71195000Y-101981000D01*
X73076060Y-101981000D01*
X73076060Y-102489000D01*
X73120338Y-102724317D01*
X73214666Y-102870907D01*
X73127069Y-102999110D01*
X73076060Y-103251000D01*
X73076060Y-103759000D01*
X73120338Y-103994317D01*
X73214666Y-104140907D01*
X73127069Y-104269110D01*
X73076060Y-104521000D01*
X73076060Y-105029000D01*
X73120338Y-105264317D01*
X73214666Y-105410907D01*
X73127069Y-105539110D01*
X73076060Y-105791000D01*
X73076060Y-106299000D01*
X73120338Y-106534317D01*
X73214666Y-106680907D01*
X73127069Y-106809110D01*
X73076060Y-107061000D01*
X73076060Y-107569000D01*
X73120338Y-107804317D01*
X73214666Y-107950907D01*
X73127069Y-108079110D01*
X73076060Y-108331000D01*
X73076060Y-108839000D01*
X73120338Y-109074317D01*
X73214666Y-109220907D01*
X73127069Y-109349110D01*
X73076060Y-109601000D01*
X73076060Y-110109000D01*
X73120338Y-110344317D01*
X73259410Y-110560441D01*
X73471610Y-110705431D01*
X73723500Y-110756440D01*
X74866500Y-110756440D01*
X75101817Y-110712162D01*
X75136849Y-110689619D01*
X75378201Y-110789838D01*
X75750167Y-110790162D01*
X76093943Y-110648117D01*
X76357192Y-110385327D01*
X76499838Y-110041799D01*
X76500162Y-109669833D01*
X76358117Y-109326057D01*
X76252290Y-109220046D01*
X76329052Y-109143417D01*
X76544161Y-109287148D01*
X76835000Y-109345000D01*
X79479877Y-109345000D01*
X79477069Y-109349110D01*
X79426060Y-109601000D01*
X79426060Y-110109000D01*
X79470338Y-110344317D01*
X79609410Y-110560441D01*
X79821610Y-110705431D01*
X79885000Y-110718268D01*
X79885000Y-111285017D01*
X79721890Y-111173569D01*
X79470000Y-111122560D01*
X77970000Y-111122560D01*
X77734683Y-111166838D01*
X77518559Y-111305910D01*
X77472031Y-111374006D01*
X77329698Y-111231673D01*
X77096309Y-111135000D01*
X76505750Y-111135000D01*
X76347000Y-111293750D01*
X76347000Y-112268000D01*
X76367000Y-112268000D01*
X76367000Y-112522000D01*
X76347000Y-112522000D01*
X76347000Y-113496250D01*
X76505750Y-113655000D01*
X76535008Y-113655000D01*
X76534838Y-113850167D01*
X76676883Y-114193943D01*
X76939673Y-114457192D01*
X77283201Y-114599838D01*
X77655167Y-114600162D01*
X77998943Y-114458117D01*
X78262192Y-114195327D01*
X78404838Y-113851799D01*
X78404896Y-113784906D01*
X78522362Y-113667440D01*
X79470000Y-113667440D01*
X79705317Y-113623162D01*
X79921441Y-113484090D01*
X80066431Y-113271890D01*
X80093464Y-113138398D01*
X80300839Y-113097148D01*
X80547401Y-112932401D01*
X81182401Y-112297401D01*
X81347148Y-112050839D01*
X81405000Y-111760000D01*
X81405000Y-110720971D01*
X81451817Y-110712162D01*
X81667941Y-110573090D01*
X81812931Y-110360890D01*
X81863940Y-110109000D01*
X81863940Y-109601000D01*
X81819662Y-109365683D01*
X81725334Y-109219093D01*
X81812931Y-109090890D01*
X81863940Y-108839000D01*
X81863940Y-108586187D01*
X82019673Y-108742192D01*
X82363201Y-108884838D01*
X82735167Y-108885162D01*
X83078943Y-108743117D01*
X83342192Y-108480327D01*
X83484838Y-108136799D01*
X83485162Y-107764833D01*
X83343117Y-107421057D01*
X83080327Y-107157808D01*
X82736799Y-107015162D01*
X82689923Y-107015121D01*
X82452401Y-106777599D01*
X82205839Y-106612852D01*
X81915000Y-106555000D01*
X81797780Y-106555000D01*
X81851500Y-106425309D01*
X81851500Y-106330750D01*
X81692750Y-106172000D01*
X80772000Y-106172000D01*
X80772000Y-106192000D01*
X80518000Y-106192000D01*
X80518000Y-106172000D01*
X79597250Y-106172000D01*
X79438500Y-106330750D01*
X79438500Y-106425309D01*
X79535173Y-106658698D01*
X79561709Y-106685235D01*
X79477069Y-106809110D01*
X79426060Y-107061000D01*
X79426060Y-107569000D01*
X79470338Y-107804317D01*
X79483647Y-107825000D01*
X78034802Y-107825000D01*
X78642401Y-107217401D01*
X78807148Y-106970839D01*
X78865000Y-106680000D01*
X78865000Y-102400633D01*
X79188201Y-102534838D01*
X79434725Y-102535053D01*
X79470338Y-102724317D01*
X79564666Y-102870907D01*
X79477069Y-102999110D01*
X79426060Y-103251000D01*
X79426060Y-103759000D01*
X79470338Y-103994317D01*
X79564666Y-104140907D01*
X79477069Y-104269110D01*
X79426060Y-104521000D01*
X79426060Y-105029000D01*
X79470338Y-105264317D01*
X79561104Y-105405371D01*
X79535173Y-105431302D01*
X79438500Y-105664691D01*
X79438500Y-105759250D01*
X79597250Y-105918000D01*
X80518000Y-105918000D01*
X80518000Y-105898000D01*
X80772000Y-105898000D01*
X80772000Y-105918000D01*
X81692750Y-105918000D01*
X81851500Y-105759250D01*
X81851500Y-105664691D01*
X81797780Y-105535000D01*
X81987537Y-105535000D01*
X82019673Y-105567192D01*
X82363201Y-105709838D01*
X82735167Y-105710162D01*
X83078943Y-105568117D01*
X83342192Y-105305327D01*
X83484838Y-104961799D01*
X83485162Y-104589833D01*
X83415568Y-104421403D01*
X83713943Y-104298117D01*
X83977192Y-104035327D01*
X84119838Y-103691799D01*
X84120162Y-103319833D01*
X83978117Y-102976057D01*
X83715327Y-102712808D01*
X83371799Y-102570162D01*
X82999833Y-102569838D01*
X82831403Y-102639432D01*
X82708117Y-102341057D01*
X82445327Y-102077808D01*
X82101799Y-101935162D01*
X82054923Y-101935121D01*
X81817401Y-101697599D01*
X81767088Y-101663981D01*
X81725334Y-101599093D01*
X81812931Y-101470890D01*
X81863940Y-101219000D01*
X81863940Y-100711000D01*
X81819662Y-100475683D01*
X81680590Y-100259559D01*
X81468390Y-100114569D01*
X81216500Y-100063560D01*
X80135000Y-100063560D01*
X80135000Y-89700633D01*
X80458201Y-89834838D01*
X80830167Y-89835162D01*
X81173943Y-89693117D01*
X81207118Y-89660000D01*
X98745198Y-89660000D01*
X99015000Y-89929802D01*
X99015000Y-93319442D01*
X98789683Y-93361838D01*
X98573559Y-93500910D01*
X98428569Y-93713110D01*
X98425919Y-93726197D01*
X98289090Y-93513559D01*
X98076890Y-93368569D01*
X97825000Y-93317560D01*
X96325000Y-93317560D01*
X96089683Y-93361838D01*
X95873559Y-93500910D01*
X95728569Y-93713110D01*
X95699836Y-93855000D01*
X95250000Y-93855000D01*
X94959161Y-93912852D01*
X94712599Y-94077599D01*
X94077599Y-94712599D01*
X93912852Y-94959161D01*
X93855000Y-95250000D01*
X93855000Y-96520000D01*
X93912852Y-96810839D01*
X94077599Y-97057401D01*
X94314878Y-97294680D01*
X94314838Y-97340167D01*
X94456883Y-97683943D01*
X94719673Y-97947192D01*
X95063201Y-98089838D01*
X95435167Y-98090162D01*
X95778943Y-97948117D01*
X96042192Y-97685327D01*
X96184838Y-97341799D01*
X96185162Y-96969833D01*
X96043117Y-96626057D01*
X95780327Y-96362808D01*
X95436799Y-96220162D01*
X95389923Y-96220121D01*
X95375000Y-96205198D01*
X95375000Y-95564802D01*
X95564802Y-95375000D01*
X95698258Y-95375000D01*
X95721838Y-95500317D01*
X95860910Y-95716441D01*
X96073110Y-95861431D01*
X96325000Y-95912440D01*
X97825000Y-95912440D01*
X98060317Y-95868162D01*
X98276441Y-95729090D01*
X98421431Y-95516890D01*
X98424081Y-95503803D01*
X98560910Y-95716441D01*
X98773110Y-95861431D01*
X99025000Y-95912440D01*
X100525000Y-95912440D01*
X100760317Y-95868162D01*
X100976441Y-95729090D01*
X101121431Y-95516890D01*
X101172440Y-95265000D01*
X101172440Y-93965000D01*
X101128162Y-93729683D01*
X100989090Y-93513559D01*
X100776890Y-93368569D01*
X100535000Y-93319585D01*
X100535000Y-89615000D01*
X100477148Y-89324161D01*
X100312401Y-89077599D01*
X100259802Y-89025000D01*
X104176594Y-89025000D01*
X104128559Y-89055910D01*
X103983569Y-89268110D01*
X103947064Y-89448378D01*
X103849161Y-89467852D01*
X103602599Y-89632599D01*
X102967599Y-90267599D01*
X102802852Y-90514161D01*
X102745000Y-90805000D01*
X102745000Y-95957537D01*
X102712808Y-95989673D01*
X102570162Y-96333201D01*
X102569838Y-96705167D01*
X102711883Y-97048943D01*
X102974673Y-97312192D01*
X103318201Y-97454838D01*
X103690167Y-97455162D01*
X104033943Y-97313117D01*
X104297192Y-97050327D01*
X104439838Y-96706799D01*
X104440162Y-96334833D01*
X104298117Y-95991057D01*
X104265000Y-95957882D01*
X104265000Y-95053305D01*
X106699674Y-95053305D01*
X106986043Y-95746372D01*
X107515839Y-96277093D01*
X108208405Y-96564672D01*
X108958305Y-96565326D01*
X109651372Y-96278957D01*
X110182093Y-95749161D01*
X110469672Y-95056595D01*
X110470326Y-94306695D01*
X110183957Y-93613628D01*
X109654161Y-93082907D01*
X108961595Y-92795328D01*
X108211695Y-92794674D01*
X107518628Y-93081043D01*
X106987907Y-93610839D01*
X106700328Y-94303405D01*
X106699674Y-95053305D01*
X104265000Y-95053305D01*
X104265000Y-91373310D01*
X104328110Y-91416431D01*
X104580000Y-91467440D01*
X106080000Y-91467440D01*
X106315317Y-91423162D01*
X106531441Y-91284090D01*
X106676431Y-91071890D01*
X106679081Y-91058803D01*
X106815910Y-91271441D01*
X107028110Y-91416431D01*
X107280000Y-91467440D01*
X108780000Y-91467440D01*
X109015317Y-91423162D01*
X109231441Y-91284090D01*
X109376431Y-91071890D01*
X109427440Y-90820000D01*
X109427440Y-89520000D01*
X109383162Y-89284683D01*
X109244090Y-89068559D01*
X109031890Y-88923569D01*
X108780000Y-88872560D01*
X108768629Y-88872560D01*
X108732148Y-88689161D01*
X108567401Y-88442599D01*
X108514802Y-88390000D01*
X116525198Y-88390000D01*
X116795000Y-88659802D01*
X116795000Y-88874442D01*
X116569683Y-88916838D01*
X116353559Y-89055910D01*
X116208569Y-89268110D01*
X116205919Y-89281197D01*
X116069090Y-89068559D01*
X115856890Y-88923569D01*
X115605000Y-88872560D01*
X114105000Y-88872560D01*
X113869683Y-88916838D01*
X113653559Y-89055910D01*
X113508569Y-89268110D01*
X113472064Y-89448378D01*
X113374161Y-89467852D01*
X113127599Y-89632599D01*
X112492599Y-90267599D01*
X112327852Y-90514161D01*
X112270000Y-90805000D01*
X112270000Y-95957537D01*
X112237808Y-95989673D01*
X112095162Y-96333201D01*
X112094838Y-96705167D01*
X112236883Y-97048943D01*
X112499673Y-97312192D01*
X112843201Y-97454838D01*
X113215167Y-97455162D01*
X113558943Y-97313117D01*
X113822192Y-97050327D01*
X113964838Y-96706799D01*
X113965162Y-96334833D01*
X113823117Y-95991057D01*
X113790000Y-95957882D01*
X113790000Y-94265750D01*
X115128000Y-94265750D01*
X115128000Y-94868310D01*
X115224673Y-95101699D01*
X115403302Y-95280327D01*
X115636691Y-95377000D01*
X116239250Y-95377000D01*
X116398000Y-95218250D01*
X116398000Y-94107000D01*
X115286750Y-94107000D01*
X115128000Y-94265750D01*
X113790000Y-94265750D01*
X113790000Y-93091690D01*
X115128000Y-93091690D01*
X115128000Y-93694250D01*
X115286750Y-93853000D01*
X116398000Y-93853000D01*
X116398000Y-92741750D01*
X116239250Y-92583000D01*
X115636691Y-92583000D01*
X115403302Y-92679673D01*
X115224673Y-92858301D01*
X115128000Y-93091690D01*
X113790000Y-93091690D01*
X113790000Y-91373310D01*
X113853110Y-91416431D01*
X114105000Y-91467440D01*
X115605000Y-91467440D01*
X115840317Y-91423162D01*
X116056441Y-91284090D01*
X116201431Y-91071890D01*
X116204081Y-91058803D01*
X116340910Y-91271441D01*
X116553110Y-91416431D01*
X116805000Y-91467440D01*
X118305000Y-91467440D01*
X118540317Y-91423162D01*
X118756441Y-91284090D01*
X118901431Y-91071890D01*
X118952440Y-90820000D01*
X118952440Y-89520000D01*
X118908162Y-89284683D01*
X118769090Y-89068559D01*
X118556890Y-88923569D01*
X118315000Y-88874585D01*
X118315000Y-88345000D01*
X118257148Y-88054161D01*
X118092401Y-87807599D01*
X118039802Y-87755000D01*
X122875198Y-87755000D01*
X122985000Y-87864802D01*
X122985000Y-88874442D01*
X122759683Y-88916838D01*
X122543559Y-89055910D01*
X122398569Y-89268110D01*
X122347560Y-89520000D01*
X122347560Y-90820000D01*
X122391838Y-91055317D01*
X122446269Y-91139905D01*
X122369833Y-91139838D01*
X122026057Y-91281883D01*
X121762808Y-91544673D01*
X121620162Y-91888201D01*
X121620121Y-91935077D01*
X121067599Y-92487599D01*
X120902852Y-92734161D01*
X120897563Y-92760751D01*
X120814697Y-92794990D01*
X120421371Y-93187630D01*
X120335051Y-93395512D01*
X120250010Y-93189697D01*
X119857370Y-92796371D01*
X119344100Y-92583243D01*
X118788339Y-92582758D01*
X118274697Y-92794990D01*
X117922000Y-93147072D01*
X117922000Y-93091690D01*
X117825327Y-92858301D01*
X117646698Y-92679673D01*
X117413309Y-92583000D01*
X116810750Y-92583000D01*
X116652000Y-92741750D01*
X116652000Y-93853000D01*
X116672000Y-93853000D01*
X116672000Y-94107000D01*
X116652000Y-94107000D01*
X116652000Y-95218250D01*
X116810750Y-95377000D01*
X117413309Y-95377000D01*
X117646698Y-95280327D01*
X117825327Y-95101699D01*
X117922000Y-94868310D01*
X117922000Y-94812386D01*
X118272630Y-95163629D01*
X118785900Y-95376757D01*
X119341661Y-95377242D01*
X119855303Y-95165010D01*
X120248629Y-94772370D01*
X120334949Y-94564488D01*
X120419990Y-94770303D01*
X120812630Y-95163629D01*
X121325900Y-95376757D01*
X121881661Y-95377242D01*
X122395303Y-95165010D01*
X122788629Y-94772370D01*
X122874949Y-94564488D01*
X122959990Y-94770303D01*
X123352630Y-95163629D01*
X123865900Y-95376757D01*
X124421661Y-95377242D01*
X124795023Y-95222972D01*
X124794838Y-95435167D01*
X124936883Y-95778943D01*
X125199673Y-96042192D01*
X125543201Y-96184838D01*
X125915167Y-96185162D01*
X126258943Y-96043117D01*
X126522192Y-95780327D01*
X126664838Y-95436799D01*
X126664879Y-95389923D01*
X126902401Y-95152401D01*
X127067148Y-94905839D01*
X127125000Y-94615000D01*
X127125000Y-91467440D01*
X127195000Y-91467440D01*
X127430317Y-91423162D01*
X127646441Y-91284090D01*
X127791431Y-91071890D01*
X127842440Y-90820000D01*
X127842440Y-89520000D01*
X127798162Y-89284683D01*
X127659090Y-89068559D01*
X127446890Y-88923569D01*
X127195000Y-88872560D01*
X125695000Y-88872560D01*
X125459683Y-88916838D01*
X125243559Y-89055910D01*
X125098569Y-89268110D01*
X125095919Y-89281197D01*
X124959090Y-89068559D01*
X124746890Y-88923569D01*
X124505000Y-88874585D01*
X124505000Y-87550000D01*
X124447148Y-87259161D01*
X124354164Y-87120000D01*
X134305198Y-87120000D01*
X134575000Y-87389802D01*
X134575000Y-88874442D01*
X134349683Y-88916838D01*
X134133559Y-89055910D01*
X133988569Y-89268110D01*
X133985919Y-89281197D01*
X133849090Y-89068559D01*
X133636890Y-88923569D01*
X133385000Y-88872560D01*
X131885000Y-88872560D01*
X131649683Y-88916838D01*
X131433559Y-89055910D01*
X131288569Y-89268110D01*
X131259836Y-89410000D01*
X130810000Y-89410000D01*
X130519161Y-89467852D01*
X130272599Y-89632599D01*
X129637599Y-90267599D01*
X129472852Y-90514161D01*
X129415000Y-90805000D01*
X129415000Y-95957537D01*
X129382808Y-95989673D01*
X129240162Y-96333201D01*
X129239838Y-96705167D01*
X129381883Y-97048943D01*
X129644673Y-97312192D01*
X129988201Y-97454838D01*
X130360167Y-97455162D01*
X130703943Y-97313117D01*
X130967192Y-97050327D01*
X131109838Y-96706799D01*
X131110162Y-96334833D01*
X131100898Y-96312413D01*
X131708405Y-96564672D01*
X132458305Y-96565326D01*
X133151372Y-96278957D01*
X133682093Y-95749161D01*
X133969672Y-95056595D01*
X133970326Y-94306695D01*
X133683957Y-93613628D01*
X133154161Y-93082907D01*
X132461595Y-92795328D01*
X131711695Y-92794674D01*
X131018628Y-93081043D01*
X130935000Y-93164525D01*
X130935000Y-91119802D01*
X131124802Y-90930000D01*
X131258258Y-90930000D01*
X131281838Y-91055317D01*
X131420910Y-91271441D01*
X131633110Y-91416431D01*
X131885000Y-91467440D01*
X133385000Y-91467440D01*
X133620317Y-91423162D01*
X133836441Y-91284090D01*
X133981431Y-91071890D01*
X133984081Y-91058803D01*
X134120910Y-91271441D01*
X134333110Y-91416431D01*
X134585000Y-91467440D01*
X136085000Y-91467440D01*
X136320317Y-91423162D01*
X136536441Y-91284090D01*
X136681431Y-91071890D01*
X136732440Y-90820000D01*
X136732440Y-89520000D01*
X136688162Y-89284683D01*
X136549090Y-89068559D01*
X136336890Y-88923569D01*
X136095000Y-88874585D01*
X136095000Y-87075000D01*
X136037148Y-86784161D01*
X135872401Y-86537599D01*
X135819802Y-86485000D01*
X142560198Y-86485000D01*
X142830000Y-86754802D01*
X142830000Y-93319442D01*
X142604683Y-93361838D01*
X142388559Y-93500910D01*
X142243569Y-93713110D01*
X142240919Y-93726197D01*
X142104090Y-93513559D01*
X141891890Y-93368569D01*
X141640000Y-93317560D01*
X140140000Y-93317560D01*
X139904683Y-93361838D01*
X139688559Y-93500910D01*
X139543569Y-93713110D01*
X139507064Y-93893378D01*
X139409161Y-93912852D01*
X139162599Y-94077599D01*
X138527599Y-94712599D01*
X138362852Y-94959161D01*
X138305000Y-95250000D01*
X138305000Y-95957537D01*
X138272808Y-95989673D01*
X138130162Y-96333201D01*
X138129838Y-96705167D01*
X138271883Y-97048943D01*
X138534673Y-97312192D01*
X138878201Y-97454838D01*
X139250167Y-97455162D01*
X139593943Y-97313117D01*
X139857192Y-97050327D01*
X139999838Y-96706799D01*
X140000162Y-96334833D01*
X139858117Y-95991057D01*
X139825000Y-95957882D01*
X139825000Y-95818310D01*
X139888110Y-95861431D01*
X140140000Y-95912440D01*
X141640000Y-95912440D01*
X141875317Y-95868162D01*
X142091441Y-95729090D01*
X142236431Y-95516890D01*
X142239081Y-95503803D01*
X142375910Y-95716441D01*
X142588110Y-95861431D01*
X142840000Y-95912440D01*
X144340000Y-95912440D01*
X144575317Y-95868162D01*
X144791441Y-95729090D01*
X144936431Y-95516890D01*
X144987440Y-95265000D01*
X144987440Y-93965000D01*
X144943162Y-93729683D01*
X144804090Y-93513559D01*
X144591890Y-93368569D01*
X144350000Y-93319585D01*
X144350000Y-86440000D01*
X144292148Y-86149161D01*
X144127401Y-85902599D01*
X144074802Y-85850000D01*
X154625198Y-85850000D01*
X154815000Y-86039802D01*
X154815000Y-98461594D01*
X154784090Y-98413559D01*
X154571890Y-98268569D01*
X154391622Y-98232064D01*
X154372148Y-98134161D01*
X154207401Y-97887599D01*
X153572401Y-97252599D01*
X153325839Y-97087852D01*
X153035000Y-97030000D01*
X148590000Y-97030000D01*
X148299161Y-97087852D01*
X148052599Y-97252599D01*
X147815320Y-97489878D01*
X147769833Y-97489838D01*
X147426057Y-97631883D01*
X147162808Y-97894673D01*
X147020162Y-98238201D01*
X147019838Y-98610167D01*
X147161883Y-98953943D01*
X147424673Y-99217192D01*
X147768201Y-99359838D01*
X148140167Y-99360162D01*
X148483943Y-99218117D01*
X148747192Y-98955327D01*
X148889838Y-98611799D01*
X148889879Y-98564923D01*
X148904802Y-98550000D01*
X152466690Y-98550000D01*
X152423569Y-98613110D01*
X152372560Y-98865000D01*
X152372560Y-100365000D01*
X152416838Y-100600317D01*
X152555910Y-100816441D01*
X152768110Y-100961431D01*
X152781197Y-100964081D01*
X152568559Y-101100910D01*
X152423569Y-101313110D01*
X152372560Y-101565000D01*
X152372560Y-103065000D01*
X152416838Y-103300317D01*
X152555910Y-103516441D01*
X152768110Y-103661431D01*
X153020000Y-103712440D01*
X154320000Y-103712440D01*
X154555317Y-103668162D01*
X154771441Y-103529090D01*
X154916431Y-103316890D01*
X154967440Y-103065000D01*
X154967440Y-103053629D01*
X155150839Y-103017148D01*
X155397401Y-102852401D01*
X155450000Y-102799802D01*
X155450000Y-112715198D01*
X155180198Y-112985000D01*
X154965558Y-112985000D01*
X154923162Y-112759683D01*
X154784090Y-112543559D01*
X154571890Y-112398569D01*
X154558803Y-112395919D01*
X154771441Y-112259090D01*
X154916431Y-112046890D01*
X154967440Y-111795000D01*
X154967440Y-110295000D01*
X154923162Y-110059683D01*
X154784090Y-109843559D01*
X154571890Y-109698569D01*
X154320000Y-109647560D01*
X153902362Y-109647560D01*
X153572401Y-109317599D01*
X153325839Y-109152852D01*
X153035000Y-109095000D01*
X152327463Y-109095000D01*
X152295327Y-109062808D01*
X151951799Y-108920162D01*
X151579833Y-108919838D01*
X151236057Y-109061883D01*
X150972808Y-109324673D01*
X150830162Y-109668201D01*
X150829838Y-110040167D01*
X150971883Y-110383943D01*
X151234673Y-110647192D01*
X151578201Y-110789838D01*
X151950167Y-110790162D01*
X152293943Y-110648117D01*
X152327118Y-110615000D01*
X152372560Y-110615000D01*
X152372560Y-111795000D01*
X152416838Y-112030317D01*
X152555910Y-112246441D01*
X152768110Y-112391431D01*
X152781197Y-112394081D01*
X152568559Y-112530910D01*
X152423569Y-112743110D01*
X152372560Y-112995000D01*
X152372560Y-114495000D01*
X152416838Y-114730317D01*
X152555910Y-114946441D01*
X152768110Y-115091431D01*
X153020000Y-115142440D01*
X154320000Y-115142440D01*
X154555317Y-115098162D01*
X154771441Y-114959090D01*
X154916431Y-114746890D01*
X154965415Y-114505000D01*
X155495000Y-114505000D01*
X155785839Y-114447148D01*
X156032401Y-114282401D01*
X156747401Y-113567401D01*
X156912148Y-113320839D01*
X156970000Y-113030000D01*
X156970000Y-85090000D01*
X156912148Y-84799161D01*
X156747401Y-84552599D01*
X156112401Y-83917599D01*
X155865839Y-83752852D01*
X155575000Y-83695000D01*
X76200000Y-83695000D01*
X75909161Y-83752852D01*
X75662599Y-83917599D01*
X75027599Y-84552599D01*
X74862852Y-84799161D01*
X74805000Y-85090000D01*
X74805000Y-100076000D01*
X74580750Y-100076000D01*
X74422000Y-100234750D01*
X74422000Y-100838000D01*
X74442000Y-100838000D01*
X74442000Y-101092000D01*
X74422000Y-101092000D01*
X74422000Y-101112000D01*
X74168000Y-101112000D01*
X74168000Y-101092000D01*
X73247250Y-101092000D01*
X73088500Y-101250750D01*
X73088500Y-101345309D01*
X73185173Y-101578698D01*
X73211709Y-101605235D01*
X73127069Y-101729110D01*
X73076060Y-101981000D01*
X71195000Y-101981000D01*
X71195000Y-100584691D01*
X73088500Y-100584691D01*
X73088500Y-100679250D01*
X73247250Y-100838000D01*
X74168000Y-100838000D01*
X74168000Y-100234750D01*
X74009250Y-100076000D01*
X73597190Y-100076000D01*
X73363801Y-100172673D01*
X73185173Y-100351302D01*
X73088500Y-100584691D01*
X71195000Y-100584691D01*
X71195000Y-83248127D01*
X71881847Y-83936174D01*
X73033674Y-84414454D01*
X74280854Y-84415543D01*
X75433515Y-83939273D01*
X76316174Y-83058153D01*
X76794454Y-81906326D01*
X76795543Y-80659146D01*
X76319273Y-79506485D01*
X75628994Y-78815000D01*
X165036873Y-78815000D01*
X164348826Y-79501847D01*
X164348826Y-79501847D01*
G37*
X164348826Y-79501847D02*
X163870546Y-80653674D01*
X163869457Y-81900854D01*
X164345727Y-83053515D01*
X165226847Y-83936174D01*
X166378674Y-84414454D01*
X167625854Y-84415543D01*
X168778515Y-83939273D01*
X169470000Y-83248994D01*
X169470000Y-93855585D01*
X169251309Y-93765000D01*
X168560750Y-93765000D01*
X168402000Y-93923750D01*
X168402000Y-95123000D01*
X168422000Y-95123000D01*
X168422000Y-95377000D01*
X168402000Y-95377000D01*
X168402000Y-95397000D01*
X168148000Y-95397000D01*
X168148000Y-95377000D01*
X166948750Y-95377000D01*
X166790000Y-95535750D01*
X166790000Y-96226310D01*
X166886673Y-96459699D01*
X167065302Y-96638327D01*
X167239777Y-96710597D01*
X167195853Y-96739946D01*
X166873946Y-97221715D01*
X166760907Y-97790000D01*
X166873946Y-98358285D01*
X167195853Y-98840054D01*
X167525026Y-99060000D01*
X167195853Y-99279946D01*
X167002046Y-99570000D01*
X166535633Y-99570000D01*
X166669838Y-99246799D01*
X166670162Y-98874833D01*
X166528117Y-98531057D01*
X166495000Y-98497882D01*
X166495000Y-94273690D01*
X166790000Y-94273690D01*
X166790000Y-94964250D01*
X166948750Y-95123000D01*
X168148000Y-95123000D01*
X168148000Y-93923750D01*
X167989250Y-93765000D01*
X167298691Y-93765000D01*
X167065302Y-93861673D01*
X166886673Y-94040301D01*
X166790000Y-94273690D01*
X166495000Y-94273690D01*
X166495000Y-91367463D01*
X166527192Y-91335327D01*
X166669838Y-90991799D01*
X166670162Y-90619833D01*
X166528117Y-90276057D01*
X166265327Y-90012808D01*
X165921799Y-89870162D01*
X165549833Y-89869838D01*
X165206057Y-90011883D01*
X164942808Y-90274673D01*
X164833235Y-90538554D01*
X164571057Y-90646883D01*
X164307808Y-90909673D01*
X164198235Y-91173554D01*
X163936057Y-91281883D01*
X163672808Y-91544673D01*
X163563235Y-91808554D01*
X163301057Y-91916883D01*
X163037808Y-92179673D01*
X162928235Y-92443554D01*
X162666057Y-92551883D01*
X162402808Y-92814673D01*
X162260162Y-93158201D01*
X162259838Y-93530167D01*
X162401883Y-93873943D01*
X162435000Y-93907118D01*
X162435000Y-108585000D01*
X162492852Y-108875839D01*
X162657599Y-109122401D01*
X163292599Y-109757401D01*
X163539161Y-109922148D01*
X163830000Y-109980000D01*
X166896940Y-109980000D01*
X166833524Y-110133110D01*
X166954845Y-110363000D01*
X168148000Y-110363000D01*
X168148000Y-110343000D01*
X168402000Y-110343000D01*
X168402000Y-110363000D01*
X168422000Y-110363000D01*
X168422000Y-110617000D01*
X168402000Y-110617000D01*
X168402000Y-110637000D01*
X168148000Y-110637000D01*
X168148000Y-110617000D01*
X166954845Y-110617000D01*
X166833524Y-110846890D01*
X167003355Y-111256924D01*
X167279501Y-111559937D01*
X167189683Y-111576838D01*
X166973559Y-111715910D01*
X166828569Y-111928110D01*
X166777560Y-112180000D01*
X166777560Y-113880000D01*
X166821838Y-114115317D01*
X166960910Y-114331441D01*
X167173110Y-114476431D01*
X167240541Y-114490086D01*
X167195853Y-114519946D01*
X166873946Y-115001715D01*
X166760907Y-115570000D01*
X166873946Y-116138285D01*
X167195853Y-116620054D01*
X167525026Y-116840000D01*
X167195853Y-117059946D01*
X166873946Y-117541715D01*
X166760907Y-118110000D01*
X166873946Y-118678285D01*
X167195853Y-119160054D01*
X167515000Y-119373301D01*
X167515000Y-122652188D01*
X167421890Y-122588569D01*
X167170000Y-122537560D01*
X165570000Y-122537560D01*
X165334683Y-122581838D01*
X165118559Y-122720910D01*
X164973569Y-122933110D01*
X164922560Y-123185000D01*
X164922560Y-124175000D01*
X164687533Y-124175000D01*
X164651799Y-124160162D01*
X164279833Y-124159838D01*
X163936057Y-124301883D01*
X163672808Y-124564673D01*
X163530162Y-124908201D01*
X163529838Y-125280167D01*
X163671883Y-125623943D01*
X163934673Y-125887192D01*
X164278201Y-126029838D01*
X164650167Y-126030162D01*
X164922560Y-125917612D01*
X164922560Y-126685000D01*
X164966838Y-126920317D01*
X165105910Y-127136441D01*
X165318110Y-127281431D01*
X165570000Y-127332440D01*
X167170000Y-127332440D01*
X167405317Y-127288162D01*
X167621441Y-127149090D01*
X167766431Y-126936890D01*
X167817440Y-126685000D01*
X167817440Y-125691531D01*
X168090839Y-125637148D01*
X168337401Y-125472401D01*
X168812401Y-124997401D01*
X168977148Y-124750840D01*
X168998368Y-124644161D01*
X169035000Y-124460000D01*
X169035000Y-119373301D01*
X169354147Y-119160054D01*
X169470000Y-118986667D01*
X169470000Y-137096873D01*
X168783153Y-136408826D01*
X167631326Y-135930546D01*
X166384146Y-135929457D01*
X165231485Y-136405727D01*
X164348826Y-137286847D01*
X163870546Y-138438674D01*
X163869457Y-139685854D01*
X164345727Y-140838515D01*
X165036006Y-141530000D01*
X154292515Y-141530000D01*
X153330814Y-136721491D01*
X153334838Y-136711799D01*
X153335162Y-136339833D01*
X153193117Y-135996057D01*
X153183875Y-135986799D01*
X152110666Y-130620750D01*
X164935000Y-130620750D01*
X164935000Y-132211309D01*
X165031673Y-132444698D01*
X165210301Y-132623327D01*
X165443690Y-132720000D01*
X166084250Y-132720000D01*
X166243000Y-132561250D01*
X166243000Y-130462000D01*
X166497000Y-130462000D01*
X166497000Y-132561250D01*
X166655750Y-132720000D01*
X167296310Y-132720000D01*
X167529699Y-132623327D01*
X167708327Y-132444698D01*
X167805000Y-132211309D01*
X167805000Y-130620750D01*
X167646250Y-130462000D01*
X166497000Y-130462000D01*
X166243000Y-130462000D01*
X165093750Y-130462000D01*
X164935000Y-130620750D01*
X152110666Y-130620750D01*
X151678254Y-128458691D01*
X164935000Y-128458691D01*
X164935000Y-130049250D01*
X165093750Y-130208000D01*
X166243000Y-130208000D01*
X166243000Y-128108750D01*
X166497000Y-128108750D01*
X166497000Y-130208000D01*
X167646250Y-130208000D01*
X167805000Y-130049250D01*
X167805000Y-128458691D01*
X167708327Y-128225302D01*
X167529699Y-128046673D01*
X167296310Y-127950000D01*
X166655750Y-127950000D01*
X166497000Y-128108750D01*
X166243000Y-128108750D01*
X166084250Y-127950000D01*
X165443690Y-127950000D01*
X165210301Y-128046673D01*
X165031673Y-128225302D01*
X164935000Y-128458691D01*
X151678254Y-128458691D01*
X151254534Y-126340093D01*
X151221035Y-126276447D01*
X151179410Y-126248006D01*
X151130000Y-126238000D01*
X141650000Y-126238000D01*
X141650000Y-120040558D01*
X141875317Y-119998162D01*
X142091441Y-119859090D01*
X142236431Y-119646890D01*
X142239081Y-119633803D01*
X142375910Y-119846441D01*
X142588110Y-119991431D01*
X142840000Y-120042440D01*
X144340000Y-120042440D01*
X144575317Y-119998162D01*
X144791441Y-119859090D01*
X144936431Y-119646890D01*
X144972936Y-119466622D01*
X145070839Y-119447148D01*
X145317401Y-119282401D01*
X145952401Y-118647401D01*
X146117148Y-118400839D01*
X146175000Y-118110000D01*
X146175000Y-117402463D01*
X146207192Y-117370327D01*
X146349838Y-117026799D01*
X146350162Y-116654833D01*
X146208117Y-116311057D01*
X145945327Y-116047808D01*
X145601799Y-115905162D01*
X145229833Y-115904838D01*
X144886057Y-116046883D01*
X144622808Y-116309673D01*
X144480162Y-116653201D01*
X144479838Y-117025167D01*
X144621883Y-117368943D01*
X144655000Y-117402118D01*
X144655000Y-117541690D01*
X144591890Y-117498569D01*
X144340000Y-117447560D01*
X142840000Y-117447560D01*
X142604683Y-117491838D01*
X142388559Y-117630910D01*
X142243569Y-117843110D01*
X142240919Y-117856197D01*
X142104090Y-117643559D01*
X141891890Y-117498569D01*
X141640000Y-117447560D01*
X140140000Y-117447560D01*
X139904683Y-117491838D01*
X139688559Y-117630910D01*
X139543569Y-117843110D01*
X139492560Y-118095000D01*
X139492560Y-119395000D01*
X139536838Y-119630317D01*
X139675910Y-119846441D01*
X139888110Y-119991431D01*
X140130000Y-120040415D01*
X140130000Y-126238000D01*
X133395000Y-126238000D01*
X133395000Y-124485558D01*
X133620317Y-124443162D01*
X133836441Y-124304090D01*
X133981431Y-124091890D01*
X133984081Y-124078803D01*
X134120910Y-124291441D01*
X134333110Y-124436431D01*
X134585000Y-124487440D01*
X136085000Y-124487440D01*
X136320317Y-124443162D01*
X136536441Y-124304090D01*
X136681431Y-124091890D01*
X136717936Y-123911622D01*
X136815839Y-123892148D01*
X137062401Y-123727401D01*
X137697401Y-123092401D01*
X137862148Y-122845839D01*
X137920000Y-122555000D01*
X137920000Y-117402463D01*
X137952192Y-117370327D01*
X138094838Y-117026799D01*
X138095162Y-116654833D01*
X137953117Y-116311057D01*
X137690327Y-116047808D01*
X137346799Y-115905162D01*
X136974833Y-115904838D01*
X136631057Y-116046883D01*
X136367808Y-116309673D01*
X136225162Y-116653201D01*
X136224838Y-117025167D01*
X136366883Y-117368943D01*
X136400000Y-117402118D01*
X136400000Y-121986690D01*
X136336890Y-121943569D01*
X136085000Y-121892560D01*
X134585000Y-121892560D01*
X134349683Y-121936838D01*
X134133559Y-122075910D01*
X133988569Y-122288110D01*
X133985919Y-122301197D01*
X133849090Y-122088559D01*
X133636890Y-121943569D01*
X133385000Y-121892560D01*
X131885000Y-121892560D01*
X131649683Y-121936838D01*
X131433559Y-122075910D01*
X131288569Y-122288110D01*
X131237560Y-122540000D01*
X131237560Y-123840000D01*
X131281838Y-124075317D01*
X131420910Y-124291441D01*
X131633110Y-124436431D01*
X131875000Y-124485415D01*
X131875000Y-126238000D01*
X124505000Y-126238000D01*
X124505000Y-124485558D01*
X124730317Y-124443162D01*
X124946441Y-124304090D01*
X125091431Y-124091890D01*
X125094081Y-124078803D01*
X125230910Y-124291441D01*
X125443110Y-124436431D01*
X125695000Y-124487440D01*
X127195000Y-124487440D01*
X127430317Y-124443162D01*
X127646441Y-124304090D01*
X127791431Y-124091890D01*
X127827936Y-123911622D01*
X127925839Y-123892148D01*
X128172401Y-123727401D01*
X128807401Y-123092401D01*
X128972148Y-122845839D01*
X129030000Y-122555000D01*
X129030000Y-118853305D01*
X130199674Y-118853305D01*
X130486043Y-119546372D01*
X131015839Y-120077093D01*
X131708405Y-120364672D01*
X132458305Y-120365326D01*
X133151372Y-120078957D01*
X133682093Y-119549161D01*
X133969672Y-118856595D01*
X133970326Y-118106695D01*
X133683957Y-117413628D01*
X133154161Y-116882907D01*
X132461595Y-116595328D01*
X131711695Y-116594674D01*
X131018628Y-116881043D01*
X130487907Y-117410839D01*
X130200328Y-118103405D01*
X130199674Y-118853305D01*
X129030000Y-118853305D01*
X129030000Y-117402463D01*
X129062192Y-117370327D01*
X129204838Y-117026799D01*
X129205162Y-116654833D01*
X129063117Y-116311057D01*
X128800327Y-116047808D01*
X128456799Y-115905162D01*
X128084833Y-115904838D01*
X127741057Y-116046883D01*
X127477808Y-116309673D01*
X127335162Y-116653201D01*
X127334838Y-117025167D01*
X127476883Y-117368943D01*
X127510000Y-117402118D01*
X127510000Y-121986690D01*
X127446890Y-121943569D01*
X127195000Y-121892560D01*
X125695000Y-121892560D01*
X125459683Y-121936838D01*
X125243559Y-122075910D01*
X125098569Y-122288110D01*
X125095919Y-122301197D01*
X124959090Y-122088559D01*
X124746890Y-121943569D01*
X124495000Y-121892560D01*
X122995000Y-121892560D01*
X122759683Y-121936838D01*
X122543559Y-122075910D01*
X122398569Y-122288110D01*
X122347560Y-122540000D01*
X122347560Y-123840000D01*
X122391838Y-124075317D01*
X122530910Y-124291441D01*
X122743110Y-124436431D01*
X122985000Y-124485415D01*
X122985000Y-126238000D01*
X115615000Y-126238000D01*
X115615000Y-124485558D01*
X115840317Y-124443162D01*
X116056441Y-124304090D01*
X116201431Y-124091890D01*
X116204081Y-124078803D01*
X116340910Y-124291441D01*
X116553110Y-124436431D01*
X116805000Y-124487440D01*
X118305000Y-124487440D01*
X118540317Y-124443162D01*
X118756441Y-124304090D01*
X118901431Y-124091890D01*
X118937936Y-123911622D01*
X119035839Y-123892148D01*
X119282401Y-123727401D01*
X119917401Y-123092401D01*
X120082148Y-122845839D01*
X120140000Y-122555000D01*
X120140000Y-117402463D01*
X120172192Y-117370327D01*
X120314838Y-117026799D01*
X120315162Y-116654833D01*
X120173117Y-116311057D01*
X119910327Y-116047808D01*
X119566799Y-115905162D01*
X119194833Y-115904838D01*
X118851057Y-116046883D01*
X118587808Y-116309673D01*
X118445162Y-116653201D01*
X118444838Y-117025167D01*
X118586883Y-117368943D01*
X118620000Y-117402118D01*
X118620000Y-121986690D01*
X118556890Y-121943569D01*
X118305000Y-121892560D01*
X116805000Y-121892560D01*
X116569683Y-121936838D01*
X116353559Y-122075910D01*
X116208569Y-122288110D01*
X116205919Y-122301197D01*
X116069090Y-122088559D01*
X115856890Y-121943569D01*
X115605000Y-121892560D01*
X114105000Y-121892560D01*
X113869683Y-121936838D01*
X113653559Y-122075910D01*
X113508569Y-122288110D01*
X113457560Y-122540000D01*
X113457560Y-123840000D01*
X113501838Y-124075317D01*
X113640910Y-124291441D01*
X113853110Y-124436431D01*
X114095000Y-124485415D01*
X114095000Y-126238000D01*
X106090000Y-126238000D01*
X106090000Y-124485558D01*
X106315317Y-124443162D01*
X106531441Y-124304090D01*
X106676431Y-124091890D01*
X106679081Y-124078803D01*
X106815910Y-124291441D01*
X107028110Y-124436431D01*
X107280000Y-124487440D01*
X108780000Y-124487440D01*
X109015317Y-124443162D01*
X109231441Y-124304090D01*
X109376431Y-124091890D01*
X109405164Y-123950000D01*
X109855000Y-123950000D01*
X110145839Y-123892148D01*
X110392401Y-123727401D01*
X111027401Y-123092401D01*
X111192148Y-122845839D01*
X111250000Y-122555000D01*
X111250000Y-117402463D01*
X111282192Y-117370327D01*
X111424838Y-117026799D01*
X111425162Y-116654833D01*
X111283117Y-116311057D01*
X111020327Y-116047808D01*
X110676799Y-115905162D01*
X110304833Y-115904838D01*
X109961057Y-116046883D01*
X109697808Y-116309673D01*
X109555162Y-116653201D01*
X109554998Y-116841731D01*
X108961595Y-116595328D01*
X108211695Y-116594674D01*
X107518628Y-116881043D01*
X106987907Y-117410839D01*
X106700328Y-118103405D01*
X106699674Y-118853305D01*
X106986043Y-119546372D01*
X107515839Y-120077093D01*
X108208405Y-120364672D01*
X108958305Y-120365326D01*
X109651372Y-120078957D01*
X109730000Y-120000466D01*
X109730000Y-122240198D01*
X109540198Y-122430000D01*
X109406742Y-122430000D01*
X109383162Y-122304683D01*
X109244090Y-122088559D01*
X109031890Y-121943569D01*
X108780000Y-121892560D01*
X107280000Y-121892560D01*
X107044683Y-121936838D01*
X106828559Y-122075910D01*
X106683569Y-122288110D01*
X106680919Y-122301197D01*
X106544090Y-122088559D01*
X106331890Y-121943569D01*
X106080000Y-121892560D01*
X104580000Y-121892560D01*
X104344683Y-121936838D01*
X104128559Y-122075910D01*
X103983569Y-122288110D01*
X103932560Y-122540000D01*
X103932560Y-123840000D01*
X103976838Y-124075317D01*
X104115910Y-124291441D01*
X104328110Y-124436431D01*
X104570000Y-124485415D01*
X104570000Y-126238000D01*
X97835000Y-126238000D01*
X97835000Y-120040558D01*
X98060317Y-119998162D01*
X98276441Y-119859090D01*
X98421431Y-119646890D01*
X98424081Y-119633803D01*
X98560910Y-119846441D01*
X98773110Y-119991431D01*
X99025000Y-120042440D01*
X100525000Y-120042440D01*
X100760317Y-119998162D01*
X100976441Y-119859090D01*
X101121431Y-119646890D01*
X101157936Y-119466622D01*
X101255839Y-119447148D01*
X101502401Y-119282401D01*
X102137401Y-118647401D01*
X102302148Y-118400839D01*
X102360000Y-118110000D01*
X102360000Y-117402463D01*
X102392192Y-117370327D01*
X102534838Y-117026799D01*
X102535162Y-116654833D01*
X102393117Y-116311057D01*
X102130327Y-116047808D01*
X101786799Y-115905162D01*
X101414833Y-115904838D01*
X101071057Y-116046883D01*
X100807808Y-116309673D01*
X100665162Y-116653201D01*
X100664838Y-117025167D01*
X100806883Y-117368943D01*
X100840000Y-117402118D01*
X100840000Y-117541690D01*
X100776890Y-117498569D01*
X100525000Y-117447560D01*
X99025000Y-117447560D01*
X98789683Y-117491838D01*
X98573559Y-117630910D01*
X98428569Y-117843110D01*
X98425919Y-117856197D01*
X98289090Y-117643559D01*
X98076890Y-117498569D01*
X97825000Y-117447560D01*
X96325000Y-117447560D01*
X96089683Y-117491838D01*
X95873559Y-117630910D01*
X95728569Y-117843110D01*
X95677560Y-118095000D01*
X95677560Y-119395000D01*
X95721838Y-119630317D01*
X95860910Y-119846441D01*
X96073110Y-119991431D01*
X96315000Y-120040415D01*
X96315000Y-126238000D01*
X88900000Y-126238000D01*
X88873113Y-126240879D01*
X88826941Y-126261118D01*
X88792282Y-126297726D01*
X88774595Y-126344935D01*
X87978585Y-131320000D01*
X86280710Y-131320000D01*
X86427148Y-131100839D01*
X86485000Y-130810000D01*
X86485000Y-115142440D01*
X87645000Y-115142440D01*
X87880317Y-115098162D01*
X88096441Y-114959090D01*
X88153476Y-114875617D01*
X88369673Y-115092192D01*
X88713201Y-115234838D01*
X89085167Y-115235162D01*
X89428943Y-115093117D01*
X89692192Y-114830327D01*
X89834838Y-114486799D01*
X89835162Y-114114833D01*
X89693117Y-113771057D01*
X89430327Y-113507808D01*
X89086799Y-113365162D01*
X89039923Y-113365121D01*
X88882401Y-113207599D01*
X88635839Y-113042852D01*
X88345000Y-112985000D01*
X88290558Y-112985000D01*
X88248162Y-112759683D01*
X88109090Y-112543559D01*
X87896890Y-112398569D01*
X87883803Y-112395919D01*
X88096441Y-112259090D01*
X88241431Y-112046890D01*
X88292440Y-111795000D01*
X88292440Y-110295000D01*
X88248162Y-110059683D01*
X88109090Y-109843559D01*
X87896890Y-109698569D01*
X87645000Y-109647560D01*
X86485000Y-109647560D01*
X86485000Y-106680000D01*
X92000000Y-106680000D01*
X92489074Y-109138741D01*
X93881839Y-111223161D01*
X95966259Y-112615926D01*
X98425000Y-113105000D01*
X100883741Y-112615926D01*
X102968161Y-111223161D01*
X104360926Y-109138741D01*
X104850000Y-106680000D01*
X104360926Y-104221259D01*
X102968161Y-102136839D01*
X100883741Y-100744074D01*
X98425000Y-100255000D01*
X95966259Y-100744074D01*
X93881839Y-102136839D01*
X92489074Y-104221259D01*
X92000000Y-106680000D01*
X86485000Y-106680000D01*
X86485000Y-103712440D01*
X86762638Y-103712440D01*
X87092599Y-104042401D01*
X87339161Y-104207148D01*
X87630000Y-104265000D01*
X88337537Y-104265000D01*
X88369673Y-104297192D01*
X88713201Y-104439838D01*
X89085167Y-104440162D01*
X89428943Y-104298117D01*
X89692192Y-104035327D01*
X89834838Y-103691799D01*
X89835162Y-103319833D01*
X89693117Y-102976057D01*
X89430327Y-102712808D01*
X89086799Y-102570162D01*
X88714833Y-102569838D01*
X88371057Y-102711883D01*
X88337882Y-102745000D01*
X88292440Y-102745000D01*
X88292440Y-101565000D01*
X88248162Y-101329683D01*
X88109090Y-101113559D01*
X87896890Y-100968569D01*
X87883803Y-100965919D01*
X88096441Y-100829090D01*
X88241431Y-100616890D01*
X88292440Y-100365000D01*
X88292440Y-99060000D01*
X106605000Y-99060000D01*
X106605000Y-114300000D01*
X106659046Y-114571705D01*
X106812954Y-114802046D01*
X107043295Y-114955954D01*
X107315000Y-115010000D01*
X133350000Y-115010000D01*
X133621705Y-114955954D01*
X133852046Y-114802046D01*
X134005954Y-114571705D01*
X134060000Y-114300000D01*
X134060000Y-106680000D01*
X135815000Y-106680000D01*
X136304074Y-109138741D01*
X137696839Y-111223161D01*
X139781259Y-112615926D01*
X142240000Y-113105000D01*
X144698741Y-112615926D01*
X146783161Y-111223161D01*
X148175926Y-109138741D01*
X148665000Y-106680000D01*
X148175926Y-104221259D01*
X146783161Y-102136839D01*
X144698741Y-100744074D01*
X142240000Y-100255000D01*
X139781259Y-100744074D01*
X137696839Y-102136839D01*
X136304074Y-104221259D01*
X135815000Y-106680000D01*
X134060000Y-106680000D01*
X134060000Y-99060000D01*
X134005954Y-98788295D01*
X133852046Y-98557954D01*
X133621705Y-98404046D01*
X133350000Y-98350000D01*
X107315000Y-98350000D01*
X107043295Y-98404046D01*
X106812954Y-98557954D01*
X106659046Y-98788295D01*
X106605000Y-99060000D01*
X88292440Y-99060000D01*
X88292440Y-98865000D01*
X88248162Y-98629683D01*
X88109090Y-98413559D01*
X87896890Y-98268569D01*
X87645000Y-98217560D01*
X86345000Y-98217560D01*
X86109683Y-98261838D01*
X85893559Y-98400910D01*
X85748569Y-98613110D01*
X85697560Y-98865000D01*
X85697560Y-99282638D01*
X85187599Y-99792599D01*
X85022852Y-100039161D01*
X84965000Y-100330000D01*
X84965000Y-110175198D01*
X84552599Y-110587599D01*
X84387852Y-110834161D01*
X84330000Y-111125000D01*
X84330000Y-129860198D01*
X84140198Y-130050000D01*
X81797780Y-130050000D01*
X81851500Y-129920309D01*
X81851500Y-129825750D01*
X81692750Y-129667000D01*
X80772000Y-129667000D01*
X80772000Y-129687000D01*
X80518000Y-129687000D01*
X80518000Y-129667000D01*
X80498000Y-129667000D01*
X80498000Y-129413000D01*
X80518000Y-129413000D01*
X80518000Y-129393000D01*
X80772000Y-129393000D01*
X80772000Y-129413000D01*
X81692750Y-129413000D01*
X81851500Y-129254250D01*
X81851500Y-129159691D01*
X81754827Y-128926302D01*
X81728291Y-128899765D01*
X81812931Y-128775890D01*
X81863940Y-128524000D01*
X81863940Y-128016000D01*
X81819662Y-127780683D01*
X81725334Y-127634093D01*
X81812931Y-127505890D01*
X81863940Y-127254000D01*
X81863940Y-126746000D01*
X81819662Y-126510683D01*
X81725334Y-126364093D01*
X81812931Y-126235890D01*
X81863940Y-125984000D01*
X81863940Y-125476000D01*
X81819662Y-125240683D01*
X81725334Y-125094093D01*
X81812931Y-124965890D01*
X81863940Y-124714000D01*
X81863940Y-124206000D01*
X81819662Y-123970683D01*
X81725334Y-123824093D01*
X81812931Y-123695890D01*
X81863940Y-123444000D01*
X81863940Y-122936000D01*
X81819662Y-122700683D01*
X81725334Y-122554093D01*
X81812931Y-122425890D01*
X81863940Y-122174000D01*
X81863940Y-121666000D01*
X81819662Y-121430683D01*
X81725334Y-121284093D01*
X81812931Y-121155890D01*
X81863940Y-120904000D01*
X81863940Y-120396000D01*
X81819662Y-120160683D01*
X81680590Y-119944559D01*
X81468390Y-119799569D01*
X81216500Y-119748560D01*
X80073500Y-119748560D01*
X79838183Y-119792838D01*
X79803151Y-119815381D01*
X79561799Y-119715162D01*
X79189833Y-119714838D01*
X78846057Y-119856883D01*
X78582808Y-120119673D01*
X78440162Y-120463201D01*
X78439838Y-120835167D01*
X78581883Y-121178943D01*
X78687710Y-121284954D01*
X78582808Y-121389673D01*
X78440162Y-121733201D01*
X78439838Y-122105167D01*
X78574056Y-122430000D01*
X77595000Y-122430000D01*
X77595000Y-120964802D01*
X77609680Y-120950122D01*
X77655167Y-120950162D01*
X77998943Y-120808117D01*
X78262192Y-120545327D01*
X78404838Y-120201799D01*
X78405162Y-119829833D01*
X78263117Y-119486057D01*
X78147262Y-119370000D01*
X78434250Y-119370000D01*
X78593000Y-119211250D01*
X78593000Y-118237000D01*
X78847000Y-118237000D01*
X78847000Y-119211250D01*
X79005750Y-119370000D01*
X79596309Y-119370000D01*
X79829698Y-119273327D01*
X80008327Y-119094699D01*
X80105000Y-118861310D01*
X80105000Y-118395750D01*
X79946250Y-118237000D01*
X78847000Y-118237000D01*
X78593000Y-118237000D01*
X78573000Y-118237000D01*
X78573000Y-117983000D01*
X78593000Y-117983000D01*
X78593000Y-117008750D01*
X78847000Y-117008750D01*
X78847000Y-117983000D01*
X79946250Y-117983000D01*
X80105000Y-117824250D01*
X80105000Y-117358690D01*
X80008327Y-117125301D01*
X79829698Y-116946673D01*
X79596309Y-116850000D01*
X79005750Y-116850000D01*
X78847000Y-117008750D01*
X78593000Y-117008750D01*
X78434250Y-116850000D01*
X77843691Y-116850000D01*
X77610302Y-116946673D01*
X77469064Y-117087910D01*
X77434090Y-117033559D01*
X77221890Y-116888569D01*
X76970000Y-116837560D01*
X75470000Y-116837560D01*
X75234683Y-116881838D01*
X75018559Y-117020910D01*
X74873569Y-117233110D01*
X74846536Y-117366602D01*
X74639161Y-117407852D01*
X74392599Y-117572599D01*
X73757599Y-118207599D01*
X73592852Y-118454161D01*
X73535000Y-118745000D01*
X73535000Y-119784029D01*
X73488183Y-119792838D01*
X73272059Y-119931910D01*
X73127069Y-120144110D01*
X73076060Y-120396000D01*
X73076060Y-120904000D01*
X73120338Y-121139317D01*
X73214666Y-121285907D01*
X73127069Y-121414110D01*
X73076060Y-121666000D01*
X73076060Y-122174000D01*
X73120338Y-122409317D01*
X73214666Y-122555907D01*
X73127069Y-122684110D01*
X73076060Y-122936000D01*
X73076060Y-123444000D01*
X73120338Y-123679317D01*
X73211104Y-123820371D01*
X73185173Y-123846302D01*
X73088500Y-124079691D01*
X73088500Y-124174250D01*
X73247250Y-124333000D01*
X74168000Y-124333000D01*
X74168000Y-124313000D01*
X74422000Y-124313000D01*
X74422000Y-124333000D01*
X75342750Y-124333000D01*
X75501500Y-124174250D01*
X75501500Y-124079691D01*
X75447780Y-123950000D01*
X76075000Y-123950000D01*
X76075000Y-132899998D01*
X76132852Y-133190837D01*
X76297599Y-133437399D01*
X76747601Y-133887401D01*
X76994163Y-134052148D01*
X77285002Y-134110000D01*
X77939367Y-134110000D01*
X77805162Y-134433201D01*
X77804838Y-134805167D01*
X77946883Y-135148943D01*
X78209673Y-135412192D01*
X78553201Y-135554838D01*
X78925167Y-135555162D01*
X79268943Y-135413117D01*
X79302118Y-135380000D01*
X83654367Y-135380000D01*
X83553235Y-135623554D01*
X83291057Y-135731883D01*
X83027808Y-135994673D01*
X82885162Y-136338201D01*
X82884838Y-136710167D01*
X83026883Y-137053943D01*
X83289673Y-137317192D01*
X83633201Y-137459838D01*
X84005167Y-137460162D01*
X84348943Y-137318117D01*
X84382118Y-137285000D01*
X87024185Y-137285000D01*
X86344985Y-141530000D01*
X75628127Y-141530000D01*
X76316174Y-140843153D01*
X76794454Y-139691326D01*
X76795543Y-138444146D01*
X76319273Y-137291485D01*
X75438153Y-136408826D01*
X74286326Y-135930546D01*
X73039146Y-135929457D01*
X71886485Y-136405727D01*
X71195000Y-137096006D01*
X71195000Y-125280167D01*
X71454838Y-125280167D01*
X71596883Y-125623943D01*
X71859673Y-125887192D01*
X72159332Y-126011622D01*
X72090162Y-126178201D01*
X72089838Y-126550167D01*
X72231883Y-126893943D01*
X72494673Y-127157192D01*
X72838201Y-127299838D01*
X72885077Y-127299879D01*
X73122599Y-127537401D01*
X73172912Y-127571019D01*
X73214666Y-127635907D01*
X73170442Y-127700631D01*
X73122599Y-127732599D01*
X72885320Y-127969878D01*
X72839833Y-127969838D01*
X72496057Y-128111883D01*
X72232808Y-128374673D01*
X72123235Y-128638554D01*
X71861057Y-128746883D01*
X71597808Y-129009673D01*
X71455162Y-129353201D01*
X71454838Y-129725167D01*
X71596883Y-130068943D01*
X71859673Y-130332192D01*
X72203201Y-130474838D01*
X72575167Y-130475162D01*
X72918943Y-130333117D01*
X72952118Y-130300000D01*
X73339260Y-130300000D01*
X73471610Y-130390431D01*
X73723500Y-130441440D01*
X74866500Y-130441440D01*
X75101817Y-130397162D01*
X75317941Y-130258090D01*
X75462931Y-130045890D01*
X75513940Y-129794000D01*
X75513940Y-129286000D01*
X75469662Y-129050683D01*
X75375334Y-128904093D01*
X75462931Y-128775890D01*
X75513940Y-128524000D01*
X75513940Y-128016000D01*
X75469662Y-127780683D01*
X75375334Y-127634093D01*
X75462931Y-127505890D01*
X75513940Y-127254000D01*
X75513940Y-126746000D01*
X75469662Y-126510683D01*
X75375334Y-126364093D01*
X75462931Y-126235890D01*
X75513940Y-125984000D01*
X75513940Y-125476000D01*
X75469662Y-125240683D01*
X75378896Y-125099629D01*
X75404827Y-125073698D01*
X75501500Y-124840309D01*
X75501500Y-124745750D01*
X75342750Y-124587000D01*
X74422000Y-124587000D01*
X74422000Y-124607000D01*
X74168000Y-124607000D01*
X74168000Y-124587000D01*
X73247250Y-124587000D01*
X73207992Y-124626258D01*
X73183117Y-124566057D01*
X72920327Y-124302808D01*
X72576799Y-124160162D01*
X72204833Y-124159838D01*
X71861057Y-124301883D01*
X71597808Y-124564673D01*
X71455162Y-124908201D01*
X71454838Y-125280167D01*
X71195000Y-125280167D01*
X71195000Y-112680750D01*
X74835000Y-112680750D01*
X74835000Y-113146310D01*
X74931673Y-113379699D01*
X75110302Y-113558327D01*
X75343691Y-113655000D01*
X75934250Y-113655000D01*
X76093000Y-113496250D01*
X76093000Y-112522000D01*
X74993750Y-112522000D01*
X74835000Y-112680750D01*
X71195000Y-112680750D01*
X71195000Y-111643690D01*
X74835000Y-111643690D01*
X74835000Y-112109250D01*
X74993750Y-112268000D01*
X76093000Y-112268000D01*
X76093000Y-111293750D01*
X75934250Y-111135000D01*
X75343691Y-111135000D01*
X75110302Y-111231673D01*
X74931673Y-111410301D01*
X74835000Y-111643690D01*
X71195000Y-111643690D01*
X71195000Y-101981000D01*
X73076060Y-101981000D01*
X73076060Y-102489000D01*
X73120338Y-102724317D01*
X73214666Y-102870907D01*
X73127069Y-102999110D01*
X73076060Y-103251000D01*
X73076060Y-103759000D01*
X73120338Y-103994317D01*
X73214666Y-104140907D01*
X73127069Y-104269110D01*
X73076060Y-104521000D01*
X73076060Y-105029000D01*
X73120338Y-105264317D01*
X73214666Y-105410907D01*
X73127069Y-105539110D01*
X73076060Y-105791000D01*
X73076060Y-106299000D01*
X73120338Y-106534317D01*
X73214666Y-106680907D01*
X73127069Y-106809110D01*
X73076060Y-107061000D01*
X73076060Y-107569000D01*
X73120338Y-107804317D01*
X73214666Y-107950907D01*
X73127069Y-108079110D01*
X73076060Y-108331000D01*
X73076060Y-108839000D01*
X73120338Y-109074317D01*
X73214666Y-109220907D01*
X73127069Y-109349110D01*
X73076060Y-109601000D01*
X73076060Y-110109000D01*
X73120338Y-110344317D01*
X73259410Y-110560441D01*
X73471610Y-110705431D01*
X73723500Y-110756440D01*
X74866500Y-110756440D01*
X75101817Y-110712162D01*
X75136849Y-110689619D01*
X75378201Y-110789838D01*
X75750167Y-110790162D01*
X76093943Y-110648117D01*
X76357192Y-110385327D01*
X76499838Y-110041799D01*
X76500162Y-109669833D01*
X76358117Y-109326057D01*
X76252290Y-109220046D01*
X76329052Y-109143417D01*
X76544161Y-109287148D01*
X76835000Y-109345000D01*
X79479877Y-109345000D01*
X79477069Y-109349110D01*
X79426060Y-109601000D01*
X79426060Y-110109000D01*
X79470338Y-110344317D01*
X79609410Y-110560441D01*
X79821610Y-110705431D01*
X79885000Y-110718268D01*
X79885000Y-111285017D01*
X79721890Y-111173569D01*
X79470000Y-111122560D01*
X77970000Y-111122560D01*
X77734683Y-111166838D01*
X77518559Y-111305910D01*
X77472031Y-111374006D01*
X77329698Y-111231673D01*
X77096309Y-111135000D01*
X76505750Y-111135000D01*
X76347000Y-111293750D01*
X76347000Y-112268000D01*
X76367000Y-112268000D01*
X76367000Y-112522000D01*
X76347000Y-112522000D01*
X76347000Y-113496250D01*
X76505750Y-113655000D01*
X76535008Y-113655000D01*
X76534838Y-113850167D01*
X76676883Y-114193943D01*
X76939673Y-114457192D01*
X77283201Y-114599838D01*
X77655167Y-114600162D01*
X77998943Y-114458117D01*
X78262192Y-114195327D01*
X78404838Y-113851799D01*
X78404896Y-113784906D01*
X78522362Y-113667440D01*
X79470000Y-113667440D01*
X79705317Y-113623162D01*
X79921441Y-113484090D01*
X80066431Y-113271890D01*
X80093464Y-113138398D01*
X80300839Y-113097148D01*
X80547401Y-112932401D01*
X81182401Y-112297401D01*
X81347148Y-112050839D01*
X81405000Y-111760000D01*
X81405000Y-110720971D01*
X81451817Y-110712162D01*
X81667941Y-110573090D01*
X81812931Y-110360890D01*
X81863940Y-110109000D01*
X81863940Y-109601000D01*
X81819662Y-109365683D01*
X81725334Y-109219093D01*
X81812931Y-109090890D01*
X81863940Y-108839000D01*
X81863940Y-108586187D01*
X82019673Y-108742192D01*
X82363201Y-108884838D01*
X82735167Y-108885162D01*
X83078943Y-108743117D01*
X83342192Y-108480327D01*
X83484838Y-108136799D01*
X83485162Y-107764833D01*
X83343117Y-107421057D01*
X83080327Y-107157808D01*
X82736799Y-107015162D01*
X82689923Y-107015121D01*
X82452401Y-106777599D01*
X82205839Y-106612852D01*
X81915000Y-106555000D01*
X81797780Y-106555000D01*
X81851500Y-106425309D01*
X81851500Y-106330750D01*
X81692750Y-106172000D01*
X80772000Y-106172000D01*
X80772000Y-106192000D01*
X80518000Y-106192000D01*
X80518000Y-106172000D01*
X79597250Y-106172000D01*
X79438500Y-106330750D01*
X79438500Y-106425309D01*
X79535173Y-106658698D01*
X79561709Y-106685235D01*
X79477069Y-106809110D01*
X79426060Y-107061000D01*
X79426060Y-107569000D01*
X79470338Y-107804317D01*
X79483647Y-107825000D01*
X78034802Y-107825000D01*
X78642401Y-107217401D01*
X78807148Y-106970839D01*
X78865000Y-106680000D01*
X78865000Y-102400633D01*
X79188201Y-102534838D01*
X79434725Y-102535053D01*
X79470338Y-102724317D01*
X79564666Y-102870907D01*
X79477069Y-102999110D01*
X79426060Y-103251000D01*
X79426060Y-103759000D01*
X79470338Y-103994317D01*
X79564666Y-104140907D01*
X79477069Y-104269110D01*
X79426060Y-104521000D01*
X79426060Y-105029000D01*
X79470338Y-105264317D01*
X79561104Y-105405371D01*
X79535173Y-105431302D01*
X79438500Y-105664691D01*
X79438500Y-105759250D01*
X79597250Y-105918000D01*
X80518000Y-105918000D01*
X80518000Y-105898000D01*
X80772000Y-105898000D01*
X80772000Y-105918000D01*
X81692750Y-105918000D01*
X81851500Y-105759250D01*
X81851500Y-105664691D01*
X81797780Y-105535000D01*
X81987537Y-105535000D01*
X82019673Y-105567192D01*
X82363201Y-105709838D01*
X82735167Y-105710162D01*
X83078943Y-105568117D01*
X83342192Y-105305327D01*
X83484838Y-104961799D01*
X83485162Y-104589833D01*
X83415568Y-104421403D01*
X83713943Y-104298117D01*
X83977192Y-104035327D01*
X84119838Y-103691799D01*
X84120162Y-103319833D01*
X83978117Y-102976057D01*
X83715327Y-102712808D01*
X83371799Y-102570162D01*
X82999833Y-102569838D01*
X82831403Y-102639432D01*
X82708117Y-102341057D01*
X82445327Y-102077808D01*
X82101799Y-101935162D01*
X82054923Y-101935121D01*
X81817401Y-101697599D01*
X81767088Y-101663981D01*
X81725334Y-101599093D01*
X81812931Y-101470890D01*
X81863940Y-101219000D01*
X81863940Y-100711000D01*
X81819662Y-100475683D01*
X81680590Y-100259559D01*
X81468390Y-100114569D01*
X81216500Y-100063560D01*
X80135000Y-100063560D01*
X80135000Y-89700633D01*
X80458201Y-89834838D01*
X80830167Y-89835162D01*
X81173943Y-89693117D01*
X81207118Y-89660000D01*
X98745198Y-89660000D01*
X99015000Y-89929802D01*
X99015000Y-93319442D01*
X98789683Y-93361838D01*
X98573559Y-93500910D01*
X98428569Y-93713110D01*
X98425919Y-93726197D01*
X98289090Y-93513559D01*
X98076890Y-93368569D01*
X97825000Y-93317560D01*
X96325000Y-93317560D01*
X96089683Y-93361838D01*
X95873559Y-93500910D01*
X95728569Y-93713110D01*
X95699836Y-93855000D01*
X95250000Y-93855000D01*
X94959161Y-93912852D01*
X94712599Y-94077599D01*
X94077599Y-94712599D01*
X93912852Y-94959161D01*
X93855000Y-95250000D01*
X93855000Y-96520000D01*
X93912852Y-96810839D01*
X94077599Y-97057401D01*
X94314878Y-97294680D01*
X94314838Y-97340167D01*
X94456883Y-97683943D01*
X94719673Y-97947192D01*
X95063201Y-98089838D01*
X95435167Y-98090162D01*
X95778943Y-97948117D01*
X96042192Y-97685327D01*
X96184838Y-97341799D01*
X96185162Y-96969833D01*
X96043117Y-96626057D01*
X95780327Y-96362808D01*
X95436799Y-96220162D01*
X95389923Y-96220121D01*
X95375000Y-96205198D01*
X95375000Y-95564802D01*
X95564802Y-95375000D01*
X95698258Y-95375000D01*
X95721838Y-95500317D01*
X95860910Y-95716441D01*
X96073110Y-95861431D01*
X96325000Y-95912440D01*
X97825000Y-95912440D01*
X98060317Y-95868162D01*
X98276441Y-95729090D01*
X98421431Y-95516890D01*
X98424081Y-95503803D01*
X98560910Y-95716441D01*
X98773110Y-95861431D01*
X99025000Y-95912440D01*
X100525000Y-95912440D01*
X100760317Y-95868162D01*
X100976441Y-95729090D01*
X101121431Y-95516890D01*
X101172440Y-95265000D01*
X101172440Y-93965000D01*
X101128162Y-93729683D01*
X100989090Y-93513559D01*
X100776890Y-93368569D01*
X100535000Y-93319585D01*
X100535000Y-89615000D01*
X100477148Y-89324161D01*
X100312401Y-89077599D01*
X100259802Y-89025000D01*
X104176594Y-89025000D01*
X104128559Y-89055910D01*
X103983569Y-89268110D01*
X103947064Y-89448378D01*
X103849161Y-89467852D01*
X103602599Y-89632599D01*
X102967599Y-90267599D01*
X102802852Y-90514161D01*
X102745000Y-90805000D01*
X102745000Y-95957537D01*
X102712808Y-95989673D01*
X102570162Y-96333201D01*
X102569838Y-96705167D01*
X102711883Y-97048943D01*
X102974673Y-97312192D01*
X103318201Y-97454838D01*
X103690167Y-97455162D01*
X104033943Y-97313117D01*
X104297192Y-97050327D01*
X104439838Y-96706799D01*
X104440162Y-96334833D01*
X104298117Y-95991057D01*
X104265000Y-95957882D01*
X104265000Y-95053305D01*
X106699674Y-95053305D01*
X106986043Y-95746372D01*
X107515839Y-96277093D01*
X108208405Y-96564672D01*
X108958305Y-96565326D01*
X109651372Y-96278957D01*
X110182093Y-95749161D01*
X110469672Y-95056595D01*
X110470326Y-94306695D01*
X110183957Y-93613628D01*
X109654161Y-93082907D01*
X108961595Y-92795328D01*
X108211695Y-92794674D01*
X107518628Y-93081043D01*
X106987907Y-93610839D01*
X106700328Y-94303405D01*
X106699674Y-95053305D01*
X104265000Y-95053305D01*
X104265000Y-91373310D01*
X104328110Y-91416431D01*
X104580000Y-91467440D01*
X106080000Y-91467440D01*
X106315317Y-91423162D01*
X106531441Y-91284090D01*
X106676431Y-91071890D01*
X106679081Y-91058803D01*
X106815910Y-91271441D01*
X107028110Y-91416431D01*
X107280000Y-91467440D01*
X108780000Y-91467440D01*
X109015317Y-91423162D01*
X109231441Y-91284090D01*
X109376431Y-91071890D01*
X109427440Y-90820000D01*
X109427440Y-89520000D01*
X109383162Y-89284683D01*
X109244090Y-89068559D01*
X109031890Y-88923569D01*
X108780000Y-88872560D01*
X108768629Y-88872560D01*
X108732148Y-88689161D01*
X108567401Y-88442599D01*
X108514802Y-88390000D01*
X116525198Y-88390000D01*
X116795000Y-88659802D01*
X116795000Y-88874442D01*
X116569683Y-88916838D01*
X116353559Y-89055910D01*
X116208569Y-89268110D01*
X116205919Y-89281197D01*
X116069090Y-89068559D01*
X115856890Y-88923569D01*
X115605000Y-88872560D01*
X114105000Y-88872560D01*
X113869683Y-88916838D01*
X113653559Y-89055910D01*
X113508569Y-89268110D01*
X113472064Y-89448378D01*
X113374161Y-89467852D01*
X113127599Y-89632599D01*
X112492599Y-90267599D01*
X112327852Y-90514161D01*
X112270000Y-90805000D01*
X112270000Y-95957537D01*
X112237808Y-95989673D01*
X112095162Y-96333201D01*
X112094838Y-96705167D01*
X112236883Y-97048943D01*
X112499673Y-97312192D01*
X112843201Y-97454838D01*
X113215167Y-97455162D01*
X113558943Y-97313117D01*
X113822192Y-97050327D01*
X113964838Y-96706799D01*
X113965162Y-96334833D01*
X113823117Y-95991057D01*
X113790000Y-95957882D01*
X113790000Y-94265750D01*
X115128000Y-94265750D01*
X115128000Y-94868310D01*
X115224673Y-95101699D01*
X115403302Y-95280327D01*
X115636691Y-95377000D01*
X116239250Y-95377000D01*
X116398000Y-95218250D01*
X116398000Y-94107000D01*
X115286750Y-94107000D01*
X115128000Y-94265750D01*
X113790000Y-94265750D01*
X113790000Y-93091690D01*
X115128000Y-93091690D01*
X115128000Y-93694250D01*
X115286750Y-93853000D01*
X116398000Y-93853000D01*
X116398000Y-92741750D01*
X116239250Y-92583000D01*
X115636691Y-92583000D01*
X115403302Y-92679673D01*
X115224673Y-92858301D01*
X115128000Y-93091690D01*
X113790000Y-93091690D01*
X113790000Y-91373310D01*
X113853110Y-91416431D01*
X114105000Y-91467440D01*
X115605000Y-91467440D01*
X115840317Y-91423162D01*
X116056441Y-91284090D01*
X116201431Y-91071890D01*
X116204081Y-91058803D01*
X116340910Y-91271441D01*
X116553110Y-91416431D01*
X116805000Y-91467440D01*
X118305000Y-91467440D01*
X118540317Y-91423162D01*
X118756441Y-91284090D01*
X118901431Y-91071890D01*
X118952440Y-90820000D01*
X118952440Y-89520000D01*
X118908162Y-89284683D01*
X118769090Y-89068559D01*
X118556890Y-88923569D01*
X118315000Y-88874585D01*
X118315000Y-88345000D01*
X118257148Y-88054161D01*
X118092401Y-87807599D01*
X118039802Y-87755000D01*
X122875198Y-87755000D01*
X122985000Y-87864802D01*
X122985000Y-88874442D01*
X122759683Y-88916838D01*
X122543559Y-89055910D01*
X122398569Y-89268110D01*
X122347560Y-89520000D01*
X122347560Y-90820000D01*
X122391838Y-91055317D01*
X122446269Y-91139905D01*
X122369833Y-91139838D01*
X122026057Y-91281883D01*
X121762808Y-91544673D01*
X121620162Y-91888201D01*
X121620121Y-91935077D01*
X121067599Y-92487599D01*
X120902852Y-92734161D01*
X120897563Y-92760751D01*
X120814697Y-92794990D01*
X120421371Y-93187630D01*
X120335051Y-93395512D01*
X120250010Y-93189697D01*
X119857370Y-92796371D01*
X119344100Y-92583243D01*
X118788339Y-92582758D01*
X118274697Y-92794990D01*
X117922000Y-93147072D01*
X117922000Y-93091690D01*
X117825327Y-92858301D01*
X117646698Y-92679673D01*
X117413309Y-92583000D01*
X116810750Y-92583000D01*
X116652000Y-92741750D01*
X116652000Y-93853000D01*
X116672000Y-93853000D01*
X116672000Y-94107000D01*
X116652000Y-94107000D01*
X116652000Y-95218250D01*
X116810750Y-95377000D01*
X117413309Y-95377000D01*
X117646698Y-95280327D01*
X117825327Y-95101699D01*
X117922000Y-94868310D01*
X117922000Y-94812386D01*
X118272630Y-95163629D01*
X118785900Y-95376757D01*
X119341661Y-95377242D01*
X119855303Y-95165010D01*
X120248629Y-94772370D01*
X120334949Y-94564488D01*
X120419990Y-94770303D01*
X120812630Y-95163629D01*
X121325900Y-95376757D01*
X121881661Y-95377242D01*
X122395303Y-95165010D01*
X122788629Y-94772370D01*
X122874949Y-94564488D01*
X122959990Y-94770303D01*
X123352630Y-95163629D01*
X123865900Y-95376757D01*
X124421661Y-95377242D01*
X124795023Y-95222972D01*
X124794838Y-95435167D01*
X124936883Y-95778943D01*
X125199673Y-96042192D01*
X125543201Y-96184838D01*
X125915167Y-96185162D01*
X126258943Y-96043117D01*
X126522192Y-95780327D01*
X126664838Y-95436799D01*
X126664879Y-95389923D01*
X126902401Y-95152401D01*
X127067148Y-94905839D01*
X127125000Y-94615000D01*
X127125000Y-91467440D01*
X127195000Y-91467440D01*
X127430317Y-91423162D01*
X127646441Y-91284090D01*
X127791431Y-91071890D01*
X127842440Y-90820000D01*
X127842440Y-89520000D01*
X127798162Y-89284683D01*
X127659090Y-89068559D01*
X127446890Y-88923569D01*
X127195000Y-88872560D01*
X125695000Y-88872560D01*
X125459683Y-88916838D01*
X125243559Y-89055910D01*
X125098569Y-89268110D01*
X125095919Y-89281197D01*
X124959090Y-89068559D01*
X124746890Y-88923569D01*
X124505000Y-88874585D01*
X124505000Y-87550000D01*
X124447148Y-87259161D01*
X124354164Y-87120000D01*
X134305198Y-87120000D01*
X134575000Y-87389802D01*
X134575000Y-88874442D01*
X134349683Y-88916838D01*
X134133559Y-89055910D01*
X133988569Y-89268110D01*
X133985919Y-89281197D01*
X133849090Y-89068559D01*
X133636890Y-88923569D01*
X133385000Y-88872560D01*
X131885000Y-88872560D01*
X131649683Y-88916838D01*
X131433559Y-89055910D01*
X131288569Y-89268110D01*
X131259836Y-89410000D01*
X130810000Y-89410000D01*
X130519161Y-89467852D01*
X130272599Y-89632599D01*
X129637599Y-90267599D01*
X129472852Y-90514161D01*
X129415000Y-90805000D01*
X129415000Y-95957537D01*
X129382808Y-95989673D01*
X129240162Y-96333201D01*
X129239838Y-96705167D01*
X129381883Y-97048943D01*
X129644673Y-97312192D01*
X129988201Y-97454838D01*
X130360167Y-97455162D01*
X130703943Y-97313117D01*
X130967192Y-97050327D01*
X131109838Y-96706799D01*
X131110162Y-96334833D01*
X131100898Y-96312413D01*
X131708405Y-96564672D01*
X132458305Y-96565326D01*
X133151372Y-96278957D01*
X133682093Y-95749161D01*
X133969672Y-95056595D01*
X133970326Y-94306695D01*
X133683957Y-93613628D01*
X133154161Y-93082907D01*
X132461595Y-92795328D01*
X131711695Y-92794674D01*
X131018628Y-93081043D01*
X130935000Y-93164525D01*
X130935000Y-91119802D01*
X131124802Y-90930000D01*
X131258258Y-90930000D01*
X131281838Y-91055317D01*
X131420910Y-91271441D01*
X131633110Y-91416431D01*
X131885000Y-91467440D01*
X133385000Y-91467440D01*
X133620317Y-91423162D01*
X133836441Y-91284090D01*
X133981431Y-91071890D01*
X133984081Y-91058803D01*
X134120910Y-91271441D01*
X134333110Y-91416431D01*
X134585000Y-91467440D01*
X136085000Y-91467440D01*
X136320317Y-91423162D01*
X136536441Y-91284090D01*
X136681431Y-91071890D01*
X136732440Y-90820000D01*
X136732440Y-89520000D01*
X136688162Y-89284683D01*
X136549090Y-89068559D01*
X136336890Y-88923569D01*
X136095000Y-88874585D01*
X136095000Y-87075000D01*
X136037148Y-86784161D01*
X135872401Y-86537599D01*
X135819802Y-86485000D01*
X142560198Y-86485000D01*
X142830000Y-86754802D01*
X142830000Y-93319442D01*
X142604683Y-93361838D01*
X142388559Y-93500910D01*
X142243569Y-93713110D01*
X142240919Y-93726197D01*
X142104090Y-93513559D01*
X141891890Y-93368569D01*
X141640000Y-93317560D01*
X140140000Y-93317560D01*
X139904683Y-93361838D01*
X139688559Y-93500910D01*
X139543569Y-93713110D01*
X139507064Y-93893378D01*
X139409161Y-93912852D01*
X139162599Y-94077599D01*
X138527599Y-94712599D01*
X138362852Y-94959161D01*
X138305000Y-95250000D01*
X138305000Y-95957537D01*
X138272808Y-95989673D01*
X138130162Y-96333201D01*
X138129838Y-96705167D01*
X138271883Y-97048943D01*
X138534673Y-97312192D01*
X138878201Y-97454838D01*
X139250167Y-97455162D01*
X139593943Y-97313117D01*
X139857192Y-97050327D01*
X139999838Y-96706799D01*
X140000162Y-96334833D01*
X139858117Y-95991057D01*
X139825000Y-95957882D01*
X139825000Y-95818310D01*
X139888110Y-95861431D01*
X140140000Y-95912440D01*
X141640000Y-95912440D01*
X141875317Y-95868162D01*
X142091441Y-95729090D01*
X142236431Y-95516890D01*
X142239081Y-95503803D01*
X142375910Y-95716441D01*
X142588110Y-95861431D01*
X142840000Y-95912440D01*
X144340000Y-95912440D01*
X144575317Y-95868162D01*
X144791441Y-95729090D01*
X144936431Y-95516890D01*
X144987440Y-95265000D01*
X144987440Y-93965000D01*
X144943162Y-93729683D01*
X144804090Y-93513559D01*
X144591890Y-93368569D01*
X144350000Y-93319585D01*
X144350000Y-86440000D01*
X144292148Y-86149161D01*
X144127401Y-85902599D01*
X144074802Y-85850000D01*
X154625198Y-85850000D01*
X154815000Y-86039802D01*
X154815000Y-98461594D01*
X154784090Y-98413559D01*
X154571890Y-98268569D01*
X154391622Y-98232064D01*
X154372148Y-98134161D01*
X154207401Y-97887599D01*
X153572401Y-97252599D01*
X153325839Y-97087852D01*
X153035000Y-97030000D01*
X148590000Y-97030000D01*
X148299161Y-97087852D01*
X148052599Y-97252599D01*
X147815320Y-97489878D01*
X147769833Y-97489838D01*
X147426057Y-97631883D01*
X147162808Y-97894673D01*
X147020162Y-98238201D01*
X147019838Y-98610167D01*
X147161883Y-98953943D01*
X147424673Y-99217192D01*
X147768201Y-99359838D01*
X148140167Y-99360162D01*
X148483943Y-99218117D01*
X148747192Y-98955327D01*
X148889838Y-98611799D01*
X148889879Y-98564923D01*
X148904802Y-98550000D01*
X152466690Y-98550000D01*
X152423569Y-98613110D01*
X152372560Y-98865000D01*
X152372560Y-100365000D01*
X152416838Y-100600317D01*
X152555910Y-100816441D01*
X152768110Y-100961431D01*
X152781197Y-100964081D01*
X152568559Y-101100910D01*
X152423569Y-101313110D01*
X152372560Y-101565000D01*
X152372560Y-103065000D01*
X152416838Y-103300317D01*
X152555910Y-103516441D01*
X152768110Y-103661431D01*
X153020000Y-103712440D01*
X154320000Y-103712440D01*
X154555317Y-103668162D01*
X154771441Y-103529090D01*
X154916431Y-103316890D01*
X154967440Y-103065000D01*
X154967440Y-103053629D01*
X155150839Y-103017148D01*
X155397401Y-102852401D01*
X155450000Y-102799802D01*
X155450000Y-112715198D01*
X155180198Y-112985000D01*
X154965558Y-112985000D01*
X154923162Y-112759683D01*
X154784090Y-112543559D01*
X154571890Y-112398569D01*
X154558803Y-112395919D01*
X154771441Y-112259090D01*
X154916431Y-112046890D01*
X154967440Y-111795000D01*
X154967440Y-110295000D01*
X154923162Y-110059683D01*
X154784090Y-109843559D01*
X154571890Y-109698569D01*
X154320000Y-109647560D01*
X153902362Y-109647560D01*
X153572401Y-109317599D01*
X153325839Y-109152852D01*
X153035000Y-109095000D01*
X152327463Y-109095000D01*
X152295327Y-109062808D01*
X151951799Y-108920162D01*
X151579833Y-108919838D01*
X151236057Y-109061883D01*
X150972808Y-109324673D01*
X150830162Y-109668201D01*
X150829838Y-110040167D01*
X150971883Y-110383943D01*
X151234673Y-110647192D01*
X151578201Y-110789838D01*
X151950167Y-110790162D01*
X152293943Y-110648117D01*
X152327118Y-110615000D01*
X152372560Y-110615000D01*
X152372560Y-111795000D01*
X152416838Y-112030317D01*
X152555910Y-112246441D01*
X152768110Y-112391431D01*
X152781197Y-112394081D01*
X152568559Y-112530910D01*
X152423569Y-112743110D01*
X152372560Y-112995000D01*
X152372560Y-114495000D01*
X152416838Y-114730317D01*
X152555910Y-114946441D01*
X152768110Y-115091431D01*
X153020000Y-115142440D01*
X154320000Y-115142440D01*
X154555317Y-115098162D01*
X154771441Y-114959090D01*
X154916431Y-114746890D01*
X154965415Y-114505000D01*
X155495000Y-114505000D01*
X155785839Y-114447148D01*
X156032401Y-114282401D01*
X156747401Y-113567401D01*
X156912148Y-113320839D01*
X156970000Y-113030000D01*
X156970000Y-85090000D01*
X156912148Y-84799161D01*
X156747401Y-84552599D01*
X156112401Y-83917599D01*
X155865839Y-83752852D01*
X155575000Y-83695000D01*
X76200000Y-83695000D01*
X75909161Y-83752852D01*
X75662599Y-83917599D01*
X75027599Y-84552599D01*
X74862852Y-84799161D01*
X74805000Y-85090000D01*
X74805000Y-100076000D01*
X74580750Y-100076000D01*
X74422000Y-100234750D01*
X74422000Y-100838000D01*
X74442000Y-100838000D01*
X74442000Y-101092000D01*
X74422000Y-101092000D01*
X74422000Y-101112000D01*
X74168000Y-101112000D01*
X74168000Y-101092000D01*
X73247250Y-101092000D01*
X73088500Y-101250750D01*
X73088500Y-101345309D01*
X73185173Y-101578698D01*
X73211709Y-101605235D01*
X73127069Y-101729110D01*
X73076060Y-101981000D01*
X71195000Y-101981000D01*
X71195000Y-100584691D01*
X73088500Y-100584691D01*
X73088500Y-100679250D01*
X73247250Y-100838000D01*
X74168000Y-100838000D01*
X74168000Y-100234750D01*
X74009250Y-100076000D01*
X73597190Y-100076000D01*
X73363801Y-100172673D01*
X73185173Y-100351302D01*
X73088500Y-100584691D01*
X71195000Y-100584691D01*
X71195000Y-83248127D01*
X71881847Y-83936174D01*
X73033674Y-84414454D01*
X74280854Y-84415543D01*
X75433515Y-83939273D01*
X76316174Y-83058153D01*
X76794454Y-81906326D01*
X76795543Y-80659146D01*
X76319273Y-79506485D01*
X75628994Y-78815000D01*
X165036873Y-78815000D01*
X164348826Y-79501847D01*
M02*
