G04 #@! TF.FileFunction,Copper,L1,Top,Signal*
%FSLAX46Y46*%
G04 Gerber Fmt 4.6, Leading zero omitted, Abs format (unit mm)*
G04 Created by KiCad (PCBNEW 4.0.7) date 02/09/20 01:32:39*
%MOMM*%
%LPD*%
G01*
G04 APERTURE LIST*
%ADD10C,0.100000*%
%ADD11R,1.700000X1.700000*%
%ADD12O,1.700000X1.700000*%
%ADD13C,5.000000*%
%ADD14R,1.500000X1.250000*%
%ADD15R,1.500000X1.300000*%
%ADD16R,1.300000X1.500000*%
%ADD17C,2.500000*%
%ADD18R,1.524000X1.524000*%
%ADD19C,1.524000*%
G04 APERTURE END LIST*
D10*
D11*
X168275000Y-95250000D03*
D12*
X168275000Y-97790000D03*
X168275000Y-100330000D03*
X168275000Y-102870000D03*
X168275000Y-105410000D03*
X168275000Y-107950000D03*
X168275000Y-110490000D03*
D13*
X73660000Y-139065000D03*
X167005000Y-139065000D03*
X167005000Y-81280000D03*
X73660000Y-81280000D03*
D11*
X168275000Y-113030000D03*
D12*
X168275000Y-115570000D03*
X168275000Y-118110000D03*
D14*
X125115000Y-149860000D03*
X127615000Y-149860000D03*
X121940000Y-156845000D03*
X124440000Y-156845000D03*
D15*
X138858000Y-115824000D03*
X141558000Y-115824000D03*
X112442000Y-151384000D03*
X115142000Y-151384000D03*
X112950000Y-154432000D03*
X115650000Y-154432000D03*
X130222000Y-115824000D03*
X132922000Y-115824000D03*
X122602000Y-115824000D03*
X125302000Y-115824000D03*
X114982000Y-115824000D03*
X117682000Y-115824000D03*
X107362000Y-115824000D03*
X110062000Y-115824000D03*
D10*
G36*
X90765457Y-117719695D02*
X91684695Y-116800457D01*
X92745355Y-117861117D01*
X91826117Y-118780355D01*
X90765457Y-117719695D01*
X90765457Y-117719695D01*
G37*
G36*
X92674645Y-119628883D02*
X93593883Y-118709645D01*
X94654543Y-119770305D01*
X93735305Y-120689543D01*
X92674645Y-119628883D01*
X92674645Y-119628883D01*
G37*
D16*
X88900000Y-105330000D03*
X88900000Y-108030000D03*
D10*
G36*
X92973305Y-98639457D02*
X93892543Y-99558695D01*
X92831883Y-100619355D01*
X91912645Y-99700117D01*
X92973305Y-98639457D01*
X92973305Y-98639457D01*
G37*
G36*
X91064117Y-100548645D02*
X91983355Y-101467883D01*
X90922695Y-102528543D01*
X90003457Y-101609305D01*
X91064117Y-100548645D01*
X91064117Y-100548645D01*
G37*
D17*
X132085000Y-118480000D03*
X108585000Y-118480000D03*
X132085000Y-94680000D03*
D18*
X116525000Y-93980000D03*
D19*
X119065000Y-93980000D03*
X121605000Y-93980000D03*
X124145000Y-93980000D03*
D17*
X108585000Y-94680000D03*
D15*
X118982500Y-152315001D03*
X121682500Y-152315001D03*
X118982500Y-152315001D03*
X121682500Y-152315001D03*
X118982500Y-152315001D03*
X121682500Y-152315001D03*
X118982500Y-152315001D03*
X121682500Y-152315001D03*
X118982500Y-152315001D03*
X121682500Y-152315001D03*
X118982500Y-152315001D03*
X121682500Y-152315001D03*
M02*
