G04 #@! TF.FileFunction,Paste,Top*
%FSLAX46Y46*%
G04 Gerber Fmt 4.6, Leading zero omitted, Abs format (unit mm)*
G04 Created by KiCad (PCBNEW 4.0.7) date 02/09/20 01:32:40*
%MOMM*%
%LPD*%
G01*
G04 APERTURE LIST*
%ADD10C,0.100000*%
%ADD11R,1.500000X1.250000*%
%ADD12R,1.500000X1.300000*%
%ADD13R,1.300000X1.500000*%
G04 APERTURE END LIST*
D10*
D11*
X125115000Y-149860000D03*
X127615000Y-149860000D03*
X121940000Y-156845000D03*
X124440000Y-156845000D03*
D12*
X138858000Y-115824000D03*
X141558000Y-115824000D03*
X112442000Y-151384000D03*
X115142000Y-151384000D03*
X112950000Y-154432000D03*
X115650000Y-154432000D03*
X130222000Y-115824000D03*
X132922000Y-115824000D03*
X122602000Y-115824000D03*
X125302000Y-115824000D03*
X114982000Y-115824000D03*
X117682000Y-115824000D03*
X107362000Y-115824000D03*
X110062000Y-115824000D03*
D10*
G36*
X90765457Y-117719695D02*
X91684695Y-116800457D01*
X92745355Y-117861117D01*
X91826117Y-118780355D01*
X90765457Y-117719695D01*
X90765457Y-117719695D01*
G37*
G36*
X92674645Y-119628883D02*
X93593883Y-118709645D01*
X94654543Y-119770305D01*
X93735305Y-120689543D01*
X92674645Y-119628883D01*
X92674645Y-119628883D01*
G37*
D13*
X88900000Y-105330000D03*
X88900000Y-108030000D03*
D10*
G36*
X92973305Y-98639457D02*
X93892543Y-99558695D01*
X92831883Y-100619355D01*
X91912645Y-99700117D01*
X92973305Y-98639457D01*
X92973305Y-98639457D01*
G37*
G36*
X91064117Y-100548645D02*
X91983355Y-101467883D01*
X90922695Y-102528543D01*
X90003457Y-101609305D01*
X91064117Y-100548645D01*
X91064117Y-100548645D01*
G37*
D12*
X118982500Y-152315001D03*
X121682500Y-152315001D03*
X118982500Y-152315001D03*
X121682500Y-152315001D03*
X118982500Y-152315001D03*
X121682500Y-152315001D03*
X118982500Y-152315001D03*
X121682500Y-152315001D03*
X118982500Y-152315001D03*
X121682500Y-152315001D03*
X118982500Y-152315001D03*
X121682500Y-152315001D03*
M02*
