G04 #@! TF.GenerationSoftware,KiCad,Pcbnew,(5.1.5)-3*
G04 #@! TF.CreationDate,2020-03-03T18:46:58+01:00*
G04 #@! TF.ProjectId,8bitWave Faceplate,38626974-5761-4766-9520-46616365706c,rev?*
G04 #@! TF.SameCoordinates,Original*
G04 #@! TF.FileFunction,Paste,Bot*
G04 #@! TF.FilePolarity,Positive*
%FSLAX46Y46*%
G04 Gerber Fmt 4.6, Leading zero omitted, Abs format (unit mm)*
G04 Created by KiCad (PCBNEW (5.1.5)-3) date 2020-03-03 18:46:58*
%MOMM*%
%LPD*%
G04 APERTURE LIST*
%ADD10R,1.143000X0.508000*%
%ADD11R,1.500000X1.250000*%
%ADD12R,1.600000X3.500000*%
%ADD13R,1.500000X1.300000*%
%ADD14R,1.300000X1.500000*%
G04 APERTURE END LIST*
D10*
X76200000Y-120650000D03*
X76200000Y-123190000D03*
X76200000Y-124460000D03*
X76200000Y-125730000D03*
X76200000Y-127000000D03*
X76200000Y-128270000D03*
X76200000Y-129540000D03*
X82550000Y-129540000D03*
X82550000Y-128270000D03*
X82550000Y-127000000D03*
X82550000Y-125730000D03*
X82550000Y-124460000D03*
X82550000Y-123190000D03*
X82550000Y-121920000D03*
X82550000Y-120650000D03*
X76200000Y-121920000D03*
D11*
X78105000Y-118110000D03*
X80605000Y-118110000D03*
X80625000Y-112395000D03*
X78125000Y-112395000D03*
D12*
X166370000Y-124935000D03*
X166370000Y-130335000D03*
D13*
X140890000Y-118745000D03*
X143590000Y-118745000D03*
X132635000Y-123190000D03*
X135335000Y-123190000D03*
X123745000Y-123190000D03*
X126445000Y-123190000D03*
X114855000Y-123190000D03*
X117555000Y-123190000D03*
X105330000Y-123190000D03*
X108030000Y-123190000D03*
X97075000Y-118745000D03*
X99775000Y-118745000D03*
D14*
X86995000Y-111045000D03*
X86995000Y-113745000D03*
X86995000Y-99615000D03*
X86995000Y-102315000D03*
D13*
X99775000Y-94615000D03*
X97075000Y-94615000D03*
X108030000Y-90170000D03*
X105330000Y-90170000D03*
X117555000Y-90170000D03*
X114855000Y-90170000D03*
X123745000Y-90170000D03*
X126445000Y-90170000D03*
X135335000Y-90170000D03*
X132635000Y-90170000D03*
X143590000Y-94615000D03*
X140890000Y-94615000D03*
D14*
X153670000Y-102315000D03*
X153670000Y-99615000D03*
X153670000Y-113745000D03*
X153670000Y-111045000D03*
D10*
X82550000Y-109855000D03*
X82550000Y-107315000D03*
X82550000Y-106045000D03*
X82550000Y-104775000D03*
X82550000Y-103505000D03*
X82550000Y-102235000D03*
X82550000Y-100965000D03*
X76200000Y-100965000D03*
X76200000Y-102235000D03*
X76200000Y-103505000D03*
X76200000Y-104775000D03*
X76200000Y-106045000D03*
X76200000Y-107315000D03*
X76200000Y-108585000D03*
X76200000Y-109855000D03*
X82550000Y-108585000D03*
M02*
